<svg version="1" viewBox="0 0 24 24" xmlns="http://www.w3.org/2000/svg">
    <path d="m17.359643 1.0000001c-1.278636 0-2.418985 0.5423733-3.267987 1.2721011-0.096964-0.0803286-0.162117-0.1806807-0.273245-0.2498972-0.639835-0.3985172-1.424848-0.4993422-2.054289-0.4082031-0.879969 0.1274603-1.597512 0.702329-2.1354934 1.3444696-0.3923449-0.1473796-0.8011159-0.2473023-1.2136978-0.2057978-0.3234683 0.0325311-0.6216102 0.1124203-0.8921669 0.2182361-0.9941192 0.3888221-1.8260239 1.3727787-2.1080592 2.341797-0.2612367 0.0825353-0.5624364 0.0814672-0.7802341 0.2137127-0.8960339 0.54439-1.6041608 1.7411576-1.6328958 2.7737461s0.3402513 1.7773504 0.7407287 2.3644124c0.2578268 0.377949 0.618601 0.626671 0.9525228 0.906867-0.1780571 0.402037-0.3463301 0.813235-0.441145 1.27097-0.5269205 2.543924 0.4752168 4.927997 1.9664974 6.791325 1.4915053 1.863606 3.6566154 3.366261 6.2736983 3.366261 2.830617 0 5.223801-1.950764 6.049881-4.793247 0.326123-0.878287 0.132897-1.892516-0.01281-2.731642-0.398729-2.279832-1.029487-4.542776 1.703823-8.4301136 0.493893-0.9165617 0.986871-1.9359982 0.659521-3.4261923-0.163676-0.7450697-0.687169-1.5775799-1.388182-2.0353347-0.701013-0.4577547-1.445886-0.5834703-2.146467-0.5834703z" fill="#40c4ff" stroke-width="1.1413342"/>
    <path d="m17.533077 3.3157895c-3.429411 0-4.072068 5.2105264-2.142834 5.2105264 1.928957 0 5.572383-5.2105264 2.142834-5.2105264zm-5.443588 0.5913855c-1.961536 0.2757341-1.271739 3.9700147-0.227287 4.0390629 1.044027 0.0690493 2.189533-4.3147963 0.227287-4.0390629zm-3.548395 1.1499794c-0.1001881 0.0097784-0.2075249 0.0355994-0.3222729 0.0791532-1.8363046 0.6970172-0.2790034 3.5743418 0.7497086 3.3809623 0.9651934-0.181009 1.0753903-3.6068329-0.4274357-3.4601155zm-2.4142205 2.3112668c-0.1639538-0.0046895-0.3415609 0.0414121-0.5303371 0.1526522-1.5095272 0.8900471 0.5083898 3.0404916 1.396516 2.7070316 0.7771117-0.2919045 0.2814986-2.8267243-0.8661789-2.8596838zm7.0413825 1.7379728c-2.702479-0.047831-6.2671989 1.370485-6.8751574 4.218853-0.6584415 3.082427 2.7110027 7.358964 6.2260874 7.358964 1.72924 0 3.723666-1.633868 4.096825-3.703227 0.284999-1.578003-3.585296-0.945779-3.45454 0.09838 0.10677 0.853035-0.339633 1.29666-0.955511 1.310547-0.840855-0.101895-1.253102-0.587301-1.363724-1.320724-0.150587-1.925902 5.914941-3.298458 5.434541-6.284745-0.175707-1.0922366-1.487035-1.649349-3.108521-1.678048z" fill="#fff" stroke-width="1.1579002"/>
</svg>
