<?xml version="1.0" encoding="UTF-8" standalone="no"?>
<!-- Created with Inkscape (http://www.inkscape.org/) -->

<svg
   xmlns:dc="http://purl.org/dc/elements/1.1/"
   xmlns:cc="http://creativecommons.org/ns#"
   xmlns:rdf="http://www.w3.org/1999/02/22-rdf-syntax-ns#"
   xmlns:svg="http://www.w3.org/2000/svg"
   xmlns="http://www.w3.org/2000/svg"
   xmlns:sodipodi="http://sodipodi.sourceforge.net/DTD/sodipodi-0.dtd"
   xmlns:inkscape="http://www.inkscape.org/namespaces/inkscape"
   width="24"
   height="24"
   viewBox="0 0 6.35 6.3500005"
   version="1.1"
   id="svg8"
   inkscape:version="0.92.4 (5da689c313, 2019-01-14)"
   sodipodi:docname="kdevdesigner.svg"
   inkscape:export-filename="/home/john/Nextcloud/Q4OS Stuff/desktop-profiler.png"
   inkscape:export-xdpi="96"
   inkscape:export-ydpi="96">
  <defs
     id="defs2">
    <style
       id="current-color-scheme"
       type="text/css">
   .ColorScheme-Text { color:#5c616c; } .ColorScheme-Highlight { color:#5294e2; } .ColorScheme-ButtonBackground { color:#d3dae3; }
  </style>
    <style
       type="text/css"
       id="current-color-scheme-3">
   .ColorScheme-Text { color:#5c616c; } .ColorScheme-Highlight { color:#5294e2; } .ColorScheme-ButtonBackground { color:#d3dae3; }
  </style>
  </defs>
  <sodipodi:namedview
     id="base"
     pagecolor="#ffffff"
     bordercolor="#666666"
     borderopacity="1.0"
     inkscape:pageopacity="0.0"
     inkscape:pageshadow="2"
     inkscape:zoom="21.458333"
     inkscape:cx="12"
     inkscape:cy="12"
     inkscape:document-units="mm"
     inkscape:current-layer="layer1"
     showgrid="false"
     units="px"
     inkscape:window-width="1362"
     inkscape:window-height="695"
     inkscape:window-x="0"
     inkscape:window-y="0"
     inkscape:window-maximized="1"
     fit-margin-top="0"
     fit-margin-left="0"
     fit-margin-right="0"
     fit-margin-bottom="0" />
  <metadata
     id="metadata5">
    <rdf:RDF>
      <cc:Work
         rdf:about="">
        <dc:format>image/svg+xml</dc:format>
        <dc:type
           rdf:resource="http://purl.org/dc/dcmitype/StillImage" />
        <dc:title></dc:title>
      </cc:Work>
    </rdf:RDF>
  </metadata>
  <g
     inkscape:label="Layer 1"
     inkscape:groupmode="layer"
     id="layer1"
     transform="translate(0,-290.64999)">
    <rect
       style="opacity:1;fill:#2196f3;fill-opacity:1;stroke:none;stroke-width:0.11406455;stroke-opacity:1"
       id="rect4909-1"
       width="5.4570327"
       height="4.9609389"
       x="0.16172659"
       y="290.97195" />
    <rect
       style="opacity:1;fill:#fafafa;fill-opacity:1;stroke:none;stroke-width:0.10909563;stroke-opacity:1"
       id="rect4909-5-2"
       width="5.2296557"
       height="4.7354417"
       x="0.27541468"
       y="291.08472" />
    <rect
       style="opacity:1;fill:#2196f3;fill-opacity:1;stroke:none;stroke-width:0.12208726;stroke-opacity:1"
       id="rect4907-7"
       width="5.4570327"
       height="0.90198874"
       x="0.16172659"
       y="290.97195" />
    <path
       style="fill:#cfd8dc;fill-opacity:1;stroke-width:0.05987881"
       d="m 2.3691749,291.88456 c -0.010995,7.5e-4 -0.021614,0.006 -0.029872,0.0143 l -0.3821604,0.38209 c -0.016067,0.0161 -0.019094,0.0411 -0.00724,0.0606 l 0.4474278,0.7369 c -0.079356,0.13342 -0.1429599,0.27726 -0.1884179,0.429 l -0.8214053,0.17086 c -0.022854,0.005 -0.039319,0.025 -0.039319,0.0485 v 0.54037 c 0,0.0229 0.015635,0.0427 0.037656,0.0479 l 0.7972535,0.19487 c 0.042515,0.17574 0.1083975,0.34234 0.1954719,0.49546 l -0.4614664,0.70371 c -0.012875,0.0197 -0.010183,0.0455 0.00645,0.0622 l 0.3820266,0.38209 c 0.016067,0.016 0.041152,0.0191 0.060744,0.007 l 0.7231364,-0.43918 c 0.1420458,0.082 0.2952358,0.14647 0.4571419,0.19022 l 0.1687245,0.81122 c 0.00475,0.023 0.025067,0.0393 0.048369,0.0393 h 0.5404404 c 0.022721,0 0.042547,-0.0155 0.047969,-0.0378 l 0.1987251,-0.8124 c 0.1668956,-0.0451 0.3247433,-0.11218 0.4702481,-0.19787 l 0.7126245,0.46726 c 0.019595,0.0129 0.04551,0.0103 0.062141,-0.006 l 0.382161,-0.3821 c 0.016165,-0.0161 0.01906,-0.0412 0.00718,-0.0606 l -0.4863981,-0.6161 C 5.480427,294.81685 5.5075,294.84753 5.4277835,294.76242 c -0.256181,0.50138 -0.7773927,0.84482 -1.3792749,0.84482 -0.8551186,0 -1.5483996,-0.6933 -1.5483996,-1.54846 0,-0.6291 0.3752249,-1.17012 0.9138845,-1.41248 v -0.39945 c -0.098035,0.0343 -0.1928096,0.0756 -0.2828284,0.12468 -6.6e-5,-6e-5 -1.361e-4,-1.9e-4 -3.937e-4,-3.7e-4 L 2.401384,291.89235 c -0.00982,-0.007 -0.021209,-0.009 -0.032201,-0.008 z"
       id="path5692_2_-3"
       inkscape:connector-curvature="0"
       sodipodi:nodetypes="cccccccssccccccccccsscccccccccssccccccc" />
    <circle
       style="opacity:1;fill:#206b00;fill-opacity:1;stroke-width:0.08008914"
       id="path5219-3"
       cx="4.0712099"
       cy="294.03931"
       r="1.6418272" />
    <ellipse
       style="opacity:1;fill:#ffffff;fill-opacity:1;stroke-width:0.08008914"
       id="path5219-3-6"
       cx="3.8706298"
       cy="294.46201"
       rx="1.0011141"
       ry="1.0011144" />
    <path
       style="fill:#1a1a1a;fill-opacity:1;stroke-width:0.08008914"
       d="m 2.9896494,294.40192 0.9610359,0.88099 0.4805686,-1.32148 z"
       id="path4661"
       inkscape:connector-curvature="0"
       sodipodi:nodetypes="cccc" />
  </g>
</svg>
