<?xml version="1.0" encoding="UTF-8" standalone="no"?>
<!-- Created with Inkscape (http://www.inkscape.org/) -->

<svg
   xmlns:dc="http://purl.org/dc/elements/1.1/"
   xmlns:cc="http://creativecommons.org/ns#"
   xmlns:rdf="http://www.w3.org/1999/02/22-rdf-syntax-ns#"
   xmlns:svg="http://www.w3.org/2000/svg"
   xmlns="http://www.w3.org/2000/svg"
   xmlns:sodipodi="http://sodipodi.sourceforge.net/DTD/sodipodi-0.dtd"
   xmlns:inkscape="http://www.inkscape.org/namespaces/inkscape"
   width="24"
   height="24"
   viewBox="0 0 6.35 6.3500005"
   version="1.1"
   id="svg8"
   inkscape:version="0.92.4 (5da689c313, 2019-01-14)"
   sodipodi:docname="kdevdesigner.svg"
   inkscape:export-filename="/home/john/Nextcloud/Q4OS Stuff/desktop-profiler.png"
   inkscape:export-xdpi="96"
   inkscape:export-ydpi="96">
  <defs
     id="defs2">
    <style
       id="current-color-scheme"
       type="text/css">
   .ColorScheme-Text { color:#5c616c; } .ColorScheme-Highlight { color:#5294e2; } .ColorScheme-ButtonBackground { color:#d3dae3; }
  </style>
    <style
       type="text/css"
       id="current-color-scheme-3">
   .ColorScheme-Text { color:#5c616c; } .ColorScheme-Highlight { color:#5294e2; } .ColorScheme-ButtonBackground { color:#d3dae3; }
  </style>
  </defs>
  <sodipodi:namedview
     id="base"
     pagecolor="#ffffff"
     bordercolor="#666666"
     borderopacity="1.0"
     inkscape:pageopacity="0.0"
     inkscape:pageshadow="2"
     inkscape:zoom="21.458333"
     inkscape:cx="3.9611649"
     inkscape:cy="12"
     inkscape:document-units="mm"
     inkscape:current-layer="layer1"
     showgrid="false"
     units="px"
     inkscape:window-width="1362"
     inkscape:window-height="695"
     inkscape:window-x="0"
     inkscape:window-y="0"
     inkscape:window-maximized="1"
     fit-margin-top="0"
     fit-margin-left="0"
     fit-margin-right="0"
     fit-margin-bottom="0" />
  <metadata
     id="metadata5">
    <rdf:RDF>
      <cc:Work
         rdf:about="">
        <dc:format>image/svg+xml</dc:format>
        <dc:type
           rdf:resource="http://purl.org/dc/dcmitype/StillImage" />
        <dc:title />
      </cc:Work>
    </rdf:RDF>
  </metadata>
  <g
     inkscape:label="Layer 1"
     inkscape:groupmode="layer"
     id="layer1"
     transform="translate(0,-290.64999)">
    <rect
       style="opacity:1;fill:#2196f3;fill-opacity:1;stroke:none;stroke-width:0.11009497;stroke-opacity:1"
       id="rect4909-1"
       width="5.2671094"
       height="4.7883034"
       x="0.26458335"
       y="291.14688" />
    <rect
       style="opacity:1;fill:#fafafa;fill-opacity:1;stroke:none;stroke-width:0.10529897;stroke-opacity:1"
       id="rect4909-5-2"
       width="5.047646"
       height="4.5706534"
       x="0.3743147"
       y="291.25571" />
    <rect
       style="opacity:1;fill:#2196f3;fill-opacity:1;stroke:none;stroke-width:0.11783848;stroke-opacity:1"
       id="rect4907-7"
       width="5.2671094"
       height="0.87060046"
       x="0.26458335"
       y="291.14688" />
    <path
       style="fill:#b0bec5;fill-opacity:1;stroke-width:0.05779496"
       d="m 2.3952049,292.02773 c -0.010612,7.2e-4 -0.020862,0.006 -0.028832,0.0138 l -0.3688599,0.36879 c -0.015508,0.0155 -0.018429,0.0397 -0.00699,0.0585 l 0.4318558,0.71126 c -0.076594,0.12878 -0.1379844,0.26761 -0.1818603,0.41407 l -0.7928176,0.16492 c -0.022059,0.005 -0.037951,0.0241 -0.037951,0.0468 v 0.52156 c 0,0.0221 0.015091,0.0412 0.036345,0.0462 l 0.7695063,0.18809 c 0.041035,0.16962 0.1046249,0.33042 0.1886688,0.47821 l -0.4454058,0.67923 c -0.012427,0.019 -0.00983,0.0439 0.00623,0.06 l 0.3687307,0.3688 c 0.015508,0.0154 0.03972,0.0184 0.05863,0.007 l 0.6979688,-0.4239 c 0.1371021,0.0791 0.2849606,0.14138 0.4412318,0.18361 l 0.1628523,0.78299 c 0.00458,0.0222 0.024195,0.0379 0.046686,0.0379 H 4.262825 c 0.02193,0 0.041066,-0.015 0.046299,-0.0365 l 0.1918088,-0.78413 c 0.1610871,-0.0435 0.3134412,-0.10827 0.4538819,-0.19098 l 0.6878227,0.451 c 0.018913,0.0125 0.043926,0.01 0.059978,-0.006 l 0.3688605,-0.3688 c 0.015602,-0.0155 0.018397,-0.0398 0.00693,-0.0585 l -0.4694698,-0.59466 c -0.2107598,-0.28908 -0.1846291,-0.25947 -0.2615711,-0.34162 -0.2472651,0.48393 -0.7503368,0.81542 -1.3312715,0.81542 -0.8253575,0 -1.49451,-0.66917 -1.49451,-1.49457 0,-0.60721 0.3621658,-1.1294 0.8820782,-1.36333 v -0.38555 c -0.094623,0.0331 -0.1860991,0.073 -0.272985,0.12034 -6.37e-5,-6e-5 -1.313e-4,-1.8e-4 -3.8e-4,-3.6e-4 L 2.426293,292.03525 c -0.00948,-0.007 -0.020471,-0.009 -0.03108,-0.008 z"
       id="path5692_2_-3"
       inkscape:connector-curvature="0"
       sodipodi:nodetypes="cccccccssccccccccccsscccccccccssccccccc" />
    <ellipse
       style="opacity:1;fill:#206b00;fill-opacity:1;stroke-width:0.07730194"
       id="path5219-3"
       cx="4.0380034"
       cy="294.10748"
       rx="1.584686"
       ry="1.5846933" />
    <ellipse
       style="opacity:1;fill:#ffffff;fill-opacity:1;stroke-width:0.07730194"
       id="path5219-3-6"
       cx="3.844404"
       cy="294.51547"
       rx="0.96627194"
       ry="0.96627665" />
    <path
       style="fill:#1a1a1a;fill-opacity:1;stroke-width:0.07730194"
       d="m 2.9940848,294.45749 0.9275885,0.85033 0.4638432,-1.2755 z"
       id="path4661"
       inkscape:connector-curvature="0"
       sodipodi:nodetypes="cccc" />
  </g>
</svg>
