<?xml version="1.0" encoding="UTF-8" standalone="no"?>
<!-- Created with Inkscape (http://www.inkscape.org/) -->

<svg
   xmlns:dc="http://purl.org/dc/elements/1.1/"
   xmlns:cc="http://creativecommons.org/ns#"
   xmlns:rdf="http://www.w3.org/1999/02/22-rdf-syntax-ns#"
   xmlns:svg="http://www.w3.org/2000/svg"
   xmlns="http://www.w3.org/2000/svg"
   xmlns:sodipodi="http://sodipodi.sourceforge.net/DTD/sodipodi-0.dtd"
   xmlns:inkscape="http://www.inkscape.org/namespaces/inkscape"
   version="1.1"
   id="svg2"
   width="24"
   height="24"
   viewBox="0 0 24 24"
   sodipodi:docname="konqueror.svg"
   inkscape:version="0.92.4 (5da689c313, 2019-01-14)"
   inkscape:export-filename="/home/john/Nextcloud/Q4OS Stuff/tdevelop.png"
   inkscape:export-xdpi="96"
   inkscape:export-ydpi="96">
  <metadata
     id="metadata8">
    <rdf:RDF>
      <cc:Work
         rdf:about="">
        <dc:format>image/svg+xml</dc:format>
        <dc:type
           rdf:resource="http://purl.org/dc/dcmitype/StillImage" />
        <dc:title></dc:title>
      </cc:Work>
    </rdf:RDF>
  </metadata>
  <defs
     id="defs6" />
  <sodipodi:namedview
     pagecolor="#ffffff"
     bordercolor="#666666"
     borderopacity="1"
     objecttolerance="10"
     gridtolerance="10"
     guidetolerance="10"
     inkscape:pageopacity="0"
     inkscape:pageshadow="2"
     inkscape:window-width="1362"
     inkscape:window-height="695"
     id="namedview4"
     showgrid="false"
     fit-margin-top="0"
     fit-margin-left="0"
     fit-margin-right="0"
     fit-margin-bottom="0"
     showguides="true"
     inkscape:zoom="16.09375"
     inkscape:cx="16"
     inkscape:cy="16"
     inkscape:window-x="0"
     inkscape:window-y="0"
     inkscape:window-maximized="1"
     inkscape:current-layer="svg2"
     inkscape:snap-grids="true" />
  <path
     style="fill:#cfd8dc;fill-opacity:1;stroke-width:0.28036955"
     d="m 5.5305925,0.4108178 c -0.051482,0.00532 -0.101203,0.02808 -0.139869,0.066968 L 3.6013395,2.266852 c -0.075233,0.07545 -0.089406,0.192445 -0.033941,0.283799 L 5.6623824,6.001068 C 5.290815,6.625739 4.9930041,7.299251 4.7801564,8.009756 L 0.93410475,8.80974 C 0.82709625,8.831887 0.75,8.926717 0.75,9.036529 v 2.530181 c 0,0.107005 0.0732082,0.199685 0.176316,0.22461 l 3.7329664,0.912445 c 0.1990668,0.82288 0.5075481,1.60293 0.9152546,2.3199 L 3.4138208,18.31863 c -0.060283,0.09209 -0.047684,0.213395 0.030203,0.29096 L 5.23278,20.398665 c 0.075233,0.07503 0.192683,0.08976 0.284422,0.03455 L 8.9031307,18.37686 c 0.6650986,0.383805 1.3823773,0.68583 2.1404673,0.89065 l 0.790017,3.79838 c 0.02223,0.10763 0.11737,0.184115 0.226476,0.184115 h 2.530495 c 0.106379,0 0.199215,-0.07259 0.224606,-0.176955 l 0.930513,-3.806165 c 0.781451,-0.210895 1.520538,-0.52522 2.201834,-0.926465 l 3.336707,2.187815 c 0.09175,0.06041 0.213084,0.0483 0.290963,-0.02955 l 1.789386,-1.78907 c 0.07569,-0.07566 0.08924,-0.19267 0.03364,-0.28379 l -2.277451,-2.88477 c -1.022423,-1.40241 -0.895658,-1.25875 -1.268914,-1.65725 -1.199512,2.347625 -3.639973,3.955695 -6.458155,3.955695 -4.003907,0 -7.2500445,-3.246205 -7.2500445,-7.25035 0,-2.945593 1.756909,-5.478806 4.2790655,-6.6136 V 2.10518 C 9.9637087,2.265761 9.5199473,2.459373 9.0984532,2.68897 c -2.999e-4,-2.81e-4 -6.495e-4,-10e-4 -0.0018,-0.0022 L 5.681443,0.4468598 C 5.6354477,0.4167623 5.5821385,0.4047923 5.5306685,0.4100873 Z"
     id="path5692_2_-3"
     inkscape:connector-curvature="0"
     sodipodi:nodetypes="cccccccssccccccccccsscccccccccssccccccc" />
  <ellipse
     style="opacity:1;fill:#2196f3;fill-opacity:1;stroke-width:0.375"
     id="path5219-3"
     cx="13.500002"
     cy="10.5"
     rx="7.6875"
     ry="7.687501" />
  <path
     inkscape:connector-curvature="0"
     style="opacity:1;fill:#fafafa;stroke-width:0.75006557"
     class="ColorScheme-Text"
     d="m 13.587905,4.500621 a 6.000906,6.000142 0 0 0 -4.3307322,1.757854 6.000906,6.000142 0 0 0 0,8.484575 6.000906,6.000142 0 0 0 8.4856572,0 6.000906,6.000142 0 0 0 0,-8.484575 6.000906,6.000142 0 0 0 -4.154925,-1.757854 z m -0.164086,0.750018 a 5.250793,5.2501245 0 0 1 3.510294,1.286164 L 15.880732,7.59005 A 6.000524,3.7503274 44.991678 0 0 11.812247,5.533361 5.250793,5.2501245 0 0 1 13.423819,5.250639 Z M 11.152967,6.230643 A 5.2504585,3.000262 44.992816 0 1 15.348914,8.1218 L 13.500002,9.970477 10.0864,6.557311 a 5.2504585,3.000262 44.992816 0 1 1.066567,-0.326668 z m 6.315896,0.832051 a 5.250793,5.2501245 0 0 1 1.002105,5.108031 6.000524,3.7503274 44.991678 0 0 -2.062812,-4.047459 z m -7.9142807,0.02344 3.4150657,3.414631 -1.850377,1.850145 A 5.2504585,3.000262 44.992816 0 1 9.5545822,7.08613 Z m 6.3261507,1.56449 a 5.2504585,3.000262 44.992816 0 1 1.564689,5.264771 l -3.415066,-3.41463 z M 8.529036,8.830805 a 6.000524,3.7503274 44.991678 0 0 2.062811,4.04746 l -1.060706,1.06057 A 5.250793,5.2501245 0 0 1 8.529036,8.830805 Z m 4.970966,2.200245 3.413601,3.41317 A 5.2504585,3.000262 44.992816 0 1 11.65109,12.87973 Z m -2.380731,2.38043 a 6.000524,3.7503274 44.991678 0 0 4.068486,2.05669 5.250793,5.2501245 0 0 1 -5.121868,-1.003445 z"
     id="path5" />
</svg>
