<?xml version="1.0" encoding="UTF-8" standalone="no"?>
<!-- Created with Inkscape (http://www.inkscape.org/) -->

<svg
   xmlns:dc="http://purl.org/dc/elements/1.1/"
   xmlns:cc="http://creativecommons.org/ns#"
   xmlns:rdf="http://www.w3.org/1999/02/22-rdf-syntax-ns#"
   xmlns:svg="http://www.w3.org/2000/svg"
   xmlns="http://www.w3.org/2000/svg"
   xmlns:sodipodi="http://sodipodi.sourceforge.net/DTD/sodipodi-0.dtd"
   xmlns:inkscape="http://www.inkscape.org/namespaces/inkscape"
   version="1.1"
   id="svg2"
   width="24"
   height="24"
   viewBox="0 0 24 24"
   sodipodi:docname="konqueror.svg"
   inkscape:version="0.92.1 r15371"
   inkscape:export-filename="/home/john/Nextcloud/Q4OS Stuff/tdevelop.png"
   inkscape:export-xdpi="96"
   inkscape:export-ydpi="96">
  <metadata
     id="metadata8">
    <rdf:RDF>
      <cc:Work
         rdf:about="">
        <dc:format>image/svg+xml</dc:format>
        <dc:type
           rdf:resource="http://purl.org/dc/dcmitype/StillImage" />
        <dc:title></dc:title>
      </cc:Work>
    </rdf:RDF>
  </metadata>
  <defs
     id="defs6" />
  <sodipodi:namedview
     pagecolor="#ffffff"
     bordercolor="#666666"
     borderopacity="1"
     objecttolerance="10"
     gridtolerance="10"
     guidetolerance="10"
     inkscape:pageopacity="0"
     inkscape:pageshadow="2"
     inkscape:window-width="1366"
     inkscape:window-height="703"
     id="namedview4"
     showgrid="false"
     fit-margin-top="0"
     fit-margin-left="0"
     fit-margin-right="0"
     fit-margin-bottom="0"
     showguides="true"
     inkscape:zoom="16.9375"
     inkscape:cx="12"
     inkscape:cy="16"
     inkscape:window-x="-3"
     inkscape:window-y="-4"
     inkscape:window-maximized="1"
     inkscape:current-layer="svg2"
     inkscape:snap-grids="true" />
  <path
     style="fill:#d4d4d4;fill-opacity:1;stroke-width:0.28036955"
     d="m 5.5305926,0.41081738 c -0.051482,0.005297 -0.1012031,0.0280815 -0.139869,0.0669709 L 3.6013395,2.2668517 C 3.5261066,2.3423 3.5119335,2.4592973 3.5673983,2.550651 L 5.6623819,6.0010669 C 5.2908146,6.6257396 4.9930039,7.2992516 4.7801561,8.009757 L 0.93410475,8.80974 C 0.82709625,8.8318875 0.75,8.926716 0.75,9.0365295 v 2.5301825 c 0,0.107004 0.0732082,0.199683 0.176316,0.224606 l 3.7329664,0.912445 c 0.1990668,0.822882 0.5075478,1.602934 0.9152546,2.319903 l -2.1607162,3.294963 c -0.060283,0.09208 -0.047684,0.213395 0.030203,0.290962 L 5.23278,20.398666 c 0.075233,0.07502 0.1926829,0.08975 0.2844217,0.03455 l 3.385929,-2.056354 c 0.6650978,0.3838 1.3823773,0.685825 2.1404673,0.890648 l 0.790017,3.798378 c 0.02223,0.10763 0.11737,0.184117 0.226476,0.184117 h 2.530495 c 0.106379,0 0.199215,-0.07259 0.224606,-0.176953 l 0.930512,-3.806166 c 0.781452,-0.210895 1.520539,-0.525223 2.201835,-0.926465 l 3.336708,2.187815 c 0.09175,0.0604 0.213084,0.04832 0.290961,-0.02957 l 1.789386,-1.789074 c 0.07569,-0.07566 0.08924,-0.192667 0.03363,-0.283789 l -2.277449,-2.884768 c -1.022421,-1.402411 -0.895656,-1.25875 -1.268913,-1.65725 -1.199512,2.347623 -3.639972,3.955696 -6.458154,3.955696 -4.0039075,0 -7.2500451,-3.246208 -7.2500451,-7.250352 0,-2.9455917 1.7569091,-5.4788049 4.2790651,-6.6135991 V 2.1051598 c -0.4590267,0.1605816 -0.9027882,0.354193 -1.3242815,0.5837904 -3.09e-4,-2.863e-4 -6.375e-4,-0.00105 -0.0018,-0.00214 L 5.6814413,0.44684843 C 5.6354456,0.4167519 5.5821371,0.40477957 5.5306672,0.41007776 Z"
     id="path5692_2_-3"
     inkscape:connector-curvature="0"
     sodipodi:nodetypes="cccccccssccccccccccsscccccccccssccccccc" />
  <ellipse
     style="opacity:1;fill:#3689e6;fill-opacity:1;stroke-width:0.375"
     id="path5219-3"
     cx="13.500002"
     cy="10.499999"
     rx="7.6875"
     ry="7.687501" />
  <path
     inkscape:connector-curvature="0"
     style="opacity:1;fill:#fafafa;stroke-width:0.75006557"
     class="ColorScheme-Text"
     d="m 13.587905,4.500621 a 6.000906,6.0001418 0 0 0 -4.3307322,1.7578545 6.000906,6.0001418 0 0 0 0,8.4845755 6.000906,6.0001418 0 0 0 8.4856562,0 6.000906,6.0001418 0 0 0 0,-8.4845755 6.000906,6.0001418 0 0 0 -4.154924,-1.7578545 z m -0.164087,0.750018 a 5.2507931,5.2501245 0 0 1 3.510296,1.2861634 L 15.880732,7.5900503 A 6.0005239,3.7503274 44.991678 0 0 11.812247,5.5333605 5.2507931,5.2501245 0 0 1 13.423818,5.250639 Z m -2.27085,0.980004 a 5.2504586,3.000262 44.992816 0 1 4.195946,1.8911573 L 13.500002,9.9704768 10.086401,6.5573107 A 5.2504586,3.000262 44.992816 0 1 11.152968,6.230643 Z m 6.315895,0.8320508 a 5.2507931,5.2501245 0 0 1 1.002105,5.1080312 6.0005239,3.7503274 44.991678 0 0 -2.062812,-4.0474592 z m -7.9142807,0.023441 3.4150657,3.4146322 -1.850377,1.850141 A 5.2504586,3.000262 44.992816 0 1 9.5545823,7.0861328 Z m 6.3261507,1.5644895 a 5.2504586,3.000262 44.992816 0 1 1.564689,5.2647727 l -3.415066,-3.414631 z m -7.351697,0.180181 a 6.0005239,3.7503274 44.991678 0 0 2.062812,4.0474577 L 9.531141,13.938836 A 5.2507931,5.2501245 0 0 1 8.529036,8.8308053 Z m 4.970966,2.2002467 3.413601,3.413167 A 5.2504586,3.000262 44.992816 0 1 11.65109,12.879728 Z m -2.380731,2.380427 a 6.0005239,3.7503274 44.991678 0 0 4.068486,2.056691 5.2507931,5.2501245 0 0 1 -5.121867,-1.003443 z"
     id="path5" />
</svg>
