<?xml version="1.0" encoding="UTF-8" standalone="no"?>
<!-- Created with Inkscape (http://www.inkscape.org/) -->

<svg
   xmlns:dc="http://purl.org/dc/elements/1.1/"
   xmlns:cc="http://creativecommons.org/ns#"
   xmlns:rdf="http://www.w3.org/1999/02/22-rdf-syntax-ns#"
   xmlns:svg="http://www.w3.org/2000/svg"
   xmlns="http://www.w3.org/2000/svg"
   xmlns:sodipodi="http://sodipodi.sourceforge.net/DTD/sodipodi-0.dtd"
   xmlns:inkscape="http://www.inkscape.org/namespaces/inkscape"
   version="1.1"
   id="svg2"
   width="24"
   height="24"
   viewBox="0 0 24 24"
   sodipodi:docname="konqueror.svg"
   inkscape:version="0.92.4 (5da689c313, 2019-01-14)"
   inkscape:export-filename="/home/john/Nextcloud/Q4OS Stuff/tdevelop.png"
   inkscape:export-xdpi="96"
   inkscape:export-ydpi="96">
  <metadata
     id="metadata8">
    <rdf:RDF>
      <cc:Work
         rdf:about="">
        <dc:format>image/svg+xml</dc:format>
        <dc:type
           rdf:resource="http://purl.org/dc/dcmitype/StillImage" />
        <dc:title />
      </cc:Work>
    </rdf:RDF>
  </metadata>
  <defs
     id="defs6" />
  <sodipodi:namedview
     pagecolor="#ffffff"
     bordercolor="#666666"
     borderopacity="1"
     objecttolerance="10"
     gridtolerance="10"
     guidetolerance="10"
     inkscape:pageopacity="0"
     inkscape:pageshadow="2"
     inkscape:window-width="1362"
     inkscape:window-height="695"
     id="namedview4"
     showgrid="false"
     fit-margin-top="0"
     fit-margin-left="0"
     fit-margin-right="0"
     fit-margin-bottom="0"
     showguides="true"
     inkscape:zoom="16.09375"
     inkscape:cx="5.2815534"
     inkscape:cy="16"
     inkscape:window-x="0"
     inkscape:window-y="0"
     inkscape:window-maximized="1"
     inkscape:current-layer="svg2"
     inkscape:snap-grids="true" />
  <path
     style="fill:#b0bec5;fill-opacity:1;stroke-width:0.26944831"
     d="m 5.7089563,1.0018736 c -0.049367,0.00512 -0.097046,0.027046 -0.1341237,0.064502 L 3.8589495,2.7895587 c -0.072143,0.072672 -0.085733,0.1853582 -0.032547,0.273348 L 5.8353328,6.386261 C 5.479028,6.9879282 5.19345,7.6366379 4.9893452,8.3209784 L 1.3012744,9.0915027 C 1.1986614,9.1128341 1.1247319,9.204172 1.1247319,9.3099401 v 2.4370059 c 0,0.103065 0.070201,0.192332 0.1690737,0.216339 l 3.5796307,0.878844 c 0.1908899,0.792577 0.4867,1.543901 0.8776595,2.234469 l -2.0719624,3.173627 c -0.057807,0.0887 -0.045725,0.205536 0.028962,0.280245 l 1.7152811,1.723192 c 0.072143,0.07227 0.1847683,0.08645 0.2727391,0.03328 L 8.9429638,18.30631 c 0.637779,0.369671 1.3255942,0.660574 2.0525452,0.857852 l 0.757566,3.658503 C 11.774392,22.926332 11.865624,23 11.970248,23 h 2.426553 c 0.102009,0 0.191032,-0.06992 0.21538,-0.170439 l 0.892291,-3.666001 c 0.749352,-0.203129 1.45808,-0.505879 2.111391,-0.892348 l 3.199648,2.107248 c 0.08798,0.05818 0.204332,0.04652 0.279012,-0.02846 l 1.715885,-1.723187 c 0.07258,-0.07287 0.08557,-0.185574 0.03226,-0.273339 l -2.183902,-2.778537 c -0.980426,-1.350766 -0.858868,-1.212396 -1.216792,-1.596221 -1.150241,2.261172 -3.490458,3.810025 -6.19288,3.810025 -3.8394417,0 -6.9522405,-3.126663 -6.9522405,-6.983354 0,-2.8371202 1.684742,-5.2770468 4.1032985,-6.3700516 V 2.6338404 C 9.9599774,2.7885079 9.534444,2.9749901 9.1302632,3.1961321 9.1299756,3.1958615 9.1296404,3.1951689 9.1285372,3.1940131 L 5.8536105,1.0365884 C 5.8095045,1.0075992 5.758385,0.99607003 5.7090292,1.00117 Z"
     id="path5692_2_-3"
     inkscape:connector-curvature="0"
     sodipodi:nodetypes="cccccccssccccccccccsscccccccccssccccccc" />
  <ellipse
     style="opacity:1;fill:#2196f3;fill-opacity:1;stroke-width:0.3603926"
     id="path5219-3"
     cx="13.351013"
     cy="10.719519"
     rx="7.3717275"
     ry="7.4044061" />
  <path
     inkscape:connector-curvature="0"
     style="opacity:1;fill:#fafafa;stroke-width:0.7208482"
     class="ColorScheme-Text"
     d="m 13.435306,4.9410684 a 5.7544122,5.7791847 0 0 0 -4.1528428,1.6931205 5.7544122,5.7791847 0 0 0 0,8.1721281 5.7544122,5.7791847 0 0 0 8.1370998,0 5.7544122,5.7791847 0 0 0 0,-8.1721281 5.7544122,5.7791847 0 0 0 -3.984257,-1.6931205 z M 13.27796,5.6634668 a 5.0351109,5.0567869 0 0 1 3.366105,1.2388005 L 15.633952,7.9167282 A 5.7668458,3.6042027 45.280831 0 0 11.732585,5.9357774 5.0351109,5.0567869 0 0 1 13.27796,5.6634668 Z m -2.177574,0.943915 a 5.0459828,2.8833664 45.242393 0 1 4.023593,1.8215145 L 13.351014,10.209495 10.077629,6.9220201 a 5.0459828,2.8833664 45.242393 0 1 1.022757,-0.3146383 z m 6.056463,0.8014104 a 5.0351109,5.0567869 0 0 1 0.960943,4.9199258 5.7668458,3.6042027 45.280831 0 0 -1.97808,-3.8984097 z m -7.5891927,0.022577 3.2747877,3.2888858 -1.77437,1.782013 A 5.0459828,2.8833664 45.242393 0 1 9.5676562,7.4313652 Z m 6.0662967,1.506877 A 5.0459828,2.8833664 45.242393 0 1 17.134371,14.00914 L 13.859583,10.720255 Z M 8.5842355,9.1117919 A 5.7668458,3.6042027 45.280831 0 0 10.562314,13.010203 L 9.5451779,14.031717 A 5.0351109,5.0567869 0 0 1 8.5842355,9.1117919 Z m 4.7667785,2.1192201 3.273383,3.287479 a 5.0459828,2.8833664 45.242393 0 1 -5.046349,-1.506877 z m -2.28294,2.29277 a 5.7668458,3.6042027 45.280831 0 0 3.901368,1.980952 5.0351109,5.0567869 0 0 1 -4.911481,-0.966493 z"
     id="path5" />
</svg>
