<?xml version="1.0" encoding="UTF-8"?>
<!-- Created with Inkscape (http://www.inkscape.org/) -->
<svg width="24" height="24" version="1.1" viewBox="0 0 6.35 6.35" xml:space="preserve" xmlns="http://www.w3.org/2000/svg"><circle cx="3.175" cy="3.175" r="3.0427" fill="#673ab7" stroke-width=".059462"/><path d="m4.2243 1.6413a0.53813 0.53813 0 0 0-0.53812 0.53812 0.53813 0.53813 0 0 0 0.00957 0.09912l-1.1506 0.58637a0.53813 0.53813 0 0 0-0.41957-0.20117 0.53813 0.53813 0 0 0-0.53812 0.53813 0.53813 0.53813 0 0 0 0.53812 0.53812 0.53813 0.53813 0 0 0 0.44756-0.23974l1.1186 0.59482a0.53813 0.53813 0 0 0-0.00547 0.075465 0.53813 0.53813 0 0 0 0.53813 0.53812 0.53813 0.53813 0 0 0 0.53812-0.53812 0.53813 0.53813 0 0 0-0.53812-0.53812 0.53813 0.53813 0 0 0-0.39542 0.17322l-1.1656-0.61972a0.53813 0.53813 0 0 0-0.00105-0.021651l1.1835-0.60289a0.53813 0.53813 0 0 0 0.37849 0.15619 0.53813 0.53813 0 0 0 0.53812-0.53812 0.53813 0.53813 0 0 0-0.53812-0.53812z" fill="#fff" stroke-width=".053812"/></svg>
