<?xml version="1.0" encoding="UTF-8" standalone="no"?>
<!-- Created with Inkscape (http://www.inkscape.org/) -->

<svg
   xmlns:dc="http://purl.org/dc/elements/1.1/"
   xmlns:cc="http://creativecommons.org/ns#"
   xmlns:rdf="http://www.w3.org/1999/02/22-rdf-syntax-ns#"
   xmlns:svg="http://www.w3.org/2000/svg"
   xmlns="http://www.w3.org/2000/svg"
   xmlns:sodipodi="http://sodipodi.sourceforge.net/DTD/sodipodi-0.dtd"
   xmlns:inkscape="http://www.inkscape.org/namespaces/inkscape"
   width="24"
   height="24"
   viewBox="0 0 6.3499999 6.3500002"
   version="1.1"
   id="svg8"
   inkscape:version="0.92.1 r15371"
   sodipodi:docname="software-store.svg"
   inkscape:export-filename="/home/john/Nextcloud/Q4OS Stuff/icons/Paper-Q4OS/16x16/software-store.png"
   inkscape:export-xdpi="24"
   inkscape:export-ydpi="24">
  <defs
     id="defs2" />
  <sodipodi:namedview
     id="base"
     pagecolor="#ffffff"
     bordercolor="#666666"
     borderopacity="1.0"
     inkscape:pageopacity="0.0"
     inkscape:pageshadow="2"
     inkscape:zoom="15.968828"
     inkscape:cx="17.359645"
     inkscape:cy="17.085538"
     inkscape:document-units="mm"
     inkscape:current-layer="layer1"
     showgrid="false"
     units="px"
     inkscape:window-width="1366"
     inkscape:window-height="703"
     inkscape:window-x="-3"
     inkscape:window-y="-4"
     inkscape:window-maximized="1"
     fit-margin-top="0"
     fit-margin-left="0"
     fit-margin-right="0"
     fit-margin-bottom="0" />
  <metadata
     id="metadata5">
    <rdf:RDF>
      <cc:Work
         rdf:about="">
        <dc:format>image/svg+xml</dc:format>
        <dc:type
           rdf:resource="http://purl.org/dc/dcmitype/StillImage" />
        <dc:title></dc:title>
      </cc:Work>
    </rdf:RDF>
  </metadata>
  <g
     inkscape:label="Layer 1"
     inkscape:groupmode="layer"
     id="layer1"
     transform="translate(-1.1126201e-6,-290.64999)">
    <path
       style="fill:#8a715e;fill-opacity:1;stroke-width:0.00367621"
       d="m 0.63481791,296.00594 c -0.006221,-7.5e-4 -0.024045,-0.005 -0.0396047,-0.008 -0.12795489,-0.0307 -0.22640272,-0.13522 -0.24501423,-0.25998 -0.003113,-0.0209 -0.003956,-0.27259 -0.00315,-1.48897 l 0.001125,-1.65891 0.0104062,-0.0316 c 0.0384688,-0.1165 0.13174911,-0.1989 0.25249245,-0.22303 0.0223425,-0.005 0.12546489,-0.005 0.70954807,-0.005 0.3758728,-3e-5 0.685465,-0.002 0.6879824,-0.003 0.00352,-0.002 0.00484,-0.0854 0.00573,-0.36272 l 0.00116,-0.35995 0.00847,-0.0287 c 0.035542,-0.12033 0.1380937,-0.20838 0.2648467,-0.22737 0.033923,-0.005 1.7388583,-0.005 1.7727808,0 0.1267572,0.019 0.2293812,0.1071 0.2648288,0.22737 l 0.00845,0.0287 0.0012,0.35996 c 9.375e-4,0.27656 0.00221,0.36061 0.00575,0.36272 0.00247,0.002 0.3120934,0.003 0.6879661,0.003 0.7424352,6e-5 0.7035807,-0.001 0.7616581,0.0197 0.038559,0.0137 0.074314,0.0353 0.1060905,0.064 0.048877,0.0441 0.079239,0.0923 0.096169,0.15278 l 0.00853,0.0304 v 1.67145 1.47302 l -0.00827,0.0287 c -0.035471,0.1229 -0.1359503,0.21126 -0.2651884,0.23321 -0.023483,0.004 -0.4575311,0.005 -2.5554455,0.005 -1.3899356,-2.2e-4 -2.53224776,-7.5e-4 -2.53847122,-0.002 z m 3.28718869,-3.7729 c 0.030056,-0.0134 0.043431,-0.0257 0.057399,-0.0527 l 0.012382,-0.0239 v -0.20797 -0.20796 l -0.012382,-0.0239 c -0.013969,-0.0269 -0.027345,-0.0392 -0.057399,-0.0527 l -0.020745,-0.009 H 3.1751758 2.4490902 l -0.020745,0.009 c -0.030056,0.0134 -0.043431,0.0257 -0.0574,0.0527 l -0.012382,0.0239 v 0.20789 0.20788 l 0.00977,0.0197 c 0.00538,0.0109 0.014145,0.0246 0.019492,0.0306 0.012079,0.0136 0.042632,0.0297 0.06399,0.0337 0.00887,0.002 0.3386294,0.003 0.7327901,0.003 l 0.7166562,-7.5e-4 z"
       id="path4668"
       inkscape:connector-curvature="0"
       sodipodi:nodetypes="ccccccccccccccccccccccccccccccccccccccccccccccccccc" />
    <g
       id="g4634"
       transform="matrix(0.37500004,0,0,0.37500004,-2.0483683,185.65012)">
      <circle
         r="4.1010418"
         cy="291.90585"
         cx="17.765442"
         id="path4512"
         style="opacity:1;fill:#3689e6;fill-opacity:1;stroke:none;stroke-width:0.34274456;stroke-opacity:1" />
      <g
         transform="matrix(0.293873,0,0,0.293873,15.414458,289.55487)"
         id="g4510"
         style="fill:#fafafa;enable-background:new">
        <g
           style="fill:#fafafa"
           id="layer1-3"
           transform="translate(-446,-206)">
          <path
             inkscape:connector-curvature="0"
             id="path7087"
             style="fill:#fafafa"
             d="m 456,206 v 6 h 2.5 l -4.5,7 -4.5,-7 h 2.5 v -6 z m -8,14 h 12 v 2 h -12 z" />
        </g>
      </g>
    </g>
  </g>
</svg>
