<svg width="24" height="24" version="1.1" viewBox="0 0 6.35 6.35" xmlns="http://www.w3.org/2000/svg">
    <g transform="translate(0,-290.64999)">
        <path d="m4.3831334 290.91457a1.2630049 1.2630051 0 0 0-1.2630046 1.26301 1.2630049 1.2630051 0 0 0 0.4551793 0.97064c-0.5173394 0.62963-1.0781756 1.47602-0.8367834 1.96186 0.243123 0.48932 0.9393544 0.52833 1.6381735 0.52704 0.6988186-8.3e-4 1.4002564-0.0429 1.653618-0.52704 0.2395448-0.45775-0.3459388-1.28582-0.8979172-1.91746a1.2630049 1.2630051 0 0 0 0.513739-1.01504 1.2630049 1.2630051 0 0 0-1.2630046-1.26301z" fill="#8bc34a"/>
        <g transform="matrix(.41509225 0 0 .41509927 -.55905084 174.1099)" fill="#03a9f4">
            <path d="m6.085321 284.03559a3.0426379 3.0426381 0 0 0-3.0426374 3.04264 3.0426379 3.0426381 0 0 0 1.0965483 2.3383c-1.2462947 1.51679-2.5973754 3.55581-2.0158506 4.72622 0.5856949 1.17881 2.262949 1.27277 3.946437 1.26966 1.6834873-3e-3 3.3732845-0.10331 3.9836437-1.26966 0.577075-1.10275-0.8333835-3.0976-2.1631253-4.61925a3.0426379 3.0426381 0 0 0 1.2376216-2.44527 3.0426379 3.0426381 0 0 0-3.0426373-3.04264z"/>
            <path d="m6.0853295 284.03576a3.0426262 3.0426262 0 0 0-3.0426261 3.04263 3.0426262 3.0426262 0 0 0 0.0023 0.0637 3.0426262 3.0426262 0 0 1 3.0402902-2.99763 3.0426262 3.0426262 0 0 1 3.0403448 2.97894 3.0426262 3.0426262 0 0 0 0.0023-0.045 3.0426262 3.0426262 0 0 0-3.0426267-3.04263z" opacity=".2" stroke-width=".10866524"/>
        </g>
    </g>
</svg>
