<svg version="1.1" viewBox="0 0 24 24" xmlns="http://www.w3.org/2000/svg">
    <circle cx="12" cy="12" r="11" fill="#666" stroke-width=".53658533"/>
    <path class="ColorScheme-Text" d="m12.117207 4.0008298a8.0012078 8.0001878 0 0 0-5.7743117 2.343806 8.0012078 8.0001878 0 0 0 0 11.312766 8.0012078 8.0001878 0 0 0 11.31421 0 8.0012078 8.0001878 0 0 0 0-11.312766 8.0012078 8.0001878 0 0 0-5.539898-2.343806zm-0.218784 1.0000238a7.0010575 7.0001653 0 0 1 4.680394 1.7148843l-1.404507 1.4043299a8.0006981 5.0004362 44.991672 0 0-5.4246497-2.7422524 7.0010575 7.0001653 0 0 1 2.1487627-0.3769618zm-3.0278012 1.3066719a7.000611 4.0003488 44.992811 0 1 5.5945952 2.5215424l-2.465217 2.4649021-4.5514679-4.5508874a7.000611 4.0003488 44.992811 0 1 1.4220897-0.4355571zm8.4211942 1.1094007a7.0010575 7.0001653 0 0 1 1.33614 6.8107068 8.0006981 5.0004362 44.991672 0 0-2.750416-5.3966113zm-10.552375 0.0312559 4.5534218 4.5528419-2.46717 2.466854a7.000611 4.0003488 44.992811 0 1-2.0862518-7.0196996zm8.4348688 2.0859854a7.000611 4.0003488 44.992811 0 1 2.086251 7.0196955l-4.553422-4.552839zm-9.8022634 0.240241a8.0006981 5.0004362 44.991672 0 0 2.7504156 5.3966105l-1.4142758 1.414095a7.0010575 7.0001653 0 0 1-1.3361398-6.8107055zm6.6279534 2.9336615 4.551471 4.550889a7.000611 4.0003488 44.992811 0 1-7.0166859-2.085988zm-3.174307 3.173904a8.0006981 5.0004362 44.991672 0 0 5.424649 2.742252 7.0010575 7.0001653 0 0 1-6.829158-1.337924z" fill="#fff" stroke-width="1.0000874"/>
</svg>
