<?xml version="1.0" encoding="UTF-8" standalone="no"?>
<!-- Created with Inkscape (http://www.inkscape.org/) -->

<svg
   xmlns:dc="http://purl.org/dc/elements/1.1/"
   xmlns:cc="http://creativecommons.org/ns#"
   xmlns:rdf="http://www.w3.org/1999/02/22-rdf-syntax-ns#"
   xmlns:svg="http://www.w3.org/2000/svg"
   xmlns="http://www.w3.org/2000/svg"
   xmlns:sodipodi="http://sodipodi.sourceforge.net/DTD/sodipodi-0.dtd"
   xmlns:inkscape="http://www.inkscape.org/namespaces/inkscape"
   version="1.1"
   id="svg2"
   width="24"
   height="24"
   viewBox="0 0 24 24"
   sodipodi:docname="tdenetworkmanager_disabled.svg"
   inkscape:version="0.92.4 (5da689c313, 2019-01-14)"
   inkscape:export-filename="/home/john/Nextcloud/Q4OS Stuff/tdevelop.png"
   inkscape:export-xdpi="96"
   inkscape:export-ydpi="96">
  <metadata
     id="metadata8">
    <rdf:RDF>
      <cc:Work
         rdf:about="">
        <dc:format>image/svg+xml</dc:format>
        <dc:type
           rdf:resource="http://purl.org/dc/dcmitype/StillImage" />
        <dc:title></dc:title>
      </cc:Work>
    </rdf:RDF>
  </metadata>
  <defs
     id="defs6" />
  <sodipodi:namedview
     pagecolor="#ffffff"
     bordercolor="#666666"
     borderopacity="1"
     objecttolerance="10"
     gridtolerance="10"
     guidetolerance="10"
     inkscape:pageopacity="0"
     inkscape:pageshadow="2"
     inkscape:window-width="1362"
     inkscape:window-height="695"
     id="namedview4"
     showgrid="false"
     fit-margin-top="0"
     fit-margin-left="0"
     fit-margin-right="0"
     fit-margin-bottom="0"
     showguides="true"
     inkscape:zoom="21.458333"
     inkscape:cx="3.9611649"
     inkscape:cy="12"
     inkscape:window-x="0"
     inkscape:window-y="0"
     inkscape:window-maximized="1"
     inkscape:current-layer="svg2"
     inkscape:snap-grids="true" />
  <circle
     style="opacity:1;fill:#666666;fill-opacity:1;stroke-width:0.53658533"
     id="path5219-3"
     cx="12"
     cy="12"
     r="11" />
  <path
     inkscape:connector-curvature="0"
     style="opacity:1;fill:#ffffff;stroke-width:1.12509823"
     class="ColorScheme-Text"
     d="m 12.131857,3.0009339 a 9.0013585,9.000211 0 0 0 -6.4960996,2.6367816 9.0013585,9.000211 0 0 0 0,12.7268605 9.0013585,9.000211 0 0 0 12.7284856,0 9.0013585,9.000211 0 0 0 0,-12.7268605 9.0013585,9.000211 0 0 0 -6.232386,-2.6367816 z m -0.246131,1.1250267 a 7.8761894,7.8751857 0 0 1 5.265442,1.9292448 l -1.58007,1.579871 A 9.000785,5.6254905 44.991672 0 0 9.4683679,4.5500426 7.8761894,7.8751857 0 0 1 11.885726,4.1259606 Z M 8.4794496,5.5959664 A 7.8756871,4.5003922 44.992811 0 1 14.773369,8.4327015 L 12,11.205716 6.8795987,6.0859682 A 7.8756871,4.5003922 44.992811 0 1 8.4794496,5.5959664 Z M 17.953292,6.8440422 A 7.8761894,7.8751857 0 0 1 19.45645,14.506087 9.000785,5.6254905 44.991672 0 0 16.362232,8.4348996 Z M 6.0818715,6.879205 11.204471,12.001152 8.4289047,14.776362 A 7.8756871,4.5003922 44.992811 0 1 6.0818715,6.8792009 Z m 9.4892265,2.346733 a 7.8756871,4.5003922 44.992811 0 1 2.347032,7.897157 L 12.795531,12.001151 Z M 4.5435526,9.4962092 A 9.000785,5.6254905 44.991672 0 0 7.6377701,15.567396 L 6.0467099,17.158253 A 7.8761894,7.8751857 0 0 1 4.5435526,9.4962092 Z M 12,12.796578 l 5.120404,5.11975 A 7.8756871,4.5003922 44.992811 0 1 9.2266333,15.569592 Z M 8.4289047,16.36722 a 9.000785,5.6254905 44.991672 0 0 6.1027293,3.085033 7.8761894,7.8751857 0 0 1 -7.6828019,-1.505164 z"
     id="path5" />
</svg>
