<?xml version="1.0" encoding="UTF-8" standalone="no"?>
<!-- Created with Inkscape (http://www.inkscape.org/) -->

<svg
   xmlns:osb="http://www.openswatchbook.org/uri/2009/osb"
   xmlns:dc="http://purl.org/dc/elements/1.1/"
   xmlns:cc="http://creativecommons.org/ns#"
   xmlns:rdf="http://www.w3.org/1999/02/22-rdf-syntax-ns#"
   xmlns:svg="http://www.w3.org/2000/svg"
   xmlns="http://www.w3.org/2000/svg"
   xmlns:sodipodi="http://sodipodi.sourceforge.net/DTD/sodipodi-0.dtd"
   xmlns:inkscape="http://www.inkscape.org/namespaces/inkscape"
   version="1.1"
   id="svg2"
   width="24"
   height="24"
   viewBox="0 0 24 24"
   sodipodi:docname="tdevelop.svg"
   inkscape:version="0.92.4 (5da689c313, 2019-01-14)"
   inkscape:export-filename="/home/john/Nextcloud/Q4OS Stuff/tdevelop.png"
   inkscape:export-xdpi="96"
   inkscape:export-ydpi="96">
  <metadata
     id="metadata8">
    <rdf:RDF>
      <cc:Work
         rdf:about="">
        <dc:format>image/svg+xml</dc:format>
        <dc:type
           rdf:resource="http://purl.org/dc/dcmitype/StillImage" />
        <dc:title />
      </cc:Work>
    </rdf:RDF>
  </metadata>
  <defs
     id="defs6">
    <linearGradient
       id="linearGradient5460"
       osb:paint="gradient">
      <stop
         style="stop-color:#e6e6e6;stop-opacity:1"
         offset="0"
         id="stop5462" />
      <stop
         style="stop-color:#ffffff;stop-opacity:1"
         offset="1"
         id="stop5464" />
    </linearGradient>
    <linearGradient
       id="linearGradient5476"
       osb:paint="solid">
      <stop
         style="stop-color:#772953;stop-opacity:1;"
         offset="0"
         id="stop5478" />
    </linearGradient>
  </defs>
  <sodipodi:namedview
     pagecolor="#ffffff"
     bordercolor="#666666"
     borderopacity="1"
     objecttolerance="10"
     gridtolerance="10"
     guidetolerance="10"
     inkscape:pageopacity="0"
     inkscape:pageshadow="2"
     inkscape:window-width="1362"
     inkscape:window-height="695"
     id="namedview4"
     showgrid="false"
     fit-margin-top="0"
     fit-margin-left="0"
     fit-margin-right="0"
     fit-margin-bottom="0"
     showguides="true"
     inkscape:zoom="21.458333"
     inkscape:cx="3.9611649"
     inkscape:cy="12"
     inkscape:window-x="0"
     inkscape:window-y="0"
     inkscape:window-maximized="1"
     inkscape:current-layer="svg2"
     inkscape:snap-grids="true" />
  <path
     style="fill:#b0bec5;fill-opacity:1;stroke-width:0.2700448"
     d="m 5.681071,1.0018844 c -0.049586,0.0051 -0.097476,0.027048 -0.1347182,0.064504 L 3.8228637,2.7895687 C 3.7504013,2.8622386 3.73675,2.9749275 3.7901728,3.062917 L 5.808007,6.38627 C 5.450123,6.9879389 5.1632793,7.6366485 4.9582697,8.3209892 L 1.2538512,9.0915124 c -0.1030679,0.021332 -0.177325,0.1126683 -0.177325,0.2184378 v 2.4370058 c 0,0.103062 0.070513,0.19233 0.1698231,0.216337 l 3.5954979,0.878843 c 0.1917362,0.79258 0.4888572,1.543906 0.88155,2.234471 l -2.0811468,3.173625 c -0.058063,0.08869 -0.045928,0.205537 0.02909,0.280247 l 1.7228848,1.723191 c 0.072462,0.07226 0.1855873,0.08644 0.2739479,0.03327 l 3.2612404,-1.980628 c 0.6406051,0.369666 1.3314695,0.66057 2.0616445,0.85785 l 0.760923,3.6585 C 11.773395,22.926334 11.865029,23 11.970118,23 h 2.437308 c 0.102463,0 0.191879,-0.06992 0.216335,-0.170437 l 0.896243,-3.666001 c 0.752676,-0.203129 1.464546,-0.505882 2.120752,-0.892348 l 3.213833,2.107248 c 0.08837,0.05817 0.205238,0.04654 0.280246,-0.02848 l 1.723491,-1.72319 c 0.0729,-0.07287 0.08596,-0.185573 0.03239,-0.273338 l -2.193579,-2.778536 c -0.984771,-1.350767 -0.862674,-1.212396 -1.222186,-1.596221 -1.15534,2.26117 -3.505928,3.810026 -6.220329,3.810026 -3.8564621,0 -6.983059,-3.126665 -6.983059,-6.983355 0,-2.8371186 1.69221,-5.2770448 4.121487,-6.3700498 V 2.6338318 C 9.9509282,2.7884998 9.5235084,2.9749814 9.1175369,3.1961237 9.1172392,3.195848 9.1169229,3.1951124 9.1158031,3.194065 L 5.8263646,1.0365886 C 5.7820627,1.0076004 5.7307174,0.99606888 5.681143,1.001172 Z"
     id="path5692_2_-3"
     inkscape:connector-curvature="0"
     sodipodi:nodetypes="cccccccssccccccccccsscccccccccssccccccc" />
  <ellipse
     style="opacity:1;fill:#206b00;fill-opacity:1;stroke-width:0.36119044"
     id="path5219-3"
     cx="13.357002"
     cy="10.719527"
     rx="7.4044042"
     ry="7.4044046" />
  <ellipse
     style="opacity:1;fill:#fafafa;fill-opacity:1;stroke-width:0.36119044"
     id="path5219-3-6"
     cx="12.452415"
     cy="12.625716"
     rx="4.5148802"
     ry="4.5148807" />
  <path
     style="fill:#1a1a1a;fill-opacity:1;stroke-width:0.36119044"
     d="m 8.4793213,12.354823 4.3341317,3.973094 2.167295,-5.959641 z"
     id="path4661"
     inkscape:connector-curvature="0"
     sodipodi:nodetypes="cccc" />
</svg>
