<svg width="24" height="24" version="1.1" viewBox="0 0 6.35 6.35" xmlns="http://www.w3.org/2000/svg">
    <g transform="translate(-4.4504801e-7,-290.64999)">
        <path d="m3.175031 290.91457a1.5567216 1.5567217 0 0 0-1.5567215 1.55673 1.5567216 1.5567217 0 0 0 0.5610331 1.19636c-0.6376487 0.77604-1.3289096 1.81928-1.0313807 2.41809 0.2996622 0.60313 1.157805 0.6512 2.0191374 0.64962 0.8613321-2e-3 1.7258923-0.0529 2.0381735-0.64962 0.2952524-0.56419-0.4263884-1.58483-1.1067316-2.36336a1.5567216 1.5567217 0 0 0 0.6332111-1.25109 1.5567216 1.5567217 0 0 0-1.5567213-1.55673z" fill="#9575cd"/>
    </g>
</svg>
