<?xml version="1.0" encoding="UTF-8"?>
<svg width="32" height="32" version="1" xmlns="http://www.w3.org/2000/svg">
 <defs>
  <style id="current-color-scheme" type="text/css">.ColorScheme-Text { color:#5c616c; } .ColorScheme-Highlight { color:#5294e2; } .ColorScheme-ButtonBackground { color:#d3dae3; }</style>
  <style type="text/css">.ColorScheme-Text { color:#5c616c; } .ColorScheme-Highlight { color:#5294e2; } .ColorScheme-ButtonBackground { color:#d3dae3; }</style>
  <style type="text/css">.str0 {stroke:#4D4948;stroke-width:0.0123919}
    .str1 {stroke:#838281;stroke-width:0.229479;stroke-linecap:round}
    .fil2 {fill:none}
    .fil0 {fill:#4D4948}
    .fil1 {fill:white;fill-rule:nonzero}</style>
  <style type="text/css">.str0 {stroke:#4D4948;stroke-width:0.221746}
    .str1 {stroke:#00923F;stroke-width:0.887173}
    .str2 {stroke:#E77817;stroke-width:0.887173;stroke-linecap:round}
    .fil2 {fill:none}
    .fil0 {fill:#4D4948}
    .fil1 {fill:#B6DDC7}</style>
  <style type="text/css">.ColorScheme-Text { color:#5c616c; } .ColorScheme-Highlight { color:#5294e2; } .ColorScheme-ButtonBackground { color:#d3dae3; }</style>
  <filter id="filter5062" x="-.010364" y="-.01425" width="1.0207" height="1.0285" color-interpolation-filters="sRGB">
   <feGaussianBlur stdDeviation="0.23749999"/>
  </filter>
  <style type="text/css">.ColorScheme-Text { color:#5c616c; } .ColorScheme-Highlight { color:#5294e2; } .ColorScheme-ButtonBackground { color:#d3dae3; }</style>
 </defs>
 <rect transform="matrix(0,-1,-1,0,0,0)" x="-30" y="-31" width="3.5" height="30" rx="1.25" ry="1.2931" fill="#1a1a1a" stroke-width=".50855"/>
 <rect transform="scale(.5)" x="4.5" y="14.87" width="55" height="40" rx="2.6442" ry="2.5" filter="url(#filter5062)" opacity=".2" stroke-width="1.0284"/>
 <g transform="matrix(.51122 0 0 .48936 -41.806 54.799)" stroke-width="1.0281">
  <rect x="86.178" y="-97.809" width="53.793" height="40.87" rx="2.5862" ry="2.5543" fill="#1a1a1a"/>
  <rect x="90.316" y="-93.722" width="45.517" height="32.696" fill="#3689e6"/>
  <path d="m88.764-97.809c-1.4328 0-2.5862 1.1392-2.5862 2.5543v1.0217c0-1.4151 1.1534-2.5543 2.5862-2.5543h48.621c1.4276 0 2.5862 1.1392 2.5862 2.5543v-1.0217c0-1.4151-1.1586-2.5543-2.5862-2.5543z" fill="#7e8087" opacity=".2"/>
 </g>
</svg>
