<svg width="32" height="32" version="1" xmlns="http://www.w3.org/2000/svg">
 <rect x="2.5" y="6.5" width="27" height="18.5" rx="1.35" ry="1.3214" fill="#78909c" stroke-width=".66782"/>
 <g transform="scale(.5)" fill="#fafafa">
  <rect x="17" y="40" width="30" height="6" rx="0" ry="1" stroke-width="1.2247"/>
  <g>
   <rect x="9" y="20" width="6" height="6" ry="1"/>
   <rect x="17" y="20" width="6" height="6" ry="1"/>
   <rect x="25" y="20" width="6" height="6" ry="1"/>
   <rect x="33" y="20" width="6" height="6" ry="1"/>
   <rect x="41" y="20" width="6" height="6" ry="1"/>
   <rect x="49" y="20" width="6" height="6" ry="1"/>
  </g>
  <g>
   <rect x="9" y="31" width="6" height="6" ry="1"/>
   <rect x="17" y="31" width="6" height="6" ry="1"/>
   <rect x="25" y="31" width="6" height="6" ry="1"/>
   <rect x="33" y="31" width="6" height="6" ry="1"/>
   <rect x="41" y="31" width="6" height="6" ry="1"/>
   <rect x="49" y="31" width="6" height="6" ry="1"/>
  </g>
 </g>
</svg>
