<?xml version="1.0" encoding="UTF-8"?>
<svg width="48" height="48" version="1" xmlns="http://www.w3.org/2000/svg">
 <defs>
  <style id="current-color-scheme" type="text/css">.ColorScheme-Text { color:#5c616c; } .ColorScheme-Highlight { color:#5294e2; } .ColorScheme-ButtonBackground { color:#d3dae3; }</style>
  <style type="text/css">.ColorScheme-Text { color:#5c616c; } .ColorScheme-Highlight { color:#5294e2; } .ColorScheme-ButtonBackground { color:#d3dae3; }</style>
  <style type="text/css">.str0 {stroke:#4D4948;stroke-width:0.0123919}
    .str1 {stroke:#838281;stroke-width:0.229479;stroke-linecap:round}
    .fil2 {fill:none}
    .fil0 {fill:#4D4948}
    .fil1 {fill:white;fill-rule:nonzero}</style>
  <style type="text/css">.str0 {stroke:#4D4948;stroke-width:0.221746}
    .str1 {stroke:#00923F;stroke-width:0.887173}
    .str2 {stroke:#E77817;stroke-width:0.887173;stroke-linecap:round}
    .fil2 {fill:none}
    .fil0 {fill:#4D4948}
    .fil1 {fill:#B6DDC7}</style>
  <style type="text/css">.ColorScheme-Text { color:#5c616c; } .ColorScheme-Highlight { color:#5294e2; } .ColorScheme-ButtonBackground { color:#d3dae3; }</style>
  <filter id="filter2922" x="-.010364" y="-.01425" width="1.0207" height="1.0285" color-interpolation-filters="sRGB">
   <feGaussianBlur stdDeviation="0.18406383"/>
  </filter>
  <filter id="filter2953" x="-.03" y="-.0075" width="1.06" height="1.015" color-interpolation-filters="sRGB">
   <feGaussianBlur stdDeviation="0.14375"/>
  </filter>
 </defs>
 <rect transform="matrix(0,-1,-1,0,0,0)" x="-45.35" y="-47" width="11.5" height="46" rx="1.9243" ry="1.9167" filter="url(#filter2953)" opacity=".2" stroke-width="1.1415"/>
 <rect transform="matrix(0,-1,-1,0,0,0)" x="-44.85" y="-47" width="11.5" height="46" rx="1.9243" ry="1.9167" fill="#90a4ae" stroke-width="1.1415"/>
 <rect x="2.6872" y="5.5" width="42.626" height="31" rx="2.0493" ry="1.9374" filter="url(#filter2922)" opacity=".2" stroke-width=".79706"/>
 <rect x="2.6868" y="5" width="42.626" height="31" rx="2.0493" ry="1.9374" fill="#90a4ae" stroke-width=".79706"/>
 <rect x="5.7869" y="8.0998" width="36.425" height="24.8" fill="#455a64" stroke-width=".801"/>
 <path d="m4.7362 5c-1.1354 0-2.0493 0.8641-2.0493 1.9374v0.77497c0-1.0733 0.91397-1.9374 2.0493-1.9374h38.528c1.1312 0 2.0493 0.8641 2.0493 1.9374v-0.77497c0-1.0733-0.91808-1.9374-2.0493-1.9374z" fill="#b3b3b3" opacity=".2" stroke-width=".79706"/>
</svg>
