<svg enable-background="new" version="1.1" viewBox="0 0 128 128" xmlns="http://www.w3.org/2000/svg">
    <title>Paper Symbolic Icon Theme</title>
    <defs>
        <filter id="filter4551" x="-.0163125" y="-.0094909091" width="1.032625" height="1.0189818" color-interpolation-filters="sRGB">
            <feGaussianBlur stdDeviation="0.2175"/>
        </filter>
        <filter id="filter4502" x="-.018222222" y="-.0089454548" width="1.0364444" height="1.0178909" color-interpolation-filters="sRGB">
            <feGaussianBlur stdDeviation="0.205"/>
        </filter>
        <filter id="filter4576" x="-.012" y="-.012" width="1.024" height="1.024" color-interpolation-filters="sRGB">
            <feGaussianBlur stdDeviation="0.175"/>
        </filter>
    </defs>
    <g transform="scale(2)" opacity=".5">
        <path d="m10.766992 5v3.9285715h-9.6v47.142858c0 2.176428 1.4272 3.928571 3.2 3.928571h25.6c1.7728 0 3.2-1.752143 3.2-3.928571v-47.142858h-9.6v-3.9285715z" filter="url(#filter4551)" opacity=".2" stroke-width="3.5456212"/>
        <rect x="36.166992" y="5" width="27" height="55" ry="1.933141" enable-background="new" filter="url(#filter4502)" opacity=".2"/>
        <path d="m10.766992 3.9999999v3.9285715h-9.6v47.142858c0 2.176428 1.4272 3.928571 3.2 3.928571h25.6c1.7728 0 3.2-1.752143 3.2-3.928571v-47.142858h-9.6v-3.9285715z" fill="#f9ce1d" opacity="1" stroke-width="3.5456212"/>
        <path d="m1.166992 23.642857v31.428572c0 2.176428 1.4272 3.928571 3.2 3.928571h25.6c1.7728 0 3.2-1.752143 3.2-3.928571v-31.428572z" fill="#263238" stroke-width="3.5456212"/>
        <rect x="36.666912" y="4.499918" width="26.000164" height="54.000164" ry="1.8979988" fill="#fff" opacity="1" stroke="#000" stroke-width=".99983639"/>
    </g>
    <circle transform="scale(2)" cx="32" cy="33" r="17.5" filter="url(#filter4576)" opacity=".2"/>
    <g transform="scale(2)">
        <circle cx="32" cy="32" r="17.5" fill="#d50000"/>
        <rect x="22" y="29.5" width="20" height="5" fill="#fafafa"/>
    </g>
</svg>
