<svg enable-background="new" version="1.1" viewBox="0 0 128 128" xmlns="http://www.w3.org/2000/svg">
    <title>Paper Symbolic Icon Theme</title>
    <defs>
        <filter id="filter4551" x="-.0163125" y="-.0094909091" width="1.032625" height="1.0189818" color-interpolation-filters="sRGB">
            <feGaussianBlur stdDeviation="0.2175"/>
        </filter>
        <filter id="filter4502" x="-.018222222" y="-.0089454548" width="1.0364444" height="1.0178909" color-interpolation-filters="sRGB">
            <feGaussianBlur stdDeviation="0.205"/>
        </filter>
    </defs>
    <rect width="128" height="128" fill="#d50000" style="paint-order:markers stroke fill"/>
    <path transform="scale(2)" d="m10.6 5v3.9285715h-9.6v47.142858c0 2.176428 1.4272 3.928571 3.2 3.928571h25.6c1.7728 0 3.2-1.752143 3.2-3.928571v-47.142858h-9.6v-3.9285715z" filter="url(#filter4551)" opacity=".2" stroke-width="3.5456212"/>
    <rect transform="scale(2)" x="36" y="5" width="27" height="55" ry="1.933141" enable-background="new" filter="url(#filter4502)" opacity=".2"/>
    <path d="m21.2 8v7.857143h-19.2v94.285717c0 4.35285 2.8544 7.85714 6.4 7.85714h51.2c3.5456 0 6.4-3.50429 6.4-7.85714v-94.285717h-19.2v-7.857143z" fill="#f9ce1d" stroke-width="7.0912423"/>
    <path d="m2 47.285714v62.857146c0 4.35285 2.8544 7.85714 6.4 7.85714h51.2c3.5456 0 6.4-3.50429 6.4-7.85714v-62.857146z" fill="#263238" stroke-width="7.0912423"/>
    <rect x="72.99984" y="8.999836" width="52.000328" height="108.00033" ry="3.7959976" fill="#fff" stroke="#000" stroke-width="1.9996728"/>
</svg>
