<svg width="64" height="64" version="1.1" viewBox="0 0 16.933333 16.933334" xmlns="http://www.w3.org/2000/svg">
    <defs>
        <filter id="filter826" x="-.0094838926" y="-.016333269" width="1.0189678" height="1.0326665" color-interpolation-filters="sRGB">
            <feGaussianBlur stdDeviation="0.056179641"/>
        </filter>
    </defs>
    <g transform="translate(0,-280.06665)">
        <path d="m12.020882 296.20623-3.5542163-2.06374v-4.12751l3.5542163-2.06375 3.554213 2.06375v4.12751zm-7.1084292 0-3.554214-2.06374v-4.12751l3.554214-2.06375 3.5542139 2.06375v4.12751z" filter="url(#filter826)" opacity=".2"/>
        <g transform="matrix(1.0333331 0 0 1.0333331 -.28221981 -9.0444344)">
            <polygon transform="matrix(0 .05547715 -.05516234 0 18.785415 257.20153)" points="684 124.70766 648 187.06149 576 187.06149 540 124.70766 576 62.353829 648 62.353829" fill="#c5e1a5"/>
            <path d="m8.4666649 293.15072 3.3841061 1.9639v-3.96108l-3.3841061-1.99717z" fill="#aed581"/>
            <path d="m15.345833 293.15072-3.384107 1.9639v-3.96108l3.384107-1.99717z" fill="#9ccc65"/>
            <polygon transform="matrix(0 .05547715 -.05516234 0 11.906249 257.20153)" points="540 124.70766 576 62.353829 648 62.353829 684 124.70766 648 187.06149 576 187.06149" fill="#fce68d"/>
            <path d="m1.5875002 293.15072 3.3841063 1.9639v-3.96108l-3.3841063-1.99717z" fill="#fadd60"/>
            <path d="m8.4666666 293.15072-3.384107 1.9639v-3.96108l3.384107-1.99717z" fill="#fad53e"/>
            <polygon transform="matrix(0 .05547715 -.05516234 0 15.345836 251.87572)" points="576 62.353829 648 62.353829 684 124.70766 648 187.06149 576 187.06149 540 124.70766" fill="#81d4fa"/>
            <path d="m5.0270856 287.82491 3.3841062 1.9639v-3.96108l-3.3841062-1.99717z" fill="#4fc3f7"/>
            <path d="m11.906253 287.82491-3.3841065 1.9639v-3.96108l3.3841065-1.99717z" fill="#29b6f6"/>
        </g>
    </g>
</svg>
