<?xml version="1.0" encoding="UTF-8" standalone="no"?>
<!-- Created with Inkscape (http://www.inkscape.org/) -->

<svg
   xmlns:dc="http://purl.org/dc/elements/1.1/"
   xmlns:cc="http://creativecommons.org/ns#"
   xmlns:rdf="http://www.w3.org/1999/02/22-rdf-syntax-ns#"
   xmlns:svg="http://www.w3.org/2000/svg"
   xmlns="http://www.w3.org/2000/svg"
   xmlns:sodipodi="http://sodipodi.sourceforge.net/DTD/sodipodi-0.dtd"
   xmlns:inkscape="http://www.inkscape.org/namespaces/inkscape"
   width="64"
   height="64"
   viewBox="0 0 16.933333 16.933334"
   version="1.1"
   id="svg8"
   inkscape:version="0.92.4 (5da689c313, 2019-01-14)"
   sodipodi:docname="desktop-profiler.svg"
   inkscape:export-filename="/home/john/Nextcloud/Q4OS Stuff/desktop-profiler.png"
   inkscape:export-xdpi="96"
   inkscape:export-ydpi="96">
  <defs
     id="defs2">
    <filter
       inkscape:collect="always"
       style="color-interpolation-filters:sRGB"
       id="filter4575"
       x="-0.011454545"
       width="1.0229091"
       y="-0.0126"
       height="1.0252">
      <feGaussianBlur
         inkscape:collect="always"
         stdDeviation="0.069453127"
         id="feGaussianBlur4577" />
    </filter>
    <style
       id="current-color-scheme"
       type="text/css">
   .ColorScheme-Text { color:#5c616c; } .ColorScheme-Highlight { color:#5294e2; } .ColorScheme-ButtonBackground { color:#d3dae3; }
  </style>
    <filter
       inkscape:collect="always"
       style="color-interpolation-filters:sRGB"
       id="filter4541"
       x="-0.02432962"
       width="1.0486592"
       y="-0.023679192"
       height="1.0473584">
      <feGaussianBlur
         inkscape:collect="always"
         stdDeviation="0.091366383"
         id="feGaussianBlur4543" />
    </filter>
  </defs>
  <sodipodi:namedview
     id="base"
     pagecolor="#ffffff"
     bordercolor="#666666"
     borderopacity="1.0"
     inkscape:pageopacity="0.0"
     inkscape:pageshadow="2"
     inkscape:zoom="8.046875"
     inkscape:cx="32"
     inkscape:cy="32"
     inkscape:document-units="mm"
     inkscape:current-layer="layer1"
     showgrid="false"
     units="px"
     inkscape:window-width="1362"
     inkscape:window-height="695"
     inkscape:window-x="0"
     inkscape:window-y="0"
     inkscape:window-maximized="1" />
  <metadata
     id="metadata5">
    <rdf:RDF>
      <cc:Work
         rdf:about="">
        <dc:format>image/svg+xml</dc:format>
        <dc:type
           rdf:resource="http://purl.org/dc/dcmitype/StillImage" />
        <dc:title></dc:title>
      </cc:Work>
    </rdf:RDF>
  </metadata>
  <g
     inkscape:label="Layer 1"
     inkscape:groupmode="layer"
     id="layer1"
     transform="translate(0,-280.06665)">
    <rect
       style="opacity:0.2;fill:#000000;fill-opacity:1;stroke:none;stroke-width:0.3041721;stroke-opacity:1;filter:url(#filter4575)"
       id="rect4909-6"
       width="14.552084"
       height="13.229167"
       x="1.1906247"
       y="282.18332" />
    <rect
       style="opacity:1;fill:#2196f3;fill-opacity:1;stroke:none;stroke-width:0.3041721;stroke-opacity:1"
       id="rect4909"
       width="14.552084"
       height="13.229167"
       x="1.1906247"
       y="281.91873" />
    <rect
       style="opacity:1;fill:#fafafa;fill-opacity:1;stroke:none;stroke-width:0.2909216;stroke-opacity:1"
       id="rect4909-5"
       width="13.945747"
       height="12.627842"
       x="1.4937929"
       y="282.21939" />
    <rect
       style="opacity:1;fill:#2196f3;fill-opacity:1;stroke:none;stroke-width:0.32556596;stroke-opacity:1"
       id="rect4907"
       width="14.552084"
       height="2.405303"
       x="1.1906247"
       y="281.91873" />
    <path
       style="display:inline;opacity:0.2;fill:#000000;fill-opacity:1;stroke:none;stroke-width:0.23150995;enable-background:new;filter:url(#filter4541)"
       d="m 7.5190358,285.22619 c -0.09816,0.0107 -0.184687,0.0907 -0.202628,0.18778 l -0.195421,0.9911 c -0.350672,0.13714 -0.680281,0.32594 -0.969477,0.55745 l -0.962269,-0.32557 c -0.09996,-0.0344 -0.220983,0.01 -0.274692,0.10089 l -0.9262359,1.60619 c -0.05216,0.0924 -0.02956,0.22036 0.05087,0.28953 l 0.766847,0.67274 c -0.027,0.1804 -0.04367,0.36187 -0.04367,0.54981 0,0.18792 0.01667,0.3694 0.04367,0.54979 l -0.766847,0.67276 c -0.08043,0.0692 -0.1030289,0.19714 -0.05087,0.28951 l 0.9262359,1.6062 c 0.05371,0.0911 0.174729,0.13578 0.274692,0.10131 l 0.962269,-0.32556 c 0.289196,0.23149 0.618805,0.41988 0.969477,0.55702 l 0.195421,0.99109 c 0.01979,0.10375 0.118633,0.18677 0.224247,0.18821 h 1.852053 c 0.105614,-0.002 0.2044431,-0.0845 0.2242461,-0.18821 l 0.195421,-0.99109 c 0.3506721,-0.13714 0.6802811,-0.32553 0.9694771,-0.55702 l 0.962269,0.32556 c 0.09996,0.0344 0.220984,-0.0103 0.274693,-0.10131 l 0.926235,-1.6062 c 0.05216,-0.0924 0.02956,-0.22035 -0.05087,-0.28951 l -0.766848,-0.67276 c 0.02701,-0.18039 0.04367,-0.36187 0.04367,-0.54979 0,-0.18794 -0.01667,-0.36941 -0.04367,-0.54981 l 0.766848,-0.67274 c 0.08043,-0.0692 0.103029,-0.19716 0.05087,-0.28953 l -0.926235,-1.60619 c -0.05371,-0.0911 -0.174729,-0.13536 -0.274693,-0.10089 l -0.962269,0.32557 c -0.289196,-0.23151 -0.618805,-0.42031 -0.9694771,-0.55745 l -0.195421,-0.9911 c -0.01979,-0.10374 -0.1186321,-0.18635 -0.2242461,-0.18778 h -1.852053 c -0.0072,-2.3e-4 -0.01441,-2.3e-4 -0.02161,0 z m 0.947433,2.77787 c 1.022876,0 1.8520512,0.82917 1.8520512,1.85205 0,1.02286 -0.8291752,1.85203 -1.8520512,1.85203 -1.022875,0 -1.85205,-0.82917 -1.85205,-1.85203 0,-1.02288 0.829175,-1.85205 1.85205,-1.85205 z"
       id="path4081-3"
       inkscape:connector-curvature="0" />
    <path
       style="display:inline;opacity:1;fill:#607d8b;fill-opacity:1;stroke:none;stroke-width:0.23150995;enable-background:new"
       d="m 7.5190357,284.96161 c -0.09816,0.0107 -0.184687,0.0907 -0.202628,0.18778 l -0.195421,0.9911 c -0.350672,0.13714 -0.680281,0.32594 -0.969477,0.55745 l -0.962269,-0.32557 c -0.09996,-0.0344 -0.220983,0.01 -0.274692,0.10089 l -0.926236,1.60619 c -0.05216,0.0924 -0.02956,0.22036 0.05087,0.28953 l 0.766847,0.67274 c -0.027,0.1804 -0.04367,0.36188 -0.04367,0.54981 0,0.18792 0.01667,0.3694 0.04367,0.5498 l -0.766847,0.67275 c -0.08043,0.0692 -0.103029,0.19715 -0.05087,0.28952 l 0.926236,1.60619 c 0.05371,0.0911 0.174729,0.13578 0.274692,0.10131 l 0.962269,-0.32556 c 0.289196,0.2315 0.618805,0.41988 0.969477,0.55702 l 0.195421,0.99109 c 0.01979,0.10375 0.118633,0.18677 0.224247,0.18821 h 1.852053 c 0.105614,-0.002 0.204443,-0.0845 0.224246,-0.18821 l 0.195421,-0.99109 c 0.3506723,-0.13714 0.6802813,-0.32552 0.9694773,-0.55702 l 0.962269,0.32556 c 0.09996,0.0344 0.220984,-0.0103 0.274693,-0.10131 l 0.926235,-1.60619 c 0.05216,-0.0924 0.02956,-0.22036 -0.05087,-0.28952 l -0.766848,-0.67275 c 0.02701,-0.1804 0.04367,-0.36188 0.04367,-0.5498 0,-0.18793 -0.01667,-0.36941 -0.04367,-0.54981 l 0.766848,-0.67274 c 0.08043,-0.0692 0.103029,-0.19716 0.05087,-0.28953 l -0.926235,-1.60619 c -0.05371,-0.0911 -0.174729,-0.13536 -0.274693,-0.10089 l -0.962269,0.32557 c -0.289196,-0.23151 -0.618805,-0.42031 -0.9694773,-0.55745 l -0.195421,-0.9911 c -0.01979,-0.10374 -0.118632,-0.18635 -0.224246,-0.18778 h -1.852053 c -0.0072,-2.2e-4 -0.01441,-2.2e-4 -0.02161,0 z m 0.947433,2.77787 c 1.022876,0 1.8520513,0.82917 1.8520513,1.85205 0,1.02287 -0.8291753,1.85204 -1.8520513,1.85204 -1.022875,0 -1.85205,-0.82917 -1.85205,-1.85204 0,-1.02288 0.829175,-1.85205 1.85205,-1.85205 z"
       id="path4081"
       inkscape:connector-curvature="0" />
    <path
       style="display:inline;opacity:0.1;fill:#ffffff;fill-opacity:1;stroke:none;stroke-width:0.23146749;enable-background:new"
       d="m 7.5191094,284.96159 c -0.09814,0.0107 -0.184596,0.091 -0.202533,0.18806 l -0.195301,0.99098 c -0.350608,0.13711 -0.680128,0.3255 -0.969271,0.55697 l -0.962036,-0.32551 c -0.09995,-0.0344 -0.221169,0.0102 -0.274868,0.10127 l -0.925869,1.6058 c 0.01259,0.0231 0.03053,0.0406 0.05064,0.0579 l 0.03617,0.029 0.839068,-1.46114 c 0.0537,-0.091 0.174922,-0.13573 0.274868,-0.10127 l 0.9620359,0.32552 c 0.289143,-0.23147 0.618663,-0.41987 0.969271,-0.55697 l 0.195301,-0.99097 c 0.01794,-0.0971 0.10439,-0.17737 0.202533,-0.18807 0.0072,-2.1e-4 0.01448,-2.1e-4 0.0217,0 h 1.8517391 c 0.105598,0.002 0.204435,0.0843 0.2242359,0.18807 l 0.195301,0.99097 c 0.3506077,0.13711 0.6801277,0.3255 0.9692687,0.55697 l 0.962038,-0.32551 c 0.09994,-0.0344 0.221169,0.0102 0.274866,0.10127 l 0.839071,1.46114 0.03617,-0.029 c 0.02012,-0.0173 0.03804,-0.0347 0.05063,-0.0579 l -0.925871,-1.6058 c -0.0537,-0.0911 -0.174922,-0.13573 -0.274866,-0.10127 l -0.962026,0.32552 c -0.28914,-0.23147 -0.61866,-0.41987 -0.9692677,-0.55697 l -0.195301,-0.99098 c -0.01979,-0.10373 -0.118639,-0.18663 -0.224233,-0.18806 h -1.851741 c -0.0072,-2.2e-4 -0.01448,-2.2e-4 -0.02168,0 z m -3.551577,3.26948 c 0.0043,0.0273 0.0088,0.0558 0.02168,0.0796 -0.01259,-0.0231 -0.01712,-0.0535 -0.02168,-0.0796 z m 8.9982956,0 c -0.0046,0.0261 -0.0091,0.0564 -0.02168,0.0796 0.01293,-0.0238 0.01747,-0.0522 0.02168,-0.0796 z m -8.1809286,1.0199 c -0.0074,0.0742 -0.01048,0.14934 -0.01448,0.22423 0.0013,0.039 0.0051,0.0769 0.0072,0.11573 0.006,-0.10681 0.0133,-0.21384 0.02894,-0.31826 l -0.0217,-0.0217 z m 7.3635616,0 -0.0217,0.0217 c 0.01562,0.10442 0.02298,0.21146 0.02894,0.31827 0.0022,-0.0388 0.0058,-0.0767 0.0072,-0.11573 -0.0039,-0.0749 -0.0071,-0.14999 -0.01448,-0.22424 z m -7.3635616,0.9114 -0.745034,0.65101 c -0.02012,0.0173 -0.03805,0.0347 -0.05064,0.0579 l 0.0868,0.14467 0.730568,-0.64377 c -0.01031,-0.0688 -0.01482,-0.14034 -0.02168,-0.20977 z m 7.3635616,0 c -0.0069,0.0695 -0.01142,0.14095 -0.0217,0.20977 l 0.730569,0.64376 0.0868,-0.14466 c -0.01259,-0.0231 -0.03053,-0.0406 -0.05064,-0.0579 z m -8.1881636,0.8463 c 6.509e-4,0.0126 0.0044,0.0239 0.0072,0.0362 -0.003,-0.0123 -0.0062,-0.0235 -0.0072,-0.0362 z m 9.0127666,0 c -0.0011,0.0127 -0.0042,0.0239 -0.0072,0.0362 0.0028,-0.0122 0.0065,-0.0236 0.0072,-0.0362 z"
       id="path4258"
       inkscape:connector-curvature="0" />
    <rect
       style="opacity:0.2;fill:#ffffff;fill-opacity:1;stroke:none;stroke-width:0.10797802;stroke-opacity:1"
       id="rect4907-6"
       width="14.552084"
       height="0.26458332"
       x="1.1906247"
       y="281.91873" />
  </g>
</svg>
