<svg version="1" viewBox="0 0 64 64" xmlns="http://www.w3.org/2000/svg">
    <defs>
        <filter id="filter842" x="-.012999999" y="-.011142858" width="1.026" height="1.0222857" color-interpolation-filters="sRGB">
            <feGaussianBlur stdDeviation="0.26000002"/>
        </filter>
        <filter id="filter850" x="-.013333198" y="-.010909182" width="1.0266664" height="1.0218184" color-interpolation-filters="sRGB">
            <feGaussianBlur stdDeviation="0.20000166"/>
        </filter>
    </defs>
    <path d="m46.289306 5c-3.75245 0-6.857045 1.5051667-9.211257 3.6503906-1.327529-0.9471093-2.861785-1.6449287-4.400801-1.6503906-0.450854-0.0016-0.872507 0.031024-1.267961 0.083984h-2e-3c-1.683615 0.2257036-3.21641 1.0465182-4.531449 2.0859379l-3.203067-0.1601563c-6.53e-4 -3.28e-5 -0.0013 3.26e-5 -2e-3 0-0.443345-0.022159-0.860273-0.00523-1.232849 0.03125-0.860714 0.084294-1.653489 0.2911459-2.377915 0.5664063-2.729654 1.0372821-5.065103 3.6989291-5.74484 6.2812501-0.04927 0.187178-5e-3 0.338209-0.04292 0.521484-0.618472 0.188477-1.226868 0.406711-1.761491 0.701172v2e-3c-2.363812 1.302716-4.422337 4.366456-4.506139 7.117188-0.0838 2.750731 0.986091 4.664373 2.08921 6.130859 0.857892 1.140483 1.873682 2.016059 3.013846 2.78125-0.268978 0.719914-0.607835 1.393253-0.774431 2.177734-1.370908 6.450305 1.23023 12.464038 5.089402 17.167969 3.859225 4.703884 9.467173 8.511672 16.286529 8.511672 4.187725 0 7.658743-1.879571 10.426543-4.425781 2.19804-2.022063 4.10374-4.588377 5.16651-7.628968 1.04304-2.416554 0.50944-5.125687 0.12615-7.477608-0.99878-6.095549-2.51044-12.769981 4.4804-20.969643 1.33582-2.319296 2.7098-4.941132 1.79465-8.839844-0.45757-1.9493086-1.9172-4.0834077-3.77852-5.220656-1.86133-1.1372483-3.79564-1.4375-5.6356-1.4375z" filter="url(#filter842)" opacity=".2"/>
    <path d="m46.289305 4c-3.752447 0-6.85704 1.5051667-9.211252 3.6503906-1.327529-0.9471093-2.861785-1.6449287-4.400801-1.6503906-0.450854-0.0016-0.872507 0.031024-1.267961 0.083984h-2e-3c-1.683615 0.2257036-3.21641 1.0465182-4.531449 2.0859379l-3.203067-0.1601563c-6.53e-4 -3.28e-5 -0.0013 3.26e-5 -2e-3 0-0.443345-0.022159-0.860273-0.00523-1.232849 0.03125-0.860714 0.084294-1.653489 0.2911459-2.377915 0.5664063-2.729654 1.0372823-5.065103 3.6989291-5.74484 6.2812501-0.04927 0.187178-5e-3 0.338209-0.04292 0.521484-0.618472 0.188477-1.226868 0.406711-1.761491 0.701172v2e-3c-2.363812 1.302716-4.4223373 4.366456-4.5061395 7.117188-0.083802 2.750731 0.9860919 4.664373 2.0892105 6.130859 0.857892 1.140483 1.873682 2.016059 3.013846 2.78125-0.268978 0.719914-0.607835 1.393253-0.774431 2.177734-1.370908 6.450305 1.23023 12.464038 5.089402 17.167969 3.859225 4.703884 9.467173 8.511672 16.286529 8.511672 4.187725 0 7.658744-1.879571 10.426545-4.425781 2.198039-2.022063 4.103741-4.588377 5.166509-7.628968 1.043037-2.416554 0.509441-5.125687 0.126153-7.477608-0.998786-6.095549-2.510445-12.769981 4.480394-20.969643 1.335826-2.319296 2.709797-4.941132 1.794653-8.839844-0.457573-1.9493086-1.917198-4.0834077-3.778525-5.220656-1.861328-1.1372483-3.79564-1.4375-5.635601-1.4375z" fill="#40c4ff"/>
    <path d="m46.336118 11c-8.885687 0-10.55143 13-5.552735 13 4.997974 0 14.438785-13 5.552735-13zm-13.650391 2c-0.143399-5.08e-4 -0.294254 0.01-0.453125 0.03125-5.08204 0.680429-3.295859 9.796407-0.589844 9.966797 2.620386 0.165068 5.488334-9.98229 1.042969-9.998047zm-9.294922 2.001953c-0.113577-0.0057-0.229883-0.0021-0.351563 0.0098-0.259582 0.02533-0.53863 0.09225-0.835937 0.205078-4.757779 1.805744-0.721985 9.26075 1.943359 8.759765 2.422623-0.45428 2.765032-8.799158-0.755859-8.974609zm-6.607422 6.998047c-0.42469-0.01134-0.886012 0.100148-1.375 0.369141-3.910133 2.15224 1.318625 7.353224 3.619141 6.546875 2.012956-0.705859 0.728693-6.836315-2.244141-6.916016zm18.578125 4c-6.742643-0.119793-15.637449 3.434516-17.154297 10.568359-1.642802 7.72005 6.763118 18.431641 15.533203 18.431641 4.314431 0 9.291628-4.391431 10.222657-9.574219 0.339931-1.889359-1.767992-2.574542-4.025391-2.425781-2.464631 0.162417-5.107775 1.30693-4.9375 2.671875 0.266388 2.136458-0.504412 3.293345-2.041016 3.328125-2.097922-0.255211-3.682982-1.217801-3.958984-3.054688-0.375712-4.823492 15.114607-8.260969 13.916016-15.740234-0.438384-2.735535-3.509102-4.1332-7.554688-4.205078z" filter="url(#filter850)" opacity=".2"/>
    <path d="m46.336118 10c-8.885687 0-10.55143 13-5.552735 13 4.997974 0 14.438785-13 5.552735-13zm-13.650391 2c-0.143399-5.08e-4 -0.294254 0.01-0.453125 0.03125-5.08204 0.680429-3.295859 9.796407-0.589844 9.966797 2.620386 0.165068 5.488334-9.98229 1.042969-9.998047zm-9.294922 2.001953c-0.113577-0.0057-0.229883-0.0021-0.351563 0.0098-0.259582 0.02533-0.53863 0.09225-0.835937 0.205078-4.757779 1.805744-0.721985 9.26075 1.943359 8.759765 2.422623-0.45428 2.765032-8.799158-0.755859-8.974609zm-6.607422 6.998047c-0.42469-0.01134-0.886012 0.100148-1.375 0.369141-3.910133 2.15224 1.318625 7.353224 3.619141 6.546875 2.012956-0.705859 0.728693-6.836315-2.244141-6.916016zm18.578125 4c-6.742643-0.119793-15.637449 3.434516-17.154297 10.568359-1.642802 7.72005 6.763118 18.431641 15.533203 18.431641 4.314431 0 9.291628-4.391431 10.222657-9.574219 0.339931-1.889359-1.767992-2.574542-4.025391-2.425781-2.464631 0.162417-5.107775 1.30693-4.9375 2.671875 0.266388 2.136458-0.504412 3.293345-2.041016 3.328125-2.097922-0.255211-3.682982-1.217801-3.958984-3.054688-0.375712-4.823492 15.114607-8.260969 13.916016-15.740234-0.438384-2.735535-3.509102-4.1332-7.554688-4.205078z" fill="#fff"/>
    <path d="m46.289062 4c-3.752446 0-6.856725 1.5051667-9.210937 3.6503906-1.327529-0.9471093-2.861375-1.6449287-4.400391-1.6503906-0.450854-0.0016-0.872124 0.0310244-1.267578 0.0839844h-2e-3c-1.683568 0.2257036-3.218117 1.0465178-4.533156 2.0859375l-3.203125-0.1601563h-2e-3c-0.443345-0.022159-0.859846-0.00523-1.232422 0.03125-0.860714 0.084294-1.652527 0.2911459-2.376953 0.5664063-2.729654 1.0372823-5.066357 3.6989291-5.746094 6.2812501-0.04927 0.187178-5e-3 0.338209-0.04297 0.521484-0.618472 0.188477-1.225142 0.406711-1.759765 0.701172v2e-3c-2.363812 1.302716-4.4240106 4.366456-4.5078128 7.117188-0.00891 0.292395 0.00176 0.569803 0.017578 0.84375 0.1542047-2.710028 2.1706708-5.682607 4.4902348-6.960938v-2e-3c0.534623-0.294461 1.141293-0.512695 1.759765-0.701172 0.03792-0.183275-0.0063-0.334306 0.04297-0.521484 0.679737-2.582321 3.01644-5.243968 5.746094-6.2812501 0.724426-0.2752604 1.516239-0.4821123 2.376953-0.5664063 0.372576-0.03648 0.789077-0.053409 1.232422-0.03125h2e-3l3.203125 0.1601563c1.315039-1.0394197 2.849588-1.8602339 4.533203-2.0859375h2e-3c0.395407-0.05296 0.816677-0.0855844 1.267531-0.0839844 1.539016 0.0054619 3.072862 0.7032813 4.400391 1.6503906 2.354212-2.1452239 5.458491-3.6503906 9.210937-3.6503906 1.839962 0 3.775391 0.3002517 5.636719 1.4375 1.861327 1.1372483 3.319771 3.2713945 3.777344 5.220703 0.168399 0.717418 0.237749 1.378609 0.265625 2.015625 0.05491-0.920827-0.0067-1.912383-0.265625-3.015625-0.457573-1.9493085-1.916017-4.0834547-3.777344-5.220703-1.861328-1.1372483-3.796757-1.4375-5.636719-1.4375zm-33.492187 28.919922c-0.182686 0.448846-0.357115 0.902303-0.462891 1.40039-0.290055 1.364751-0.393377 2.707998-0.353515 4.025391 0.02869-0.995856 0.136474-2.004184 0.353515-3.025391 0.166596-0.78448 0.50446-1.45782 0.773438-2.177734-0.106486-0.07147-0.206258-0.149139-0.310547-0.222656zm35.775391 0.599609c-0.05173 2.792714 0.441498 5.420824 0.855468 7.947266 0.190959 1.171756 0.420641 2.43244 0.472657 3.701172 0.06986-1.600547-0.231531-3.221587-0.472657-4.701172-0.364306-2.223348-0.792184-4.523963-0.855468-6.947266z" fill="#fff" opacity=".2"/>
</svg>
