<svg width="64" height="64" version="1.1" viewBox="0 0 16.933333 16.933334" xmlns="http://www.w3.org/2000/svg">
    <defs>
        <style id="current-color-scheme" type="text/css">.ColorScheme-Text { color:#5c616c; } .ColorScheme-Highlight { color:#5294e2; } .ColorScheme-ButtonBackground { color:#d3dae3; }</style>
        <filter id="filter4937" x="-.012042032" y="-.01195826" width="1.0240841" height="1.0239165" color-interpolation-filters="sRGB">
            <feGaussianBlur stdDeviation="0.30348912"/>
        </filter>
        <filter id="filter4978" x="-.012000001" y="-.011999999" width="1.024" height="1.024" color-interpolation-filters="sRGB">
            <feGaussianBlur stdDeviation="0.20500001"/>
        </filter>
        <filter id="filter4575-7" x="-.011454545" y="-.0126" width="1.0229091" height="1.0252" color-interpolation-filters="sRGB">
            <feGaussianBlur stdDeviation="0.069453127"/>
        </filter>
        <style type="text/css">.ColorScheme-Text { color:#5c616c; } .ColorScheme-Highlight { color:#5294e2; } .ColorScheme-ButtonBackground { color:#d3dae3; }</style>
    </defs>
    <g transform="translate(0,-280.06665)">
        <g>
            <rect x=".43127084" y="281.18982" width="14.552084" height="13.229167" filter="url(#filter4575-7)" opacity=".2"/>
            <rect x=".43127084" y="280.92523" width="14.552084" height="13.229167" fill="#2196f3"/>
            <rect x=".73443902" y="281.22589" width="13.945747" height="12.627842" fill="#fafafa"/>
            <rect x=".43127084" y="280.92523" width="14.552084" height="2.405303" fill="#2196f3"/>
            <rect x=".43127084" y="280.92523" width="14.552084" height=".26458332" fill="#fff" opacity=".2"/>
            <path transform="matrix(.213571 0 0 .213571 3.1680009 283.12488)" d="m14.748245 2.0955137c-0.137284 0.01413-0.269875 0.07488-0.372984 0.178589l-4.7716906 4.770836c-0.200621 0.201195-0.238416 0.513188-0.09051 0.756798l5.5866226 9.2011093c-0.990846 1.665794-1.785008 3.461826-2.352602 5.356506l-10.256137 2.133289c-0.285356 0.05906-0.490946 0.311937-0.490946 0.604771v6.747153c0 0.285346 0.195222 0.532488 0.470176 0.598951l9.9545766 2.433187c0.530845 2.194352 1.353461 4.274488 2.440679 6.186405l-5.7619096 8.78657c-0.160756 0.245559-0.127157 0.569054 0.08054 0.775899l4.7700176 4.770864c0.200622 0.200065 0.513821 0.239343 0.758458 0.09212l9.029145-5.483608c1.773594 1.023465 3.68634 1.828868 5.707914 2.375062l2.106713 10.129007c0.0593 0.287015 0.31298 0.490978 0.60394 0.490978h6.74798c0.28368 0 0.53124-0.193566 0.59895-0.471875l2.48137-10.149775c2.08387-0.562385 4.05477-1.400594 5.871559-2.470573l8.89788 5.834174c0.24466 0.161069 0.56823 0.128855 0.7759-0.07884l4.7717-4.770864c0.20184-0.20176 0.23798-0.513781 0.0897-0.75677l-6.07321-7.692716c-2.72646-3.739762-2.38842-3.356667-3.38377-4.419334-3.1987 6.260328-9.706589 10.548523-17.221739 10.548523-10.677092 0-19.333459-8.656556-19.333459-19.334272 0-7.854911 4.685091-14.610147 11.410842-17.636265v-4.9876533c-1.224073 0.428218-2.407438 0.944515-3.53142 1.556775-8.23e-4 -7.64e-4 -0.0017-0.0028-0.0048-0.0057l-9.107213-5.973228c-0.122655-0.08026-0.264811-0.112184-0.402064-0.09805z" filter="url(#filter4937)" opacity=".2" stroke-width=".74765211"/>
            <path d="m6.3177988 283.35885c-0.02932 3e-3 -0.057638 0.016-0.079659 0.0381l-1.0190948 1.01891c-0.042847 0.043-0.050919 0.10961-0.01933 0.16163l1.1931406 1.96509c-0.2116159 0.35577-0.3812259 0.73935-0.5024475 1.144l-2.1904135 0.45561c-0.060944 0.0126-0.1048518 0.0666-0.1048518 0.12916v1.44099c0 0.0609 0.041694 0.11373 0.100416 0.12792l2.1260089 0.51966c0.1133731 0.46865 0.28906 0.91291 0.5212583 1.32124l-1.2305769 1.87655c-0.034333 0.0525-0.027157 0.12154 0.017201 0.16571l1.0187375 1.01892c0.042847 0.0427 0.1097373 0.0511 0.1619847 0.0197l1.9283635-1.17114c0.3787882 0.21858 0.7872951 0.39059 1.2190447 0.50724l0.4499321 2.16326c0.012661 0.0613 0.066845 0.10486 0.1289834 0.10486h1.441174c0.06059 0 0.113458-0.0413 0.127919-0.10078l0.529947-2.16769c0.445055-0.12011 0.865982-0.29913 1.253995-0.52765l1.900331 1.24601c0.05225 0.0344 0.121356 0.0275 0.165709-0.0168l1.019096-1.01892c0.04311-0.0431 0.05083-0.10973 0.01916-0.16163l-1.297061-1.64294c-0.582292-0.7987-0.510097-0.71688-0.722675-0.94384-0.683149 1.33702-2.073046 2.25286-3.678065 2.25286-2.280316 0-4.1290649-1.84879-4.1290649-4.12924 0-1.67758 1.0005995-3.1203 2.4370247-3.7666v-1.06521c-0.2614263 0.0915-0.5141587 0.20172-0.7542087 0.33248-1.758e-4 -1.6e-4 -3.631e-4 -6e-4 -0.00103-1e-3l-1.9450366-1.27571c-0.026196-0.0171-0.056556-0.024-0.085869-0.0209z" fill="#b0bec5" stroke-width=".15967681"/>
            <ellipse transform="matrix(.213571 0 0 .213571 3.1680009 283.12488)" cx="36" cy="28.999998" rx="20.5" ry="20.500002" filter="url(#filter4978)" opacity=".2"/>
            <ellipse cx="10.856558" cy="289.10486" rx="4.3782053" ry="4.3782058" fill="#206b00" stroke-width=".213571"/>
        </g>
        <path d="m10.856569 284.72665a4.3781891 4.3781891 0 0 0-4.3781888 4.3782 4.3781891 4.3781891 0 0 0 0.00331 0.0917 4.3781891 4.3781891 0 0 1 4.3748278-4.31345 4.3781891 4.3781891 0 0 1 4.374906 4.28655 4.3781891 4.3781891 0 0 0 0.0033-0.0648 4.3781891 4.3781891 0 0 0-4.378189-4.37819z" fill="#fff" opacity=".2" stroke-width=".1563639"/>
        <ellipse cx="10.321678" cy="290.23199" rx="2.6696374" ry="2.6696377" fill="#fff" stroke-width=".213571"/>
        <path d="m7.9723969 290.07181 2.5627621 2.34929 1.281516-3.52393z" fill="#1a1a1a" stroke-width=".213571"/>
    </g>
</svg>
