<?xml version="1.0" encoding="UTF-8" standalone="no"?>
<!-- Created with Inkscape (http://www.inkscape.org/) -->

<svg
   xmlns:dc="http://purl.org/dc/elements/1.1/"
   xmlns:cc="http://creativecommons.org/ns#"
   xmlns:rdf="http://www.w3.org/1999/02/22-rdf-syntax-ns#"
   xmlns:svg="http://www.w3.org/2000/svg"
   xmlns="http://www.w3.org/2000/svg"
   xmlns:sodipodi="http://sodipodi.sourceforge.net/DTD/sodipodi-0.dtd"
   xmlns:inkscape="http://www.inkscape.org/namespaces/inkscape"
   width="64"
   height="64"
   viewBox="0 0 16.933333 16.933334"
   version="1.1"
   id="svg8"
   inkscape:version="0.92.4 (5da689c313, 2019-01-14)"
   sodipodi:docname="kdevdesigner.svg"
   inkscape:export-filename="/home/john/Nextcloud/Q4OS Stuff/desktop-profiler.png"
   inkscape:export-xdpi="96"
   inkscape:export-ydpi="96">
  <defs
     id="defs2">
    <style
       id="current-color-scheme"
       type="text/css">
   .ColorScheme-Text { color:#5c616c; } .ColorScheme-Highlight { color:#5294e2; } .ColorScheme-ButtonBackground { color:#d3dae3; }
  </style>
    <filter
       height="1.0239165"
       y="-0.01195826"
       width="1.0240841"
       x="-0.012042032"
       id="filter4937"
       style="color-interpolation-filters:sRGB"
       inkscape:collect="always">
      <feGaussianBlur
         id="feGaussianBlur4939"
         stdDeviation="0.30348912"
         inkscape:collect="always" />
    </filter>
    <filter
       height="1.024"
       y="-0.011999999"
       width="1.024"
       x="-0.012000001"
       id="filter4978"
       style="color-interpolation-filters:sRGB"
       inkscape:collect="always">
      <feGaussianBlur
         id="feGaussianBlur4980"
         stdDeviation="0.20500001"
         inkscape:collect="always" />
    </filter>
    <filter
       height="1.0252"
       y="-0.0126"
       width="1.0229091"
       x="-0.011454545"
       id="filter4575-7"
       style="color-interpolation-filters:sRGB"
       inkscape:collect="always">
      <feGaussianBlur
         id="feGaussianBlur4577-5"
         stdDeviation="0.069453127"
         inkscape:collect="always" />
    </filter>
    <style
       type="text/css"
       id="current-color-scheme-3">
   .ColorScheme-Text { color:#5c616c; } .ColorScheme-Highlight { color:#5294e2; } .ColorScheme-ButtonBackground { color:#d3dae3; }
  </style>
  </defs>
  <sodipodi:namedview
     id="base"
     pagecolor="#ffffff"
     bordercolor="#666666"
     borderopacity="1.0"
     inkscape:pageopacity="0.0"
     inkscape:pageshadow="2"
     inkscape:zoom="8.046875"
     inkscape:cx="32"
     inkscape:cy="32"
     inkscape:document-units="mm"
     inkscape:current-layer="layer1"
     showgrid="false"
     units="px"
     inkscape:window-width="1362"
     inkscape:window-height="695"
     inkscape:window-x="0"
     inkscape:window-y="0"
     inkscape:window-maximized="1" />
  <metadata
     id="metadata5">
    <rdf:RDF>
      <cc:Work
         rdf:about="">
        <dc:format>image/svg+xml</dc:format>
        <dc:type
           rdf:resource="http://purl.org/dc/dcmitype/StillImage" />
        <dc:title />
      </cc:Work>
    </rdf:RDF>
  </metadata>
  <g
     inkscape:label="Layer 1"
     inkscape:groupmode="layer"
     id="layer1"
     transform="translate(0,-280.06665)">
    <rect
       style="opacity:0.2;fill:#000000;fill-opacity:1;stroke:none;stroke-width:0.3041721;stroke-opacity:1;filter:url(#filter4575-7)"
       id="rect4909-6-9"
       width="14.552084"
       height="13.229167"
       x="0.43127084"
       y="281.18982" />
    <rect
       style="opacity:1;fill:#2196f3;fill-opacity:1;stroke:none;stroke-width:0.3041721;stroke-opacity:1"
       id="rect4909-1"
       width="14.552084"
       height="13.229167"
       x="0.43127084"
       y="280.92523" />
    <rect
       style="opacity:1;fill:#fafafa;fill-opacity:1;stroke:none;stroke-width:0.2909216;stroke-opacity:1"
       id="rect4909-5-2"
       width="13.945747"
       height="12.627842"
       x="0.73443902"
       y="281.22589" />
    <rect
       style="opacity:1;fill:#2196f3;fill-opacity:1;stroke:none;stroke-width:0.32556596;stroke-opacity:1"
       id="rect4907-7"
       width="14.552084"
       height="2.405303"
       x="0.43127084"
       y="280.92523" />
    <rect
       style="opacity:0.2;fill:#ffffff;fill-opacity:1;stroke:none;stroke-width:0.10797802;stroke-opacity:1"
       id="rect4907-6"
       width="14.552084"
       height="0.26458332"
       x="0.43127084"
       y="280.92523" />
    <path
       style="opacity:0.2;fill:#000000;fill-opacity:1;stroke-width:0.74765211;filter:url(#filter4937)"
       d="m 14.748245,2.0955137 c -0.137284,0.01413 -0.269875,0.07488 -0.372984,0.178589 l -4.7716906,4.770836 c -0.200621,0.201195 -0.238416,0.513188 -0.09051,0.756798 l 5.5866226,9.2011093 c -0.990846,1.665794 -1.785008,3.461826 -2.352602,5.356506 L 2.4909444,24.492641 c -0.285356,0.05906 -0.490946,0.311937 -0.490946,0.604771 v 6.747153 c 0,0.285346 0.195222,0.532488 0.470176,0.598951 l 9.9545766,2.433187 c 0.530845,2.194352 1.353461,4.274488 2.440679,6.186405 l -5.7619096,8.78657 c -0.160756,0.245559 -0.127157,0.569054 0.08054,0.775899 l 4.7700176,4.770864 c 0.200622,0.200065 0.513821,0.239343 0.758458,0.09212 l 9.029145,-5.483608 c 1.773594,1.023465 3.68634,1.828868 5.707914,2.375062 l 2.106713,10.129007 C 31.615608,62.796037 31.869288,63 32.160248,63 h 6.74798 c 0.28368,0 0.53124,-0.193566 0.59895,-0.471875 l 2.48137,-10.149775 c 2.08387,-0.562385 4.05477,-1.400594 5.871559,-2.470573 l 8.89788,5.834174 c 0.24466,0.161069 0.56823,0.128855 0.7759,-0.07884 l 4.7717,-4.770864 c 0.20184,-0.20176 0.23798,-0.513781 0.0897,-0.75677 l -6.07321,-7.692716 c -2.72646,-3.739762 -2.38842,-3.356667 -3.38377,-4.419334 -3.1987,6.260328 -9.706589,10.548523 -17.221739,10.548523 -10.677092,0 -19.333459,-8.656556 -19.333459,-19.334272 0,-7.854911 4.685091,-14.610147 11.410842,-17.636265 V 6.6137597 c -1.224073,0.428218 -2.407438,0.944515 -3.53142,1.556775 -8.23e-4,-7.64e-4 -0.0017,-0.0028 -0.0048,-0.0057 l -9.107213,-5.973228 c -0.122655,-0.08026 -0.264811,-0.112184 -0.402064,-0.09805 z"
       id="path5692_2_-3-2"
       inkscape:connector-curvature="0"
       sodipodi:nodetypes="cccccccssccccccccccsscccccccccssccccccc"
       transform="matrix(0.213571,0,0,0.213571,3.1680009,283.12488)" />
    <path
       style="fill:#b0bec5;fill-opacity:1;stroke-width:0.15967681"
       d="m 6.3177988,283.35885 c -0.02932,0.003 -0.057638,0.016 -0.079659,0.0381 l -1.0190948,1.01891 c -0.042847,0.043 -0.050919,0.10961 -0.01933,0.16163 l 1.1931406,1.96509 c -0.2116159,0.35577 -0.3812259,0.73935 -0.5024475,1.144 l -2.1904135,0.45561 c -0.060944,0.0126 -0.1048518,0.0666 -0.1048518,0.12916 v 1.44099 c 0,0.0609 0.041694,0.11373 0.100416,0.12792 l 2.1260089,0.51966 c 0.1133731,0.46865 0.28906,0.91291 0.5212583,1.32124 l -1.2305769,1.87655 c -0.034333,0.0525 -0.027157,0.12154 0.017201,0.16571 l 1.0187375,1.01892 c 0.042847,0.0427 0.1097373,0.0511 0.1619847,0.0197 l 1.9283635,-1.17114 c 0.3787882,0.21858 0.7872951,0.39059 1.2190447,0.50724 l 0.4499321,2.16326 c 0.012661,0.0613 0.066845,0.10486 0.1289834,0.10486 h 1.441174 c 0.06059,0 0.113458,-0.0413 0.127919,-0.10078 l 0.529947,-2.16769 c 0.445055,-0.12011 0.865982,-0.29913 1.253995,-0.52765 l 1.900331,1.24601 c 0.05225,0.0344 0.121356,0.0275 0.165709,-0.0168 l 1.019096,-1.01892 c 0.04311,-0.0431 0.05083,-0.10973 0.01916,-0.16163 l -1.297061,-1.64294 c -0.582292,-0.7987 -0.510097,-0.71688 -0.722675,-0.94384 -0.683149,1.33702 -2.073046,2.25286 -3.678065,2.25286 -2.280316,0 -4.1290649,-1.84879 -4.1290649,-4.12924 0,-1.67758 1.0005995,-3.1203 2.4370247,-3.7666 v -1.06521 c -0.2614263,0.0915 -0.5141587,0.20172 -0.7542087,0.33248 -1.758e-4,-1.6e-4 -3.631e-4,-6e-4 -0.00103,-0.001 L 6.4037105,283.3796 c -0.026196,-0.0171 -0.056556,-0.024 -0.085869,-0.0209 z"
       id="path5692_2_-3"
       inkscape:connector-curvature="0"
       sodipodi:nodetypes="cccccccssccccccccccsscccccccccssccccccc" />
    <ellipse
       style="opacity:0.2;fill:#000000;fill-opacity:1;stroke:none;stroke-width:0.62231982;stroke-opacity:0;filter:url(#filter4978)"
       id="path5219-3-8"
       cx="36"
       cy="28.999998"
       rx="20.5"
       ry="20.500002"
       transform="matrix(0.213571,0,0,0.213571,3.1680009,283.12488)" />
    <ellipse
       style="opacity:1;fill:#206b00;fill-opacity:1;stroke-width:0.213571"
       id="path5219-3"
       cx="10.856558"
       cy="289.10486"
       rx="4.3782053"
       ry="4.3782058" />
    <path
       inkscape:connector-curvature="0"
       style="opacity:0.2;fill:#ffffff;stroke-width:0.1563639"
       d="m 10.856569,284.72665 a 4.3781891,4.3781891 0 0 0 -4.3781888,4.3782 4.3781891,4.3781891 0 0 0 0.00331,0.0917 4.3781891,4.3781891 0 0 1 4.3748278,-4.31345 4.3781891,4.3781891 0 0 1 4.374906,4.28655 4.3781891,4.3781891 0 0 0 0.0033,-0.0648 4.3781891,4.3781891 0 0 0 -4.378189,-4.37819 z"
       id="path5512-1" />
    <ellipse
       style="opacity:1;fill:#ffffff;fill-opacity:1;stroke-width:0.213571"
       id="path5219-3-6"
       cx="10.321678"
       cy="290.23199"
       rx="2.6696374"
       ry="2.6696377" />
    <path
       style="fill:#1a1a1a;fill-opacity:1;stroke-width:0.213571"
       d="m 7.9723969,290.07181 2.5627621,2.34929 1.281516,-3.52393 z"
       id="path4661"
       inkscape:connector-curvature="0"
       sodipodi:nodetypes="cccc" />
  </g>
</svg>
