<svg version="1" viewBox="0 0 64 64" xmlns="http://www.w3.org/2000/svg">
    <defs>
        <filter id="filter841" x="-.010713223" y="-.013638085" width="1.0214264" height="1.0272762" color-interpolation-filters="sRGB">
            <feGaussianBlur stdDeviation="0.22319211"/>
        </filter>
    </defs>
    <path d="m7.010851 21.72315c-0.0063 0.10652-0.0099 0.213206-0.01084 0.31992v21.773983c6.51e-4 2.274279 1.209414 4.375523 3.171115 5.512481l18.65777 10.81715c1.962238 1.137754 4.379992 1.137754 6.34223 0l18.657764-10.81715c1.96254-1.137447 3.17143-3.239958 3.17111-5.515216v-21.771248c-3e-3 -0.0803-8e-3 -0.1605-0.0136-0.240624 0.0136-0.0025-49.975549-0.0793-49.975549-0.0793z" filter="url(#filter841)" opacity=".2"/>
    <g transform="translate(0,-7.1911283e-4)">
        <path d="m7.0108508 20.72315c-0.0063 0.10652-0.0099 0.213206-0.01084 0.31992v21.773983c6.51e-4 2.274279 1.2094142 4.375523 3.1711152 5.512481l18.65777 10.81715c1.962238 1.137754 4.379992 1.137754 6.34223 0l18.657766-10.81715c1.962536-1.137447 3.17143-3.239958 3.171108-5.515216v-21.771248c-3e-3 -0.0803-0.0076-0.1605-0.0136-0.240624 0.0136-0.002504-49.975549-0.079296-49.975549-0.079296z" fill="#fbc02d"/>
        <path d="m32.149312 4.0000003v0.00278a6.346037 6.442821 0 0 0-3.322838 0.8577294l-18.671951 10.9459a6.346037 6.442821 0 0 0-3.154523 5.165822 6.346037 6.442821 0 0 0 3.154523 5.218396l18.671951 10.9459a6.346037 6.442821 0 0 0 6.34705 0l18.671954-10.9459a6.346037 6.442821 0 0 0 3.154522-5.165824 6.346037 6.442821 0 0 0-3.154522-5.218394l-18.671954-10.9459a6.346037 6.442821 0 0 0-3.024212-0.8605094z" fill="#f9a825"/>
        <path d="m32.148438 4v0.00391a6.346037 6.442821 0 0 0-0.148438 0.0039025v33.976562a6.346037 6.442821 0 0 0 3.171875-0.847656l18.671875-10.945313a6.346037 6.442821 0 0 0 3.15625-5.166015 6.346037 6.442821 0 0 0-3.15625-5.21875l-18.671875-10.945313a6.346037 6.442821 0 0 0-3.023437-0.8613281z" opacity=".07000002"/>
        <path d="m32.148438 4v0.00391a6.346037 6.442821 0 0 0-3.320313 0.855465l-18.671875 10.945313a6.346037 6.442821 0 0 0-3.15625 5.167968 6.346037 6.442821 0 0 0 0.0546875 0.476563 6.346037 6.442821 0 0 1 3.1015625-4.644531l18.671875-10.945313a6.346037 6.442821 0 0 1 3.320313-0.8554688v-0.0039062a6.346037 6.442821 0 0 1 3.023437 0.859375l18.671875 10.945313a6.346037 6.442821 0 0 1 3.101562 4.689453 6.346037 6.442821 0 0 0 0.054688-0.470703 6.346037 6.442821 0 0 0-3.15625-5.21875l-18.671875-10.945313a6.346037 6.442821 0 0 0-3.023437-0.859375z" fill="#fff" opacity=".1"/>
        <path d="m7.0117188 20.722656c-0.00415 0.07015-0.00599 0.140685-0.00781 0.210938a6.346037 6.442821 0 0 1 0.021484-0.210938h-0.013672zm-0.00977 0.267578c-2.948e-4 0.017567-0.001794 0.035166-0.0019488 0.052735v21.773437c6.51e-4 2.274279 1.210174 4.376714 3.171875 5.513672l18.65625 10.816406c1.009643 0.585416 2.045141 0.870536 3.171875 0.853516v-22.005859a6.346037 6.442821 0 0 1-3.173828-0.857422l-18.671875-10.945313a6.346037 6.442821 0 0 1-3.1523439-5.201172z" opacity=".1"/>
        <path d="m7.0546875 20.501953a6.346037 6.442821 0 0 0-0.0546875 0.470703 6.346037 6.442821 0 0 0 3.15625 5.21875l18.671875 10.945313a6.346037 6.442821 0 0 0 6.34375 0l18.671875-10.945313a6.346037 6.442821 0 0 0 3.15625-5.167968 6.346037 6.442821 0 0 0-0.054688-0.476563 6.346037 6.442821 0 0 1-3.101562 4.644531l-18.671875 10.945313a6.346037 6.442821 0 0 1-6.34375 0l-18.671875-10.945313a6.346037 6.442821 0 0 1-3.1015625-4.689453z" opacity=".1"/>
    </g>
</svg>
