<?xml version="1.0" encoding="UTF-8"?>
<!-- Created with Inkscape (http://www.inkscape.org/) -->
<svg width="64" height="64" version="1.1" viewBox="0 0 16.934 16.934" xml:space="preserve" xmlns="http://www.w3.org/2000/svg"><defs><filter id="filter1181" x="-.012" y="-.012" width="1.024" height="1.024" color-interpolation-filters="sRGB"><feGaussianBlur stdDeviation="0.14817"/></filter></defs><circle transform="matrix(.5 0 0 .5 .00024977 -.15476)" cx="16.933" cy="17.462" r="14.817" filter="url(#filter1181)" opacity=".2" stroke-width=".28956"/><circle cx="8.4668" cy="8.1795" r="7.4085" fill="#673ab7" stroke-width=".14478"/><path d="m10.98 4.3432a1.3229 1.3229 0 0 0-1.3229 1.3229 1.3229 1.3229 0 0 0 0.023515 0.24366l-2.8285 1.4415a1.3229 1.3229 0 0 0-1.0314-0.49454 1.3229 1.3229 0 0 0-1.3229 1.3229 1.3229 1.3229 0 0 0 1.3229 1.3229 1.3229 1.3229 0 0 0 1.1002-0.58935l2.7497 1.4622a1.3229 1.3229 0 0 0-0.013435 0.18552 1.3229 1.3229 0 0 0 1.3229 1.3229 1.3229 1.3229 0 0 0 1.3229-1.3229 1.3229 1.3229 0 0 0-1.3229-1.3229 1.3229 1.3229 0 0 0-0.97205 0.42582l-2.8652-1.5234a1.3229 1.3229 0 0 0-0.0026-0.053225l2.9094-1.4821a1.3229 1.3229 0 0 0 0.93045 0.38396 1.3229 1.3229 0 0 0 1.3229-1.3229 1.3229 1.3229 0 0 0-1.3229-1.3229z" fill="#fff" stroke-width=".13229"/></svg>
