<svg width="64" height="64" version="1.1" viewBox="0 0 16.933333 16.933334" xmlns="http://www.w3.org/2000/svg">
    <defs>
        <filter id="filter4602" x="-.012" y="-.012" width="1.024" height="1.024" color-interpolation-filters="sRGB">
            <feGaussianBlur stdDeviation="0.041010418"/>
        </filter>
        <filter id="filter4697" x="-.010947374" y="-.013276588" width="1.0218947" height="1.0265532" color-interpolation-filters="sRGB">
            <feGaussianBlur stdDeviation="0.06879171"/>
        </filter>
    </defs>
    <g transform="translate(0,-280.06665)">
        <path d="m1.6928457 294.61376c-0.01659-2e-3 -0.06412-0.012-0.1056124-0.022-0.341213-0.082-0.60374047-0.36057-0.65337117-0.69327-0.0083-0.0558-0.01055-0.72692-0.0084-3.9706l3e-3 -4.42377 0.02775-0.0841c0.10258327-0.31066 0.35133087-0.53038 0.67331307-0.59472 0.05958-0.0119 0.334573-0.0139 1.8921279-0.014 1.0023273-8e-5 1.8279064-4e-3 1.8346194-8e-3 0.0094-6e-3 0.01292-0.22785 0.01528-0.96727l0.0031-0.95987 0.02258-0.0764c0.09478-0.32088 0.36825-0.55567 0.706258-0.60633 0.09046-0.0135 4.6369555-0.0135 4.7274155 0 0.33802 0.0507 0.611684 0.28562 0.706211 0.60633l0.02253 0.0764 0.0032 0.9599c0.0025 0.73749 0.0059 0.96161 0.01533 0.96726 0.0066 4e-3 0.832249 8e-3 1.834576 8e-3 1.979827 1.6e-4 1.876215-3e-3 2.031088 0.0527 0.102823 0.0366 0.198169 0.0942 0.282908 0.17066 0.130341 0.11761 0.211303 0.24622 0.25645 0.40739l0.02275 0.0812v8.38526l-0.02206 0.0764c-0.09459 0.32774-0.362534 0.56337-0.707169 0.62191-0.06262 0.0107-1.220083 0.0126-6.8145225 0.0117-3.706494-6e-4 -6.7526597-3e-3 -6.7692557-5e-3zm8.7658353-10.06108c0.08015-0.0359 0.115817-0.0686 0.153065-0.14046l0.03302-0.0637v-1.10914l-0.03302-0.0638c-0.03725-0.0718-0.07292-0.10459-0.153065-0.14044l-0.05532-0.0248h-3.8724567l-0.05532 0.0248c-0.08015 0.0359-0.115816 0.0686-0.153065 0.14044l-0.03302 0.0638v1.10872l0.02606 0.0525c0.01433 0.0289 0.03772 0.0657 0.05198 0.0816 0.03221 0.0362 0.113686 0.0791 0.17064 0.0899 0.02366 5e-3 0.903012 8e-3 1.954107 7e-3l1.9110827-2e-3z" filter="url(#filter4697)" opacity=".2" stroke-width=".00980322"/>
        <g>
            <path d="m1.6928455 294.34918c-0.01659-2e-3 -0.06412-0.012-0.1056124-0.022-0.341213-0.082-0.60374051-0.36057-0.65337122-0.69327-0.0083-0.0558-0.0105499-0.72692-0.0084-3.97059l3e-3 -4.42378 0.0277498-0.0841c0.10258332-0.31067 0.35133092-0.53039 0.67331312-0.59473 0.05958-0.0119 0.334573-0.0139 1.8921279-0.014 1.0023273-8e-5 1.8279065-4e-3 1.8346195-8e-3 0.0094-6e-3 0.01292-0.22785 0.01528-0.96727l0.0031-0.95987 0.02258-0.0764c0.094779-0.32088 0.3682499-0.55567 0.7062577-0.60633 0.090459-0.0135 4.6369551-0.0135 4.7274151 0 0.338019 0.0507 0.611683 0.28562 0.70621 0.60633l0.02253 0.0764 0.0032 0.9599c0.0025 0.73749 0.0059 0.96161 0.01533 0.96726 0.0066 4e-3 0.832249 8e-3 1.834576 8e-3 1.979827 1.6e-4 1.876215-3e-3 2.031088 0.0527 0.102823 0.0366 0.198169 0.0942 0.282908 0.17065 0.130341 0.11761 0.211303 0.24622 0.25645 0.4074l0.02275 0.0812v8.38526l-0.02206 0.0764c-0.09459 0.32774-0.362534 0.56337-0.707169 0.62191-0.06262 0.0107-1.220083 0.0126-6.8145206 0.0117-3.7064946-6.1e-4 -6.7526599-3e-3 -6.7692558-5e-3zm8.7658355-10.06108c0.08015-0.0359 0.115817-0.0686 0.153065-0.14046l0.03302-0.0637v-1.10914l-0.03302-0.0638c-0.03725-0.0718-0.07292-0.1046-0.153065-0.14045l-0.05532-0.0248h-3.8724566l-0.05532 0.0248c-0.08015 0.0359-0.1158164 0.0686-0.1530651 0.14045l-0.03302 0.0638v1.10872l0.02606 0.0525c0.01433 0.0289 0.03772 0.0657 0.05198 0.0816 0.03221 0.0362 0.1136863 0.0791 0.17064 0.0899 0.02366 5e-3 0.9030118 8e-3 1.9541068 7e-3l1.9110829-2e-3z" fill="#8d6e63" stroke-width=".00980322"/>
            <circle cx="12.303124" cy="292.13907" r="4.1010418" filter="url(#filter4602)" opacity=".2"/>
            <circle cx="12.303125" cy="291.9729" r="4.1010418" fill="#2196f3"/>
        </g>
        <g transform="matrix(.293873 0 0 .293873 9.9521412 289.62191)" enable-background="new" fill="#fafafa">
            <g transform="translate(-446,-206)" fill="#fafafa">
                <path d="m456 206v6h2.5l-4.5 7-4.5-7h2.5v-6zm-8 14h12v2h-12z" fill="#fafafa"/>
            </g>
        </g>
    </g>
</svg>
