<svg width="64" height="64" version="1.1" viewBox="0 0 16.933333 16.933334" xmlns="http://www.w3.org/2000/svg" xmlns:xlink="http://www.w3.org/1999/xlink">
    <defs>
        <style id="current-color-scheme" type="text/css">.ColorScheme-Text { color:#5c616c; } .ColorScheme-Highlight { color:#5294e2; } .ColorScheme-ButtonBackground { color:#d3dae3; }</style>
        <style type="text/css">.ColorScheme-Text { color:#5c616c; } .ColorScheme-Highlight { color:#5294e2; } .ColorScheme-ButtonBackground { color:#d3dae3; }</style>
        <style type="text/css">.str0 {stroke:#4D4948;stroke-width:0.0123919}
    .str1 {stroke:#838281;stroke-width:0.229479;stroke-linecap:round}
    .fil2 {fill:none}
    .fil0 {fill:#4D4948}
    .fil1 {fill:white;fill-rule:nonzero}</style>
        <style type="text/css">.str0 {stroke:#4D4948;stroke-width:0.221746}
    .str1 {stroke:#00923F;stroke-width:0.887173}
    .str2 {stroke:#E77817;stroke-width:0.887173;stroke-linecap:round}
    .fil2 {fill:none}
    .fil0 {fill:#4D4948}
    .fil1 {fill:#B6DDC7}</style>
        <style type="text/css">.ColorScheme-Text { color:#5c616c; } .ColorScheme-Highlight { color:#5294e2; } .ColorScheme-ButtonBackground { color:#d3dae3; }</style>
        <style type="text/css">.ColorScheme-Text { color:#5c616c; } .ColorScheme-Highlight { color:#5294e2; } .ColorScheme-ButtonBackground { color:#d3dae3; }</style>
        <style type="text/css">.ColorScheme-Text { color:#5c616c; } .ColorScheme-Highlight { color:#5294e2; } .ColorScheme-ButtonBackground { color:#d3dae3; }</style>
        <style type="text/css">.str0 {stroke:#4D4948;stroke-width:0.0123919}
    .str1 {stroke:#838281;stroke-width:0.229479;stroke-linecap:round}
    .fil2 {fill:none}
    .fil0 {fill:#4D4948}
    .fil1 {fill:white;fill-rule:nonzero}</style>
        <style type="text/css">.str0 {stroke:#4D4948;stroke-width:0.221746}
    .str1 {stroke:#00923F;stroke-width:0.887173}
    .str2 {stroke:#E77817;stroke-width:0.887173;stroke-linecap:round}
    .fil2 {fill:none}
    .fil0 {fill:#4D4948}
    .fil1 {fill:#B6DDC7}</style>
        <style type="text/css">.ColorScheme-Text { color:#5c616c; } .ColorScheme-Highlight { color:#5294e2; } .ColorScheme-ButtonBackground { color:#d3dae3; }</style>
        <style type="text/css">.ColorScheme-Text { color:#5c616c; } .ColorScheme-Highlight { color:#5294e2; } .ColorScheme-ButtonBackground { color:#d3dae3; }</style>
        <style type="text/css">.ColorScheme-Text { color:#5c616c; } .ColorScheme-Highlight { color:#5294e2; } .ColorScheme-ButtonBackground { color:#d3dae3; }</style>
        <style type="text/css">.str0 {stroke:#4D4948;stroke-width:0.0123919}
    .str1 {stroke:#838281;stroke-width:0.229479;stroke-linecap:round}
    .fil2 {fill:none}
    .fil0 {fill:#4D4948}
    .fil1 {fill:white;fill-rule:nonzero}</style>
        <style type="text/css">.str0 {stroke:#4D4948;stroke-width:0.221746}
    .str1 {stroke:#00923F;stroke-width:0.887173}
    .str2 {stroke:#E77817;stroke-width:0.887173;stroke-linecap:round}
    .fil2 {fill:none}
    .fil0 {fill:#4D4948}
    .fil1 {fill:#B6DDC7}</style>
        <style type="text/css">.ColorScheme-Text { color:#5c616c; } .ColorScheme-Highlight { color:#5294e2; } .ColorScheme-ButtonBackground { color:#d3dae3; }</style>
        <linearGradient id="linearGradient5030" x1="22.06193" x2="33.436172" y1="284.30051" y2="295.67596" gradientTransform="matrix(.7443111 0 0 .7443196 -15.957308 76.195646)" gradientUnits="userSpaceOnUse">
            <stop stop-color="#fafafa" offset="0"/>
            <stop stop-color="#fafafa" stop-opacity=".75" offset="1"/>
        </linearGradient>
        <filter id="filter6359" x="-.012000068" y="-.011999932" width="1.0240001" height="1.0239999" color-interpolation-filters="sRGB">
            <feGaussianBlur stdDeviation="0.044310021"/>
        </filter>
        <filter id="filter4712" x="-.014194412" y="-.010393238" width="1.0283888" height="1.0207865" color-interpolation-filters="sRGB">
            <feGaussianBlur stdDeviation="0.068744557"/>
        </filter>
    </defs>
    <g transform="translate(0,-280.06665)">
        <g transform="translate(.0032606 -4.3333333e-5)" fill-rule="evenodd" filter="url(#filter4712)" opacity=".2" stroke-width=".06393424">
            <path d="m16.382357 281.35231-1.495934 0.94827-10.127184-1.00754 2.0599613-0.69663 9.5632833 0.7559z"/>
            <path d="m5.2371479 294.21649 9.1298091 2.25241 0.533596-14.16847-10.138053-1.00805 0.4743921 12.9243z"/>
            <path d="m14.343494 296.47086 1.500536-2.31378 0.538582-12.80539-1.496189 0.9486z"/>
        </g>
        <g fill-rule="evenodd" stroke-width=".06393289">
            <path d="m16.385126 281.0869-1.49587 0.94827-10.126756-1.00754 2.0598742-0.69663 9.5628788 0.7559z" fill="#1e88e5"/>
            <path d="m5.2403883 293.95108 9.1294227 2.25241 0.533574-14.16847-10.137624-1.00805 0.474372 12.9243z" fill="#64b5f6"/>
            <path d="m14.346349 296.20545 1.500473-2.31378 0.538559-12.80539-1.496125 0.9486z" fill="#1e88e5"/>
        </g>
        <g fill-rule="evenodd" stroke-width=".06393289">
            <path d="m5.1508842 291.49869 0.09146 2.45654 9.1255888 2.251 0.100947-2.70077-9.3180218-2.00677z" fill="#cfd8dc"/>
            <path d="m14.367511 296.20221c0.494638-0.74761 0.989277-1.49521 1.483915-2.24282 0.03293-0.83988 0.06585-1.67977 0.09878-2.51965-0.493956 0.687-0.987914 1.37399-1.48187 2.06099-0.03359 0.90049-0.06731 1.80099-0.100821 2.70148z" fill="#90a4ae"/>
            <path d="m4.7789251 281.41255 0.1072157 2.92603 9.8691782 1.20195 0.124795-3.17862-10.101061-0.94936z" fill="#cfd8dc"/>
            <path d="m14.754872 285.54053c0.497899-0.38463 0.995797-0.76925 1.493696-1.15388 0.04171-1.00686 0.08341-2.01372 0.125114-3.02058-0.498687 0.33195-0.997375 0.66389-1.496062 0.99584-0.04093 1.05949-0.08174 2.11939-0.122748 3.17862z" fill="#90a4ae"/>
        </g>
        <ellipse cx="4.69556" cy="292.30438" rx="4.4309769" ry="4.4310274" filter="url(#filter6359)" opacity=".2"/>
        <ellipse cx="4.69556" cy="292.03979" rx="4.4309769" ry="4.4310274" fill="#2196f3"/>
        <g>
            <ellipse cx="4.69556" cy="292.03979" rx="4.2340446" ry="4.2340932" fill="url(#linearGradient5030)"/>
            <ellipse cx="4.69556" cy="292.03979" rx="1.0831277" ry="1.08314" fill="#3689e6" opacity=".2"/>
            <ellipse cx="4.69556" cy="292.03979" rx=".68926311" ry=".68927097" fill="#3689e6"/>
            <ellipse cx="4.69556" cy="292.03979" rx=".49233076" ry=".49233639" fill="#fafafa"/>
        </g>
    </g>
</svg>
