<svg width="64" height="64" version="1.1" viewBox="0 0 16.933333 16.933334" xmlns="http://www.w3.org/2000/svg">
    <defs>
        <filter id="filter849" x="-.019644841" y="-.014162932" width="1.0392897" height="1.0283259" color-interpolation-filters="sRGB">
            <feGaussianBlur stdDeviation="0.06713909"/>
        </filter>
        <filter id="filter853" x="-.01964484" y="-.014162932" width="1.0392897" height="1.0283259" color-interpolation-filters="sRGB">
            <feGaussianBlur stdDeviation="0.06713909"/>
        </filter>
    </defs>
    <path d="m10.848072 2.38118a3.0427361 3.0427091 0 0 0-3.0427352 3.04271 3.0427361 3.0427091 0 0 0 1.096583 2.33836c-1.246335 1.51682-2.597459 3.55588-2.015915 4.72632 0.585713 1.17884 2.263022 1.2728 3.9465642 1.26969 1.683542-3e-3 3.373393-0.10331 3.983771-1.26969 0.577095-1.10277-0.833409-3.09767-2.163194-4.61935a3.0427361 3.0427091 0 0 0 1.237662-2.44533 3.0427361 3.0427091 0 0 0-3.042736-3.04271z" filter="url(#filter849)" opacity=".2"/>
    <path d="m5.953185 4.76243a3.0427361 3.0427091 0 0 0-3.0427356 3.04271 3.0427361 3.0427091 0 0 0 1.0965837 2.33836c-1.246335 1.51682-2.597459 3.55588-2.0159157 4.72632 0.5857137 1.17884 2.2630221 1.2728 3.9465645 1.26969 1.6835414-3e-3 3.3733931-0.10331 3.9837713-1.26969 0.5770948-1.10277-0.8334096-3.09767-2.1631943-4.61935a3.0427361 3.0427091 0 0 0 1.2376615-2.44533 3.0427361 3.0427091 0 0 0-3.0427354-3.04271z" filter="url(#filter853)" opacity=".2"/>
    <path d="m10.848072 2.1166a3.0427088 3.0427091 0 0 0-3.0427083 3.04271 3.0427088 3.0427091 0 0 0 1.0965738 2.33836c-1.2463238 1.51682-2.597436 3.55588-2.0158975 4.72632 0.5857084 1.17884 2.2630014 1.2728 3.946529 1.26969 1.683526-3e-3 3.373362-0.10331 3.983736-1.26969 0.577088-1.10277-0.833402-3.09767-2.163175-4.61935a3.0427088 3.0427091 0 0 0 1.23765-2.44533 3.0427088 3.0427091 0 0 0-3.042708-3.04271z" fill="#8bc34a"/>
    <path d="m10.848081 2.11675a3.0426973 3.0426973 0 0 0-3.0426968 3.0427 3.0426973 3.0426973 0 0 0 0.0023 0.0637 3.0426973 3.0426973 0 0 1 3.0403608-2.9977 3.0426973 3.0426973 0 0 1 3.040415 2.97901 3.0426973 3.0426973 0 0 0 0.0023-0.045 3.0426973 3.0426973 0 0 0-3.042697-3.0427z" fill="#fff" opacity=".2" stroke-width=".10866777"/>
    <path d="m5.9531847 4.49792a3.0426379 3.0426895 0 0 0-3.0426374 3.04269 3.0426379 3.0426895 0 0 0 1.0965483 2.33834c-1.2462947 1.51682-2.5973754 3.55587-2.0158506 4.7263 0.5856949 1.17883 2.262949 1.27279 3.946437 1.26968 1.6834873-3e-3 3.3732845-0.10331 3.9836437-1.26968 0.5770753-1.10277-0.8333835-3.09765-2.1631253-4.61933a3.0426379 3.0426895 0 0 0 1.2376216-2.44531 3.0426379 3.0426895 0 0 0-3.0426373-3.04269z" fill="#03a9f4"/>
    <path d="m5.9531932 4.49809a3.0426262 3.0426776 0 0 0-3.0426261 3.04268 3.0426262 3.0426776 0 0 0 0.0023 0.0637 3.0426262 3.0426776 0 0 1 3.0402902-2.99768 3.0426262 3.0426776 0 0 1 3.0403448 2.97899 3.0426262 3.0426776 0 0 0 0.0023-0.045 3.0426262 3.0426776 0 0 0-3.0426267-3.04268z" fill="#03a9f4" opacity=".2" stroke-width=".10866616"/>
    <path d="m5.9531341 4.49792a3.0426972 3.0426972 0 0 0-3.042697 3.0427 3.0426972 3.0426972 0 0 0 0.0023 0.0637 3.0426972 3.0426972 0 0 1 3.040361-2.9977 3.0426972 3.0426972 0 0 1 3.040415 2.97901 3.0426972 3.0426972 0 0 0 0.0023-0.045 3.0426972 3.0426972 0 0 0-3.042697-3.0427z" fill="#fff" opacity=".2" stroke-width=".10866777"/>
</svg>
