<?xml version="1.0" encoding="UTF-8" standalone="no"?>
<svg
   xmlns:dc="http://purl.org/dc/elements/1.1/"
   xmlns:cc="http://creativecommons.org/ns#"
   xmlns:rdf="http://www.w3.org/1999/02/22-rdf-syntax-ns#"
   xmlns:svg="http://www.w3.org/2000/svg"
   xmlns="http://www.w3.org/2000/svg"
   xmlns:sodipodi="http://sodipodi.sourceforge.net/DTD/sodipodi-0.dtd"
   xmlns:inkscape="http://www.inkscape.org/namespaces/inkscape"
   width="64"
   height="64"
   version="1"
   id="svg14"
   sodipodi:docname="tdepowersave.svg"
   inkscape:version="0.92.4 (5da689c313, 2019-01-14)">
  <metadata
     id="metadata20">
    <rdf:RDF>
      <cc:Work
         rdf:about="">
        <dc:format>image/svg+xml</dc:format>
        <dc:type
           rdf:resource="http://purl.org/dc/dcmitype/StillImage" />
        <dc:title></dc:title>
      </cc:Work>
    </rdf:RDF>
  </metadata>
  <defs
     id="defs18">
    <style
       type="text/css"
       id="current-color-scheme">
   .ColorScheme-Text { color:#5c616c; } .ColorScheme-Highlight { color:#5294e2; } .ColorScheme-ButtonBackground { color:#d3dae3; }
  </style>
    <filter
       inkscape:collect="always"
       style="color-interpolation-filters:sRGB"
       id="filter4760"
       x="-0.010615385"
       width="1.0212308"
       y="-0.0138"
       height="1.0276">
      <feGaussianBlur
         inkscape:collect="always"
         stdDeviation="0.17844827"
         id="feGaussianBlur4762" />
    </filter>
    <filter
       inkscape:collect="always"
       style="color-interpolation-filters:sRGB"
       id="filter4783"
       x="-0.0067241379"
       width="1.0134483"
       y="-0.055714285"
       height="1.1114286">
      <feGaussianBlur
         inkscape:collect="always"
         stdDeviation="0.12607759"
         id="feGaussianBlur4785" />
    </filter>
    <filter
       inkscape:collect="always"
       style="color-interpolation-filters:sRGB"
       id="filter4810"
       x="-0.016384615"
       width="1.0327692"
       y="-0.0094666667"
       height="1.0189333">
      <feGaussianBlur
         inkscape:collect="always"
         stdDeviation="0.1775"
         id="feGaussianBlur4812" />
    </filter>
  </defs>
  <sodipodi:namedview
     pagecolor="#ffffff"
     bordercolor="#666666"
     borderopacity="1"
     objecttolerance="10"
     gridtolerance="10"
     guidetolerance="10"
     inkscape:pageopacity="0"
     inkscape:pageshadow="2"
     inkscape:window-width="1362"
     inkscape:window-height="695"
     id="namedview16"
     showgrid="false"
     inkscape:zoom="2.0117188"
     inkscape:cx="42.827789"
     inkscape:cy="-11.915375"
     inkscape:window-x="0"
     inkscape:window-y="0"
     inkscape:window-maximized="1"
     inkscape:current-layer="svg14" />
  <path
     inkscape:connector-curvature="0"
     d="M 8.7999988,2 V 5.2142858 H 0.99999985 V 8.4285714 43.785715 C 0.99999985,45.566429 2.1595998,47 3.5999998,47 H 24.4 C 25.8404,47 27,45.566429 27,43.785715 V 8.4285714 5.2142858 H 19.2 V 2 Z"
     style="opacity:0.2;fill:#000000;stroke-width:2.89087224;filter:url(#filter4810)"
     id="path6763-1"
     sodipodi:nodetypes="ccccssssccccc" />
  <rect
     style="fill:#000000;stroke-width:0.7758621;opacity:0.2;filter:url(#filter4783)"
     width="5.4310346"
     height="45"
     x="-62"
     y="-63"
     rx="1.9396552"
     ry="1.9396552"
     transform="matrix(0,-1,-1,0,0,0)"
     id="rect4703-2" />
  <path
     inkscape:connector-curvature="0"
     d="M 8.799999,1 V 4.2142858 H 1 V 7.4285714 42.785715 C 1,44.566428 2.1596,46 3.6,46 H 24.4 C 25.8404,46 27,44.566428 27,42.785715 V 7.4285714 4.2142858 H 19.2 V 1 Z"
     style="opacity:1;fill:#f9ce1d;stroke-width:2.89087224"
     id="path6763"
     sodipodi:nodetypes="ccccssssccccc" />
  <path
     inkscape:connector-curvature="0"
     d="M 0.99999984,17.071428 V 42.785715 C 0.99999984,44.566428 2.1595998,46 3.5999997,46 H 24.4 C 25.8404,46 27,44.566428 27,42.785715 V 17.071428 Z"
     style="fill:#263238;stroke-width:2.89087224"
     id="path6765"
     sodipodi:nodetypes="csssscc" />
  <g
     id="layer9"
     inkscape:label="status"
     style="display:inline"
     transform="translate(-277.5494,280.26364)" />
  <g
     id="layer1"
     inkscape:label="places"
     style="display:inline"
     transform="translate(-36.549205,-336.73636)" />
  <g
     id="layer14"
     inkscape:label="mimetypes"
     style="display:inline"
     transform="translate(-277.5494,280.26364)" />
  <g
     id="layer15"
     inkscape:label="emblems"
     style="display:inline"
     transform="translate(-277.5494,280.26364)" />
  <g
     id="g71291"
     inkscape:label="emotes"
     style="display:inline"
     transform="translate(-277.5494,280.26364)" />
  <g
     id="layer2"
     inkscape:label="categories"
     style="display:inline"
     transform="translate(-36.549205,-186.73636)" />
  <g
     id="layer12"
     inkscape:label="actions"
     style="display:inline"
     transform="translate(-277.5494,280.26364)" />
  <rect
     style="fill:#1a1a1a;stroke-width:0.7758621"
     width="5.4310346"
     height="45"
     x="-61"
     y="-63"
     rx="1.9396552"
     ry="1.9396552"
     transform="matrix(0,-1,-1,0,0,0)"
     id="rect4703" />
  <rect
     style="fill:#000000;stroke-width:0.7758621;filter:url(#filter4760);opacity:0.2"
     width="40.344826"
     height="31.034483"
     x="20.327579"
     y="26.310516"
     rx="1.9396552"
     ry="1.9396552"
     id="rect4707-6" />
  <rect
     style="fill:#1a1a1a;stroke-width:0.7758621"
     width="40.344826"
     height="31.034483"
     x="20.327579"
     y="25.310345"
     rx="1.9396552"
     ry="1.9396552"
     id="rect4707" />
  <rect
     style="opacity:1;fill:#2196f3;stroke-width:0.7758621"
     width="34.137932"
     height="24.827587"
     x="23.431028"
     y="28.413794"
     id="rect4709" />
  <path
     inkscape:connector-curvature="0"
     style="opacity:0.2;fill:#808080;stroke-width:0.7758621"
     d="m 22.267236,25.310345 c -1.074569,0 -1.939655,0.865086 -1.939655,1.939655 v 0.775862 c 0,-1.074569 0.865086,-1.939655 1.939655,-1.939655 h 36.465518 c 1.070689,0 1.939655,0.865086 1.939655,1.939655 V 27.25 c 0,-1.074569 -0.868966,-1.939655 -1.939655,-1.939655 z"
     id="path4711" />
</svg>
