<svg width="64" height="64" version="1.1" viewBox="0 0 16.933333 16.933334" xmlns="http://www.w3.org/2000/svg">
    <defs>
        <filter id="filter848" x="-.014322438" y="-.010325656" width="1.0286449" height="1.0206513" color-interpolation-filters="sRGB">
            <feGaussianBlur stdDeviation="0.059193224"/>
        </filter>
    </defs>
    <g transform="translate(0,-280.06665)">
        <path d="m8.4667386 282.44791a3.6795303 3.6795305 0 0 0-3.679529 3.67954 3.6795303 3.6795305 0 0 0 1.32608 2.82776c-1.507172 1.83428-3.141064 4.30012-2.437813 5.71552 0.708294 1.42555 2.736635 1.53919 4.772514 1.53542 2.0358814-3e-3 4.0793884-0.12493 4.8175104-1.53542 0.697869-1.33358-1.007829-3.746-2.615917-5.58617a3.6795303 3.6795305 0 0 0 1.496684-2.95711 3.6795303 3.6795305 0 0 0-3.6795294-3.67954z" filter="url(#filter848)" opacity=".2"/>
        <path d="m8.4667388 282.18332a3.6795301 3.6795304 0 0 0-3.6795296 3.67954 3.6795301 3.6795304 0 0 0 1.3260804 2.82776c-1.5071721 1.83428-3.1410642 4.30012-2.4378133 5.71552 0.708294 1.42555 2.736635 1.53919 4.7725147 1.53542 2.03588-3e-3 4.079388-0.12493 4.81751-1.53542 0.697869-1.33358-1.007829-3.746-2.615917-5.58617a3.6795301 3.6795304 0 0 0 1.496684-2.95711 3.6795301 3.6795304 0 0 0-3.6795292-3.67954z" fill="#9575cd"/>
        <path d="m8.4667491 282.18353a3.679516 3.679516 0 0 0-3.679516 3.67952 3.679516 3.679516 0 0 0 0.00278 0.0771 3.679516 3.679516 0 0 1 3.676691-3.6251 3.679516 3.679516 0 0 1 3.6767559 3.6025 3.679516 3.679516 0 0 0 0.0028-0.0544 3.679516 3.679516 0 0 0-3.6795162-3.67953z" fill="#fff" opacity=".2" stroke-width=".13141131"/>
    </g>
</svg>
