<?xml version="1.0" encoding="UTF-8" standalone="no"?>
<!-- Created with Inkscape (http://www.inkscape.org/) -->

<svg
   xmlns:dc="http://purl.org/dc/elements/1.1/"
   xmlns:cc="http://creativecommons.org/ns#"
   xmlns:rdf="http://www.w3.org/1999/02/22-rdf-syntax-ns#"
   xmlns:svg="http://www.w3.org/2000/svg"
   xmlns="http://www.w3.org/2000/svg"
   xmlns:sodipodi="http://sodipodi.sourceforge.net/DTD/sodipodi-0.dtd"
   xmlns:inkscape="http://www.inkscape.org/namespaces/inkscape"
   width="64"
   height="64"
   viewBox="0 0 16.933333 16.933334"
   version="1.1"
   id="svg8"
   inkscape:version="0.92.1 r15371"
   sodipodi:docname="tdmconfig.svg"
   inkscape:export-filename="/home/john/Github/gui-art/icons_debonaire/drafts/jb/system-users.png"
   inkscape:export-xdpi="144"
   inkscape:export-ydpi="144">
  <defs
     id="defs2">
    <filter
       inkscape:collect="always"
       style="color-interpolation-filters:sRGB"
       id="filter4491"
       x="-0.014322437"
       width="1.0286449"
       y="-0.010325656"
       height="1.0206513">
      <feGaussianBlur
         inkscape:collect="always"
         stdDeviation="0.0580549"
         id="feGaussianBlur4493" />
    </filter>
  </defs>
  <sodipodi:namedview
     id="base"
     pagecolor="#ffffff"
     bordercolor="#666666"
     borderopacity="1.0"
     inkscape:pageopacity="0.0"
     inkscape:pageshadow="2"
     inkscape:zoom="8.34375"
     inkscape:cx="11.325843"
     inkscape:cy="32"
     inkscape:document-units="mm"
     inkscape:current-layer="layer1"
     showgrid="false"
     units="px"
     inkscape:window-width="1362"
     inkscape:window-height="695"
     inkscape:window-x="0"
     inkscape:window-y="0"
     inkscape:window-maximized="1" />
  <metadata
     id="metadata5">
    <rdf:RDF>
      <cc:Work
         rdf:about="">
        <dc:format>image/svg+xml</dc:format>
        <dc:type
           rdf:resource="http://purl.org/dc/dcmitype/StillImage" />
        <dc:title />
      </cc:Work>
    </rdf:RDF>
  </metadata>
  <g
     inkscape:label="Layer 1"
     inkscape:groupmode="layer"
     id="layer1"
     transform="translate(0,-280.06665)">
    <path
       inkscape:connector-curvature="0"
       style="opacity:0.2;fill:#000000;stroke:none;stroke-width:0.09689156px;stroke-linecap:butt;stroke-linejoin:miter;stroke-opacity:1;filter:url(#filter4491)"
       d="m 8.4667373,282.05103 a 3.6087705,3.6087707 0 0 0 -3.6087697,3.60878 3.6087705,3.6087707 0 0 0 1.3005789,2.77338 c -1.4781881,1.799 -3.0806597,4.21742 -2.3909324,5.60561 0.6946726,1.39814 2.6840072,1.50958 4.680736,1.50589 1.9967279,-0.003 4.0009399,-0.12252 4.7248659,-1.50589 0.68445,-1.30793 -0.988448,-3.67396 -2.56561,-5.47874 a 3.6087705,3.6087707 0 0 0 1.467902,-2.90025 3.6087705,3.6087707 0 0 0 -3.6087707,-3.60878 z"
       id="path5217-2-7" />
    <path
       inkscape:connector-curvature="0"
       style="fill:#9575cd;stroke:none;stroke-width:0.09689157px;stroke-linecap:butt;stroke-linejoin:miter;stroke-opacity:1;fill-opacity:1"
       d="m 8.4667374,281.78644 a 3.6087711,3.6087714 0 0 0 -3.6087706,3.60878 3.6087711,3.6087714 0 0 0 1.3005793,2.77338 c -1.4781885,1.79901 -3.0806601,4.21743 -2.3909331,5.60561 0.6946732,1.39814 2.6840083,1.50959 4.6807372,1.5059 1.9967288,-0.003 4.0009398,-0.12253 4.7248668,-1.5059 0.684449,-1.30793 -0.988448,-3.67396 -2.565611,-5.47874 a 3.6087711,3.6087714 0 0 0 1.467902,-2.90025 3.6087711,3.6087714 0 0 0 -3.6087706,-3.60878 z"
       id="path5217-2" />
    <path
       inkscape:connector-curvature="0"
       style="opacity:0.2;fill:#ffffff;stroke-width:0.12888421"
       d="m 8.4667475,281.78665 a 3.6087573,3.6087573 0 0 0 -3.6087572,3.60876 3.6087573,3.6087573 0 0 0 0.00273,0.0756 3.6087573,3.6087573 0 0 1 3.6059866,-3.55539 3.6087573,3.6087573 0 0 1 3.6060511,3.53322 3.6087573,3.6087573 0 0 0 0.0027,-0.0534 3.6087573,3.6087573 0 0 0 -3.6087582,-3.60877 z"
       id="path5512-7" />
  </g>
</svg>
