<?xml version="1.0" encoding="UTF-8" standalone="no"?>
<!-- Created with Inkscape (http://www.inkscape.org/) -->

<svg
   xmlns:dc="http://purl.org/dc/elements/1.1/"
   xmlns:cc="http://creativecommons.org/ns#"
   xmlns:rdf="http://www.w3.org/1999/02/22-rdf-syntax-ns#"
   xmlns:svg="http://www.w3.org/2000/svg"
   xmlns="http://www.w3.org/2000/svg"
   xmlns:sodipodi="http://sodipodi.sourceforge.net/DTD/sodipodi-0.dtd"
   xmlns:inkscape="http://www.inkscape.org/namespaces/inkscape"
   width="64"
   height="64"
   viewBox="0 0 16.933333 16.933334"
   version="1.1"
   id="svg1214"
   inkscape:version="0.92.4 (5da689c313, 2019-01-14)"
   sodipodi:docname="folder-temp.svg">
  <defs
     id="defs1208">
    <filter
       color-interpolation-filters="sRGB"
       id="filter7554">
      <feBlend
         mode="darken"
         in2="BackgroundImage"
         id="feBlend7556" />
    </filter>
  </defs>
  <sodipodi:namedview
     id="base"
     pagecolor="#ffffff"
     bordercolor="#666666"
     borderopacity="1.0"
     inkscape:pageopacity="0.0"
     inkscape:pageshadow="2"
     inkscape:zoom="8.046875"
     inkscape:cx="32"
     inkscape:cy="32"
     inkscape:document-units="mm"
     inkscape:current-layer="layer1"
     showgrid="false"
     units="px"
     inkscape:window-width="1362"
     inkscape:window-height="695"
     inkscape:window-x="0"
     inkscape:window-y="0"
     inkscape:window-maximized="1" />
  <metadata
     id="metadata1211">
    <rdf:RDF>
      <cc:Work
         rdf:about="">
        <dc:format>image/svg+xml</dc:format>
        <dc:type
           rdf:resource="http://purl.org/dc/dcmitype/StillImage" />
        <dc:title></dc:title>
      </cc:Work>
    </rdf:RDF>
  </metadata>
  <g
     inkscape:label="Layer 1"
     inkscape:groupmode="layer"
     id="layer1"
     transform="translate(0,-280.06665)">
    <path
       style="display:inline;opacity:0.1;fill:#000000;fill-opacity:1;stroke:none;stroke-width:0.36380208;enable-background:new"
       d="m 15.629855,294.19197 v -9.45884 c 0,-1.07949 -1.091406,-1.09141 -1.091406,-1.09141 H 9.0806064 l -1.4552079,1.45521 h -5.45622 c -1.0914062,0 -1.0914062,1.0914 -1.0914062,1.0914 v 8.00364 c 0,0 0,1.09141 1.0914062,1.09141 H 14.538449 c 1.091406,0 1.091406,-1.09141 1.091406,-1.09141 z"
       id="path5213"
       inkscape:connector-curvature="0"
       sodipodi:nodetypes="csccccccssc" />
    <path
       style="display:inline;fill:#78909c;fill-opacity:1;stroke:none;stroke-width:0.36380208;enable-background:new"
       d="m 1.0777723,292.37297 v -9.45886 c 0,-1.07947 1.0914062,-1.0914 1.0914062,-1.0914 H 7.627021 l 1.4552079,1.4552 h 4.7286151 c 1.091408,0 1.091408,1.09141 1.091408,1.09141 v 8.00365 c 0,0 0,1.09141 -1.091408,1.09141 H 2.1691785 c -1.0914062,0 -1.0914062,-1.09141 -1.0914062,-1.09141 z"
       id="path4821"
       inkscape:connector-curvature="0"
       sodipodi:nodetypes="csccccccssc" />
    <path
       sodipodi:nodetypes="csccccccssc"
       inkscape:connector-curvature="0"
       id="path4445"
       d="m 15.629855,293.82818 v -9.45886 c 0,-1.07947 -1.091406,-1.09141 -1.091406,-1.09141 H 9.0806064 l -1.4552079,1.45522 h -5.45622 c -1.0914062,0 -1.0914062,1.09141 -1.0914062,1.09141 v 8.00364 c 0,0 0,1.0914 1.0914062,1.0914 H 14.538449 c 1.091406,0 1.091406,-1.0914 1.091406,-1.0914 z"
       style="display:inline;fill:#90a4ae;fill-opacity:1;stroke:none;stroke-width:0.36380208;enable-background:new" />
    <path
       inkscape:connector-curvature="0"
       id="path5208"
       d="m 9.0807081,283.27791 -1.4552079,1.45522 H 2.1691785 c -1.0914062,0 -1.0914062,1.0914 -1.0914062,1.0914 v 0.3638 c 0,0 0,-1.0914 1.0914062,-1.0914 h 5.4563217 l 1.4552079,-1.45521 h 5.4577409 c 0,0 1.091406,0.0124 1.091406,1.09141 v -0.36381 c 0,-1.07947 -1.091406,-1.09141 -1.091406,-1.09141 z"
       style="display:inline;opacity:0.1;fill:#ffffff;fill-opacity:1;stroke:none;stroke-width:0.36380208;enable-background:new" />
    <g
       style="fill:#ffffff;enable-background:new"
       id="g2261"
       transform="matrix(0.35277777,0,0,0.35277777,9.0823377,287.64784)">
      <path
         id="path4528"
         d="m 3.0047778,1.01 c -0.554003,0 -0.999987,0.4459842 -0.999987,0.9999874 v 8.9999996 h 0.999987 V 10.01 h 1.000025 V 3.0099748 h 4.999975 v 3.0000001 h 3.0000002 v 8.0000131 0.999987 h 1.000026 v -0.999987 h 0.999987 V 5.0099874 L 10.004803,1.01 Z M 13.004804,15.009975 V 16.01 h 0.999987 v -1.000025 z m -1.000026,0 H 11.004791 V 16.01 h 0.999987 z m -0.999987,0 v -0.999987 h -0.999988 v 0.999987 z m -0.999988,0 H 9.0047778 V 16.01 h 1.0000252 z m -1.0000252,0 v -0.999987 h -0.999987 v 0.999987 z m -0.999987,0 H 7.0048028 V 16.01 h 0.999988 z m -0.999988,0 v -0.999987 h -1.000025 v 0.999987 z m -1.000025,0 H 5.0047908 V 16.01 h 0.999987 z m -0.999987,0 v -0.999987 h -0.999988 v 0.999987 z m -0.999988,0 H 3.0047778 V 16.01 h 1.000025 z m -1.000025,0 v -0.999987 h -0.999987 v 0.999987 z m 0,-0.999987 h 1.000025 V 13.01 h -1.000025 z m 0,-0.999988 V 12.009975 H 2.0047908 V 13.01 Z m 0,-1.000025 h 1.000025 v -0.999988 h -1.000025 z"
         style="opacity:1;fill:#ffffff;fill-opacity:1;stroke-width:0.99999994"
         inkscape:connector-curvature="0" />
    </g>
  </g>
</svg>
