<svg width="64" height="64" version="1.1" viewBox="0 0 16.933333 16.933334" xmlns="http://www.w3.org/2000/svg">
    <g transform="translate(0,-280.06665)">
        <g>
            <path d="m15.629855 294.19197v-9.45884c0-1.07949-1.091406-1.09141-1.091406-1.09141h-5.4578426l-1.4552079 1.45521h-5.45622c-1.0914062 0-1.0914062 1.0914-1.0914062 1.0914v8.00364s0 1.09141 1.0914062 1.09141h12.36927c1.091406 0 1.091406-1.09141 1.091406-1.09141z" enable-background="new" opacity=".1"/>
            <path d="m1.0777723 292.37297v-9.45886c0-1.07947 1.0914062-1.0914 1.0914062-1.0914h5.4578425l1.4552079 1.4552h4.7286151c1.091408 0 1.091408 1.09141 1.091408 1.09141v8.00365s0 1.09141-1.091408 1.09141h-11.641666c-1.0914062 0-1.0914062-1.09141-1.0914062-1.09141z" enable-background="new" fill="#78909c"/>
            <path d="m15.629855 293.82818v-9.45886c0-1.07947-1.091406-1.09141-1.091406-1.09141h-5.4578426l-1.4552079 1.45522h-5.45622c-1.0914062 0-1.0914062 1.09141-1.0914062 1.09141v8.00364s0 1.0914 1.0914062 1.0914h12.36927c1.091406 0 1.091406-1.0914 1.091406-1.0914z" enable-background="new" fill="#90a4ae"/>
            <path d="m9.0807081 283.27791-1.4552079 1.45522h-5.4563217c-1.0914062 0-1.0914062 1.0914-1.0914062 1.0914v0.3638s0-1.0914 1.0914062-1.0914h5.4563217l1.4552079-1.45521h5.4577409s1.091406 0.0124 1.091406 1.09141v-0.36381c0-1.07947-1.091406-1.09141-1.091406-1.09141z" enable-background="new" fill="#fff" opacity=".1"/>
        </g>
        <g transform="matrix(.35277777 0 0 .35277777 9.0823377 287.64784)" enable-background="new" fill="#fff">
            <path d="m3.0047778 1.01c-0.554003 0-0.999987 0.4459842-0.999987 0.9999874v8.9999996h0.999987v-0.999987h1.000025v-7.0000252h4.999975v3.0000001h3.0000002v9.0000001h1.000026v-0.999987h0.999987v-9.0000006l-3.999988-3.9999874zm10.000026 13.999975v1.000025h0.999987v-1.000025zm-1.000026 0h-0.999987v1.000025h0.999987zm-0.999987 0v-0.999987h-0.999988v0.999987zm-0.999988 0h-1.0000252v1.000025h1.0000252zm-1.0000252 0v-0.999987h-0.999987v0.999987zm-0.999987 0h-0.999988v1.000025h0.999988zm-0.999988 0v-0.999987h-1.000025v0.999987zm-1.000025 0h-0.999987v1.000025h0.999987zm-0.999987 0v-0.999987h-0.999988v0.999987zm-0.999988 0h-1.000025v1.000025h1.000025zm-1.000025 0v-0.999987h-0.999987v0.999987zm0-0.999987h1.000025v-0.999988h-1.000025zm0-0.999988v-1.000025h-0.999987v1.000025zm0-1.000025h1.000025v-0.999988h-1.000025z" fill="#fff" stroke-width=".99999994"/>
        </g>
    </g>
</svg>
