<svg width="31.999998" height="31.999998" version="1.1" viewBox="0 0 8.4666662 8.4666662" xmlns="http://www.w3.org/2000/svg">
    <g transform="translate(0,-288.53333)">
        <g>
            <path d="m7.8149283 295.59599v-4.72943c0-0.53973-0.545702-0.54569-0.545702-0.54569h-2.7289222l-0.727604 0.7276h-2.7281106c-0.54570327 0-0.54570327 0.54569-0.54570327 0.54569v4.00183s0 0.54571 0.54570327 0.54571h6.1846368c0.545702 0 0.545702-0.54571 0.545702-0.54571z" enable-background="new" opacity=".1"/>
            <path d="m0.53888625 294.68648v-4.72942c0-0.53974 0.54570325-0.5457 0.54570325-0.5457h2.7289218l0.727604 0.7276h2.3643081c0.545704 0 0.545704 0.54571 0.545704 0.54571v4.00181s0 0.54571-0.545704 0.54571h-5.8208339c-0.54570325 0-0.54570325-0.54571-0.54570325-0.54571z" enable-background="new" fill="#78909c"/>
            <path d="m7.8149288 295.4141v-4.72943c0-0.53975-0.5457027-0.54571-0.5457027-0.54571h-2.728922l-0.727604 0.7276h-2.7281106c-0.54570325 0-0.54570325 0.54571-0.54570325 0.54571v4.00183s0 0.54569 0.54570325 0.54569h6.1846366c0.5457027 0 0.5457027-0.54569 0.5457027-0.54569z" enable-background="new" fill="#90a4ae"/>
            <path d="m4.5403549 290.13896-0.7276041 0.7276h-2.7281613c-0.54570325 0-0.54570325 0.54571-0.54570325 0.54571v0.18189s0-0.54569 0.54570325-0.54569h2.7281613l0.7276041-0.7276h2.7288712s0.5457027 7e-3 0.5457027 0.54569v-0.18189c0-0.53975-0.5457027-0.54571-0.5457027-0.54571z" enable-background="new" fill="#fff" opacity=".1"/>
        </g>
        <g transform="matrix(.17638892 0 0 .17638892 4.5411696 292.32392)" enable-background="new" fill="#fff">
            <path d="m3.0047778 1.01c-0.554003 0-0.999987 0.4459842-0.999987 0.9999874v8.9999996h0.999987v-0.999987h1.000025v-7.0000252h4.999975v3.0000001h3.0000002v9.0000001h1.000026v-0.999987h0.999987v-9.0000006l-3.999988-3.9999874zm10.000026 13.999975v1.000025h0.999987v-1.000025zm-1.000026 0h-0.999987v1.000025h0.999987zm-0.999987 0v-0.999987h-0.999988v0.999987zm-0.999988 0h-1.0000252v1.000025h1.0000252zm-1.0000252 0v-0.999987h-0.999987v0.999987zm-0.999987 0h-0.999988v1.000025h0.999988zm-0.999988 0v-0.999987h-1.000025v0.999987zm-1.000025 0h-0.999987v1.000025h0.999987zm-0.999987 0v-0.999987h-0.999988v0.999987zm-0.999988 0h-1.000025v1.000025h1.000025zm-1.000025 0v-0.999987h-0.999987v0.999987zm0-0.999987h1.000025v-0.999988h-1.000025zm0-0.999988v-1.000025h-0.999987v1.000025zm0-1.000025h1.000025v-0.999988h-1.000025z" fill="#fff" stroke-width=".99999994"/>
        </g>
    </g>
</svg>
