<svg version="1" viewBox="0 0 22 22" xmlns="http://www.w3.org/2000/svg">
    <path d="m15.764142 2.0000897c-1.13656 0-2.150199 0.4684111-2.904864 1.0986276-0.08619-0.0693744-0.144103-0.1560417-0.242884-0.2158193-0.568739-0.3441723-1.266525-0.431248-1.826026-0.3525374-0.782191 0.1100789-1.420004 0.606554-1.8982076 1.1611274-0.3487494-0.1272818-0.7120997-0.2135783-1.0788375-0.1777336-0.2875261 0.0280949-0.5525399 0.0970898-0.7930337 0.1884757-0.8836574 0.3357993-1.6231249 1.185576-1.8738217 2.0224515-0.2322094 0.0712802-0.4999412 0.0703577-0.6935383 0.1845692-0.796471 0.4701528-1.4259142 1.5037199-1.4514564 2.3954967-0.025542 0.8917768 0.3024443 1.5349773 0.6584226 2.0419825 0.2291783 0.326409 0.549865 0.541214 0.8466831 0.7832-0.1582723 0.347212-0.3078476 0.702336-0.3921272 1.097651-0.4683716 2.197015 0.422413 4.255977 1.7479898 5.865207 1.3257763 1.609471 3.2503099 2.907212 5.5765949 2.907212 2.516093 0 4.643358-1.684743 5.377648-4.139603 0.289886-0.758517 0.11813-1.634438-0.01139-2.359134-0.354421-1.968937-0.915092-3.923288 1.514505-7.2805184 0.439015-0.7915723 0.877215-1.6719906 0.586239-2.9589703-0.145489-0.6434663-0.610814-1.362449-1.233934-1.7577808-0.62312-0.3953317-1.285226-0.5039038-1.907962-0.5039038z" fill="#40c4ff"/>
    <path d="m15.77858 3.0000822c-2.96175 0-3.516769 4.4999789-1.85062 4.4999789 1.665909 0 4.81249-4.4999789 1.85062-4.4999789zm-4.701258 0.5107396c-1.694046 0.2381329-1.098315 3.4286329-0.196292 3.4882652 0.901655 0.0596332 1.890951-3.7263974 0.196292-3.4882652zm-3.0645085 0.9931594c-0.0865256 0.0084449-0.1792252 0.0307448-0.2783252 0.0683592-1.585892 0.6019666-0.2409564 3.086917 0.6474725 2.9199082 0.8335722-0.1563252 0.9287422-3.1149773-0.3691473-2.9882674zm-2.0849987 1.9960846c-0.1415958-0.00405-0.2949831 0.0357648-0.4580163 0.1318354-1.3036764 0.7686734 0.4390619 2.6258668 1.2060763 2.3378795 0.6711388-0.2520978 0.2431113-2.44125-0.74806-2.4697149zm6.0811652 1.5009694c-2.333948-0.0413083-5.4125553 1.1835948-5.9376079 3.6435378-0.5686513 2.662083 2.3413095 6.355439 5.3770499 6.355439 1.493428 0 3.215878-1.411061 3.538151-3.198227 0.246134-1.362814-3.096378-0.816805-2.983453 0.08496 0.09221 0.736709-0.293318 1.119838-0.82521 1.131831-0.726189-0.088-1.082219-0.507212-1.177756-1.14062-0.130052-1.663271 5.108334-2.848655 4.693445-5.427709-0.151746-0.9432861-1.284251-1.4244264-2.684619-1.4492118z" fill="#fff"/>
</svg>
