<svg version="1" viewBox="0 0 22 22" xmlns="http://www.w3.org/2000/svg">
    <path d="m2.00391 6.972575c-0.00226 0.038045-0.00357 0.076145-0.00391 0.1142575v7.7764495c2.343e-4 0.812245 0.4353891 1.562691 1.1416015 1.968749l6.7168022 3.863281c0.7064063 0.406342 1.5767973 0.406342 2.2832033 0l6.716795-3.863281c0.706516-0.406233 1.141718-1.157131 1.141602-1.969725v-7.7754735c-0.0011-0.028675-0.0027-0.057325-0.0049-0.085938 0.0049-8.94e-4 -17.991194-0.02832-17.991194-0.02832z" fill="#fbc02d"/>
    <path d="m10.946293 1.0000005c-0.02096 4.827e-4 -0.0416 0.00383-0.0625 0.00488a2.2845733 2.27395 0 0 1 0.116211-0.00293v-0.00195zm-0.210937 0.017578c-0.03592 0.00416-0.0718 0.00783-0.107422 0.013672a2.2845733 2.27395 0 0 1 0.107422-0.013672zm-0.59668 0.1503906c-0.03188 0.012907-0.06244 0.028618-0.09375 0.042969a2.2845733 2.27395 0 0 1 0.09375-0.042969zm-7.2177738 4.1416019c-0.023458 0.01732-0.045664 0.035575-0.068359 0.05371a2.2845733 2.27395 0 0 1 0.068359-0.05371zm-0.2041016 0.1708985c-0.021575 0.020225-0.042755 0.040525-0.063477 0.061523a2.2845733 2.27395 0 0 1 0.063477-0.061523zm-0.1914063 0.203125c-0.013618 0.01633-0.027874 0.032135-0.041016 0.04883a2.2845733 2.27395 0 0 1 0.041016-0.04883zm-0.3183593 0.499023c-0.00566 0.0122-0.010184 0.024805-0.015625 0.03711a2.2845733 2.27395 0 0 1 0.015625-0.03711zm-0.094727 0.2421875c-0.00706 0.021365-0.013101 0.04285-0.019532 0.064454a2.2845733 2.27395 0 0 1 0.019532-0.064454zm-0.072266 0.275391c-0.00255 0.01305-0.00549 0.025945-0.00781 0.039065a2.2845733 2.27395 0 0 1 0.00781-0.039065zm-0.039062 0.2998045c-1.764e-4 0.00295-8.099e-4 0.00582-9.749e-4 0.00879 9.5e-4 0.00912 0.00188 0.018235 0.00293 0.027345-0.00105 0.016925-0.00228 0.033835-0.00293 0.050781v7.7753915c-1.16e-4 0.812594 0.4350855 1.563492 1.1416015 1.969726l6.7167959 3.863278c0.3508975 0.201845 0.7499765 0.303388 1.1416015 0.304688v-8.001952a2.2845733 2.27395 0 0 1-1.1425783-0.302734l-6.7216798-3.8632825a2.2845733 2.27395 0 0 1-1.1347657-1.832031z" opacity=".1"/>
    <path d="m11.053756 1.0000005v9.75e-4a2.2845733 2.27395 0 0 0-1.1962223 0.302736l-6.7219019 3.863281a2.2845733 2.27395 0 0 0-1.1356281 1.8232425 2.2845733 2.27395 0 0 0 1.1356281 1.8417965l6.7219019 3.8632825a2.2845733 2.27395 0 0 0 2.2849393 0l6.721903-3.8632825a2.2845733 2.27395 0 0 0 1.135628-1.823242 2.2845733 2.27395 0 0 0-1.135628-1.841797l-6.721903-3.863281a2.2845733 2.27395 0 0 0-1.088717-0.303711z" fill="#f9a825"/>
    <path d="m11.000004 1.0000005v11.989258a2.2845733 2.27395 0 0 0 1.142578-0.302734l6.72168-3.8632825a2.2845733 2.27395 0 0 0 1.134765-1.818359c-0.0053-0.092979-0.01678-0.184998-0.03321-0.275391a2.2845733 2.27395 0 0 0 0-0.0039c-4.88e-4 -0.00265-0.0014-0.00516-0.0019-0.00781-0.01639-0.087515-0.03717-0.1735465-0.06348-0.2578125a2.2845733 2.27395 0 0 0-2e-3 -0.00781c-9.5e-4 -0.00305-0.0029-0.00572-0.0039-0.00879-0.170532-0.531648-0.53348-0.98986-1.030273-1.2763675l-6.721682-3.863291c-0.331651-0.1904598-0.706076-0.294896-1.088867-0.303711z" opacity=".07000002"/>
</svg>
