<svg width="22" height="22" version="1.1" viewBox="0 0 22 22" xmlns="http://www.w3.org/2000/svg">
 <path d="m11 1a10 10 0 0 0-10 10 10 10 0 0 0 10 10 10 10 0 0 0 10-10 10 10 0 0 0-10-10z" fill="#48aeff"/>
 <g transform="matrix(.5 0 0 .5 -1 -2)" fill="#fff">
  <rect x="16" y="18" width="4" height="18" ry="2"/>
  <path d="m17.929 16.001a1.3306 0.9903 0 0 0-1.0807 0.49376l-4.6694 6.0191a1.3306 0.9903 0 0 0 1.1522 1.4857h9.3388a1.3306 0.9903 0 0 0 1.1522-1.4857l-4.6694-6.0191a1.3306 0.9903 0 0 0-1.2236-0.49376z"/>
 </g>
 <g transform="matrix(.5 0 0 -.5 5 24)" fill="#fff">
  <rect x="16" y="18" width="4" height="18" ry="2"/>
  <path d="m17.929 16.001a1.3306 0.9903 0 0 0-1.0807 0.49376l-4.6694 6.0191a1.3306 0.9903 0 0 0 1.1522 1.4857h9.3388a1.3306 0.9903 0 0 0 1.1522-1.4857l-4.6694-6.0191a1.3306 0.9903 0 0 0-1.2236-0.49376z"/>
 </g>
</svg>
