<svg width="22" height="22" version="1" xmlns="http://www.w3.org/2000/svg">
 <path d="m19 20v-18c0-0.554-0.446-1-1-1h-14c-0.554 0-1 0.446-1 1v18c0 0.554 0.446 1 1 1h14c0.554 0 1-0.446 1-1z" fill="#c46c6c"/>
 <path d="m5.1115 2v0.5h1.4998v-0.5h-1.5zm2 0v0.5h1.5v-0.5zm2 0v0.5h1.3885v-0.5zm1.8885 0v0.5h1.25v-0.5zm1.75 0v0.5h1.5v-0.5zm2 0v0.5h1.5v-0.5zm2 0v0.5h0.48438l0.16699 0.015625 0.1416 0.044922 0.12696 0.069335 0.11035 0.089845 0.09082 0.11035 0.01563 0.019531 0.09961-0.08203 0.32422-0.17578-0.011-0.0204-0.012-0.0215-0.016-0.0185-0.122-0.1485-0.014-0.0185-0.019-0.0147-0.148-0.1221-0.019-0.0156-0.021-0.0117-0.17-0.0918-0.022-0.0117-0.023-0.0069-0.189-0.0586-0.0235-0.00685-0.0255-0.0029-0.201-0.0205-0.013-1e-3h-0.5125zm-12.163 0.0146-0.0635 0.0069-0.0254 0.0029-0.0234 0.0069-0.1885 0.0585-0.0234 0.0069-0.0215 0.0117-0.1699 0.0918-0.0215 0.0117-0.018555 0.015625-0.1482 0.122-0.01855 0.01465-0.01465 0.01855-0.09665 0.1172h0.88255l-0.0485-0.48535zm13.905 1.1416-0.498 0.0498 6e-3 0.05955v1.415h0.5v-1.4432l-1e-3 -0.0127-7e-3 -0.06835zm-0.492 2.0242v1.5h0.5v-1.5zm0 2v1.5h0.5v-1.5zm0 2v1.5h0.5v-1.5zm0 2v1.5h0.5v-1.5zm0 2v1.5h0.5v-1.5zm0 2v1.5h0.5v-1.5zm0 2v1.5h0.5v-1.5zm0 2v0.05371l-0.01563 0.16699-0.04492 0.1416-0.06933 0.12696-0.08985 0.11035-0.11035 0.08985-0.12696 0.06933-0.14062 0.04395-0.03907 0.0039 0.0498 0.49804 0.06348-0.0068 0.02539-3e-3 0.02343-0.0068 0.18848-0.0586 0.02343-0.0068 0.02149-0.01172 0.16992-0.0918 0.02149-0.01172 0.01855-0.01563 0.14844-0.12207 0.01855-0.01465 0.01465-0.01855 0.12207-0.14844 0.01563-0.01855 0.01172-0.02149 0.09179-0.16992 0.01172-0.02149 0.0068-0.02343 0.05859-0.18848 0.0068-0.02343 0.0029-0.02539 0.02051-0.20117 1e-3 -0.013v-0.08184h-0.5zm-14.247 0.8195 0.09668 0.11719 0.014648 0.01856 0.018554 0.01465 0.14844 0.12207 0.018555 0.01563 0.021485 0.01172 0.16992 0.0918 0.021485 0.01172 0.023435 0.0068 0.18848 0.0586 0.023435 0.0068 0.02539 3e-3 0.20117 0.02051 0.012695 1e-3h0.5127v-0.5h-1.4971zm1.997 0v0.5h1.5v-0.5zm2 0v0.5h1.5v-0.5zm2 0v0.5h1.25v-0.5zm1.75 0v0.5h1.3886v-0.5h-1.3885zm1.8886 0v0.5h1.5v-0.5zm2 0v0.5h1.5v-0.5z" fill="#fff"/>
 <path d="m16 8h4v6h-4c-0.554 0-1-0.446-1-1v-4c0-0.554 0.446-1 1-1z" fill="#9b3e3e"/>
 <path d="m19 11a1 1 0 0 1-1 1 1 1 0 0 1-1-1 1 1 0 0 1 1-1 1 1 0 0 1 1 1z" fill="#fff" stroke-width=".5"/>
 <path d="m16.63 8.789v0.10548l-0.01185-0.10465-0.04373 0.00415 0.02459 0.2093 0.03099-0.0033h0.46641v-0.21096h-0.46641zm0.69962 0v0.21095h0.46642v-0.21095zm0.69962 0v0.21095h0.46641v-0.21095zm0.69962 0v0.21095h0.46641v-0.21095zm0.69962 0v0.21095h0.30336v-0.21095zm-3.1037 0.054388-0.02094 0.00577-0.01184 0.0033-0.01 0.00495-0.12662 0.065099-0.01 0.00495-0.0091 0.00659-0.11022 0.085696-8e-3 0.0066-0.0073 0.0082-0.0911 0.10382-0.0065 0.0082-0.0056 9e-3 -0.0026 5e-3 0.133 0.06263 0.06467 0.04615 0.08563-0.09724 0.09019-0.07087 0.1075-0.05438 0.01-0.0033-9.33e-4 -0.0016 0.0021-8.44e-4 -0.0045-0.0066-0.0674-0.19117zm-0.52015 0.52902-0.01733 0.05355-0.0035 0.0091-9.33e-4 0.01071-0.01457 0.14174-9.33e-4 5e-3v0.22908h0.23321v-0.22415l0.01366-0.12278 0.01366-0.04202-0.22319-0.06015zm-0.03736 0.66007v0.4219h0.23321v-0.4219zm0 0.63285v0.4219h0.23321v-0.4219zm0 0.63285v0.4219h0.23321v-0.4219zm0 0.63285v0.4219h0.23321v-0.4219zm0.24687 0.60155-0.22319 0.06015 0.03917 0.12196 0.0035 0.0099 0.0056 0.0083 0.06832 0.11948 0.0056 0.0091 0.0065 0.0083 0.0911 0.10382 0.0073 0.0083 8e-3 0.0066 0.02276 0.01731 0.15212-0.15987-0.01275-0.0099-0.07834-0.089-0.05921-0.103-0.03647-0.11125zm0.35801 0.4219-0.11387 0.18376 0.0237 0.01237 0.01 5e-3 0.01185 0.0032 0.13938 0.04121 0.01184 0.0032 0.01185 8.44e-4 0.15122 0.01399 0.0065 8.45e-4h0.14576v-0.21091h-0.1403l-0.12845-0.01318-0.11752-0.03461-0.01184-0.0059zm0.63129 0.05356v0.21095h0.46641v-0.21095zm0.69962 0v0.21095h0.46642v-0.21095zm0.69962 0v0.21095h0.46641v-0.21095zm0.69962 0v0.21095h0.46642v-0.21095z" fill="#fff"/>
</svg>
