<?xml version="1.0" encoding="UTF-8" standalone="no"?>
<svg
   xmlns:dc="http://purl.org/dc/elements/1.1/"
   xmlns:cc="http://creativecommons.org/ns#"
   xmlns:rdf="http://www.w3.org/1999/02/22-rdf-syntax-ns#"
   xmlns:svg="http://www.w3.org/2000/svg"
   xmlns="http://www.w3.org/2000/svg"
   xmlns:sodipodi="http://sodipodi.sourceforge.net/DTD/sodipodi-0.dtd"
   xmlns:inkscape="http://www.inkscape.org/namespaces/inkscape"
   width="48"
   height="48"
   viewBox="0 0 48 48"
   version="1.1"
   id="svg7"
   sodipodi:docname="amarok_random_track.svg"
   inkscape:version="0.92.4 (5da689c313, 2019-01-14)">
  <metadata
     id="metadata11">
    <rdf:RDF>
      <cc:Work
         rdf:about="">
        <dc:format>image/svg+xml</dc:format>
        <dc:type
           rdf:resource="http://purl.org/dc/dcmitype/StillImage" />
        <dc:title></dc:title>
      </cc:Work>
    </rdf:RDF>
  </metadata>
  <sodipodi:namedview
     pagecolor="#ffffff"
     bordercolor="#666666"
     borderopacity="1"
     objecttolerance="10"
     gridtolerance="10"
     guidetolerance="10"
     inkscape:pageopacity="0"
     inkscape:pageshadow="2"
     inkscape:window-width="1362"
     inkscape:window-height="695"
     id="namedview9"
     showgrid="true"
     inkscape:zoom="9.8333333"
     inkscape:cx="-4.7708306"
     inkscape:cy="24.354396"
     inkscape:window-x="0"
     inkscape:window-y="0"
     inkscape:window-maximized="1"
     inkscape:current-layer="svg7">
    <inkscape:grid
       type="xygrid"
       id="grid869" />
  </sodipodi:namedview>
  <defs
     id="defs3">
    <style
       type="text/css"
       id="current-color-scheme">
   .ColorScheme-Text { color:#5c616c; } .ColorScheme-Highlight { color:#5294e2; } .ColorScheme-ButtonBackground { color:#d3dae3; }
  </style>
  </defs>
  <g
     style="enable-background:new;fill:#555555;fill-opacity:1"
     id="g835"
     transform="translate(3.4998509e-7,-0.9999944)">
    <g
       transform="translate(-481.0002,255)"
       inkscape:label="status"
       id="layer9"
       style="fill:#555555;fill-opacity:1">
      <g
         style="fill:#555555;fill-opacity:1"
         transform="matrix(2.6666667,0,0,2.7142857,-800.33435,354.57142)"
         id="g829">
        <path
           inkscape:connector-curvature="0"
           d="m 482.00045,-220 v 0.9375 1.0625 h 4 c 0.5713,0 1,0.4287 1,1 v 4 c 0,1.6447 1.3553,3 3,3 h 5 v -2 h -5 c -0.5713,0 -1,-0.4287 -1,-1 v -4 c 0,-1.6447 -1.3553,-3 -3,-3 z"
           id="path4544-6"
           sodipodi:nodetypes="cccssssccssssc"
           style="color:#555555;fill:#555555;fill-opacity:1" />
        <path
           inkscape:connector-curvature="0"
           d="m 490.00045,-220 c -0.22957,0 -0.44085,0.0438 -0.65625,0.0937 0.4813,0.5511 0.86125,1.1776 1.0312,1.9062 h 4.625 v -2 h -5 z m -8,10 h 4 c 0.22957,0 0.44085,-0.0438 0.65625,-0.0937 -0.4813,-0.55115 -0.86125,-1.1777 -1.0312,-1.9063 h -3.62505 z"
           id="path4544-1-5"
           sodipodi:nodetypes="ccccccccscccc"
           style="color:#555555;fill:#555555;fill-opacity:1" />
        <path
           inkscape:connector-curvature="0"
           d="m 493.00045,-222 v 6 l 4,-3 z"
           id="path3003-08"
           style="fill:#555555;fill-opacity:1" />
        <path
           inkscape:connector-curvature="0"
           d="m 493.00045,-214 v 6 l 4,-3 z"
           id="path3773"
           style="fill:#555555;fill-opacity:1" />
      </g>
    </g>
  </g>
  <path
     style="color:#555555;fill:#555555;stroke-width:2.85714293;fill-opacity:1"
     inkscape:connector-curvature="0"
     d="m 8.9999998,20 c -2.761429,0 -5,2.238571 -5,5 0,2.761429 2.238571,5 5,5 C 11.761429,30 14,27.761429 14,25 14,22.238571 11.761429,20 8.9999998,20 Z m -0.714286,1.428571 h 1.428572 v 7.142858 h -1.428572 v -5 h -1.428571 v -0.714286 c 1.428571,0 1.428571,-1.428572 1.428571,-1.428572 z"
     id="path5092"
     sodipodi:nodetypes="ssssscccccccc" />
</svg>
