<?xml version="1.0" encoding="UTF-8" standalone="no"?>
<svg
   xmlns:dc="http://purl.org/dc/elements/1.1/"
   xmlns:cc="http://creativecommons.org/ns#"
   xmlns:rdf="http://www.w3.org/1999/02/22-rdf-syntax-ns#"
   xmlns:svg="http://www.w3.org/2000/svg"
   xmlns="http://www.w3.org/2000/svg"
   xmlns:sodipodi="http://sodipodi.sourceforge.net/DTD/sodipodi-0.dtd"
   xmlns:inkscape="http://www.inkscape.org/namespaces/inkscape"
   height="48"
   version="1.1"
   width="48"
   id="svg12"
   sodipodi:docname="amarok_repeat_track.svg"
   style="enable-background:new"
   inkscape:version="0.92.4 (5da689c313, 2019-01-14)">
  <sodipodi:namedview
     pagecolor="#ffffff"
     bordercolor="#666666"
     borderopacity="1"
     objecttolerance="10"
     gridtolerance="10"
     guidetolerance="10"
     inkscape:pageopacity="0"
     inkscape:pageshadow="2"
     inkscape:window-width="1362"
     inkscape:window-height="695"
     id="namedview14"
     showgrid="true"
     inkscape:zoom="10.729167"
     inkscape:cx="24"
     inkscape:cy="24"
     inkscape:window-x="0"
     inkscape:window-y="0"
     inkscape:window-maximized="1"
     inkscape:current-layer="layer9">
    <inkscape:grid
       type="xygrid"
       id="grid830" />
  </sodipodi:namedview>
  <metadata
     id="metadata90">
    <rdf:RDF>
      <cc:Work
         rdf:about="">
        <dc:format>image/svg+xml</dc:format>
        <dc:type
           rdf:resource="http://purl.org/dc/dcmitype/StillImage" />
        <dc:title></dc:title>
      </cc:Work>
    </rdf:RDF>
  </metadata>
  <defs
     id="defs7386" />
  <g
     inkscape:groupmode="layer"
     id="layer9"
     inkscape:label="status"
     transform="translate(-461.0002,235)">
    <g
       id="g835"
       transform="matrix(2.8571429,0,0,2.8571429,-855.00051,347.14286)"
       style="fill:#555555;fill-opacity:1">
      <path
         style="color:#000000;fill:#555555;fill-opacity:1"
         id="path5086"
         d="m 465.00024,-200.00002 c -1.6447,0 -3,1.3553 -3,3 v 4 c 0,1.6447 1.3553,3 3,3 h 1 0.65625 1.625 c -0.16854,-0.47255 -0.28125,-0.96957 -0.28125,-1.5 0,-0.17178 0.0438,-0.33323 0.0625,-0.5 h -1.40625 -0.65625 -1 c -0.5713,0 -1,-0.4287 -1,-1 v -4 c 0,-0.5713 0.4287,-1 1,-1 h 3 v -2 z m 7,0 v 0.5 1 0.5 h 1 c 0.5713,0 1,0.4287 1,1 v 1.28125 c 0.79448,0.28335 1.48291,0.76028 2,1.40625 v -2.6875 c 0,-1.6447 -1.3553,-3 -3,-3 z"
         inkscape:connector-curvature="0" />
      <path
         style="fill:#555555;fill-opacity:1"
         id="path5088"
         d="m 471.00044,-199 -4,-3 v 6 z"
         inkscape:connector-curvature="0" />
      <path
         style="color:#555555;fill:#555555;stroke-width:2;fill-opacity:1"
         sodipodi:nodetypes="ssssscccccccc"
         id="path5092"
         d="m 472.50019,-195 c -1.933,0 -3.5,1.567 -3.5,3.5 0,1.933 1.567,3.5 3.5,3.5 1.933,0 3.5,-1.567 3.5,-3.5 0,-1.933 -1.567,-3.5 -3.5,-3.5 z m -0.5,1 h 1 v 5 h -1 v -3.5 h -1 v -0.5 c 1,0 1,-1 1,-1 z"
         inkscape:connector-curvature="0" />
    </g>
  </g>
</svg>
