<?xml version="1.0" encoding="UTF-8" standalone="no"?>
<svg
   xmlns:dc="http://purl.org/dc/elements/1.1/"
   xmlns:cc="http://creativecommons.org/ns#"
   xmlns:rdf="http://www.w3.org/1999/02/22-rdf-syntax-ns#"
   xmlns:svg="http://www.w3.org/2000/svg"
   xmlns="http://www.w3.org/2000/svg"
   xmlns:sodipodi="http://sodipodi.sourceforge.net/DTD/sodipodi-0.dtd"
   xmlns:inkscape="http://www.inkscape.org/namespaces/inkscape"
   width="48"
   height="48"
   viewBox="0 0 48 48"
   version="1.1"
   id="svg7"
   sodipodi:docname="amarok_info.svg"
   inkscape:version="0.92.4 (5da689c313, 2019-01-14)">
  <metadata
     id="metadata11">
    <rdf:RDF>
      <cc:Work
         rdf:about="">
        <dc:format>image/svg+xml</dc:format>
        <dc:type
           rdf:resource="http://purl.org/dc/dcmitype/StillImage" />
        <dc:title />
      </cc:Work>
    </rdf:RDF>
  </metadata>
  <sodipodi:namedview
     pagecolor="#ffffff"
     bordercolor="#666666"
     borderopacity="1"
     objecttolerance="10"
     gridtolerance="10"
     guidetolerance="10"
     inkscape:pageopacity="0"
     inkscape:pageshadow="2"
     inkscape:window-width="1362"
     inkscape:window-height="695"
     id="namedview9"
     showgrid="true"
     inkscape:zoom="10.729167"
     inkscape:cx="7.9223296"
     inkscape:cy="23.999999"
     inkscape:window-x="0"
     inkscape:window-y="0"
     inkscape:window-maximized="1"
     inkscape:current-layer="svg7">
    <inkscape:grid
       type="xygrid"
       id="grid818" />
  </sodipodi:namedview>
  <defs
     id="defs3">
    <style
       type="text/css"
       id="current-color-scheme">
   .ColorScheme-Text { color:#5c616c; } .ColorScheme-Highlight { color:#5294e2; } .ColorScheme-ButtonBackground { color:#d3dae3; }
  </style>
  </defs>
  <g
     id="g5648"
     inkscape:label="dialog-error"
     style="color:#555555;display:inline;visibility:visible;fill:#555555;stroke:none;stroke-width:1.78124988;marker:none;enable-background:new;fill-opacity:1"
     transform="matrix(2.8571429,0,0,2.8571429,-131.14249,-1477.8668)" />
  <path
     inkscape:connector-curvature="0"
     d="M 24,4 C 12.40191,4 3,13.40236 3,25 3,36.59809 12.40191,46 24,46 35.59809,46 45,36.59809 45,25 45,13.40236 35.59809,4 24,4 Z m 0,8.25 c 2.07108,0 3.75,1.67892 3.75,3.75 0,2.07108 -1.67892,3.75 -3.75,3.75 -2.07108,0 -3.75,-1.67892 -3.75,-3.75 0,-2.07108 1.67892,-3.75 3.75,-3.75 z M 21,22 h 3 3 v 15 h -6 z"
     id="path5652"
     style="display:inline;fill:#555555;fill-opacity:1;stroke:none;stroke-width:2.99999976;enable-background:new" />
</svg>
