<?xml version="1.0" encoding="UTF-8" standalone="no"?>
<svg
   xmlns:dc="http://purl.org/dc/elements/1.1/"
   xmlns:cc="http://creativecommons.org/ns#"
   xmlns:rdf="http://www.w3.org/1999/02/22-rdf-syntax-ns#"
   xmlns:svg="http://www.w3.org/2000/svg"
   xmlns="http://www.w3.org/2000/svg"
   xmlns:sodipodi="http://sodipodi.sourceforge.net/DTD/sodipodi-0.dtd"
   xmlns:inkscape="http://www.inkscape.org/namespaces/inkscape"
   width="48"
   height="48"
   version="1"
   id="svg12"
   sodipodi:docname="amarok_audioscrobbler.svg"
   inkscape:version="0.92.4 (5da689c313, 2019-01-14)">
  <metadata
     id="metadata18">
    <rdf:RDF>
      <cc:Work
         rdf:about="">
        <dc:format>image/svg+xml</dc:format>
        <dc:type
           rdf:resource="http://purl.org/dc/dcmitype/StillImage" />
        <dc:title />
      </cc:Work>
    </rdf:RDF>
  </metadata>
  <defs
     id="defs16" />
  <sodipodi:namedview
     pagecolor="#ffffff"
     bordercolor="#666666"
     borderopacity="1"
     objecttolerance="10"
     gridtolerance="10"
     guidetolerance="10"
     inkscape:pageopacity="0"
     inkscape:pageshadow="2"
     inkscape:window-width="1362"
     inkscape:window-height="695"
     id="namedview14"
     showgrid="true"
     inkscape:zoom="10.729167"
     inkscape:cx="-8.1553388"
     inkscape:cy="24"
     inkscape:window-x="0"
     inkscape:window-y="0"
     inkscape:window-maximized="1"
     inkscape:current-layer="svg12">
    <inkscape:grid
       type="xygrid"
       id="grid812" />
  </sodipodi:namedview>
  <path
     style="fill:#555555;fill-opacity:1;stroke-width:1.53844404"
     d="M 14.134277,36.191011 C 13.333972,36.083318 11.910351,35.619937 10.960758,35.162861 4.773784,32.198258 2.2435904,24.731518 5.290905,18.442159 8.772231,11.250957 18.271238,9.417733 23.987264,14.834327 c 1.652938,1.56384 2.387065,2.898296 4.875705,8.815041 2.597914,6.187668 3.078096,7.160587 3.919956,7.985507 0.901883,0.877381 1.737586,1.172918 3.336656,1.172918 2.627155,0 4.503256,-1.623839 4.503256,-3.889676 0,-1.917839 -0.674103,-2.53199 -4.112337,-3.7526 -5.235843,-1.888608 -6.931874,-3.595524 -6.938029,-7.023511 0,-1.828608 0.463253,-3.04768 1.640624,-4.311367 1.689875,-1.803839 4.604833,-2.399529 7.184277,-1.50384 1.10042,0.391075 3.402837,2.428913 3.402837,3.012296 0,0.283229 -1.334355,1.148302 -2.074637,1.35307 -0.390919,0.101539 -0.727971,-0.03077 -1.178912,-0.463382 -0.914193,-0.877381 -1.532891,-1.148303 -2.627155,-1.148303 -1.888411,0 -3.059628,1.135995 -3.059628,2.970757 0,1.828608 0.7449,2.447375 4.466318,3.70337 5.128109,1.731685 6.64253,3.295525 6.673311,6.91428 0.03078,3.126142 -1.377446,5.381056 -4.178514,6.715511 -1.274332,0.601844 -1.706804,0.678921 -3.787597,0.678921 -2.970363,0 -4.304718,-0.552613 -5.969969,-2.428913 -1.118887,-1.262149 -2.254706,-3.631063 -5.891476,-12.278412 -1.508267,-3.583371 -3.44439,-5.339671 -6.673314,-6.030746 -1.636008,-0.349383 -3.913799,-0.02462 -5.398983,0.757382 -1.448243,0.757228 -3.065784,2.465836 -3.829151,4.028138 -0.63101,1.268302 -0.691033,1.623839 -0.691033,3.829523 0,2.104145 0.08464,2.602913 0.612542,3.757216 0.800305,1.762453 2.374751,3.390909 4.10618,4.26829 1.251248,0.631074 1.640627,0.70969 3.636772,0.70969 1.917654,0 2.410149,-0.09077 3.553663,-0.637229 1.305113,-0.637382 3.059628,-2.201222 3.775285,-3.372448 l 0.37245,-0.607997 0.734127,1.677685 c 0.409386,0.926612 0.738743,1.797839 0.738743,1.954761 0,0.463383 -1.659094,1.977993 -3.179675,2.921527 -2.308572,1.42538 -4.960352,1.959378 -7.792201,1.574609 m -0.0062,0"
     id="path10"
     inkscape:connector-curvature="0" />
</svg>
