<?xml version="1.0" encoding="UTF-8" standalone="no"?>
<!-- Created with Inkscape (http://www.inkscape.org/) -->

<svg
   xmlns:dc="http://purl.org/dc/elements/1.1/"
   xmlns:cc="http://creativecommons.org/ns#"
   xmlns:rdf="http://www.w3.org/1999/02/22-rdf-syntax-ns#"
   xmlns:svg="http://www.w3.org/2000/svg"
   xmlns="http://www.w3.org/2000/svg"
   xmlns:sodipodi="http://sodipodi.sourceforge.net/DTD/sodipodi-0.dtd"
   xmlns:inkscape="http://www.inkscape.org/namespaces/inkscape"
   sodipodi:docname="amarok_refresh.svg"
   inkscape:export-filename="/home/sam/source-symbolic.png"
   inkscape:export-xdpi="270"
   inkscape:export-ydpi="270"
   height="48"
   id="svg7384"
   style="enable-background:new"
   version="1.1"
   inkscape:version="0.92.4 (5da689c313, 2019-01-14)"
   width="48">
  <sodipodi:namedview
     inkscape:bbox-nodes="true"
     inkscape:bbox-paths="true"
     bordercolor="#666666"
     borderlayer="false"
     borderopacity="1"
     inkscape:current-layer="layer12"
     inkscape:cx="-1.142764"
     inkscape:cy="18.835711"
     gridtolerance="10"
     inkscape:guide-bbox="true"
     guidetolerance="10"
     id="namedview88"
     inkscape:object-nodes="true"
     inkscape:object-paths="true"
     objecttolerance="10"
     pagecolor="#f7f7f7"
     inkscape:pageopacity="1"
     inkscape:pageshadow="2"
     showborder="false"
     showgrid="true"
     showguides="true"
     inkscape:showpageshadow="false"
     inkscape:snap-bbox="true"
     inkscape:snap-bbox-edge-midpoints="false"
     inkscape:snap-bbox-midpoints="false"
     inkscape:snap-center="false"
     inkscape:snap-global="true"
     inkscape:snap-grids="true"
     inkscape:snap-intersection-paths="true"
     inkscape:snap-midpoints="true"
     inkscape:snap-nodes="true"
     inkscape:snap-object-midpoints="true"
     inkscape:snap-others="true"
     inkscape:snap-page="false"
     inkscape:snap-smooth-nodes="true"
     inkscape:snap-to-guides="true"
     inkscape:window-height="695"
     inkscape:window-maximized="1"
     inkscape:window-width="1362"
     inkscape:window-x="0"
     inkscape:window-y="0"
     inkscape:zoom="5.3645833">
    <inkscape:grid
       color="#000000"
       dotted="false"
       empcolor="#0800ff"
       empopacity="0.4627451"
       empspacing="4"
       enabled="true"
       id="grid4866"
       opacity="0.16470588"
       originx="-184.00227"
       originy="-256.01646"
       snapvisiblegridlinesonly="true"
       spacingx="0.25"
       spacingy="0.25"
       type="xygrid"
       visible="true" />
  </sodipodi:namedview>
  <metadata
     id="metadata90">
    <rdf:RDF>
      <cc:Work
         rdf:about="">
        <dc:format>image/svg+xml</dc:format>
        <dc:type
           rdf:resource="http://purl.org/dc/dcmitype/StillImage" />
        <dc:title>Paper Symbolic Icon Theme</dc:title>
      </cc:Work>
    </rdf:RDF>
  </metadata>
  <title
     id="title8473">Paper Symbolic Icon Theme</title>
  <defs
     id="defs7386">
    <filter
       inkscape:collect="always"
       id="filter7554"
       style="color-interpolation-filters:sRGB">
      <feBlend
         inkscape:collect="always"
         id="feBlend7556"
         in2="BackgroundImage"
         mode="darken" />
    </filter>
  </defs>
  <g
     inkscape:groupmode="layer"
     id="layer9"
     inkscape:label="status"
     style="display:inline"
     transform="translate(-425.00247,71.016457)" />
  <g
     inkscape:groupmode="layer"
     id="layer10"
     inkscape:label="devices"
     style="display:inline;filter:url(#filter7554)"
     transform="translate(-425.00247,71.016457)" />
  <g
     inkscape:groupmode="layer"
     id="layer1"
     inkscape:label="places"
     style="display:inline"
     transform="translate(-184.00227,-545.98354)" />
  <g
     inkscape:groupmode="layer"
     id="layer14"
     inkscape:label="mimetypes"
     style="display:inline"
     transform="translate(-425.00247,71.016457)" />
  <g
     inkscape:groupmode="layer"
     id="layer15"
     inkscape:label="emblems"
     style="display:inline"
     transform="translate(-425.00247,71.016457)" />
  <g
     inkscape:groupmode="layer"
     id="g71291"
     inkscape:label="emotes"
     style="display:inline"
     transform="translate(-425.00247,71.016457)" />
  <g
     inkscape:groupmode="layer"
     id="layer2"
     inkscape:label="categories"
     style="display:inline"
     transform="translate(-184.00227,-395.98354)" />
  <g
     inkscape:groupmode="layer"
     id="g6058"
     inkscape:label="apps"
     style="display:inline"
     transform="translate(-184.00227,-395.98354)" />
  <g
     inkscape:groupmode="layer"
     id="layer12"
     inkscape:label="actions"
     style="display:inline"
     transform="translate(-425.00247,71.016457)">
    <path
       inkscape:connector-curvature="0"
       d="m 470.00233,-47.016323 h -5.24998 c 0,-7.366551 -4.89658,-13.556575 -11.56637,-15.416925 -0.0829,-0.02401 -0.16301,-0.06134 -0.24596,-0.0832 -0.66985,-0.17467 -1.34962,-0.24907 -2.05077,-0.333339 -0.61236,-0.0736 -1.25491,-0.16667 -1.88672,-0.16667 -1.61777,0.0017 -3.2258,0.253605 -4.75779,0.750013 v 0.0832 c -2.20917,0.712173 -4.23574,1.851552 -5.90623,3.416725 l 3.11717,4.250071 c 1.31775,-1.368663 3.04,-2.257024 4.92186,-2.750046 v -0.0832 c 0.99782,-0.238136 2.07275,-0.324592 3.11718,-0.249869 0.47723,0.03413 0.91688,0.07626 1.39453,0.166669 4.90104,0.900841 8.61325,5.178247 8.61325,10.416841 h -5.24998 l 7.87497,10.666847 7.87498,-10.666847 z m -10.3359,11.750198 -3.11718,-4.250071 c -1.31774,1.368664 -3.03999,2.257024 -4.92185,2.750046 v 0.0832 c -0.99782,0.238137 -2.07275,0.324592 -3.11718,0.24987 -0.47723,-0.03413 -0.91688,-0.07626 -1.39453,-0.166669 -4.90104,-0.900842 -8.61325,-5.178247 -8.61325,-10.416842 h 5.24998 l -7.87497,-10.666846 -7.87498,10.666846 h 5.24999 c 0,7.366551 4.89657,13.556575 11.56636,15.416926 0.0845,0.02401 0.16091,0.06106 0.24596,0.0832 0.66986,0.17467 1.34962,0.24907 2.05078,0.333338 0.61236,0.0736 1.2549,0.16667 1.88671,0.16667 1.61779,-0.0017 3.2258,-0.253605 4.7578,-0.750013 v -0.0832 c 2.20917,-0.712173 4.23573,-1.851552 5.90623,-3.416726 z"
       id="path8675"
       style="display:inline;fill:#555555;fill-opacity:1;stroke:none;stroke-width:2.6457696;enable-background:new" />
  </g>
</svg>
