<?xml version="1.0" encoding="UTF-8" standalone="no"?>
<!-- Created with Inkscape (http://www.inkscape.org/) -->

<svg
   xmlns:dc="http://purl.org/dc/elements/1.1/"
   xmlns:cc="http://creativecommons.org/ns#"
   xmlns:rdf="http://www.w3.org/1999/02/22-rdf-syntax-ns#"
   xmlns:svg="http://www.w3.org/2000/svg"
   xmlns="http://www.w3.org/2000/svg"
   xmlns:sodipodi="http://sodipodi.sourceforge.net/DTD/sodipodi-0.dtd"
   xmlns:inkscape="http://www.inkscape.org/namespaces/inkscape"
   id="svg7384"
   style="enable-background:new"
   height="48"
   width="48"
   version="1.1"
   sodipodi:docname="amarok_settings_indicator_WIP.svg"
   inkscape:version="0.92.4 (5da689c313, 2019-01-14)">
  <sodipodi:namedview
     pagecolor="#ffffff"
     bordercolor="#666666"
     borderopacity="1"
     objecttolerance="10"
     gridtolerance="10"
     guidetolerance="10"
     inkscape:pageopacity="0"
     inkscape:pageshadow="2"
     inkscape:window-width="1362"
     inkscape:window-height="695"
     id="namedview10"
     showgrid="true"
     inkscape:zoom="10.729167"
     inkscape:cx="24"
     inkscape:cy="24"
     inkscape:window-x="0"
     inkscape:window-y="0"
     inkscape:window-maximized="1"
     inkscape:current-layer="svg7384">
    <inkscape:grid
       type="xygrid"
       id="grid817" />
  </sodipodi:namedview>
  <metadata
     id="metadata90">
    <rdf:RDF>
      <cc:Work
         rdf:about="">
        <dc:format>image/svg+xml</dc:format>
        <dc:type
           rdf:resource="http://purl.org/dc/dcmitype/StillImage" />
        <dc:title>Paper Symbolic Icon Theme</dc:title>
      </cc:Work>
    </rdf:RDF>
  </metadata>
  <title
     id="title8473">Paper Symbolic Icon Theme</title>
  <defs
     id="defs7386" />
  <g
     id="layer12"
     transform="matrix(2.8828829,0,0,2.8571592,-1397.0883,-285.63023)"
     style="fill:#555555;fill-opacity:1">
    <path
       id="path10500"
       style="fill:#555555;fill-opacity:1;enable-background:new"
       d="m 491.19,101.72 -0.1543,1.8438 c -0.58462,0.21656 -1.12816,0.53093 -1.6074,0.92969 l -1.6758,-0.78906 -1.75,3.0312 1.5215,1.0566 c -0.0542,0.30631 -0.0823,0.61667 -0.084,0.92773 2.1e-4,0.31226 0.027,0.62393 0.0801,0.93164 l -1.5176,1.0527 1.75,3.0312 1.6719,-0.7871 c 0.48084,0.39706 1.02571,0.70945 1.6113,0.92382 l 0.1543,1.8477 h 3.5 l 0.1543,-1.8438 c 0.58462,-0.21656 1.12816,-0.53093 1.6074,-0.92969 l 1.6758,0.78906 1.75,-3.0312 -1.5215,-1.0566 c 0.0542,-0.30631 0.0823,-0.61667 0.084,-0.92773 -2.1e-4,-0.31226 -0.027,-0.62393 -0.0801,-0.93164 l 1.5176,-1.0527 -1.75,-3.0312 -1.6719,0.7871 c -0.48084,-0.39706 -1.02571,-0.70945 -1.6113,-0.92382 L 494.69,101.72 Z"
       inkscape:connector-curvature="0"
       sodipodi:nodetypes="ccccccccccccccccccccccccccc" />
  </g>
  <path
     inkscape:connector-curvature="0"
     d="m 24.000355,15.000004 c 0.749523,0 1.357143,0.59696 1.357143,1.333334 -3.94e-4,0.0444 -0.0027,0.08867 -0.0081,0.1328 3.108291,0.611774 5.436755,3.294976 5.436524,6.533858 l -1.89e-4,2.666655 v 3.333336 l 2.714285,2.666668 v 0.666667 H 30.78569 17.21426 14.499975 v -0.666667 l 2.714285,-2.666668 1.91e-4,-5.999991 c 1.09e-4,-3.238882 2.328423,-5.922097 5.436524,-6.533858 -0.0054,-0.04413 -0.0081,-0.0884 -0.0081,-0.1328 0,-0.736374 0.60762,-1.333334 1.357144,-1.333334 z m 2.345659,18.666666 c -0.483998,0.823614 -1.377839,1.331654 -2.345849,1.333334 -0.968959,-7.47e-4 -1.864022,-0.50892 -2.348495,-1.333334 z"
     id="path5938"
     sodipodi:nodetypes="sccscccccccccscssscccc"
     style="display:inline;opacity:1;fill:#ffffff;fill-opacity:1;stroke:none;stroke-width:4.03555775;stroke-linecap:round;stroke-miterlimit:4;stroke-dasharray:none;stroke-opacity:1;enable-background:new" />
</svg>
