<?xml version="1.0" encoding="UTF-8" standalone="no"?>
<svg
   xmlns:dc="http://purl.org/dc/elements/1.1/"
   xmlns:cc="http://creativecommons.org/ns#"
   xmlns:rdf="http://www.w3.org/1999/02/22-rdf-syntax-ns#"
   xmlns:svg="http://www.w3.org/2000/svg"
   xmlns="http://www.w3.org/2000/svg"
   xmlns:sodipodi="http://sodipodi.sourceforge.net/DTD/sodipodi-0.dtd"
   xmlns:inkscape="http://www.inkscape.org/namespaces/inkscape"
   width="48"
   height="48"
   version="1"
   id="svg16"
   sodipodi:docname="amarok_burn.svg"
   inkscape:version="0.92.4 (5da689c313, 2019-01-14)">
  <metadata
     id="metadata22">
    <rdf:RDF>
      <cc:Work
         rdf:about="">
        <dc:format>image/svg+xml</dc:format>
        <dc:type
           rdf:resource="http://purl.org/dc/dcmitype/StillImage" />
        <dc:title></dc:title>
      </cc:Work>
    </rdf:RDF>
  </metadata>
  <defs
     id="defs20" />
  <sodipodi:namedview
     pagecolor="#ffffff"
     bordercolor="#666666"
     borderopacity="1"
     objecttolerance="10"
     gridtolerance="10"
     guidetolerance="10"
     inkscape:pageopacity="0"
     inkscape:pageshadow="2"
     inkscape:window-width="1362"
     inkscape:window-height="695"
     id="namedview18"
     showgrid="true"
     inkscape:zoom="10.729167"
     inkscape:cx="24"
     inkscape:cy="24"
     inkscape:window-x="0"
     inkscape:window-y="0"
     inkscape:window-maximized="1"
     inkscape:current-layer="svg16">
    <inkscape:grid
       type="xygrid"
       id="grid819" />
  </sodipodi:namedview>
  <path
     style="color:#bebebe;font-style:normal;font-variant:normal;font-weight:normal;font-stretch:normal;font-size:medium;line-height:normal;font-family:Sans;-inkscape-font-specification:Sans;text-indent:0;text-align:start;text-decoration:none;text-decoration-line:none;letter-spacing:normal;word-spacing:normal;text-transform:none;writing-mode:lr-tb;direction:ltr;baseline-shift:baseline;text-anchor:start;display:inline;overflow:visible;visibility:visible;fill:#555555;fill-opacity:1;stroke:none;stroke-width:14.80219841;marker:none;filter:url(#filter7554);enable-background:accumulate"
     mask="none"
     clip-path="none"
     d="M 22.461538,5 C 12.327973,5 4,13.328 4,23.461539 c 0,10.133538 8.327973,18.461538 18.461538,18.461538 0.825936,0 1.633476,-0.07518 2.431891,-0.182291 a 11.282051,11.282051 0 0 1 -2.431891,-6.997196 11.282051,11.282051 0 0 1 1.999199,-6.40625 c -0.617629,0.255661 -1.292816,0.398638 -1.999199,0.398638 -2.897538,0 -5.274439,-2.376928 -5.274439,-5.274439 0,-2.897539 2.376901,-5.274439 5.274439,-5.274439 2.897539,0 5.274439,2.3769 5.274439,5.274439 0,0.712376 -0.144858,1.393343 -0.404647,2.015224 a 11.282051,11.282051 0 0 1 6.412259,-2.015224 11.282051,11.282051 0 0 1 6.995192,2.445914 c 0.108359,-0.802929 0.184295,-1.61512 0.184295,-2.445914 C 40.923076,13.328 32.595077,5 22.461538,5 Z"
     id="path39797"
     inkscape:connector-curvature="0" />
  <circle
     style="fill:#ff5722;stroke-width:0.64102566"
     cx="33.743591"
     cy="34.743591"
     r="10.256411"
     id="circle12-6" />
  <path
     inkscape:connector-curvature="0"
     style="fill:#ffffff;stroke-width:0.64102566"
     d="m 34.932052,29.615385 c -3.146154,1.282051 -5.034615,4.28718 -5.034615,6.410257 0,2.09923 1.651795,3.802564 3.703461,3.842436 -1.025231,-0.0205 -1.851154,-0.870129 -1.851154,-1.919359 0,-1.06209 0.943988,-2.564103 2.517308,-3.205129 0,2.24359 1.689231,2.567949 1.258641,3.846154 -0.244141,0.724782 -0.839654,1.274885 -1.872051,1.280795 0.0061,3.2e-5 0.01301,7.05e-4 0.01961,7.05e-4 2.085385,0 3.285,-1.106666 3.775897,-2.564102 0.861154,-2.556539 -2.517307,-3.205129 -2.517307,-7.692308 z"
     id="path14-7" />
</svg>
