<?xml version="1.0" encoding="UTF-8" standalone="no"?>
<svg
   xmlns:dc="http://purl.org/dc/elements/1.1/"
   xmlns:cc="http://creativecommons.org/ns#"
   xmlns:rdf="http://www.w3.org/1999/02/22-rdf-syntax-ns#"
   xmlns:svg="http://www.w3.org/2000/svg"
   xmlns="http://www.w3.org/2000/svg"
   xmlns:sodipodi="http://sodipodi.sourceforge.net/DTD/sodipodi-0.dtd"
   xmlns:inkscape="http://www.inkscape.org/namespaces/inkscape"
   width="48"
   height="48"
   viewBox="0 0 48 48"
   version="1.1"
   id="svg7"
   sodipodi:docname="amarok_info.svg"
   inkscape:version="0.92.4 (5da689c313, 2019-01-14)">
  <metadata
     id="metadata11">
    <rdf:RDF>
      <cc:Work
         rdf:about="">
        <dc:format>image/svg+xml</dc:format>
        <dc:type
           rdf:resource="http://purl.org/dc/dcmitype/StillImage" />
        <dc:title></dc:title>
      </cc:Work>
    </rdf:RDF>
  </metadata>
  <sodipodi:namedview
     pagecolor="#ffffff"
     bordercolor="#666666"
     borderopacity="1"
     objecttolerance="10"
     gridtolerance="10"
     guidetolerance="10"
     inkscape:pageopacity="0"
     inkscape:pageshadow="2"
     inkscape:window-width="1362"
     inkscape:window-height="695"
     id="namedview9"
     showgrid="true"
     inkscape:zoom="10.729167"
     inkscape:cx="24"
     inkscape:cy="24"
     inkscape:window-x="0"
     inkscape:window-y="0"
     inkscape:window-maximized="1"
     inkscape:current-layer="svg7">
    <inkscape:grid
       type="xygrid"
       id="grid818" />
  </sodipodi:namedview>
  <defs
     id="defs3">
    <style
       type="text/css"
       id="current-color-scheme">
   .ColorScheme-Text { color:#5c616c; } .ColorScheme-Highlight { color:#5294e2; } .ColorScheme-ButtonBackground { color:#d3dae3; }
  </style>
  </defs>
  <path
     style="color:#5c616c;opacity:1;fill:#555555;fill-opacity:1;stroke-width:2.85714293"
     class="ColorScheme-Text"
     d="M 21.142857,5 V 8.1026771 A 17.142857,17.142857 0 0 0 14.083705,11.043526 L 11.879464,8.8392857 7.8392857,12.879463 10.037946,15.078126 A 17.142857,17.142857 0 0 0 7.1138394,22.142857 H 4 v 5.714286 h 3.1026786 a 17.142857,17.142857 0 0 0 2.9408484,7.059151 l -2.2042413,2.204243 4.0401783,4.040177 2.198661,-2.19866 a 17.142857,17.142857 0 0 0 7.064732,2.924106 V 45 h 5.714286 v -3.10268 a 17.142857,17.142857 0 0 0 7.059151,-2.940846 l 2.204243,2.20424 4.040177,-4.040177 -2.19866,-2.198663 A 17.142857,17.142857 0 0 0 40.88616,27.857143 H 44 v -5.714286 h -3.10268 a 17.142857,17.142857 0 0 0 -2.940846,-7.059151 l 2.20424,-2.204243 -4.040177,-4.0401773 -2.198663,2.1986603 A 17.142857,17.142857 0 0 0 26.857143,8.11384 V 5 Z M 18.285714,19.285714 29.714286,25 18.285714,30.714286 Z"
     id="path5"
     inkscape:connector-curvature="0" />
</svg>
