<?xml version="1.0" encoding="UTF-8" standalone="no"?>
<svg
   xmlns:dc="http://purl.org/dc/elements/1.1/"
   xmlns:cc="http://creativecommons.org/ns#"
   xmlns:rdf="http://www.w3.org/1999/02/22-rdf-syntax-ns#"
   xmlns:svg="http://www.w3.org/2000/svg"
   xmlns="http://www.w3.org/2000/svg"
   xmlns:sodipodi="http://sodipodi.sourceforge.net/DTD/sodipodi-0.dtd"
   xmlns:inkscape="http://www.inkscape.org/namespaces/inkscape"
   width="48"
   height="48"
   version="1"
   id="svg12"
   sodipodi:docname="amarok_lastfm.svg"
   inkscape:version="0.92.4 (5da689c313, 2019-01-14)">
  <metadata
     id="metadata18">
    <rdf:RDF>
      <cc:Work
         rdf:about="">
        <dc:format>image/svg+xml</dc:format>
        <dc:type
           rdf:resource="http://purl.org/dc/dcmitype/StillImage" />
        <dc:title></dc:title>
      </cc:Work>
    </rdf:RDF>
  </metadata>
  <defs
     id="defs16" />
  <sodipodi:namedview
     pagecolor="#ffffff"
     bordercolor="#666666"
     borderopacity="1"
     objecttolerance="10"
     gridtolerance="10"
     guidetolerance="10"
     inkscape:pageopacity="0"
     inkscape:pageshadow="2"
     inkscape:window-width="1362"
     inkscape:window-height="695"
     id="namedview14"
     showgrid="true"
     inkscape:zoom="10.729167"
     inkscape:cx="7.9223306"
     inkscape:cy="24"
     inkscape:window-x="0"
     inkscape:window-y="0"
     inkscape:window-maximized="1"
     inkscape:current-layer="svg12">
    <inkscape:grid
       type="xygrid"
       id="grid828" />
  </sodipodi:namedview>
  <rect
     style="fill:#555555;fill-opacity:1;stroke-width:1.04999995"
     width="42"
     height="42"
     x="3"
     y="4"
     rx="21"
     ry="21"
     id="rect2" />
  <path
     inkscape:connector-curvature="0"
     style="fill:#ffffff;stroke-width:1.04999995"
     d="m 17.266518,33.320398 c -0.546218,-0.0735 -1.517858,-0.38976 -2.165967,-0.701715 -4.222689,-2.02335 -5.949578,-7.11942 -3.869747,-11.411925 2.376049,-4.908015 8.859243,-6.159195 12.760503,-2.462355 1.128152,1.067325 1.629202,1.978095 3.32773,6.01629 1.77311,4.2231 2.10084,4.88712 2.67542,5.45013 0.615547,0.598815 1.185925,0.80052 2.277311,0.80052 1.793067,0 3.073529,-1.108275 3.073529,-2.654715 0,-1.30893 -0.460084,-1.72809 -2.806722,-2.56116 -3.573529,-1.28898 -4.731092,-2.453955 -4.735293,-4.793565 0,-1.24803 0.316176,-2.08005 1.119747,-2.94252 1.153361,-1.231125 3.142857,-1.637685 4.90336,-1.026375 0.751051,0.26691 2.32248,1.65774 2.32248,2.0559 0,0.193305 -0.910715,0.78372 -1.415966,0.923475 -0.266807,0.0693 -0.49685,-0.021 -0.804623,-0.31626 -0.623949,-0.598815 -1.046218,-0.78372 -1.793067,-0.78372 -1.288864,0 -2.088235,0.77532 -2.088235,2.02755 0,1.24803 0.508404,1.67034 3.048319,2.52756 3.5,1.18188 4.533612,2.249205 4.55462,4.719015 0.02101,2.1336 -0.940125,3.672585 -2.851889,4.583355 -0.869748,0.41076 -1.164915,0.463365 -2.585083,0.463365 -2.027311,0 -2.938025,-0.37716 -4.07458,-1.65774 -0.763654,-0.86142 -1.538865,-2.47821 -4.021008,-8.38005 -1.029411,-2.44566 -2.350839,-3.64434 -4.554621,-4.116 -1.116597,-0.238455 -2.671218,-0.0168 -3.684874,0.516915 -0.988445,0.51681 -2.092437,1.68294 -2.613445,2.749215 -0.430672,0.86562 -0.471639,1.108275 -0.471639,2.61366 0,1.436085 0.05777,1.776495 0.418068,2.56431 0.546218,1.20288 1.620798,2.314305 2.80252,2.91312 0.853992,0.43071 1.119748,0.484365 2.482143,0.484365 1.308823,0 1.644958,-0.06195 2.425421,-0.43491 0.890756,-0.435015 2.088234,-1.50234 2.57668,-2.301705 l 0.254202,-0.41496 0.50105,1.145025 c 0.279411,0.632415 0.504202,1.22703 0.504202,1.33413 0,0.31626 -1.132353,1.349985 -2.170169,1.99395 -1.57563,0.972825 -3.385503,1.33728 -5.318276,1.074675 m -0.0042,0"
     id="path10" />
</svg>
