<?xml version="1.0" encoding="UTF-8" standalone="no"?>
<!-- Created with Inkscape (http://www.inkscape.org/) -->

<svg
   xmlns:dc="http://purl.org/dc/elements/1.1/"
   xmlns:cc="http://creativecommons.org/ns#"
   xmlns:rdf="http://www.w3.org/1999/02/22-rdf-syntax-ns#"
   xmlns:svg="http://www.w3.org/2000/svg"
   xmlns="http://www.w3.org/2000/svg"
   xmlns:sodipodi="http://sodipodi.sourceforge.net/DTD/sodipodi-0.dtd"
   xmlns:inkscape="http://www.inkscape.org/namespaces/inkscape"
   id="svg7384"
   style="enable-background:new"
   height="48"
   width="48"
   version="1.1"
   sodipodi:docname="amarok_configure.svg"
   inkscape:version="0.92.4 (5da689c313, 2019-01-14)">
  <sodipodi:namedview
     pagecolor="#ffffff"
     bordercolor="#666666"
     borderopacity="1"
     objecttolerance="10"
     gridtolerance="10"
     guidetolerance="10"
     inkscape:pageopacity="0"
     inkscape:pageshadow="2"
     inkscape:window-width="1362"
     inkscape:window-height="695"
     id="namedview11"
     showgrid="true"
     fit-margin-top="0"
     fit-margin-left="0"
     fit-margin-right="0"
     fit-margin-bottom="0"
     inkscape:zoom="10.729167"
     inkscape:cx="24"
     inkscape:cy="24"
     inkscape:window-x="0"
     inkscape:window-y="0"
     inkscape:window-maximized="1"
     inkscape:current-layer="svg7384"
     showguides="true">
    <inkscape:grid
       type="xygrid"
       id="grid4507"
       originx="0"
       originy="-2.3841858e-06" />
  </sodipodi:namedview>
  <metadata
     id="metadata90">
    <rdf:RDF>
      <cc:Work
         rdf:about="">
        <dc:format>image/svg+xml</dc:format>
        <dc:type
           rdf:resource="http://purl.org/dc/dcmitype/StillImage" />
        <dc:title>Paper Symbolic Icon Theme</dc:title>
      </cc:Work>
    </rdf:RDF>
  </metadata>
  <title
     id="title8473">Paper Symbolic Icon Theme</title>
  <defs
     id="defs7386" />
  <g
     id="g822"
     style="fill:#555555;fill-opacity:1;stroke:#555555;stroke-opacity:1"
     transform="matrix(2.5807127,0,0,2.5848458,3.3542969,4.3212376)">
    <rect
       transform="scale(-1,1)"
       x="-23.970585"
       y="11.728849"
       width="3.0212729"
       height="0"
       ry="0"
       style="fill:#555555;fill-opacity:1;stroke:#555555;stroke-width:0.31200001;stroke-miterlimit:4;stroke-dasharray:none;stroke-opacity:1"
       id="rect3465" />
    <path
       inkscape:connector-curvature="0"
       id="rect2422"
       sodipodi:nodetypes="csccccccccssccsccssc"
       style="fill:#555555;fill-opacity:1;stroke:#555555;stroke-width:0.31200001;stroke-miterlimit:4;stroke-dasharray:none;stroke-opacity:1"
       d="m 3.4520108,0.41870375 c 0.8478176,0.007263 1.6868095,0.33590707 2.3363011,0.97693915 0.9786507,0.9660223 1.2086473,2.36542 0.7299646,3.5555614 0.03686,0.028854 0.09553,0.062272 0.1297945,0.096043 l 2.0928053,2.0663214 c 0.4677802,0.4612549 0.4677802,1.2197637 0,1.6815309 L 8.5461849,8.9872892 c -0.4672593,0.4612555 -1.2356426,0.4612555 -1.7034214,0 L 4.7338617,6.9208653 C 4.6996,6.8875461 4.6819459,6.8296392 4.6523507,6.7927397 3.4468191,7.2657828 2.0294631,7.03823 1.0508124,6.0721562 0.91842185,5.9419795 0.79641506,5.8010412 0.69361768,5.6560017 0.659352,5.6073138 0.6276822,5.5617003 0.59653146,5.5114747 0.20662893,4.7005883 0.411704,4.7488661 1.2615984,4.9671945 c 0.8597591,0 1.5575347,-0.688808 1.5575347,-1.5375183 0,-0.8487094 -0.6977756,-1.5375182 -1.5575347,-1.5375182 -0.51917792,0 0.3083917,-0.97309479 0.9407509,-1.23319143 0.03011,-0.0115713 0.051398,-0.0374047 0.081511,-0.0480681 0.010901,-0.003219 0.021289,0.003219 0.03219,0 C 2.6805127,0.48609235 3.0704152,0.41545438 3.452011,0.41870789 Z" />
    <path
       inkscape:connector-curvature="0"
       id="path2432"
       style="fill:#555555;fill-opacity:1;stroke:#555555;stroke-width:0.31200001;stroke-miterlimit:4;stroke-dasharray:none;stroke-opacity:1"
       d="m 15.259451,12.4766 c 0.446556,0.440817 0.446473,1.16909 8e-5,1.609747 l -1.179413,1.164256 c -0.446396,0.440657 -1.18415,0.440736 -1.630706,-7.9e-5 L 6.0513566,8.9346978 c -0.4463957,-0.4406571 -0.4463957,-1.1690103 0,-1.609668 L 7.2307693,6.160776 c 0.4463954,-0.4406574 1.1842306,-0.4406574 1.6306253,0 z" />
  </g>
</svg>
