<?xml version="1.0" encoding="UTF-8" standalone="no"?>
<svg
   xmlns:dc="http://purl.org/dc/elements/1.1/"
   xmlns:cc="http://creativecommons.org/ns#"
   xmlns:rdf="http://www.w3.org/1999/02/22-rdf-syntax-ns#"
   xmlns:svg="http://www.w3.org/2000/svg"
   xmlns="http://www.w3.org/2000/svg"
   xmlns:sodipodi="http://sodipodi.sourceforge.net/DTD/sodipodi-0.dtd"
   xmlns:inkscape="http://www.inkscape.org/namespaces/inkscape"
   height="48"
   width="48"
   version="1"
   id="svg12"
   sodipodi:docname="amarok_magnatune.svg"
   inkscape:version="0.92.4 (5da689c313, 2019-01-14)">
  <metadata
     id="metadata18">
    <rdf:RDF>
      <cc:Work
         rdf:about="">
        <dc:format>image/svg+xml</dc:format>
        <dc:type
           rdf:resource="http://purl.org/dc/dcmitype/StillImage" />
        <dc:title />
      </cc:Work>
    </rdf:RDF>
  </metadata>
  <defs
     id="defs16" />
  <sodipodi:namedview
     pagecolor="#ffffff"
     bordercolor="#666666"
     borderopacity="1"
     objecttolerance="10"
     gridtolerance="10"
     guidetolerance="10"
     inkscape:pageopacity="0"
     inkscape:pageshadow="2"
     inkscape:window-width="1362"
     inkscape:window-height="695"
     id="namedview14"
     showgrid="true"
     inkscape:zoom="10.729167"
     inkscape:cx="7.9223296"
     inkscape:cy="23.999999"
     inkscape:window-x="0"
     inkscape:window-y="0"
     inkscape:window-maximized="1"
     inkscape:current-layer="svg12">
    <inkscape:grid
       type="xygrid"
       id="grid816" />
  </sodipodi:namedview>
  <rect
     transform="matrix(0,-1,-1,0,0,0)"
     rx="21"
     ry="21"
     height="42"
     width="42"
     y="-45"
     x="-46"
     id="rect2"
     style="fill:#444444;fill-opacity:1;stroke-width:1.05005252" />
  <path
     d="M 24,9.25 A 15.75,15.75 0 0 0 8.25,25 15.75,15.75 0 0 0 24,40.75 15.75,15.75 0 0 0 39.75,25 15.75,15.75 0 0 0 24,9.25 Z m 0,3.15 c 1.7451,0 3.15,1.4049 3.15,3.15 v 14.7 c 0,1.7451 -1.4049,3.15 -3.15,3.15 -1.7451,0 -3.15,-1.4049 -3.15,-3.15 v -14.7 c 0,-1.7451 1.4049,-3.15 3.15,-3.15 z m -9.45,8.4 c 1.7451,0 3.15,1.4049 3.15,3.15 v 6.3 c 0,1.7451 -1.4049,3.15 -3.15,3.15 -1.7451,0 -3.15,-1.4049 -3.15,-3.15 v -6.3 c 0,-1.7451 1.4049,-3.15 3.15,-3.15 z m 18.9,0 c 1.7451,0 3.15,1.4049 3.15,3.15 v 6.3 c 0,1.7451 -1.4049,3.15 -3.15,3.15 -1.7451,0 -3.15,-1.4049 -3.15,-3.15 v -6.3 c 0,-1.7451 1.4049,-3.15 3.15,-3.15 z"
     id="path10"
     inkscape:connector-curvature="0"
     style="fill:#ffffff;stroke-width:1.04999995" />
</svg>
