<?xml version="1.0" encoding="UTF-8" standalone="no"?>
<!-- Created with Inkscape (http://www.inkscape.org/) -->

<svg
   xmlns:dc="http://purl.org/dc/elements/1.1/"
   xmlns:cc="http://creativecommons.org/ns#"
   xmlns:rdf="http://www.w3.org/1999/02/22-rdf-syntax-ns#"
   xmlns:svg="http://www.w3.org/2000/svg"
   xmlns="http://www.w3.org/2000/svg"
   xmlns:sodipodi="http://sodipodi.sourceforge.net/DTD/sodipodi-0.dtd"
   xmlns:inkscape="http://www.inkscape.org/namespaces/inkscape"
   id="svg7384"
   style="enable-background:new"
   height="48"
   width="48"
   version="1.1"
   sodipodi:docname="configure.svg"
   inkscape:version="0.92.1 r15371">
  <sodipodi:namedview
     pagecolor="#ffffff"
     bordercolor="#666666"
     borderopacity="1"
     objecttolerance="10"
     gridtolerance="10"
     guidetolerance="10"
     inkscape:pageopacity="0"
     inkscape:pageshadow="2"
     inkscape:window-width="1366"
     inkscape:window-height="703"
     id="namedview11"
     showgrid="false"
     fit-margin-top="0"
     fit-margin-left="0"
     fit-margin-right="0"
     fit-margin-bottom="0"
     inkscape:zoom="4.234375"
     inkscape:cx="64"
     inkscape:cy="45.107011"
     inkscape:window-x="-3"
     inkscape:window-y="-4"
     inkscape:window-maximized="1"
     inkscape:current-layer="svg7384" />
  <metadata
     id="metadata90">
    <rdf:RDF>
      <cc:Work
         rdf:about="">
        <dc:format>image/svg+xml</dc:format>
        <dc:type
           rdf:resource="http://purl.org/dc/dcmitype/StillImage" />
        <dc:title>Paper Symbolic Icon Theme</dc:title>
      </cc:Work>
    </rdf:RDF>
  </metadata>
  <title
     id="title8473">Paper Symbolic Icon Theme</title>
  <defs
     id="defs7386">
    <inkscape:perspective
       sodipodi:type="inkscape:persp3d"
       inkscape:vp_x="0 : 32 : 1"
       inkscape:vp_y="0 : 1000 : 0"
       inkscape:vp_z="64 : 32 : 1"
       inkscape:persp3d-origin="32 : 21.333333 : 1"
       id="perspective4495" />
    <filter
       id="filter7554"
       style="color-interpolation-filters:sRGB">
      <feBlend
         id="feBlend7556"
         in2="BackgroundImage"
         mode="darken" />
    </filter>
    <filter
       style="color-interpolation-filters:sRGB"
       id="filter7554-9">
      <feBlend
         mode="darken"
         in2="BackgroundImage"
         id="feBlend7556-1" />
    </filter>
    <filter
       inkscape:collect="always"
       style="color-interpolation-filters:sRGB"
       id="filter4614"
       x="-0.012001684"
       width="1.0240034"
       y="-0.011998316"
       height="1.0239966">
      <feGaussianBlur
         inkscape:collect="always"
         stdDeviation="0.24512777"
         id="feGaussianBlur4616" />
    </filter>
  </defs>
  <g
     id="g4612"
     style="opacity:0.2;fill:#000000;stroke:#000000;filter:url(#filter4614)"
     transform="scale(0.75)">
    <path
       inkscape:connector-curvature="0"
       id="rect2422-3"
       sodipodi:nodetypes="csccccccccssccsccssc"
       style="fill:#000000;stroke:#000000;stroke-width:0.97420275;stroke-miterlimit:4;stroke-dasharray:none"
       d="m 17.238212,8.4842584 c 2.713421,0.023166 5.398595,1.0753913 7.477278,3.1276286 3.132149,3.09268 3.868245,7.572791 2.336233,11.382979 0.117976,0.09237 0.305739,0.199353 0.415405,0.307478 l 6.697977,6.615241 c 1.497118,1.47669 1.497118,3.905024 0,5.383353 l -0.623106,0.615288 c -1.495452,1.476689 -3.95465,1.476689 -5.451764,0 l -6.74949,-6.615569 C 21.231078,29.194007 21.174583,29.0086 21.079871,28.890466 17.221596,30.404893 12.685381,29.676392 9.5532318,26.583549 9.1295193,26.166794 8.7390395,25.715583 8.4100389,25.251246 8.3003724,25.095374 8.1990136,24.949346 8.0993164,24.788551 6.8514423,22.19253 7.5077807,22.347091 10.227848,23.046057 c 2.751639,0 4.984853,-2.20519 4.984853,-4.922298 0,-2.717108 -2.233214,-4.922298 -4.984853,-4.922298 -1.661617,0 0.987001,-3.115322 3.010851,-3.9480112 0.09637,-0.037048 0.1645,-0.1197591 0.260874,-0.1539039 0.03489,-0.010465 0.06813,0.010126 0.103021,0 1.166455,-0.3995596 2.414329,-0.6257058 3.635618,-0.6152875 z" />
    <path
       inkscape:connector-curvature="0"
       id="path2432-5"
       style="fill:#000000;stroke:#000000;stroke-width:0.97420275;stroke-miterlimit:4;stroke-dasharray:none"
       d="m 55.438345,47.577372 c 1.429188,1.411254 1.428924,3.742792 2.55e-4,5.153537 l -3.774683,3.727314 c -1.428678,1.410747 -3.789842,1.411001 -5.21903,-2.53e-4 L 25.968077,36.238119 c -1.428675,-1.410746 -1.428675,-3.742537 0,-5.153283 l 3.77468,-3.727314 c 1.428675,-1.410746 3.790099,-1.410746 5.218774,0 z" />
  </g>
  <rect
     id="rect3465"
     style="fill:#427bc3;stroke-width:1.27116156"
     ry="0"
     height="0"
     width="7.2532473"
     y="33.126072"
     x="-62.196617"
     transform="scale(-1,1)" />
  <path
     d="m 12.928659,5.6132404 c 2.035066,0.017374 4.048946,0.8065432 5.607959,2.3457213 2.349111,2.3195103 2.901183,5.6795933 1.752174,8.5372343 0.08848,0.06928 0.229305,0.149515 0.311554,0.230608 l 5.023483,4.961431 c 1.122838,1.107518 1.122838,2.928768 0,4.037515 l -0.46733,0.461466 c -1.121589,1.107517 -2.965987,1.107517 -4.088823,0 L 16.005559,21.225539 C 15.923308,21.145552 15.880937,21.006496 15.809903,20.917896 12.916197,22.053716 9.5140357,21.50734 7.164924,19.187708 6.8471396,18.875142 6.5542796,18.536734 6.3075292,18.188481 6.2252794,18.071577 6.1492601,17.962056 6.0744874,17.84146 5.1385819,15.894444 5.6308354,16.010365 7.670886,16.534589 c 2.0637292,0 3.73864,-1.653892 3.73864,-3.691723 0,-2.037831 -1.6749108,-3.6917237 -3.73864,-3.6917237 -1.2462128,0 0.7402507,-2.3364916 2.2581382,-2.9610083 0.072278,-0.027787 0.1233748,-0.08982 0.1956558,-0.115428 0.02617,-0.00785 0.0511,0.00759 0.07727,0 0.874842,-0.2996696 1.810747,-0.4692795 2.726714,-0.4614656 z"
     style="fill:#abacae;stroke:#7e8087;stroke-width:0.73065209;stroke-miterlimit:4;stroke-dasharray:none"
     sodipodi:nodetypes="csccccccccssccsccssc"
     id="rect2422"
     inkscape:connector-curvature="0" />
  <path
     d="m 41.578759,34.933075 c 1.071892,1.058441 1.071693,2.807094 1.91e-4,3.865152 l -2.831014,2.795487 c -1.071506,1.058058 -2.84238,1.05825 -3.914271,-1.92e-4 L 19.476058,26.428636 c -1.071506,-1.05806 -1.071506,-2.806903 0,-3.864963 l 2.83101,-2.795485 c 1.071506,-1.05806 2.842574,-1.05806 3.91408,0 z"
     style="fill:#cc3b02;stroke:#a62100;stroke-width:0.73065209;stroke-miterlimit:4;stroke-dasharray:none"
     id="path2432"
     inkscape:connector-curvature="0" />
</svg>
