<?xml version="1.0" encoding="UTF-8" standalone="no"?>
<!-- Created with Inkscape (http://www.inkscape.org/) -->

<svg
   xmlns:dc="http://purl.org/dc/elements/1.1/"
   xmlns:cc="http://creativecommons.org/ns#"
   xmlns:rdf="http://www.w3.org/1999/02/22-rdf-syntax-ns#"
   xmlns:svg="http://www.w3.org/2000/svg"
   xmlns="http://www.w3.org/2000/svg"
   xmlns:sodipodi="http://sodipodi.sourceforge.net/DTD/sodipodi-0.dtd"
   xmlns:inkscape="http://www.inkscape.org/namespaces/inkscape"
   width="48"
   height="48"
   viewBox="0 0 12.7 12.7"
   version="1.1"
   id="svg8"
   inkscape:version="0.92.1 r15371"
   sodipodi:docname="desktop-profiler.svg"
   inkscape:export-filename="/home/john/Nextcloud/Q4OS Stuff/desktop-profiler.png"
   inkscape:export-xdpi="96"
   inkscape:export-ydpi="96">
  <defs
     id="defs2">
    <filter
       inkscape:collect="always"
       style="color-interpolation-filters:sRGB"
       id="filter4575"
       x="-0.011454545"
       width="1.022909"
       y="-0.0126"
       height="1.0252">
      <feGaussianBlur
         inkscape:collect="always"
         stdDeviation="0.069453127"
         id="feGaussianBlur4577" />
    </filter>
    <style
       id="current-color-scheme"
       type="text/css">
   .ColorScheme-Text { color:#5c616c; } .ColorScheme-Highlight { color:#5294e2; } .ColorScheme-ButtonBackground { color:#d3dae3; }
  </style>
    <filter
       inkscape:collect="always"
       style="color-interpolation-filters:sRGB"
       id="filter5267"
       x="-0.01205659"
       width="1.0241132"
       y="-0.011943939"
       height="1.0238879">
      <feGaussianBlur
         inkscape:collect="always"
         stdDeviation="0.046085787"
         id="feGaussianBlur5269" />
    </filter>
  </defs>
  <sodipodi:namedview
     id="base"
     pagecolor="#ffffff"
     bordercolor="#666666"
     borderopacity="1.0"
     inkscape:pageopacity="0.0"
     inkscape:pageshadow="2"
     inkscape:zoom="11.291667"
     inkscape:cx="9.254613"
     inkscape:cy="23.158672"
     inkscape:document-units="mm"
     inkscape:current-layer="layer1"
     showgrid="false"
     units="px"
     inkscape:window-width="1366"
     inkscape:window-height="703"
     inkscape:window-x="-3"
     inkscape:window-y="-4"
     inkscape:window-maximized="1"
     fit-margin-top="0"
     fit-margin-left="0"
     fit-margin-right="0"
     fit-margin-bottom="0" />
  <metadata
     id="metadata5">
    <rdf:RDF>
      <cc:Work
         rdf:about="">
        <dc:format>image/svg+xml</dc:format>
        <dc:type
           rdf:resource="http://purl.org/dc/dcmitype/StillImage" />
        <dc:title />
      </cc:Work>
    </rdf:RDF>
  </metadata>
  <g
     inkscape:label="Layer 1"
     inkscape:groupmode="layer"
     id="layer1"
     transform="translate(-1.335144e-6,-284.29999)">
    <rect
       style="opacity:0.2;fill:#000000;fill-opacity:1;stroke:none;stroke-width:0.3041721;stroke-opacity:1;filter:url(#filter4575)"
       id="rect4909-6"
       width="14.552084"
       height="13.229167"
       x="1.1906247"
       y="282.18332"
       transform="matrix(0.75000008,0,0,0.75000008,6.6757196e-7,74.24998)" />
    <g
       id="g4929"
       transform="matrix(0.85937513,0,0,0.85227286,0.21084027,46.093869)">
      <rect
         y="281.12497"
         x="0.79374999"
         height="11.641666"
         width="12.7"
         id="rect4909"
         style="opacity:1;fill:#3689e6;fill-opacity:1;stroke:none;stroke-width:0.26656306;stroke-opacity:1" />
      <rect
         y="281.38956"
         x="1.0583332"
         height="11.1125"
         width="12.170834"
         id="rect4909-5"
         style="opacity:1;fill:#fafafa;fill-opacity:1;stroke:none;stroke-width:0.25495091;stroke-opacity:1" />
      <rect
         y="281.12497"
         x="0.79374999"
         height="2.1166666"
         width="12.7"
         id="rect4907"
         style="opacity:1;fill:#3689e6;fill-opacity:1;stroke:none;stroke-width:0.2853117;stroke-opacity:1" />
    </g>
    <path
       id="path5242-5"
       d="m 7.3105722,285.22602 -0.102046,1.21938 a 3.6375168,3.6375168 0 0 0 -1.063094,0.61487 l -1.108307,-0.52185 -1.157392,2.00477 1.006261,0.69883 a 3.6375168,3.6375168 0 0 0 -0.05554,0.61356 3.6375168,3.6375168 0 0 0 0.05297,0.61617 l -1.003676,0.69622 1.157392,2.00478 1.105722,-0.52058 a 3.6375168,3.6375168 0 0 0 1.065678,0.61099 l 0.09946,1.22328 h 2.314784 l 0.102046,-1.21941 a 3.6375168,3.6375168 0 0 0 1.0630938,-0.61486 l 1.108307,0.52188 1.157391,-2.00478 -1.006259,-0.69882 a 3.6375168,3.6375168 0 0 0 0.05555,-0.61357 3.6375168,3.6375168 0 0 0 -0.05296,-0.61616 l 1.003675,-0.69626 -1.157391,-2.00474 -1.105723,0.52055 a 3.6375168,3.6375168 0 0 0 -1.0656788,-0.61099 l -0.09946,-1.22326 z m 1.157392,3.30682 a 1.3227334,1.3227334 0 0 1 1.322733,1.32274 1.3227334,1.3227334 0 0 1 -1.322733,1.32274 1.3227334,1.3227334 0 0 1 -1.322734,-1.32274 1.3227334,1.3227334 0 0 1 1.322734,-1.32274 z"
       class="ColorScheme-Text"
       style="color:#5c616c;opacity:0.2;fill:#000000;stroke-width:0.6613667;filter:url(#filter5267)"
       inkscape:connector-curvature="0"
       transform="matrix(0.75000008,0,0,0.75000008,6.6757196e-7,74.24998)" />
    <path
       id="path5242"
       d="m 5.4829305,287.97108 -0.076535,0.91454 a 2.7281378,2.7281378 0 0 0 -0.7973205,0.46115 l -0.8312303,-0.39139 -0.8680442,1.50358 0.7546958,0.52412 a 2.7281378,2.7281378 0 0 0 -0.041655,0.46017 2.7281378,2.7281378 0 0 0 0.039728,0.46213 l -0.752757,0.52217 0.8680441,1.50358 0.8292916,-0.39043 a 2.7281378,2.7281378 0 0 0 0.7992585,0.45824 l 0.074595,0.91746 h 1.7360873 l 0.076535,-0.91456 a 2.7281378,2.7281378 0 0 0 0.7973213,-0.46114 l 0.8312303,0.39141 0.8680433,-1.50359 -0.7546943,-0.52411 a 2.7281378,2.7281378 0 0 0 0.041663,-0.46018 2.7281378,2.7281378 0 0 0 -0.03972,-0.46212 l 0.7527563,-0.5222 -0.8680433,-1.50355 -0.8292923,0.39041 a 2.7281378,2.7281378 0 0 0 -0.7992593,-0.45824 l -0.074595,-0.91745 z m 0.868044,2.48012 a 0.99205014,0.99205014 0 0 1 0.9920499,0.99205 0.99205014,0.99205014 0 0 1 -0.9920499,0.99206 0.99205014,0.99205014 0 0 1 -0.9920505,-0.99206 0.99205014,0.99205014 0 0 1 0.9920505,-0.99205 z"
       class="ColorScheme-Text"
       style="color:#5c616c;opacity:1;fill:#7e8087;stroke-width:0.49602506"
       inkscape:connector-curvature="0" />
  </g>
</svg>
