<?xml version="1.0" encoding="UTF-8" standalone="no"?>
<!-- Created with Inkscape (http://www.inkscape.org/) -->

<svg
   xmlns:dc="http://purl.org/dc/elements/1.1/"
   xmlns:cc="http://creativecommons.org/ns#"
   xmlns:rdf="http://www.w3.org/1999/02/22-rdf-syntax-ns#"
   xmlns:svg="http://www.w3.org/2000/svg"
   xmlns="http://www.w3.org/2000/svg"
   xmlns:sodipodi="http://sodipodi.sourceforge.net/DTD/sodipodi-0.dtd"
   xmlns:inkscape="http://www.inkscape.org/namespaces/inkscape"
   width="48"
   height="48"
   viewBox="0 0 12.7 12.7"
   version="1.1"
   id="svg8"
   inkscape:version="0.92.4 (5da689c313, 2019-01-14)"
   sodipodi:docname="desktop-profiler.svg"
   inkscape:export-filename="/home/john/Nextcloud/Q4OS Stuff/desktop-profiler.png"
   inkscape:export-xdpi="96"
   inkscape:export-ydpi="96">
  <defs
     id="defs2">
    <filter
       inkscape:collect="always"
       style="color-interpolation-filters:sRGB"
       id="filter4575"
       x="-0.011454545"
       width="1.022909"
       y="-0.0126"
       height="1.0252">
      <feGaussianBlur
         inkscape:collect="always"
         stdDeviation="0.069453127"
         id="feGaussianBlur4577" />
    </filter>
    <style
       id="current-color-scheme"
       type="text/css">
   .ColorScheme-Text { color:#5c616c; } .ColorScheme-Highlight { color:#5294e2; } .ColorScheme-ButtonBackground { color:#d3dae3; }
  </style>
    <filter
       inkscape:collect="always"
       style="color-interpolation-filters:sRGB"
       id="filter4541"
       x="-0.024329619"
       width="1.0486592"
       y="-0.023679191"
       height="1.0473584">
      <feGaussianBlur
         inkscape:collect="always"
         stdDeviation="0.091366383"
         id="feGaussianBlur4543" />
    </filter>
  </defs>
  <sodipodi:namedview
     id="base"
     pagecolor="#ffffff"
     bordercolor="#666666"
     borderopacity="1.0"
     inkscape:pageopacity="0.0"
     inkscape:pageshadow="2"
     inkscape:zoom="10.729167"
     inkscape:cx="24"
     inkscape:cy="24"
     inkscape:document-units="mm"
     inkscape:current-layer="layer1"
     showgrid="false"
     units="px"
     inkscape:window-width="1362"
     inkscape:window-height="695"
     inkscape:window-x="0"
     inkscape:window-y="0"
     inkscape:window-maximized="1"
     fit-margin-top="0"
     fit-margin-left="0"
     fit-margin-right="0"
     fit-margin-bottom="0" />
  <metadata
     id="metadata5">
    <rdf:RDF>
      <cc:Work
         rdf:about="">
        <dc:format>image/svg+xml</dc:format>
        <dc:type
           rdf:resource="http://purl.org/dc/dcmitype/StillImage" />
        <dc:title></dc:title>
      </cc:Work>
    </rdf:RDF>
  </metadata>
  <g
     inkscape:label="Layer 1"
     inkscape:groupmode="layer"
     id="layer1"
     transform="translate(0,-284.29999)">
    <rect
       style="opacity:0.2;fill:#000000;fill-opacity:1;stroke:none;stroke-width:0.3041721;stroke-opacity:1;filter:url(#filter4575)"
       id="rect4909-6"
       width="14.552084"
       height="13.229167"
       x="1.1906247"
       y="282.18332"
       transform="matrix(0.75000008,0,0,0.75000008,0,74.249982)" />
    <rect
       style="opacity:1;fill:#2196f3;fill-opacity:1;stroke:none;stroke-width:0.2281291;stroke-opacity:1"
       id="rect4909"
       width="10.914064"
       height="9.9218769"
       x="0.89296865"
       y="285.68906" />
    <rect
       style="opacity:1;fill:#fafafa;fill-opacity:1;stroke:none;stroke-width:0.21819124;stroke-opacity:1"
       id="rect4909-5"
       width="10.459311"
       height="9.4708824"
       x="1.1203448"
       y="285.91455" />
    <rect
       style="opacity:1;fill:#2196f3;fill-opacity:1;stroke:none;stroke-width:0.24417451;stroke-opacity:1"
       id="rect4907"
       width="10.914064"
       height="1.8039775"
       x="0.89296865"
       y="285.68906" />
    <path
       style="display:inline;opacity:0.2;fill:#000000;fill-opacity:1;stroke:none;stroke-width:0.23150995;filter:url(#filter4541);enable-background:new"
       d="m 7.5190358,285.22619 c -0.09816,0.0107 -0.184687,0.0907 -0.202628,0.18778 l -0.195421,0.9911 c -0.350672,0.13714 -0.680281,0.32594 -0.969477,0.55745 l -0.962269,-0.32557 c -0.09996,-0.0344 -0.220983,0.01 -0.274692,0.10089 l -0.9262359,1.60619 c -0.05216,0.0924 -0.02956,0.22036 0.05087,0.28953 l 0.766847,0.67274 c -0.027,0.1804 -0.04367,0.36187 -0.04367,0.54981 0,0.18792 0.01667,0.3694 0.04367,0.54979 l -0.766847,0.67276 c -0.08043,0.0692 -0.1030289,0.19714 -0.05087,0.28951 l 0.9262359,1.6062 c 0.05371,0.0911 0.174729,0.13578 0.274692,0.10131 l 0.962269,-0.32556 c 0.289196,0.23149 0.618805,0.41988 0.969477,0.55702 l 0.195421,0.99109 c 0.01979,0.10375 0.118633,0.18677 0.224247,0.18821 h 1.852053 c 0.105614,-0.002 0.2044431,-0.0845 0.2242461,-0.18821 l 0.195421,-0.99109 c 0.3506721,-0.13714 0.6802811,-0.32553 0.9694771,-0.55702 l 0.962269,0.32556 c 0.09996,0.0344 0.220984,-0.0103 0.274693,-0.10131 l 0.926235,-1.6062 c 0.05216,-0.0924 0.02956,-0.22035 -0.05087,-0.28951 l -0.766848,-0.67276 c 0.02701,-0.18039 0.04367,-0.36187 0.04367,-0.54979 0,-0.18794 -0.01667,-0.36941 -0.04367,-0.54981 l 0.766848,-0.67274 c 0.08043,-0.0692 0.103029,-0.19716 0.05087,-0.28953 l -0.926235,-1.60619 c -0.05371,-0.0911 -0.174729,-0.13536 -0.274693,-0.10089 l -0.962269,0.32557 c -0.289196,-0.23151 -0.618805,-0.42031 -0.9694771,-0.55745 l -0.195421,-0.9911 c -0.01979,-0.10374 -0.1186321,-0.18635 -0.2242461,-0.18778 h -1.852053 c -0.0072,-2.3e-4 -0.01441,-2.3e-4 -0.02161,0 z m 0.947433,2.77787 c 1.022876,0 1.8520512,0.82917 1.8520512,1.85205 0,1.02286 -0.8291752,1.85203 -1.8520512,1.85203 -1.022875,0 -1.85205,-0.82917 -1.85205,-1.85203 0,-1.02288 0.829175,-1.85205 1.85205,-1.85205 z"
       id="path4081-3"
       inkscape:connector-curvature="0"
       transform="matrix(0.75000008,0,0,0.75000008,0,74.249982)" />
    <path
       style="display:inline;opacity:1;fill:#607d8b;fill-opacity:1;stroke:none;stroke-width:0.17363249;enable-background:new"
       d="m 5.6392773,287.97121 c -0.07362,0.008 -0.1385153,0.068 -0.151971,0.14084 l -0.1465658,0.74332 c -0.263004,0.10286 -0.5102107,0.24446 -0.7271078,0.41809 L 3.891931,289.02928 c -0.07497,-0.0258 -0.1657373,0.007 -0.2060191,0.0757 l -0.6946771,1.20464 c -0.03912,0.0693 -0.02217,0.16527 0.038152,0.21715 l 0.5751354,0.50455 c -0.02025,0.1353 -0.032752,0.27141 -0.032752,0.41236 0,0.14094 0.012503,0.27705 0.032752,0.41235 l -0.5751354,0.50456 c -0.060322,0.0519 -0.077272,0.14787 -0.038152,0.21714 l 0.6946771,1.20465 c 0.040282,0.0683 0.1310468,0.10183 0.2060191,0.076 l 0.7217017,-0.24417 c 0.2168971,0.17362 0.4641038,0.31491 0.7271078,0.41776 l 0.1465658,0.74332 c 0.014842,0.0778 0.088975,0.14008 0.1681852,0.14116 h 1.3890399 c 0.07921,-0.002 0.1533322,-0.0634 0.1681845,-0.14116 l 0.1465657,-0.74332 c 0.2630044,-0.10285 0.5102112,-0.24414 0.7271082,-0.41776 l 0.7217018,0.24417 c 0.07497,0.0258 0.165738,-0.008 0.2060197,-0.076 l 0.6946763,-1.20465 c 0.03912,-0.0693 0.02217,-0.16527 -0.038153,-0.21714 L 9.0954991,291.856 c 0.020257,-0.1353 0.032753,-0.27141 0.032753,-0.41235 0,-0.14095 -0.012503,-0.27706 -0.032753,-0.41236 l 0.575136,-0.50455 c 0.060322,-0.0519 0.077272,-0.14787 0.038153,-0.21715 l -0.6946763,-1.20464 c -0.040282,-0.0683 -0.1310467,-0.10152 -0.2060197,-0.0757 l -0.7217018,0.24418 C 7.8694933,289.0998 7.6222865,288.9582 7.3592821,288.85534 l -0.1465657,-0.74332 c -0.014843,-0.0778 -0.088974,-0.13977 -0.1681845,-0.14084 H 5.6554915 c -0.0054,-1.6e-4 -0.010808,-1.6e-4 -0.016208,0 z m 0.7105748,2.0834 c 0.767157,0 1.3890387,0.62188 1.3890387,1.38904 0,0.76715 -0.6218817,1.38903 -1.3890387,1.38903 -0.7671563,0 -1.3890376,-0.62188 -1.3890376,-1.38903 0,-0.76716 0.6218813,-1.38904 1.3890376,-1.38904 z"
       id="path4081"
       inkscape:connector-curvature="0" />
    <path
       style="display:inline;opacity:0.1;fill:#ffffff;fill-opacity:1;stroke:none;stroke-width:0.17360063;enable-background:new"
       d="m 5.6393328,287.9712 c -0.073605,0.008 -0.138447,0.0682 -0.1518998,0.14104 l -0.1464757,0.74324 c -0.262956,0.10283 -0.5100964,0.24412 -0.7269537,0.41772 l -0.721527,-0.24413 c -0.074963,-0.0258 -0.1658767,0.008 -0.2061509,0.076 l -0.6944018,1.20435 c 0.00944,0.0173 0.022898,0.0304 0.03798,0.0434 l 0.027128,0.0217 0.629301,-1.09586 c 0.040275,-0.0682 0.1311914,-0.10179 0.2061509,-0.0759 l 0.7215271,0.24414 c 0.2168572,-0.1736 0.4639972,-0.3149 0.7269533,-0.41773 l 0.1464757,-0.74322 c 0.013455,-0.0728 0.078292,-0.13303 0.1518998,-0.14106 0.0054,-1.5e-4 0.01086,-1.5e-4 0.016275,0 h 1.3888047 c 0.079198,0.001 0.1533262,0.0632 0.168177,0.14106 l 0.1464757,0.74322 c 0.2629557,0.10284 0.5100957,0.24413 0.7269515,0.41773 l 0.7215285,-0.24413 c 0.074955,-0.0258 0.1658767,0.008 0.2061495,0.076 l 0.6293033,1.09586 0.027127,-0.0217 c 0.01509,-0.013 0.02853,-0.026 0.037973,-0.0434 l -0.6944033,-1.20435 c -0.040275,-0.0683 -0.1311915,-0.1018 -0.2061495,-0.0759 l -0.7215195,0.24414 c -0.2168551,-0.1736 -0.4639951,-0.3149 -0.7269507,-0.41773 l -0.1464758,-0.74323 c -0.014842,-0.0778 -0.088979,-0.13998 -0.1681747,-0.14105 H 5.6556247 c -0.0054,-1.6e-4 -0.01086,-1.6e-4 -0.01626,0 z m -2.6636832,2.45211 c 0.00323,0.0205 0.0066,0.0419 0.01626,0.0597 -0.00944,-0.0173 -0.01284,-0.0401 -0.01626,-0.0597 z m 6.7487223,0 c -0.00345,0.0196 -0.00682,0.0423 -0.01626,0.0597 0.0097,-0.0178 0.013102,-0.0392 0.01626,-0.0597 z m -6.135697,0.76492 c -0.00555,0.0557 -0.00786,0.11201 -0.01086,0.16817 9.75e-4,0.0292 0.00382,0.0577 0.0054,0.0868 0.0045,-0.0801 0.00997,-0.16038 0.021705,-0.23869 l -0.016275,-0.0163 z m 5.5226717,0 -0.016275,0.0163 c 0.011715,0.0783 0.017235,0.15859 0.021705,0.2387 0.00165,-0.0291 0.00435,-0.0575 0.0054,-0.0868 -0.00292,-0.0562 -0.00532,-0.11249 -0.01086,-0.16818 z m -5.5226717,0.68355 -0.5587755,0.48826 c -0.01509,0.013 -0.028538,0.026 -0.03798,0.0434 l 0.0651,0.10851 0.547926,-0.48283 c -0.00773,-0.0516 -0.011115,-0.10526 -0.01626,-0.15733 z m 5.5226717,0 c -0.00517,0.0521 -0.00856,0.10571 -0.016275,0.15733 l 0.5479268,0.48282 0.0651,-0.1085 c -0.00944,-0.0173 -0.022898,-0.0305 -0.03798,-0.0434 z m -6.1411232,0.63473 c 4.875e-4,0.009 0.0033,0.0179 0.0054,0.0272 -0.00225,-0.009 -0.00465,-0.0176 -0.0054,-0.0272 z m 6.7595755,0 c -8.25e-4,0.01 -0.00315,0.0179 -0.0054,0.0272 0.0021,-0.009 0.00488,-0.0177 0.0054,-0.0272 z"
       id="path4258"
       inkscape:connector-curvature="0" />
    <rect
       style="opacity:0.2;fill:#ffffff;fill-opacity:1;stroke:none;stroke-width:0.08098353;stroke-opacity:1"
       id="rect4907-6"
       width="10.914064"
       height="0.1984375"
       x="0.89296865"
       y="285.68906" />
  </g>
</svg>
