<svg version="1" viewBox="0 0 48 48" xmlns="http://www.w3.org/2000/svg">
    <defs>
        <filter id="filter828" x="-.0135" y="-.0108" width="1.027" height="1.0216" color-interpolation-filters="sRGB">
            <feGaussianBlur stdDeviation="0.135"/>
        </filter>
        <filter id="filter858" x="-.013124999" y="-.011052632" width="1.02625" height="1.0221053" color-interpolation-filters="sRGB">
            <feGaussianBlur stdDeviation="0.18421054"/>
        </filter>
    </defs>
    <path d="m34.029742 6c-2.392768 0-4.526754 0.9861335-6.11553 2.3129112-0.181454-0.1460521-0.303377-0.3285105-0.511338-0.4543586-1.19735-0.7245767-2.666381-0.9078948-3.844282-0.7421874-1.646727 0.2317462-2.989498 1.2769616-3.996246 2.4444901-0.734213-0.2679629-1.499165-0.4496407-2.271248-0.3741776-0.605321 0.059147-1.163247 0.2044004-1.669552 0.3967927-1.86034 0.7069496-3.417121 2.4959616-3.944907 4.2578126-0.488864 0.150064-1.052512 0.148122-1.460087 0.388569-1.6767901 0.9898-3.0019391 3.165741-3.0557121 5.043174-0.05378 1.877434 0.636728 3.231547 1.386159 4.298931 0.482483 0.687181 1.157616 1.139404 1.7824991 1.648849-0.3332061 0.730976-0.6481031 1.478611-0.8255341 2.310855-0.986051 4.625318 0.8892941 8.959994 3.6799951 12.347862 2.791121 3.388377 6.842791 6.120477 11.740256 6.120477 5.297061 0 9.775536-3.546844 11.321416-8.714995 0.61029-1.596885 0.248696-3.440938-0.02398-4.966621-0.746152-4.14515-1.926518-8.259593 3.188446-15.32748 0.92425-1.666476 1.846779-3.519997 1.234196-6.229441-0.306295-1.3546714-1.285931-2.8683265-2.597769-3.7006077-1.311838-0.8322813-2.705751-1.0608553-4.016782-1.0608553z" filter="url(#filter858)" opacity=".2" stroke-width="1.0526316"/>
    <path d="m34.029819 4.9999992c-2.392768 0-4.526755 0.9861335-6.115531 2.3129112-0.181453-0.1460521-0.303376-0.3285104-0.511337-0.4543585-1.197351-0.7245768-2.666382-0.9078949-3.844283-0.7421875-1.646727 0.2317462-2.989498 1.2769617-3.996246 2.4444901-0.734213-0.2679628-1.499164-0.4496406-2.271247-0.3741776-0.605321 0.059147-1.163248 0.2044005-1.669553 0.3967928-1.86034 0.7069492-3.417121 2.4959613-3.944906 4.2578133-0.488865 0.150064-1.052513 0.148122-1.460088 0.388568-1.6767889 0.9898-3.0019387 3.165741-3.0557121 5.043175-0.053773 1.877434 0.6367278 3.231546 1.3861594 4.29893 0.4824829 0.687181 1.157616 1.139405 1.7824987 1.64885-0.3332059 0.730976-0.6481027 1.47861-0.8255343 2.310855-0.9860502 4.625318 0.8892943 8.959994 3.6799963 12.347862 2.791121 3.388377 6.84279 6.120477 11.740256 6.120477 5.297061 0 9.775536-3.546844 11.321416-8.714995 0.61029-1.596885 0.248695-3.440938-0.02398-4.966621-0.746152-4.145151-1.926518-8.259594 3.188446-15.32748 0.924248-1.666476 1.846778-3.519997 1.234195-6.229441-0.306294-1.3546722-1.28593-2.8683272-2.597769-3.7006085-1.311838-0.8322813-2.70575-1.0608553-4.016781-1.0608553z" fill="#40c4ff" stroke-width="1.0526316"/>
    <path transform="matrix(1.0526316 0 0 1.0526316 -1.2630837 -.2631588)" d="m33.557133 10c-5.923526 0-7.033571 9-3.701257 9 3.331834 0 9.625026-9 3.701257-9zm-9.402559 1.021484c-3.388109 0.476268-2.196641 6.857298-0.392587 6.976563 1.80332 0.119267 3.78192-7.45283 0.392587-6.976563zm-6.129046 1.986328c-0.173052 0.01689-0.358452 0.06149-0.556653 0.136719-3.171799 1.203939-0.481915 6.173863 1.294951 5.839844 1.667152-0.312652 1.857494-6.229984-0.738298-5.976563zm-4.170017 3.992188c-0.283193-0.0081-0.589969 0.07153-0.916037 0.263672-2.607365 1.537354 0.878128 5.251759 2.412164 4.675781 1.342284-0.504198 0.486225-4.882523-1.496127-4.939453zm12.162387 3.001953c-4.667917-0.082617-10.825161 2.367201-11.875271 7.287109-1.137308 5.324191 4.682641 12.710938 10.754151 12.710938 2.98687 0 6.431785-2.822135 7.076334-6.396484 0.492271-2.72564-6.192784-1.633618-5.966933 0.169922 0.184419 1.473424-0.58664 2.239685-1.650428 2.263671-1.452386-0.176008-2.164448-1.014428-2.355523-2.28125-0.260105-3.326558 10.216715-5.697337 9.386933-10.855468-0.303492-1.886582-2.568513-2.848867-5.369263-2.898438z" filter="url(#filter828)" opacity=".2"/>
    <path d="m34.060215 9.2105256c-6.235291 0-7.403759 9.4736844-3.89606 9.4736844 3.507194 0 10.131606-9.4736844 3.89606-9.4736844zm-9.897431 1.0752464c-3.56643 0.501335-2.312254 7.218209-0.413249 7.343751 1.898231 0.125544 3.980968-7.8450844 0.413249-7.343751zm-6.451627 2.090872c-0.18216 0.01778-0.377318 0.06473-0.585951 0.143914-3.338736 1.267305-0.507279 6.498804 1.363106 6.147205 1.754897-0.329108 1.955257-6.557878-0.777155-6.291119zm-4.389492 4.202303c-0.298098-0.0085-0.62102 0.0753-0.964249 0.277549-2.7445953 1.618268 0.924345 5.528168 2.53912 4.921875 1.41293-0.530735 0.511815-5.139498-1.574871-5.199424zm12.802513 3.15995c-4.913597-0.08697-11.394907 2.491791-12.500286 7.670642-1.197166 5.604411 4.929096 13.379935 11.32016 13.379935 3.144073 0 6.7703-2.970669 7.448772-6.733142 0.51818-2.869094-6.51872-1.719598-6.280982 0.178866 0.194125 1.550972-0.617516 2.357563-1.737293 2.382811-1.528827-0.185271-2.278366-1.067819-2.479497-2.401316-0.273795-3.50164 10.754437-5.997196 9.880982-11.426808-0.319465-1.985876-2.703698-2.998808-5.651856-3.050988z" fill="#fff" stroke-width="1.0526316"/>
    <path d="m34.028858 4.9999992c-2.392768 0-4.525534 0.9861335-6.11431 2.3129112-0.181453-0.1460521-0.303963-0.3285104-0.511924-0.4543585-1.19735-0.7245768-2.666671-0.9078949-3.844572-0.7421875-1.646728 0.2317462-2.987907 1.2769617-3.994655 2.4444901-0.734213-0.2679628-1.49971-0.4496406-2.271793-0.3741776-0.605321 0.059147-1.163102 0.2044005-1.669407 0.3967928-1.86034 0.7069492-3.417528 2.4959613-3.945313 4.2578133-0.488864 0.150064-1.05213 0.148122-1.459704 0.388568-1.6767893 0.9898-3.0033816 3.165741-3.057155 5.043175-0.00795 0.277388 0.00644 0.540338 0.028783 0.795641 0.1586597-1.815861 1.4268924-3.840839 3.028372-4.786184 0.407574-0.240447 0.97084-0.238505 1.459704-0.388569 0.527785-1.761851 2.084973-3.550863 3.945313-4.2578127 0.506305-0.1923923 1.064086-0.3376455 1.669407-0.3967928 0.772083-0.075463 1.53758 0.1062148 2.271793 0.3741776 1.006748-1.1675284 2.347927-2.2127439 3.994655-2.4444901 1.177901-0.1657074 2.647222 0.01761 3.844572 0.7421875 0.207961 0.1258481 0.330471 0.3083064 0.511924 0.4543585 1.588776-1.3267777 3.721542-2.3129112 6.11431-2.3129112 1.311031 0 2.705432 0.228574 4.01727 1.0608553 1.311839 0.8322813 2.292389 2.3459863 2.598684 3.7006589 0.09119 0.403329 0.138317 0.781655 0.166529 1.149259 0.04926-0.672507 0.01583-1.395332-0.166529-2.2018915-0.306295-1.3546722-1.286845-2.8683767-2.598684-3.700658-1.311838-0.8322813-2.706239-1.0608553-4.01727-1.0608553zm-24.031662 20.006168c-0.19828 0.487241-0.3783158 0.985588-0.493421 1.525494-0.2193243 1.028794-0.2890997 2.041724-0.246711 3.03454 0.028907-0.653877 0.1043074-1.313933 0.246711-1.981909 0.1774315-0.832244 0.4932737-1.579879 0.8264795-2.310854-0.110049-0.08972-0.221218-0.179505-0.3330585-0.267271zm25.565378 1.605675c-0.08539 2.086819 0.329006 3.920114 0.65995 5.758635 0.132444 0.741052 0.280219 1.558401 0.333059 2.384868 0.07783-1.173533-0.144324-2.381485-0.333059-3.4375-0.274135-1.522925-0.602326-3.043376-0.65995-4.706003z" fill="#fff" opacity=".2" stroke-width="1.0526316"/>
</svg>
