<?xml version="1.0" encoding="UTF-8" standalone="no"?>
<svg
   xmlns:dc="http://purl.org/dc/elements/1.1/"
   xmlns:cc="http://creativecommons.org/ns#"
   xmlns:rdf="http://www.w3.org/1999/02/22-rdf-syntax-ns#"
   xmlns:svg="http://www.w3.org/2000/svg"
   xmlns="http://www.w3.org/2000/svg"
   xmlns:sodipodi="http://sodipodi.sourceforge.net/DTD/sodipodi-0.dtd"
   xmlns:inkscape="http://www.inkscape.org/namespaces/inkscape"
   width="48"
   height="48"
   version="1.1"
   viewBox="0 0 48 48"
   id="svg14"
   sodipodi:docname="distributor-logo-q4os1.svg"
   inkscape:version="0.92.1 r15371"
   inkscape:export-filename="/home/john/Nextcloud/Q4OS Stuff/distributor-logo-q4os1.png"
   inkscape:export-xdpi="96"
   inkscape:export-ydpi="96">
  <metadata
     id="metadata20">
    <rdf:RDF>
      <cc:Work
         rdf:about="">
        <dc:format>image/svg+xml</dc:format>
        <dc:type
           rdf:resource="http://purl.org/dc/dcmitype/StillImage" />
        <dc:title />
        <cc:license
           rdf:resource="https://www.gnu.org/licenses/old-licenses/gpl-2.0.txt" />
      </cc:Work>
    </rdf:RDF>
  </metadata>
  <defs
     id="defs18">
    <filter
       inkscape:collect="always"
       style="color-interpolation-filters:sRGB"
       id="filter4680"
       x="-0.012"
       width="1.024"
       y="-0.012"
       height="1.024">
      <feGaussianBlur
         inkscape:collect="always"
         stdDeviation="0.28"
         id="feGaussianBlur4682" />
    </filter>
    <filter
       inkscape:collect="always"
       style="color-interpolation-filters:sRGB"
       id="filter4581"
       x="-0.025686956"
       width="1.0513739"
       y="-0.025686956"
       height="1.0513739">
      <feGaussianBlur
         inkscape:collect="always"
         stdDeviation="0.12373124"
         id="feGaussianBlur4583" />
    </filter>
    <filter
       inkscape:collect="always"
       style="color-interpolation-filters:sRGB"
       id="filter4593"
       x="-0.026076165"
       width="1.0521523"
       y="-0.026076165"
       height="1.0521523">
      <feGaussianBlur
         inkscape:collect="always"
         stdDeviation="3.3095"
         id="feGaussianBlur4595" />
    </filter>
    <filter
       inkscape:collect="always"
       style="color-interpolation-filters:sRGB"
       id="filter4597"
       x="-0.027900904"
       width="1.0558018"
       y="-0.027901008"
       height="1.055802">
      <feGaussianBlur
         inkscape:collect="always"
         stdDeviation="3.3095004"
         id="feGaussianBlur4599" />
    </filter>
    <filter
       inkscape:collect="always"
       style="color-interpolation-filters:sRGB"
       id="filter4601"
       x="-0.026084729"
       width="1.0521695"
       y="-0.026205213"
       height="1.0524104">
      <feGaussianBlur
         inkscape:collect="always"
         stdDeviation="3.3095"
         id="feGaussianBlur4603" />
    </filter>
    <filter
       inkscape:collect="always"
       style="color-interpolation-filters:sRGB"
       id="filter4605"
       x="-0.026222516"
       width="1.052445"
       y="-0.026213861"
       height="1.0524277">
      <feGaussianBlur
         inkscape:collect="always"
         stdDeviation="3.3095"
         id="feGaussianBlur4607" />
    </filter>
  </defs>
  <sodipodi:namedview
     pagecolor="#ffffff"
     bordercolor="#666666"
     borderopacity="1"
     objecttolerance="10"
     gridtolerance="10"
     guidetolerance="10"
     inkscape:pageopacity="0"
     inkscape:pageshadow="2"
     inkscape:window-width="1366"
     inkscape:window-height="703"
     id="namedview16"
     showgrid="false"
     inkscape:zoom="11.291667"
     inkscape:cx="10.927259"
     inkscape:cy="21.60628"
     inkscape:window-x="-3"
     inkscape:window-y="-4"
     inkscape:window-maximized="1"
     inkscape:current-layer="svg14" />
  <circle
     id="circle2"
     r="28"
     cy="97"
     cx="32"
     style="opacity:0.2;filter:url(#filter4680)"
     transform="matrix(0.75,0,0,0.75,0,-48)" />
  <circle
     id="circle4"
     r="21"
     cy="24"
     cx="24"
     style="fill:#448aff;fill-opacity:1;stroke-width:0.75" />
  <path
     inkscape:connector-curvature="0"
     id="path6"
     d="M 24,3 A 21,21 0 0 0 3,24 21,21 0 0 0 3.016125,24.4395 21,21 0 0 1 24,3.75 21,21 0 0 1 44.98425,24.3105 21,21 0 0 0 45,24 21,21 0 0 0 24,3 Z"
     style="opacity:0.2;fill:#ffffff;stroke-width:0.75" />
  <path
     style="fill:#000000;filter:url(#filter4593);opacity:0.2"
     inkscape:connector-curvature="0"
     class="st2"
     d="M 229.2,357.4 H 0 C 12.8,519.7 142.3,649.2 304.6,662 V 430.7 c -36.4,-9.2 -65.2,-37.3 -75.4,-73.3 z"
     id="path8-3-6"
     transform="matrix(0.03795331,0,0,0.03795317,11.441249,12.1875)" />
  <path
     style="fill:#000000;filter:url(#filter4601);opacity:0.2"
     inkscape:connector-curvature="0"
     class="st3"
     d="M 304.6,226.9 V 0 C 142.8,12.8 13.6,141.5 0.1,303.1 h 228.3 c 9.4,-37.4 38.8,-66.8 76.2,-76.2 z"
     id="path12-6-6"
     transform="matrix(0.03795331,0,0,0.03795317,11.441249,12.1875)" />
  <path
     style="fill:#000000;filter:url(#filter4605);opacity:0.2"
     inkscape:connector-curvature="0"
     class="st4"
     d="M 432.1,303.1 H 661.8 C 648.5,142 520,13.5 358.9,0.1 v 227.6 c 36,10.2 64.1,39 73.2,75.4 z"
     id="path16-9-6"
     transform="matrix(0.03795331,0,0,0.03795317,11.441249,12.1875)" />
  <rect
     style="fill:#000000;stroke-width:0.9999904;filter:url(#filter4597);opacity:0.2"
     x="-403.55606"
     y="-159.68494"
     transform="matrix(0.02683704,-0.02683694,0.02683704,0.02683694,39.990247,22.679521)"
     class="st5"
     width="142.49863"
     height="260.0975"
     id="rect22-1-1" />
  <path
     style="fill:#fafafa;stroke-width:0.03795317;filter:url(#filter4581)"
     inkscape:connector-curvature="0"
     class="st2"
     d="m 20.140118,25.001963 h -8.698867 c 0.485801,6.159799 5.400736,11.074735 11.560536,11.560536 V 27.78393 C 21.620291,27.434761 20.52724,26.368277 20.140118,25.001963 Z"
     id="path8-3" />
  <path
     style="fill:#fafafa;stroke-width:0.03795317"
     inkscape:connector-curvature="0"
     class="st3"
     d="M 23.001787,20.049074 V 11.4375 c -6.140823,0.485801 -11.044373,5.370374 -11.556741,11.503606 h 8.664709 c 0.35676,-1.419449 1.472583,-2.535272 2.892032,-2.892032 z"
     id="path12-6" />
  <path
     style="fill:#fafafa;stroke-width:0.03795317"
     inkscape:connector-curvature="0"
     class="st4"
     d="m 27.840816,22.941106 h 8.717843 C 36.053882,16.82685 31.176899,11.949868 25.062644,11.441295 v 8.638142 c 1.366314,0.387122 2.432798,1.480173 2.778172,2.861669 z"
     id="path16-9" />
  <rect
     style="fill:#fafafa;stroke-width:0.0379528"
     x="-2.5454407"
     y="37.723267"
     transform="rotate(-45)"
     class="st5"
     width="5.4082737"
     height="9.8715229"
     id="rect22-1" />
</svg>
