<svg version="1" viewBox="0 0 48 48" xmlns="http://www.w3.org/2000/svg">
    <defs>
        <style id="current-color-scheme" type="text/css">.ColorScheme-Text { color:#5c616c; } .ColorScheme-Highlight { color:#5294e2; } .ColorScheme-ButtonBackground { color:#d3dae3; }</style>
        <filter id="filter946" x="-.013058829" y="-.011099996" width="1.0261177" height="1.0222" color-interpolation-filters="sRGB">
            <feGaussianBlur stdDeviation="0.18500002"/>
        </filter>
    </defs>
    <g transform="translate(0,1)" filter="url(#filter946)" opacity=".2">
        <circle cx="12" cy="21" r="5" stroke-width="1.6666666"/>
        <circle cx="12" cy="40" r="5" stroke-width="1.6666666"/>
        <path d="m37.674371 5.0041539a3.1640184 3.1968623 0 0 0-2.811492 2.0946098l-12.654809 33.563696a3.1644541 3.1973026 0 1 0 5.913405 2.278787l12.654809-33.563697a3.1640184 3.1968623 0 0 0-3.101913-4.3733961z" color="#000000" color-rendering="auto" dominant-baseline="auto" image-rendering="auto" opacity="1" shape-rendering="auto" solid-color="#000000" style="font-feature-settings:normal;font-variant-alternates:normal;font-variant-caps:normal;font-variant-ligatures:normal;font-variant-numeric:normal;font-variant-position:normal;isolation:auto;mix-blend-mode:normal;shape-padding:0;text-decoration-color:#000000;text-decoration-line:none;text-decoration-style:solid;text-indent:0;text-orientation:mixed;text-transform:none;white-space:normal"/>
    </g>
    <g fill="#555">
        <circle cx="12" cy="21" r="5" stroke-width="1.6666666"/>
        <circle cx="12" cy="40" r="5" stroke-width="1.6666666"/>
        <path d="m37.674371 5.0041539a3.1640184 3.1968623 0 0 0-2.811492 2.0946098l-12.654809 33.563696a3.1644541 3.1973026 0 1 0 5.913405 2.278787l12.654809-33.563697a3.1640184 3.1968623 0 0 0-3.101913-4.3733961z" color="#000000" color-rendering="auto" dominant-baseline="auto" image-rendering="auto" shape-rendering="auto" solid-color="#000000" style="font-feature-settings:normal;font-variant-alternates:normal;font-variant-caps:normal;font-variant-ligatures:normal;font-variant-numeric:normal;font-variant-position:normal;isolation:auto;mix-blend-mode:normal;shape-padding:0;text-decoration-color:#000000;text-decoration-line:none;text-decoration-style:solid;text-indent:0;text-orientation:mixed;text-transform:none;white-space:normal"/>
    </g>
</svg>
