<?xml version="1.0" encoding="UTF-8" standalone="no"?>
<!-- Created with Inkscape (http://www.inkscape.org/) -->

<svg
   xmlns:osb="http://www.openswatchbook.org/uri/2009/osb"
   xmlns:dc="http://purl.org/dc/elements/1.1/"
   xmlns:cc="http://creativecommons.org/ns#"
   xmlns:rdf="http://www.w3.org/1999/02/22-rdf-syntax-ns#"
   xmlns:svg="http://www.w3.org/2000/svg"
   xmlns="http://www.w3.org/2000/svg"
   xmlns:sodipodi="http://sodipodi.sourceforge.net/DTD/sodipodi-0.dtd"
   xmlns:inkscape="http://www.inkscape.org/namespaces/inkscape"
   version="1.1"
   id="svg2"
   width="48"
   height="48"
   viewBox="0 0 48 48"
   sodipodi:docname="konqueror.svg"
   inkscape:version="0.92.1 r15371"
   inkscape:export-filename="/home/john/Nextcloud/Q4OS Stuff/tdevelop.png"
   inkscape:export-xdpi="96"
   inkscape:export-ydpi="96">
  <metadata
     id="metadata8">
    <rdf:RDF>
      <cc:Work
         rdf:about="">
        <dc:format>image/svg+xml</dc:format>
        <dc:type
           rdf:resource="http://purl.org/dc/dcmitype/StillImage" />
        <dc:title></dc:title>
      </cc:Work>
    </rdf:RDF>
  </metadata>
  <defs
     id="defs6">
    <linearGradient
       id="linearGradient5460"
       osb:paint="gradient">
      <stop
         style="stop-color:#e6e6e6;stop-opacity:1"
         offset="0"
         id="stop5462" />
      <stop
         style="stop-color:#ffffff;stop-opacity:1"
         offset="1"
         id="stop5464" />
    </linearGradient>
    <linearGradient
       id="linearGradient5476"
       osb:paint="solid">
      <stop
         style="stop-color:#772953;stop-opacity:1;"
         offset="0"
         id="stop5478" />
    </linearGradient>
    <filter
       inkscape:collect="always"
       style="color-interpolation-filters:sRGB"
       id="filter4937"
       x="-0.012042032"
       width="1.0240841"
       y="-0.01195826"
       height="1.0239165">
      <feGaussianBlur
         inkscape:collect="always"
         stdDeviation="0.30348912"
         id="feGaussianBlur4939" />
    </filter>
    <filter
       inkscape:collect="always"
       style="color-interpolation-filters:sRGB"
       id="filter4978"
       x="-0.012000001"
       width="1.024"
       y="-0.011999999"
       height="1.024">
      <feGaussianBlur
         inkscape:collect="always"
         stdDeviation="0.20500001"
         id="feGaussianBlur4980" />
    </filter>
    <filter
       inkscape:collect="always"
       style="color-interpolation-filters:sRGB"
       id="filter4518"
       x="-0.012"
       width="1.024"
       y="-0.012"
       height="1.024">
      <feGaussianBlur
         inkscape:collect="always"
         stdDeviation="0.16"
         id="feGaussianBlur4520" />
    </filter>
  </defs>
  <sodipodi:namedview
     pagecolor="#ffffff"
     bordercolor="#666666"
     borderopacity="1"
     objecttolerance="10"
     gridtolerance="10"
     guidetolerance="10"
     inkscape:pageopacity="0"
     inkscape:pageshadow="2"
     inkscape:window-width="1366"
     inkscape:window-height="703"
     id="namedview4"
     showgrid="false"
     fit-margin-top="0"
     fit-margin-left="0"
     fit-margin-right="0"
     fit-margin-bottom="0"
     showguides="true"
     inkscape:zoom="11.291667"
     inkscape:cx="24"
     inkscape:cy="24"
     inkscape:window-x="-3"
     inkscape:window-y="-4"
     inkscape:window-maximized="1"
     inkscape:current-layer="svg2"
     inkscape:snap-grids="true" />
  <path
     style="opacity:0.2;fill:#000000;fill-opacity:1;stroke-width:0.74765211;filter:url(#filter4937)"
     d="m 14.748245,2.0955137 c -0.137284,0.01413 -0.269875,0.07488 -0.372984,0.178589 l -4.7716906,4.770836 c -0.200621,0.201195 -0.238416,0.513188 -0.09051,0.756798 l 5.5866226,9.2011093 c -0.990846,1.665794 -1.785008,3.461826 -2.352602,5.356506 L 2.4909444,24.492641 c -0.285356,0.05906 -0.490946,0.311937 -0.490946,0.604771 v 6.747153 c 0,0.285346 0.195222,0.532488 0.470176,0.598951 l 9.9545766,2.433187 c 0.530845,2.194352 1.353461,4.274488 2.440679,6.186405 l -5.7619096,8.78657 c -0.160756,0.245559 -0.127157,0.569054 0.08054,0.775899 l 4.7700176,4.770864 c 0.200622,0.200065 0.513821,0.239343 0.758458,0.09212 l 9.029145,-5.483608 c 1.773594,1.023465 3.68634,1.828868 5.707914,2.375062 l 2.106713,10.129007 C 31.615608,62.796037 31.869288,63 32.160248,63 h 6.74798 c 0.28368,0 0.53124,-0.193566 0.59895,-0.471875 l 2.48137,-10.149775 c 2.08387,-0.562385 4.05477,-1.400594 5.871559,-2.470573 l 8.89788,5.834174 c 0.24466,0.161069 0.56823,0.128855 0.7759,-0.07884 l 4.7717,-4.770864 c 0.20184,-0.20176 0.23798,-0.513781 0.0897,-0.75677 l -6.07321,-7.692716 c -2.72646,-3.739762 -2.38842,-3.356667 -3.38377,-4.419334 -3.1987,6.260328 -9.706589,10.548523 -17.221739,10.548523 -10.677092,0 -19.333459,-8.656556 -19.333459,-19.334272 0,-7.854911 4.685091,-14.610147 11.410842,-17.636265 V 6.6137597 c -1.224073,0.428218 -2.407438,0.944515 -3.53142,1.556775 -8.23e-4,-7.64e-4 -0.0017,-0.0028 -0.0048,-0.0057 l -9.107213,-5.973228 c -0.122655,-0.08026 -0.264811,-0.112184 -0.402064,-0.09805 z"
     id="path5692_2_-3-2"
     inkscape:connector-curvature="0"
     sodipodi:nodetypes="cccccccssccccccccccsscccccccccssccccccc"
     transform="scale(0.75)" />
  <path
     style="fill:#d4d4d4;fill-opacity:1;stroke-width:0.5607391"
     d="m 11.061185,0.82163475 c -0.102963,0.0105945 -0.202406,0.056163 -0.279738,0.13394167 L 7.202679,4.5337033 C 7.0522132,4.6845998 7.023867,4.9185946 7.1347965,5.101302 l 4.1899675,6.900832 c -0.743135,1.249345 -1.3387562,2.596369 -1.7644518,4.017379 L 1.8682095,17.61948 C 1.6541925,17.663775 1.5,17.853433 1.5,18.073058 v 5.060365 c 0,0.21401 0.1464165,0.399366 0.352632,0.449213 l 7.4659328,1.824891 c 0.3981337,1.645764 1.0150962,3.205866 1.8305092,4.639804 l -4.3214325,6.589928 c -0.120567,0.184169 -0.095368,0.42679 0.060405,0.581924 l 3.5775135,3.578148 c 0.150466,0.150049 0.385366,0.179507 0.568844,0.06909 l 6.771858,-4.112706 c 1.330196,0.767599 2.764754,1.371651 4.280935,1.781296 l 1.580032,7.596755 C 23.711689,46.347028 23.90197,46.5 24.120183,46.5 h 5.060989 c 0.212759,0 0.398431,-0.145174 0.449213,-0.353906 l 1.861024,-7.612332 c 1.562903,-0.421788 3.041078,-1.050445 4.403669,-1.852929 l 6.673416,4.37563 c 0.183491,0.120802 0.426167,0.09664 0.581922,-0.05913 l 3.578772,-3.578148 c 0.151383,-0.15132 0.17849,-0.385336 0.06727,-0.567577 l -4.554904,-5.769537 c -2.044843,-2.804822 -1.791314,-2.5175 -2.537827,-3.314501 -2.399024,4.695246 -7.279944,7.911392 -12.916308,7.911392 -8.007815,0 -14.50009,-6.492417 -14.50009,-14.500704 0,-5.891184 3.513818,-10.95761 8.55813,-13.2271982 V 4.2103197 c -0.918054,0.3211631 -1.805577,0.7083858 -2.648564,1.1675807 -6.17e-4,-5.725e-4 -0.0013,-0.0021 -0.0036,-0.00428 L 11.362883,0.89369685 c -0.09199,-0.060193 -0.198609,-0.0841377 -0.301549,-0.0735413 z"
     id="path5692_2_-3"
     inkscape:connector-curvature="0"
     sodipodi:nodetypes="cccccccssccccccccccsscccccccccssccccccc" />
  <ellipse
     style="opacity:0.2;fill:#000000;fill-opacity:1;stroke:none;stroke-width:0.62231982;stroke-opacity:0;filter:url(#filter4978)"
     id="path5219-3-8"
     cx="36"
     cy="28.999998"
     rx="20.5"
     ry="20.500002"
     transform="scale(0.75)" />
  <ellipse
     style="opacity:1;fill:#3689e6;fill-opacity:1;stroke-width:0.75"
     id="path5219-3"
     cx="27.000004"
     cy="20.999998"
     rx="15.375"
     ry="15.375002" />
  <path
     inkscape:connector-curvature="0"
     style="opacity:0.2;fill:#ffffff;stroke-width:0.54910517"
     d="M 27.000044,5.6249725 A 15.374942,15.374942 0 0 0 11.625101,20.999929 15.374942,15.374942 0 0 0 11.636732,21.32181 15.374942,15.374942 0 0 1 26.999871,6.1742396 15.374942,15.374942 0 0 1 42.363284,21.227368 15.374942,15.374942 0 0 0 42.374915,20.99998 15.374942,15.374942 0 0 0 26.999973,5.6250219 Z"
     id="path5512-1" />
  <path
     inkscape:connector-curvature="0"
     style="opacity:0.2;fill:#000000;stroke-width:2.00017476;filter:url(#filter4518)"
     class="ColorScheme-Text"
     d="m 36.234415,13.001658 a 16.002416,16.000378 0 0 0 -11.54862,4.687612 16.002416,16.000378 0 0 0 0,22.625535 16.002416,16.000378 0 0 0 22.628418,0 16.002416,16.000378 0 0 0 0,-22.625535 16.002416,16.000378 0 0 0 -11.079798,-4.687612 z m -0.437566,2.000048 a 14.002115,14.000332 0 0 1 9.360787,3.429769 l -2.809016,2.80866 A 16.001397,10.000873 44.991678 0 0 31.499324,15.75563 14.002115,14.000332 0 0 1 35.796849,15.001706 Z m -6.055602,2.613344 a 14.001223,8.0006986 44.992816 0 1 11.189189,5.043086 l -4.930432,4.929805 -9.102937,-9.101777 a 14.001223,8.0006986 44.992816 0 1 2.84418,-0.871114 z m 16.842386,2.218802 a 14.002115,14.000332 0 0 1 2.67228,13.621415 16.001397,10.000873 44.991678 0 0 -5.500831,-10.793224 z m -21.104748,0.06251 9.106843,9.105684 -4.934339,4.93371 a 14.001223,8.0006986 44.992816 0 1 -4.172504,-14.0394 z m 16.869735,4.171972 a 14.001223,8.0006986 44.992816 0 1 4.172504,14.039394 l -9.106843,-9.105682 z m -19.604524,0.480482 a 16.001397,10.000873 44.991678 0 0 5.500831,10.793223 l -2.828551,2.828192 a 14.002115,14.000332 0 0 1 -2.67228,-13.621415 z m 13.255908,5.867324 9.102938,9.101779 A 14.001223,8.0006986 44.992816 0 1 31.069573,35.345943 Z m -6.348615,6.347807 a 16.001397,10.000873 44.991678 0 0 10.849296,5.484507 14.002115,14.000332 0 0 1 -13.658314,-2.675847 z"
     id="path5-3"
     transform="scale(0.75)" />
  <path
     inkscape:connector-curvature="0"
     style="opacity:1;fill:#fafafa;stroke-width:1.50013113"
     class="ColorScheme-Text"
     d="m 27.175811,9.001242 a 12.001812,12.000284 0 0 0 -8.661465,3.515709 12.001812,12.000284 0 0 0 0,16.969151 12.001812,12.000284 0 0 0 16.971314,0 12.001812,12.000284 0 0 0 0,-16.969151 12.001812,12.000284 0 0 0 -8.309849,-3.515709 z m -0.328174,1.500036 a 10.501586,10.500249 0 0 1 7.02059,2.572327 L 31.761465,15.1801 a 12.001048,7.5006548 44.991678 0 0 -8.136972,-4.113379 10.501586,10.500249 0 0 1 3.223144,-0.565443 z m -4.541702,1.960008 A 10.500917,6.0005239 44.992816 0 1 30.697827,16.2436 L 27.000003,19.940954 20.1728,13.114622 a 10.500917,6.0005239 44.992816 0 1 2.133135,-0.653336 z m 12.63179,1.664102 a 10.501586,10.500249 0 0 1 2.00421,10.216061 12.001048,7.5006548 44.991678 0 0 -4.125623,-8.094918 z m -15.828561,0.04688 6.830132,6.829263 -3.700754,3.700283 a 10.500917,6.0005239 44.992816 0 1 -3.129378,-10.52955 z m 12.652301,3.128979 a 10.500917,6.0005239 44.992816 0 1 3.129378,10.529545 l -6.830132,-6.829261 z m -14.703393,0.360362 a 12.001048,7.5006548 44.991678 0 0 4.125623,8.094917 l -2.121413,2.121144 a 10.501586,10.500249 0 0 1 -2.00421,-10.216061 z m 9.941931,4.400492 6.827204,6.826335 A 10.500917,6.0005239 44.992816 0 1 23.30218,25.759456 Z m -4.761461,4.760856 a 12.001048,7.5006548 44.991678 0 0 8.136972,4.11338 10.501586,10.500249 0 0 1 -10.243736,-2.006885 z"
     id="path5" />
</svg>
