<svg version="1" viewBox="0 0 48 48" xmlns="http://www.w3.org/2000/svg">
    <defs>
        <filter id="filter845" x="-.012666722" y="-.011399955" width="1.0253334" height="1.0227999" color-interpolation-filters="sRGB">
            <feGaussianBlur stdDeviation="0.19000083"/>
        </filter>
    </defs>
    <path d="m24.108302 6.0009966a4.5656761 4.5479 0 0 0-2.39104 0.6067l-13.434224 7.7260004a4.5656761 4.5479 0 0 0-2.283038 3.939v15.453a4.5656761 4.5479 0 0 0 2.282838 3.9386l13.434224 7.7264a4.5656761 4.5479 0 0 0 4.565676 0l13.434224-7.7264a4.5656761 4.5479 0 0 0 2.283038-3.939v-15.453a4.5656761 4.5479 0 0 0-2.283038-3.939l-13.434224-7.7260004a4.5656761 4.5479 0 0 0-2.175036-0.6067z" filter="url(#filter845)" opacity=".2"/>
    <path d="m6.0078125 16.945011c-0.00453 0.07609-0.00713 0.15229-0.00781 0.228515v15.552898c4.687e-4 1.624491 0.8707782 3.125384 2.2832031 3.9375l13.433593 7.726563c1.412812 0.812684 3.153595 0.812684 4.566406 0l13.433592-7.726563c1.413032-0.812465 2.283435-2.314264 2.283203-3.939453v-15.550945c-0.0022-0.05735-0.0054-0.11465-0.0098-0.171876 0.0098-0.001788-35.982388-0.056639-35.982388-0.056639z" fill="#fbc02d"/>
    <path d="m23.892578 4.999862c-0.04192 9.654e-4 -0.08319 0.00766-0.125 0.00977a4.5691466 4.5479 0 0 1 0.232422-0.0058638v-0.00391zm-0.421875 0.035156c-0.07183 0.00832-0.143605 0.015661-0.214844 0.027344a4.5691466 4.5479 0 0 1 0.214844-0.027344zm-1.193359 0.3007813c-0.06377 0.025813-0.124872 0.057237-0.1875 0.085937a4.5691466 4.5479 0 0 1 0.1875-0.085937zm-14.435547 8.2832037c-0.046917 0.03464-0.091328 0.07115-0.1367188 0.107421a4.5691466 4.5479 0 0 1 0.1367188-0.107421zm-0.4082031 0.341797c-0.043151 0.04045-0.08551 0.08105-0.1269532 0.123046a4.5691466 4.5479 0 0 1 0.1269532-0.123046zm-0.3828126 0.40625c-0.027235 0.03266-0.055747 0.06427-0.082031 0.09766a4.5691466 4.5479 0 0 1 0.082031-0.09766zm-0.6367187 0.998046c-0.011313 0.0244-0.020367 0.04961-0.03125 0.07422a4.5691466 4.5479 0 0 1 0.03125-0.07422zm-0.1894531 0.484375c-0.01412 0.04273-0.026202 0.0857-0.039063 0.128907a4.5691466 4.5479 0 0 1 0.039063-0.128907zm-0.1445313 0.550782c-0.0051 0.0261-0.010976 0.05189-0.015625 0.07813a4.5691466 4.5479 0 0 1 0.015625-0.07813zm-0.078125 0.599609c-3.53e-4 0.0059-0.00162 0.01165-0.00195 0.01758 0.0019 0.01824 0.00376 0.03647 0.00586 0.05469-0.0021037 0.033848-0.0045631 0.067668-0.0058631 0.101558v15.550781c-2.32e-4 1.625189 0.8701711 3.126988 2.2832031 3.939453l13.433594 7.726563c0.701794 0.40369 1.499954 0.606775 2.283203 0.609375v-16.003906a4.5691466 4.5479 0 0 1-2.285156-0.605469l-13.44336-7.726563a4.5691466 4.5479 0 0 1-2.2695313-3.664062z" opacity=".1"/>
    <path d="m24.107504 4.999862v0.00195a4.5691466 4.5479 0 0 0-2.392443 0.6054719l-13.443805 7.7265621a4.5691466 4.5479 0 0 0-2.2712563 3.646485 4.5691466 4.5479 0 0 0 2.2712563 3.683593l13.443805 7.726563a4.5691466 4.5479 0 0 0 4.569877 0l13.443806-7.726563a4.5691466 4.5479 0 0 0 2.271256-3.646484 4.5691466 4.5479 0 0 0-2.271256-3.683594l-13.443806-7.7265621a4.5691466 4.5479 0 0 0-2.177434-0.6074219z" fill="#f9a825"/>
    <path d="m24 4.999862v23.978516a4.5691466 4.5479 0 0 0 2.285156-0.605469l13.44336-7.726563a4.5691466 4.5479 0 0 0 2.269531-3.636718c-0.01068-0.185959-0.03355-0.369996-0.06641-0.550782a4.5691466 4.5479 0 0 0 0-0.0078c-9.76e-4 -0.0053-0.0029-0.01032-0.0039-0.01563-0.03277-0.17503-0.07434-0.347093-0.126953-0.515625a4.5691466 4.5479 0 0 0-0.0039-0.01563c-0.0019-0.0061-0.0058-0.01145-0.0078-0.01758-0.341063-1.063296-1.06696-1.97972-2.060546-2.552735l-13.443382-7.7265621c-0.663302-0.3809196-1.412153-0.5897919-2.177734-0.6074219z" opacity=".07000002"/>
    <path d="m24.107422 4.999862v0.00195a4.5691466 4.5479 0 0 0-2.392578 0.6054719l-13.44336 7.7265621a4.5691466 4.5479 0 0 0-2.2714844 3.646485 4.5691466 4.5479 0 0 0 0.0625 0.513672 4.5691466 4.5479 0 0 1 2.2089844-3.160157l13.44336-7.7265621a4.5691466 4.5479 0 0 1 2.392578-0.6054688v-0.00195a4.5691466 4.5479 0 0 1 2.177734 0.6074219l13.44336 7.7265621a4.5691466 4.5479 0 0 1 2.208984 3.1679659 4.5691466 4.5479 0 0 0 0.0625-0.484375 4.5691466 4.5479 0 0 0-2.271484-3.683594l-13.44336-7.7265621a4.5691466 4.5479 0 0 0-2.177734-0.6074219z" fill="#fff" opacity=".2"/>
    <path d="m6.0625 16.494003a4.5691466 4.5479 0 0 0-0.0625 0.486328 4.5691466 4.5479 0 0 0 2.2714844 3.683593l13.44336 7.726563a4.5691466 4.5479 0 0 0 4.570312 0l13.44336-7.726563a4.5691466 4.5479 0 0 0 2.271484-3.646484 4.5691466 4.5479 0 0 0-0.0625-0.513672 4.5691466 4.5479 0 0 1-2.208984 3.160156l-13.44336 7.726563a4.5691466 4.5479 0 0 1-4.570312 0l-13.44336-7.726563a4.5691466 4.5479 0 0 1-2.2089844-3.169921z" opacity=".1"/>
</svg>
