<svg version="1" viewBox="0 0 48 48" xmlns="http://www.w3.org/2000/svg">
    <defs>
        <filter id="filter4728" x="-.020222222" y="-.029513514" width="1.0404444" height="1.059027" color-interpolation-filters="sRGB">
            <feGaussianBlur stdDeviation="0.455"/>
        </filter>
        <filter id="filter4851" x="-.018782608" y="-.03323077" width="1.0375652" height="1.0664614" color-interpolation-filters="sRGB">
            <feGaussianBlur stdDeviation="0.35999999"/>
        </filter>
    </defs>
    <rect transform="scale(.75)" x="5.000001" y="14.000003" width="54" height="37" rx="2.6999998" ry="2.6428571" filter="url(#filter4728)" opacity=".2" stroke-width="1.3356378"/>
    <g transform="matrix(.75 0 0 .75 -7.3262787e-7 .87500025)" stroke-width="1.3356378">
        <rect x="5.000001" y="11.833333" width="54" height="37" rx="2.6999998" ry="2.6428571" fill="#78909c"/>
        <path d="m7.700004 11.833333c-1.4958 0-2.7 1.178714-2.7 2.642857v1.321429c0-1.464143 1.2042-2.642858 2.7-2.642858h48.599997c1.4958 0 2.7 1.178715 2.7 2.642858v-1.321429c0-1.464143-1.2042-2.642857-2.7-2.642857z" fill="#fff" opacity=".1"/>
    </g>
    <g transform="matrix(.75 0 0 .75 6.4692465 -.90136148)" filter="url(#filter4851)" opacity=".2">
        <rect x="8.374341" y="41.035149" width="30" height="6" rx="0" ry="1" stroke-width="1.2247448"/>
        <g transform="translate(-8.6256586,1.0351507)" style="">
            <rect x="9" y="20" width="6" height="6" ry="1" opacity="1"/>
            <rect x="17" y="20" width="6" height="6" ry="1" opacity="1"/>
            <rect x="25" y="20" width="6" height="6" ry="1" opacity="1"/>
            <rect x="33" y="20" width="6" height="6" ry="1" opacity="1"/>
            <rect x="41" y="20" width="6" height="6" ry="1" opacity="1"/>
            <rect x="49" y="20" width="6" height="6" ry="1" opacity="1"/>
        </g>
        <g transform="translate(-8.6256586,1.0351507)" style="">
            <rect x="9" y="31" width="6" height="6" ry="1" opacity="1"/>
            <rect x="17" y="31" width="6" height="6" ry="1" opacity="1"/>
            <rect x="25" y="31" width="6" height="6" ry="1" opacity="1"/>
            <rect x="33" y="31" width="6" height="6" ry="1" opacity="1"/>
            <rect x="41" y="31" width="6" height="6" ry="1" opacity="1"/>
            <rect x="49" y="31" width="6" height="6" ry="1" opacity="1"/>
        </g>
    </g>
    <g transform="matrix(.75 0 0 .75 2.25e-6 -.87499995)" fill="#fafafa">
        <rect x="9" y="20" width="6" height="6" ry="1"/>
        <rect x="17" y="20" width="6" height="6" ry="1"/>
        <rect x="25" y="20" width="6" height="6" ry="1"/>
        <rect x="33" y="20" width="6" height="6" ry="1"/>
        <rect x="41" y="20" width="6" height="6" ry="1"/>
        <rect x="49" y="20" width="6" height="6" ry="1"/>
    </g>
    <g fill="#fafafa">
        <g>
            <rect x="6.750001" y="22.375" width="4.5" height="4.5" ry=".75"/>
            <rect x="12.750002" y="22.375" width="4.5" height="4.5" ry=".75"/>
            <rect x="18.750002" y="22.375" width="4.5" height="4.5" ry=".75"/>
            <rect x="24.75" y="22.375" width="4.5" height="4.5" ry=".75"/>
            <rect x="30.75" y="22.375" width="4.5" height="4.5" ry=".75"/>
            <rect x="36.75" y="22.375" width="4.5" height="4.5" ry=".75" stroke="#d50000" stroke-width=".75"/>
        </g>
        <rect x="12.750002" y="29.125" width="22.5" height="4.5" rx="0" ry=".75" stroke="#d50000" stroke-width=".75"/>
    </g>
    <path d="m39 27v4.5" fill="none" stroke="#d50000" stroke-width=".75px"/>
    <path d="m35.25 31.875h4.125" fill="none" stroke="#d50000" stroke-width=".75px"/>
</svg>
