<?xml version="1.0" encoding="UTF-8"?>
<!-- Created with Inkscape (http://www.inkscape.org/) -->
<svg width="48" height="48" version="1.1" viewBox="0 0 12.7 12.7" xml:space="preserve" xmlns="http://www.w3.org/2000/svg"><defs><filter id="filter897" x="-.012" y="-.012" width="1.024" height="1.024" color-interpolation-filters="sRGB"><feGaussianBlur stdDeviation="0.058210626"/></filter></defs><circle cx="6.3503" cy="6.6148" r="5.8211" filter="url(#filter897)" opacity=".2" stroke-width=".11376"/><circle cx="6.3502" cy="6.3502" r="5.8211" fill="#673ab7" stroke-width=".11376"/><path d="m8.3771 3.3878a1.0394 1.0394 0 0 0-1.0394 1.0394 1.0394 1.0394 0 0 0 0.018476 0.19145l-2.2224 1.1326a1.0394 1.0394 0 0 0-0.8104-0.38857 1.0394 1.0394 0 0 0-1.0394 1.0394 1.0394 1.0394 0 0 0 1.0394 1.0394 1.0394 1.0394 0 0 0 0.86446-0.46307l2.1605 1.1489a1.0394 1.0394 0 0 0-0.010556 0.14577 1.0394 1.0394 0 0 0 1.0394 1.0394 1.0394 1.0394 0 0 0 1.0394-1.0394 1.0394 1.0394 0 0 0-1.0394-1.0394 1.0394 1.0394 0 0 0-0.76377 0.33458l-2.2513-1.197a1.0394 1.0394 0 0 0-0.00204-0.04182l2.286-1.1645a1.0394 1.0394 0 0 0 0.73108 0.30169 1.0394 1.0394 0 0 0 1.0394-1.0394 1.0394 1.0394 0 0 0-1.0394-1.0394z" fill="#fff" stroke-width=".10394"/></svg>
