<svg width="48" height="48" version="1.1" viewBox="0 0 12.7 12.7" xmlns="http://www.w3.org/2000/svg">
    <defs>
        <filter id="filter4602" x="-.012" y="-.012" width="1.024" height="1.024" color-interpolation-filters="sRGB">
            <feGaussianBlur stdDeviation="0.041010418"/>
        </filter>
        <filter id="filter4697" x="-.010947374" y="-.013276588" width="1.0218947" height="1.0265532" color-interpolation-filters="sRGB">
            <feGaussianBlur stdDeviation="0.06879171"/>
        </filter>
    </defs>
    <g transform="translate(-8.9009608e-7,-284.29999)">
        <path transform="matrix(.75000004 0 0 .75000004 5.5631005e-7 74.249987)" d="m1.6928457 294.61376c-0.01659-2e-3 -0.06412-0.012-0.1056124-0.022-0.341213-0.082-0.60374047-0.36057-0.65337117-0.69327-0.0083-0.0558-0.01055-0.72692-0.0084-3.9706l3e-3 -4.42377 0.02775-0.0841c0.10258327-0.31066 0.35133087-0.53038 0.67331307-0.59472 0.05958-0.0119 0.334573-0.0139 1.8921279-0.014 1.0023273-8e-5 1.8279064-4e-3 1.8346194-8e-3 0.0094-6e-3 0.01292-0.22785 0.01528-0.96727l0.0031-0.95987 0.02258-0.0764c0.09478-0.32088 0.36825-0.55567 0.706258-0.60633 0.09046-0.0135 4.6369555-0.0135 4.7274155 0 0.33802 0.0507 0.611684 0.28562 0.706211 0.60633l0.02253 0.0764 0.0032 0.9599c0.0025 0.73749 0.0059 0.96161 0.01533 0.96726 0.0066 4e-3 0.832249 8e-3 1.834576 8e-3 1.979827 1.6e-4 1.876215-3e-3 2.031088 0.0527 0.102823 0.0366 0.198169 0.0942 0.282908 0.17066 0.130341 0.11761 0.211303 0.24622 0.25645 0.40739l0.02275 0.0812v8.38526l-0.02206 0.0764c-0.09459 0.32774-0.362534 0.56337-0.707169 0.62191-0.06262 0.0107-1.220083 0.0126-6.8145225 0.0117-3.706494-6e-4 -6.7526597-3e-3 -6.7692557-5e-3zm8.7658353-10.06108c0.08015-0.0359 0.115817-0.0686 0.153065-0.14046l0.03302-0.0637v-1.10914l-0.03302-0.0638c-0.03725-0.0718-0.07292-0.10459-0.153065-0.14044l-0.05532-0.0248h-3.8724567l-0.05532 0.0248c-0.08015 0.0359-0.115816 0.0686-0.153065 0.14044l-0.03302 0.0638v1.10872l0.02606 0.0525c0.01433 0.0289 0.03772 0.0657 0.05198 0.0816 0.03221 0.0362 0.113686 0.0791 0.17064 0.0899 0.02366 5e-3 0.903012 8e-3 1.954107 7e-3l1.9110827-2e-3z" filter="url(#filter4697)" opacity=".2" stroke-width=".00980322"/>
        <g>
            <path d="m1.2696347 295.01188c-0.012442-2e-3 -0.04809-9e-3 -0.079209-0.0165-0.25590972-0.0615-0.45280536-0.27042-0.4900284-0.51995-0.006225-0.0419-0.007912-0.54519-0.0063-2.97794l0.00225-3.31784 0.0208123-0.0631c0.0769375-0.233 0.26349821-0.39779 0.5049848-0.44605 0.044685-9e-3 0.2509298-0.0104 1.419096-0.0105 0.7517456-6e-5 1.37093-3e-3 1.3759647-6e-3 0.00705-4e-3 0.00969-0.17089 0.01146-0.72545l0.00232-0.7199 0.016935-0.0573c0.071084-0.24066 0.2761875-0.41676 0.5296933-0.45475 0.067844-0.0101 3.4777165-0.0101 3.5455615 0 0.2535144 0.038 0.4587623 0.21421 0.5296576 0.45475l0.016898 0.0573 0.0024 0.71992c0.00188 0.55312 0.00442 0.72121 0.011497 0.72545 0.00495 3e-3 0.6241868 6e-3 1.3759315 6e-3 1.484871 1.2e-4 1.407162-2e-3 1.523316 0.0395 0.07712 0.0274 0.148627 0.0707 0.212181 0.12799 0.09776 0.0882 0.158478 0.18466 0.192338 0.30555l0.01706 0.0609v6.28894l-0.01654 0.0573c-0.07094 0.24581-0.2719 0.42253-0.530376 0.46644-0.04697 8e-3 -0.915063 9e-3 -5.1108909 9e-3 -2.7798711-4.6e-4 -5.0644952-2e-3 -5.0769421-4e-3zm6.574377-7.54581c0.060112-0.0269 0.086863-0.0514 0.1147988-0.10534l0.024765-0.0478v-0.83185l-0.024765-0.0479c-0.027938-0.0539-0.05469-0.0784-0.1147988-0.10534l-0.04149-0.0186h-2.9043426l-0.04149 0.0186c-0.060112 0.0269-0.086862 0.0515-0.1147988 0.10534l-0.024765 0.0479v0.83154l0.019545 0.0394c0.010747 0.0217 0.02829 0.0493 0.038985 0.0612 0.024157 0.0272 0.085265 0.0593 0.12798 0.0674 0.017745 4e-3 0.6772589 6e-3 1.4655802 5e-3l1.4333122-1e-3z" fill="#8d6e63" stroke-width=".00735242"/>
            <circle transform="matrix(.75000004 0 0 .75000004 5.5631005e-7 74.249987)" cx="12.303124" cy="292.13907" r="4.1010418" filter="url(#filter4602)" opacity=".2"/>
            <circle cx="9.2273445" cy="293.22968" r="3.0757816" fill="#2196f3"/>
        </g>
        <g transform="matrix(.22040476 0 0 .22040476 -90.836416 246.06305)" fill="#fafafa">
            <path d="m456 206v6h2.5l-4.5 7-4.5-7h2.5v-6zm-8 14h12v2h-12z" fill="#fafafa"/>
        </g>
    </g>
</svg>
