<svg width="48" height="48" version="1.1" viewBox="0 0 12.7 12.700001" xmlns="http://www.w3.org/2000/svg" xmlns:xlink="http://www.w3.org/1999/xlink">
    <defs>
        <style id="current-color-scheme" type="text/css">.ColorScheme-Text { color:#5c616c; } .ColorScheme-Highlight { color:#5294e2; } .ColorScheme-ButtonBackground { color:#d3dae3; }</style>
        <style type="text/css">.ColorScheme-Text { color:#5c616c; } .ColorScheme-Highlight { color:#5294e2; } .ColorScheme-ButtonBackground { color:#d3dae3; }</style>
        <style type="text/css">.str0 {stroke:#4D4948;stroke-width:0.0123919}
    .str1 {stroke:#838281;stroke-width:0.229479;stroke-linecap:round}
    .fil2 {fill:none}
    .fil0 {fill:#4D4948}
    .fil1 {fill:white;fill-rule:nonzero}</style>
        <style type="text/css">.str0 {stroke:#4D4948;stroke-width:0.221746}
    .str1 {stroke:#00923F;stroke-width:0.887173}
    .str2 {stroke:#E77817;stroke-width:0.887173;stroke-linecap:round}
    .fil2 {fill:none}
    .fil0 {fill:#4D4948}
    .fil1 {fill:#B6DDC7}</style>
        <style type="text/css">.ColorScheme-Text { color:#5c616c; } .ColorScheme-Highlight { color:#5294e2; } .ColorScheme-ButtonBackground { color:#d3dae3; }</style>
        <style type="text/css">.ColorScheme-Text { color:#5c616c; } .ColorScheme-Highlight { color:#5294e2; } .ColorScheme-ButtonBackground { color:#d3dae3; }</style>
        <style type="text/css">.ColorScheme-Text { color:#5c616c; } .ColorScheme-Highlight { color:#5294e2; } .ColorScheme-ButtonBackground { color:#d3dae3; }</style>
        <style type="text/css">.str0 {stroke:#4D4948;stroke-width:0.0123919}
    .str1 {stroke:#838281;stroke-width:0.229479;stroke-linecap:round}
    .fil2 {fill:none}
    .fil0 {fill:#4D4948}
    .fil1 {fill:white;fill-rule:nonzero}</style>
        <style type="text/css">.str0 {stroke:#4D4948;stroke-width:0.221746}
    .str1 {stroke:#00923F;stroke-width:0.887173}
    .str2 {stroke:#E77817;stroke-width:0.887173;stroke-linecap:round}
    .fil2 {fill:none}
    .fil0 {fill:#4D4948}
    .fil1 {fill:#B6DDC7}</style>
        <style type="text/css">.ColorScheme-Text { color:#5c616c; } .ColorScheme-Highlight { color:#5294e2; } .ColorScheme-ButtonBackground { color:#d3dae3; }</style>
        <style type="text/css">.ColorScheme-Text { color:#5c616c; } .ColorScheme-Highlight { color:#5294e2; } .ColorScheme-ButtonBackground { color:#d3dae3; }</style>
        <style type="text/css">.ColorScheme-Text { color:#5c616c; } .ColorScheme-Highlight { color:#5294e2; } .ColorScheme-ButtonBackground { color:#d3dae3; }</style>
        <style type="text/css">.str0 {stroke:#4D4948;stroke-width:0.0123919}
    .str1 {stroke:#838281;stroke-width:0.229479;stroke-linecap:round}
    .fil2 {fill:none}
    .fil0 {fill:#4D4948}
    .fil1 {fill:white;fill-rule:nonzero}</style>
        <style type="text/css">.str0 {stroke:#4D4948;stroke-width:0.221746}
    .str1 {stroke:#00923F;stroke-width:0.887173}
    .str2 {stroke:#E77817;stroke-width:0.887173;stroke-linecap:round}
    .fil2 {fill:none}
    .fil0 {fill:#4D4948}
    .fil1 {fill:#B6DDC7}</style>
        <style type="text/css">.ColorScheme-Text { color:#5c616c; } .ColorScheme-Highlight { color:#5294e2; } .ColorScheme-ButtonBackground { color:#d3dae3; }</style>
        <linearGradient id="linearGradient5030" x1="22.06193" x2="33.436172" y1="284.30051" y2="295.67596" gradientTransform="matrix(.7443111 0 0 .7443196 -15.957308 76.195646)" gradientUnits="userSpaceOnUse">
            <stop stop-color="#fafafa" offset="0"/>
            <stop stop-color="#fafafa" stop-opacity=".75" offset="1"/>
        </linearGradient>
        <filter id="filter6359" x="-.012000068" y="-.011999932" width="1.024" height="1.0239999" color-interpolation-filters="sRGB">
            <feGaussianBlur stdDeviation="0.044310021"/>
        </filter>
        <filter id="filter4712" x="-.014194412" y="-.010393238" width="1.0283889" height="1.0207865" color-interpolation-filters="sRGB">
            <feGaussianBlur stdDeviation="0.068744557"/>
        </filter>
    </defs>
    <g transform="translate(0,-284.29999)">
        <g transform="matrix(.75000008 0 0 .75000008 .00244545 74.249948)" fill-rule="evenodd" filter="url(#filter4712)" opacity=".2" stroke-width=".06393424">
            <path d="m16.382357 281.35231-1.495934 0.94827-10.127184-1.00754 2.0599613-0.69663 9.5632833 0.7559z"/>
            <path d="m5.2371479 294.21649 9.1298091 2.25241 0.533596-14.16847-10.138053-1.00805 0.4743921 12.9243z"/>
            <path d="m14.343494 296.47086 1.500536-2.31378 0.538582-12.80539-1.496189 0.9486z"/>
        </g>
        <g fill-rule="evenodd" stroke-width=".04794967">
            <path d="m12.288846 285.06518-1.121903 0.7112-7.5950675-0.75565 1.5449058-0.52248 7.1721597 0.56693z" fill="#1e88e5"/>
            <path d="m3.9302917 294.71332 6.8470683 1.6893 0.40018-10.62635-7.6032191-0.75604 0.3557791 9.69323z" fill="#64b5f6"/>
            <path d="m10.759763 296.40409 1.125355-1.73533 0.403919-9.60404-1.122094 0.71145z" fill="#1e88e5"/>
        </g>
        <g fill-rule="evenodd" stroke-width=".04794967">
            <path d="m3.8631636 292.87402 0.068595 1.84241 6.8441924 1.68825 0.07571-2.02558-6.9885179-1.50508z" fill="#cfd8dc"/>
            <path d="m10.775634 296.40166c0.370979-0.5607 0.741958-1.1214 1.112937-1.68211 0.0247-0.62991 0.04938-1.25983 0.07408-1.88974-0.370467 0.51525-0.740935 1.03049-1.111402 1.54574-0.02519 0.67537-0.05048 1.35075-0.07562 2.02611z" fill="#90a4ae"/>
            <path d="m3.5841943 285.30942 0.080412 2.19452 7.4018847 0.90146 0.0936-2.38396-7.5757965-0.71202z" fill="#cfd8dc"/>
            <path d="m11.066156 288.4054c0.373424-0.28847 0.746847-0.57693 1.120272-0.86541 0.03128-0.75514 0.06255-1.51029 0.09384-2.26543-0.374015 0.24896-0.748031 0.49792-1.122047 0.74688-0.0307 0.79462-0.0613 1.58954-0.09206 2.38396z" fill="#90a4ae"/>
        </g>
        <ellipse transform="matrix(.75000008 0 0 .75000008 0 74.249982)" cx="4.69556" cy="292.30438" rx="4.4309769" ry="4.4310274" filter="url(#filter6359)" opacity=".2"/>
        <ellipse cx="3.5216706" cy="293.27985" rx="3.3232329" ry="3.3232708" fill="#2196f3"/>
        <g transform="matrix(.75000008 0 0 .75000008 0 74.249982)">
            <ellipse cx="4.69556" cy="292.03979" rx="4.2340446" ry="4.2340932" fill="url(#linearGradient5030)"/>
            <ellipse cx="4.69556" cy="292.03979" rx="1.0831277" ry="1.08314" fill="#3689e6" opacity=".2"/>
            <ellipse cx="4.69556" cy="292.03979" rx=".68926311" ry=".68927097" fill="#3689e6"/>
            <ellipse cx="4.69556" cy="292.03979" rx=".49233076" ry=".49233639" fill="#fafafa"/>
        </g>
    </g>
</svg>
