<svg width="48" height="48" version="1.1" viewBox="0 0 12.7 12.7" xmlns="http://www.w3.org/2000/svg">
    <defs>
        <filter id="filter866" x="-.014322361" y="-.010325696" width="1.0286447" height="1.0206514" color-interpolation-filters="sRGB">
            <feGaussianBlur stdDeviation="0.036711562"/>
        </filter>
    </defs>
    <g transform="translate(0,-284.29999)">
        <path d="m8.185592 285.82129a2.2820523 2.2820321 0 0 0-2.282052 2.28203 2.2820523 2.2820321 0 0 0 0.8224379 1.75377c-0.9347514 1.13762-1.9480948 2.66691-1.511937 3.54474 0.4392854 0.88413 1.6972668 0.9546 2.9599237 0.95227 1.2626562-2e-3 2.5300454-0.0775 2.9878284-0.95227 0.432821-0.82708-0.625057-2.32325-1.6223955-3.46451a2.2820523 2.2820321 0 0 0 0.9282465-1.834 2.2820523 2.2820321 0 0 0-2.282052-2.28203z" opacity=".2"/>
        <path d="m4.5144264 287.93796a2.2820523 2.2820321 0 0 0-2.282052 2.28203 2.2820523 2.2820321 0 0 0 0.8224379 1.75377c-0.9347514 1.13762-1.9480948 2.66691-1.511937 3.54474 0.4392854 0.88413 1.6972668 0.9546 2.9599237 0.95227 1.2626562-2e-3 2.5300451-0.0775 2.9878288-0.95227 0.4328209-0.82708-0.6250572-2.32325-1.6223959-3.46451a2.2820523 2.2820321 0 0 0 0.9282462-1.834 2.2820523 2.2820321 0 0 0-2.2820517-2.28203z" filter="url(#filter866)" opacity=".2"/>
        <path d="m8.1855919 285.55671a2.2820318 2.2820321 0 0 0-2.2820315 2.28203 2.2820318 2.2820321 0 0 0 0.8224306 1.75377c-0.9347431 1.13762-1.9480772 2.66691-1.5119233 3.54474 0.4392814 0.88413 1.6972513 0.9546 2.959897 0.95227 1.2626445-2e-3 2.5300213-0.0775 2.9878023-0.95227 0.432816-0.82707-0.625052-2.32325-1.6223815-3.46451a2.2820318 2.2820321 0 0 0 0.9282375-1.834 2.2820318 2.2820321 0 0 0-2.2820311-2.28203z" fill="#8bc34a"/>
        <path d="m8.1855987 285.55682a2.2820232 2.2820232 0 0 0-2.2820229 2.28203 2.2820232 2.2820232 0 0 0 0.00172 0.0478 2.2820232 2.2820232 0 0 1 2.2802709-2.24827 2.2820232 2.2820232 0 0 1 2.2803113 2.23426 2.2820232 2.2820232 0 0 0 0.0017-0.0337 2.2820232 2.2820232 0 0 0-2.2820228-2.28203z" fill="#fff" opacity=".2" stroke-width=".08150084"/>
        <g transform="matrix(.75000008 0 0 .75001275 -.04956509 74.643113)" fill="#03a9f4">
            <path d="m6.085321 284.03559a3.0426379 3.0426381 0 0 0-3.0426374 3.04264 3.0426379 3.0426381 0 0 0 1.0965483 2.3383c-1.2462947 1.51679-2.5973754 3.55581-2.0158506 4.72622 0.5856949 1.17881 2.262949 1.27277 3.946437 1.26966 1.6834873-3e-3 3.3732845-0.10331 3.9836437-1.26966 0.577075-1.10275-0.8333835-3.0976-2.1631253-4.61925a3.0426379 3.0426381 0 0 0 1.2376216-2.44527 3.0426379 3.0426381 0 0 0-3.0426373-3.04264z"/>
            <path d="m6.0853295 284.03576a3.0426262 3.0426262 0 0 0-3.0426261 3.04263 3.0426262 3.0426262 0 0 0 0.0023 0.0637 3.0426262 3.0426262 0 0 1 3.0402902-2.99763 3.0426262 3.0426262 0 0 1 3.0403448 2.97894 3.0426262 3.0426262 0 0 0 0.0023-0.045 3.0426262 3.0426262 0 0 0-3.0426267-3.04263z" opacity=".2" stroke-width=".10866524"/>
        </g>
        <path d="m4.5143882 287.67343a2.2820231 2.2820231 0 0 0-2.282023 2.28203 2.2820231 2.2820231 0 0 0 0.00172 0.0478 2.2820231 2.2820231 0 0 1 2.280271-2.24827 2.2820231 2.2820231 0 0 1 2.2803114 2.23426 2.2820231 2.2820231 0 0 0 0.00173-0.0337 2.2820231 2.2820231 0 0 0-2.2820229-2.28203z" fill="#fff" opacity=".2" stroke-width=".08150084"/>
    </g>
</svg>
