<?xml version="1.0" encoding="UTF-8" standalone="no"?>
<!-- Created with Inkscape (http://www.inkscape.org/) -->

<svg
   xmlns:dc="http://purl.org/dc/elements/1.1/"
   xmlns:cc="http://creativecommons.org/ns#"
   xmlns:rdf="http://www.w3.org/1999/02/22-rdf-syntax-ns#"
   xmlns:svg="http://www.w3.org/2000/svg"
   xmlns="http://www.w3.org/2000/svg"
   xmlns:sodipodi="http://sodipodi.sourceforge.net/DTD/sodipodi-0.dtd"
   xmlns:inkscape="http://www.inkscape.org/namespaces/inkscape"
   version="1.1"
   id="svg2"
   width="48"
   height="48"
   viewBox="0 0 48 48"
   sodipodi:docname="tdenetworkmanager.svg"
   inkscape:version="0.92.1 r15371"
   inkscape:export-filename="/home/john/Nextcloud/Q4OS Stuff/tdevelop.png"
   inkscape:export-xdpi="96"
   inkscape:export-ydpi="96">
  <metadata
     id="metadata8">
    <rdf:RDF>
      <cc:Work
         rdf:about="">
        <dc:format>image/svg+xml</dc:format>
        <dc:type
           rdf:resource="http://purl.org/dc/dcmitype/StillImage" />
        <dc:title></dc:title>
      </cc:Work>
    </rdf:RDF>
  </metadata>
  <defs
     id="defs6">
    <filter
       inkscape:collect="always"
       style="color-interpolation-filters:sRGB"
       id="filter4587"
       x="-0.012"
       width="1.024"
       y="-0.012"
       height="1.024">
      <feGaussianBlur
         inkscape:collect="always"
         stdDeviation="0.27500001"
         id="feGaussianBlur4589" />
    </filter>
    <filter
       inkscape:collect="always"
       style="color-interpolation-filters:sRGB"
       id="filter4606"
       x="-0.012"
       width="1.024"
       y="-0.012"
       height="1.024">
      <feGaussianBlur
         inkscape:collect="always"
         stdDeviation="0.215"
         id="feGaussianBlur4608" />
    </filter>
  </defs>
  <sodipodi:namedview
     pagecolor="#ffffff"
     bordercolor="#666666"
     borderopacity="1"
     objecttolerance="10"
     gridtolerance="10"
     guidetolerance="10"
     inkscape:pageopacity="0"
     inkscape:pageshadow="2"
     inkscape:window-width="1366"
     inkscape:window-height="703"
     id="namedview4"
     showgrid="false"
     fit-margin-top="0"
     fit-margin-left="0"
     fit-margin-right="0"
     fit-margin-bottom="0"
     showguides="true"
     inkscape:zoom="11.291667"
     inkscape:cx="24"
     inkscape:cy="24"
     inkscape:window-x="-3"
     inkscape:window-y="-4"
     inkscape:window-maximized="1"
     inkscape:current-layer="svg2"
     inkscape:snap-grids="true" />
  <ellipse
     style="opacity:0.2;fill:#000000;fill-opacity:1;stroke-width:1.34146345;filter:url(#filter4587)"
     id="path5219-3-6"
     cx="32"
     cy="33"
     rx="27.5"
     ry="27.500002"
     transform="scale(0.75)" />
  <ellipse
     style="opacity:1;fill:#3a9104;fill-opacity:1;stroke-width:1.00609756"
     id="path5219-3"
     cx="24"
     cy="24.000017"
     rx="20.625"
     ry="20.625002" />
  <path
     inkscape:connector-curvature="0"
     style="opacity:0.2;fill:#ffffff;stroke-width:0.73660445"
     d="M 24.000054,3.3749818 A 20.624922,20.624922 0 0 0 3.3751318,23.999924 20.624922,20.624922 0 0 0 3.3907344,24.431715 20.624922,20.624922 0 0 1 23.999823,4.1118035 20.624922,20.624922 0 0 1 44.609279,24.305025 20.624922,20.624922 0 0 0 44.624882,23.999992 20.624922,20.624922 0 0 0 23.99996,3.3750481 Z"
     id="path5512-1" />
  <path
     inkscape:connector-curvature="0"
     style="opacity:0.2;fill:#000000;stroke-width:2.68773484;filter:url(#filter4606)"
     class="ColorScheme-Text"
     d="m 32.314991,11.502228 a 21.503246,21.500507 0 0 0 -15.51846,6.298979 21.503246,21.500507 0 0 0 0,30.403062 21.503246,21.500507 0 0 0 30.406938,0 21.503246,21.500507 0 0 0 0,-30.403062 21.503246,21.500507 0 0 0 -14.888478,-6.298979 z m -0.587979,2.687564 a 18.815342,18.812946 0 0 1 12.578557,4.608752 l -3.774614,3.774137 a 21.501877,13.438673 44.991678 0 0 -14.578742,-7.369804 18.815342,18.812946 0 0 1 5.774799,-1.013085 z m -8.137215,3.511681 A 18.814143,10.750938 44.992816 0 1 38.62527,24.478119 L 32.000002,31.102545 19.76793,18.872033 a 18.814143,10.750938 44.992816 0 1 3.821867,-1.17056 z m 22.631956,2.981515 A 18.815342,18.812946 0 0 1 49.81263,38.986765 21.501877,13.438673 44.991678 0 0 42.420888,24.48337 Z m -28.359505,0.084 12.237321,12.235763 -6.630518,6.629673 A 18.814143,10.750938 44.992816 0 1 17.862248,20.766978 Z m 22.668707,5.606085 a 18.814143,10.750938 44.992816 0 1 5.606802,18.865436 L 33.900436,33.002749 Z m -26.34358,0.645648 a 21.501877,13.438673 44.991678 0 0 7.391743,14.503393 l -3.800867,3.800383 A 18.815342,18.812946 0 0 1 14.187375,27.018721 Z m 17.812627,7.884217 12.232073,12.230515 A 18.814143,10.750938 44.992816 0 1 25.374736,41.52736 Z m -8.530951,8.529866 A 21.501877,13.438673 44.991678 0 0 38.047793,50.802609 18.815342,18.812946 0 0 1 19.694432,47.20694 Z"
     id="path5-7"
     transform="scale(0.75)" />
  <path
     inkscape:connector-curvature="0"
     style="opacity:1;fill:#fafafa;stroke-width:2.01580119"
     class="ColorScheme-Text"
     d="m 24.236243,7.876671 a 16.127434,16.12538 0 0 0 -11.638845,4.724234 16.127434,16.12538 0 0 0 0,22.802297 16.127434,16.12538 0 0 0 22.805203,0 16.127434,16.12538 0 0 0 0,-22.802297 16.127434,16.12538 0 0 0 -11.166358,-4.724234 z m -0.440985,2.015673 a 14.111507,14.10971 0 0 1 9.433918,3.456564 l -2.830961,2.830603 A 16.126408,10.079005 44.991678 0 0 19.464159,10.652158 14.111507,14.10971 0 0 1 23.795258,9.892344 Z m -6.102911,2.633761 a 14.110607,8.0632035 44.992816 0 1 11.276605,5.082484 l -4.968951,4.96832 -9.174053,-9.172884 a 14.110607,8.0632035 44.992816 0 1 2.866399,-0.87792 z m 16.973967,2.236136 a 14.111507,14.10971 0 0 1 2.693158,13.727833 16.126408,10.079005 44.991678 0 0 -5.543807,-10.877547 z m -21.269628,0.063 9.17799,9.176822 -4.972889,4.972255 A 14.110607,8.0632035 44.992816 0 1 13.396686,14.825234 Z m 17.001529,4.204564 a 14.110607,8.0632035 44.992816 0 1 4.205102,14.149077 l -9.177991,-9.17682 z m -19.757684,0.484236 a 16.126408,10.079005 44.991678 0 0 5.543807,10.877545 l -2.85065,2.850287 A 14.111507,14.10971 0 0 1 10.640531,19.514041 Z m 13.35947,5.913163 9.174054,9.172886 A 14.110607,8.0632035 44.992816 0 1 19.031051,30.39552 Z m -6.398214,6.397399 a 16.126408,10.079005 44.991678 0 0 10.934057,5.527354 14.111507,14.10971 0 0 1 -13.76502,-2.696752 z"
     id="path5" />
</svg>
