<?xml version="1.0" encoding="UTF-8" standalone="no"?>
<!-- Created with Inkscape (http://www.inkscape.org/) -->

<svg
   xmlns:dc="http://purl.org/dc/elements/1.1/"
   xmlns:cc="http://creativecommons.org/ns#"
   xmlns:rdf="http://www.w3.org/1999/02/22-rdf-syntax-ns#"
   xmlns:svg="http://www.w3.org/2000/svg"
   xmlns="http://www.w3.org/2000/svg"
   xmlns:sodipodi="http://sodipodi.sourceforge.net/DTD/sodipodi-0.dtd"
   xmlns:inkscape="http://www.inkscape.org/namespaces/inkscape"
   width="48"
   height="48"
   viewBox="0 0 12.7 12.7"
   version="1.1"
   id="svg8"
   inkscape:version="0.92.1 r15371"
   sodipodi:docname="tdmconfig.svg"
   inkscape:export-filename="/home/john/Github/gui-art/icons_debonaire/drafts/jb/system-users.png"
   inkscape:export-xdpi="144"
   inkscape:export-ydpi="144">
  <defs
     id="defs2">
    <filter
       inkscape:collect="always"
       style="color-interpolation-filters:sRGB"
       id="filter4491"
       x="-0.014322437"
       width="1.0286449"
       y="-0.010325656"
       height="1.0206513">
      <feGaussianBlur
         inkscape:collect="always"
         stdDeviation="0.0580549"
         id="feGaussianBlur4493" />
    </filter>
  </defs>
  <sodipodi:namedview
     id="base"
     pagecolor="#ffffff"
     bordercolor="#666666"
     borderopacity="1.0"
     inkscape:pageopacity="0.0"
     inkscape:pageshadow="2"
     inkscape:zoom="11.125"
     inkscape:cx="8.494382"
     inkscape:cy="24"
     inkscape:document-units="mm"
     inkscape:current-layer="layer1"
     showgrid="false"
     units="px"
     inkscape:window-width="1362"
     inkscape:window-height="695"
     inkscape:window-x="0"
     inkscape:window-y="0"
     inkscape:window-maximized="1"
     fit-margin-top="0"
     fit-margin-left="0"
     fit-margin-right="0"
     fit-margin-bottom="0" />
  <metadata
     id="metadata5">
    <rdf:RDF>
      <cc:Work
         rdf:about="">
        <dc:format>image/svg+xml</dc:format>
        <dc:type
           rdf:resource="http://purl.org/dc/dcmitype/StillImage" />
        <dc:title />
      </cc:Work>
    </rdf:RDF>
  </metadata>
  <g
     inkscape:label="Layer 1"
     inkscape:groupmode="layer"
     id="layer1"
     transform="translate(-4.4504802e-7,-284.29998)">
    <path
       inkscape:connector-curvature="0"
       style="opacity:0.2;fill:#000000;stroke:none;stroke-width:0.09689156px;stroke-linecap:butt;stroke-linejoin:miter;stroke-opacity:1;filter:url(#filter4491)"
       d="m 8.4667373,282.05103 a 3.6087705,3.6087707 0 0 0 -3.6087697,3.60878 3.6087705,3.6087707 0 0 0 1.3005789,2.77338 c -1.4781881,1.799 -3.0806597,4.21742 -2.3909324,5.60561 0.6946726,1.39814 2.6840072,1.50958 4.680736,1.50589 1.9967279,-0.003 4.0009399,-0.12252 4.7248659,-1.50589 0.68445,-1.30793 -0.988448,-3.67396 -2.56561,-5.47874 a 3.6087705,3.6087707 0 0 0 1.467902,-2.90025 3.6087705,3.6087707 0 0 0 -3.6087707,-3.60878 z"
       id="path5217-2-7"
       transform="matrix(0.75000004,0,0,0.75000004,1.1126199e-7,74.249984)" />
    <path
       inkscape:connector-curvature="0"
       style="fill:#9575cd;stroke:none;stroke-width:0.07266869px;stroke-linecap:butt;stroke-linejoin:miter;stroke-opacity:1;fill-opacity:1"
       d="m 6.3500534,285.58983 a 2.7065785,2.7065787 0 0 0 -2.706578,2.70658 2.7065785,2.7065787 0 0 0 0.9754345,2.08003 c -1.1086414,1.34926 -2.3104952,3.16308 -1.7931999,4.20421 0.5210049,1.04861 2.0130063,1.13219 3.510553,1.12943 1.4975465,-0.003 3.0007053,-0.0919 3.5436501,-1.12943 C 10.39325,293.5997 9.138577,291.82518 7.9557052,290.4716 a 2.7065785,2.7065787 0 0 0 1.1009263,-2.17519 2.7065785,2.7065787 0 0 0 -2.7065781,-2.70658 z"
       id="path5217-2" />
    <path
       inkscape:connector-curvature="0"
       style="opacity:0.2;fill:#ffffff;stroke-width:0.09666316"
       d="m 6.350061,285.58998 a 2.7065681,2.7065681 0 0 0 -2.706568,2.70657 2.7065681,2.7065681 0 0 0 0.00205,0.0567 2.7065681,2.7065681 0 0 1 2.7044901,-2.66654 2.7065681,2.7065681 0 0 1 2.704539,2.64992 2.7065681,2.7065681 0 0 0 0.00204,-0.04 2.7065681,2.7065681 0 0 0 -2.7065686,-2.70657 z"
       id="path5512-7" />
  </g>
</svg>
