<svg width="48" height="48" version="1.1" viewBox="0 0 12.7 12.7" xmlns="http://www.w3.org/2000/svg">
    <defs>
        <filter id="filter844" x="-.014322434" y="-.010325658" width="1.0286449" height="1.0206513" color-interpolation-filters="sRGB">
            <feGaussianBlur stdDeviation="0.04553325"/>
        </filter>
    </defs>
    <g transform="translate(-4.4504802e-7,-284.29998)">
        <path d="m6.350056 285.88749a2.8304088 2.830409 0 0 0-2.830408 2.83041 2.8304088 2.830409 0 0 0 1.020062 2.17519c-1.159364 1.41099-2.416204 3.3078-1.875242 4.39656 0.544842 1.09659 2.105105 1.18399 3.671167 1.1811 1.566061-3e-3 3.137992-0.0961 3.705777-1.1811 0.536823-1.02583-0.775253-2.88154-2.012243-4.29704a2.8304088 2.830409 0 0 0 1.151296-2.27471 2.8304088 2.830409 0 0 0-2.830409-2.83041z" filter="url(#filter844)" opacity=".2"/>
        <path d="m6.3500559 285.6229a2.8304088 2.830409 0 0 0-2.8304082 2.83041 2.8304088 2.830409 0 0 0 1.0200621 2.17519c-1.1593635 1.41099-2.416204 3.3078-1.8752416 4.39656 0.5448417 1.09659 2.1051045 1.18399 3.6711664 1.1811 1.5660616-3e-3 3.1379924-0.0961 3.7057774-1.1811 0.536823-1.02583-0.7752531-2.88154-2.0122431-4.29704a2.8304088 2.830409 0 0 0 1.1512954-2.27471 2.8304088 2.830409 0 0 0-2.8304084-2.83041z" fill="#9575cd"/>
        <path d="m6.3500639 285.62305a2.8303979 2.8303979 0 0 0-2.8303978 2.8304 2.8303979 2.8303979 0 0 0 0.00214 0.0593 2.8303979 2.8303979 0 0 1 2.8282248-2.78854 2.8303979 2.8303979 0 0 1 2.828276 2.77116 2.8303979 2.8303979 0 0 0 0.00213-0.0418 2.8303979 2.8303979 0 0 0-2.8303984-2.8304z" fill="#fff" opacity=".2" stroke-width=".10108566"/>
    </g>
</svg>
