<svg version="1.1" viewBox="0 0 22 22" xmlns="http://www.w3.org/2000/svg">
    <defs>
        <style id="current-color-scheme" type="text/css">.ColorScheme-Text { color:#5c616c; } .ColorScheme-Highlight { color:#5294e2; } .ColorScheme-ButtonBackground { color:#d3dae3; }</style>
    </defs>
    <path class="ColorScheme-Text" transform="translate(3 3)" d="m1 0.99804688v2.1816406c6.5264 0 11.818359 5.2893593 11.818359 11.81836h2.179688c0-7.7326425-6.2676533-13.998934-13.998047-14zm0 4.3613281v2.1835938c4.1174 0 7.4550781 3.3373782 7.4550781 7.4550782h2.1816409c0-5.3218002-4.315119-9.638672-9.636719-9.638672zm2.0898438 5.460937c-1.1546002 0-2.0898438 0.936567-2.0898438 2.091797 0 1.1529 0.9352037 2.091797 2.0898438 2.091797 1.1546398 0 2.0917968-0.938887 2.0917968-2.091797 0-1.1553-0.937157-2.091796-2.0917968-2.091797z" fill="#d50000"/>
</svg>
