<svg enable-background="new" version="1.1" viewBox="0 0 22 22" xmlns="http://www.w3.org/2000/svg">
    <title>Paper Symbolic Icon Theme</title>
    <rect transform="scale(-1,1)" x="-23.970585" y="17.728849" width="3.0212729" height="0" ry="0" fill="#427bc3" stroke-width=".52949053"/>
    <path d="m18.647193 15.72401c0.470439 0.465165 0.470351 1.233664 8.5e-5 1.69866l-1.242491 1.228562c-0.47027 0.464997-1.24748 0.465079-1.717919-8.2e-5l-6.7402355-6.664675c-0.4702698-0.464996-0.4702698-1.233579 0-1.698577l1.2424895-1.2285602c0.47027-0.464996 1.247566-0.464996 1.717835 0zm-12.438924-12.723901c0.8931605 0.00765 1.7770232 0.3544606 2.4612509 1.0308994 1.0309908 1.0193795 1.273288 2.4960715 0.7690045 3.7519484 0.038831 0.03044 0.1006395 0.06571 0.1367361 0.101347l2.2047327 2.1804532c0.492798 0.486732 0.492798 1.287135 0 1.774409l-0.205104 0.202805c-0.492249 0.486732-1.301727 0.486732-1.7945236 0l-2.22169-2.1805592c-0.036094-0.03517-0.054693-0.09627-0.08587-0.135203-1.2700061 0.4991702-2.763165 0.259049-3.7941558-0.760386-0.1394711-0.137365-0.268003-0.286089-0.3762982-0.439139-0.036098-0.05138-0.069462-0.0995-0.1022786-0.152509-0.4107553-0.855676-0.1947124-0.804732 0.700636-0.574344 0.9057407 0 1.6408347-0.7268531 1.6408347-1.6224414 0-0.8955871-0.735094-1.6224414-1.6408347-1.6224414-0.5469446 0 0.3248851-1.0268426 0.991064-1.3013054 0.03172-0.012209 0.054147-0.039472 0.08587-0.050723 0.011484-0.0034 0.022428 0.0034 0.033911 0 0.3839554-0.1316996 0.7947106-0.2062391 1.1967149-0.202806z" fill="#5c616c"/>
</svg>
