<?xml version="1.0" encoding="UTF-8"?>
<svg width="128" height="128" version="1" xml:space="preserve" xmlns="http://www.w3.org/2000/svg"><defs><style id="current-color-scheme" type="text/css">.ColorScheme-Text { color:#5c616c; } .ColorScheme-Highlight { color:#5294e2; } .ColorScheme-ButtonBackground { color:#d3dae3; }</style><style type="text/css">.ColorScheme-Text { color:#5c616c; } .ColorScheme-Highlight { color:#5294e2; } .ColorScheme-ButtonBackground { color:#d3dae3; }</style><style type="text/css">.str0 {stroke:#4D4948;stroke-width:0.0123919}
    .str1 {stroke:#838281;stroke-width:0.229479;stroke-linecap:round}
    .fil2 {fill:none}
    .fil0 {fill:#4D4948}
    .fil1 {fill:white;fill-rule:nonzero}</style><style type="text/css">.str0 {stroke:#4D4948;stroke-width:0.221746}
    .str1 {stroke:#00923F;stroke-width:0.887173}
    .str2 {stroke:#E77817;stroke-width:0.887173;stroke-linecap:round}
    .fil2 {fill:none}
    .fil0 {fill:#4D4948}
    .fil1 {fill:#B6DDC7}</style><style type="text/css">.ColorScheme-Text { color:#5c616c; } .ColorScheme-Highlight { color:#5294e2; } .ColorScheme-ButtonBackground { color:#d3dae3; }</style><filter id="filter5062" x="-.010364" y="-.01425" width="1.0207" height="1.0285" color-interpolation-filters="sRGB"><feGaussianBlur stdDeviation="0.23749999"/></filter><filter id="filter3202" x="-.03" y="-.0075" width="1.06" height="1.015" color-interpolation-filters="sRGB"><feGaussianBlur stdDeviation="0.375"/></filter></defs><rect transform="matrix(0,-1,-1,0,0,0)" x="-121" y="-124" width="30" height="120" rx="5.0198" ry="5" filter="url(#filter3202)" opacity=".2" stroke-width="2.9778"/><rect transform="matrix(0,-1,-1,0,0,0)" x="-119" y="-124" width="30" height="120" rx="5.0198" ry="5" fill="#90a4ae" stroke-width="2.9778"/><rect transform="matrix(2,0,0,2,2.6687e-8,-11.749)" x="4.5" y="14.87" width="55" height="40" rx="2.6442" ry="2.5" filter="url(#filter5062)" opacity=".2" stroke-width="1.0284"/><rect x="9" y="16" width="110" height="79.999" rx="5.2885" ry="4.9998" fill="#90a4ae" stroke-width="2.0569"/><rect x="17" y="24" width="94" height="64" fill="#455a64" stroke-width="2.0671"/><path d="m14.289 16c-2.9299 0-5.2885 2.2299-5.2885 4.9998v1.9999c0-2.7699 2.3586-4.9998 5.2885-4.9998h99.425c2.9193 0 5.2885 2.2299 5.2885 4.9998v-1.9999c0-2.7699-2.3692-4.9998-5.2885-4.9998z" fill="#b3b3b3" opacity=".2" stroke-width="2.0569"/></svg>
