<svg version="1" viewBox="0 0 128 128" xmlns="http://www.w3.org/2000/svg">
    <defs>
        <filter id="filter4728" x="-.020222222" y="-.029513514" width="1.0404444" height="1.059027" color-interpolation-filters="sRGB">
            <feGaussianBlur stdDeviation="0.455"/>
        </filter>
        <filter id="filter4851" x="-.018782608" y="-.03323077" width="1.0375652" height="1.0664614" color-interpolation-filters="sRGB">
            <feGaussianBlur stdDeviation="0.35999999"/>
        </filter>
    </defs>
    <rect transform="scale(2)" x="5.0000005" y="14" width="54" height="37" rx="2.6999998" ry="2.6428571" filter="url(#filter4728)" opacity=".2" stroke-width="1.3356378"/>
    <rect x="10.000001" y="26" width="108" height="74" rx="5.3999996" ry="5.2857141" fill="#78909c" stroke-width="2.6712756"/>
    <path d="m15.400002 26c-2.9916 0-5.4 2.357428-5.4 5.285714v2.642858c0-2.928286 2.4084-5.285716 5.4-5.285716h97.199998c2.9916 0 5.4 2.35743 5.4 5.285716v-2.642858c0-2.928286-2.4084-5.285714-5.4-5.285714z" fill="#fff" opacity=".1" stroke-width="2.6712756"/>
    <g transform="matrix(2 0 0 2 17.251317 -.07029724)" filter="url(#filter4851)" opacity=".2">
        <rect x="8.374341" y="41.035149" width="30" height="6" rx="0" ry="1" stroke-width="1.2247448"/>
        <g transform="translate(-8.6256586,1.0351507)" style="">
            <rect x="9" y="20" width="6" height="6" ry="1" opacity="1"/>
            <rect x="17" y="20" width="6" height="6" ry="1" opacity="1"/>
            <rect x="25" y="20" width="6" height="6" ry="1" opacity="1"/>
            <rect x="33" y="20" width="6" height="6" ry="1" opacity="1"/>
            <rect x="41" y="20" width="6" height="6" ry="1" opacity="1"/>
            <rect x="49" y="20" width="6" height="6" ry="1" opacity="1"/>
        </g>
        <g transform="translate(-8.6256586,1.0351507)" style="">
            <rect x="9" y="31" width="6" height="6" ry="1" opacity="1"/>
            <rect x="17" y="31" width="6" height="6" ry="1" opacity="1"/>
            <rect x="25" y="31" width="6" height="6" ry="1" opacity="1"/>
            <rect x="33" y="31" width="6" height="6" ry="1" opacity="1"/>
            <rect x="41" y="31" width="6" height="6" ry="1" opacity="1"/>
            <rect x="49" y="31" width="6" height="6" ry="1" opacity="1"/>
        </g>
    </g>
    <g transform="scale(2)" fill="#fafafa">
        <rect x="17" y="39.999996" width="30" height="6" rx="0" ry="1" stroke-width="1.2247448"/>
        <g>
            <rect x="9" y="20" width="6" height="6" ry="1"/>
            <rect x="17" y="20" width="6" height="6" ry="1"/>
            <rect x="25" y="20" width="6" height="6" ry="1"/>
            <rect x="33" y="20" width="6" height="6" ry="1"/>
            <rect x="41" y="20" width="6" height="6" ry="1"/>
            <rect x="49" y="20" width="6" height="6" ry="1"/>
        </g>
        <g>
            <rect x="9" y="31" width="6" height="6" ry="1"/>
            <rect x="17" y="31" width="6" height="6" ry="1"/>
            <rect x="25" y="31" width="6" height="6" ry="1"/>
            <rect x="33" y="31" width="6" height="6" ry="1"/>
            <rect x="41" y="31" width="6" height="6" ry="1"/>
            <rect x="49" y="31" width="6" height="6" ry="1"/>
        </g>
    </g>
</svg>
