<?xml version="1.0" encoding="UTF-8" standalone="no"?>
<!-- Created with Inkscape (http://www.inkscape.org/) -->

<svg
   xmlns:dc="http://purl.org/dc/elements/1.1/"
   xmlns:cc="http://creativecommons.org/ns#"
   xmlns:rdf="http://www.w3.org/1999/02/22-rdf-syntax-ns#"
   xmlns:svg="http://www.w3.org/2000/svg"
   xmlns="http://www.w3.org/2000/svg"
   xmlns:sodipodi="http://sodipodi.sourceforge.net/DTD/sodipodi-0.dtd"
   xmlns:inkscape="http://www.inkscape.org/namespaces/inkscape"
   version="1.1"
   id="svg2"
   width="24"
   height="24"
   viewBox="0 0 24 24"
   sodipodi:docname="amarok_external.svg"
   inkscape:version="0.92.4 (5da689c313, 2019-01-14)"
   inkscape:export-filename="/home/john/Nextcloud/Q4OS Stuff/tdevelop.png"
   inkscape:export-xdpi="96"
   inkscape:export-ydpi="96">
  <metadata
     id="metadata8">
    <rdf:RDF>
      <cc:Work
         rdf:about="">
        <dc:format>image/svg+xml</dc:format>
        <dc:type
           rdf:resource="http://purl.org/dc/dcmitype/StillImage" />
        <dc:title></dc:title>
      </cc:Work>
    </rdf:RDF>
  </metadata>
  <defs
     id="defs6" />
  <sodipodi:namedview
     pagecolor="#ffffff"
     bordercolor="#666666"
     borderopacity="1"
     objecttolerance="10"
     gridtolerance="10"
     guidetolerance="10"
     inkscape:pageopacity="0"
     inkscape:pageshadow="2"
     inkscape:window-width="1362"
     inkscape:window-height="695"
     id="namedview4"
     showgrid="true"
     fit-margin-top="0"
     fit-margin-left="0"
     fit-margin-right="0"
     fit-margin-bottom="0"
     showguides="true"
     inkscape:zoom="10.729167"
     inkscape:cx="23.999999"
     inkscape:cy="23.999999"
     inkscape:window-x="0"
     inkscape:window-y="0"
     inkscape:window-maximized="1"
     inkscape:current-layer="svg2"
     inkscape:snap-grids="true">
    <inkscape:grid
       type="xygrid"
       id="grid834" />
  </sodipodi:namedview>
  <g
     id="g832"
     transform="matrix(0.5,0,0,0.5,1.25,-1.2500055)"
     style="fill:#555555;fill-opacity:1">
    <path
       sodipodi:nodetypes="cccccccssccccccccccsscccccccccssccccccc"
       inkscape:connector-curvature="0"
       id="path5692_2_-3"
       d="M 9.930549,6.5034164 C 9.839763,6.5126964 9.7520781,6.5525914 9.6838908,6.6206978 L 6.5283218,9.7537534 C 6.395649,9.8858799 6.3706548,10.090768 6.468467,10.25075 l 3.694493,6.04246 C 9.5077027,17.387153 8.9825148,18.566625 8.6071589,19.810881 L 1.8246677,21.211834 C 1.6359588,21.250619 1.5,21.416686 1.5,21.608992 v 4.43092 c 0,0.18739 0.1291024,0.349694 0.3109323,0.393343 l 6.583066,1.597899 c 0.3510535,1.441048 0.8950584,2.807093 1.6140467,4.06267 l -3.8104114,5.77023 c -0.1063098,0.161263 -0.084091,0.373703 0.053262,0.509538 l 3.1544629,3.133075 c 0.132673,0.131386 0.3397954,0.157181 0.5015767,0.06051 L 15.878002,37.96603 c 1.172898,0.672129 2.437814,1.201043 3.774703,1.559729 l 1.393189,6.651825 c 0.0392,0.188484 0.206982,0.322427 0.399391,0.322427 h 4.462513 c 0.1876,0 0.351316,-0.127113 0.396093,-0.309888 l 1.640953,-6.665458 c 1.378085,-0.369325 2.681462,-0.91978 3.882923,-1.62245 l 5.884264,3.83136 c 0.161795,0.105783 0.375775,0.08459 0.513113,-0.05175 l 3.155571,-3.133065 c 0.133482,-0.132498 0.157383,-0.337409 0.05932,-0.496981 L 37.42376,32.999894 c -1.803035,-2.455939 -1.579487,-2.204357 -2.237722,-2.902221 -2.115335,4.111223 -6.419072,6.927318 -11.38892,6.927318 -7.060869,0 -12.785416,-5.68484 -12.785416,-12.697005 0,-5.158401 3.0983,-9.594632 7.546109,-11.581913 V 9.4706291 c -0.809493,0.2812146 -1.592064,0.6202719 -2.335364,1.0223479 -5.29e-4,-4.91e-4 -0.0011,-0.0019 -0.0032,-0.0038 L 10.196573,6.5665341 C 10.115458,6.5138311 10.02145,6.4928601 9.9306831,6.5021411 Z"
       style="fill:#555555;fill-opacity:1;stroke-width:0.49270743" />
    <path
       id="path5"
       d="m 24.139578,13.435571 a 10.582566,10.581218 0 0 0 -7.637224,3.099967 10.582566,10.581218 0 0 0 0,14.962502 10.582566,10.581218 0 0 0 14.964411,0 10.582566,10.581218 0 0 0 0,-14.962502 10.582566,10.581218 0 0 0 -7.327187,-3.099967 z m -0.289367,1.322653 a 9.2597454,9.2585665 0 0 1 6.190387,2.268142 l -1.857632,1.857397 a 10.581892,6.6136823 44.991678 0 0 -7.174753,-3.626961 9.2597454,9.2585665 0 0 1 2.841998,-0.498578 z m -4.004633,1.728232 a 9.2591555,5.2909459 44.992816 0 1 7.399528,3.335045 l -3.260546,3.260132 -6.019868,-6.019101 a 9.2591555,5.2909459 44.992816 0 1 1.880886,-0.576076 z m 11.138047,1.467317 a 9.2597454,9.2585665 0 0 1 1.767207,9.007986 10.581892,6.6136823 44.991678 0 0 -3.637758,-7.137674 z m -13.956792,0.04134 6.022451,6.021683 -3.26313,3.262721 a 9.2591555,5.2909459 44.992816 0 1 -2.759321,-9.284406 z m 11.156133,2.758968 a 9.2591555,5.2909459 44.992816 0 1 2.759321,9.284397 l -6.022451,-6.021682 z m -12.964678,0.31775 a 10.581892,6.6136823 44.991678 0 0 3.637758,7.137674 l -1.870551,1.870309 a 9.2597454,9.2585665 0 0 1 -1.767207,-9.007983 z m 8.766272,3.88012 6.019868,6.019107 a 9.2591555,5.2909459 44.992816 0 1 -9.280414,-2.75897 z m -4.198406,4.197875 a 10.581892,6.6136823 44.991678 0 0 7.174753,3.626962 9.2597454,9.2585665 0 0 1 -9.032387,-1.76957 z"
       class="ColorScheme-Text"
       style="opacity:1;fill:#555555;fill-opacity:1;stroke-width:1.32273662"
       inkscape:connector-curvature="0" />
  </g>
</svg>
