<?xml version="1.0" encoding="UTF-8" standalone="no"?>
<svg
   xmlns:dc="http://purl.org/dc/elements/1.1/"
   xmlns:cc="http://creativecommons.org/ns#"
   xmlns:rdf="http://www.w3.org/1999/02/22-rdf-syntax-ns#"
   xmlns:svg="http://www.w3.org/2000/svg"
   xmlns="http://www.w3.org/2000/svg"
   xmlns:sodipodi="http://sodipodi.sourceforge.net/DTD/sodipodi-0.dtd"
   xmlns:inkscape="http://www.inkscape.org/namespaces/inkscape"
   width="24"
   height="24"
   version="1"
   id="svg12"
   sodipodi:docname="amarok_audioscrobbler.svg"
   inkscape:version="0.92.4 (5da689c313, 2019-01-14)">
  <metadata
     id="metadata18">
    <rdf:RDF>
      <cc:Work
         rdf:about="">
        <dc:format>image/svg+xml</dc:format>
        <dc:type
           rdf:resource="http://purl.org/dc/dcmitype/StillImage" />
        <dc:title></dc:title>
      </cc:Work>
    </rdf:RDF>
  </metadata>
  <defs
     id="defs16" />
  <sodipodi:namedview
     pagecolor="#ffffff"
     bordercolor="#666666"
     borderopacity="1"
     objecttolerance="10"
     gridtolerance="10"
     guidetolerance="10"
     inkscape:pageopacity="0"
     inkscape:pageshadow="2"
     inkscape:window-width="1362"
     inkscape:window-height="695"
     id="namedview14"
     showgrid="true"
     inkscape:zoom="10.729167"
     inkscape:cx="23.999999"
     inkscape:cy="23.999999"
     inkscape:window-x="0"
     inkscape:window-y="0"
     inkscape:window-maximized="1"
     inkscape:current-layer="svg12">
    <inkscape:grid
       type="xygrid"
       id="grid812" />
  </sodipodi:namedview>
  <path
     style="fill:#555555;fill-opacity:1;stroke-width:0.76922202"
     d="M 7.0671385,18.941756 C 6.666986,18.887909 5.9551755,18.656219 5.480379,18.427681 2.386892,16.945379 1.1217952,13.212009 2.6454525,10.067328 4.3861155,6.4717272 9.1356191,5.5551152 11.993632,8.2634122 c 0.826469,0.78192 1.193533,1.449148 2.437853,4.4075218 1.298957,3.093834 1.539048,3.580293 1.959978,3.992753 0.450941,0.438691 0.868793,0.58646 1.668328,0.58646 1.313577,0 2.251628,-0.81192 2.251628,-1.944839 0,-0.958919 -0.337052,-1.265995 -2.056169,-1.8763 -2.617921,-0.944304 -3.465937,-1.797762 -3.469014,-3.5117563 0,-0.914304 0.231626,-1.52384 0.820312,-2.1556835 0.844937,-0.9019195 2.302416,-1.1997645 3.592138,-0.75192 0.55021,0.1955375 1.701419,1.2144565 1.701419,1.506148 0,0.1416145 -0.667178,0.574151 -1.037319,0.676535 -0.195459,0.050769 -0.363985,-0.015385 -0.589456,-0.231691 -0.457096,-0.4386905 -0.766445,-0.5741515 -1.313577,-0.5741515 -0.944206,0 -1.529814,0.5679975 -1.529814,1.4853785 0,0.9143038 0.37245,1.2236888 2.233159,1.8516858 2.564054,0.865843 3.321265,1.647763 3.336655,3.45714 0.01539,1.563072 -0.688723,2.690529 -2.089257,3.357756 -0.637166,0.300922 -0.853402,0.339461 -1.893798,0.339461 -1.485182,0 -2.152359,-0.276307 -2.984985,-1.214457 C 14.47227,17.032379 13.90436,15.847921 12.085975,11.524247 11.331842,9.7325602 10.36378,8.8544102 8.7493181,8.5088727 7.9313143,8.3341812 6.7924185,8.4965627 6.0498265,8.8875637 5.325705,9.2661777 4.5169345,10.120482 4.135251,10.901633 c -0.315505,0.634152 -0.3455165,0.81192 -0.3455165,1.914762 0,1.052073 0.04232,1.301457 0.306271,1.878608 0.4001525,0.881227 1.1873755,1.695455 2.05309,2.134146 0.625624,0.315537 0.8203135,0.354845 1.8183863,0.354845 0.9588273,0 1.2050743,-0.04538 1.7768313,-0.318615 0.6525569,-0.318691 1.5298139,-1.100611 1.8876429,-1.686224 l 0.186225,-0.303999 0.367063,0.838843 c 0.204693,0.463306 0.369372,0.898919 0.369372,0.97738 0,0.231692 -0.829547,0.988997 -1.589838,1.460764 -1.1542859,0.71269 -2.4801759,0.979689 -3.8961005,0.787305 m -0.0031,0"
     id="path10"
     inkscape:connector-curvature="0" />
</svg>
