<?xml version="1.0" encoding="UTF-8" standalone="no"?>
<!-- Created with Inkscape (http://www.inkscape.org/) -->

<svg
   xmlns:dc="http://purl.org/dc/elements/1.1/"
   xmlns:cc="http://creativecommons.org/ns#"
   xmlns:rdf="http://www.w3.org/1999/02/22-rdf-syntax-ns#"
   xmlns:svg="http://www.w3.org/2000/svg"
   xmlns="http://www.w3.org/2000/svg"
   xmlns:sodipodi="http://sodipodi.sourceforge.net/DTD/sodipodi-0.dtd"
   xmlns:inkscape="http://www.inkscape.org/namespaces/inkscape"
   id="svg7384"
   style="enable-background:new"
   height="24"
   width="24"
   version="1.1"
   sodipodi:docname="amarok_editcopy.svg"
   inkscape:version="0.92.4 (5da689c313, 2019-01-14)">
  <sodipodi:namedview
     pagecolor="#ffffff"
     bordercolor="#666666"
     borderopacity="1"
     objecttolerance="10"
     gridtolerance="10"
     guidetolerance="10"
     inkscape:pageopacity="0"
     inkscape:pageshadow="2"
     inkscape:window-width="1362"
     inkscape:window-height="695"
     id="namedview10"
     showgrid="true"
     inkscape:zoom="10.729167"
     inkscape:cx="7.9223306"
     inkscape:cy="24"
     inkscape:window-x="0"
     inkscape:window-y="0"
     inkscape:window-maximized="1"
     inkscape:current-layer="svg7384">
    <inkscape:grid
       type="xygrid"
       id="grid817" />
  </sodipodi:namedview>
  <metadata
     id="metadata90">
    <rdf:RDF>
      <cc:Work
         rdf:about="">
        <dc:format>image/svg+xml</dc:format>
        <dc:type
           rdf:resource="http://purl.org/dc/dcmitype/StillImage" />
        <dc:title>Paper Symbolic Icon Theme</dc:title>
      </cc:Work>
    </rdf:RDF>
  </metadata>
  <title
     id="title8473">Paper Symbolic Icon Theme</title>
  <defs
     id="defs7386" />
  <path
     inkscape:connector-curvature="0"
     d="m 4.021978,1 c 0,0 -1.4505495,0 -1.4505495,1.4666667 V 15.666667 c 0,0 0,1.466666 1.4505495,1.466666 H 5.4725276 V 3.9333333 H 17.076923 V 2.4666667 C 17.076923,1 15.626374,1 15.626374,1 Z m 4.3516485,4.4 c 0,0 -1.45055,0 -1.45055,1.4666667 V 21.533333 C 6.9230765,23 8.3736265,23 8.3736265,23 H 19.978021 c 0,0 1.45055,0 1.45055,-1.47092 V 6.8668133 c 0,-1.4666666 -1.45055,-1.4666666 -1.45055,-1.4666666 z m 1.450549,2.9333333 H 18.527472 V 20.066667 H 9.8241755 Z"
     style="color:#000000;fill:#555555;stroke-width:1.45858574;enable-background:new"
     id="rect5195" />
</svg>
