<?xml version="1.0" encoding="UTF-8" standalone="no"?>
<svg
   xmlns:dc="http://purl.org/dc/elements/1.1/"
   xmlns:cc="http://creativecommons.org/ns#"
   xmlns:rdf="http://www.w3.org/1999/02/22-rdf-syntax-ns#"
   xmlns:svg="http://www.w3.org/2000/svg"
   xmlns="http://www.w3.org/2000/svg"
   xmlns:sodipodi="http://sodipodi.sourceforge.net/DTD/sodipodi-0.dtd"
   xmlns:inkscape="http://www.inkscape.org/namespaces/inkscape"
   width="24"
   height="24"
   version="1"
   id="svg16"
   sodipodi:docname="amarok_burn.svg"
   inkscape:version="0.92.4 (5da689c313, 2019-01-14)">
  <metadata
     id="metadata22">
    <rdf:RDF>
      <cc:Work
         rdf:about="">
        <dc:format>image/svg+xml</dc:format>
        <dc:type
           rdf:resource="http://purl.org/dc/dcmitype/StillImage" />
        <dc:title></dc:title>
      </cc:Work>
    </rdf:RDF>
  </metadata>
  <defs
     id="defs20" />
  <sodipodi:namedview
     pagecolor="#ffffff"
     bordercolor="#666666"
     borderopacity="1"
     objecttolerance="10"
     gridtolerance="10"
     guidetolerance="10"
     inkscape:pageopacity="0"
     inkscape:pageshadow="2"
     inkscape:window-width="1362"
     inkscape:window-height="695"
     id="namedview18"
     showgrid="true"
     inkscape:zoom="10.729167"
     inkscape:cx="7.9223306"
     inkscape:cy="24"
     inkscape:window-x="0"
     inkscape:window-y="0"
     inkscape:window-maximized="1"
     inkscape:current-layer="svg16">
    <inkscape:grid
       type="xygrid"
       id="grid819" />
  </sodipodi:namedview>
  <path
     style="color:#bebebe;font-style:normal;font-variant:normal;font-weight:normal;font-stretch:normal;font-size:medium;line-height:normal;font-family:Sans;-inkscape-font-specification:Sans;text-indent:0;text-align:start;text-decoration:none;text-decoration-line:none;letter-spacing:normal;word-spacing:normal;text-transform:none;writing-mode:lr-tb;direction:ltr;baseline-shift:baseline;text-anchor:start;display:inline;overflow:visible;visibility:visible;fill:#555555;fill-opacity:1;stroke:none;stroke-width:7.40109873;marker:none;filter:url(#filter7554);enable-background:accumulate"
     mask="none"
     clip-path="none"
     d="M 11.230769,2.000004 C 6.1639863,2.000004 2,6.1640031 2,11.230772 c 0,5.066768 4.1639863,9.230767 9.230769,9.230767 0.412968,0 0.816738,-0.03759 1.215945,-0.09115 a 5.6410252,5.6410242 0 0 1 -1.215945,-3.498597 5.6410252,5.6410242 0 0 1 0.999599,-3.203125 c -0.308814,0.127831 -0.646408,0.199319 -0.999599,0.199319 -1.448769,0 -2.63722,-1.188463 -2.63722,-2.637218 0,-1.4487697 1.188451,-2.6372194 2.63722,-2.6372194 1.448769,0 2.637219,1.1884497 2.637219,2.6372194 0,0.356188 -0.07243,0.696671 -0.202324,1.007612 a 5.6410252,5.6410242 0 0 1 3.20613,-1.007612 5.6410252,5.6410242 0 0 1 3.497596,1.222957 c 0.05418,-0.401465 0.09215,-0.80756 0.09215,-1.222957 C 20.46154,6.1639991 16.297541,2 11.230772,2 Z"
     id="path39797"
     inkscape:connector-curvature="0" />
  <ellipse
     style="fill:#ff5722;stroke-width:0.3205128"
     cx="16.871796"
     cy="16.871796"
     id="circle12-6"
     rx="5.1282048"
     ry="5.1282039" />
  <path
     inkscape:connector-curvature="0"
     style="fill:#ffffff;stroke-width:0.3205128"
     d="m 17.466025,14.307694 c -1.573077,0.641025 -2.517307,2.14359 -2.517307,3.205128 0,1.049615 0.825897,1.901281 1.85173,1.921217 -0.512615,-0.01025 -0.925577,-0.435063 -0.925577,-0.959678 0,-0.531045 0.471994,-1.282052 1.258654,-1.602565 0,1.121795 0.844616,1.283975 0.629321,1.923077 -0.122071,0.362391 -0.419827,0.637442 -0.936026,0.640397 0.003,1.6e-5 0.0065,3.52e-4 0.0098,3.52e-4 1.042693,0 1.6425,-0.553332 1.887949,-1.28205 0.430577,-1.278269 -1.258654,-1.602564 -1.258654,-3.846154 z"
     id="path14-7" />
</svg>
