<?xml version="1.0" encoding="UTF-8" standalone="no"?>
<svg
   xmlns:dc="http://purl.org/dc/elements/1.1/"
   xmlns:cc="http://creativecommons.org/ns#"
   xmlns:rdf="http://www.w3.org/1999/02/22-rdf-syntax-ns#"
   xmlns:svg="http://www.w3.org/2000/svg"
   xmlns="http://www.w3.org/2000/svg"
   xmlns:sodipodi="http://sodipodi.sourceforge.net/DTD/sodipodi-0.dtd"
   xmlns:inkscape="http://www.inkscape.org/namespaces/inkscape"
   width="24"
   height="24"
   viewBox="0 0 24 24"
   version="1.1"
   id="svg7"
   sodipodi:docname="amarok_random_album.svg"
   inkscape:version="0.92.4 (5da689c313, 2019-01-14)">
  <metadata
     id="metadata11">
    <rdf:RDF>
      <cc:Work
         rdf:about="">
        <dc:format>image/svg+xml</dc:format>
        <dc:type
           rdf:resource="http://purl.org/dc/dcmitype/StillImage" />
        <dc:title></dc:title>
      </cc:Work>
    </rdf:RDF>
  </metadata>
  <sodipodi:namedview
     pagecolor="#ffffff"
     bordercolor="#666666"
     borderopacity="1"
     objecttolerance="10"
     gridtolerance="10"
     guidetolerance="10"
     inkscape:pageopacity="0"
     inkscape:pageshadow="2"
     inkscape:window-width="1362"
     inkscape:window-height="695"
     id="namedview9"
     showgrid="true"
     inkscape:zoom="21.458333"
     inkscape:cx="12"
     inkscape:cy="12"
     inkscape:window-x="0"
     inkscape:window-y="0"
     inkscape:window-maximized="1"
     inkscape:current-layer="svg7">
    <inkscape:grid
       type="xygrid"
       id="grid869" />
  </sodipodi:namedview>
  <defs
     id="defs3">
    <style
       type="text/css"
       id="current-color-scheme">
   .ColorScheme-Text { color:#5c616c; } .ColorScheme-Highlight { color:#5294e2; } .ColorScheme-ButtonBackground { color:#d3dae3; }
  </style>
  </defs>
  <g
     style="enable-background:new"
     id="g835"
     transform="matrix(0.49999999,0,0,0.49999999,3.3999257e-7,-0.49999675)">
    <g
       transform="translate(-481.0002,255)"
       inkscape:label="status"
       id="layer9">
      <g
         style="fill:#555555;fill-opacity:1"
         transform="matrix(2.6666667,0,0,2.7142857,-800.33435,354.57142)"
         id="g829">
        <path
           inkscape:connector-curvature="0"
           d="m 482.00045,-220 v 0.9375 1.0625 h 4 c 0.5713,0 1,0.4287 1,1 v 4 c 0,1.6447 1.3553,3 3,3 h 5 v -2 h -5 c -0.5713,0 -1,-0.4287 -1,-1 v -4 c 0,-1.6447 -1.3553,-3 -3,-3 z"
           id="path4544-6"
           sodipodi:nodetypes="cccssssccssssc"
           style="color:#555555;fill:#555555;fill-opacity:1" />
        <path
           inkscape:connector-curvature="0"
           d="m 490.00045,-220 c -0.22957,0 -0.44085,0.0438 -0.65625,0.0937 0.4813,0.5511 0.86125,1.1776 1.0312,1.9062 h 4.625 v -2 h -5 z m -8,10 h 4 c 0.22957,0 0.44085,-0.0438 0.65625,-0.0937 -0.4813,-0.55115 -0.86125,-1.1777 -1.0312,-1.9063 h -3.62505 z"
           id="path4544-1-5"
           sodipodi:nodetypes="ccccccccscccc"
           style="color:#555555;fill:#555555;fill-opacity:1" />
        <path
           inkscape:connector-curvature="0"
           d="m 493.00045,-222 v 6 l 4,-3 z"
           id="path3003-08"
           style="fill:#555555;fill-opacity:1" />
        <path
           inkscape:connector-curvature="0"
           d="m 493.00045,-214 v 6 l 4,-3 z"
           id="path3773"
           style="fill:#555555;fill-opacity:1" />
      </g>
    </g>
  </g>
  <path
     inkscape:connector-curvature="0"
     d="M 4.4999998,10 C 3.1277462,10 2,11.12775 2,12.5 2,13.87225 3.1277462,15 4.4999998,15 5.87225,15 7,13.87225 7,12.5 7,11.12775 5.87225,10 4.4999998,10 Z m 0,1.785715 c 0.3923752,0 0.7142857,0.32191 0.7142857,0.714285 0,0.392372 -0.3219105,0.714286 -0.7142857,0.714286 -0.392375,0 -0.7142855,-0.321914 -0.7142855,-0.714286 0,-0.392375 0.3219105,-0.714285 0.7142855,-0.714285 z"
     id="path39797"
     style="color:#bebebe;font-style:normal;font-variant:normal;font-weight:normal;font-stretch:normal;font-size:medium;line-height:normal;font-family:Sans;-inkscape-font-specification:Sans;text-indent:0;text-align:start;text-decoration:none;text-decoration-line:none;letter-spacing:normal;word-spacing:normal;text-transform:none;writing-mode:lr-tb;direction:ltr;baseline-shift:baseline;text-anchor:start;display:inline;overflow:visible;visibility:visible;fill:#555555;fill-opacity:1;stroke:none;stroke-width:2.00446439;marker:none;filter:url(#filter7554);enable-background:accumulate" />
</svg>
