<?xml version="1.0" encoding="UTF-8" standalone="no"?>
<svg
   xmlns:dc="http://purl.org/dc/elements/1.1/"
   xmlns:cc="http://creativecommons.org/ns#"
   xmlns:rdf="http://www.w3.org/1999/02/22-rdf-syntax-ns#"
   xmlns:svg="http://www.w3.org/2000/svg"
   xmlns="http://www.w3.org/2000/svg"
   xmlns:sodipodi="http://sodipodi.sourceforge.net/DTD/sodipodi-0.dtd"
   xmlns:inkscape="http://www.inkscape.org/namespaces/inkscape"
   height="24"
   version="1.1"
   width="24"
   id="svg12"
   sodipodi:docname="amarok_repeat_album.svg"
   style="enable-background:new"
   inkscape:version="0.92.4 (5da689c313, 2019-01-14)">
  <sodipodi:namedview
     pagecolor="#ffffff"
     bordercolor="#666666"
     borderopacity="1"
     objecttolerance="10"
     gridtolerance="10"
     guidetolerance="10"
     inkscape:pageopacity="0"
     inkscape:pageshadow="2"
     inkscape:window-width="1362"
     inkscape:window-height="695"
     id="namedview14"
     showgrid="true"
     inkscape:zoom="10.729167"
     inkscape:cx="7.9223306"
     inkscape:cy="24"
     inkscape:window-x="0"
     inkscape:window-y="0"
     inkscape:window-maximized="1"
     inkscape:current-layer="layer9">
    <inkscape:grid
       type="xygrid"
       id="grid830" />
  </sodipodi:namedview>
  <metadata
     id="metadata90">
    <rdf:RDF>
      <cc:Work
         rdf:about="">
        <dc:format>image/svg+xml</dc:format>
        <dc:type
           rdf:resource="http://purl.org/dc/dcmitype/StillImage" />
        <dc:title></dc:title>
      </cc:Work>
    </rdf:RDF>
  </metadata>
  <defs
     id="defs7386" />
  <g
     inkscape:groupmode="layer"
     id="layer9"
     inkscape:label="status"
     transform="translate(-461.0002,211)">
    <path
       inkscape:connector-curvature="0"
       d="m 467.28591,-206.14289 c -2.34957,0 -4.28571,1.93615 -4.28571,4.28572 v 5.71428 c 0,2.34958 1.93614,4.28572 4.28571,4.28572 h 1.42857 0.9375 2.32143 c -0.24077,-0.67507 -0.40178,-1.3851 -0.40178,-2.14286 0,-0.2454 0.0626,-0.47604 0.0893,-0.71428 h -2.00893 -0.9375 -1.42857 c -0.81614,0 -1.42857,-0.61244 -1.42857,-1.42858 v -5.71428 c 0,-0.81614 0.61243,-1.42857 1.42857,-1.42857 h 4.28572 v -2.85715 z m 10,0 v 0.71429 1.42857 0.71429 h 1.42857 c 0.81614,0 1.42857,0.61243 1.42857,1.42857 v 1.83036 c 1.13498,0.40478 2.11845,1.08611 2.85715,2.00892 v -3.83928 c 0,-2.34957 -1.93615,-4.28572 -4.28572,-4.28572 z"
       id="path5086"
       style="color:#000000;fill:#555555;fill-opacity:1;stroke-width:1.42857146" />
    <path
       inkscape:connector-curvature="0"
       d="M 475.85762,-204.71429 470.14334,-209 v 8.57143 z"
       id="path5088"
       style="fill:#555555;fill-opacity:1;stroke-width:1.42857146" />
    <path
       inkscape:connector-curvature="0"
       d="m 478.0002,-199 c -2.74451,0 -5,2.2555 -5,5 0,2.7445 2.25549,5 5,5 2.7445,0 5,-2.2555 5,-5 0,-2.7445 -2.2555,-5 -5,-5 z m 0,3.57143 c 0.78475,0 1.42857,0.64382 1.42857,1.42857 0,0.78474 -0.64382,1.42857 -1.42857,1.42857 -0.78475,0 -1.42857,-0.64383 -1.42857,-1.42857 0,-0.78475 0.64382,-1.42857 1.42857,-1.42857 z"
       id="path39797"
       style="color:#bebebe;font-style:normal;font-variant:normal;font-weight:normal;font-stretch:normal;font-size:medium;line-height:normal;font-family:Sans;-inkscape-font-specification:Sans;text-indent:0;text-align:start;text-decoration:none;text-decoration-line:none;letter-spacing:normal;word-spacing:normal;text-transform:none;writing-mode:lr-tb;direction:ltr;baseline-shift:baseline;text-anchor:start;display:inline;overflow:visible;visibility:visible;fill:#555555;fill-opacity:1;stroke:none;stroke-width:4.00892878;marker:none;filter:url(#filter7554);enable-background:accumulate" />
  </g>
</svg>
