<?xml version="1.0" encoding="UTF-8" standalone="no"?>
<svg
   xmlns:dc="http://purl.org/dc/elements/1.1/"
   xmlns:cc="http://creativecommons.org/ns#"
   xmlns:rdf="http://www.w3.org/1999/02/22-rdf-syntax-ns#"
   xmlns:svg="http://www.w3.org/2000/svg"
   xmlns="http://www.w3.org/2000/svg"
   xmlns:sodipodi="http://sodipodi.sourceforge.net/DTD/sodipodi-0.dtd"
   xmlns:inkscape="http://www.inkscape.org/namespaces/inkscape"
   height="24"
   version="1.1"
   width="24"
   id="svg14"
   sodipodi:docname="amarok_repeat_playlist.svg"
   inkscape:version="0.92.4 (5da689c313, 2019-01-14)"
   style="enable-background:new">
  <sodipodi:namedview
     pagecolor="#ffffff"
     bordercolor="#666666"
     borderopacity="1"
     objecttolerance="10"
     gridtolerance="10"
     guidetolerance="10"
     inkscape:pageopacity="0"
     inkscape:pageshadow="2"
     inkscape:window-width="1362"
     inkscape:window-height="695"
     id="namedview16"
     showgrid="true"
     inkscape:zoom="10.729167"
     inkscape:cx="7.9223306"
     inkscape:cy="24"
     inkscape:window-x="0"
     inkscape:window-y="0"
     inkscape:window-maximized="1"
     inkscape:current-layer="layer9">
    <inkscape:grid
       type="xygrid"
       id="grid817" />
  </sodipodi:namedview>
  <metadata
     id="metadata90">
    <rdf:RDF>
      <cc:Work
         rdf:about="">
        <dc:format>image/svg+xml</dc:format>
        <dc:type
           rdf:resource="http://purl.org/dc/dcmitype/StillImage" />
        <dc:title></dc:title>
      </cc:Work>
    </rdf:RDF>
  </metadata>
  <defs
     id="defs7386" />
  <g
     inkscape:groupmode="layer"
     id="layer9"
     inkscape:label="status"
     transform="translate(-421.0002,231)">
    <g
       id="g6930"
       transform="matrix(1.4285714,0,0,1.5,363.00027,-644)"
       style="fill:#555555;fill-opacity:1">
      <g
         id="g6924"
         style="fill:#555555;fill-opacity:1">
        <g
           id="layer9-28"
           transform="translate(2e-4)"
           style="fill:#555555;fill-opacity:1">
          <path
             inkscape:connector-curvature="0"
             d="m 180,219 c -1.6447,0 -3,1.3553 -3,3 v 4 c 0,1.6447 1.3553,3 3,3 h 1 0.65625 3.34375 3 c 1.6447,0 3,-1.3553 3,-3 v -4 c 0,-1.6447 -1.3553,-3 -3,-3 H 187.75 187 v 0.5 1 0.5 h 0.75 0.25 c 0.5713,0 1,0.4287 1,1 v 4 c 0,0.5713 -0.4287,1 -1,1 H 185 181.65625 181 180 c -0.5713,0 -1,-0.4287 -1,-1 v -4 c 0,-0.5713 0.4287,-1 1,-1 h 3 v -2 z"
             id="path3991-1"
             transform="translate(-135.00025,61)"
             style="color:#000000;fill:#555555;fill-opacity:1" />
        </g>
        <path
           inkscape:connector-curvature="0"
           d="m 51.0002,281 -4,-3 v 6 z"
           id="path3764"
           style="fill:#555555;fill-opacity:1" />
      </g>
    </g>
  </g>
</svg>
