<?xml version="1.0" encoding="UTF-8" standalone="no"?>
<svg
   xmlns:dc="http://purl.org/dc/elements/1.1/"
   xmlns:cc="http://creativecommons.org/ns#"
   xmlns:rdf="http://www.w3.org/1999/02/22-rdf-syntax-ns#"
   xmlns:svg="http://www.w3.org/2000/svg"
   xmlns="http://www.w3.org/2000/svg"
   xmlns:sodipodi="http://sodipodi.sourceforge.net/DTD/sodipodi-0.dtd"
   xmlns:inkscape="http://www.inkscape.org/namespaces/inkscape"
   height="24"
   width="24"
   version="1"
   id="svg12"
   sodipodi:docname="amarok_magnatune.svg"
   inkscape:version="0.92.4 (5da689c313, 2019-01-14)">
  <metadata
     id="metadata18">
    <rdf:RDF>
      <cc:Work
         rdf:about="">
        <dc:format>image/svg+xml</dc:format>
        <dc:type
           rdf:resource="http://purl.org/dc/dcmitype/StillImage" />
        <dc:title></dc:title>
      </cc:Work>
    </rdf:RDF>
  </metadata>
  <defs
     id="defs16" />
  <sodipodi:namedview
     pagecolor="#ffffff"
     bordercolor="#666666"
     borderopacity="1"
     objecttolerance="10"
     gridtolerance="10"
     guidetolerance="10"
     inkscape:pageopacity="0"
     inkscape:pageshadow="2"
     inkscape:window-width="1362"
     inkscape:window-height="695"
     id="namedview14"
     showgrid="true"
     inkscape:zoom="10.729167"
     inkscape:cx="7.9223296"
     inkscape:cy="23.999999"
     inkscape:window-x="0"
     inkscape:window-y="0"
     inkscape:window-maximized="1"
     inkscape:current-layer="svg12">
    <inkscape:grid
       type="xygrid"
       id="grid816" />
  </sodipodi:namedview>
  <rect
     transform="matrix(0,-1,-1,0,0,0)"
     rx="11"
     ry="11"
     height="22"
     width="22"
     y="-23"
     x="-23"
     id="rect2"
     style="fill:#444444;fill-opacity:1;stroke-width:0.55002755" />
  <path
     d="M 12,3.75 A 8.25,8.25 0 0 0 3.75,12 8.25,8.25 0 0 0 12,20.25 8.25,8.25 0 0 0 20.25,12 8.25,8.25 0 0 0 12,3.75 Z m 0,1.65 c 0.9141,0 1.65,0.7359 1.65,1.65 v 7.7 c 0,0.9141 -0.7359,1.65 -1.65,1.65 -0.9141,0 -1.65,-0.7359 -1.65,-1.65 V 7.05 C 10.35,6.1359 11.0859,5.4 12,5.4 Z M 7.05,9.8 c 0.9141,0 1.65,0.7359 1.65,1.65 v 3.3 C 8.7,15.6641 7.9641,16.4 7.05,16.4 6.1359,16.4 5.4,15.6641 5.4,14.75 v -3.3 C 5.4,10.5359 6.1359,9.8 7.05,9.8 Z m 9.9,0 c 0.9141,0 1.65,0.7359 1.65,1.65 v 3.3 c 0,0.9141 -0.7359,1.65 -1.65,1.65 -0.9141,0 -1.65,-0.7359 -1.65,-1.65 v -3.3 c 0,-0.9141 0.7359,-1.65 1.65,-1.65 z"
     id="path10"
     inkscape:connector-curvature="0"
     style="fill:#ffffff;stroke-width:0.55000001" />
</svg>
