<?xml version="1.0" encoding="UTF-8" standalone="no"?>
<svg
   xmlns:dc="http://purl.org/dc/elements/1.1/"
   xmlns:cc="http://creativecommons.org/ns#"
   xmlns:rdf="http://www.w3.org/1999/02/22-rdf-syntax-ns#"
   xmlns:svg="http://www.w3.org/2000/svg"
   xmlns="http://www.w3.org/2000/svg"
   xmlns:sodipodi="http://sodipodi.sourceforge.net/DTD/sodipodi-0.dtd"
   xmlns:inkscape="http://www.inkscape.org/namespaces/inkscape"
   width="24"
   height="24"
   version="1"
   id="svg12"
   sodipodi:docname="amarok_lastfm.svg"
   inkscape:version="0.92.4 (5da689c313, 2019-01-14)">
  <metadata
     id="metadata18">
    <rdf:RDF>
      <cc:Work
         rdf:about="">
        <dc:format>image/svg+xml</dc:format>
        <dc:type
           rdf:resource="http://purl.org/dc/dcmitype/StillImage" />
        <dc:title></dc:title>
      </cc:Work>
    </rdf:RDF>
  </metadata>
  <defs
     id="defs16" />
  <sodipodi:namedview
     pagecolor="#ffffff"
     bordercolor="#666666"
     borderopacity="1"
     objecttolerance="10"
     gridtolerance="10"
     guidetolerance="10"
     inkscape:pageopacity="0"
     inkscape:pageshadow="2"
     inkscape:window-width="1362"
     inkscape:window-height="695"
     id="namedview14"
     showgrid="true"
     inkscape:zoom="10.729167"
     inkscape:cx="-8.1553388"
     inkscape:cy="24"
     inkscape:window-x="0"
     inkscape:window-y="0"
     inkscape:window-maximized="1"
     inkscape:current-layer="svg12">
    <inkscape:grid
       type="xygrid"
       id="grid828" />
  </sodipodi:namedview>
  <rect
     style="fill:#555555;fill-opacity:1;stroke-width:0.54999995"
     width="22"
     height="22"
     x="1"
     y="1"
     rx="11"
     ry="11"
     id="rect2" />
  <path
     inkscape:connector-curvature="0"
     style="fill:#ffffff;stroke-width:0.54999995"
     d="M 8.472938,16.358304 C 8.186824,16.319804 7.6778695,16.154144 7.3383839,15.990739 5.1264991,14.930889 4.2219382,12.261519 5.3113735,10.013064 6.5559706,7.4421987 9.951929,6.7868187 11.995447,8.7232587 c 0.590936,0.559075 0.853391,1.036145 1.743096,3.1513903 0.928772,2.2121 1.10044,2.55992 1.401411,2.85483 0.322429,0.313665 0.621198,0.41932 1.192877,0.41932 0.939225,0 1.609944,-0.580525 1.609944,-1.390565 0,-0.68563 -0.240997,-0.90519 -1.470188,-1.34156 -1.871849,-0.67518 -2.478191,-1.285405 -2.480392,-2.5109153 0,-0.65373 0.165616,-1.08955 0.586534,-1.54132 0.604142,-0.644875 1.646259,-0.857835 2.568427,-0.537625 0.393408,0.13981 1.216537,0.86834 1.216537,1.0769 0,0.101255 -0.477041,0.41052 -0.741696,0.483725 -0.139756,0.0363 -0.260255,-0.011 -0.421469,-0.16566 -0.326831,-0.313665 -0.548019,-0.41052 -0.939226,-0.41052 -0.675119,0 -1.093837,0.40612 -1.093837,1.06205 0,0.6537303 0.266307,0.8749403 1.596738,1.3239603 1.833334,0.61908 2.374749,1.178155 2.385754,2.471865 0.01101,1.1176 -0.492447,1.923735 -1.493847,2.400805 -0.455582,0.21516 -0.610194,0.242715 -1.354091,0.242715 -1.061925,0 -1.538966,-0.19756 -2.134304,-0.86834 -0.400009,-0.45122 -0.806072,-1.29811 -2.106242,-4.38955 -0.539216,-1.2810603 -1.231392,-1.9089403 -2.385754,-2.1560003 -0.584884,-0.124905 -1.39921,-0.0088 -1.9301722,0.270765 -0.5177569,0.27071 -1.0960385,0.8815403 -1.3689474,1.4400653 -0.2255901,0.45342 -0.247049,0.580525 -0.247049,1.36906 0,0.752235 0.030261,0.930545 0.218988,1.34321 0.2861142,0.63008 0.8489894,1.212255 1.4679866,1.52592 0.447329,0.22561 0.586535,0.253715 1.30017,0.253715 0.685574,0 0.861645,-0.03245 1.270459,-0.22781 0.466586,-0.227865 1.093837,-0.78694 1.349689,-1.205655 l 0.133154,-0.21736 0.262455,0.599775 c 0.146358,0.331265 0.264105,0.64273 0.264105,0.69883 0,0.16566 -0.593137,0.707135 -1.136755,1.04445 -0.82533,0.509575 -1.773359,0.70048 -2.785763,0.562925 m -0.0022,0"
     id="path10" />
</svg>
