<?xml version="1.0" encoding="UTF-8" standalone="no"?>
<!-- Created with Inkscape (http://www.inkscape.org/) -->

<svg
   xmlns:dc="http://purl.org/dc/elements/1.1/"
   xmlns:cc="http://creativecommons.org/ns#"
   xmlns:rdf="http://www.w3.org/1999/02/22-rdf-syntax-ns#"
   xmlns:svg="http://www.w3.org/2000/svg"
   xmlns="http://www.w3.org/2000/svg"
   xmlns:sodipodi="http://sodipodi.sourceforge.net/DTD/sodipodi-0.dtd"
   xmlns:inkscape="http://www.inkscape.org/namespaces/inkscape"
   sodipodi:docname="amarok_refresh.svg"
   inkscape:export-filename="/home/sam/source-symbolic.png"
   inkscape:export-xdpi="270"
   inkscape:export-ydpi="270"
   height="24"
   id="svg7384"
   style="enable-background:new"
   version="1.1"
   inkscape:version="0.92.4 (5da689c313, 2019-01-14)"
   width="24">
  <sodipodi:namedview
     inkscape:bbox-nodes="true"
     inkscape:bbox-paths="true"
     bordercolor="#666666"
     borderlayer="false"
     borderopacity="1"
     inkscape:current-layer="layer12"
     inkscape:cx="12"
     inkscape:cy="12"
     gridtolerance="10"
     inkscape:guide-bbox="true"
     guidetolerance="10"
     id="namedview88"
     inkscape:object-nodes="true"
     inkscape:object-paths="true"
     objecttolerance="10"
     pagecolor="#f7f7f7"
     inkscape:pageopacity="1"
     inkscape:pageshadow="2"
     showborder="true"
     showgrid="false"
     showguides="true"
     inkscape:showpageshadow="false"
     inkscape:snap-bbox="true"
     inkscape:snap-bbox-edge-midpoints="false"
     inkscape:snap-bbox-midpoints="false"
     inkscape:snap-center="false"
     inkscape:snap-global="true"
     inkscape:snap-grids="true"
     inkscape:snap-intersection-paths="true"
     inkscape:snap-midpoints="true"
     inkscape:snap-nodes="true"
     inkscape:snap-object-midpoints="true"
     inkscape:snap-others="true"
     inkscape:snap-page="false"
     inkscape:snap-smooth-nodes="true"
     inkscape:snap-to-guides="true"
     inkscape:window-height="695"
     inkscape:window-maximized="1"
     inkscape:window-width="1362"
     inkscape:window-x="0"
     inkscape:window-y="0"
     inkscape:zoom="21.458333">
    <inkscape:grid
       color="#000000"
       dotted="false"
       empcolor="#0800ff"
       empopacity="0.4627451"
       empspacing="4"
       enabled="true"
       id="grid4866"
       opacity="0.16470588"
       originx="-184.00227"
       originy="-256.01646"
       snapvisiblegridlinesonly="true"
       spacingx="0.25"
       spacingy="0.25"
       type="xygrid"
       visible="true" />
  </sodipodi:namedview>
  <metadata
     id="metadata90">
    <rdf:RDF>
      <cc:Work
         rdf:about="">
        <dc:format>image/svg+xml</dc:format>
        <dc:type
           rdf:resource="http://purl.org/dc/dcmitype/StillImage" />
        <dc:title>Paper Symbolic Icon Theme</dc:title>
      </cc:Work>
    </rdf:RDF>
  </metadata>
  <title
     id="title8473">Paper Symbolic Icon Theme</title>
  <defs
     id="defs7386">
    <filter
       inkscape:collect="always"
       id="filter7554"
       style="color-interpolation-filters:sRGB">
      <feBlend
         inkscape:collect="always"
         id="feBlend7556"
         in2="BackgroundImage"
         mode="darken" />
    </filter>
  </defs>
  <g
     inkscape:groupmode="layer"
     id="layer9"
     inkscape:label="status"
     style="display:inline"
     transform="translate(-425.00247,47.016457)" />
  <g
     inkscape:groupmode="layer"
     id="layer10"
     inkscape:label="devices"
     style="display:inline;filter:url(#filter7554)"
     transform="translate(-425.00247,47.016457)" />
  <g
     inkscape:groupmode="layer"
     id="layer1"
     inkscape:label="places"
     style="display:inline"
     transform="translate(-184.00227,-569.98354)" />
  <g
     inkscape:groupmode="layer"
     id="layer14"
     inkscape:label="mimetypes"
     style="display:inline"
     transform="translate(-425.00247,47.016457)" />
  <g
     inkscape:groupmode="layer"
     id="layer15"
     inkscape:label="emblems"
     style="display:inline"
     transform="translate(-425.00247,47.016457)" />
  <g
     inkscape:groupmode="layer"
     id="g71291"
     inkscape:label="emotes"
     style="display:inline"
     transform="translate(-425.00247,47.016457)" />
  <g
     inkscape:groupmode="layer"
     id="layer2"
     inkscape:label="categories"
     style="display:inline"
     transform="translate(-184.00227,-419.98354)" />
  <g
     inkscape:groupmode="layer"
     id="g6058"
     inkscape:label="apps"
     style="display:inline"
     transform="translate(-184.00227,-419.98354)" />
  <g
     inkscape:groupmode="layer"
     id="layer12"
     inkscape:label="actions"
     style="display:inline"
     transform="translate(-425.00247,47.016457)">
    <path
       inkscape:connector-curvature="0"
       d="m 448.0024,-34.516387 h -2.74999 c 0,-3.913482 -2.56488,-7.201933 -6.05858,-8.190245 -0.0434,-0.01276 -0.0854,-0.03259 -0.12883,-0.0442 -0.35088,-0.09279 -0.70695,-0.132319 -1.07422,-0.177086 -0.32076,-0.0391 -0.65733,-0.08854 -0.98828,-0.08854 -0.8474,9.04e-4 -1.6897,0.134728 -2.49217,0.398445 v 0.0442 c -1.15719,0.378342 -2.21873,0.983637 -3.09374,1.815135 l 1.6328,2.257852 c 0.69025,-0.727103 1.59238,-1.199045 2.57812,-1.460962 v -0.0442 c 0.52266,-0.12651 1.08572,-0.172441 1.63281,-0.132744 0.24997,0.01813 0.48027,0.04052 0.73046,0.08854 2.56721,0.478571 4.51171,2.750944 4.51171,5.533948 h -2.74999 l 4.12498,5.666765 4.12499,-5.666765 z m -5.41405,6.242295 -1.6328,-2.257851 c -0.69025,0.727103 -1.59238,1.199044 -2.57812,1.460962 v 0.0442 c -0.52266,0.12651 -1.08572,0.17244 -1.63281,0.132744 -0.24997,-0.01813 -0.48027,-0.04052 -0.73046,-0.08854 -2.56721,-0.478572 -4.51171,-2.750945 -4.51171,-5.53395 h 2.74999 l -4.12498,-5.666764 -4.12499,5.666764 h 2.74999 c 0,3.913482 2.56487,7.201934 6.05857,8.190246 0.0443,0.01276 0.0843,0.03243 0.12884,0.0442 0.35088,0.09279 0.70694,0.132318 1.07422,0.177086 0.32076,0.0391 0.65733,0.08854 0.98828,0.08854 0.84741,-9.03e-4 1.6897,-0.134728 2.49218,-0.398445 v -0.0442 c 1.15718,-0.378342 2.21871,-0.983636 3.09374,-1.815136 z"
       id="path8675"
       style="display:inline;fill:#555555;fill-opacity:1;stroke:none;stroke-width:1.3956877;enable-background:new" />
  </g>
</svg>
