<?xml version="1.0" encoding="UTF-8" standalone="no"?>
<!-- Created with Inkscape (http://www.inkscape.org/) -->

<svg
   xmlns:dc="http://purl.org/dc/elements/1.1/"
   xmlns:cc="http://creativecommons.org/ns#"
   xmlns:rdf="http://www.w3.org/1999/02/22-rdf-syntax-ns#"
   xmlns:svg="http://www.w3.org/2000/svg"
   xmlns="http://www.w3.org/2000/svg"
   xmlns:sodipodi="http://sodipodi.sourceforge.net/DTD/sodipodi-0.dtd"
   xmlns:inkscape="http://www.inkscape.org/namespaces/inkscape"
   id="svg7384"
   style="enable-background:new"
   height="24"
   width="24"
   version="1.1"
   sodipodi:docname="configure.svg"
   inkscape:version="0.92.4 (5da689c313, 2019-01-14)">
  <sodipodi:namedview
     pagecolor="#ffffff"
     bordercolor="#666666"
     borderopacity="1"
     objecttolerance="10"
     gridtolerance="10"
     guidetolerance="10"
     inkscape:pageopacity="0"
     inkscape:pageshadow="2"
     inkscape:window-width="1362"
     inkscape:window-height="695"
     id="namedview11"
     showgrid="false"
     fit-margin-top="0"
     fit-margin-left="0"
     fit-margin-right="0"
     fit-margin-bottom="0"
     inkscape:zoom="21.458333"
     inkscape:cx="12"
     inkscape:cy="12"
     inkscape:window-x="0"
     inkscape:window-y="0"
     inkscape:window-maximized="1"
     inkscape:current-layer="svg7384"
     showguides="true">
    <inkscape:grid
       type="xygrid"
       id="grid4507"
       originx="0"
       originy="-2.3841858e-06" />
  </sodipodi:namedview>
  <metadata
     id="metadata90">
    <rdf:RDF>
      <cc:Work
         rdf:about="">
        <dc:format>image/svg+xml</dc:format>
        <dc:type
           rdf:resource="http://purl.org/dc/dcmitype/StillImage" />
        <dc:title>Paper Symbolic Icon Theme</dc:title>
      </cc:Work>
    </rdf:RDF>
  </metadata>
  <title
     id="title8473">Paper Symbolic Icon Theme</title>
  <defs
     id="defs7386" />
  <rect
     id="rect3465"
     style="fill:#427bc3;stroke-width:0.80406165"
     ry="0"
     height="0"
     width="4.587976"
     y="17.662472"
     x="-36.252247"
     transform="scale(-1,1)" />
  <path
     d="m 5.093618,0.48736751 c 1.2874595,0.0110293 2.5615167,0.51009412 3.5478069,1.48353799 1.4861371,1.4669602 1.8354001,3.5920257 1.1084931,5.3993236 0.055974,0.043816 0.1450671,0.094564 0.1971004,0.1458466 l 3.1780446,3.1378273 c 0.710351,0.700442 0.710351,1.852281 0,2.553501 l -0.29565,0.291851 c -0.70956,0.700443 -1.876394,0.700443 -2.586743,0 L 7.040182,10.361272 C 6.9881536,10.310675 6.9613448,10.22274 6.9164028,10.166706 5.085734,10.885049 2.9333978,10.539497 1.4472607,9.0724587 1.2462181,8.874778 1.0609438,8.660755 0.90484009,8.4405043 0.8528057,8.3665689 0.8047133,8.2973022 0.75740912,8.2210318 0.1653198,6.9896544 0.47673803,7.0629669 1.7673514,7.3945111 c 1.3055934,0 2.3652055,-1.0459943 2.3652055,-2.3348095 0,-1.2888139 -1.0596121,-2.3348095 -2.3652055,-2.3348095 -0.78840146,0 0.4683104,-1.4777001 1.428584,-1.87267175 0.045723,-0.0175717 0.078051,-0.0568011 0.1237792,-0.0729941 0.016554,-0.004888 0.032328,0.004888 0.048882,0 C 3.9220539,0.58970095 4.5141432,0.48243316 5.0936183,0.4873738 Z"
     style="fill:#b3b3b3;stroke:#808080;stroke-width:0.47440568;stroke-miterlimit:4;stroke-dasharray:none"
     sodipodi:nodetypes="csccccccccssccsccssc"
     id="rect2422"
     inkscape:connector-curvature="0" />
  <path
     d="m 23.023892,18.797974 c 0.678121,0.669405 0.677994,1.77533 1.22e-4,2.444492 l -1.791007,1.76799 c -0.677878,0.669163 -1.798199,0.669283 -2.47632,-1.21e-4 L 9.0408733,13.419392 c -0.6778773,-0.669163 -0.6778773,-1.775209 0,-2.444373 L 10.831879,9.2070329 c 0.677877,-0.6691634 1.798322,-0.6691634 2.476198,0 z"
     style="fill:#d84315;stroke:#bf360c;stroke-width:0.47440568;stroke-miterlimit:4;stroke-dasharray:none"
     id="path2432"
     inkscape:connector-curvature="0" />
</svg>
