<?xml version="1.0" encoding="UTF-8" standalone="no"?>
<!-- Created with Inkscape (http://www.inkscape.org/) -->

<svg
   xmlns:dc="http://purl.org/dc/elements/1.1/"
   xmlns:cc="http://creativecommons.org/ns#"
   xmlns:rdf="http://www.w3.org/1999/02/22-rdf-syntax-ns#"
   xmlns:svg="http://www.w3.org/2000/svg"
   xmlns="http://www.w3.org/2000/svg"
   xmlns:sodipodi="http://sodipodi.sourceforge.net/DTD/sodipodi-0.dtd"
   xmlns:inkscape="http://www.inkscape.org/namespaces/inkscape"
   id="svg7384"
   style="enable-background:new"
   height="24"
   width="24"
   version="1.1"
   sodipodi:docname="scheme_power.svg"
   inkscape:version="0.92.4 (5da689c313, 2019-01-14)">
  <sodipodi:namedview
     pagecolor="#ffffff"
     bordercolor="#666666"
     borderopacity="1"
     objecttolerance="10"
     gridtolerance="10"
     guidetolerance="10"
     inkscape:pageopacity="0"
     inkscape:pageshadow="2"
     inkscape:window-width="1362"
     inkscape:window-height="695"
     id="namedview11"
     showgrid="false"
     fit-margin-top="0"
     fit-margin-left="0"
     fit-margin-right="0"
     fit-margin-bottom="0"
     inkscape:zoom="16.6875"
     inkscape:cx="5.6629213"
     inkscape:cy="16"
     inkscape:window-x="0"
     inkscape:window-y="0"
     inkscape:window-maximized="1"
     inkscape:current-layer="svg7384" />
  <metadata
     id="metadata90">
    <rdf:RDF>
      <cc:Work
         rdf:about="">
        <dc:format>image/svg+xml</dc:format>
        <dc:type
           rdf:resource="http://purl.org/dc/dcmitype/StillImage" />
        <dc:title>Paper Symbolic Icon Theme</dc:title>
      </cc:Work>
    </rdf:RDF>
  </metadata>
  <title
     id="title8473">Paper Symbolic Icon Theme</title>
  <defs
     id="defs7386" />
  <path
     inkscape:connector-curvature="0"
     id="rect5826"
     style="fill:#ff9800;stroke-width:0.30324885;fill-opacity:1"
     d="M 7.6338482,21.522652 C 7.333205,21.221076 7.3314379,20.737301 7.6298858,20.437927 l 3.0166952,-3.026051 c 0.298449,-0.299374 0.780729,-0.297602 1.081372,0.004 0.300643,0.301576 0.30241,0.785351 0.004,1.084725 L 8.7152199,21.526626 C 8.4167712,21.826 7.9344918,21.824227 7.6338482,21.522652 Z" />
  <path
     inkscape:connector-curvature="0"
     id="rect5828"
     style="fill:#ff9800;stroke-width:0.30324885;fill-opacity:1"
     d="M 2.4766456,16.349456 C 2.1760021,16.04788 2.1742352,15.564105 2.4726838,15.264731 L 5.4893797,12.23868 c 0.2984483,-0.299374 0.7807282,-0.297601 1.0813714,0.004 0.3006436,0.301576 0.3024103,0.785351 0.00396,1.084725 L 3.5580174,16.35343 c -0.2984485,0.299374 -0.780728,0.297602 -1.0813718,-0.004 z" />
  <path
     inkscape:connector-curvature="0"
     id="path5845"
     style="fill:#000000;stroke-width:0.30324885"
     d="M 8.7560806,10.485959 14.139091,8.3964968 10.652579,6.3511727 21.724785,2.25 16.657379,7.0251898 21.75,9.153215 11.253746,13.908301 8.7562108,10.485961 Z" />
  <path
     inkscape:connector-curvature="0"
     id="path5824"
     style="fill:#1a1a1a;stroke-width:0.30324885;fill-opacity:1"
     d="M 13.244889,20.235384 C 15.62907,17.563854 15.52697,13.443821 12.949659,10.858517 10.372561,8.2734277 6.2585397,8.1642218 3.5951185,10.555688 l 9.6495555,9.67948 z" />
</svg>
