<svg version="1" viewBox="0 0 16 16" xmlns="http://www.w3.org/2000/svg">
    <path d="m12.073155 0c-0.707903 0-1.33239 0.25601999-1.886491 0.59121952-0.5864343-0.37692681-1.2529397-0.64013814-1.8533255-0.56780489h-0.00195c-0.9543096 0.11501491-1.8861709 0.75280605-2.3351924 1.4985366-0.0410476 8.513e-4 -0.0734218-0.020274-0.1151013-0.017561-0.2405547 0.015653-0.4487276 0.05504-0.6398853 0.1034146-0.7236239 0.1831264-1.5254251 0.7125816-1.9372139 1.5356098-0.2323114 0.051062-0.4802044 0.051937-0.6886571 0.1502438-0.7618228 0.3594879-1.5784902 1.3318594-1.6133694 2.32-0.0348793 0.9881407 0.400055 1.6104299 0.7920531 2.0565854 0.1554127 0.176884 0.3617087 0.2587715 0.5325876 0.3980488-0.057102 0.1708713-0.1914373 0.2866386-0.2302027 0.4682927-0.408231 1.9114347 0.3088367 3.7058967 1.4436437 5.0634147 1.134807 1.357517 2.8214166 2.4 4.830354 2.4 2.0906262 0 4.1706342-1.627088 4.5864952-3.933659 0.031214-1.077073-0.967632-4.074146 1.531432-7.2214628 0.334593-0.7140466 0.656464-1.4774866 0.442848-2.5970733-0.106808-0.5597933-0.453091-1.2426452-1.03006-1.6760976-0.576967-0.43345234-1.250846-0.57170731-1.827965-0.57170731z" fill="#40c4ff" stroke-width=".99893492"/>
    <path d="m12.083984 2c-2.221421 0-2.6383454 4-1.388672 4 1.249495 0 3.610185-4 1.388672-4zm-3.505859 0.0097656c-1.6940133 0.2041288-1.0992707 2.9391174-0.1972656 2.9902344 0.9016381 0.051118 1.8918906-3.1943627 0.1972656-2.9902344zm-2.5644531 1.4921875c-0.0865275 0.0056295-0.1801948 0.0218009-0.2792969 0.046875-1.5859268 0.4012765-0.2400108 2.056642 0.6484375 1.9453125 0.8335903-0.1042079 0.9287776-2.0766535-0.3691406-1.9921875zm-2.0859375 1.4980469c-0.1415634-0.0032399-0.2959886 0.0286138-0.4589844 0.1054688-1.3033781 0.6149259 0.4401924 2.101479 1.2070312 1.8710937 0.6709853-0.2016741 0.2428978-1.9537911-0.7480468-1.9765625zm4.921875 1c-1.9654387-0.0347861-4.3566766 0.8913504-4.7988282 2.9628906-0.4788664 2.2417644 1.7697466 5.0527344 4.3261719 5.0527344 1.2576294 0 2.3516579-0.78798 2.6230469-2.292969 0.207272-1.147638-2.2513452-0.689076-2.15625 0.070313 0.07765 0.620389-0.2454487 1.196931-0.6933594 1.207031-1.0744939-0.074113-1.069938-0.779101-1.1503906-1.3125-0.1095179-1.400656 4.46071-2.4004209 4.111328-4.5722656-0.127786-0.7943503-1.082455-1.0943624-2.2617186-1.1152344z" fill="#fff"/>
</svg>
