<?xml version="1.0" encoding="UTF-8" standalone="no"?>
<!-- Created with Inkscape (http://www.inkscape.org/) -->

<svg
   xmlns:dc="http://purl.org/dc/elements/1.1/"
   xmlns:cc="http://creativecommons.org/ns#"
   xmlns:rdf="http://www.w3.org/1999/02/22-rdf-syntax-ns#"
   xmlns:svg="http://www.w3.org/2000/svg"
   xmlns="http://www.w3.org/2000/svg"
   xmlns:sodipodi="http://sodipodi.sourceforge.net/DTD/sodipodi-0.dtd"
   xmlns:inkscape="http://www.inkscape.org/namespaces/inkscape"
   width="16"
   height="16"
   viewBox="0 0 4.2333333 4.2333333"
   version="1.1"
   id="svg8"
   inkscape:version="0.92.4 (5da689c313, 2019-01-14)"
   sodipodi:docname="desktop-profiler.svg"
   inkscape:export-filename="/home/john/Nextcloud/Q4OS Stuff/desktop-profiler.png"
   inkscape:export-xdpi="96"
   inkscape:export-ydpi="96">
  <defs
     id="defs2">
    <style
       id="current-color-scheme"
       type="text/css">
   .ColorScheme-Text { color:#5c616c; } .ColorScheme-Highlight { color:#5294e2; } .ColorScheme-ButtonBackground { color:#d3dae3; }
  </style>
  </defs>
  <sodipodi:namedview
     id="base"
     pagecolor="#ffffff"
     bordercolor="#666666"
     borderopacity="1.0"
     inkscape:pageopacity="0.0"
     inkscape:pageshadow="2"
     inkscape:zoom="32.1875"
     inkscape:cx="8"
     inkscape:cy="8"
     inkscape:document-units="mm"
     inkscape:current-layer="layer1"
     showgrid="false"
     units="px"
     inkscape:window-width="1362"
     inkscape:window-height="695"
     inkscape:window-x="0"
     inkscape:window-y="0"
     inkscape:window-maximized="1"
     fit-margin-top="0"
     fit-margin-left="0"
     fit-margin-right="0"
     fit-margin-bottom="0" />
  <metadata
     id="metadata5">
    <rdf:RDF>
      <cc:Work
         rdf:about="">
        <dc:format>image/svg+xml</dc:format>
        <dc:type
           rdf:resource="http://purl.org/dc/dcmitype/StillImage" />
        <dc:title />
      </cc:Work>
    </rdf:RDF>
  </metadata>
  <g
     inkscape:label="Layer 1"
     inkscape:groupmode="layer"
     id="layer1"
     transform="translate(0,-292.76666)">
    <rect
       style="opacity:1;fill:#2196f3;fill-opacity:1;stroke:none;stroke-width:0.08544426;stroke-opacity:1"
       id="rect4909"
       width="4.1010418"
       height="3.7041667"
       x="0.06614577"
       y="293.03125" />
    <rect
       style="opacity:1;fill:#fafafa;fill-opacity:1;stroke:none;stroke-width:0.08115287;stroke-opacity:1"
       id="rect4909-5"
       width="3.8364584"
       height="3.5718751"
       x="0.19843744"
       y="293.03125" />
    <rect
       style="opacity:1;fill:#2196f3;fill-opacity:1;stroke:none;stroke-width:0.09063373;stroke-opacity:1"
       id="rect4907"
       width="4.1010418"
       height="0.66145831"
       x="0.06614577"
       y="293.03125" />
    <path
       style="display:inline;opacity:1;fill:#607d8b;fill-opacity:1;stroke:none;stroke-width:0.06524356;enable-background:new"
       d="m 1.8496041,293.81718 c -0.027663,0.003 -0.052048,0.0255 -0.057105,0.0529 l -0.055074,0.27931 c -0.098826,0.0386 -0.1917155,0.0919 -0.2732161,0.1571 l -0.2711846,-0.0917 c -0.02817,-0.01 -0.062277,0.003 -0.077413,0.0285 l -0.26103018,0.45265 c -0.0146994,0.026 -0.00833,0.0621 0.0143361,0.0816 l 0.21611148,0.18959 c -0.00761,0.0509 -0.012307,0.10199 -0.012307,0.15495 0,0.053 0.0047,0.1041 0.012307,0.15494 l -0.21611148,0.1896 c -0.0226664,0.0195 -0.0290356,0.0556 -0.0143361,0.0816 l 0.26103018,0.45265 c 0.015136,0.0256 0.049242,0.0383 0.077413,0.0286 l 0.2711849,-0.0918 c 0.081501,0.0652 0.1743904,0.11834 0.2732161,0.15698 l 0.055074,0.27931 c 0.00557,0.0293 0.033433,0.0526 0.063197,0.053 h 0.5219422 c 0.029764,-5.7e-4 0.057616,-0.0238 0.063196,-0.053 l 0.055073,-0.27931 c 0.098826,-0.0386 0.1917157,-0.0917 0.2732164,-0.15698 l 0.2711849,0.0918 c 0.028171,0.01 0.062277,-0.003 0.077413,-0.0286 l 0.2610299,-0.45265 c 0.014699,-0.026 0.00833,-0.0621 -0.014336,-0.0816 l -0.2161114,-0.18961 c 0.00761,-0.0509 0.012307,-0.10198 0.012307,-0.15494 0,-0.053 -0.0047,-0.1041 -0.012307,-0.15494 l 0.2161116,-0.1896 c 0.022666,-0.0195 0.029036,-0.0556 0.014336,-0.0816 l -0.2610297,-0.45267 c -0.015136,-0.0256 -0.049241,-0.0381 -0.077413,-0.0285 l -0.2711849,0.0918 c -0.081501,-0.0652 -0.1743906,-0.11841 -0.2732166,-0.15707 l -0.055072,-0.27929 c -0.00559,-0.0292 -0.033433,-0.0526 -0.063196,-0.0529 H 1.8556971 c -0.00203,-6e-5 -0.00406,-6e-5 -0.00609,0 z m 0.2670039,0.78285 c 0.2882649,0 0.5219417,0.23368 0.5219417,0.52194 0,0.28827 -0.2336768,0.52193 -0.5219417,0.52193 -0.2882648,0 -0.5219414,-0.23366 -0.5219414,-0.52193 0,-0.28826 0.2336766,-0.52194 0.5219414,-0.52194 z"
       id="path4081"
       inkscape:connector-curvature="0" />
  </g>
</svg>
