<?xml version="1.0" encoding="UTF-8" standalone="no"?>
<!-- Created with Inkscape (http://www.inkscape.org/) -->

<svg
   xmlns:dc="http://purl.org/dc/elements/1.1/"
   xmlns:cc="http://creativecommons.org/ns#"
   xmlns:rdf="http://www.w3.org/1999/02/22-rdf-syntax-ns#"
   xmlns:svg="http://www.w3.org/2000/svg"
   xmlns="http://www.w3.org/2000/svg"
   xmlns:sodipodi="http://sodipodi.sourceforge.net/DTD/sodipodi-0.dtd"
   xmlns:inkscape="http://www.inkscape.org/namespaces/inkscape"
   width="16"
   height="16"
   viewBox="0 0 4.2333333 4.2333333"
   version="1.1"
   id="svg8"
   inkscape:version="0.92.1 r15371"
   sodipodi:docname="desktop-profiler.svg"
   inkscape:export-filename="/home/john/Nextcloud/Q4OS Stuff/desktop-profiler.png"
   inkscape:export-xdpi="96"
   inkscape:export-ydpi="96">
  <defs
     id="defs2">
    <style
       id="current-color-scheme"
       type="text/css">
   .ColorScheme-Text { color:#5c616c; } .ColorScheme-Highlight { color:#5294e2; } .ColorScheme-ButtonBackground { color:#d3dae3; }
  </style>
  </defs>
  <sodipodi:namedview
     id="base"
     pagecolor="#ffffff"
     bordercolor="#666666"
     borderopacity="1.0"
     inkscape:pageopacity="0.0"
     inkscape:pageshadow="2"
     inkscape:zoom="16.9375"
     inkscape:cx="0.4458947"
     inkscape:cy="2.0027731"
     inkscape:document-units="mm"
     inkscape:current-layer="layer1"
     showgrid="false"
     units="px"
     inkscape:window-width="1366"
     inkscape:window-height="703"
     inkscape:window-x="-3"
     inkscape:window-y="-4"
     inkscape:window-maximized="1"
     fit-margin-top="0"
     fit-margin-left="0"
     fit-margin-right="0"
     fit-margin-bottom="0" />
  <metadata
     id="metadata5">
    <rdf:RDF>
      <cc:Work
         rdf:about="">
        <dc:format>image/svg+xml</dc:format>
        <dc:type
           rdf:resource="http://purl.org/dc/dcmitype/StillImage" />
        <dc:title />
      </cc:Work>
    </rdf:RDF>
  </metadata>
  <g
     inkscape:label="Layer 1"
     inkscape:groupmode="layer"
     id="layer1"
     transform="translate(-1.1682511e-6,-292.76666)">
    <rect
       style="opacity:1;fill:#3689e6;fill-opacity:1;stroke:none;stroke-width:0.08295602;stroke-opacity:1"
       id="rect4909"
       width="3.96875"
       height="3.6079547"
       x="0.13229282"
       y="293.07935" />
    <rect
       style="opacity:1;fill:#fafafa;fill-opacity:1;stroke:none;stroke-width:0.07825078;stroke-opacity:1"
       id="rect4909-5"
       width="3.7041667"
       height="3.4395833"
       x="0.26458451"
       y="293.11539" />
    <rect
       style="opacity:1;fill:#3689e6;fill-opacity:1;stroke:none;stroke-width:0.08879071;stroke-opacity:1"
       id="rect4907"
       width="3.96875"
       height="0.65599173"
       x="0.13229282"
       y="293.07935" />
    <path
       id="path5242"
       d="m 1.8013695,293.90918 -0.027831,0.33256 a 0.99204999,0.99204999 0 0 0 -0.2899347,0.16769 l -0.3022655,-0.14232 -0.31565242,0.54675 0.27443482,0.19059 a 0.99204999,0.99204999 0 0 0 -0.015147,0.16734 0.99204999,0.99204999 0 0 0 0.014447,0.16804 l -0.27372976,0.18988 0.31565226,0.54676 0.3015606,-0.14197 a 0.99204999,0.99204999 0 0 0 0.2906394,0.16663 l 0.027126,0.33362 h 0.6313044 l 0.02783,-0.33257 a 0.99204999,0.99204999 0 0 0 0.2899353,-0.16768 l 0.3022655,0.14233 0.315652,-0.54677 -0.2744342,-0.19058 a 0.99204999,0.99204999 0 0 0 0.01515,-0.16734 0.99204999,0.99204999 0 0 0 -0.014444,-0.16804 l 0.2737295,-0.18989 -0.315652,-0.54674 -0.3015608,0.14196 A 0.99204999,0.99204999 0 0 0 2.4598056,294.2428 l -0.027126,-0.33362 z m 0.3156523,0.90186 a 0.36074546,0.36074546 0 0 1 0.3607453,0.36075 0.36074546,0.36074546 0 0 1 -0.3607453,0.36074 0.36074546,0.36074546 0 0 1 -0.3607456,-0.36074 0.36074546,0.36074546 0 0 1 0.3607456,-0.36075 z"
       class="ColorScheme-Text"
       style="color:#5c616c;opacity:1;fill:#7e8087;stroke-width:0.18037273"
       inkscape:connector-curvature="0" />
  </g>
</svg>
