<?xml version="1.0" encoding="UTF-8" standalone="no"?>
<svg
   xmlns:dc="http://purl.org/dc/elements/1.1/"
   xmlns:cc="http://creativecommons.org/ns#"
   xmlns:rdf="http://www.w3.org/1999/02/22-rdf-syntax-ns#"
   xmlns:svg="http://www.w3.org/2000/svg"
   xmlns="http://www.w3.org/2000/svg"
   xmlns:sodipodi="http://sodipodi.sourceforge.net/DTD/sodipodi-0.dtd"
   xmlns:inkscape="http://www.inkscape.org/namespaces/inkscape"
   width="16"
   height="16"
   version="1.1"
   viewBox="0 0 16 16"
   id="svg14"
   sodipodi:docname="distributor-logo-q4os-m1.svg"
   inkscape:version="0.92.1 r15371"
   inkscape:export-filename="/home/john/Github/gui-art/icons_debonaire/drafts/jb/menu-icon-variant3.png"
   inkscape:export-xdpi="288"
   inkscape:export-ydpi="288">
  <metadata
     id="metadata20">
    <rdf:RDF>
      <cc:Work
         rdf:about="">
        <dc:format>image/svg+xml</dc:format>
        <dc:type
           rdf:resource="http://purl.org/dc/dcmitype/StillImage" />
        <dc:title />
        <cc:license
           rdf:resource="https://www.gnu.org/licenses/old-licenses/gpl-2.0.txt" />
      </cc:Work>
    </rdf:RDF>
  </metadata>
  <defs
     id="defs18" />
  <sodipodi:namedview
     pagecolor="#ffffff"
     bordercolor="#666666"
     borderopacity="1"
     objecttolerance="10"
     gridtolerance="10"
     guidetolerance="10"
     inkscape:pageopacity="0"
     inkscape:pageshadow="2"
     inkscape:window-width="1366"
     inkscape:window-height="703"
     id="namedview16"
     showgrid="false"
     inkscape:zoom="16.9375"
     inkscape:cx="-4.3690036"
     inkscape:cy="14.878228"
     inkscape:window-x="-3"
     inkscape:window-y="-4"
     inkscape:window-maximized="1"
     inkscape:current-layer="svg14"
     fit-margin-top="0"
     fit-margin-left="0"
     fit-margin-right="0"
     fit-margin-bottom="0" />
  <g
     id="g4493"
     transform="matrix(0.9375,0,0,0.9375,0.5,0.5)">
    <circle
       style="fill:#448aff;fill-opacity:1;stroke-width:0.2857143"
       cx="8"
       cy="8"
       r="8"
       id="circle4" />
    <g
       transform="matrix(0.28571428,0,0,0.28571428,-1.1428571,-1.1428571)"
       id="g4649">
      <path
         style="display:inline;fill:#fafafa;stroke-width:0.05060423"
         d="m 38.732422,33.333984 -0.002,0.002 H 37.080078 C 36.579097,35.107085 35.187164,36.499018 33.416016,37 v 11.740234 c 2.872012,-0.238149 5.531183,-1.211546 7.810546,-2.71289 l 1.246094,1.246094 5.09961,-5.09961 -1.310547,-1.310547 c 1.383111,-2.219224 2.276454,-4.775655 2.49414,-7.527343 H 38.734375 Z"
         id="path4-7"
         inkscape:connector-curvature="0" />
      <path
         style="fill:#fafafa;stroke-width:0.05060423"
         inkscape:connector-curvature="0"
         class="st2"
         d="M 26.853489,33.335952 H 15.254999 C 15.902733,41.549018 22.455981,48.102266 30.669047,48.75 V 37.045242 c -1.841994,-0.465559 -3.299395,-1.887538 -3.815558,-3.70929 z"
         id="path8-3" />
      <path
         style="fill:#fafafa;stroke-width:0.05060423"
         inkscape:connector-curvature="0"
         class="st3"
         d="M 30.669047,26.7321 V 15.25 c -8.187764,0.647734 -14.72583,7.160499 -15.408988,15.338142 h 11.552946 c 0.47568,-1.892598 1.963444,-3.380362 3.856042,-3.856042 z"
         id="path12-6" />
      <path
         style="fill:#fafafa;stroke-width:0.05060423"
         inkscape:connector-curvature="0"
         class="st4"
         d="M 37.121087,30.588142 H 48.744878 C 48.071842,22.435801 41.569199,15.933157 33.416857,15.25506 v 11.517523 c 1.821752,0.516163 3.243731,1.973565 3.70423,3.815559 z"
         id="path16-9" />
    </g>
  </g>
</svg>
