<?xml version="1.0" encoding="UTF-8" standalone="no"?>
<!-- Created with Inkscape (http://www.inkscape.org/) -->

<svg
   xmlns:dc="http://purl.org/dc/elements/1.1/"
   xmlns:cc="http://creativecommons.org/ns#"
   xmlns:rdf="http://www.w3.org/1999/02/22-rdf-syntax-ns#"
   xmlns:svg="http://www.w3.org/2000/svg"
   xmlns="http://www.w3.org/2000/svg"
   xmlns:sodipodi="http://sodipodi.sourceforge.net/DTD/sodipodi-0.dtd"
   xmlns:inkscape="http://www.inkscape.org/namespaces/inkscape"
   version="1.1"
   id="svg2"
   width="16"
   height="16"
   viewBox="0 0 16 16"
   sodipodi:docname="konqueror.svg"
   inkscape:version="0.92.4 (5da689c313, 2019-01-14)"
   inkscape:export-filename="/home/john/Nextcloud/Q4OS Stuff/tdevelop.png"
   inkscape:export-xdpi="96"
   inkscape:export-ydpi="96">
  <metadata
     id="metadata8">
    <rdf:RDF>
      <cc:Work
         rdf:about="">
        <dc:format>image/svg+xml</dc:format>
        <dc:type
           rdf:resource="http://purl.org/dc/dcmitype/StillImage" />
        <dc:title />
      </cc:Work>
    </rdf:RDF>
  </metadata>
  <defs
     id="defs6" />
  <sodipodi:namedview
     pagecolor="#ffffff"
     bordercolor="#666666"
     borderopacity="1"
     objecttolerance="10"
     gridtolerance="10"
     guidetolerance="10"
     inkscape:pageopacity="0"
     inkscape:pageshadow="2"
     inkscape:window-width="1362"
     inkscape:window-height="695"
     id="namedview4"
     showgrid="false"
     fit-margin-top="0"
     fit-margin-left="0"
     fit-margin-right="0"
     fit-margin-bottom="0"
     showguides="true"
     inkscape:zoom="32.1875"
     inkscape:cx="2.6407767"
     inkscape:cy="8"
     inkscape:window-x="0"
     inkscape:window-y="0"
     inkscape:window-maximized="1"
     inkscape:current-layer="svg2"
     inkscape:snap-grids="true" />
  <path
     style="fill:#b0bec5;fill-opacity:1;stroke-width:0.19639625"
     d="M 3.4044141,0.00136285 C 3.3683518,0.00509296 3.333522,0.02103263 3.3064372,0.04827296 L 2.0529904,1.3014976 c -0.0527,0.052852 -0.062628,0.1348058 -0.023775,0.1987985 L 3.496732,3.917281 C 3.2364522,4.3548568 3.0278384,4.8266457 2.8787406,5.3243478 L 0.18461732,5.8847295 c -0.0749585,0.015514 -0.12896366,0.081942 -0.12896366,0.1588639 v 1.7723678 c 0,0.07496 0.0512817,0.1398772 0.12350771,0.1573373 L 2.7940695,8.612458 c 0.1394445,0.5764191 0.3555327,1.1228375 0.6411273,1.625068 l -1.5135616,2.308092 c -0.042228,0.06451 -0.033402,0.149481 0.021157,0.203815 l 1.2530074,1.25323 c 0.0527,0.05256 0.1349726,0.06288 0.199235,0.0242 L 5.7668457,12.586408 C 6.2327409,12.85526 6.735188,13.066825 7.266223,13.2103 l 0.5533996,2.66073 C 7.8351945,15.94642 7.9018395,16 7.9782669,16 h 1.772588 c 0.074517,0 0.1395483,-0.05085 0.1573345,-0.123955 l 0.6518156,-2.666183 c 0.547399,-0.14773 1.065123,-0.367912 1.542364,-0.64898 l 2.337332,1.532544 c 0.06427,0.04231 0.149263,0.03383 0.203818,-0.0207 L 15.896967,12.8195 c 0.05302,-0.053 0.06251,-0.134964 0.02357,-0.198793 L 14.325202,10.599952 C 13.609,9.6175774 13.697797,9.7182106 13.436335,9.4390647 12.596088,11.083554 10.886568,12.209992 8.912458,12.209992 c -2.8046995,0 -5.0785885,-2.2739366 -5.0785885,-5.0788028 0,-2.0633597 1.2306984,-3.8378521 2.9974455,-4.6327643 V 1.1882478 C 6.5097706,1.3007332 6.1989199,1.4363567 5.9036672,1.5971873 5.9034571,1.5969904 5.9032123,1.5964867 5.9024064,1.5956427 L 3.5100835,0.02660993 C 3.4778641,0.00552692 3.4405216,-0.00285796 3.4044673,8.5114114e-4 Z"
     id="path5692_2_-3"
     inkscape:connector-curvature="0"
     sodipodi:nodetypes="cccccccssccccccccccsscccccccccssccccccc" />
  <ellipse
     style="opacity:1;fill:#2196f3;fill-opacity:1;stroke-width:0.26268399"
     id="path5219-3"
     cx="8.9869108"
     cy="7.0687408"
     rx="5.3850222"
     ry="5.3850226" />
  <path
     inkscape:connector-curvature="0"
     style="opacity:1;fill:#fafafa;stroke-width:0.52541393"
     class="ColorScheme-Text"
     d="m 9.0484863,2.8662319 a 4.2035786,4.2030435 0 0 0 -3.0336375,1.2313606 4.2035786,4.2030435 0 0 0 0,5.9433655 4.2035786,4.2030435 0 0 0 5.9441232,0 4.2035786,4.2030435 0 0 0 0,-5.9433655 A 4.2035786,4.2030435 0 0 0 9.0484863,2.8662319 Z M 8.9335456,3.3916125 a 3.6781315,3.6776632 0 0 1 2.4589284,0.9009462 l -0.737883,0.737789 A 4.203311,2.6270694 44.991678 0 0 7.8046544,3.5896562 3.6781315,3.6776632 0 0 1 8.9335456,3.3916125 Z M 7.3428349,4.0780961 A 3.6778972,2.1016556 44.992816 0 1 10.282056,5.4028336 L 8.986911,6.6978153 6.5957148,4.3069244 A 3.6778972,2.1016556 44.992816 0 1 7.3428349,4.0780961 Z M 11.767061,4.6609404 A 3.6781315,3.6776632 0 0 1 12.469027,8.2390685 4.203311,2.6270694 44.991678 0 0 11.024046,5.4038612 Z M 6.2231814,4.6773592 8.615403,7.0692767 7.3192312,8.365286 A 3.6778972,2.1016556 44.992816 0 1 6.2231814,4.6773571 Z m 4.4314096,1.0959114 a 3.6778972,2.1016556 44.992816 0 1 1.09605,3.6879226 L 9.3584191,7.0692767 Z M 5.5047958,5.899485 A 4.203311,2.6270694 44.991678 0 0 6.9497756,8.7346933 L 6.206761,9.477613 A 3.6781315,3.6776632 0 0 1 5.5047958,5.899485 Z m 3.4821152,1.5412511 2.391195,2.390894 A 3.6778972,2.1016556 44.992816 0 1 7.6917654,8.7357199 Z M 7.3192312,9.1082058 A 4.203311,2.6270694 44.991678 0 0 10.169167,10.548897 3.6781315,3.6776632 0 0 1 6.581347,9.8459937 Z"
     id="path5" />
</svg>
