<?xml version="1.0" encoding="UTF-8" standalone="no"?>
<!-- Created with Inkscape (http://www.inkscape.org/) -->

<svg
   xmlns:dc="http://purl.org/dc/elements/1.1/"
   xmlns:cc="http://creativecommons.org/ns#"
   xmlns:rdf="http://www.w3.org/1999/02/22-rdf-syntax-ns#"
   xmlns:svg="http://www.w3.org/2000/svg"
   xmlns="http://www.w3.org/2000/svg"
   xmlns:sodipodi="http://sodipodi.sourceforge.net/DTD/sodipodi-0.dtd"
   xmlns:inkscape="http://www.inkscape.org/namespaces/inkscape"
   version="1.1"
   id="svg2"
   width="16"
   height="16"
   viewBox="0 0 16 16"
   sodipodi:docname="konqueror.svg"
   inkscape:version="0.92.4 (5da689c313, 2019-01-14)"
   inkscape:export-filename="/home/john/Nextcloud/Q4OS Stuff/tdevelop.png"
   inkscape:export-xdpi="96"
   inkscape:export-ydpi="96">
  <metadata
     id="metadata8">
    <rdf:RDF>
      <cc:Work
         rdf:about="">
        <dc:format>image/svg+xml</dc:format>
        <dc:type
           rdf:resource="http://purl.org/dc/dcmitype/StillImage" />
        <dc:title></dc:title>
      </cc:Work>
    </rdf:RDF>
  </metadata>
  <defs
     id="defs6" />
  <sodipodi:namedview
     pagecolor="#ffffff"
     bordercolor="#666666"
     borderopacity="1"
     objecttolerance="10"
     gridtolerance="10"
     guidetolerance="10"
     inkscape:pageopacity="0"
     inkscape:pageshadow="2"
     inkscape:window-width="1362"
     inkscape:window-height="695"
     id="namedview4"
     showgrid="false"
     fit-margin-top="0"
     fit-margin-left="0"
     fit-margin-right="0"
     fit-margin-bottom="0"
     showguides="true"
     inkscape:zoom="32.1875"
     inkscape:cx="8"
     inkscape:cy="8"
     inkscape:window-x="0"
     inkscape:window-y="0"
     inkscape:window-maximized="1"
     inkscape:current-layer="svg2"
     inkscape:snap-grids="true" />
  <path
     style="fill:#cfd8dc;fill-opacity:1;stroke-width:0.18691303"
     d="m 3.6870617,0.2738785 c -0.034321,0.00355 -0.067469,0.01872 -0.093246,0.044645 L 2.400893,1.5112347 C 2.350738,1.5615347 2.341289,1.6395313 2.378266,1.700434 L 3.7749219,4.000712 C 3.52721,4.417159 3.3286694,4.866167 3.1867709,5.339837 L 0.6227365,5.87316 C 0.5513975,5.887925 0.5,5.951145 0.5,6.024353 V 7.71114 c 0,0.07134 0.0488055,0.133123 0.117544,0.14974 l 2.4886443,0.608297 c 0.1327112,0.548586 0.3383654,1.06862 0.6101697,1.5466 L 2.2758805,12.21242 c -0.040189,0.06139 -0.031789,0.142263 0.020135,0.193973 L 3.48852,13.59911 c 0.050155,0.05002 0.1284553,0.05984 0.1896147,0.02303 l 2.2572858,-1.3709 c 0.443399,0.25587 0.9215848,0.45722 1.4269782,0.593767 l 0.526678,2.532253 c 0.01482,0.07175 0.078247,0.122743 0.150984,0.122743 h 1.6869966 c 0.070919,0 0.13281,-0.04839 0.1497374,-0.11797 L 10.497137,12.84459 c 0.520967,-0.140597 1.013692,-0.350147 1.467889,-0.617643 l 2.224471,1.458543 c 0.06117,0.04027 0.142056,0.0322 0.193976,-0.0197 l 1.192924,-1.192713 c 0.05046,-0.05044 0.05949,-0.128447 0.02243,-0.189194 l -1.5183,-1.92318 C 13.398907,9.425763 13.483417,9.521537 13.23458,9.25587 12.434905,10.820953 10.807931,11.893 8.9291433,11.893 c -2.6692713,0 -4.833363,-2.164137 -4.833363,-4.833567 0,-1.963728 1.1712727,-3.652537 2.8527104,-4.409066 V 1.4034533 C 6.6424725,1.5105073 6.3466315,1.639582 6.0656355,1.7926467 c -2e-4,-1.874e-4 -4.33e-4,-6.667e-4 -0.0012,-0.00147 L 3.7876287,0.2979065 C 3.7569651,0.2778415 3.7214257,0.2698615 3.6871123,0.2733915 Z"
     id="path5692_2_-3"
     inkscape:connector-curvature="0"
     sodipodi:nodetypes="cccccccssccccccccccsscccccccccssccccccc" />
  <ellipse
     style="opacity:1;fill:#2196f3;fill-opacity:1;stroke-width:0.25"
     id="path5219-3"
     cx="9.000001"
     cy="7"
     rx="5.125"
     ry="5.1250005" />
  <path
     inkscape:connector-curvature="0"
     style="opacity:1;fill:#fafafa;stroke-width:0.50004369"
     class="ColorScheme-Text"
     d="m 9.0586033,3.000414 a 4.000604,4.0000947 0 0 0 -2.8871548,1.171903 4.000604,4.0000947 0 0 0 0,5.656383 4.000604,4.0000947 0 0 0 5.6571045,0 4.000604,4.0000947 0 0 0 0,-5.656383 A 4.000604,4.0000947 0 0 0 9.0586033,3.000414 Z M 8.9492127,3.500426 A 3.5005287,3.500083 0 0 1 11.289409,4.357869 L 10.587155,5.060033 A 4.0003493,2.5002183 44.991678 0 0 7.8748313,3.688907 3.5005287,3.500083 0 0 1 8.9492127,3.500426 Z M 7.4353113,4.153762 A 3.5003057,2.0001747 44.992816 0 1 10.232609,5.414533 L 9.0000013,6.646985 6.7242667,4.371541 A 3.5003057,2.0001747 44.992816 0 1 7.4353113,4.153762 Z m 4.2105977,0.554701 a 3.5005287,3.500083 0 0 1 0.66807,3.405354 4.0003493,2.5002183 44.991678 0 0 -1.375208,-2.698306 z M 6.3697215,4.724089 8.646432,7.00051 7.4128473,8.23394 A 3.5003057,2.0001747 44.992816 0 1 6.3697215,4.724087 Z M 10.587155,5.767083 A 3.5003057,2.0001747 44.992816 0 1 11.630281,9.27693 L 9.3535707,7.00051 Z M 5.686024,5.887203 A 4.0003493,2.5002183 44.991678 0 0 7.0612313,8.58551 L 6.354094,9.292557 A 3.5005287,3.500083 0 0 1 5.686024,5.887203 Z M 9.0000013,7.354033 11.275735,9.62948 A 3.5003057,2.0001747 44.992816 0 1 7.7673933,8.586487 Z M 7.4128473,8.940987 A 4.0003493,2.5002183 44.991678 0 0 10.125171,10.312113 3.5005287,3.500083 0 0 1 6.7105927,9.64315 Z"
     id="path5" />
</svg>
