<svg version="1" viewBox="0 0 16 16" xmlns="http://www.w3.org/2000/svg">
    <path d="m1.003038 4.954297c-0.0018 0.030436-0.0028 0.060916-3e-3 0.091406v6.044884c1.82e-4 0.649794 0.338636 1.250149 0.887912 1.574994l5.224176 3.090615c0.549426 0.325072 1.226398 0.325072 1.775824 0l5.224175-3.090615c0.549475-0.324985 0.887965-0.925702 0.887875-1.575776v-6.0441023c-8.56e-4 -0.02294-0.0021-0.04586-0.0038-0.06875 0.0038-7.154e-4 -13.993162-0.0226557-13.993162-0.0226557z" fill="#fbc02d"/>
    <path d="m7.9582247-2e-8c-0.0163022 3.8615867e-4 -0.0323516 0.00306399-0.0486111 0.00390799a1.7768903 1.8191537 0 0 1 0.0903864-0.00234552v-0.00156247zm-0.1640625 0.01406235c-0.027934 0.003328-0.055846 0.0062644-0.08355 0.01093756a1.7768903 1.8191537 0 0 1 0.08355-0.01093756zm-0.464084 0.12031211c-0.0248 0.0103252-0.048561 0.0228947-0.072917 0.0343747a1.7768903 1.8191537 0 0 1 0.072917-0.0343747zm-5.6138239 3.3132701c-0.018245 0.013856-0.035516 0.02846-0.053168 0.042968a1.7768903 1.8191537 0 0 1 0.053168-0.042968zm-0.1587457 0.1367183c-0.016781 0.01618-0.033254 0.03242-0.049371 0.049218a1.7768903 1.8191537 0 0 1 0.049371-0.049218zm-0.1488715 0.1624995c-0.010591 0.013064-0.021679 0.025708-0.031901 0.039064a1.7768903 1.8191537 0 0 1 0.031901-0.039064zm-0.2476129 0.399217c-0.0044 0.00976-0.00792 0.019844-0.012153 0.029688a1.7768903 1.8191537 0 0 1 0.012153-0.029688zm-0.0736762 0.1937493c-0.00549 0.017092-0.01019 0.03428-0.015191 0.051563a1.7768903 1.8191537 0 0 1 0.015191-0.051563zm-0.056207 0.220312c-0.00198 0.01044-0.00427 0.020756-0.00608 0.031252a1.7768903 1.8191537 0 0 1 0.00608-0.031252zm-0.030382 0.2398428c-1.373e-4 0.00236-6.3e-4 0.00466-7.584e-4 0.00703 7.389e-4 0.0073 0.00146 0.014588 0.00228 0.021876-8.166e-4 0.01354-0.00177 0.027068-0.00228 0.040625v6.2202906c-9.018e-5 0.650073 0.3383999 1.250791 0.8879124 1.575776l5.2241742 3.090613c0.2729204 0.161477 0.5833159 0.242711 0.8879128 0.243751v-6.4015405a1.7768903 1.8191537 0 0 1-0.8886718-0.2421868l-5.2279732-3.0906145a1.7768903 1.8191537 0 0 1-0.882596-1.4656198z" opacity=".1"/>
    <path d="m8.0418071-2.0833286e-8v8.1249535e-4a1.7768903 1.8949475 0 0 0-0.9303945 0.25227852l-5.2281463 3.2193825a1.7768903 1.8949475 0 0 0-0.88326636 1.51936 1.7768903 1.8949475 0 0 0 0.88326636 1.5348217l5.2281463 3.2193828a1.7768903 1.8949475 0 0 0 1.7771744 0l5.228147-3.2193828a1.7768903 1.8949475 0 0 0 0.883266-1.5193597 1.7768903 1.8949475 0 0 0-0.883266-1.534822l-5.228147-3.2193825a1.7768903 1.8949475 0 0 0-0.8467799-0.25309101z" fill="#f9a825" stroke-width="1.0206195"/>
    <path d="m8-2.0833286e-8v9.9909912a1.7768903 1.8949475 0 0 0 0.8886717-0.2522774l5.2279733-3.2193828a1.7768903 1.8949475 0 0 0 0.882595-1.5152905c-0.0042-0.0774821-0.01305-0.1541641-0.02583-0.2294911a1.7768903 1.8949475 0 0 0 0-0.00325c-3.79e-4 -0.00221-0.0011-0.0043-0.0015-0.00651-0.01274-0.0729294-0.02891-0.1446217-0.04937-0.214843a1.7768903 1.8949475 0 0 0-0.0015-0.00651c-7.38e-4 -0.00254-0.0023-0.00477-3e-3 -0.00732-0.132699-0.4430469-0.414992-0.8248881-0.801386-1.0636429l-5.2279823-3.2193825c-0.2579507-0.15871559-0.5491706-0.24574522-0.8468965-0.25309101z" opacity=".07000002" stroke-width="1.0206195"/>
</svg>
