<?xml version="1.0" encoding="UTF-8"?>
<!-- Created with Inkscape (http://www.inkscape.org/) -->
<svg width="16" height="16" version="1.1" viewBox="0 0 4.2333 4.2333" xml:space="preserve" xmlns="http://www.w3.org/2000/svg"><circle cx="2.1167" cy="2.1167" r="1.9844" fill="#673ab7" stroke-width=".03878"/><path d="m2.8162 1.0942a0.35875 0.35875 0 0 0-0.35874 0.35874 0.35875 0.35875 0 0 0 0.00638 0.066079l-0.76705 0.39091a0.35875 0.35875 0 0 0-0.27971-0.13411 0.35875 0.35875 0 0 0-0.35874 0.35875 0.35875 0.35875 0 0 0 0.35874 0.35874 0.35875 0.35875 0 0 0 0.29837-0.15982l0.74572 0.39654a0.35875 0.35875 0 0 0-0.00365 0.050309 0.35875 0.35875 0 0 0 0.35875 0.35874 0.35875 0.35875 0 0 0 0.35874-0.35874 0.35875 0.35875 0 0 0-0.35874-0.35874 0.35875 0.35875 0 0 0-0.26361 0.11548l-0.77705-0.41314a0.35875 0.35875 0 0 0-7e-4 -0.014433l0.78899-0.40192a0.35875 0.35875 0 0 0 0.25232 0.10412 0.35875 0.35875 0 0 0 0.35874-0.35874 0.35875 0.35875 0 0 0-0.35874-0.35874z" fill="#fff" stroke-width=".035874"/></svg>
