<?xml version="1.0" encoding="UTF-8" standalone="no"?>
<!-- Created with Inkscape (http://www.inkscape.org/) -->

<svg
   xmlns:dc="http://purl.org/dc/elements/1.1/"
   xmlns:cc="http://creativecommons.org/ns#"
   xmlns:rdf="http://www.w3.org/1999/02/22-rdf-syntax-ns#"
   xmlns:svg="http://www.w3.org/2000/svg"
   xmlns="http://www.w3.org/2000/svg"
   xmlns:sodipodi="http://sodipodi.sourceforge.net/DTD/sodipodi-0.dtd"
   xmlns:inkscape="http://www.inkscape.org/namespaces/inkscape"
   width="16"
   height="16"
   viewBox="0 0 4.2333333 4.2333333"
   version="1.1"
   id="svg8"
   inkscape:version="0.92.1 r15371"
   sodipodi:docname="kuser.svg"
   inkscape:export-filename="/home/john/Nextcloud/Q4OS Stuff/icons/Paper-Q4OS/16x16/software-store.png"
   inkscape:export-xdpi="24"
   inkscape:export-ydpi="24">
  <defs
     id="defs2" />
  <sodipodi:namedview
     id="base"
     pagecolor="#ffffff"
     bordercolor="#666666"
     borderopacity="1.0"
     inkscape:pageopacity="0.0"
     inkscape:pageshadow="2"
     inkscape:zoom="33.375"
     inkscape:cx="8"
     inkscape:cy="8"
     inkscape:document-units="mm"
     inkscape:current-layer="layer1"
     showgrid="false"
     units="px"
     inkscape:window-width="1362"
     inkscape:window-height="695"
     inkscape:window-x="0"
     inkscape:window-y="0"
     inkscape:window-maximized="1" />
  <metadata
     id="metadata5">
    <rdf:RDF>
      <cc:Work
         rdf:about="">
        <dc:format>image/svg+xml</dc:format>
        <dc:type
           rdf:resource="http://purl.org/dc/dcmitype/StillImage" />
        <dc:title></dc:title>
      </cc:Work>
    </rdf:RDF>
  </metadata>
  <g
     inkscape:label="Layer 1"
     inkscape:groupmode="layer"
     id="layer1"
     transform="translate(0,-292.76666)">
    <path
       inkscape:connector-curvature="0"
       style="fill:#68b723;stroke:none;stroke-width:0.02389141px;stroke-linecap:butt;stroke-linejoin:miter;stroke-opacity:1"
       d="m 2.813086,292.83281 a 0.88984667,0.88984675 0 0 0 -0.8898465,0.88985 0.88984667,0.88984675 0 0 0 0.3206953,0.68384 c -0.36449,0.4436 -0.7596257,1.03994 -0.5895535,1.38222 0.1712917,0.34477 0.6618195,0.37224 1.1541708,0.37134 0.4923508,-7.9e-4 0.9865469,-0.0302 1.1650518,-0.37134 0.1687706,-0.3225 -0.2437299,-0.90591 -0.6326249,-1.35093 a 0.88984667,0.88984675 0 0 0 0.3619535,-0.71513 0.88984667,0.88984675 0 0 0 -0.8898465,-0.88985 z"
       id="path5217-7-9" />
    <path
       inkscape:connector-curvature="0"
       style="fill:#3689e6;stroke:none;stroke-width:0.02389086px;stroke-linecap:butt;stroke-linejoin:miter;stroke-opacity:1"
       d="m 1.4202547,293.60666 a 0.88982593,0.88982601 0 0 0 -0.88982571,0.88982 0.88982593,0.88982601 0 0 0 0.32068785,0.68385 c -0.3644815,0.44358 -0.75960825,1.0399 -0.58953979,1.38219 0.17128773,0.34474 0.66180435,0.37222 1.15414395,0.37131 0.4923395,-7.8e-4 0.9865242,-0.0302 1.1650251,-0.37131 0.1687668,-0.32251 -0.2437248,-0.9059 -0.6326105,-1.35091 a 0.88982593,0.88982601 0 0 0 0.361945,-0.71513 0.88982593,0.88982601 0 0 0 -0.8898259,-0.88982 z"
       id="path5217-2" />
  </g>
</svg>
