<svg width="16" height="16" version="1.1" viewBox="0 0 4.2333333 4.2333333" xmlns="http://www.w3.org/2000/svg">
    <g transform="translate(0,-292.76666)">
        <path d="m2.8981091 292.76666a0.99064179 0.99064195 0 0 0-0.9906416 0.99065 0.99064179 0.99064195 0 0 0 0.3570213 0.76133c-0.4057768 0.49384-0.8456704 1.15771-0.6563336 1.53879 0.1906943 0.3838 0.7367856 0.41439 1.2849065 0.41338 0.5481205-6.6e-4 1.0982953-0.0337 1.2970203-0.41338 0.1878878-0.35905-0.2713381-1.00854-0.7042841-1.50398a0.99064179 0.99064195 0 0 0 0.4029528-0.79614 0.99064179 0.99064195 0 0 0-0.9906416-0.99065z" fill="#8bc34a"/>
        <g transform="matrix(.32558139 0 0 .3255869 -.64602498 200.81756)" fill="#03a9f4">
            <path d="m6.085321 284.03559a3.0426379 3.0426381 0 0 0-3.0426374 3.04264 3.0426379 3.0426381 0 0 0 1.0965483 2.3383c-1.2462947 1.51679-2.5973754 3.55581-2.0158506 4.72622 0.5856949 1.17881 2.262949 1.27277 3.946437 1.26966 1.6834873-3e-3 3.3732845-0.10331 3.9836437-1.26966 0.577075-1.10275-0.8333835-3.0976-2.1631253-4.61925a3.0426379 3.0426381 0 0 0 1.2376216-2.44527 3.0426379 3.0426381 0 0 0-3.0426373-3.04264z"/>
            <path d="m6.0853295 284.03576a3.0426262 3.0426262 0 0 0-3.0426261 3.04263 3.0426262 3.0426262 0 0 0 0.0023 0.0637 3.0426262 3.0426262 0 0 1 3.0402902-2.99763 3.0426262 3.0426262 0 0 1 3.0403448 2.97894 3.0426262 3.0426262 0 0 0 0.0023-0.045 3.0426262 3.0426262 0 0 0-3.0426267-3.04263z" opacity=".2" stroke-width=".10866524"/>
        </g>
    </g>
</svg>
