<?xml version="1.0" encoding="UTF-8" standalone="no"?>
<!-- Created with Inkscape (http://www.inkscape.org/) -->

<svg
   xmlns:dc="http://purl.org/dc/elements/1.1/"
   xmlns:cc="http://creativecommons.org/ns#"
   xmlns:rdf="http://www.w3.org/1999/02/22-rdf-syntax-ns#"
   xmlns:svg="http://www.w3.org/2000/svg"
   xmlns="http://www.w3.org/2000/svg"
   xmlns:sodipodi="http://sodipodi.sourceforge.net/DTD/sodipodi-0.dtd"
   xmlns:inkscape="http://www.inkscape.org/namespaces/inkscape"
   version="1.1"
   id="svg2"
   width="16"
   height="16"
   viewBox="0 0 16 16"
   sodipodi:docname="tdenetworkmanager.svg"
   inkscape:version="0.92.4 (5da689c313, 2019-01-14)"
   inkscape:export-filename="/home/john/Nextcloud/Q4OS Stuff/tdevelop.png"
   inkscape:export-xdpi="96"
   inkscape:export-ydpi="96">
  <metadata
     id="metadata8">
    <rdf:RDF>
      <cc:Work
         rdf:about="">
        <dc:format>image/svg+xml</dc:format>
        <dc:type
           rdf:resource="http://purl.org/dc/dcmitype/StillImage" />
        <dc:title />
      </cc:Work>
    </rdf:RDF>
  </metadata>
  <defs
     id="defs6" />
  <sodipodi:namedview
     pagecolor="#ffffff"
     bordercolor="#666666"
     borderopacity="1"
     objecttolerance="10"
     gridtolerance="10"
     guidetolerance="10"
     inkscape:pageopacity="0"
     inkscape:pageshadow="2"
     inkscape:window-width="1362"
     inkscape:window-height="695"
     id="namedview4"
     showgrid="false"
     fit-margin-top="0"
     fit-margin-left="0"
     fit-margin-right="0"
     fit-margin-bottom="0"
     showguides="true"
     inkscape:zoom="32.1875"
     inkscape:cx="2.6407767"
     inkscape:cy="8"
     inkscape:window-x="0"
     inkscape:window-y="0"
     inkscape:window-maximized="1"
     inkscape:current-layer="svg2"
     inkscape:snap-grids="true" />
  <circle
     style="opacity:1;fill:#2e7d32;fill-opacity:1;stroke-width:0.39024392"
     id="path5219-3"
     cx="8"
     cy="8"
     r="8" />
  <path
     inkscape:connector-curvature="0"
     style="opacity:1;fill:#ffffff;stroke-width:0.81257099"
     class="ColorScheme-Text"
     d="m 8.0952302,1.5006741 a 6.500982,6.5001532 0 0 0 -4.6916274,1.9043425 6.500982,6.5001532 0 0 0 0,9.1916234 6.500982,6.5001532 0 0 0 9.1927942,0 6.500982,6.5001532 0 0 0 0,-9.1916234 A 6.500982,6.5001532 0 0 0 8.0952302,1.5006741 Z M 7.9174691,2.3131935 A 5.6883598,5.6876349 0 0 1 11.720288,3.7065371 L 10.579127,4.8475553 A 6.5005678,4.0628549 44.991672 0 0 6.1715996,2.6194751 5.6883598,5.6876349 0 0 1 7.9174691,2.3131935 Z M 5.4573807,3.3748645 A 5.6879969,3.2502837 44.992811 0 1 10.002989,5.4236179 L 8.0000008,7.4263511 4.3019328,3.7287548 A 5.6879969,3.2502837 44.992811 0 1 5.4573807,3.3748645 Z M 12.299601,4.2762527 A 5.6883598,5.6876349 0 0 1 13.385213,9.8099528 6.5005678,4.0628549 44.991672 0 0 11.150501,5.4252055 Z M 3.7257962,4.301648 7.4254515,8.0008325 5.4208761,10.005152 A 5.6879969,3.2502837 44.992811 0 1 3.7257962,4.3016452 Z m 6.8533308,1.6948631 a 5.6879969,3.2502837 44.992811 0 1 1.69508,5.7035039 L 8.5745508,8.0008318 Z M 2.6147881,6.1917069 A 6.5005678,4.0628549 44.991672 0 0 4.849501,10.576454 L 3.7004019,11.725407 A 5.6883598,5.6876349 0 0 1 2.6147881,6.1917069 Z M 8.0000008,8.5753076 11.69807,12.272906 A 5.6879969,3.2502837 44.992811 0 1 5.9970135,10.57804 Z M 5.4208761,11.154104 a 6.5005678,4.0628549 44.991672 0 0 4.4075272,2.228082 5.6883598,5.6876349 0 0 1 -5.5486908,-1.087063 z"
     id="path5" />
</svg>
