<svg version="1.1" viewBox="0 0 16 16" xmlns="http://www.w3.org/2000/svg">
    <circle cx="8" cy="8" r="8" fill="#2e7d32" stroke-width=".39024392"/>
    <path class="ColorScheme-Text" d="m8.1025558 1.0007256a7.0010576 7.0001651 0 0 0-5.0525219 2.0508304 7.0010576 7.0001651 0 0 0 0 9.898672 7.0010576 7.0001651 0 0 0 9.8999321 0 7.0010576 7.0001651 0 0 0 0-9.898672 7.0010576 7.0001651 0 0 0-4.8474102-2.0508304zm-0.1914351 0.8750209a6.125926 6.1251453 0 0 1 4.0953433 1.5005239l-1.228943 1.2287889a7.0006116 4.3753822 44.991672 0 0-4.7465674-2.399471 6.125926 6.1251453 0 0 1 1.8801671-0.3298418zm-2.6493259 1.143338a6.1255352 3.5003056 44.992811 0 1 4.8952702 2.2063499l-2.157064 2.1567896-3.9825348-3.9820268a6.1255352 3.5003056 44.992811 0 1 1.2443286-0.3811127zm7.3685452 0.9707258a6.125926 6.1251453 0 0 1 1.16912 5.9593694 7.0006116 4.3753822 44.991672 0 0-2.406613-4.7220356zm-9.2333286 0.0273488 3.9842442 3.9837372-2.1587735 2.1584977a6.1255352 3.5003056 44.992811 0 1-1.8254707-6.1422379zm7.3805096 1.8252372a6.1255352 3.5003056 44.992811 0 1 1.825471 6.1422357l-3.9842448-3.9837365zm-8.5769799 0.2102109a7.0006116 4.3753822 44.991672 0 0 2.406614 4.7220358l-1.2374914 1.237334a6.125926 6.1251453 0 0 1-1.1691226-5.9593698zm5.7994599 2.5669546 3.982536 3.9820292a6.1255352 3.5003056 44.992811 0 1-6.1395992-1.82524zm-2.7775189 2.7771652a7.0006116 4.3753822 44.991672 0 0 4.746568 2.399473 6.125926 6.1251453 0 0 1-5.9755134-1.170683z" fill="#fff" stroke-width=".87507647"/>
</svg>
