<?xml version="1.0" encoding="UTF-8" standalone="no"?>
<!-- Created with Inkscape (http://www.inkscape.org/) -->

<svg
   xmlns:dc="http://purl.org/dc/elements/1.1/"
   xmlns:cc="http://creativecommons.org/ns#"
   xmlns:rdf="http://www.w3.org/1999/02/22-rdf-syntax-ns#"
   xmlns:svg="http://www.w3.org/2000/svg"
   xmlns="http://www.w3.org/2000/svg"
   xmlns:sodipodi="http://sodipodi.sourceforge.net/DTD/sodipodi-0.dtd"
   xmlns:inkscape="http://www.inkscape.org/namespaces/inkscape"
   version="1.1"
   id="svg2"
   width="16"
   height="16"
   viewBox="0 0 16 16"
   sodipodi:docname="tdenetworkmanager_disabled.svg"
   inkscape:version="0.92.1 r15371"
   inkscape:export-filename="/home/john/Nextcloud/Q4OS Stuff/tdevelop.png"
   inkscape:export-xdpi="96"
   inkscape:export-ydpi="96">
  <metadata
     id="metadata8">
    <rdf:RDF>
      <cc:Work
         rdf:about="">
        <dc:format>image/svg+xml</dc:format>
        <dc:type
           rdf:resource="http://purl.org/dc/dcmitype/StillImage" />
        <dc:title></dc:title>
      </cc:Work>
    </rdf:RDF>
  </metadata>
  <defs
     id="defs6" />
  <sodipodi:namedview
     pagecolor="#ffffff"
     bordercolor="#666666"
     borderopacity="1"
     objecttolerance="10"
     gridtolerance="10"
     guidetolerance="10"
     inkscape:pageopacity="0"
     inkscape:pageshadow="2"
     inkscape:window-width="1366"
     inkscape:window-height="703"
     id="namedview4"
     showgrid="false"
     fit-margin-top="0"
     fit-margin-left="0"
     fit-margin-right="0"
     fit-margin-bottom="0"
     showguides="true"
     inkscape:zoom="33.875"
     inkscape:cx="8"
     inkscape:cy="8"
     inkscape:window-x="-3"
     inkscape:window-y="-4"
     inkscape:window-maximized="1"
     inkscape:current-layer="svg2"
     inkscape:snap-grids="true" />
  <ellipse
     style="opacity:1;fill:#666666;fill-opacity:1;stroke-width:0.36585367"
     id="path5219-3"
     cx="8"
     cy="8"
     rx="7.5"
     ry="7.5000005" />
  <path
     inkscape:connector-curvature="0"
     style="opacity:1;fill:#fafafa;stroke-width:0.73301858"
     class="ColorScheme-Text"
     d="m 8.0859066,2.1369717 a 5.8645218,5.8637747 0 0 0 -4.2323069,1.7179034 5.8645218,5.8637747 0 0 0 0,8.2917439 5.8645218,5.8637747 0 0 0 8.2928003,0 5.8645218,5.8637747 0 0 0 0,-8.2917439 5.8645218,5.8637747 0 0 0 -4.0604934,-1.7179034 z m -0.1603579,0.732972 a 5.1314571,5.1308036 0 0 1 3.4305153,1.2569324 l -1.02944,1.0293101 A 5.8641484,3.6650927 44.991678 0 0 6.3506036,3.1462397 5.1314571,5.1308036 0 0 1 7.9255487,2.8699437 Z M 5.7063083,3.8276749 A 5.13113,2.932074 44.992816 0 1 9.806892,5.6758511 L 8.0000003,7.4825125 4.6639812,4.1469186 A 5.13113,2.932074 44.992816 0 1 5.7063083,3.8276749 Z M 11.87866,4.6408153 A 5.1314571,5.1308036 0 0 1 12.857989,9.6327547 5.8641484,3.6650927 44.991678 0 0 10.84206,5.6772832 Z M 4.1442497,4.6637244 7.4817007,8.000751 5.6733776,9.8088434 A 5.13113,2.932074 44.992816 0 1 4.1442497,4.6637218 Z m 6.1823743,1.5289324 a 5.13113,2.932074 44.992816 0 1 1.529128,5.1451192 L 8.5183007,8.0007504 Z M 3.1420117,6.3687426 A 5.8641484,3.6650927 44.991678 0 0 5.1579413,10.324214 L 4.1213415,11.360682 A 5.1314571,5.1308036 0 0 1 3.1420117,6.3687426 Z M 8.0000003,8.5189838 11.336021,11.854579 A 5.13113,2.932074 44.992816 0 1 6.1931099,10.325644 Z M 5.6733776,10.845311 a 5.8641484,3.6650927 44.991678 0 0 3.9760205,2.009947 5.1314571,5.1308036 0 0 1 -5.0054618,-0.980637 z"
     id="path5" />
</svg>
