<?xml version="1.0" encoding="UTF-8" standalone="no"?>
<svg
   xmlns:dc="http://purl.org/dc/elements/1.1/"
   xmlns:cc="http://creativecommons.org/ns#"
   xmlns:rdf="http://www.w3.org/1999/02/22-rdf-syntax-ns#"
   xmlns:svg="http://www.w3.org/2000/svg"
   xmlns="http://www.w3.org/2000/svg"
   xmlns:sodipodi="http://sodipodi.sourceforge.net/DTD/sodipodi-0.dtd"
   xmlns:inkscape="http://www.inkscape.org/namespaces/inkscape"
   width="16"
   height="16"
   version="1"
   id="svg14"
   sodipodi:docname="tdepowersave.svg"
   inkscape:version="0.92.4 (5da689c313, 2019-01-14)">
  <metadata
     id="metadata20">
    <rdf:RDF>
      <cc:Work
         rdf:about="">
        <dc:format>image/svg+xml</dc:format>
        <dc:type
           rdf:resource="http://purl.org/dc/dcmitype/StillImage" />
        <dc:title></dc:title>
      </cc:Work>
    </rdf:RDF>
  </metadata>
  <defs
     id="defs18">
    <style
       type="text/css"
       id="current-color-scheme">
   .ColorScheme-Text { color:#5c616c; } .ColorScheme-Highlight { color:#5294e2; } .ColorScheme-ButtonBackground { color:#d3dae3; }
  </style>
    <filter
       inkscape:collect="always"
       style="color-interpolation-filters:sRGB"
       id="filter4760"
       x="-0.010615385"
       width="1.0212308"
       y="-0.0138"
       height="1.0276">
      <feGaussianBlur
         inkscape:collect="always"
         stdDeviation="0.17844827"
         id="feGaussianBlur4762" />
    </filter>
  </defs>
  <sodipodi:namedview
     pagecolor="#ffffff"
     bordercolor="#666666"
     borderopacity="1"
     objecttolerance="10"
     gridtolerance="10"
     guidetolerance="10"
     inkscape:pageopacity="0"
     inkscape:pageshadow="2"
     inkscape:window-width="1362"
     inkscape:window-height="695"
     id="namedview16"
     showgrid="false"
     inkscape:zoom="21.458333"
     inkscape:cx="12"
     inkscape:cy="12"
     inkscape:window-x="0"
     inkscape:window-y="0"
     inkscape:window-maximized="1"
     inkscape:current-layer="svg14"
     fit-margin-top="0"
     fit-margin-left="0"
     fit-margin-right="0"
     fit-margin-bottom="0" />
  <path
     inkscape:connector-curvature="0"
     d="m 2.1999997,0.2499993 v 0.803572 H 0.25 V 1.8571427 10.69643 C 0.25,11.141607 0.5399,11.5 0.9,11.5 h 5.2 c 0.3601,0 0.65,-0.358393 0.65,-0.80357 V 1.8571427 1.0535713 H 4.8 v -0.803572 z"
     style="opacity:1;fill:#f9ce1d;stroke-width:0.72271806"
     id="path6763"
     sodipodi:nodetypes="ccccssssccccc" />
  <path
     inkscape:connector-curvature="0"
     d="m 0.24999997,4.267857 v 6.428573 c 0,0.445177 0.28989998,0.80357 0.64999996,0.80357 H 6.1 c 0.3601,0 0.65,-0.358393 0.65,-0.80357 V 4.267857 Z"
     style="fill:#263238;stroke-width:0.72271806"
     id="path6765"
     sodipodi:nodetypes="csssscc" />
  <g
     id="layer9"
     inkscape:label="status"
     style="display:inline"
     transform="matrix(0.25,0,0,0.25,-69.387347,70.065907)" />
  <g
     id="layer1"
     inkscape:label="places"
     style="display:inline"
     transform="matrix(0.25,0,0,0.25,-9.1373013,-84.184093)" />
  <g
     id="layer14"
     inkscape:label="mimetypes"
     style="display:inline"
     transform="matrix(0.25,0,0,0.25,-69.387347,70.065907)" />
  <g
     id="layer15"
     inkscape:label="emblems"
     style="display:inline"
     transform="matrix(0.25,0,0,0.25,-69.387347,70.065907)" />
  <g
     id="g71291"
     inkscape:label="emotes"
     style="display:inline"
     transform="matrix(0.25,0,0,0.25,-69.387347,70.065907)" />
  <g
     id="layer2"
     inkscape:label="categories"
     style="display:inline"
     transform="matrix(0.25,0,0,0.25,-9.1373013,-46.68409)" />
  <g
     id="layer12"
     inkscape:label="actions"
     style="display:inline"
     transform="matrix(0.25,0,0,0.25,-69.387347,70.065907)" />
  <rect
     style="fill:#1a1a1a;stroke-width:0.19396551"
     width="1.3577586"
     height="11.25"
     x="-15.25"
     y="-15.75"
     rx="0.4849138"
     ry="0.4849138"
     transform="matrix(0,-1,-1,0,0,0)"
     id="rect4703" />
  <rect
     style="opacity:0.2;fill:#000000;stroke-width:0.7758621;filter:url(#filter4760)"
     width="40.344826"
     height="31.034483"
     x="20.327579"
     y="26.310516"
     rx="1.9396552"
     ry="1.9396552"
     id="rect4707-6"
     transform="scale(0.25)" />
  <rect
     style="fill:#1a1a1a;stroke-width:0.19396551"
     width="10.086206"
     height="7.7586198"
     x="5.0818949"
     y="6.3275862"
     rx="0.4849138"
     ry="0.4849138"
     id="rect4707" />
  <rect
     style="opacity:1;fill:#2196f3;stroke-width:0.19396551"
     width="8.534483"
     height="6.2068963"
     x="5.8577571"
     y="7.103447"
     id="rect4709" />
</svg>
