<?xml version="1.0" encoding="UTF-8" standalone="no"?>
<!-- Created with Inkscape (http://www.inkscape.org/) -->

<svg
   xmlns:osb="http://www.openswatchbook.org/uri/2009/osb"
   xmlns:dc="http://purl.org/dc/elements/1.1/"
   xmlns:cc="http://creativecommons.org/ns#"
   xmlns:rdf="http://www.w3.org/1999/02/22-rdf-syntax-ns#"
   xmlns:svg="http://www.w3.org/2000/svg"
   xmlns="http://www.w3.org/2000/svg"
   xmlns:sodipodi="http://sodipodi.sourceforge.net/DTD/sodipodi-0.dtd"
   xmlns:inkscape="http://www.inkscape.org/namespaces/inkscape"
   version="1.1"
   id="svg2"
   width="16"
   height="16"
   viewBox="0 0 16 16"
   sodipodi:docname="tdevelop.svg"
   inkscape:version="0.92.4 (5da689c313, 2019-01-14)"
   inkscape:export-filename="/home/john/Nextcloud/Q4OS Stuff/tdevelop.png"
   inkscape:export-xdpi="96"
   inkscape:export-ydpi="96">
  <metadata
     id="metadata8">
    <rdf:RDF>
      <cc:Work
         rdf:about="">
        <dc:format>image/svg+xml</dc:format>
        <dc:type
           rdf:resource="http://purl.org/dc/dcmitype/StillImage" />
        <dc:title />
      </cc:Work>
    </rdf:RDF>
  </metadata>
  <defs
     id="defs6">
    <linearGradient
       id="linearGradient5460"
       osb:paint="gradient">
      <stop
         style="stop-color:#e6e6e6;stop-opacity:1"
         offset="0"
         id="stop5462" />
      <stop
         style="stop-color:#ffffff;stop-opacity:1"
         offset="1"
         id="stop5464" />
    </linearGradient>
    <linearGradient
       id="linearGradient5476"
       osb:paint="solid">
      <stop
         style="stop-color:#772953;stop-opacity:1;"
         offset="0"
         id="stop5478" />
    </linearGradient>
  </defs>
  <sodipodi:namedview
     pagecolor="#ffffff"
     bordercolor="#666666"
     borderopacity="1"
     objecttolerance="10"
     gridtolerance="10"
     guidetolerance="10"
     inkscape:pageopacity="0"
     inkscape:pageshadow="2"
     inkscape:window-width="1362"
     inkscape:window-height="695"
     id="namedview4"
     showgrid="false"
     fit-margin-top="0"
     fit-margin-left="0"
     fit-margin-right="0"
     fit-margin-bottom="0"
     showguides="true"
     inkscape:zoom="32.1875"
     inkscape:cx="8"
     inkscape:cy="8"
     inkscape:window-x="0"
     inkscape:window-y="0"
     inkscape:window-maximized="1"
     inkscape:current-layer="svg2"
     inkscape:snap-grids="true" />
  <path
     style="fill:#cfd8dc;fill-opacity:1;stroke-width:0.19025885"
     d="m 3.5480271,0.25132715 c -0.034935,0.003593 -0.068676,0.0190563 -0.094915,0.045446 L 2.2388355,1.510832 c -0.051053,0.051199 -0.060671,0.1305937 -0.023032,0.1925863 l 1.421656,2.3414534 C 3.3853137,4.4687748 3.1832193,4.9258201 3.0387808,5.4079693 L 0.42884941,5.9508379 C 0.35623342,5.9658672 0.3039159,6.0302179 0.3039159,6.1047373 V 7.821719 c 0,0.072612 0.0496795,0.135505 0.11964809,0.1524191 L 2.9567558,8.5933226 c 0.1350869,0.5584086 0.3444221,1.087752 0.621092,1.5742864 l -1.4662625,2.235964 c -0.040908,0.06249 -0.032358,0.144809 0.020495,0.197446 l 1.2138507,1.214067 c 0.051053,0.05091 0.1307547,0.0609 0.1930087,0.02344 l 2.2976922,-1.395442 c 0.4513355,0.260446 0.9380813,0.465402 1.4525224,0.604395 l 0.5361053,2.577579 C 7.8403463,15.698099 7.9049065,15.75 7.9789465,15.75 h 1.7171943 c 0.07219,0 0.1351878,-0.04926 0.1524182,-0.120081 l 0.631444,-2.582864 c 0.530295,-0.143114 1.031839,-0.356417 1.494166,-0.6287 l 2.264292,1.484652 c 0.06226,0.04098 0.144599,0.03279 0.197446,-0.02006 l 1.214277,-1.214066 c 0.05137,-0.05134 0.06056,-0.130745 0.02282,-0.192579 L 14.127528,10.518695 C 13.433713,9.5670184 13.519735,9.664507 13.266443,9.3940845 12.452454,10.987182 10.796357,12.078421 8.8839383,12.078421 c -2.717053,0 -4.9198827,-2.2028779 -4.9198827,-4.9200909 0,-1.9988792 1.1922389,-3.7179182 2.9037753,-4.4879899 V 1.4011083 C 6.5563357,1.5100789 6.255199,1.6414637 5.9691736,1.7972685 5.9689639,1.7970743 5.968741,1.796556 5.9679521,1.795818 L 3.6503931,0.2757778 C 3.6191801,0.2553543 3.5830051,0.2472298 3.5480778,0.2508252 Z"
     id="path5692_2_-3"
     inkscape:connector-curvature="0"
     sodipodi:nodetypes="cccccccssccccccccccsscccccccccssccccccc" />
  <ellipse
     style="opacity:1;fill:#206b00;fill-opacity:1;stroke-width:0.25447509"
     id="path5219-3"
     cx="8.9560699"
     cy="7.0978484"
     rx="5.2167392"
     ry="5.2167397" />
  <ellipse
     style="opacity:1;fill:#fafafa;fill-opacity:1;stroke-width:0.25447509"
     id="path5219-3-6"
     cx="8.3187466"
     cy="8.4408445"
     rx="3.1809385"
     ry="3.1809387" />
  <path
     style="fill:#1a1a1a;fill-opacity:1;stroke-width:0.25447509"
     d="M 5.5195217,8.2499888 8.5731148,11.049214 10.100072,6.8503761 Z"
     id="path4661"
     inkscape:connector-curvature="0"
     sodipodi:nodetypes="cccc" />
</svg>
