<?xml version="1.0" encoding="UTF-8" standalone="no"?>
<!-- Created with Inkscape (http://www.inkscape.org/) -->

<svg
   xmlns:dc="http://purl.org/dc/elements/1.1/"
   xmlns:cc="http://creativecommons.org/ns#"
   xmlns:rdf="http://www.w3.org/1999/02/22-rdf-syntax-ns#"
   xmlns:svg="http://www.w3.org/2000/svg"
   xmlns="http://www.w3.org/2000/svg"
   xmlns:sodipodi="http://sodipodi.sourceforge.net/DTD/sodipodi-0.dtd"
   xmlns:inkscape="http://www.inkscape.org/namespaces/inkscape"
   version="1.1"
   id="svg2"
   width="16"
   height="16"
   viewBox="0 0 16 16"
   sodipodi:docname="tdevelop.svg"
   inkscape:version="0.92.4 (5da689c313, 2019-01-14)"
   inkscape:export-filename="/home/john/Nextcloud/Q4OS Stuff/tdevelop.png"
   inkscape:export-xdpi="96"
   inkscape:export-ydpi="96">
  <metadata
     id="metadata8">
    <rdf:RDF>
      <cc:Work
         rdf:about="">
        <dc:format>image/svg+xml</dc:format>
        <dc:type
           rdf:resource="http://purl.org/dc/dcmitype/StillImage" />
        <dc:title />
      </cc:Work>
    </rdf:RDF>
  </metadata>
  <defs
     id="defs6" />
  <sodipodi:namedview
     pagecolor="#ffffff"
     bordercolor="#666666"
     borderopacity="1"
     objecttolerance="10"
     gridtolerance="10"
     guidetolerance="10"
     inkscape:pageopacity="0"
     inkscape:pageshadow="2"
     inkscape:window-width="1362"
     inkscape:window-height="695"
     id="namedview4"
     showgrid="false"
     fit-margin-top="0"
     fit-margin-left="0"
     fit-margin-right="0"
     fit-margin-bottom="0"
     showguides="true"
     inkscape:zoom="32.1875"
     inkscape:cx="2.6407767"
     inkscape:cy="8"
     inkscape:window-x="0"
     inkscape:window-y="0"
     inkscape:window-maximized="1"
     inkscape:current-layer="svg2"
     inkscape:snap-grids="true" />
  <path
     style="fill:#b0bec5;fill-opacity:1;stroke-width:0.19639623"
     d="m 3.4044145,0.00136942 c -0.036062,0.0037089 -0.070891,0.01967102 -0.097977,0.046912 L 2.0529909,1.3015035 c -0.0527,0.052851 -0.062628,0.1348064 -0.023775,0.1987988 l 1.467516,2.4169842 C 3.2364523,4.3548639 3.0278387,4.8266526 2.8787409,5.324355 L 0.1846181,5.8847356 C 0.1096596,5.9002496 0.05565447,5.9666766 0.05565447,6.0435995 v 1.7723682 c 0,0.074954 0.05128207,0.1398762 0.12350771,0.1573359 L 2.7940699,8.6124618 c 0.1394446,0.5764218 0.3555325,1.1228408 0.6411273,1.6250702 l -1.5135614,2.308092 c -0.042228,0.06451 -0.033402,0.14948 0.021156,0.203815 l 1.2530072,1.25323 c 0.0527,0.05255 0.1349726,0.06287 0.1992348,0.0242 l 2.3718114,-1.440456 c 0.4658947,0.268848 0.968342,0.480415 1.499378,0.623892 l 0.553399,2.660727 C 7.8351958,15.946425 7.9018386,16 7.978267,16 h 1.7725877 c 0.074519,0 0.1395487,-0.05085 0.1573349,-0.123955 l 0.6518134,-2.666182 c 0.547401,-0.14773 1.065124,-0.367914 1.542365,-0.648981 l 2.337334,1.532545 c 0.06427,0.0423 0.149263,0.03385 0.203815,-0.02071 l 1.253447,-1.253229 c 0.05303,-0.053 0.06251,-0.134963 0.02356,-0.198791 L 14.32519,10.599943 C 13.608994,9.6175672 13.697791,9.7182006 13.436328,9.4390547 12.596081,11.083543 10.886562,12.209983 8.9124521,12.209983 c -2.8047,0 -5.0785888,-2.2739387 -5.0785888,-5.0788038 0,-2.0633593 1.2306983,-3.8378512 2.9974456,-4.632764 V 1.1882403 C 6.5097655,1.3007261 6.1989147,1.4363491 5.9036626,1.5971799 c -2.164e-4,-2.005e-4 -4.465e-4,-7.355e-4 -0.00126,-0.0015 L 3.5100827,0.0266088 C 3.4778628,0.00552647 3.4405209,-0.00286011 3.4044669,8.5127438e-4 Z"
     id="path5692_2_-3"
     inkscape:connector-curvature="0"
     sodipodi:nodetypes="cccccccssccccccccccsscccccccccssccccccc" />
  <ellipse
     style="opacity:1;fill:#206b00;fill-opacity:1;stroke-width:0.26268396"
     id="path5219-3"
     cx="8.9869108"
     cy="7.0687466"
     rx="5.3850212"
     ry="5.3850217" />
  <ellipse
     style="opacity:1;fill:#fafafa;fill-opacity:1;stroke-width:0.26268396"
     id="path5219-3-6"
     cx="8.3290281"
     cy="8.4550648"
     rx="3.2835495"
     ry="3.2835498" />
  <path
     style="fill:#1a1a1a;fill-opacity:1;stroke-width:0.26268396"
     d="M 5.4395058,8.2580527 8.591602,11.147576 10.167816,6.8132911 Z"
     id="path4661"
     inkscape:connector-curvature="0"
     sodipodi:nodetypes="cccc" />
</svg>
