<svg width="16" height="16" version="1.1" viewBox="0 0 4.2333333 4.2333333" xmlns="http://www.w3.org/2000/svg">
    <g transform="translate(-4.4504801e-7,-292.76666)">
        <path d="m2.1166893 292.76666a1.1321647 1.1321647 0 0 0-1.1321645 1.13216 1.1321647 1.1321647 0 0 0 0.4080253 0.87009c-0.46374598 0.56439-0.96648267 1.32311-0.75009738 1.75861 0.21793684 0.43864 0.84204268 0.47361 1.4684681 0.47245 0.6264252-1e-3 1.2551981-0.0385 1.4823125-0.47245 0.2147297-0.41032-0.3101016-1.15261-0.8048981-1.71881a1.1321647 1.1321647 0 0 0 0.4605186-0.90989 1.1321647 1.1321647 0 0 0-1.1321645-1.13216z" fill="#9575cd"/>
    </g>
</svg>
