<?xml version="1.0" encoding="UTF-8" standalone="no"?>
<!-- Created with Inkscape (http://www.inkscape.org/) -->

<svg
   xmlns:dc="http://purl.org/dc/elements/1.1/"
   xmlns:cc="http://creativecommons.org/ns#"
   xmlns:rdf="http://www.w3.org/1999/02/22-rdf-syntax-ns#"
   xmlns:svg="http://www.w3.org/2000/svg"
   xmlns="http://www.w3.org/2000/svg"
   xmlns:sodipodi="http://sodipodi.sourceforge.net/DTD/sodipodi-0.dtd"
   xmlns:inkscape="http://www.inkscape.org/namespaces/inkscape"
   width="16"
   height="16"
   viewBox="0 0 4.2333333 4.2333335"
   version="1.1"
   id="svg8"
   inkscape:version="0.92.4 (5da689c313, 2019-01-14)"
   sodipodi:docname="software-store.svg"
   inkscape:export-filename="/home/john/Nextcloud/Q4OS Stuff/icons/Paper-Q4OS/16x16/software-store.png"
   inkscape:export-xdpi="24"
   inkscape:export-ydpi="24">
  <defs
     id="defs2" />
  <sodipodi:namedview
     id="base"
     pagecolor="#ffffff"
     bordercolor="#666666"
     borderopacity="1.0"
     inkscape:pageopacity="0.0"
     inkscape:pageshadow="2"
     inkscape:zoom="32.1875"
     inkscape:cx="8"
     inkscape:cy="8"
     inkscape:document-units="mm"
     inkscape:current-layer="layer1"
     showgrid="false"
     units="px"
     inkscape:window-width="1362"
     inkscape:window-height="695"
     inkscape:window-x="0"
     inkscape:window-y="0"
     inkscape:window-maximized="1"
     fit-margin-top="0"
     fit-margin-left="0"
     fit-margin-right="0"
     fit-margin-bottom="0" />
  <metadata
     id="metadata5">
    <rdf:RDF>
      <cc:Work
         rdf:about="">
        <dc:format>image/svg+xml</dc:format>
        <dc:type
           rdf:resource="http://purl.org/dc/dcmitype/StillImage" />
        <dc:title />
      </cc:Work>
    </rdf:RDF>
  </metadata>
  <g
     inkscape:label="Layer 1"
     inkscape:groupmode="layer"
     id="layer1"
     transform="translate(-1.1126201e-6,-292.76666)">
    <path
       style="fill:#8d6e63;fill-opacity:1;stroke-width:0.00268099"
       d="m 0.21007474,296.34752 c -0.004536,-5.5e-4 -0.0175356,-0.003 -0.0288829,-0.005 -0.09331515,-0.0224 -0.16511127,-0.0986 -0.1786843,-0.1896 -0.002269891,-0.0153 -0.002884675,-0.1988 -0.002297239,-1.08587 l 8.20439e-4,-1.20982 0.00758854,-0.0231 c 0.0280545,-0.085 0.09608211,-0.14506 0.18413801,-0.16265 0.016294,-0.003 0.0914992,-0.004 0.51746009,-0.004 0.27411691,-2e-5 0.49989662,-0.001 0.50173262,-0.002 0.00257,-0.002 0.00353,-0.0623 0.00418,-0.26453 l 8.477e-4,-0.26251 0.00617,-0.0209 c 0.02592,-0.0877 0.1007097,-0.15196 0.1931476,-0.16582 0.024739,-0.004 1.2681171,-0.004 1.2928561,0 0.092442,0.0139 0.1672833,0.0781 0.1931347,0.16582 l 0.00616,0.0209 8.752e-4,0.26252 c 6.837e-4,0.20169 0.00162,0.26298 0.0042,0.26452 0.00181,10e-4 0.2276038,0.002 0.5017209,0.002 0.5414438,4e-5 0.5131081,-0.001 0.5554629,0.0144 0.02812,0.01 0.054196,0.0258 0.07737,0.0466 0.035645,0.0322 0.057787,0.0674 0.070133,0.11141 l 0.00622,0.0222 v 1.21896 1.07425 l -0.00604,0.0209 c -0.025869,0.0896 -0.099146,0.15406 -0.193397,0.17007 -0.017125,0.002 -0.3336688,0.003 -1.8636385,0.003 -1.0136541,-1.6e-4 -1.84672087,-5.5e-4 -1.85125953,-10e-4 z m 2.39728516,-2.75151 c 0.021919,-0.01 0.031673,-0.0188 0.04186,-0.0384 l 0.00902,-0.0175 v -0.15166 -0.15166 l -0.00902,-0.0175 c -0.010184,-0.0196 -0.019942,-0.0285 -0.04186,-0.0384 l -0.015129,-0.007 H 2.0627101 1.5331896 l -0.015129,0.007 c -0.021919,0.01 -0.031673,0.0188 -0.04186,0.0384 l -0.00902,0.0175 v 0.15161 0.1516 l 0.00713,0.0143 c 0.00392,0.008 0.010316,0.0179 0.014215,0.0223 0.00881,0.01 0.031092,0.0217 0.046667,0.0245 0.00647,0.001 0.2469562,0.002 0.5344102,0.002 l 0.5226439,-5.5e-4 z"
       id="path4668"
       inkscape:connector-curvature="0"
       sodipodi:nodetypes="ccccccccccccccccccccccccccccccccccccccccccccccccccc" />
    <circle
       style="opacity:1;fill:#2196f3;fill-opacity:1;stroke:none;stroke-width:0.09373395;stroke-opacity:1"
       id="path4512"
       cx="3.1117795"
       cy="295.69766"
       r="1.121555" />
    <g
       style="fill:#fafafa"
       id="layer1-3"
       transform="matrix(0.08036854,0,0,0.08036854,-33.375537,278.4988)">
      <path
         inkscape:connector-curvature="0"
         id="path7087"
         style="fill:#fafafa"
         d="m 456,206 v 6 h 2.5 l -4.5,7 -4.5,-7 h 2.5 v -6 z m -8,14 h 12 v 2 h -12 z" />
    </g>
  </g>
</svg>
