<svg width="48" height="48" version="1.1" viewBox="0 0 12.7 12.7" xmlns="http://www.w3.org/2000/svg">
    <g transform="translate(0,-284.29999)">
        <g>
            <path d="m11.722393 294.89399v-7.09415c0-0.80959-0.818554-0.81853-0.818554-0.81853h-4.0933829l-1.0914061 1.0914h-4.0921658c-0.81855484 0-0.81855484 0.81853-0.81855484 0.81853v6.00275s0 0.81856 0.81855484 0.81856h9.2769548c0.818554 0 0.818554-0.81856 0.818554-0.81856z" enable-background="new" opacity=".1"/>
            <path d="m0.80832937 293.52972v-7.09413c0-0.80961 0.81855483-0.81855 0.81855483-0.81855h4.0933826l1.0914061 1.0914h3.5464621c0.818556 0 0.818556 0.81857 0.818556 0.81857v6.00271s0 0.81857-0.818556 0.81857h-8.7312508c-0.81855483 0-0.81855483-0.81857-0.81855483-0.81857z" enable-background="new" fill="#78909c"/>
            <path d="m11.722393 294.62115v-7.09414c0-0.80963-0.818554-0.81857-0.818554-0.81857h-4.0933829l-1.0914061 1.0914h-4.0921658c-0.81855484 0-0.81855484 0.81857-0.81855484 0.81857v6.00274s0 0.81854 0.81855484 0.81854h9.2769548c0.818554 0 0.818554-0.81854 0.818554-0.81854z" enable-background="new" fill="#90a4ae"/>
            <path d="m6.8105323 286.70844-1.0914062 1.0914h-4.0922419c-0.81855484 0-0.81855484 0.81857-0.81855484 0.81857v0.27283s0-0.81853 0.81855484-0.81853h4.0922419l1.0914062-1.0914h4.0933067s0.818554 0.0105 0.818554 0.81853v-0.27283c0-0.80963-0.818554-0.81857-0.818554-0.81857z" enable-background="new" fill="#fff" opacity=".1"/>
        </g>
        <g transform="matrix(.26458338 0 0 .26458338 6.8117543 289.98588)" enable-background="new" fill="#fff">
            <path d="m3.0047778 1.01c-0.554003 0-0.999987 0.4459842-0.999987 0.9999874v8.9999996h0.999987v-0.999987h1.000025v-7.0000252h4.999975v3.0000001h3.0000002v9.0000001h1.000026v-0.999987h0.999987v-9.0000006l-3.999988-3.9999874zm10.000026 13.999975v1.000025h0.999987v-1.000025zm-1.000026 0h-0.999987v1.000025h0.999987zm-0.999987 0v-0.999987h-0.999988v0.999987zm-0.999988 0h-1.0000252v1.000025h1.0000252zm-1.0000252 0v-0.999987h-0.999987v0.999987zm-0.999987 0h-0.999988v1.000025h0.999988zm-0.999988 0v-0.999987h-1.000025v0.999987zm-1.000025 0h-0.999987v1.000025h0.999987zm-0.999987 0v-0.999987h-0.999988v0.999987zm-0.999988 0h-1.000025v1.000025h1.000025zm-1.000025 0v-0.999987h-0.999987v0.999987zm0-0.999987h1.000025v-0.999988h-1.000025zm0-0.999988v-1.000025h-0.999987v1.000025zm0-1.000025h1.000025v-0.999988h-1.000025z" fill="#fff" stroke-width=".99999994"/>
        </g>
    </g>
</svg>
