<svg version="1" viewBox="0 0 128 128" xmlns="http://www.w3.org/2000/svg">
    <g transform="matrix(2,0,0,2,0,3)">
        <path d="M 4,14 V 55.222222 C 4,56.762222 5.24775,58 6.8,58 H 57.2014 C 58.7526,58 60,56.7625 60,55.222222 V 14 Z" opacity=".2"/>
        <rect x="9.6000004" y="42.099998" width="44.799999" height="5.5999999" rx="2.1329999" ry="2.322" opacity=".2" stroke-linecap="round" stroke-linejoin="round" stroke-width="2.2252426"/>
        <path d="M 4,13 V 54.222222 C 4,55.762222 5.24775,57 6.8,57 H 57.2014 C 58.7526,57 60,55.7625 60,54.222222 V 13 Z" fill="#c7c7c7"/>
        <path d="m6.8 7.0000002c-1.55232 0-2.8 1.2381944-2.8 2.7770832v3.2229166h56v-3.2229166c0-1.5388888-1.2474-2.7770832-2.8-2.7770832z" fill="#5a6367"/>
        <g stroke-linecap="round" stroke-linejoin="round">
            <rect x="10" y="42" width="44" height="6" rx="2.095" ry="2.4879999" opacity=".2" stroke-width="2.2826867"/>
            <rect x="10" y="41" width="44" height="6" rx="2.095" ry="2.4879999" fill="#fff" stroke-width="2.2826867"/>
            <path d="m48 45c0 3.863996-3.136004 7-7 7-3.864 0-7-3.136004-7-7 0-3.864 3.136-7 7-7 3.863996 0 7 3.136 7 7z" fill-rule="evenodd" opacity=".1" stroke-opacity=".69620254" stroke-width="2.2499866"/>
            <path d="m48 44c0 3.863996-3.136004 7-7 7-3.864 0-7-3.136004-7-7 0-3.864 3.136-7 7-7 3.863996 0 7 3.136 7 7z" fill="#5294e2" fill-rule="evenodd" stroke-opacity=".69620254" stroke-width="2.2499866"/>
            <circle cx="13" cy="23" r="3" opacity=".2" stroke-width="1.361699"/>
            <circle cx="13" cy="22" r="3" fill="#fffff7" stroke-width="1.361699"/>
            <rect x="22" y="30" width="6" height="6" rx=".94400001" ry="1.031" opacity=".1" stroke-width=".98645294"/>
            <rect x="22" y="29" width="6" height="6" rx=".94400001" ry="1.031" fill="#5294e2" stroke-width=".98645294"/>
            <circle cx="13" cy="33" r="3" opacity=".1" stroke-width="1.361699"/>
            <circle cx="13" cy="32" r="3" fill="#5294e2" stroke-width="1.361699"/>
            <rect x="22" y="20" width="6" height="6" rx=".94400001" ry="1.031" opacity=".2" stroke-width=".98645294"/>
            <rect x="22" y="19" width="6" height="6" rx=".94400001" ry="1.031" fill="#fff" stroke-width=".98645294"/>
        </g>
        <path d="M 6.8007812,7 C 5.2484613,7 4,8.238455 4,9.7773438 V 10.777344 C 4,9.2384548 5.2484613,8 6.8007812,8 H 57.199219 C 58.751819,8 60,9.2384548 60,10.777344 V 9.7773438 C 60,8.2384549 58.751819,7 57.199219,7 Z" fill="#fff" opacity=".1"/>
    </g>
</svg>
