<svg version="1" viewBox="0 0 128 128" xmlns="http://www.w3.org/2000/svg">
    <g stroke-width="2">
        <path d="m8.1015972 63.001636c-0.0236 0.66798-0.101598 1.323962-0.101598 1.999944 8e-7 31.02312 24.975296 55.99842 55.998422 55.99842s55.998419-24.9753 55.998419-55.99842c0-0.675982-0.08-1.331964-0.1-1.999944-1.05597 30.083144-25.551279 53.998484-55.898423 53.998484-30.347944 0-54.842454-23.91534-55.898424-53.998484z" opacity=".2"/>
        <rect x="8.000001" y="7" width="112" height="112" rx="55.998001" ry="55.998001" fill="#9d9d9d"/>
        <path d="m64.000001 7.003906c-31.023126 0-56 24.972968-56 55.996094 0 0.22689 0.022562 0.448232 0.035156 0.671876 0.7030668-30.402658 25.38716-54.671876 55.964844-54.671876s55.261779 24.269218 55.964839 54.671876c0.01255-0.223644 0.03516-0.444986 0.03516-0.671876 0-31.023126-24.976873-55.996094-55.999999-55.996094z" fill="#fff" opacity=".1"/>
        <circle transform="matrix(0,-1,-1,0,0,0)" cx="-63" cy="-64" r="44" fill="#707070"/>
        <circle transform="matrix(0,-1,-1,0,0,0)" cx="-63" cy="-64" r="32" fill="#3f3f3f"/>
        <circle transform="matrix(0,-1,-1,0,0,0)" cx="-65" cy="-64" r="16" opacity=".1"/>
        <circle transform="matrix(0,-1,-1,0,0,0)" cx="-63" cy="-64" r="16" fill="#4f4f4f"/>
        <path d="m64.000001 47a16 16 0 0 0-16 16 16 16 0 0 0 0.04296 0.847656 16 16 0 0 1 15.95704-14.847656 16 16 0 0 1 15.957032 15.152344 16 16 0 0 0 0.042968-1.152344 16 16 0 0 0-16-16z" fill="#fff" opacity=".1"/>
    </g>
</svg>
