<svg width="128" height="128" version="1.1" viewBox="0 0 33.866666 33.866668" xmlns="http://www.w3.org/2000/svg">
    <defs>
        <filter id="filter894" x="-.0094838918" y="-.016333272" width="1.0189678" height="1.0326665" color-interpolation-filters="sRGB">
            <feGaussianBlur stdDeviation="0.11236032"/>
        </filter>
    </defs>
    <g transform="translate(0,-263.13332)">
        <path d="m24.041828 295.1479-7.108498-4.12752v-8.25509l7.108498-4.12754 7.108494 4.12754v8.25509zm-14.21699 0-7.1084934-4.12752v-8.25509l7.1084934-4.12754 7.108495 4.12754v8.25509z" filter="url(#filter894)" opacity=".2"/>
        <g transform="matrix(2.0666661 0 0 2.0666661 -.56443877 -315.35342)">
            <polygon transform="matrix(0 .05547715 -.05516234 0 18.785415 257.20153)" points="576 187.06149 540 124.70766 576 62.353829 648 62.353829 684 124.70766 648 187.06149" fill="#c5e1a5"/>
            <path d="m8.4666649 293.15072 3.3841061 1.9639v-3.96108l-3.3841061-1.99717z" fill="#aed581"/>
            <path d="m15.345833 293.15072-3.384107 1.9639v-3.96108l3.384107-1.99717z" fill="#9ccc65"/>
            <polygon transform="matrix(0 .05547715 -.05516234 0 11.906249 257.20153)" points="648 62.353829 684 124.70766 648 187.06149 576 187.06149 540 124.70766 576 62.353829" fill="#fce68d"/>
            <path d="m1.5875002 293.15072 3.3841063 1.9639v-3.96108l-3.3841063-1.99717z" fill="#fadd60"/>
            <path d="m8.4666666 293.15072-3.384107 1.9639v-3.96108l3.384107-1.99717z" fill="#fad53e"/>
            <polygon transform="matrix(0 .05547715 -.05516234 0 15.345836 251.87572)" points="684 124.70766 648 187.06149 576 187.06149 540 124.70766 576 62.353829 648 62.353829" fill="#81d4fa"/>
            <path d="m5.0270856 287.82491 3.3841062 1.9639v-3.96108l-3.3841062-1.99717z" fill="#4fc3f7"/>
            <path d="m11.906253 287.82491-3.3841065 1.9639v-3.96108l3.3841065-1.99717z" fill="#29b6f6"/>
        </g>
    </g>
</svg>
