<svg version="1.1" viewBox="0 0 128 128" xmlns="http://www.w3.org/2000/svg">
    <g stroke-width="2">
        <path d="m8.0000008 110.44414v3.99994c0 3.07996 2.4991642 5.55592 5.6015202 5.55592h100.79856c3.09995 0 5.59992-2.47596 5.59992-5.55592v-3.99994c0 3.07996-2.49997 5.55592-5.59992 5.55592h-100.79856c-3.100756 0-5.5999202-2.47596-5.5999202-5.55592z" opacity=".2"/>
        <path d="m13.601521 18.000744c-3.102356 0-5.6015202 2.476764-5.6015202 5.55472v82.446816h111.9984v-82.442816c0-3.077956-2.49997-5.55472-5.59992-5.55472h-100.79856z" fill="#4ab3e4"/>
        <path d="m13.599921 117.99932c-3.102356 0-5.5999202-2.47598-5.5999202-5.55592v-6.44392h111.9984v6.44432c0 3.07996-2.49597 5.55592-5.59992 5.55592z" fill="#253951"/>
        <path d="M 13.601562,18 C 10.499207,18 8,20.476732 8,23.554688 v 2 C 8,22.476732 10.499207,20 13.601562,20 H 114.39844 C 117.49839,20 120,22.476732 120,25.554688 v -2 C 120,20.476732 117.49839,18 114.39844,18 Z" fill="#fff" opacity=".1"/>
    </g>
</svg>
