<svg version="1" viewBox="0 0 128 128" xmlns="http://www.w3.org/2000/svg">
    <defs>
        <filter id="filter895" x="-.012999999" y="-.011142858" width="1.026" height="1.0222857" color-interpolation-filters="sRGB">
            <feGaussianBlur stdDeviation="0.52000004"/>
        </filter>
        <filter id="filter911" x="-.013333198" y="-.010909182" width="1.0266664" height="1.0218184" color-interpolation-filters="sRGB">
            <feGaussianBlur stdDeviation="0.20000166"/>
        </filter>
    </defs>
    <path d="m92.578614 9c-7.5049 0-13.71409 3.010334-18.42252 7.300782-2.65506-1.89422-5.72357-3.289858-8.8016-3.300782-0.90171-0.0032-1.74501 0.06204-2.53592 0.16796h-4e-3c-3.36723 0.451408-6.43282 2.093036-9.0629 4.171876l-6.406135-0.320312c-0.0013-6.6e-5 -0.0026 6.4e-5 -4e-3 0-0.88669-0.04432-1.720546-0.0104-2.465698 0.0625-1.721428 0.16858-3.306978 0.58229-4.75583 1.132812-5.459308 2.074564-10.130206 7.397858-11.48968 12.5625-0.09854 0.374356-0.01 0.676418-0.08584 1.042968-1.236944 0.376954-2.453736 0.813422-3.522982 1.402344v4e-3c-4.727624 2.605432-8.844674 8.732912-9.012278 14.234376-0.1676 5.501462 1.972182 9.328746 4.17842 12.261718 1.715784 2.280966 3.747364 4.032118 6.027692 5.5625-0.537956 1.439828-1.21567 2.786506-1.548862 4.355468-2.741816 12.90061 2.46046 24.92809 10.178804 34.33595 7.71845 9.40776 18.934349 17.02334 32.573059 17.02334 8.37545 0 15.31749-3.75914 20.85309-8.85156 4.39608-4.04412 8.20748-9.17676 10.33302-15.25794 2.086076-4.8331 1.01888-10.25138 0.2523-14.95522-1.99756-12.1911-5.02088-25.539964 8.960796-41.939288 2.67164-4.638592 5.4196-9.882264 3.5893-17.679688-0.91514-3.898618-3.8344-8.166816-7.55704-10.441312-3.72266-2.274488-7.591276-2.874992-11.271196-2.874992z" filter="url(#filter895)" opacity=".2" stroke-width="2"/>
    <path d="m92.578606 6.999996c-7.504895 0-13.714081 3.010334-18.422506 7.300783-2.655058-1.894221-5.72357-3.289859-8.801602-3.300783-0.901708-0.0032-1.745015 0.06204-2.535923 0.16796h-4e-3c-3.36723 0.451408-6.43282 2.093036-9.062898 4.171877l-6.406135-0.320312c-0.0013-6.6e-5 -0.0026 6.4e-5 -4e-3 0-0.88669-0.04432-1.720546-0.0104-2.465698 0.0625-1.721428 0.16858-3.306978 0.58229-4.75583 1.132812-5.459309 2.074564-10.130207 7.397858-11.489681 12.562501-0.09854 0.374356-0.01 0.676418-0.08584 1.042968-1.236944 0.376954-2.453736 0.813422-3.522982 1.402344v4e-3c-4.727625 2.605432-8.844676 8.732912-9.01228 14.234377-0.167604 5.501462 1.972184 9.328746 4.178421 12.261719 1.715784 2.280966 3.747365 4.032118 6.027693 5.5625-0.537956 1.439828-1.21567 2.786506-1.548862 4.355468-2.741817 12.900603 2.46046 24.928084 10.178804 34.33594 7.718451 9.40777 18.934348 17.02335 32.573061 17.02335 8.37545 0 15.317489-3.75914 20.853091-8.85156 4.396079-4.04412 8.207483-9.17677 10.333019-15.257946 2.086072-4.8331 1.018882-10.25138 0.252306-14.955221-1.997572-12.191085-5.02089-25.53995 8.960786-41.939275 2.67165-4.638592 5.4196-9.882264 3.58931-17.679689-0.91515-3.898618-3.8344-8.166817-7.55705-10.441313-3.72266-2.274496-7.591282-2.875-11.271204-2.875z" fill="#40c4ff" stroke-width="2.0000002"/>
    <path transform="matrix(2.0000001,0,0,2.0000001,-1.14e-5,-129.00001)" d="m46.336118 75c-8.885687 0-10.55143 13-5.552735 13 4.997974 0 14.438785-13 5.552735-13zm-13.650391 2c-0.143399-5.08e-4 -0.294254 0.01-0.453125 0.03125-5.08204 0.680429-3.295859 9.796407-0.589844 9.966797 2.620386 0.165068 5.488334-9.98229 1.042969-9.998047zm-9.294922 2.001953c-0.113577-0.0057-0.229883-0.0021-0.351563 0.0098-0.259582 0.02533-0.53863 0.09225-0.835937 0.205078-4.757779 1.805744-0.721985 9.26075 1.943359 8.759765 2.422623-0.45428 2.765032-8.799158-0.755859-8.974609zm-6.607422 6.998047c-0.42469-0.01134-0.886012 0.100148-1.375 0.369141-3.910133 2.15224 1.318625 7.353224 3.619141 6.546875 2.012956-0.705859 0.728693-6.836315-2.244141-6.916016zm18.578125 4c-6.742643-0.119793-15.637449 3.434516-17.154297 10.56836-1.642802 7.72005 6.763118 18.43164 15.533203 18.43164 4.314431 0 9.291628-4.39143 10.222657-9.57422 0.339931-1.88936-1.767992-2.57454-4.025391-2.42578-2.464631 0.16242-5.107775 1.30693-4.9375 2.67188 0.266388 2.13645-0.504412 3.29334-2.041016 3.32812-2.097922-0.25521-3.682982-1.2178-3.958984-3.05469-0.375712-4.82349 15.114607-8.26097 13.916016-15.740232-0.438384-2.735535-3.509102-4.1332-7.554688-4.205078z" filter="url(#filter911)" opacity=".2"/>
    <path d="m92.672232 18.999997c-17.771376 0-21.102862 26.000002-11.105471 26.000002 9.995948 0 28.877569-26.000002 11.105471-26.000002zm-27.300784 4c-0.286798-1e-3 -0.588508 0.02-0.90625 0.0625-10.164081 1.360858-6.591719 19.592816-1.179689 19.933596 5.240773 0.330136 10.976669-19.964582 2.085939-19.996096zm-18.589846 4.003906c-0.227154-0.0114-0.459766-0.0042-0.703126 0.0196-0.519164 0.05066-1.07726 0.1845-1.671874 0.410156-9.515559 3.611489-1.44397 18.521502 3.886718 17.519532 4.845247-0.90856 5.530065-17.598318-1.511718-17.94922zm-13.214845 13.996095c-0.84938-0.02268-1.772024 0.200296-2.75 0.738282-7.820266 4.304481 2.63725 14.70645 7.238283 13.093751 4.025912-1.411718 1.457386-13.672631-4.488283-13.832033zm37.156253 8.000001c-13.485287-0.239586-31.2749 6.869032-34.308596 21.13672-3.285605 15.440103 13.526236 36.863281 31.066408 36.863281 8.628862 0 18.583257-8.78286 20.445315-19.148438 0.679862-3.77872-3.535984-5.149081-8.050782-4.851561-4.929263 0.32484-10.215551 2.613861-9.875001 5.343761 0.532776 4.2729-1.008824 6.58668-4.082032 6.656238-4.195845-0.510418-7.365965-2.435598-7.917969-6.109378-0.751424-9.646981 30.229216-16.521941 27.832034-31.480466-0.876768-5.471071-7.018204-8.266401-15.109377-8.410157z" fill="#fff" stroke-width="2.0000002"/>
    <path d="m92.57812 6.999996c-7.504893 0-13.713451 3.010334-18.421876 7.300783-2.655058-1.894221-5.72275-3.289859-8.800782-3.300783-0.901708-0.0032-1.744249 0.06204-2.535157 0.16796h-4e-3c-3.367136 0.451408-6.436234 2.093036-9.066312 4.171877l-6.406251-0.320312h-4e-3c-0.88669-0.04432-1.719692-0.0104-2.464844 0.0625-1.721428 0.16858-3.305054 0.58229-4.753906 1.132812-5.459309 2.074564-10.132715 7.397858-11.492189 12.562501-0.09854 0.374356-0.01 0.676418-0.08594 1.042968-1.236944 0.376954-2.450284 0.813422-3.51953 1.402344v4e-3c-4.727625 2.605432-8.848022 8.732912-9.015627 14.234377-0.01782 0.58479 0.0035 1.139606 0.03516 1.6875 0.30841-5.420057 4.341342-11.365215 8.980471-13.921877v-4e-3c1.069246-0.588922 2.282586-1.02539 3.51953-1.402344 0.07584-0.36655-0.0126-0.668612 0.08594-1.042968 1.359474-5.164643 6.03288-10.487937 11.492189-12.562501 1.448852-0.550522 3.032478-0.964224 4.753906-1.132812 0.745152-0.07296 1.578154-0.10682 2.464844-0.0625h4e-3l6.406251 0.32032c2.630078-2.07884 5.699176-3.720469 9.066406-4.171877h4e-3c0.790814-0.10592 1.633355-0.171168 2.535063-0.167968 3.078032 0.011 6.145724 1.406563 8.800782 3.300783 4.708425-4.290449 10.916983-7.300783 18.421876-7.300783 3.679924 0 7.55078 0.600504 11.27344 2.875 3.72265 2.274497 6.63954 6.542789 7.55469 10.441407 0.33679 1.434836 0.47549 2.757218 0.53125 4.03125 0.10982-1.841654-0.0134-3.824766-0.53125-6.03125-0.91515-3.898618-3.83204-8.166911-7.55469-10.441407-3.72266-2.274496-7.593516-2.875-11.27344-2.875zm-66.984379 57.839848c-0.365372 0.897692-0.71423 1.804606-0.925782 2.80078-0.58011 2.729503-0.786754 5.415997-0.70703 8.050777 0.05738-1.9917 0.272948-4.00836 0.70703-6.050777 0.333192-1.56896 1.00892-2.91564 1.546876-4.355468-0.212972-0.14294-0.412516-0.298278-0.621094-0.445312zm71.550787 1.199218c-0.10346 5.585439 0.882996 10.841639 1.710936 15.894539 0.381918 2.343501 0.841282 4.864881 0.945314 7.402341 0.13972-3.2011-0.463062-6.443181-0.945314-9.402341-0.728612-4.4467-1.584368-9.047932-1.710936-13.894539z" fill="#fff" opacity=".2" stroke-width="2.0000002"/>
</svg>
