<svg version="1" viewBox="0 0 128 128" xmlns="http://www.w3.org/2000/svg">
    <defs>
        <style id="current-color-scheme" type="text/css">.ColorScheme-Text { color:#5c616c; } .ColorScheme-Highlight { color:#5294e2; } .ColorScheme-ButtonBackground { color:#d3dae3; }</style>
        <filter id="filter1060" x="-.012933377" y="-.011192275" width="1.0258668" height="1.0223846" color-interpolation-filters="sRGB">
            <feGaussianBlur stdDeviation="0.48500066"/>
        </filter>
    </defs>
    <g transform="translate(-1.5735626e-4,1.9999971)" filter="url(#filter1060)" opacity=".2">
        <circle cx="32.000107" cy="55.00005" r="12.999949" stroke-width="4.3333158"/>
        <circle cx="32.000107" cy="106.00005" r="12.999949" stroke-width="4.3333158"/>
        <path d="m100.24861 15.010409a8.3261115 8.3115548 0 0 0-7.39843 5.445797l-33.301119 87.262594a8.3272579 8.3126996 0 1 0 15.561119 5.92463l33.30112-87.262586a8.3261115 8.3115548 0 0 0-8.16269-11.370435z" color="#000000" color-rendering="auto" dominant-baseline="auto" image-rendering="auto" opacity="1" shape-rendering="auto" solid-color="#000000" style="font-feature-settings:normal;font-variant-alternates:normal;font-variant-caps:normal;font-variant-ligatures:normal;font-variant-numeric:normal;font-variant-position:normal;isolation:auto;mix-blend-mode:normal;shape-padding:0;text-decoration-color:#000000;text-decoration-line:none;text-decoration-style:solid;text-indent:0;text-orientation:mixed;text-transform:none;white-space:normal"/>
    </g>
    <g fill="#555">
        <circle cx="32.000107" cy="55.00005" r="12.999949" stroke-width="4.3333158"/>
        <circle cx="32.000107" cy="106.00005" r="12.999949" stroke-width="4.3333158"/>
        <path d="m100.24861 15.010409a8.3261115 8.3115548 0 0 0-7.39843 5.445797l-33.301119 87.262594a8.3272579 8.3126996 0 1 0 15.561119 5.92463l33.30112-87.262586a8.3261115 8.3115548 0 0 0-8.16269-11.370435z" color="#000000" color-rendering="auto" dominant-baseline="auto" image-rendering="auto" shape-rendering="auto" solid-color="#000000" style="font-feature-settings:normal;font-variant-alternates:normal;font-variant-caps:normal;font-variant-ligatures:normal;font-variant-numeric:normal;font-variant-position:normal;isolation:auto;mix-blend-mode:normal;shape-padding:0;text-decoration-color:#000000;text-decoration-line:none;text-decoration-style:solid;text-indent:0;text-orientation:mixed;text-transform:none;white-space:normal"/>
    </g>
</svg>
