<svg version="1" viewBox="0 0 128 128" xmlns="http://www.w3.org/2000/svg">
    <defs>
        <filter id="filter4728" x="-.020222222" y="-.029513514" width="1.0404444" height="1.059027" color-interpolation-filters="sRGB">
            <feGaussianBlur stdDeviation="0.455"/>
        </filter>
        <filter id="filter4851" x="-.018782608" y="-.03323077" width="1.0375652" height="1.0664614" color-interpolation-filters="sRGB">
            <feGaussianBlur stdDeviation="0.35999999"/>
        </filter>
    </defs>
    <rect transform="matrix(2,0,0,2,0,1.9073486e-6)" x="5.000001" y="14.000003" width="54" height="37" rx="2.6999998" ry="2.6428571" filter="url(#filter4728)" opacity=".2" stroke-width="1.3356378"/>
    <g transform="matrix(2,0,0,2,-1.9536743e-6,2.3333359)" stroke-width="1.3356378">
        <rect x="5.000001" y="11.833333" width="54" height="37" rx="2.6999998" ry="2.6428571" fill="#78909c"/>
        <path d="m7.700004 11.833333c-1.4958 0-2.7 1.178714-2.7 2.642857v1.321429c0-1.464143 1.2042-2.642858 2.7-2.642858h48.599997c1.4958 0 2.7 1.178715 2.7 2.642858v-1.321429c0-1.464143-1.2042-2.642857-2.7-2.642857z" fill="#fff" opacity=".1"/>
    </g>
    <g transform="matrix(2,0,0,2,17.251324,-2.4036287)" filter="url(#filter4851)" opacity=".2">
        <rect x="8.374341" y="41.035149" width="30" height="6" rx="0" ry="1" stroke-width="1.2247448"/>
        <g transform="translate(-8.6256586,1.0351507)" style="">
            <rect x="9" y="20" width="6" height="6" ry="1" opacity="1"/>
            <rect x="17" y="20" width="6" height="6" ry="1" opacity="1"/>
            <rect x="25" y="20" width="6" height="6" ry="1" opacity="1"/>
            <rect x="33" y="20" width="6" height="6" ry="1" opacity="1"/>
            <rect x="41" y="20" width="6" height="6" ry="1" opacity="1"/>
            <rect x="49" y="20" width="6" height="6" ry="1" opacity="1"/>
        </g>
        <g transform="translate(-8.6256586,1.0351507)" style="">
            <rect x="9" y="31" width="6" height="6" ry="1" opacity="1"/>
            <rect x="17" y="31" width="6" height="6" ry="1" opacity="1"/>
            <rect x="25" y="31" width="6" height="6" ry="1" opacity="1"/>
            <rect x="33" y="31" width="6" height="6" ry="1" opacity="1"/>
            <rect x="41" y="31" width="6" height="6" ry="1" opacity="1"/>
            <rect x="49" y="31" width="6" height="6" ry="1" opacity="1"/>
        </g>
    </g>
    <g fill="#fafafa">
        <rect x="34.000008" y="37.666668" width="12" height="12" ry="2"/>
        <rect x="50.000008" y="37.666668" width="12" height="12" ry="2"/>
        <rect x="66.000008" y="37.666668" width="12" height="12" ry="2"/>
        <rect x="82.000008" y="37.666668" width="12" height="12" ry="2"/>
        <rect x="98.000008" y="37.666668" width="12" height="12" ry="2"/>
        <rect x="18.000002" y="59.666664" width="12" height="12" ry="2"/>
        <rect x="34.000004" y="59.666664" width="12" height="12" ry="2"/>
        <rect x="50.000004" y="59.666664" width="12" height="12" ry="2"/>
        <rect x="66" y="59.666664" width="12" height="12" ry="2"/>
        <rect x="82" y="59.666664" width="12" height="12" ry="2"/>
    </g>
    <g transform="matrix(2,0,0,2,-2.861023e-6,1.9073486e-6)" fill="#fafafa" stroke="#d50000">
        <rect x="9.0000029" y="18.833334" width="6" height="6" ry="1"/>
        <rect x="49" y="29.833332" width="6" height="6" ry="1"/>
    </g>
    <rect x="34.000004" y="77.666664" width="60" height="12" rx="0" ry="2" fill="#fafafa"/>
    <g fill="none" stroke="#d50000" stroke-width="2">
        <path d="M 105,72.000002 V 116"/>
        <path d="m22 115h84"/>
        <path d="M 23,50.000002 V 116"/>
    </g>
</svg>
