<svg version="1" viewBox="0 0 128 128" xmlns="http://www.w3.org/2000/svg">
    <defs>
        <filter id="filter880" x="-.010699195" y="-.013660886" width="1.0213984" height="1.0273218" color-interpolation-filters="sRGB">
            <feGaussianBlur stdDeviation="0.44579981"/>
        </filter>
    </defs>
    <path d="m14.02168 42.680084c-0.0126 0.21304-0.0198 0.426412-0.02168 0.63984v43.314168c0.0013 4.548561 2.418829 8.751062 6.342231 11.024958l37.315549 21.63431c3.924476 2.27552 8.759985 2.27552 12.684462 0l37.315538-21.63431c3.92508-2.274876 6.34286-6.479897 6.34222-11.030418v-43.308708c-6e-3 -0.1606-0.016-0.321-0.0272-0.481248 0.0272-5e-3 -99.95112-0.1586-99.95112-0.1586z" filter="url(#filter880)" opacity=".2" stroke-width="2.0000005"/>
    <g stroke-width="1.9999871">
        <path d="m14.021702 40.445871c-0.0126 0.213037-0.0198 0.426407-0.02168 0.639832v43.547406c0.0013 4.5485 2.418828 8.750934 6.34223 11.024821l37.31554 21.63402c3.924476 2.27548 8.759984 2.27548 12.68446 0l37.315528-21.63402c3.92508-2.274865 6.34286-6.479833 6.34222-11.030291v-43.541936c-6e-3 -0.160598-0.0152-0.320996-0.0272-0.481242 0.0272-5e-3 -99.951098-0.15859-99.951098-0.15859z" fill="#fbc02d"/>
        <path d="m64.298624 7.0000016v0.00556a12.692074 12.885476 0 0 0-6.645676 1.7154367l-37.343902 21.89152a12.692074 12.885476 0 0 0-6.309046 10.331511 12.692074 12.885476 0 0 0 6.309046 10.436658l37.343902 21.891518a12.692074 12.885476 0 0 0 12.6941 0l37.343912-21.891518a12.692074 12.885476 0 0 0 6.30904-10.331516 12.692074 12.885476 0 0 0-6.30904-10.436653l-37.343912-21.89152a12.692074 12.885476 0 0 0-6.048424-1.7209967z" fill="#f9a825"/>
        <path d="m64.296876 7.000001v0.00782a12.692074 12.885476 0 0 0-0.296876 0.0078048v67.952252a12.692074 12.885476 0 0 0 6.34375-1.695291l37.34375-21.890344a12.692074 12.885476 0 0 0 6.3125-10.331898 12.692074 12.885476 0 0 0-6.3125-10.437365l-37.34375-21.890345a12.692074 12.885476 0 0 0-6.046874-1.7226341z" opacity=".07000002"/>
        <path d="m64.296876 7.000001v0.00782a12.692074 12.885476 0 0 0-6.640626 1.7109079l-37.34375 21.890345a12.692074 12.885476 0 0 0-6.3125 10.335803 12.692074 12.885476 0 0 0 0.109375 0.953114 12.692074 12.885476 0 0 1 6.203125-9.288943l37.34375-21.890345a12.692074 12.885476 0 0 1 6.640626-1.7109154v-0.00781a12.692074 12.885476 0 0 1 6.046874 1.7187274l37.34375 21.890345a12.692074 12.885476 0 0 1 6.20312 9.378785 12.692074 12.885476 0 0 0 0.10938-0.941396 12.692074 12.885476 0 0 0-6.3125-10.437365l-37.34375-21.890345a12.692074 12.885476 0 0 0-6.046874-1.7187279z" fill="#fff" opacity=".1"/>
        <path d="m14.023438 40.444883c-0.0083 0.140298-0.01198 0.281367-0.01562 0.421871a12.692074 12.885476 0 0 1 0.04297-0.421871h-0.02734zm-0.01954 0.535149c-5.9e-4 0.03513-0.0036 0.07033-0.0039 0.105469v43.546314c0.0013 4.5485 2.420348 8.753316 6.34375 11.027203l37.3125 21.632532c2.019286 1.17082 4.090282 1.74105 6.34375 1.70701v-44.011151a12.692074 12.885476 0 0 1-6.347654-1.714822l-37.34375-21.890344a12.692074 12.885476 0 0 1-6.304688-10.402211z" opacity=".1"/>
        <path d="m14.109375 40.003483a12.692074 12.885476 0 0 0-0.109375 0.941394 12.692074 12.885476 0 0 0 6.3125 10.437366l37.34375 21.890344a12.692074 12.885476 0 0 0 12.6875 0l37.34375-21.890344a12.692074 12.885476 0 0 0 6.3125-10.335804 12.692074 12.885476 0 0 0-0.10938-0.953113 12.692074 12.885476 0 0 1-6.20312 9.288942l-37.34375 21.890345a12.692074 12.885476 0 0 1-12.6875 0l-37.34375-21.890345a12.692074 12.885476 0 0 1-6.203125-9.378785z" opacity=".1"/>
    </g>
</svg>
