<?xml version="1.0" encoding="UTF-8"?>
<!-- Created with Inkscape (http://www.inkscape.org/) -->
<svg width="128" height="128" version="1.1" viewBox="0 0 33.867 33.867" xml:space="preserve" xmlns="http://www.w3.org/2000/svg"><defs><filter id="filter1181" x="-.012" y="-.012" width="1.024" height="1.024" color-interpolation-filters="sRGB"><feGaussianBlur stdDeviation="0.14816667"/></filter></defs><circle cx="16.933" cy="17.462" r="14.817" filter="url(#filter1181)" opacity=".2" stroke-width=".28956"/><g transform="translate(6.5168e-8 -.26458)"><circle cx="16.933" cy="16.933" r="14.817" fill="#673ab7" stroke-width=".28956"/><path d="m21.96 9.2604a2.6458 2.6458 0 0 0-2.6458 2.6458 2.6458 2.6458 0 0 0 0.04703 0.48731l-5.657 2.883a2.6458 2.6458 0 0 0-2.0629-0.98909 2.6458 2.6458 0 0 0-2.6458 2.6458 2.6458 2.6458 0 0 0 2.6458 2.6458 2.6458 2.6458 0 0 0 2.2004-1.1787l5.4994 2.9244a2.6458 2.6458 0 0 0-0.02687 0.37104 2.6458 2.6458 0 0 0 2.6458 2.6458 2.6458 2.6458 0 0 0 2.6458-2.6458 2.6458 2.6458 0 0 0-2.6458-2.6458 2.6458 2.6458 0 0 0-1.9441 0.85163l-5.7304-3.0468a2.6458 2.6458 0 0 0-0.0052-0.10645l5.8188-2.9642a2.6458 2.6458 0 0 0 1.8609 0.76791 2.6458 2.6458 0 0 0 2.6458-2.6458 2.6458 2.6458 0 0 0-2.6458-2.6458z" fill="#fff" stroke-width=".26458"/></g></svg>
