<svg width="128" height="128" version="1.1" viewBox="0 0 33.866666 33.866668" xmlns="http://www.w3.org/2000/svg">
    <defs>
        <filter id="filter4602" x="-.012" y="-.012" width="1.024" height="1.024" color-interpolation-filters="sRGB">
            <feGaussianBlur stdDeviation="0.041010418"/>
        </filter>
        <filter id="filter4697" x="-.010947374" y="-.013276588" width="1.0218947" height="1.0265532" color-interpolation-filters="sRGB">
            <feGaussianBlur stdDeviation="0.06879171"/>
        </filter>
    </defs>
    <g transform="translate(-8.9009608e-7,-263.13332)">
        <path transform="matrix(2.0000001,0,0,2.0000001,0,-297.00001)" d="m1.6928457 294.61376c-0.01659-2e-3 -0.06412-0.012-0.1056124-0.022-0.341213-0.082-0.60374047-0.36057-0.65337117-0.69327-0.0083-0.0558-0.01055-0.72692-0.0084-3.9706l3e-3 -4.42377 0.02775-0.0841c0.10258327-0.31066 0.35133087-0.53038 0.67331307-0.59472 0.05958-0.0119 0.334573-0.0139 1.8921279-0.014 1.0023273-8e-5 1.8279064-4e-3 1.8346194-8e-3 0.0094-6e-3 0.01292-0.22785 0.01528-0.96727l0.0031-0.95987 0.02258-0.0764c0.09478-0.32088 0.36825-0.55567 0.706258-0.60633 0.09046-0.0135 4.6369555-0.0135 4.7274155 0 0.33802 0.0507 0.611684 0.28562 0.706211 0.60633l0.02253 0.0764 0.0032 0.9599c0.0025 0.73749 0.0059 0.96161 0.01533 0.96726 0.0066 4e-3 0.832249 8e-3 1.834576 8e-3 1.979827 1.6e-4 1.876215-3e-3 2.031088 0.0527 0.102823 0.0366 0.198169 0.0942 0.282908 0.17066 0.130341 0.11761 0.211303 0.24622 0.25645 0.40739l0.02275 0.0812v8.38526l-0.02206 0.0764c-0.09459 0.32774-0.362534 0.56337-0.707169 0.62191-0.06262 0.0107-1.220083 0.0126-6.8145225 0.0117-3.706494-6e-4 -6.7526597-3e-3 -6.7692557-5e-3zm8.7658353-10.06108c0.08015-0.0359 0.115817-0.0686 0.153065-0.14046l0.03302-0.0637v-1.10914l-0.03302-0.0638c-0.03725-0.0718-0.07292-0.10459-0.153065-0.14044l-0.05532-0.0248h-3.8724567l-0.05532 0.0248c-0.08015 0.0359-0.115816 0.0686-0.153065 0.14044l-0.03302 0.0638v1.10872l0.02606 0.0525c0.01433 0.0289 0.03772 0.0657 0.05198 0.0816 0.03221 0.0362 0.113686 0.0791 0.17064 0.0899 0.02366 5e-3 0.903012 8e-3 1.954107 7e-3l1.9110827-2e-3z" filter="url(#filter4697)" opacity=".2" stroke-width=".00980322"/>
        <g>
            <path d="m3.3856912 291.69838c-0.03318-4e-3 -0.12824-0.024-0.2112248-0.044-0.6824261-0.164-1.2074811-0.72114-1.3067425-1.38654-0.0166-0.1116-0.0211-1.45384-0.0168-7.94118l6e-3 -8.84756 0.0555-0.1682c0.2051666-0.62134 0.7026618-1.06078 1.3466263-1.18946 0.11916-0.0238 0.669146-0.0278 3.784256-0.028 2.0046547-1.6e-4 3.6558128-8e-3 3.6692388-0.016 0.0188-0.012 0.02584-0.4557 0.03056-1.93454l0.0062-1.91974 0.04516-0.1528c0.189558-0.64176 0.7365-1.11134 1.412515-1.21266 0.180918-0.027 9.273911-0.027 9.454831 0 0.676038 0.1014 1.223366 0.57124 1.41242 1.21266l0.04506 0.1528 0.0064 1.9198c5e-3 1.47498 0.0118 1.92322 0.03066 1.93452 0.0132 8e-3 1.664498 0.016 3.669152 0.016 3.959655 3.2e-4 3.752431-6e-3 4.062177 0.1054 0.205646 0.0732 0.396338 0.1884 0.565816 0.3413 0.260682 0.23522 0.422606 0.49244 0.5129 0.8148l0.0455 0.1624v16.77052l-0.04412 0.1528c-0.18918 0.65548-0.725068 1.12674-1.414338 1.24382-0.12524 0.0214-2.440167 0.0252-13.629042 0.0234-7.4129895-1e-3 -13.50532-6e-3 -13.538512-0.01zm17.531672-20.12216c0.1603-0.0718 0.231634-0.1372 0.30613-0.28092l0.06604-0.1274v-2.21828l-0.06604-0.1276c-0.0745-0.1436-0.14584-0.2092-0.30613-0.2809l-0.11064-0.0496h-7.744914l-0.11064 0.0496c-0.1603 0.0718-0.231632 0.1372-0.30613 0.2809l-0.06604 0.1276v2.21744l0.05212 0.105c0.02866 0.0578 0.07544 0.1314 0.10396 0.1632 0.06442 0.0724 0.227373 0.1582 0.34128 0.1798 0.04732 0.01 1.806024 0.016 3.908214 0.014l3.822166-4e-3z" fill="#8d6e63" stroke-width=".01960644"/>
            <circle transform="matrix(2.0000001,0,0,2.0000001,0,-297.00001)" cx="12.303124" cy="292.13907" r="4.1010418" filter="url(#filter4602)" opacity=".2"/>
            <circle cx="24.606251" cy="286.9458" r="8.2020836" fill="#2196f3"/>
        </g>
        <path d="m25.78174 282.24384v3.52648h1.469365l-2.644857 4.11422-2.644858-4.11422h1.469366v-3.52648zm-4.701969 8.22845h7.052953v1.17549h-7.052953z" fill="#fafafa" stroke-width=".58774602"/>
    </g>
</svg>
