<svg width="127.99999" height="127.99999" version="1.1" viewBox="0 0 33.866664 33.866666" xmlns="http://www.w3.org/2000/svg" xmlns:xlink="http://www.w3.org/1999/xlink">
    <defs>
        <style id="current-color-scheme" type="text/css">.ColorScheme-Text { color:#5c616c; } .ColorScheme-Highlight { color:#5294e2; } .ColorScheme-ButtonBackground { color:#d3dae3; }</style>
        <style type="text/css">.ColorScheme-Text { color:#5c616c; } .ColorScheme-Highlight { color:#5294e2; } .ColorScheme-ButtonBackground { color:#d3dae3; }</style>
        <style type="text/css">.str0 {stroke:#4D4948;stroke-width:0.0123919}
    .str1 {stroke:#838281;stroke-width:0.229479;stroke-linecap:round}
    .fil2 {fill:none}
    .fil0 {fill:#4D4948}
    .fil1 {fill:white;fill-rule:nonzero}</style>
        <style type="text/css">.str0 {stroke:#4D4948;stroke-width:0.221746}
    .str1 {stroke:#00923F;stroke-width:0.887173}
    .str2 {stroke:#E77817;stroke-width:0.887173;stroke-linecap:round}
    .fil2 {fill:none}
    .fil0 {fill:#4D4948}
    .fil1 {fill:#B6DDC7}</style>
        <style type="text/css">.ColorScheme-Text { color:#5c616c; } .ColorScheme-Highlight { color:#5294e2; } .ColorScheme-ButtonBackground { color:#d3dae3; }</style>
        <style type="text/css">.ColorScheme-Text { color:#5c616c; } .ColorScheme-Highlight { color:#5294e2; } .ColorScheme-ButtonBackground { color:#d3dae3; }</style>
        <style type="text/css">.ColorScheme-Text { color:#5c616c; } .ColorScheme-Highlight { color:#5294e2; } .ColorScheme-ButtonBackground { color:#d3dae3; }</style>
        <style type="text/css">.str0 {stroke:#4D4948;stroke-width:0.0123919}
    .str1 {stroke:#838281;stroke-width:0.229479;stroke-linecap:round}
    .fil2 {fill:none}
    .fil0 {fill:#4D4948}
    .fil1 {fill:white;fill-rule:nonzero}</style>
        <style type="text/css">.str0 {stroke:#4D4948;stroke-width:0.221746}
    .str1 {stroke:#00923F;stroke-width:0.887173}
    .str2 {stroke:#E77817;stroke-width:0.887173;stroke-linecap:round}
    .fil2 {fill:none}
    .fil0 {fill:#4D4948}
    .fil1 {fill:#B6DDC7}</style>
        <style type="text/css">.ColorScheme-Text { color:#5c616c; } .ColorScheme-Highlight { color:#5294e2; } .ColorScheme-ButtonBackground { color:#d3dae3; }</style>
        <style type="text/css">.ColorScheme-Text { color:#5c616c; } .ColorScheme-Highlight { color:#5294e2; } .ColorScheme-ButtonBackground { color:#d3dae3; }</style>
        <style type="text/css">.ColorScheme-Text { color:#5c616c; } .ColorScheme-Highlight { color:#5294e2; } .ColorScheme-ButtonBackground { color:#d3dae3; }</style>
        <style type="text/css">.str0 {stroke:#4D4948;stroke-width:0.0123919}
    .str1 {stroke:#838281;stroke-width:0.229479;stroke-linecap:round}
    .fil2 {fill:none}
    .fil0 {fill:#4D4948}
    .fil1 {fill:white;fill-rule:nonzero}</style>
        <style type="text/css">.str0 {stroke:#4D4948;stroke-width:0.221746}
    .str1 {stroke:#00923F;stroke-width:0.887173}
    .str2 {stroke:#E77817;stroke-width:0.887173;stroke-linecap:round}
    .fil2 {fill:none}
    .fil0 {fill:#4D4948}
    .fil1 {fill:#B6DDC7}</style>
        <style type="text/css">.ColorScheme-Text { color:#5c616c; } .ColorScheme-Highlight { color:#5294e2; } .ColorScheme-ButtonBackground { color:#d3dae3; }</style>
        <linearGradient id="linearGradient5030" x1="22.06193" x2="33.436172" y1="284.30051" y2="295.67596" gradientTransform="matrix(.7443111 0 0 .7443196 -15.957308 76.195646)" gradientUnits="userSpaceOnUse">
            <stop stop-color="#fafafa" offset="0"/>
            <stop stop-color="#fafafa" stop-opacity=".75" offset="1"/>
        </linearGradient>
        <filter id="filter6359" x="-.012000068" y="-.011999932" width="1.024" height="1.0239999" color-interpolation-filters="sRGB">
            <feGaussianBlur stdDeviation="0.044310021"/>
        </filter>
        <filter id="filter4712" x="-.014194412" y="-.010393238" width="1.0283889" height="1.0207865" color-interpolation-filters="sRGB">
            <feGaussianBlur stdDeviation="0.068744557"/>
        </filter>
    </defs>
    <g transform="translate(0,-263.13333)">
        <g transform="matrix(2.0000001 0 0 2.0000001 .0065212 -297.0001)" fill-rule="evenodd" filter="url(#filter4712)" opacity=".2" stroke-width=".06393424">
            <path d="m16.382357 281.35231-1.495934 0.94827-10.127184-1.00754 2.0599613-0.69663 9.5632833 0.7559z"/>
            <path d="m5.2371479 294.21649 9.1298091 2.25241 0.533596-14.16847-10.138053-1.00805 0.4743921 12.9243z"/>
            <path d="m14.343494 296.47086 1.500536-2.31378 0.538582-12.80539-1.496189 0.9486z"/>
        </g>
        <g fill-rule="evenodd" stroke-width=".12786578">
            <path d="m32.770255 265.17382-2.991742 1.89654-20.253512-2.01508 4.1197483-1.39326 19.12576 1.5118z" fill="#1e88e5"/>
            <path d="m10.480777 290.90218 18.258848 4.50482 1.067147-28.33694-20.27525-2.0161 0.9487442 25.8486z" fill="#64b5f6"/>
            <path d="m28.692701 295.41092 3.000945-4.62756 1.077119-25.61078-2.992252 1.8972z" fill="#1e88e5"/>
            <path d="m10.301769 285.9974 0.18292 4.91308 18.251178 4.502 0.201896-5.40154-18.636046-4.01354z" fill="#cfd8dc"/>
            <path d="m28.735023 295.40444c0.989276-1.49522 1.978555-2.99042 2.967831-4.48564 0.06586-1.67976 0.131694-3.35954 0.197552-5.0393-0.987913 1.374-1.975827 2.74798-2.963739 4.12198-0.06718 1.80098-0.134615 3.60198-0.201644 5.40296z" fill="#90a4ae"/>
            <path d="m9.5578509 265.82512 0.2144314 5.85206 19.738358 2.4039 0.24959-6.35724-20.202123-1.89872z" fill="#cfd8dc"/>
            <path d="m29.509747 274.08108c0.995797-0.76926 1.991593-1.5385 2.987391-2.30776 0.08342-2.01372 0.166813-4.02744 0.250228-6.04116-0.997374 0.6639-1.99475 1.32778-2.992124 1.99168-0.08186 2.11898-0.163473 4.23878-0.245495 6.35724z" fill="#90a4ae"/>
        </g>
        <ellipse transform="matrix(2.0000001,0,0,2.0000001,0,-297.00001)" cx="4.69556" cy="292.30438" rx="4.4309769" ry="4.4310274" filter="url(#filter6359)" opacity=".2"/>
        <ellipse cx="9.3911209" cy="287.07962" rx="8.8619537" ry="8.8620548" fill="#2196f3"/>
        <g transform="matrix(2.0000001,0,0,2.0000001,0,-297.00001)">
            <ellipse cx="4.69556" cy="292.03979" rx="4.2340446" ry="4.2340932" fill="url(#linearGradient5030)"/>
            <ellipse cx="4.69556" cy="292.03979" rx="1.0831277" ry="1.08314" fill="#3689e6" opacity=".2"/>
            <ellipse cx="4.69556" cy="292.03979" rx=".68926311" ry=".68927097" fill="#3689e6"/>
            <ellipse cx="4.69556" cy="292.03979" rx=".49233076" ry=".49233639" fill="#fafafa"/>
        </g>
    </g>
</svg>
