<svg width="128" height="128" version="1.1" viewBox="0 0 33.866666 33.866668" xmlns="http://www.w3.org/2000/svg">
    <defs>
        <filter id="filter881" x="-.014322361" y="-.010325695" width="1.0286447" height="1.0206514" color-interpolation-filters="sRGB">
            <feGaussianBlur stdDeviation="0.097897497"/>
        </filter>
        <filter id="filter889" x="-.014322361" y="-.010325695" width="1.0286447" height="1.0206514" color-interpolation-filters="sRGB">
            <feGaussianBlur stdDeviation="0.097897498"/>
        </filter>
    </defs>
    <g transform="translate(0,-263.13333)">
        <path d="m21.696087 267.63111a6.0854725 6.0854185 0 0 0-6.085472 6.08542 6.0854725 6.0854185 0 0 0 2.193168 4.67672c-2.49267 3.03364-5.194919 7.11176-4.031832 9.45264 1.171428 2.35768 4.526044 2.5456 7.89313 2.53938 3.367083-6e-3 6.746786-0.20662 7.967543-2.53938 1.154189-2.20554-1.666819-6.19534-4.326389-9.2387a6.0854725 6.0854185 0 0 0 2.475323-4.89066 6.0854725 6.0854185 0 0 0-6.085471-6.08542z" filter="url(#filter889)" opacity=".2"/>
        <path d="m11.906371 272.39361a6.0854725 6.0854185 0 0 0-6.0854713 6.08542 6.0854725 6.0854185 0 0 0 2.193167 4.67672c-2.49267 3.03364-5.194919 7.11176-4.031831 9.45264 1.171427 2.35768 4.526044 2.5456 7.8931293 2.53938 3.367083-6e-3 6.746786-0.20662 7.967543-2.53938 1.154189-2.20554-1.66682-6.19534-4.326389-9.2387a6.0854725 6.0854185 0 0 0 2.475323-4.89066 6.0854725 6.0854185 0 0 0-6.085471-6.08542z" filter="url(#filter881)" opacity=".2"/>
        <g transform="matrix(.9999928 0 0 .9999928 9.7200229e-5 1.3250429)">
            <path d="m21.696145 265.779a6.0854179 6.0854185 0 0 0-6.085417 6.08542 6.0854179 6.0854185 0 0 0 2.193148 4.67672c-2.492648 3.03364-5.194872 7.11176-4.031795 9.45264 1.171417 2.35768 4.526003 2.5456 7.893058 2.53938 3.367052-6e-3 6.746724-0.20662 7.967473-2.53938 1.154176-2.20554-1.666805-6.19534-4.326351-9.2387a6.0854179 6.0854185 0 0 0 2.4753-4.89066 6.0854179 6.0854185 0 0 0-6.085416-6.08542z" fill="#8bc34a"/>
            <path d="m21.696163 265.7793a6.0853949 6.0853949 0 0 0-6.085394 6.0854 6.0853949 6.0853949 0 0 0 0.0046 0.1274 6.0853949 6.0853949 0 0 1 6.080722-5.9954 6.0853949 6.0853949 0 0 1 6.08083 5.95802 6.0853949 6.0853949 0 0 0 0.0046-0.09 6.0853949 6.0853949 0 0 0-6.085394-6.0854z" fill="#fff" opacity=".2" stroke-width=".21733555"/>
        </g>
        <g transform="matrix(2.0000001 0 0 2.0000339 -.26427255 -296.21623)" fill="#03a9f4">
            <path d="m6.085321 284.03559a3.0426379 3.0426381 0 0 0-3.0426374 3.04264 3.0426379 3.0426381 0 0 0 1.0965483 2.3383c-1.2462947 1.51679-2.5973754 3.55581-2.0158506 4.72622 0.5856949 1.17881 2.262949 1.27277 3.946437 1.26966 1.6834873-3e-3 3.3732845-0.10331 3.9836437-1.26966 0.577075-1.10275-0.8333835-3.0976-2.1631253-4.61925a3.0426379 3.0426381 0 0 0 1.2376216-2.44527 3.0426379 3.0426381 0 0 0-3.0426373-3.04264z"/>
            <path d="m6.0853295 284.03576a3.0426262 3.0426262 0 0 0-3.0426261 3.04263 3.0426262 3.0426262 0 0 0 0.0023 0.0637 3.0426262 3.0426262 0 0 1 3.0402902-2.99763 3.0426262 3.0426262 0 0 1 3.0403448 2.97894 3.0426262 3.0426262 0 0 0 0.0023-0.045 3.0426262 3.0426262 0 0 0-3.0426267-3.04263z" opacity=".2" stroke-width=".10866524"/>
        </g>
        <path d="m11.906269 271.86459a6.0853947 6.0853947 0 0 0-6.0853945 6.0854 6.0853947 6.0853947 0 0 0 0.0046 0.1274 6.0853947 6.0853947 0 0 1 6.0807225-5.9954 6.0853947 6.0853947 0 0 1 6.08083 5.95802 6.0853947 6.0853947 0 0 0 0.0046-0.09 6.0853947 6.0853947 0 0 0-6.085394-6.0854z" fill="#fff" opacity=".2" stroke-width=".21733555"/>
    </g>
</svg>
