<?xml version="1.0" encoding="UTF-8" standalone="no"?>
<svg
   xmlns:dc="http://purl.org/dc/elements/1.1/"
   xmlns:cc="http://creativecommons.org/ns#"
   xmlns:rdf="http://www.w3.org/1999/02/22-rdf-syntax-ns#"
   xmlns:svg="http://www.w3.org/2000/svg"
   xmlns="http://www.w3.org/2000/svg"
   xmlns:sodipodi="http://sodipodi.sourceforge.net/DTD/sodipodi-0.dtd"
   xmlns:inkscape="http://www.inkscape.org/namespaces/inkscape"
   width="128"
   height="128"
   version="1"
   id="svg14"
   sodipodi:docname="tdepowersave.svg"
   inkscape:version="0.92.4 (5da689c313, 2019-01-14)">
  <metadata
     id="metadata20">
    <rdf:RDF>
      <cc:Work
         rdf:about="">
        <dc:format>image/svg+xml</dc:format>
        <dc:type
           rdf:resource="http://purl.org/dc/dcmitype/StillImage" />
        <dc:title></dc:title>
      </cc:Work>
    </rdf:RDF>
  </metadata>
  <defs
     id="defs18">
    <style
       type="text/css"
       id="current-color-scheme">
   .ColorScheme-Text { color:#5c616c; } .ColorScheme-Highlight { color:#5294e2; } .ColorScheme-ButtonBackground { color:#d3dae3; }
  </style>
    <filter
       inkscape:collect="always"
       style="color-interpolation-filters:sRGB"
       id="filter4760"
       x="-0.010615385"
       width="1.0212308"
       y="-0.0138"
       height="1.0276">
      <feGaussianBlur
         inkscape:collect="always"
         stdDeviation="0.17844827"
         id="feGaussianBlur4762" />
    </filter>
    <filter
       inkscape:collect="always"
       style="color-interpolation-filters:sRGB"
       id="filter4783"
       x="-0.0067241378"
       width="1.0134484"
       y="-0.055714283"
       height="1.1114286">
      <feGaussianBlur
         inkscape:collect="always"
         stdDeviation="0.12607759"
         id="feGaussianBlur4785" />
    </filter>
    <filter
       inkscape:collect="always"
       style="color-interpolation-filters:sRGB"
       id="filter4810"
       x="-0.016384615"
       width="1.0327692"
       y="-0.0094666667"
       height="1.0189333">
      <feGaussianBlur
         inkscape:collect="always"
         stdDeviation="0.1775"
         id="feGaussianBlur4812" />
    </filter>
  </defs>
  <sodipodi:namedview
     pagecolor="#ffffff"
     bordercolor="#666666"
     borderopacity="1"
     objecttolerance="10"
     gridtolerance="10"
     guidetolerance="10"
     inkscape:pageopacity="0"
     inkscape:pageshadow="2"
     inkscape:window-width="1362"
     inkscape:window-height="695"
     id="namedview16"
     showgrid="false"
     inkscape:zoom="4.0234375"
     inkscape:cx="64"
     inkscape:cy="64"
     inkscape:window-x="0"
     inkscape:window-y="0"
     inkscape:window-maximized="1"
     inkscape:current-layer="svg14" />
  <path
     inkscape:connector-curvature="0"
     d="M 8.7999988,2 V 5.2142858 H 0.99999985 V 8.4285714 43.785715 C 0.99999985,45.566429 2.1595998,47 3.5999998,47 H 24.4 C 25.8404,47 27,45.566429 27,43.785715 V 8.4285714 5.2142858 H 19.2 V 2 Z"
     style="opacity:0.2;fill:#000000;stroke-width:2.89087224;filter:url(#filter4810)"
     id="path6763-1"
     sodipodi:nodetypes="ccccssssccccc"
     transform="matrix(2,0,0,2,0,-2e-6)" />
  <rect
     style="opacity:0.2;fill:#000000;stroke-width:0.7758621;filter:url(#filter4783)"
     width="5.4310346"
     height="45"
     x="-62"
     y="-63"
     rx="1.9396552"
     ry="1.9396552"
     transform="matrix(0,-2,-2,0,0,-2e-6)"
     id="rect4703-2" />
  <path
     inkscape:connector-curvature="0"
     d="M 17.599998,1.999998 V 8.42857 H 2 v 6.428571 70.714287 c 0,3.561426 2.3192,6.42857 5.2,6.42857 h 41.6 c 2.8808,0 5.2,-2.867144 5.2,-6.42857 V 14.857141 8.42857 H 38.4 V 1.999998 Z"
     style="opacity:1;fill:#f9ce1d;stroke-width:5.78174448"
     id="path6763"
     sodipodi:nodetypes="ccccssssccccc" />
  <path
     inkscape:connector-curvature="0"
     d="m 1.9999997,34.142854 v 51.428574 c 0,3.561426 2.3191999,6.42857 5.1999997,6.42857 H 48.8 c 2.8808,0 5.2,-2.867144 5.2,-6.42857 V 34.142854 Z"
     style="fill:#263238;stroke-width:5.78174448"
     id="path6765"
     sodipodi:nodetypes="csssscc" />
  <g
     id="layer9"
     inkscape:label="status"
     style="display:inline"
     transform="matrix(2,0,0,2,-555.0988,560.52728)" />
  <g
     id="layer1"
     inkscape:label="places"
     style="display:inline"
     transform="matrix(2,0,0,2,-73.09841,-673.47272)" />
  <g
     id="layer14"
     inkscape:label="mimetypes"
     style="display:inline"
     transform="matrix(2,0,0,2,-555.0988,560.52728)" />
  <g
     id="layer15"
     inkscape:label="emblems"
     style="display:inline"
     transform="matrix(2,0,0,2,-555.0988,560.52728)" />
  <g
     id="g71291"
     inkscape:label="emotes"
     style="display:inline"
     transform="matrix(2,0,0,2,-555.0988,560.52728)" />
  <g
     id="layer2"
     inkscape:label="categories"
     style="display:inline"
     transform="matrix(2,0,0,2,-73.09841,-373.47272)" />
  <g
     id="layer12"
     inkscape:label="actions"
     style="display:inline"
     transform="matrix(2,0,0,2,-555.0988,560.52728)" />
  <rect
     style="fill:#1a1a1a;stroke-width:1.5517242"
     width="10.862069"
     height="90"
     x="-122"
     y="-126"
     rx="3.8793104"
     ry="3.8793104"
     transform="matrix(0,-1,-1,0,0,0)"
     id="rect4703" />
  <rect
     style="opacity:0.2;fill:#000000;stroke-width:0.7758621;filter:url(#filter4760)"
     width="40.344826"
     height="31.034483"
     x="20.327579"
     y="26.310516"
     rx="1.9396552"
     ry="1.9396552"
     id="rect4707-6"
     transform="matrix(2,0,0,2,0,-2e-6)" />
  <rect
     style="fill:#1a1a1a;stroke-width:1.5517242"
     width="80.689651"
     height="62.068966"
     x="40.655159"
     y="50.620686"
     rx="3.8793104"
     ry="3.8793104"
     id="rect4707" />
  <rect
     style="opacity:1;fill:#2196f3;stroke-width:1.5517242"
     width="68.275864"
     height="49.655174"
     x="46.862057"
     y="56.827583"
     id="rect4709" />
  <path
     inkscape:connector-curvature="0"
     style="opacity:0.2;fill:#808080;stroke-width:1.5517242"
     d="m 44.534472,50.620688 c -2.149138,0 -3.87931,1.730172 -3.87931,3.87931 v 1.551724 c 0,-2.149138 1.730172,-3.87931 3.87931,-3.87931 h 72.931038 c 2.14138,0 3.87931,1.730172 3.87931,3.87931 v -1.551724 c 0,-2.149138 -1.73793,-3.87931 -3.87931,-3.87931 z"
     id="path4711" />
</svg>
