<?xml version="1.0" encoding="UTF-8" standalone="no"?>
<svg
   xmlns:dc="http://purl.org/dc/elements/1.1/"
   xmlns:cc="http://creativecommons.org/ns#"
   xmlns:rdf="http://www.w3.org/1999/02/22-rdf-syntax-ns#"
   xmlns:svg="http://www.w3.org/2000/svg"
   xmlns="http://www.w3.org/2000/svg"
   xmlns:sodipodi="http://sodipodi.sourceforge.net/DTD/sodipodi-0.dtd"
   xmlns:inkscape="http://www.inkscape.org/namespaces/inkscape"
   width="128"
   height="128"
   version="1"
   id="svg14"
   sodipodi:docname="tdepowersave.svg"
   inkscape:version="0.92.1 r15371">
  <metadata
     id="metadata20">
    <rdf:RDF>
      <cc:Work
         rdf:about="">
        <dc:format>image/svg+xml</dc:format>
        <dc:type
           rdf:resource="http://purl.org/dc/dcmitype/StillImage" />
        <dc:title></dc:title>
      </cc:Work>
    </rdf:RDF>
  </metadata>
  <defs
     id="defs18">
    <style
       type="text/css"
       id="current-color-scheme">
   .ColorScheme-Text { color:#5c616c; } .ColorScheme-Highlight { color:#5294e2; } .ColorScheme-ButtonBackground { color:#d3dae3; }
  </style>
    <filter
       inkscape:collect="always"
       style="color-interpolation-filters:sRGB"
       id="filter4760"
       x="-0.010615385"
       width="1.0212308"
       y="-0.0138"
       height="1.0276">
      <feGaussianBlur
         inkscape:collect="always"
         stdDeviation="0.17844827"
         id="feGaussianBlur4762" />
    </filter>
    <filter
       inkscape:collect="always"
       style="color-interpolation-filters:sRGB"
       id="filter4783"
       x="-0.0067241378"
       width="1.0134484"
       y="-0.055714283"
       height="1.1114286">
      <feGaussianBlur
         inkscape:collect="always"
         stdDeviation="0.12607759"
         id="feGaussianBlur4785" />
    </filter>
    <filter
       inkscape:collect="always"
       style="color-interpolation-filters:sRGB"
       id="filter4810"
       x="-0.016384615"
       width="1.0327692"
       y="-0.0094666667"
       height="1.0189333">
      <feGaussianBlur
         inkscape:collect="always"
         stdDeviation="0.1775"
         id="feGaussianBlur4812" />
    </filter>
  </defs>
  <sodipodi:namedview
     pagecolor="#ffffff"
     bordercolor="#666666"
     borderopacity="1"
     objecttolerance="10"
     gridtolerance="10"
     guidetolerance="10"
     inkscape:pageopacity="0"
     inkscape:pageshadow="2"
     inkscape:window-width="1366"
     inkscape:window-height="703"
     id="namedview16"
     showgrid="false"
     inkscape:zoom="4.234375"
     inkscape:cx="64"
     inkscape:cy="64"
     inkscape:window-x="-3"
     inkscape:window-y="-4"
     inkscape:window-maximized="1"
     inkscape:current-layer="svg14" />
  <g
     id="g4551"
     transform="scale(2)">
    <path
       sodipodi:nodetypes="ccccssssccccc"
       id="path6763-1"
       style="opacity:0.2;fill:#000000;stroke-width:2.89087224;filter:url(#filter4810)"
       d="M 8.7999988,2 V 5.2142858 H 0.99999985 V 8.4285714 43.785715 C 0.99999985,45.566429 2.1595998,47 3.5999998,47 H 24.4 C 25.8404,47 27,45.566429 27,43.785715 V 8.4285714 5.2142858 H 19.2 V 2 Z"
       inkscape:connector-curvature="0" />
    <rect
       id="rect4703-2"
       transform="matrix(0,-1,-1,0,0,0)"
       ry="1.9396552"
       rx="1.9396552"
       y="-63"
       x="-62"
       height="45"
       width="5.4310346"
       style="opacity:0.2;fill:#000000;stroke-width:0.7758621;filter:url(#filter4783)" />
    <g
       transform="matrix(0.81249995,0,0,0.81818182,-62.600829,-1.8109677)"
       id="g4695">
      <path
         inkscape:connector-curvature="0"
         d="m 87.877948,3.4356272 v 3.9285715 h -9.6 V 11.29277 54.507056 c 0,2.176428 1.4272,3.928571 3.2,3.928571 h 25.600002 c 1.7728,0 3.2,-1.752143 3.2,-3.928571 V 11.29277 7.3641987 h -9.6 V 3.4356272 Z"
         style="opacity:1;fill:#f9c440;stroke-width:3.54562116"
         id="path6763"
         sodipodi:nodetypes="ccccssssccccc" />
      <path
         inkscape:connector-curvature="0"
         d="m 78.277948,23.078484 v 31.428572 c 0,2.176428 1.4272,3.928571 3.2,3.928571 h 25.600002 c 1.7728,0 3.2,-1.752143 3.2,-3.928571 V 23.078484 Z"
         style="fill:#0e141f;stroke-width:3.54562116"
         id="path6765"
         sodipodi:nodetypes="csssscc" />
    </g>
    <g
       transform="translate(-277.5494,280.26364)"
       style="display:inline"
       inkscape:label="status"
       id="layer9" />
    <g
       transform="translate(-36.549205,-336.73636)"
       style="display:inline"
       inkscape:label="places"
       id="layer1" />
    <g
       transform="translate(-277.5494,280.26364)"
       style="display:inline"
       inkscape:label="mimetypes"
       id="layer14" />
    <g
       transform="translate(-277.5494,280.26364)"
       style="display:inline"
       inkscape:label="emblems"
       id="layer15" />
    <g
       transform="translate(-277.5494,280.26364)"
       style="display:inline"
       inkscape:label="emotes"
       id="g71291" />
    <g
       transform="translate(-36.549205,-186.73636)"
       style="display:inline"
       inkscape:label="categories"
       id="layer2" />
    <g
       transform="translate(-277.5494,280.26364)"
       style="display:inline"
       inkscape:label="actions"
       id="layer12" />
    <rect
       id="rect4703"
       transform="matrix(0,-1,-1,0,0,0)"
       ry="1.9396552"
       rx="1.9396552"
       y="-63"
       x="-61"
       height="45"
       width="5.4310346"
       style="fill:#1a1a1a;stroke-width:0.7758621" />
    <rect
       id="rect4707-6"
       ry="1.9396552"
       rx="1.9396552"
       y="26.310516"
       x="20.327579"
       height="31.034483"
       width="40.344826"
       style="opacity:0.2;fill:#000000;stroke-width:0.7758621;filter:url(#filter4760)" />
    <rect
       id="rect4707"
       ry="1.9396552"
       rx="1.9396552"
       y="25.310345"
       x="20.327579"
       height="31.034483"
       width="40.344826"
       style="fill:#1a1a1a;stroke-width:0.7758621" />
    <rect
       id="rect4709"
       y="28.413794"
       x="23.431028"
       height="24.827587"
       width="34.137932"
       style="opacity:1;fill:#3689e6;stroke-width:0.7758621" />
    <path
       id="path4711"
       d="m 22.267236,25.310345 c -1.074569,0 -1.939655,0.865086 -1.939655,1.939655 v 0.775862 c 0,-1.074569 0.865086,-1.939655 1.939655,-1.939655 h 36.465518 c 1.070689,0 1.939655,0.865086 1.939655,1.939655 V 27.25 c 0,-1.074569 -0.868966,-1.939655 -1.939655,-1.939655 z"
       style="opacity:0.2;fill:#7e8087;stroke-width:0.7758621"
       inkscape:connector-curvature="0" />
  </g>
</svg>
