<?xml version="1.0" encoding="UTF-8" standalone="no"?>
<!-- Created with Inkscape (http://www.inkscape.org/) -->

<svg
   xmlns:dc="http://purl.org/dc/elements/1.1/"
   xmlns:cc="http://creativecommons.org/ns#"
   xmlns:rdf="http://www.w3.org/1999/02/22-rdf-syntax-ns#"
   xmlns:svg="http://www.w3.org/2000/svg"
   xmlns="http://www.w3.org/2000/svg"
   xmlns:sodipodi="http://sodipodi.sourceforge.net/DTD/sodipodi-0.dtd"
   xmlns:inkscape="http://www.inkscape.org/namespaces/inkscape"
   version="1.1"
   id="svg2"
   width="128"
   height="128"
   viewBox="0 0 128 128"
   sodipodi:docname="tdevelop.svg"
   inkscape:version="0.92.4 (5da689c313, 2019-01-14)"
   inkscape:export-filename="/home/john/Nextcloud/Q4OS Stuff/tdevelop.png"
   inkscape:export-xdpi="96"
   inkscape:export-ydpi="96">
  <metadata
     id="metadata8">
    <rdf:RDF>
      <cc:Work
         rdf:about="">
        <dc:format>image/svg+xml</dc:format>
        <dc:type
           rdf:resource="http://purl.org/dc/dcmitype/StillImage" />
        <dc:title />
      </cc:Work>
    </rdf:RDF>
  </metadata>
  <defs
     id="defs6">
    <filter
       inkscape:collect="always"
       style="color-interpolation-filters:sRGB"
       id="filter4937"
       x="-0.012042032"
       width="1.0240841"
       y="-0.01195826"
       height="1.0239165">
      <feGaussianBlur
         inkscape:collect="always"
         stdDeviation="0.30348912"
         id="feGaussianBlur4939" />
    </filter>
    <filter
       inkscape:collect="always"
       style="color-interpolation-filters:sRGB"
       id="filter4978"
       x="-0.012000001"
       width="1.024"
       y="-0.011999999"
       height="1.024">
      <feGaussianBlur
         inkscape:collect="always"
         stdDeviation="0.20500001"
         id="feGaussianBlur4980" />
    </filter>
  </defs>
  <sodipodi:namedview
     pagecolor="#ffffff"
     bordercolor="#666666"
     borderopacity="1"
     objecttolerance="10"
     gridtolerance="10"
     guidetolerance="10"
     inkscape:pageopacity="0"
     inkscape:pageshadow="2"
     inkscape:window-width="1362"
     inkscape:window-height="695"
     id="namedview4"
     showgrid="false"
     fit-margin-top="0"
     fit-margin-left="0"
     fit-margin-right="0"
     fit-margin-bottom="0"
     showguides="true"
     inkscape:zoom="4.0234375"
     inkscape:cx="64"
     inkscape:cy="64"
     inkscape:window-x="0"
     inkscape:window-y="0"
     inkscape:window-maximized="1"
     inkscape:current-layer="svg2"
     inkscape:snap-grids="true" />
  <path
     style="opacity:0.2;fill:#000000;fill-opacity:1;stroke-width:0.74765211;filter:url(#filter4937)"
     d="m 14.748245,2.0955137 c -0.137284,0.01413 -0.269875,0.07488 -0.372984,0.178589 l -4.7716906,4.770836 c -0.200621,0.201195 -0.238416,0.513188 -0.09051,0.756798 l 5.5866226,9.2011093 c -0.990846,1.665794 -1.785008,3.461826 -2.352602,5.356506 L 2.4909444,24.492641 c -0.285356,0.05906 -0.490946,0.311937 -0.490946,0.604771 v 6.747153 c 0,0.285346 0.195222,0.532488 0.470176,0.598951 l 9.9545766,2.433187 c 0.530845,2.194352 1.353461,4.274488 2.440679,6.186405 l -5.7619096,8.78657 c -0.160756,0.245559 -0.127157,0.569054 0.08054,0.775899 l 4.7700176,4.770864 c 0.200622,0.200065 0.513821,0.239343 0.758458,0.09212 l 9.029145,-5.483608 c 1.773594,1.023465 3.68634,1.828868 5.707914,2.375062 l 2.106713,10.129007 C 31.615608,62.796037 31.869288,63 32.160248,63 h 6.74798 c 0.28368,0 0.53124,-0.193566 0.59895,-0.471875 l 2.48137,-10.149775 c 2.08387,-0.562385 4.05477,-1.400594 5.871559,-2.470573 l 8.89788,5.834174 c 0.24466,0.161069 0.56823,0.128855 0.7759,-0.07884 l 4.7717,-4.770864 c 0.20184,-0.20176 0.23798,-0.513781 0.0897,-0.75677 l -6.07321,-7.692716 c -2.72646,-3.739762 -2.38842,-3.356667 -3.38377,-4.419334 -3.1987,6.260328 -9.706589,10.548523 -17.221739,10.548523 -10.677092,0 -19.333459,-8.656556 -19.333459,-19.334272 0,-7.854911 4.685091,-14.610147 11.410842,-17.636265 V 6.6137597 c -1.224073,0.428218 -2.407438,0.944515 -3.53142,1.556775 -8.23e-4,-7.64e-4 -0.0017,-0.0028 -0.0048,-0.0057 l -9.107213,-5.973228 c -0.122655,-0.08026 -0.264811,-0.112184 -0.402064,-0.09805 z"
     id="path5692_2_-3-2"
     inkscape:connector-curvature="0"
     sodipodi:nodetypes="cccccccssccccccccccsscccccccccssccccccc"
     transform="scale(2)" />
  <path
     style="fill:#cfd8dc;fill-opacity:1;stroke-width:1.49530423"
     d="m 29.496494,2.191026 c -0.274568,0.028252 -0.53975,0.149768 -0.745968,0.3571778 l -9.543382,9.5416722 c -0.401242,0.40239 -0.476832,1.026376 -0.18102,1.513596 L 30.19937,32.00569 c -1.981692,3.331588 -3.570016,6.923652 -4.705204,10.713012 L 4.981892,46.98528 C 4.41118,47.1034 4,47.609154 4,48.194822 v 13.494306 c 0,0.570692 0.390444,1.064976 0.940352,1.197902 l 19.909154,4.866374 c 1.06169,4.388706 2.706922,8.548978 4.881358,12.372812 l -11.52382,17.57314 c -0.321512,0.491118 -0.254314,1.138108 0.16108,1.551798 l 9.540036,9.541726 c 0.401244,0.40013 1.027642,0.47869 1.516916,0.18424 l 18.05829,-10.967214 c 3.547188,2.046934 7.372678,3.657734 11.415826,4.750124 l 4.21342,20.25801 C 63.231172,123.59207 63.738586,124 64.320488,124 h 13.49597 c 0.567358,0 1.062484,-0.38713 1.197902,-0.94375 l 4.96273,-20.29955 c 4.167742,-1.12477 8.109542,-2.801188 11.743118,-4.941146 L 113.51598,109.4839 c 0.48931,0.32214 1.13645,0.25771 1.5518,-0.15768 l 9.54339,-9.541726 c 0.40369,-0.40352 0.47597,-1.027562 0.17938,-1.51354 L 112.64414,82.885522 C 107.19122,75.405998 107.8673,76.172188 105.8766,74.046854 99.4792,86.56751 86.463414,95.1439 71.43311,95.1439 c -21.354174,0 -38.666908,-17.313112 -38.666908,-38.668546 0,-15.709822 9.370182,-29.220292 22.821682,-35.272528 v -9.975307 c -2.448144,0.856435 -4.814874,1.889029 -7.062838,3.113549 -0.0016,-0.0015 -0.0034,-0.0056 -0.0096,-0.01142 L 30.30102,2.3831916 C 30.05571,2.2226768 29.771398,2.1588244 29.496892,2.1870814 Z"
     id="path5692_2_-3"
     inkscape:connector-curvature="0"
     sodipodi:nodetypes="cccccccssccccccccccsscccccccccssccccccc" />
  <ellipse
     style="opacity:0.2;fill:#000000;fill-opacity:1;stroke:none;stroke-width:0.62231982;stroke-opacity:0;filter:url(#filter4978)"
     id="path5219-3-8"
     cx="36"
     cy="28.999998"
     rx="20.5"
     ry="20.500002"
     transform="scale(2)" />
  <ellipse
     style="opacity:1;fill:#206b00;fill-opacity:1;stroke-width:2"
     id="path5219-3"
     cx="72.000008"
     cy="55.999996"
     rx="41"
     ry="41.000004" />
  <path
     inkscape:connector-curvature="0"
     style="opacity:0.2;fill:#ffffff;stroke-width:1.46428037"
     d="m 72.000116,14.999927 a 40.999846,40.999846 0 0 0 -40.999846,40.999885 40.999846,40.999846 0 0 0 0.03102,0.858348 40.999846,40.999846 0 0 1 40.96837,-40.393521 40.999846,40.999846 0 0 1 40.9691,40.141677 40.999846,40.999846 0 0 0 0.031,-0.606368 40.999846,40.999846 0 0 0 -40.999838,-40.99989 z"
     id="path5512-1" />
  <ellipse
     style="opacity:1;fill:#fafafa;fill-opacity:1;stroke-width:2"
     id="path5219-3-6"
     cx="66.991089"
     cy="66.555031"
     rx="25"
     ry="25.000002" />
  <path
     style="fill:#1a1a1a;fill-opacity:1;stroke-width:2"
     d="m 44.99109,65.055032 23.999156,22 12.000844,-33 z"
     id="path4661"
     inkscape:connector-curvature="0"
     sodipodi:nodetypes="cccc" />
</svg>
