<?xml version="1.0" encoding="UTF-8" standalone="no"?>
<svg
   xmlns:dc="http://purl.org/dc/elements/1.1/"
   xmlns:cc="http://creativecommons.org/ns#"
   xmlns:rdf="http://www.w3.org/1999/02/22-rdf-syntax-ns#"
   xmlns:svg="http://www.w3.org/2000/svg"
   xmlns="http://www.w3.org/2000/svg"
   xmlns:sodipodi="http://sodipodi.sourceforge.net/DTD/sodipodi-0.dtd"
   xmlns:inkscape="http://www.inkscape.org/namespaces/inkscape"
   width="128"
   height="128"
   version="1"
   id="svg22"
   sodipodi:docname="tdewalletmanager.svg"
   inkscape:version="0.92.4 (5da689c313, 2019-01-14)">
  <metadata
     id="metadata28">
    <rdf:RDF>
      <cc:Work
         rdf:about="">
        <dc:format>image/svg+xml</dc:format>
        <dc:type
           rdf:resource="http://purl.org/dc/dcmitype/StillImage" />
        <dc:title></dc:title>
      </cc:Work>
    </rdf:RDF>
  </metadata>
  <defs
     id="defs26" />
  <sodipodi:namedview
     pagecolor="#ffffff"
     bordercolor="#666666"
     borderopacity="1"
     objecttolerance="10"
     gridtolerance="10"
     guidetolerance="10"
     inkscape:pageopacity="0"
     inkscape:pageshadow="2"
     inkscape:window-width="1362"
     inkscape:window-height="695"
     id="namedview24"
     showgrid="false"
     fit-margin-top="0"
     fit-margin-left="0"
     fit-margin-right="0"
     fit-margin-bottom="0"
     inkscape:zoom="4.0234375"
     inkscape:cx="64"
     inkscape:cy="64"
     inkscape:window-x="0"
     inkscape:window-y="0"
     inkscape:window-maximized="1"
     inkscape:current-layer="svg22" />
  <path
     style="opacity:0.2;stroke-width:2"
     d="m 18,112.4 v 4 c 0,3.1 2.4528,5.6 5.5,5.6 h 77 c 3.048,0 5.5,-2.5 5.5,-5.6 v -4 c 0,3.1 -2.452,5.6 -5.5,5.6 h -77 c -3.0472,0 -5.5,-2.5 -5.5,-5.6 z"
     id="path2"
     inkscape:connector-curvature="0" />
  <path
     style="fill:#c46c6c;stroke-width:2"
     d="M 106,114.4 V 13.600002 c 0,-3.1024 -2.453,-5.6 -5.5,-5.6 h -77 c -3.0472,0 -5.5,2.4976 -5.5,5.6 V 114.4 c 0,3.104 2.4528,5.6 5.5,5.6 h 77 c 3.048,0 5.5,-2.496 5.5,-5.6 z"
     id="path4"
     inkscape:connector-curvature="0" />
  <path
     style="fill:#ffffff;stroke-width:2"
     d="m 29.3692,12.000402 v 2.8108 h 8.1372 v -2.8108 z m 10.8496,0 v 2.8108 h 8.1372 v -2.8108 z m 10.8496,0 v 2.8108 h 7.5332 v -2.8108 z m 10.2456,0 v 2.8108 h 6.7808 v -2.8108 z m 9.4932,0 v 2.8108 h 8.1372 v -2.8108 z m 10.8496,0 v 2.8108 h 8.1372 v -2.8108 z m 10.8496,0 v 2.8108 h 2.62764 l 0.90588,0.08784 0.76816,0.252536 0.68868,0.389776 0.59864,0.50508 0.49268,0.62036 0.08476,0.109796 0.54036,-0.46116 1.75884,-0.98816 -0.0583,-0.115288 -0.0636,-0.120776 -0.0848,-0.104304 -0.6622,-0.83444 -0.0794,-0.104304 -0.10064,-0.08235 -0.80524,-0.68624 -0.10064,-0.08784 -0.11656,-0.06588 -0.9218,-0.51604 -0.11656,-0.06588 -0.12716,-0.03844 -1.02244,-0.329392 -0.12716,-0.03844 -0.13772,-0.01648 -1.09132,-0.115288 -0.06888,-0.0055 h -2.78128 z m -65.976,0.0824 -0.3444,0.0384 -0.138,0.0164 -0.1268,0.0384 -1.0228,0.3296 -0.12712,0.03844 -0.11656,0.06588 -0.9218,0.51604 -0.11656,0.06588 -0.10066,0.08784 -0.80528,0.68624 -0.10066,0.08235 -0.07946,0.104304 -0.52448,0.6588 h 4.7892 l -0.264884,-2.72844 z m 75.432,6.4176 -2.7018,0.279984 0.032,0.33488 v 7.9548 h 2.7124 v -8.114 l -0.006,-0.07137 -0.0372,-0.384288 z m -2.67,11.3804 v 8.4324 h 2.7124 v -8.4324 z m 0,11.2432 v 8.4324 h 2.7124 v -8.4324 z m 0,11.2432 v 8.4324 h 2.7124 v -8.4324 z m 0,11.2432 v 8.4324 h 2.7124 v -8.4324 z m 0,11.2432 v 8.4324 h 2.7124 v -8.4324 z m 0,11.2432 v 8.4324 h 2.7124 v -8.4324 z m 0,11.2432 v 8.432398 h 2.7124 v -8.432398 z m 0,11.243198 v 0.30196 l -0.08476,0.93876 -0.24372,0.79604 -0.37616,0.71368 -0.4874,0.62036 -0.59864,0.50508 -0.68868,0.38976 -0.76288,0.24704 -0.21192,0.022 0.27016,2.79984 0.34436,-0.0384 0.13772,-0.0164 0.12716,-0.0384 1.02244,-0.3294 0.12716,-0.0384 0.11656,-0.0659 0.9218,-0.51604 0.11656,-0.0659 0.10068,-0.0878 0.80524,-0.68624 0.10064,-0.0824 0.0794,-0.10432 0.6622,-0.83444 0.0848,-0.10432 0.0636,-0.1208 0.498,-0.95524 0.0636,-0.1208 0.0372,-0.13176 0.31788,-1.05952 0.0372,-0.13176 0.0156,-0.14276 0.11128,-1.13092 0.005,-0.0712 v -0.46112 h -2.7124 z m -77.288,4.606 0.52448,0.6588 0.07946,0.10432 0.10066,0.0824 0.80524,0.68624 0.10066,0.0878 0.11656,0.0659 0.9218,0.51604 0.11656,0.0659 0.12712,0.0384 1.02244,0.3294 0.12712,0.0384 0.13774,0.0164 1.09132,0.11528 0.06886,0.006 h 2.78128 v -2.8108 h -8.1212 z m 10.8336,0 V 116 h 8.1372 v -2.8108 z m 10.8496,0 V 116 h 8.1372 v -2.8108 z m 10.8496,0 V 116 h 6.7808 v -2.8108 z m 9.4932,0 V 116 h 7.5332 v -2.8108 z m 10.2456,0 V 116 h 8.1372 v -2.8108 z m 10.8496,0 V 116 h 8.1372 v -2.8108 z"
     id="path6"
     inkscape:connector-curvature="0" />
  <path
     style="opacity:0.1;stroke-width:2"
     d="M 87.6,50.000002 H 110 v 32 H 87.6 c -3.104,0 -5.6,-2.38 -5.6,-5.332 v -21.3332 c 0,-2.956 2.496,-5.336 5.6,-5.336 z"
     id="path8"
     inkscape:connector-curvature="0" />
  <path
     style="fill:#9b3e3e;stroke-width:2"
     d="M 87.6,48.000002 H 110 v 32 H 87.6 c -3.104,0 -5.6,-2.38 -5.6,-5.332 v -21.3332 c 0,-2.956 2.496,-5.336 5.6,-5.336 z"
     id="path10"
     inkscape:connector-curvature="0" />
  <path
     style="fill:#ffffff;stroke-width:2"
     d="m 89.224,50.000002 v 0.66664 l -0.07172,-0.6614 -0.26472,0.0264 0.14888,1.32284 0.18752,-0.0228 h 2.82344 v -1.33324 h -2.82352 z m 4.2352,0 v 1.33324 h 2.82352 v -1.33324 z m 4.2352,0 v 1.33324 h 2.82352 v -1.33324 z m 4.2352,0 v 1.33324 h 2.82352 v -1.33324 z m 4.2352,0 v 1.33324 h 1.8364 v -1.33328 h -1.8364 z m -18.7884,0.34388 -0.12684,0.036 -0.07172,0.0228 -0.06064,0.0304 -0.76656,0.41144 -0.06064,0.0304 -0.05512,0.04004 -0.66728,0.54164 -0.04964,0.04004 -0.04412,0.05216 -0.55148,0.6562 -0.0384,0.05216 -0.0332,0.05724 -0.0168,0.0304 0.80516,0.39572 0.39156,0.29156 0.51836,-0.61456 0.54596,-0.44788 0.65072,-0.34384 0.06064,-0.0228 -0.0056,-0.0096 0.0108,-0.004 -0.0276,-0.04004 -0.40808,-1.20824 z m -3.14888,3.34352 -0.10476,0.33856 -0.022,0.05728 -0.0056,0.0676 -0.08824,0.89576 -0.0056,0.0304 v 1.44696 h 1.41176 v -1.41736 l 0.08272,-0.776 0.08272,-0.26568 -1.35112,-0.38028 z m -0.22608,4.1716 v 2.66648 h 1.41176 v -2.66648 z m 0,3.99972 v 2.66648 h 1.41176 v -2.66648 z m 0,3.99976 v 2.66648 h 1.41176 v -2.66648 z m 0,3.99972 v 2.66652 h 1.41176 v -2.66652 z m 1.49448,3.80184 -1.35108,0.38028 0.23712,0.77076 0.022,0.06248 0.0332,0.05216 0.4136,0.75516 0.0332,0.05724 0.0384,0.05216 0.55148,0.6562 0.04412,0.05216 0.04964,0.04 0.13788,0.10936 0.92096,-1.01036 -0.0772,-0.06248 -0.47428,-0.56248 -0.35844,-0.651 -0.2206,-0.70308 z m 2.16728,2.66648 -0.68936,1.1614 0.14336,0.0782 0.06064,0.0304 0.07172,0.0228 0.84376,0.2604 0.07172,0.0228 0.07172,0.004 0.91544,0.0886 0.0384,0.004 h 0.88248 v -1.33324 h -0.8492 l -0.77756,-0.08344 -0.7114,-0.21864 -0.07172,-0.036 z m 3.82168,0.3386 v 1.33328 h 2.82352 v -1.33328 z m 4.2352,0 v 1.33328 h 2.82352 v -1.33328 z m 4.2352,0 v 1.33328 h 2.82352 v -1.33328 z m 4.2352,0 v 1.33328 h 2.82352 v -1.33328 z"
     id="path12"
     inkscape:connector-curvature="0" />
  <g
     transform="matrix(2,0,0,2,26,18.000002)"
     id="g18">
    <path
       style="fill:#c8c8c8"
       d="m 36,23 a 2,2 0 0 1 -2,2 2,2 0 0 1 -2,-2 2,2 0 0 1 2,-2 2,2 0 0 1 2,2 z"
       id="path14"
       inkscape:connector-curvature="0" />
    <path
       style="fill:#ffffff"
       d="M 35.5,22.25 A 1.5,1.25 0 0 1 34,23.5 1.5,1.25 0 0 1 32.5,22.25 1.5,1.25 0 0 1 34,21 a 1.5,1.25 0 0 1 1.5,1.25 z"
       id="path16"
       inkscape:connector-curvature="0" />
  </g>
  <path
     style="opacity:0.2;fill:#ffffff;stroke-width:2"
     d="m 23.5,8.000002 c -3.0472,0 -5.5,2.499162 -5.5,5.601562 v 2 c 0,-3.102399 2.4528,-5.601562 5.5,-5.601562 h 77 c 3.048,0 5.5,2.499162 5.5,5.601562 v -2 c 0,-3.1024 -2.452,-5.601562 -5.5,-5.601562 z"
     id="path20"
     inkscape:connector-curvature="0" />
</svg>
