<svg width="128" height="128" version="1.1" viewBox="0 0 33.866666 33.866668" xmlns="http://www.w3.org/2000/svg">
    <defs>
        <filter id="filter840" x="-.014322443" y="-.010325653" width="1.0286449" height="1.0206513" color-interpolation-filters="sRGB">
            <feGaussianBlur stdDeviation="0.1183865"/>
        </filter>
    </defs>
    <g transform="translate(-8.9009608e-7,-263.13332)">
        <path d="m16.933479 267.63123a7.3590608 7.3590613 0 0 0-7.3590609 7.35908 7.3590608 7.3590613 0 0 0 2.6521609 5.65552c-3.0143439 3.66857-6.2821289 8.60024-4.8756269 11.43105 1.416588 2.85111 5.4732699 3.07836 9.5450299 3.07085 4.07176-7e-3 8.158778-0.24987 9.63502-3.07085 1.395741-2.66717-2.015658-7.492-5.231831-11.17234a7.3590608 7.3590613 0 0 0 2.993366-5.91423 7.3590608 7.3590613 0 0 0-7.359058-7.35908z" filter="url(#filter840)" opacity=".2"/>
        <path d="m16.933479 267.10207a7.3590608 7.3590613 0 0 0-7.3590601 7.35908 7.3590608 7.3590613 0 0 0 2.6521611 5.65552c-3.0143446 3.66857-6.282129 8.60024-4.8756271 11.43105 1.4165881 2.85111 5.4732701 3.07836 9.5450291 3.07085 4.07176-7e-3 8.158778-0.24987 9.63502-3.07085 1.395741-2.66717-2.015658-7.492-5.231831-11.17234a7.3590608 7.3590613 0 0 0 2.993366-5.91423 7.3590608 7.3590613 0 0 0-7.359058-7.35908z" fill="#9575cd"/>
        <path d="m16.933499 267.10249a7.3590325 7.3590325 0 0 0-7.3590323 7.35904 7.3590325 7.3590325 0 0 0 0.00557 0.15409 7.3590325 7.3590325 0 0 1 7.3533823-7.25021 7.3590325 7.3590325 0 0 1 7.353516 7.20501 7.3590325 7.3590325 0 0 0 0.0055-0.10885 7.3590325 7.3590325 0 0 0-7.359034-7.35906z" fill="#fff" opacity=".2" stroke-width=".26282266"/>
    </g>
</svg>
