<?xml version="1.0" encoding="UTF-8"?>
<svg width="32" height="32" version="1" xmlns="http://www.w3.org/2000/svg" xmlns:cc="http://creativecommons.org/ns#" xmlns:dc="http://purl.org/dc/elements/1.1/" xmlns:rdf="http://www.w3.org/1999/02/22-rdf-syntax-ns#">
 <metadata>
  <rdf:RDF>
   <cc:Work rdf:about="">
    <dc:format>image/svg+xml</dc:format>
    <dc:type rdf:resource="http://purl.org/dc/dcmitype/StillImage"/>
    <dc:title/>
   </cc:Work>
  </rdf:RDF>
 </metadata>
 <path d="m15.5 4 4 8.5 8.5 1-6 6.5 1.5 9-8-4.5-8 4.5 1.5-9-6-6.5 8.5-1z" fill="#fecd38"/>
 <path d="M 3.832,14.402 3,14.5 8.8594,20.848 9,20 Z m 23.336,0 L 22,20 22.141,20.848 28,14.5 Z M 15.5,24.5 7.6836,28.896 7.5,30 l 8,-4.5 8,4.5 -0.184,-1.104 z" opacity=".2"/>
 <path d="m15.5 4-4 8.5-8.5 1 0.83203 0.90234 7.668-0.902 4-8.5 4 8.5 7.668 0.90234 0.832-0.902-8.5-1-4-8.5zm-6.6406 16.848-1.3594 8.152 0.1836-0.104 1.3164-7.896zm13.281 0-0.14 0.152 1.316 7.896 0.184 0.104-1.359-8.152z" fill="#fff" opacity=".1"/>
</svg>
