<?xml version="1.0" encoding="UTF-8"?>
<svg width="24" height="24" version="1.1" viewBox="0 0 6.35 6.35" xmlns="http://www.w3.org/2000/svg" xmlns:cc="http://creativecommons.org/ns#" xmlns:dc="http://purl.org/dc/elements/1.1/" xmlns:rdf="http://www.w3.org/1999/02/22-rdf-syntax-ns#">
 <metadata>
  <rdf:RDF>
   <cc:Work rdf:about="">
    <dc:format>image/svg+xml</dc:format>
    <dc:type rdf:resource="http://purl.org/dc/dcmitype/StillImage"/>
    <dc:title/>
   </cc:Work>
  </rdf:RDF>
 </metadata>
 <g transform="translate(0 -290.65)" opacity=".2">
  <polygon transform="matrix(0 .024253 -.024116 0 7.6861 280.41)" points="648 187.06 576 187.06 540 124.71 576 62.354 648 62.354 684 124.71"/>
  <polygon transform="matrix(0 .024253 -.024116 0 4.6786 280.41)" points="576 62.354 648 62.354 684 124.71 648 187.06 576 187.06 540 124.71"/>
  <polygon transform="matrix(0 .024253 -.024116 0 6.1823 278.08)" points="540 124.71 576 62.354 648 62.354 684 124.71 648 187.06 576 187.06"/>
 </g>
 <g transform="matrix(.43718 0 0 .43718 -.52645 -122.95)">
  <polygon transform="matrix(0 .055477 -.055162 0 18.785 257.2)" points="576 62.354 648 62.354 684 124.71 648 187.06 576 187.06 540 124.71" fill="#c5e1a5"/>
  <path d="m8.4667 293.15 3.3841 1.9639v-3.9611l-3.3841-1.9972z" fill="#aed581"/>
  <path d="m15.346 293.15-3.3841 1.9639v-3.9611l3.3841-1.9972z" fill="#9ccc65"/>
  <polygon transform="matrix(0 .055477 -.055162 0 11.906 257.2)" points="648 187.06 576 187.06 540 124.71 576 62.354 648 62.354 684 124.71" fill="#fce68d"/>
  <path d="m1.5875 293.15 3.3841 1.9639v-3.9611l-3.3841-1.9972z" fill="#fadd60"/>
  <path d="m8.4667 293.15-3.3841 1.9639v-3.9611l3.3841-1.9972z" fill="#fad53e"/>
  <polygon transform="matrix(0 .055477 -.055162 0 15.346 251.88)" points="576 187.06 540 124.71 576 62.354 648 62.354 684 124.71 648 187.06" fill="#81d4fa"/>
  <path d="m5.0271 287.82 3.3841 1.9639v-3.9611l-3.3841-1.9972z" fill="#4fc3f7"/>
  <path d="m11.906 287.82-3.3841 1.9639v-3.9611l3.3841-1.9972z" fill="#29b6f6"/>
 </g>
</svg>
