<?xml version="1.0" encoding="UTF-8"?>
<svg version="1" viewBox="0 0 32 32" xmlns="http://www.w3.org/2000/svg" xmlns:cc="http://creativecommons.org/ns#" xmlns:dc="http://purl.org/dc/elements/1.1/" xmlns:rdf="http://www.w3.org/1999/02/22-rdf-syntax-ns#">
 <metadata>
  <rdf:RDF>
   <cc:Work rdf:about="">
    <dc:format>image/svg+xml</dc:format>
    <dc:type rdf:resource="http://purl.org/dc/dcmitype/StillImage"/>
    <dc:title/>
   </cc:Work>
  </rdf:RDF>
 </metadata>
 <path d="m23.147 3c-1.8966 0-3.628 0.8359-4.7647 1.9609-0.02686 0.026584-0.03807 0.059116-0.06438 0.085937-0.70356-0.96863-1.4325-1.0469-3.0139-1.0039-1.2156-0.042969-2.6477 1.114-3.3429 2.1289-0.63371-0.25706-1.2324-0.061971-1.8263 0.082031-1.3077 0.44163-2.5636 1.6494-2.954 2.9668-0.0062 0.021061 6e-5 0.037627-0.0058 0.058594-0.24893 0.071303-0.52795 0.059731-0.75314 0.16602-1.1427 0.53968-2.3663 1.9991-2.4194 3.4824-0.05313 1.4833 0.59844 2.4177 1.1863 3.0879 0.37364 0.426 0.83976 0.66803 1.2799 0.95703-0.09915 0.29938-0.24265 0.57099-0.30828 0.89062h0.0019c-0.6687 3.2541 0.59854 6.3145 2.517 8.7324 1.9184 2.4179 4.7248 4.4043 8.1772 4.4043 4.1149 0 7.3932-3.0903 8.1206-7.2832 0-3.7168-2.9969-6.7168 2.0272-12.801 0.64966-1.2148 1.278-2.5489 0.86044-4.4629-0.20877-0.95699-0.877-2.0435-1.8145-2.6602-0.93755-0.61671-1.955-0.79297-2.9033-0.79297z" opacity=".2" stroke-width=".99949"/>
 <path d="m23.148 2c-1.8966 0-3.628 0.8359-4.7647 1.9609-0.02686 0.026584-0.03807 0.059116-0.06438 0.085937-0.70356-0.96863-1.4325-1.0469-3.0139-1.0039-1.2156-0.042969-2.6477 1.114-3.3429 2.1289-0.63371-0.25706-1.2324-0.061971-1.8263 0.082031-1.3077 0.44163-2.5636 1.6494-2.954 2.9668-0.00624 0.021061 6.02e-5 0.037627-0.00585 0.058594-0.24893 0.071303-0.52795 0.059731-0.75314 0.16602-1.1427 0.53968-2.3663 1.9991-2.4194 3.4824-0.053127 1.4833 0.59844 2.4177 1.1863 3.0879 0.37364 0.426 0.83976 0.66803 1.2799 0.95703-0.099151 0.29938-0.24265 0.57099-0.30828 0.89062h0.00195c-0.6687 3.2541 0.59854 6.3145 2.517 8.7324 1.9184 2.4179 4.7248 4.4043 8.1772 4.4043 4.1149 0 7.3932-3.0903 8.1206-7.2832 0-3.7168-2.9969-6.7168 2.0272-12.801 0.64966-1.2148 1.278-2.5489 0.86044-4.4629-0.20877-0.95699-0.877-2.0435-1.8145-2.6602-0.93755-0.61671-1.955-0.79297-2.9033-0.79297z" fill="#40c4ff" stroke-width=".99949"/>
 <path d="m23.127 2.0742c-1.8966 0-3.628 0.8359-4.7647 1.9609-0.02686 0.026584-0.03807 0.059117-0.06438 0.085937-0.70356-0.96863-1.4331-1.0469-3.0145-1.0039-1.2156-0.042969-2.6471 1.114-3.3423 2.1289-0.63371-0.25706-1.2324-0.061971-1.8263 0.082031-1.3077 0.44163-2.5636 1.6494-2.954 2.9668-0.00624 0.021061 6.08e-5 0.037627-0.00585 0.058594-0.24893 0.071303-0.52795 0.059731-0.75314 0.16602-1.1427 0.53968-2.3663 1.9991-2.4194 3.4824-0.00914 0.2552 0.0084 0.48873 0.037071 0.71289 0.18684-1.3806 1.3138-2.6907 2.3823-3.1953 0.22518-0.10628 0.50421-0.094713 0.75314-0.16602 0.00591-0.020967-3.902e-4 -0.037533 0.00585-0.058594 0.39038-1.3174 1.6463-2.5252 2.954-2.9668 0.59384-0.144 1.1925-0.33909 1.8263-0.082031 0.6952-1.0149 2.1267-2.1719 3.3423-2.1289 1.5814-0.042969 2.3109 0.035276 3.0145 1.0039 0.02631-0.026821 0.03752-0.059354 0.06438-0.085937 1.1367-1.125 2.8681-1.9609 4.7647-1.9609 0.94828 0 1.9657 0.17626 2.9033 0.79297 0.93755 0.61671 1.6058 1.7032 1.8145 2.6602 0.05013 0.22981 0.0836 0.45018 0.10536 0.66406 0.04628-0.50723 0.02775-1.0539-0.10536-1.6641-0.20877-0.95699-0.877-2.0435-1.8145-2.6602-0.93755-0.61671-1.955-0.79297-2.9033-0.79297zm-16.963 14.789c-0.00635 0.02558-0.018037 0.04803-0.023413 0.07422h0.00195c-0.15244 0.74182-0.1916 1.4711-0.15804 2.1875 0.026159-0.39221 0.076079-0.78864 0.15804-1.1875h-0.00195c0.06563-0.31964 0.20913-0.59124 0.30828-0.89063-0.094301-0.06191-0.18935-0.12372-0.28486-0.18359zm17.927 0.44727c-0.11464 2.1138 0.63238 3.8479 0.82142 5.6934 0.014-0.07142 0.03238-0.14081 0.04487-0.21289 0-1.8484-0.73905-3.5192-0.8663-5.4805z" fill="#fff" opacity=".2" stroke-width=".99949"/>
 <path d="m23.168 5c-4.4428 0-5.2747 7-2.7754 7 2.499 0 7.2184-7 2.7754-7zm-7.5527 1.0156c-2.541 0.34021-1.646 4.8972-0.29297 4.9824 1.3525 0.0852 2.8349-5.3226 0.29297-4.9824zm-4.0957 1.9902c-0.12979 0.011259-0.26932 0.039695-0.41797 0.089844-2.3789 0.80255-0.36197 4.1172 0.9707 3.8945 1.2504-0.20842 1.3941-4.1533-0.55274-3.9844zm-3.1289 2.9941c-0.21235-0.0049-0.44105 0.042923-0.68555 0.1582-1.9551 0.92239 0.65834 3.1522 1.8086 2.8066 1.0065-0.30251 0.36337-2.9307-1.123-2.9648zm9.2891 1.002c-3.3713-0.061966-7.8177 1.7749-8.5762 5.4648-0.8214 3.9931 3.3825 9.5332 7.7676 9.5332 2.1572 0 4.6439-2.1161 5.1094-4.7969 0.15616-0.89788-0.62444-1.2126-1.5352-1.2031-1.1627 0.012096-2.5368 0.57155-2.4453 1.3301 0.13319 1.1051-0.55201 1.6793-1.3203 1.6973-1.049-0.132-1.5632-0.76083-1.7012-1.7109-0.18786-2.4949 7.1208-4.272 6.5215-8.1406-0.21919-1.4149-1.7975-2.1366-3.8203-2.1738z" fill="#fff"/>
</svg>
