<?xml version="1.0" encoding="UTF-8" standalone="no"?>
<!-- Created with Inkscape (http://www.inkscape.org/) -->

<svg
   xmlns:dc="http://purl.org/dc/elements/1.1/"
   xmlns:cc="http://creativecommons.org/ns#"
   xmlns:rdf="http://www.w3.org/1999/02/22-rdf-syntax-ns#"
   xmlns:svg="http://www.w3.org/2000/svg"
   xmlns="http://www.w3.org/2000/svg"
   xmlns:sodipodi="http://sodipodi.sourceforge.net/DTD/sodipodi-0.dtd"
   xmlns:inkscape="http://www.inkscape.org/namespaces/inkscape"
   width="31.999998"
   height="31.999998"
   viewBox="0 0 8.4666662 8.4666662"
   version="1.1"
   id="svg8"
   inkscape:version="0.92.4 (5da689c313, 2019-01-14)"
   sodipodi:docname="desktop-profiler.svg"
   inkscape:export-filename="/home/john/Nextcloud/Q4OS Stuff/desktop-profiler.png"
   inkscape:export-xdpi="96"
   inkscape:export-ydpi="96">
  <defs
     id="defs2">
    <style
       id="current-color-scheme"
       type="text/css">
   .ColorScheme-Text { color:#5c616c; } .ColorScheme-Highlight { color:#5294e2; } .ColorScheme-ButtonBackground { color:#d3dae3; }
  </style>
  </defs>
  <sodipodi:namedview
     id="base"
     pagecolor="#ffffff"
     bordercolor="#666666"
     borderopacity="1.0"
     inkscape:pageopacity="0.0"
     inkscape:pageshadow="2"
     inkscape:zoom="16.093751"
     inkscape:cx="15.999999"
     inkscape:cy="15.999999"
     inkscape:document-units="mm"
     inkscape:current-layer="layer1"
     showgrid="false"
     units="px"
     inkscape:window-width="1362"
     inkscape:window-height="695"
     inkscape:window-x="0"
     inkscape:window-y="0"
     inkscape:window-maximized="1"
     fit-margin-top="0"
     fit-margin-left="0"
     fit-margin-right="0"
     fit-margin-bottom="0" />
  <metadata
     id="metadata5">
    <rdf:RDF>
      <cc:Work
         rdf:about="">
        <dc:format>image/svg+xml</dc:format>
        <dc:type
           rdf:resource="http://purl.org/dc/dcmitype/StillImage" />
        <dc:title></dc:title>
      </cc:Work>
    </rdf:RDF>
  </metadata>
  <g
     inkscape:label="Layer 1"
     inkscape:groupmode="layer"
     id="layer1"
     transform="translate(0,-288.53333)">
    <rect
       style="opacity:1;fill:#2196f3;fill-opacity:1;stroke:none;stroke-width:0.15208606;stroke-opacity:1"
       id="rect4909"
       width="7.2760429"
       height="6.6145849"
       x="0.59531242"
       y="289.45938" />
    <rect
       style="opacity:1;fill:#fafafa;fill-opacity:1;stroke:none;stroke-width:0.14546083;stroke-opacity:1"
       id="rect4909-5"
       width="6.9728737"
       height="6.3139219"
       x="0.74689651"
       y="289.60971" />
    <rect
       style="opacity:1;fill:#2196f3;fill-opacity:1;stroke:none;stroke-width:0.16278301;stroke-opacity:1"
       id="rect4907"
       width="7.2760429"
       height="1.2026516"
       x="0.59531242"
       y="289.45938" />
    <path
       style="display:inline;opacity:1;fill:#607d8b;fill-opacity:1;stroke:none;stroke-width:0.11575499;enable-background:new"
       d="m 3.7595183,290.9808 c -0.04908,0.005 -0.092344,0.0453 -0.101314,0.0939 l -0.097711,0.49554 c -0.175336,0.0686 -0.3401405,0.16298 -0.4847385,0.27873 l -0.4811345,-0.16279 c -0.04998,-0.0172 -0.1104915,0.005 -0.1373461,0.0505 l -0.463118,0.80309 c -0.02608,0.0462 -0.01478,0.11018 0.025435,0.14477 l 0.3834236,0.33637 c -0.0135,0.0902 -0.021835,0.18094 -0.021835,0.2749 0,0.094 0.00834,0.1847 0.021835,0.2749 l -0.3834236,0.33638 c -0.040215,0.0346 -0.051515,0.0986 -0.025435,0.14476 l 0.463118,0.8031 c 0.026855,0.0455 0.087365,0.0679 0.1373461,0.0507 l 0.4811345,-0.16278 c 0.144598,0.11575 0.3094025,0.20994 0.4847385,0.27851 l 0.097711,0.49555 c 0.00989,0.0519 0.059317,0.0934 0.1121234,0.0941 h 0.9260266 c 0.052807,-0.001 0.1022215,-0.0423 0.112123,-0.0941 l 0.09771,-0.49555 c 0.1753363,-0.0686 0.3401408,-0.16276 0.4847388,-0.27851 l 0.4811346,0.16278 c 0.04998,0.0172 0.110492,-0.005 0.1373464,-0.0507 l 0.4631176,-0.8031 c 0.02608,-0.0462 0.01478,-0.11018 -0.025435,-0.14476 l -0.3834236,-0.3364 c 0.013505,-0.0902 0.021835,-0.18094 0.021835,-0.2749 0,-0.094 -0.00834,-0.1847 -0.021835,-0.2749 l 0.383424,-0.33637 c 0.040215,-0.0346 0.051515,-0.0986 0.025435,-0.14477 L 6.009408,291.73663 c -0.026855,-0.0455 -0.087364,-0.0677 -0.1373465,-0.0505 l -0.4811346,0.16279 c -0.144598,-0.11572 -0.3094025,-0.21012 -0.4847388,-0.2787 l -0.09771,-0.49554 c -0.0099,-0.0519 -0.059316,-0.0932 -0.112123,-0.0939 h -0.926027 c -0.0036,-10e-5 -0.00721,-10e-5 -0.010805,0 z m 0.4737165,1.38894 c 0.511438,0 0.9260258,0.41458 0.9260258,0.92602 0,0.51144 -0.4145878,0.92602 -0.9260258,0.92602 -0.5114375,0 -0.9260251,-0.41458 -0.9260251,-0.92602 0,-0.51144 0.4145876,-0.92602 0.9260251,-0.92602 z"
       id="path4081"
       inkscape:connector-curvature="0" />
    <path
       style="display:inline;opacity:0.1;fill:#ffffff;fill-opacity:1;stroke:none;stroke-width:0.11573376;enable-background:new"
       d="m 3.7595553,290.9808 c -0.04907,0.005 -0.092298,0.0455 -0.1012666,0.094 l -0.09765,0.4955 c -0.175304,0.0686 -0.3400643,0.16274 -0.4846359,0.27848 l -0.481018,-0.16276 c -0.049975,-0.0172 -0.1105844,0.005 -0.1374339,0.0507 l -0.4629345,0.8029 c 0.00629,0.0115 0.015265,0.0203 0.02532,0.0289 l 0.018085,0.0145 0.419534,-0.73057 c 0.02685,-0.0455 0.087461,-0.0679 0.1374339,-0.0506 l 0.4810181,0.16276 c 0.1445715,-0.11574 0.3093315,-0.20994 0.4846356,-0.27849 l 0.09765,-0.49548 c 0.00897,-0.0485 0.052195,-0.0887 0.1012666,-0.094 0.0036,-10e-5 0.00724,-10e-5 0.01085,0 h 0.9258698 c 0.052799,6.7e-4 0.1022174,0.0421 0.112118,0.094 l 0.09765,0.49548 c 0.1753038,0.0686 0.3400638,0.16275 0.4846344,0.27849 l 0.481019,-0.16276 c 0.04997,-0.0172 0.1105845,0.005 0.137433,0.0507 l 0.4195355,0.73057 0.018085,-0.0145 c 0.01006,-0.009 0.01902,-0.0173 0.025315,-0.0289 l -0.4629355,-0.8029 c -0.02685,-0.0455 -0.087461,-0.0679 -0.137433,-0.0506 l -0.481013,0.16276 C 5.2461177,291.73325 5.0813577,291.63905 4.906054,291.5705 l -0.097651,-0.49549 c -0.00989,-0.0519 -0.059319,-0.0933 -0.1121164,-0.094 H 3.7704165 c -0.0036,-1.1e-4 -0.00724,-1.1e-4 -0.01084,0 z m -1.7757889,1.63474 c 0.00215,0.0137 0.0044,0.0279 0.01084,0.0398 -0.00629,-0.0115 -0.00856,-0.0267 -0.01084,-0.0398 z m 4.4991483,0 c -0.0023,0.0131 -0.00455,0.0282 -0.01084,0.0398 0.00647,-0.0119 0.00873,-0.0261 0.01084,-0.0398 z M 2.39245,293.12548 c -0.0037,0.0371 -0.00524,0.0747 -0.00724,0.11212 6.5e-4,0.0195 0.00255,0.0385 0.0036,0.0579 0.003,-0.0534 0.00665,-0.10692 0.01447,-0.15912 l -0.01085,-0.0109 z m 3.6817812,0 -0.01085,0.0109 c 0.00781,0.0522 0.01149,0.10573 0.01447,0.15913 0.0011,-0.0194 0.0029,-0.0383 0.0036,-0.0579 -0.00195,-0.0375 -0.00355,-0.075 -0.00724,-0.11212 z m -3.6817812,0.4557 -0.372517,0.32551 c -0.01006,0.009 -0.019025,0.0173 -0.02532,0.0289 l 0.0434,0.0723 0.365284,-0.32188 c -0.00515,-0.0344 -0.00741,-0.0702 -0.01084,-0.10489 z m 3.6817812,0 c -0.00345,0.0347 -0.00571,0.0705 -0.01085,0.10489 l 0.3652845,0.32188 0.0434,-0.0723 c -0.00629,-0.0115 -0.015265,-0.0203 -0.02532,-0.0289 z m -4.0940822,0.42316 c 3.25e-4,0.006 0.0022,0.0119 0.0036,0.0181 -0.0015,-0.006 -0.0031,-0.0117 -0.0036,-0.0181 z m 4.5063837,0 c -5.5e-4,0.007 -0.0021,0.0119 -0.0036,0.0181 0.0014,-0.006 0.00325,-0.0118 0.0036,-0.0181 z"
       id="path4258"
       inkscape:connector-curvature="0" />
    <rect
       style="opacity:0.2;fill:#ffffff;fill-opacity:1;stroke:none;stroke-width:0.05398902;stroke-opacity:1"
       id="rect4907-6"
       width="7.2760429"
       height="0.13229166"
       x="0.59531242"
       y="289.45938" />
  </g>
</svg>
