<?xml version="1.0" encoding="UTF-8"?>
<svg width="32" height="32" version="1.1" viewBox="0 0 8.4667 8.4667" xmlns="http://www.w3.org/2000/svg" xmlns:cc="http://creativecommons.org/ns#" xmlns:dc="http://purl.org/dc/elements/1.1/" xmlns:rdf="http://www.w3.org/1999/02/22-rdf-syntax-ns#">
 <metadata>
  <rdf:RDF>
   <cc:Work rdf:about="">
    <dc:format>image/svg+xml</dc:format>
    <dc:type rdf:resource="http://purl.org/dc/dcmitype/StillImage"/>
    <dc:title/>
   </cc:Work>
  </rdf:RDF>
 </metadata>
 <defs>
  <style id="current-color-scheme" type="text/css">.ColorScheme-Text { color:#5c616c; } .ColorScheme-Highlight { color:#5294e2; } .ColorScheme-ButtonBackground { color:#d3dae3; }</style>
 </defs>
 <rect x=".23865" y=".93902" width="7.9894" height="7.2631" opacity=".2"/>
 <rect x=".23865" y=".67443" width="7.9894" height="7.2631" fill="#2196f3"/>
 <rect x=".40509" y=".8395" width="7.6565" height="6.9329" fill="#fafafa"/>
 <rect x=".23865" y=".67443" width="7.9894" height="1.3206" fill="#2196f3"/>
 <path d="m3.7131 2.5889c-0.053892 6e-3 -0.1014 0.0498-0.11125 0.1031l-0.10729 0.54413c-0.19253 0.0753-0.37349 0.17895-0.53226 0.30605l-0.5283-0.17874c-0.05488-0.0189-0.12132 5e-3 -0.15081 0.0554l-0.50852 0.88183c-0.028637 0.0507-0.016229 0.12098 0.027929 0.15895l0.42101 0.36935c-0.014823 0.099-0.023976 0.19867-0.023976 0.30186 0 0.10317 0.00915 0.2028 0.023976 0.30184l-0.42101 0.36936c-0.044158 0.038-0.056565 0.10823-0.027929 0.15895l0.50852 0.88183c0.029488 0.05 0.09593 0.0746 0.15081 0.0556l0.5283-0.17874c0.15877 0.1271 0.33974 0.23053 0.53226 0.30582l0.10729 0.54413c0.010865 0.057 0.065132 0.10254 0.12312 0.10333h1.0168c0.057984-1e-3 0.11224-0.0464 0.12312-0.10333l0.10729-0.54413c0.19253-0.0753 0.37349-0.17872 0.53226-0.30582l0.5283 0.17874c0.05488 0.0189 0.12132-6e-3 0.15081-0.0556l0.50852-0.88183c0.028637-0.0507 0.016229-0.12098-0.027929-0.15895l-0.42101-0.36937c0.014829-0.099 0.023976-0.19867 0.023976-0.30184 0-0.10319-0.00915-0.20282-0.023976-0.30186l0.42101-0.36935c0.044158-0.038 0.056565-0.10824 0.027929-0.15895l-0.50852-0.88183c-0.029488-0.05-0.09593-0.0743-0.15081-0.0554l-0.5283 0.17874c-0.15877-0.1271-0.33974-0.23076-0.53226-0.30605l-0.10729-0.54413c-0.010865-0.057-0.065131-0.10231-0.12312-0.1031h-1.0168c-0.00395-1.2e-4 -0.00791-1.2e-4 -0.011864 0zm0.52016 1.5251c0.56158 0 1.0168 0.45523 1.0168 1.0168 0 0.56157-0.45523 1.0168-1.0168 1.0168-0.56158 0-1.0168-0.45523-1.0168-1.0168 0-0.56158 0.45523-1.0168 1.0168-1.0168z" enable-background="new" opacity=".2"/>
 <path d="m3.7131 2.3243c-0.053892 6e-3 -0.1014 0.0498-0.11125 0.1031l-0.10729 0.54413c-0.19253 0.0753-0.37349 0.17895-0.53226 0.30605l-0.5283-0.17875c-0.05488-0.0189-0.12132 5e-3 -0.15081 0.0554l-0.50852 0.88182c-0.028637 0.0507-0.016229 0.12099 0.027928 0.15896l0.42101 0.36935c-0.014824 0.099-0.023975 0.19868-0.023975 0.30185 0 0.10318 0.00915 0.20281 0.023975 0.30186l-0.42101 0.36935c-0.044157 0.038-0.056565 0.10824-0.027928 0.15895l0.50852 0.88183c0.029488 0.05 0.09593 0.0745 0.15081 0.0556l0.5283-0.17874c0.15877 0.12709 0.33974 0.23052 0.53226 0.30581l0.10729 0.54413c0.010865 0.057 0.065132 0.10254 0.12312 0.10333h1.0168c0.057984-1e-3 0.11224-0.0464 0.12312-0.10333l0.10729-0.54413c0.19253-0.0753 0.37349-0.17872 0.53226-0.30581l0.5283 0.17874c0.05488 0.0189 0.12132-6e-3 0.15081-0.0556l0.50852-0.88183c0.028637-0.0507 0.016229-0.12098-0.027929-0.15895l-0.42101-0.36938c0.014829-0.099 0.023976-0.19868 0.023976-0.30185 0-0.10318-0.00915-0.20281-0.023976-0.30186l0.42101-0.36934c0.044157-0.038 0.056565-0.10824 0.027929-0.15896l-0.50852-0.88181c-0.029487-0.05-0.09593-0.0743-0.15081-0.0554l-0.5283 0.17875c-0.15877-0.12712-0.33974-0.23077-0.53226-0.30607l-0.10729-0.54413c-0.010865-0.057-0.065131-0.10231-0.12312-0.10309h-1.0168c-0.00395-1.2e-4 -0.00791-1.2e-4 -0.011865 0zm0.52016 1.5251c0.56158 0 1.0168 0.45523 1.0168 1.0168s-0.45523 1.0168-1.0168 1.0168c-0.56158 0-1.0168-0.45523-1.0168-1.0168s0.45523-1.0168 1.0168-1.0168z" enable-background="new" fill="#607d8b"/>
 <path d="m3.7131 2.3243c-0.053881 6e-3 -0.10135 0.0499-0.11119 0.10325l-0.10722 0.54407c-0.19249 0.0753-0.3734 0.1787-0.53215 0.30578l-0.52818-0.17871c-0.054875-0.0189-0.12143 6e-3 -0.15091 0.0556l-0.50832 0.88162c0.00691 0.0127 0.016762 0.0222 0.027802 0.0318l0.019858 0.0159 0.46066-0.8022c0.029482-0.0499 0.096036-0.0745 0.15091-0.0556l0.52818 0.17872c0.15874-0.12708 0.33966-0.23051 0.53215-0.30579l0.10722-0.54405c0.00985-0.0533 0.057312-0.0974 0.11119-0.10326 0.00395-1.1e-4 0.00795-1.1e-4 0.011914 0h1.0166c0.057975 7.3e-4 0.11224 0.0463 0.12311 0.10326l0.10722 0.54405c0.19249 0.0753 0.3734 0.17871 0.53215 0.30579l0.52818-0.17871c0.054869-0.0189 0.12143 6e-3 0.15091 0.0556l0.46067 0.80219 0.019858-0.0159c0.011046-0.01 0.020885-0.019 0.027797-0.0318l-0.50832-0.88151c-0.029482-0.05-0.096036-0.0745-0.15091-0.0556l-0.52817 0.17872c-0.15874-0.12708-0.33966-0.23052-0.53215-0.30579l-0.10722-0.54406c-0.010865-0.057-0.065135-0.10247-0.12311-0.10326h-1.0166c-0.00395-1.1e-4 -0.00795-1.1e-4 -0.011903 0zm-1.9499 1.795c0.00236 0.015 0.00483 0.0307 0.011903 0.0437-0.00691-0.0127-0.0094-0.0294-0.011903-0.0437zm4.9402 0c-0.00253 0.0143-0.00499 0.031-0.011903 0.0437 0.0071-0.013 0.00959-0.0287 0.011903-0.0437zm-4.4915 0.55994c-0.00406 0.0408-0.00575 0.082-0.00795 0.1231 7.137e-4 0.0214 0.0028 0.0422 0.00395 0.0635 0.00329-0.0586 0.0073-0.1174 0.015889-0.17472l-0.011914-0.0119zm4.0427 0-0.011914 0.0119c0.00858 0.0573 0.012616 0.11609 0.015889 0.17474 0.00121-0.0213 0.00318-0.0421 0.00395-0.0635-0.00214-0.0411-0.00389-0.0824-0.00795-0.12312zm-4.0427 0.50037-0.40904 0.35742c-0.011046 0.01-0.020891 0.019-0.027802 0.0318l0.047655 0.0794 0.4011-0.35345c-0.00566-0.0378-0.00814-0.077-0.011903-0.11517zm4.0427 0c-0.00378 0.0381-0.00627 0.0774-0.011914 0.11517l0.4011 0.35344 0.047655-0.0794c-0.00691-0.0127-0.016762-0.0223-0.027802-0.0318zm-4.4955 0.46464c3.569e-4 7e-3 0.00242 0.0131 0.00395 0.0199-0.00165-7e-3 -0.0034-0.0129-0.00395-0.0199zm4.9482 0c-6.039e-4 7e-3 -0.00231 0.0131-0.00395 0.0199 0.00154-7e-3 0.00357-0.0129 0.00395-0.0199z" enable-background="new" fill="#fff" opacity=".1"/>
 <rect x=".23865" y=".67443" width="7.9894" height=".14526" fill="#fff" opacity=".2"/>
</svg>
