<svg width="31.999998" height="31.999998" version="1.1" viewBox="0 0 8.4666662 8.4666662" xmlns="http://www.w3.org/2000/svg">
    <defs>
        <style id="current-color-scheme" type="text/css">.ColorScheme-Text { color:#5c616c; } .ColorScheme-Highlight { color:#5294e2; } .ColorScheme-ButtonBackground { color:#d3dae3; }</style>
        <filter id="filter906" x="-.011454545" y="-.0126" width="1.0229091" height="1.0252" color-interpolation-filters="sRGB">
            <feGaussianBlur stdDeviation="0.038131099"/>
        </filter>
        <filter id="filter932" x="-.012164811" y="-.011839595" width="1.0243296" height="1.0236792" color-interpolation-filters="sRGB">
            <feGaussianBlur stdDeviation="0.02508095"/>
        </filter>
    </defs>
    <g transform="translate(0,-288.53333)">
        <rect x=".2386466" y="289.47235" width="7.9893732" height="7.2630663" filter="url(#filter906)" opacity=".2"/>
        <rect x=".23864651" y="289.20776" width="7.9893732" height="7.2630668" fill="#2196f3"/>
        <rect x=".4050917" y="289.37283" width="7.6564817" height="6.9329271" fill="#fafafa"/>
        <rect x=".23864651" y="289.20776" width="7.9893732" height="1.3205575" fill="#2196f3"/>
        <path d="m3.7130656 291.12219c-0.053892 6e-3 -0.1013967 0.0498-0.1112467 0.1031l-0.1072898 0.54413c-0.1925257 0.0753-0.3734873 0.17895-0.5322615 0.30605l-0.5283041-0.17874c-0.05488-0.0189-0.1213239 5e-3 -0.1508112 0.0554l-0.5085213 0.88183c-0.028637 0.0507-0.016229 0.12098 0.027929 0.15895l0.4210137 0.36935c-0.014823 0.099-0.023976 0.19867-0.023976 0.30186 0 0.10317 0.00915 0.2028 0.023976 0.30184l-0.4210137 0.36936c-0.044158 0.038-0.056565 0.10823-0.027929 0.15895l0.5085213 0.88183c0.029488 0.05 0.09593 0.0746 0.1508112 0.0556l0.5283041-0.17874c0.1587742 0.1271 0.3397358 0.23053 0.5322615 0.30582l0.1072898 0.54413c0.010865 0.057 0.065132 0.10254 0.1231159 0.10333h1.0168126c0.057984-1e-3 0.1122432-0.0464 0.1231154-0.10333l0.1072899-0.54413c0.1925257-0.0753 0.3734874-0.17872 0.5322615-0.30582l0.5283042 0.17874c0.05488 0.0189 0.1213244-6e-3 0.1508117-0.0556l0.5085208-0.88183c0.028637-0.0507 0.016229-0.12098-0.027929-0.15895l-0.4210139-0.36937c0.014829-0.099 0.023976-0.19867 0.023976-0.30184 0-0.10319-0.00915-0.20282-0.023976-0.30186l0.4210143-0.36935c0.044158-0.038 0.056565-0.10824 0.027929-0.15895l-0.5085208-0.88183c-0.029488-0.05-0.09593-0.0743-0.1508117-0.0554l-0.5283042 0.17874c-0.1587741-0.1271-0.3397358-0.23076-0.5322615-0.30605l-0.1072899-0.54413c-0.010865-0.057-0.065131-0.10231-0.1231154-0.1031h-1.016813c-0.00395-1.2e-4 -0.00791-1.2e-4 -0.011864 0zm0.5201589 1.52511c0.5615785 0 1.0168116 0.45523 1.0168116 1.01681 0 0.56157-0.4552331 1.0168-1.0168116 1.0168-0.561578 0-1.016811-0.45523-1.016811-1.0168 0-0.56158 0.455233-1.01681 1.016811-1.01681z" enable-background="new" filter="url(#filter932)" opacity=".2"/>
        <path d="m3.7130655 290.85763c-0.053892 6e-3 -0.1013968 0.0498-0.1112467 0.1031l-0.1072899 0.54413c-0.1925256 0.0753-0.3734872 0.17895-0.5322614 0.30605l-0.528304-0.17875c-0.05488-0.0189-0.121324 5e-3 -0.1508113 0.0554l-0.5085213 0.88182c-0.028637 0.0507-0.016229 0.12099 0.027928 0.15896l0.4210138 0.36935c-0.014824 0.099-0.023975 0.19868-0.023975 0.30185 0 0.10318 0.00915 0.20281 0.023975 0.30186l-0.4210138 0.36935c-0.044157 0.038-0.056565 0.10824-0.027928 0.15895l0.5085213 0.88183c0.029488 0.05 0.09593 0.0745 0.1508113 0.0556l0.528304-0.17874c0.1587742 0.12709 0.3397358 0.23052 0.5322614 0.30581l0.1072899 0.54413c0.010865 0.057 0.065132 0.10254 0.1231159 0.10333h1.0168126c0.057984-1e-3 0.1122431-0.0464 0.1231153-0.10333l0.1072898-0.54413c0.192526-0.0753 0.3734876-0.17872 0.5322618-0.30581l0.5283041 0.17874c0.05488 0.0189 0.1213244-6e-3 0.1508116-0.0556l0.5085208-0.88183c0.028637-0.0507 0.016229-0.12098-0.027929-0.15895l-0.4210138-0.36938c0.014829-0.099 0.023976-0.19868 0.023976-0.30185 0-0.10318-0.00915-0.20281-0.023976-0.30186l0.4210142-0.36934c0.044157-0.038 0.056565-0.10824 0.027929-0.15896l-0.5085208-0.88181c-0.029487-0.05-0.09593-0.0743-0.1508117-0.0554l-0.5283041 0.17875c-0.1587741-0.12712-0.3397358-0.23077-0.5322617-0.30607l-0.1072898-0.54413c-0.010865-0.057-0.065131-0.10231-0.1231154-0.10309h-1.0168129c-0.00395-1.2e-4 -0.00791-1.2e-4 -0.011865 0zm0.5201588 1.5251c0.5615785 0 1.0168118 0.45523 1.0168118 1.01681s-0.4552333 1.01681-1.0168118 1.01681c-0.5615779 0-1.0168109-0.45523-1.0168109-1.01681s0.455233-1.01681 1.0168109-1.01681z" enable-background="new" fill="#607d8b"/>
        <path d="m3.7131061 290.85762c-0.053881 6e-3 -0.1013467 0.0499-0.1111945 0.10325l-0.107224 0.54407c-0.1924905 0.0753-0.3734035 0.1787-0.5321486 0.30578l-0.5281762-0.17871c-0.054875-0.0189-0.1214259 6e-3 -0.1509077 0.0556l-0.5083198 0.88162c0.00691 0.0127 0.016762 0.0222 0.027802 0.0318l0.019858 0.0159 0.4606644-0.8022c0.029482-0.0499 0.096036-0.0745 0.1509077-0.0556l0.5281762 0.17872c0.158745-0.12708 0.3396578-0.23051 0.5321484-0.30579l0.1072239-0.54405c0.00985-0.0533 0.057312-0.0974 0.1111945-0.10326 0.00395-1.1e-4 0.00795-1.1e-4 0.011914 0h1.0166404c0.057975 7.3e-4 0.1122387 0.0463 0.1231098 0.10326l0.107224 0.54405c0.1924903 0.0753 0.373403 0.17871 0.532147 0.30579l0.5281773-0.17871c0.054869-0.0189 0.1214259 6e-3 0.1509066 0.0556l0.4606661 0.80219 0.019858-0.0159c0.011046-0.01 0.020885-0.019 0.027797-0.0318l-0.5083206-0.88151c-0.029482-0.05-0.096036-0.0745-0.1509066-0.0556l-0.5281707 0.17872c-0.1587435-0.12708-0.3396562-0.23052-0.5321464-0.30579l-0.1072241-0.54406c-0.010865-0.057-0.065135-0.10247-0.1231081-0.10326h-1.0166419c-0.00395-1.1e-4 -0.00795-1.1e-4 -0.011903 0zm-1.949884 1.79501c0.00236 0.015 0.00483 0.0307 0.011903 0.0437-0.00691-0.0127-0.0094-0.0294-0.011903-0.0437zm4.9402367 0c-0.00253 0.0143-0.00499 0.031-0.011903 0.0437 0.0071-0.013 0.00959-0.0287 0.011903-0.0437zm-4.4914865 0.55994c-0.00406 0.0408-0.00575 0.082-0.00795 0.1231 7.137e-4 0.0214 0.0028 0.0422 0.00395 0.0635 0.00329-0.0586 0.0073-0.1174 0.015889-0.17472l-0.011914-0.0119zm4.0427364 0-0.011914 0.0119c0.00858 0.0573 0.012616 0.11609 0.015889 0.17474 0.00121-0.0213 0.00318-0.0421 0.00395-0.0635-0.00214-0.0411-0.00389-0.0824-0.00795-0.12312zm-4.0427364 0.50037-0.4090379 0.35742c-0.011046 0.01-0.020891 0.019-0.027802 0.0318l0.047655 0.0794 0.4010958-0.35345c-0.00566-0.0378-0.00814-0.077-0.011903-0.11517zm4.0427364 0c-0.00378 0.0381-0.00627 0.0774-0.011914 0.11517l0.4010963 0.35344 0.047655-0.0794c-0.00691-0.0127-0.016762-0.0223-0.027802-0.0318zm-4.4954587 0.46464c3.569e-4 7e-3 0.00242 0.0131 0.00395 0.0199-0.00165-7e-3 -0.0034-0.0129-0.00395-0.0199zm4.9481815 0c-6.039e-4 7e-3 -0.00231 0.0131-0.00395 0.0199 0.00154-7e-3 0.00357-0.0129 0.00395-0.0199z" enable-background="new" fill="#fff" opacity=".1"/>
        <rect x=".23864651" y="289.20776" width="7.9893732" height=".1452613" fill="#fff" opacity=".2"/>
    </g>
</svg>
