<?xml version="1.0" encoding="UTF-8" standalone="no"?>
<!-- Created with Inkscape (http://www.inkscape.org/) -->

<svg
   xmlns:dc="http://purl.org/dc/elements/1.1/"
   xmlns:cc="http://creativecommons.org/ns#"
   xmlns:rdf="http://www.w3.org/1999/02/22-rdf-syntax-ns#"
   xmlns:svg="http://www.w3.org/2000/svg"
   xmlns="http://www.w3.org/2000/svg"
   xmlns:sodipodi="http://sodipodi.sourceforge.net/DTD/sodipodi-0.dtd"
   xmlns:inkscape="http://www.inkscape.org/namespaces/inkscape"
   width="32"
   height="32"
   viewBox="0 0 8.4666667 8.4666667"
   version="1.1"
   id="svg8"
   inkscape:version="0.92.1 r15371"
   sodipodi:docname="desktop-profiler.svg"
   inkscape:export-filename="/home/john/Nextcloud/Q4OS Stuff/desktop-profiler.png"
   inkscape:export-xdpi="96"
   inkscape:export-ydpi="96">
  <defs
     id="defs2">
    <style
       id="current-color-scheme"
       type="text/css">
   .ColorScheme-Text { color:#5c616c; } .ColorScheme-Highlight { color:#5294e2; } .ColorScheme-ButtonBackground { color:#d3dae3; }
  </style>
  </defs>
  <sodipodi:namedview
     id="base"
     pagecolor="#ffffff"
     bordercolor="#666666"
     borderopacity="1.0"
     inkscape:pageopacity="0.0"
     inkscape:pageshadow="2"
     inkscape:zoom="7.9844143"
     inkscape:cx="-6.5375443"
     inkscape:cy="21.216845"
     inkscape:document-units="mm"
     inkscape:current-layer="layer1"
     showgrid="false"
     units="px"
     inkscape:window-width="1366"
     inkscape:window-height="703"
     inkscape:window-x="-3"
     inkscape:window-y="-4"
     inkscape:window-maximized="1"
     fit-margin-top="0"
     fit-margin-left="0"
     fit-margin-right="0"
     fit-margin-bottom="0" />
  <metadata
     id="metadata5">
    <rdf:RDF>
      <cc:Work
         rdf:about="">
        <dc:format>image/svg+xml</dc:format>
        <dc:type
           rdf:resource="http://purl.org/dc/dcmitype/StillImage" />
        <dc:title />
      </cc:Work>
    </rdf:RDF>
  </metadata>
  <g
     inkscape:label="Layer 1"
     inkscape:groupmode="layer"
     id="layer1"
     transform="translate(-9.5367434e-7,-288.53332)">
    <rect
       style="opacity:1;fill:#3689e6;fill-opacity:1;stroke:none;stroke-width:0.15208606;stroke-opacity:1"
       id="rect4909"
       width="7.2760429"
       height="6.6145844"
       x="0.59531283"
       y="289.45935" />
    <rect
       style="opacity:1;fill:#fafafa;fill-opacity:1;stroke:none;stroke-width:0.14546081;stroke-opacity:1"
       id="rect4909-5"
       width="6.9728746"
       height="6.3139219"
       x="0.74689698"
       y="289.60971" />
    <rect
       style="opacity:1;fill:#3689e6;fill-opacity:1;stroke:none;stroke-width:0.162783;stroke-opacity:1"
       id="rect4907"
       width="7.2760429"
       height="1.2026516"
       x="0.59531283"
       y="289.45935" />
    <path
       id="path5242"
       d="m 3.6552871,290.98072 -0.051023,0.60969 a 1.8187586,1.8187586 0 0 0 -0.531547,0.30743 l -0.5541535,-0.26092 -0.5786962,1.00238 0.5031306,0.34942 a 1.8187586,1.8187586 0 0 0 -0.02777,0.30678 1.8187586,1.8187586 0 0 0 0.026485,0.30808 l -0.501838,0.34812 0.5786961,1.00238 0.5528611,-0.26028 a 1.8187586,1.8187586 0 0 0 0.532839,0.30549 l 0.04973,0.61164 h 1.1573915 l 0.051023,-0.60971 a 1.8187586,1.8187586 0 0 0 0.5315475,-0.30742 l 0.5541536,0.26094 0.5786955,-1.0024 -0.5031295,-0.3494 a 1.8187586,1.8187586 0 0 0 0.027775,-0.30679 1.8187586,1.8187586 0 0 0 -0.02648,-0.30808 l 0.5018375,-0.34813 -0.5786955,-1.00237 -0.5528616,0.26027 a 1.8187586,1.8187586 0 0 0 -0.5328395,-0.30549 l -0.04973,-0.61163 z m 0.578696,1.65341 a 0.66136677,0.66136677 0 0 1 0.6613666,0.66137 0.66136677,0.66136677 0 0 1 -0.6613666,0.66137 0.66136677,0.66136677 0 0 1 -0.661367,-0.66137 0.66136677,0.66136677 0 0 1 0.661367,-0.66137 z"
       class="ColorScheme-Text"
       style="color:#5c616c;opacity:1;fill:#7e8087;stroke-width:0.33068338"
       inkscape:connector-curvature="0" />
  </g>
</svg>
