<svg version="1" viewBox="0 0 32 32" xmlns="http://www.w3.org/2000/svg">
    <path d="m23.148363 2c-1.896553 0-3.62799 0.8359048-4.764653 1.9609375-0.02686 0.026584-0.03807 0.059116-0.06438 0.085937-0.703558-0.9686299-1.432525-1.0468745-3.013906-1.0039057-1.215552-0.0429688-2.647671 1.1140213-3.342874 2.1289062-0.633708-0.2570637-1.232415-0.061971-1.826254 0.082031-1.3077173 0.4416291-2.5636318 1.649413-2.9540068 2.9667969-0.00624 0.021061 6.02e-5 0.037627-0.00585 0.058594-0.2489298 0.071303-0.5279542 0.059731-0.7531391 0.1660156-1.142711 0.5396758-2.3662708 1.9991275-2.4193976 3.4824215-0.053127 1.483295 0.598443 2.417677 1.1862853 3.087891 0.3736418 0.425998 0.8397584 0.668028 1.2799393 0.957031-0.099151 0.299383-0.2426474 0.570989-0.308278 0.890625h0.00195c-0.6686963 3.254096 0.5985399 6.314485 2.516952 8.732422 1.9184159 2.417937 4.7247889 4.404297 8.1771779 4.404297 4.114902 0 7.39324-3.090325 8.120591-7.283203 0-3.716797-2.996932-6.716797 2.027223-12.800779 0.649657-1.2147802 1.277981-2.548904 0.860445-4.4628926-0.208769-0.9569943-0.877-2.0434507-1.814548-2.6601562-0.937549-0.6167056-1.954994-0.7929688-2.903277-0.7929688z" fill="#40c4ff" stroke-width=".99948841"/>
    <path d="m23.148363 2c-1.896553 0-3.627991 0.8359048-4.764653 1.9609375-0.02686 0.026584-0.03807 0.059117-0.06438 0.085937-0.703562-0.9686294-1.433118-1.0468746-3.014499-1.0039057-1.215552-0.0429689-2.647078 1.1140213-3.342281 2.1289062-0.633708-0.2570637-1.232415-0.0619708-1.826254 0.0820312-1.3077172 0.4416292-2.5636318 1.649413-2.9540068 2.9667969-0.00624 0.021061 6.08e-5 0.037627-0.00585 0.058594-0.2489298 0.071303-0.5279541 0.059731-0.7531391 0.1660156-1.1427109 0.5396758-2.3662707 1.9991273-2.4193976 3.4824213-0.00914 0.255205 0.0084 0.488734 0.037071 0.712891 0.186845-1.380578 1.3137975-2.6906708 2.3823272-3.1953125 0.225185-0.1062846 0.5042093-0.0947126 0.7531351-0.1660156 0.0059142-0.020967-3.902e-4 -0.0375328 0.0058534-0.0585938 0.390375-1.3173839 1.6462896-2.5251677 2.9540068-2.9667969 0.593839-0.144002 1.192546-0.3390949 1.826254-0.0820312 0.695203-1.0148849 2.126729-2.171875 3.342281-2.1289062 1.581381-0.042969 2.310937 0.035276 3.014491 1.0039062 0.02631-0.026821 0.03752-0.059354 0.06438-0.085937 1.13667-1.1250332 2.868108-1.960938 4.764661-1.960938 0.948283 0 1.965728 0.1762632 2.903277 0.7929688 0.937548 0.6167054 1.605779 1.7031619 1.814548 2.6601562 0.05013 0.2298092 0.0836 0.4501753 0.105361 0.6640625 0.046282-0.507234 0.027751-1.0538822-0.105361-1.6640625-0.208769-0.9569943-0.877-2.0434507-1.814548-2.6601562-0.937549-0.6167056-1.954994-0.7929688-2.903277-0.7929688zm-16.9631 14.789062c-0.00635 0.02558-0.018037 0.04803-0.023413 0.07422h0.00195c-0.1524393 0.741822-0.1915956 1.471128-0.1580413 2.1875 0.026159-0.392208 0.076079-0.788645 0.1580413-1.1875h-0.00195c0.06563-0.319637 0.2091261-0.591243 0.3082775-0.890626-0.094301-0.06191-0.1893469-0.123721-0.2848645-0.183594zm17.926956 0.447266c-0.114641 2.113757 0.632383 3.847902 0.821425 5.69336 0.014-0.07142 0.03238-0.140814 0.04487-0.212891 0-1.848382-0.739047-3.519176-0.866301-5.480469z" fill="#fff" opacity=".2" stroke-width=".99948841"/>
    <path d="m23.167969 5c-4.442842 0-5.274737 7-2.775391 7 2.498989 0 7.218418-7 2.775391-7zm-7.552735 1.015625c-2.54102 0.3402147-1.645976 4.897228-0.292968 4.982422 1.352458 0.0852 2.834905-5.3226357 0.292968-4.982422zm-4.095703 1.9902344c-0.12979 0.011259-0.269316 0.0396947-0.417969 0.0898437-2.3788903 0.8025532-0.361969 4.1171899 0.970704 3.8945309 1.250385-0.208415 1.394143-4.1533065-0.552735-3.9843746zm-3.128906 2.9941406c-0.2123451-0.0049-0.4410529 0.042923-0.6855469 0.158203-1.9550668 0.922388 0.6583356 3.152219 1.8085938 2.806641 1.0064781-0.30251 0.3633699-2.930686-1.1230469-2.964844zm9.289063 1.001953c-3.371322-0.061966-7.8177486 1.774926-8.5761724 5.464844-0.8214009 3.993129 3.3825354 9.533203 7.7675784 9.533203 2.157214 0 4.643861-2.116122 5.109375-4.796875 0.15616-0.897876-0.624441-1.212599-1.535157-1.203125-1.162736 0.012096-2.536785 0.571547-2.445312 1.330078 0.133192 1.105063-0.55201 1.679276-1.320312 1.697266-1.048962-0.132005-1.563171-0.760826-1.701172-1.710938-0.187855-2.494909 7.12078-4.27204 6.521484-8.140625-0.219192-1.414932-1.79752-2.136649-3.820312-2.173828z" fill="#fff"/>
</svg>
