<?xml version="1.0" encoding="UTF-8"?>
<svg version="1.1" viewBox="0 0 32 32" xmlns="http://www.w3.org/2000/svg" xmlns:cc="http://creativecommons.org/ns#" xmlns:dc="http://purl.org/dc/elements/1.1/" xmlns:rdf="http://www.w3.org/1999/02/22-rdf-syntax-ns#">
 <metadata>
  <rdf:RDF>
   <cc:Work rdf:about="">
    <dc:format>image/svg+xml</dc:format>
    <dc:type rdf:resource="http://purl.org/dc/dcmitype/StillImage"/>
    <dc:title/>
   </cc:Work>
  </rdf:RDF>
 </metadata>
 <g stroke-width=".5">
  <circle cx="16" cy="17" r="14" opacity=".2"/>
  <circle cx="16" cy="16" r="14" fill="#448aff"/>
  <path d="M 16,2 A 14,14 0 0 0 2,16 14,14 0 0 0 2.01075,16.293 14,14 0 0 1 16,2.5 14,14 0 0 1 29.9895,16.207 14,14 0 0 0 30,16 14,14 0 0 0 16,2 Z" fill="#fff" opacity=".2"/>
 </g>
 <g transform="scale(.5)" fill="#fafafa" stroke-width=".050604">
  <path d="m38.732 33.334-2e-3 2e-3h-1.6503c-0.50098 1.7711-1.8929 3.163-3.6641 3.664v11.74c2.872-0.23815 5.5312-1.2115 7.8105-2.7129l1.2461 1.2461 5.0996-5.0996-1.3105-1.3105c1.3831-2.2192 2.2765-4.7757 2.4941-7.5273h-10.021z"/>
  <path class="st2" d="m26.853 33.336h-11.598c0.64773 8.2131 7.201 14.766 15.414 15.414v-11.705c-1.842-0.46556-3.2994-1.8875-3.8156-3.7093z"/>
  <path class="st3" d="m30.669 26.732v-11.482c-8.1878 0.64773-14.726 7.1605-15.409 15.338h11.553c0.47568-1.8926 1.9634-3.3804 3.856-3.856z"/>
  <path class="st4" d="m37.121 30.588h11.624c-0.67304-8.1523-7.1757-14.655-15.328-15.333v11.518c1.8218 0.51616 3.2437 1.9736 3.7042 3.8156z"/>
 </g>
</svg>
