<svg version="1.1" viewBox="0 0 32 32" xmlns="http://www.w3.org/2000/svg">
    <defs>
        <filter id="filter837" x="-.012" y="-.012" width="1.024" height="1.024" color-interpolation-filters="sRGB">
            <feGaussianBlur stdDeviation="0.14"/>
        </filter>
    </defs>
    <g stroke-width=".5">
        <circle cx="16" cy="17" r="14" filter="url(#filter837)" opacity=".2"/>
        <circle cx="16" cy="16" r="14" fill="#448aff"/>
        <path d="M 16,2 A 14,14 0 0 0 2,16 14,14 0 0 0 2.01075,16.293 14,14 0 0 1 16,2.5 14,14 0 0 1 29.9895,16.207 14,14 0 0 0 30,16 14,14 0 0 0 16,2 Z" fill="#fff" opacity=".2"/>
    </g>
    <g transform="scale(.5)" fill="#fafafa" stroke-width=".05060423">
        <path d="m38.732422 33.333984-2e-3 2e-3h-1.650344c-0.500981 1.771101-1.892914 3.163034-3.664062 3.664016v11.740234c2.872012-0.238149 5.531183-1.211546 7.810546-2.71289l1.246094 1.246094 5.09961-5.09961-1.310547-1.310547c1.383111-2.219224 2.276454-4.775655 2.49414-7.527343h-10.021484z"/>
        <path class="st2" d="m26.853489 33.335952h-11.59849c0.647734 8.213066 7.200982 14.766314 15.414048 15.414048v-11.704758c-1.841994-0.465559-3.299395-1.887538-3.815558-3.70929z"/>
        <path class="st3" d="m30.669047 26.7321v-11.4821c-8.187764 0.647734-14.72583 7.160499-15.408988 15.338142h11.552946c0.47568-1.892598 1.963444-3.380362 3.856042-3.856042z"/>
        <path class="st4" d="m37.121087 30.588142h11.623791c-0.673036-8.152341-7.175679-14.654985-15.328021-15.333082v11.517523c1.821752 0.516163 3.243731 1.973565 3.70423 3.815559z"/>
    </g>
</svg>
