<!-- Created with Inkscape (http://www.inkscape.org/) -->
<svg width="32" height="32" version="1.1" viewBox="0 0 32 32" xmlns="http://www.w3.org/2000/svg">
 <defs>
  <style id="current-color-scheme" type="text/css">.ColorScheme-Text { color:#5c616c; } .ColorScheme-Highlight { color:#5294e2; } .ColorScheme-ButtonBackground { color:#d3dae3; }</style>
  <style type="text/css">.ColorScheme-Text { color:#5c616c; } .ColorScheme-Highlight { color:#5294e2; } .ColorScheme-ButtonBackground { color:#d3dae3; }</style>
 </defs>
 <path d="m15.864 2.2727-12.089 3.4136c-0.165 0.054994-0.27553 0.81495-0.27553 0.98028 0 4.0767 1.1416 8.7933 3.1319 12.933 1.6145 3.3581 4.5178 7.8368 9.1805 10.107 0.05893 0.0275 0.12322 0.04296 0.1875 0.04296 0.06486 0 0.12902-0.01478 0.18834-0.04362 4.6616-2.2697 7.565-6.7486 9.1796-10.107 1.9911-4.1401 3.1321-8.8574 3.1321-12.933 0-0.16532-0.11072-0.92529-0.275-0.98028l-12.089-3.4136c-0.08879-0.029624-0.18327-0.029624-0.27204 0z" color="#5294e2" fill="#78909c" stroke-width="1.7518"/>
 <path d="m16 7.75c-1.6573-2.645e-4 -3.0003 1.3988-3 3.125v1.875h-2v7.5h10v-7.5h-1.999v-1.875c2.54e-4 -1.7262-1.3437-3.1253-3.001-3.125zm0 2.084c0.55206 1.735e-4 0.99983 0.46599 1 1.041v1.875h-2v-1.875c1.67e-4 -0.57503 0.44794-1.0408 1-1.041zm0 4.166c0.62132 0 1.125 0.51607 1.125 1.1533 0 0.42427-0.22306 0.79564-0.55566 0.99609l0.48242 2.4746c0.04047 0.20754-0.095426 0.37598-0.29785 0.37598h-1.5068c-0.2052 0-0.33988-0.16545-0.29883-0.37598l0.48242-2.4746c-0.33261-0.20045-0.55566-0.57182-0.55566-0.99609 0-0.63725 0.50368-1.1533 1.125-1.1533z" color="#5c616c" fill="#f9ce1d" stroke-width="2.0412"/>
</svg>
