<?xml version="1.0" encoding="UTF-8"?>
<svg version="1" viewBox="0 0 32 32" xmlns="http://www.w3.org/2000/svg" xmlns:cc="http://creativecommons.org/ns#" xmlns:dc="http://purl.org/dc/elements/1.1/" xmlns:rdf="http://www.w3.org/1999/02/22-rdf-syntax-ns#">
 <metadata>
  <rdf:RDF>
   <cc:Work rdf:about="">
    <dc:format>image/svg+xml</dc:format>
    <dc:type rdf:resource="http://purl.org/dc/dcmitype/StillImage"/>
    <dc:title/>
   </cc:Work>
  </rdf:RDF>
 </metadata>
 <defs>
  <style id="current-color-scheme" type="text/css">.ColorScheme-Text { color:#5c616c; } .ColorScheme-Highlight { color:#5294e2; } .ColorScheme-ButtonBackground { color:#d3dae3; }</style>
  <filter id="filter852" x="-.00049141" y="-.00042121" width="1.001" height="1.0008" color-interpolation-filters="sRGB">
   <feGaussianBlur stdDeviation="0.0049140901"/>
  </filter>
 </defs>
 <g transform="translate(2.3842e-7 .99954)" filter="url(#filter852)" opacity=".2" style="">
  <circle cx="7.5" cy="13.5" r="3.5" stroke-width="1.1667"/>
  <circle cx="7.5" cy="26.5" r="3.5" stroke-width="1.1667"/>
  <path d="m25.55 2.0034a2.3313 2.2377 0 0 0-2.0716 1.4661l-9.3243 23.493a2.3316 2.238 0 1 0 4.3571 1.5951l9.3243-23.493a2.3313 2.2377 0 0 0-2.2855-3.0612z" color="#000000" color-rendering="auto" dominant-baseline="auto" image-rendering="auto" shape-rendering="auto" solid-color="#000000" style="font-feature-settings:normal;font-variant-alternates:normal;font-variant-caps:normal;font-variant-ligatures:normal;font-variant-numeric:normal;font-variant-position:normal;isolation:auto;mix-blend-mode:normal;shape-padding:0;text-decoration-color:#000000;text-decoration-line:none;text-decoration-style:solid;text-indent:0;text-orientation:mixed;text-transform:none;white-space:normal"/>
 </g>
 <g fill="#555">
  <circle cx="7.5" cy="13.5" r="3.5" stroke-width="1.1667"/>
  <circle cx="7.5" cy="26.5" r="3.5" stroke-width="1.1667"/>
  <path d="m25.55 2.0034a2.3313 2.2377 0 0 0-2.0716 1.4661l-9.3243 23.493a2.3316 2.238 0 1 0 4.3571 1.5951l9.3243-23.493a2.3313 2.2377 0 0 0-2.2855-3.0612z" color="#000000" color-rendering="auto" dominant-baseline="auto" image-rendering="auto" shape-rendering="auto" solid-color="#000000" style="font-feature-settings:normal;font-variant-alternates:normal;font-variant-caps:normal;font-variant-ligatures:normal;font-variant-numeric:normal;font-variant-position:normal;isolation:auto;mix-blend-mode:normal;shape-padding:0;text-decoration-color:#000000;text-decoration-line:none;text-decoration-style:solid;text-indent:0;text-orientation:mixed;text-transform:none;white-space:normal"/>
 </g>
</svg>
