<svg version="1" viewBox="0 0 32 32" xmlns="http://www.w3.org/2000/svg">
    <defs>
        <style id="current-color-scheme" type="text/css">.ColorScheme-Text { color:#5c616c; } .ColorScheme-Highlight { color:#5294e2; } .ColorScheme-ButtonBackground { color:#d3dae3; }</style>
        <filter id="filter852" x="-.012999954" y="-.011142891" width="1.0259999" height="1.0222858" color-interpolation-filters="sRGB">
            <feGaussianBlur stdDeviation="0.13000022"/>
        </filter>
    </defs>
    <g transform="translate(2.3841858e-7 .99954139)" filter="url(#filter852)" opacity=".2">
        <circle cx="7.4999714" cy="13.500029" r="3.4999716" stroke-width="1.166657"/>
        <circle cx="7.4999714" cy="26.500029" r="3.4999716" stroke-width="1.166657"/>
        <path d="m25.549754 2.0034152a2.3313003 2.2376772 0 0 0-2.071551 1.4661439l-9.324269 23.493261a2.3316214 2.2379854 0 1 0 4.357092 1.595058l9.32427-23.493259a2.3313003 2.2376772 0 0 0-2.285542-3.0612039z" color="#000000" color-rendering="auto" dominant-baseline="auto" image-rendering="auto" shape-rendering="auto" solid-color="#000000" style="font-feature-settings:normal;font-variant-alternates:normal;font-variant-caps:normal;font-variant-ligatures:normal;font-variant-numeric:normal;font-variant-position:normal;isolation:auto;mix-blend-mode:normal;shape-padding:0;text-decoration-color:#000000;text-decoration-line:none;text-decoration-style:solid;text-indent:0;text-orientation:mixed;text-transform:none;white-space:normal"/>
    </g>
    <g fill="#555">
        <circle cx="7.4999714" cy="13.500029" r="3.4999716" stroke-width="1.166657"/>
        <circle cx="7.4999714" cy="26.500029" r="3.4999716" stroke-width="1.166657"/>
        <path d="m25.549754 2.0034152a2.3313003 2.2376772 0 0 0-2.071551 1.4661439l-9.324269 23.493261a2.3316214 2.2379854 0 1 0 4.357092 1.595058l9.32427-23.493259a2.3313003 2.2376772 0 0 0-2.285542-3.0612038z" color="#000000" color-rendering="auto" dominant-baseline="auto" image-rendering="auto" shape-rendering="auto" solid-color="#000000" style="font-feature-settings:normal;font-variant-alternates:normal;font-variant-caps:normal;font-variant-ligatures:normal;font-variant-numeric:normal;font-variant-position:normal;isolation:auto;mix-blend-mode:normal;shape-padding:0;text-decoration-color:#000000;text-decoration-line:none;text-decoration-style:solid;text-indent:0;text-orientation:mixed;text-transform:none;white-space:normal"/>
    </g>
</svg>
