<svg width="32" height="32" version="1.1" viewBox="0 0 8.4666667 8.4666667" xmlns="http://www.w3.org/2000/svg" xmlns:xlink="http://www.w3.org/1999/xlink">
    <defs>
        <linearGradient id="linearGradient936">
            <stop stop-color="#0cf" offset="0"/>
            <stop stop-color="#2a7fff" offset="1"/>
        </linearGradient>
        <linearGradient id="linearGradient898">
            <stop stop-color="#2a7fff" offset="0"/>
            <stop stop-color="#0cf" offset="1"/>
        </linearGradient>
        <linearGradient id="linearGradient995" x1="66.951469" x2="66.335762" y1="104.46095" y2="109.66759" gradientUnits="userSpaceOnUse">
            <stop stop-color="#2a7fff" offset="0"/>
            <stop stop-color="#2a7fff" offset="1"/>
        </linearGradient>
        <linearGradient id="linearGradient854" x1="77.166962" x2="64.371704" y1="115.71481" y2="112.00438" gradientUnits="userSpaceOnUse" xlink:href="#linearGradient936"/>
        <linearGradient id="linearGradient890" x1="62.960659" x2="77.488457" y1="115.88342" y2="107.31376" gradientUnits="userSpaceOnUse">
            <stop stop-color="#0cf" offset="0"/>
            <stop stop-color="#0cf" offset="1"/>
        </linearGradient>
        <linearGradient id="linearGradient900" x1="68.228661" x2="68.16433" y1="112.73174" y2="118.55463" gradientUnits="userSpaceOnUse" xlink:href="#linearGradient898"/>
        <linearGradient id="linearGradient908" x1="68.7071" x2="75.81916" y1="113.06454" y2="117.91264" gradientUnits="userSpaceOnUse" xlink:href="#linearGradient898"/>
        <linearGradient id="linearGradient930" x1="77.401382" x2="68.670082" y1="106.36805" y2="120.35797" gradientUnits="userSpaceOnUse">
            <stop stop-color="#0cf" offset="0"/>
            <stop stop-color="#06f" offset="1"/>
        </linearGradient>
        <linearGradient id="linearGradient938" x1="61.163261" x2="64.927658" y1="105.1096" y2="109.0449" gradientUnits="userSpaceOnUse" xlink:href="#linearGradient936"/>
        <linearGradient id="linearGradient942" x1="63.36673" x2="71.135635" y1="106.86487" y2="104.88973" gradientUnits="userSpaceOnUse">
            <stop stop-color="#2ad4ff" offset="0"/>
            <stop stop-color="#2a7fff" offset="1"/>
        </linearGradient>
        <filter id="filter1309" x="-.012" y="-.012" width="1.024" height="1.024" color-interpolation-filters="sRGB">
            <feGaussianBlur stdDeviation="0.0396875"/>
        </filter>
    </defs>
    <circle cx="4.2333336" cy="4.4979167" r="3.96875" filter="url(#filter1309)" opacity=".2" style="paint-order:normal"/>
    <circle cx="4.2333331" cy="4.2333336" r="3.96875" fill="#1a1a1a" style="paint-order:normal"/>
    <g transform="matrix(.03164234 0 0 .03164234 4.0939186 -4.9459565)">
        <g transform="translate(-101.66923,130.47716)">
            <g transform="matrix(10.185345,0,0,10.412473,-593.68883,-1032.1515)">
                <path d="m65.428762 109.91943c-0.79474-2.58086-5.285936-1.9546-6.036655-2.01063 0.842596-0.40914 1.604061-0.74639 3.341118-1.97728 3.346321-2.37122 6.889189-1.85409 8.663362-0.91242-4.85033 0.18036-3.926305 2.76518-3.211896 4.12714-0.908518 0.25814-2.342683 0.64782-2.755929 0.77319z" fill="url(#linearGradient938)"/>
                <path d="m77.401381 106.36805c-1.746608 2.25673-4.650524 5.30573-7.828693 5.70736-3.17817 0.40163-6.208039-0.0433-6.909882 2.27202-0.64633 2.1322 1.626883 4.12293 3.984589 3.64314 2.518769-0.51257 1.974803-3.30514 0.597137-5.20681 1.046467-0.0587 0.851808-0.0435 2.626388-0.131 2.645109 2.20549 3.521857 2.8343 8.143023 6.05209-3.561162-0.36484-4.857257-0.69982-7.41144-2.19429 0.661668 1.62462 2.075907 5.31186 2.382248 8.17285-1.47315-2.07065-2.031632-2.83161-4.314667-4.32544-2.924418-1.9135-5.29286-1.97828-6.663677-4.79745-1.367857-2.81308 0.442686-4.83945 3.682518-5.71701 4.629957-1.2541 8.619281-2.4431 11.712456-3.47546z" fill="url(#linearGradient854)"/>
                <path d="m67.244532 112.78376c1.046467-0.0587 0.851808-0.0435 2.626388-0.131 2.645109 2.20549 3.521857 2.8343 8.143023 6.05209-4.644893-0.32503-8.159344-1.66506-10.769411-5.92109z" fill="url(#linearGradient908)"/>
                <path d="m77.401381 106.36805c-1.746608 2.25673-4.650524 5.30573-7.828693 5.70736-3.17817 0.40163-6.208039-0.0433-6.909882 2.27202-0.64633 2.1322 1.626883 4.12293 3.984589 3.64314 2.518769-0.51257 1.974803-3.30514 0.597137-5.20681 1.046467-0.0587 0.851808-0.0435 2.626388-0.131 2.645109 2.20549 3.521857 2.8343 8.143023 6.05209-3.561162-0.36484-4.857257-0.69982-7.41144-2.19429 0.661668 1.62462 2.075907 5.31186 2.382248 8.17285-1.47315-2.07065-2.031632-2.83161-4.314667-4.32544-2.924418-1.9135-5.29286-1.97828-6.663677-4.79745-1.367857-2.81308 0.442686-4.83945 3.682518-5.71701 4.629957-1.2541 8.619281-2.4431 11.712456-3.47546z" fill="url(#linearGradient930)"/>
                <path d="m67.244532 112.78376c1.046467-0.0587 0.851808-0.0435 2.626388-0.131 2.645109 2.20549 3.521857 2.8343 8.143023 6.05209-4.644893-0.32503-8.159344-1.66506-10.769411-5.92109z" fill="url(#linearGradient900)"/>
                <path d="m59.392107 107.9088c0.842596-0.40914 1.604061-0.74639 3.341118-1.97728 3.346321-2.37122 6.889189-1.85409 8.663362-0.91242-4.85033 0.18036-4.225378 1.1257-4.243278 1.86679-3.222572-0.66446-4.163494 0.2396-7.761202 1.02291z" fill="url(#linearGradient942)"/>
                <path d="m71.396587 105.0191c-4.85033 0.18036-3.926305 2.76518-3.211896 4.12714-0.566006 0.16082-1.179475 0.34403-1.936109 0.53991-3.052938-5.32116 2.656266-6.01341 5.148005-4.66705z" fill="url(#linearGradient995)"/>
                <path d="m62.879799 116.88614c-2.373486-2.98949-1.93525-5.72962 2.712379-7.1533 4.586439-1.40494 8.716028-2.33243 11.809203-3.36479-8.347338 3.11114-18.799839 5.18999-14.521582 10.51809z" fill="url(#linearGradient890)"/>
            </g>
        </g>
    </g>
</svg>
