<?xml version="1.0" encoding="UTF-8"?>
<svg width="32" height="32" version="1.1" viewBox="0 0 8.4667 8.4667" xmlns="http://www.w3.org/2000/svg" xmlns:cc="http://creativecommons.org/ns#" xmlns:dc="http://purl.org/dc/elements/1.1/" xmlns:rdf="http://www.w3.org/1999/02/22-rdf-syntax-ns#" xmlns:xlink="http://www.w3.org/1999/xlink">
 <metadata>
  <rdf:RDF>
   <cc:Work rdf:about="">
    <dc:format>image/svg+xml</dc:format>
    <dc:type rdf:resource="http://purl.org/dc/dcmitype/StillImage"/>
    <dc:title/>
   </cc:Work>
  </rdf:RDF>
 </metadata>
 <defs>
  <linearGradient id="linearGradient936">
   <stop stop-color="#0cf" offset="0"/>
   <stop stop-color="#2a7fff" offset="1"/>
  </linearGradient>
  <linearGradient id="linearGradient898">
   <stop stop-color="#2a7fff" offset="0"/>
   <stop stop-color="#0cf" offset="1"/>
  </linearGradient>
  <linearGradient id="linearGradient995" x1="66.951" x2="66.336" y1="104.46" y2="109.67" gradientUnits="userSpaceOnUse">
   <stop stop-color="#2a7fff" offset="0"/>
   <stop stop-color="#2a7fff" offset="1"/>
  </linearGradient>
  <linearGradient id="linearGradient854" x1="77.167" x2="64.372" y1="115.71" y2="112" gradientUnits="userSpaceOnUse" xlink:href="#linearGradient936"/>
  <linearGradient id="linearGradient890" x1="62.961" x2="77.488" y1="115.88" y2="107.31" gradientUnits="userSpaceOnUse">
   <stop stop-color="#0cf" offset="0"/>
   <stop stop-color="#0cf" offset="1"/>
  </linearGradient>
  <linearGradient id="linearGradient900" x1="68.229" x2="68.164" y1="112.73" y2="118.55" gradientUnits="userSpaceOnUse" xlink:href="#linearGradient898"/>
  <linearGradient id="linearGradient908" x1="68.707" x2="75.819" y1="113.06" y2="117.91" gradientUnits="userSpaceOnUse" xlink:href="#linearGradient898"/>
  <linearGradient id="linearGradient930" x1="77.401" x2="68.67" y1="106.37" y2="120.36" gradientUnits="userSpaceOnUse">
   <stop stop-color="#0cf" offset="0"/>
   <stop stop-color="#06f" offset="1"/>
  </linearGradient>
  <linearGradient id="linearGradient938" x1="61.163" x2="64.928" y1="105.11" y2="109.04" gradientUnits="userSpaceOnUse" xlink:href="#linearGradient936"/>
  <linearGradient id="linearGradient942" x1="63.367" x2="71.136" y1="106.86" y2="104.89" gradientUnits="userSpaceOnUse">
   <stop stop-color="#2ad4ff" offset="0"/>
   <stop stop-color="#2a7fff" offset="1"/>
  </linearGradient>
 </defs>
 <circle cx="4.2333" cy="4.2333" r="3.9688" fill="#1a1a1a" style="paint-order:normal"/>
 <g transform="matrix(.031642 0 0 .031642 4.0939 -4.946)">
  <g transform="translate(-101.67 130.48)">
   <g transform="matrix(10.185 0 0 10.412 -593.69 -1032.2)">
    <path d="m65.429 109.92c-0.79474-2.5809-5.2859-1.9546-6.0367-2.0106 0.8426-0.40914 1.6041-0.74639 3.3411-1.9773 3.3463-2.3712 6.8892-1.8541 8.6634-0.91242-4.8503 0.18036-3.9263 2.7652-3.2119 4.1271-0.90852 0.25814-2.3427 0.64782-2.7559 0.77319z" fill="url(#linearGradient938)"/>
    <path d="m77.401 106.37c-1.7466 2.2567-4.6505 5.3057-7.8287 5.7074-3.1782 0.40163-6.208-0.0433-6.9099 2.272-0.64633 2.1322 1.6269 4.1229 3.9846 3.6431 2.5188-0.51257 1.9748-3.3051 0.59714-5.2068 1.0465-0.0587 0.85181-0.0435 2.6264-0.131 2.6451 2.2055 3.5219 2.8343 8.143 6.0521-3.5612-0.36484-4.8573-0.69982-7.4114-2.1943 0.66167 1.6246 2.0759 5.3119 2.3822 8.1728-1.4732-2.0706-2.0316-2.8316-4.3147-4.3254-2.9244-1.9135-5.2929-1.9783-6.6637-4.7974-1.3679-2.8131 0.44269-4.8394 3.6825-5.717 4.63-1.2541 8.6193-2.4431 11.712-3.4755z" fill="url(#linearGradient854)"/>
    <path d="m67.245 112.78c1.0465-0.0587 0.85181-0.0435 2.6264-0.131 2.6451 2.2055 3.5219 2.8343 8.143 6.0521-4.6449-0.32503-8.1593-1.6651-10.769-5.9211z" fill="url(#linearGradient908)"/>
    <path d="m77.401 106.37c-1.7466 2.2567-4.6505 5.3057-7.8287 5.7074-3.1782 0.40163-6.208-0.0433-6.9099 2.272-0.64633 2.1322 1.6269 4.1229 3.9846 3.6431 2.5188-0.51257 1.9748-3.3051 0.59714-5.2068 1.0465-0.0587 0.85181-0.0435 2.6264-0.131 2.6451 2.2055 3.5219 2.8343 8.143 6.0521-3.5612-0.36484-4.8573-0.69982-7.4114-2.1943 0.66167 1.6246 2.0759 5.3119 2.3822 8.1728-1.4732-2.0706-2.0316-2.8316-4.3147-4.3254-2.9244-1.9135-5.2929-1.9783-6.6637-4.7974-1.3679-2.8131 0.44269-4.8394 3.6825-5.717 4.63-1.2541 8.6193-2.4431 11.712-3.4755z" fill="url(#linearGradient930)"/>
    <path d="m67.245 112.78c1.0465-0.0587 0.85181-0.0435 2.6264-0.131 2.6451 2.2055 3.5219 2.8343 8.143 6.0521-4.6449-0.32503-8.1593-1.6651-10.769-5.9211z" fill="url(#linearGradient900)"/>
    <path d="m59.392 107.91c0.8426-0.40914 1.6041-0.74639 3.3411-1.9773 3.3463-2.3712 6.8892-1.8541 8.6634-0.91242-4.8503 0.18036-4.2254 1.1257-4.2433 1.8668-3.2226-0.66446-4.1635 0.2396-7.7612 1.0229z" fill="url(#linearGradient942)"/>
    <path d="m71.397 105.02c-4.8503 0.18036-3.9263 2.7652-3.2119 4.1271-0.56601 0.16082-1.1795 0.34403-1.9361 0.53991-3.0529-5.3212 2.6563-6.0134 5.148-4.667z" fill="url(#linearGradient995)"/>
    <path d="m62.88 116.89c-2.3735-2.9895-1.9352-5.7296 2.7124-7.1533 4.5864-1.4049 8.716-2.3324 11.809-3.3648-8.3473 3.1111-18.8 5.19-14.522 10.518z" fill="url(#linearGradient890)"/>
   </g>
  </g>
 </g>
</svg>
