<!-- Created with Inkscape (http://www.inkscape.org/) -->
<svg width="32" height="32" version="1.1" viewBox="0 0 8.4667 8.4667" xmlns="http://www.w3.org/2000/svg">
 <defs>
  <style id="current-color-scheme" type="text/css">.ColorScheme-Text { color:#5c616c; } .ColorScheme-Highlight { color:#5294e2; } .ColorScheme-ButtonBackground { color:#d3dae3; }</style>
  <style type="text/css">.ColorScheme-Text { color:#5c616c; } .ColorScheme-Highlight { color:#5294e2; } .ColorScheme-ButtonBackground { color:#d3dae3; }</style>
 </defs>
 <g transform="translate(0 -288.53)">
  <rect x=".52917" y="289.36" width="6.7036" height="6.0943" fill="#2196f3"/>
  <rect x=".66882" y="289.5" width="6.4243" height="5.8172" fill="#fafafa"/>
  <rect x=".52917" y="289.36" width="6.7036" height="1.108" fill="#2196f3"/>
  <path d="m3.2409 290.48c-0.013507 9.2e-4 -0.026552 7e-3 -0.036695 0.0176l-0.46946 0.46938c-0.019738 0.0198-0.023456 0.0505-0.0089 0.0744l0.54963 0.90525c-0.097484 0.1639-0.17562 0.3406-0.23146 0.527l-1.009 0.20989c-0.028075 6e-3 -0.048301 0.0307-0.048301 0.0595v0.66382c0 0.0281 0.019207 0.0524 0.046258 0.0589l0.97937 0.23938c0.052227 0.2159 0.13316 0.42056 0.24012 0.60866l-0.56688 0.86447c-0.015816 0.0242-0.012509 0.0559 0.00792 0.0764l0.46929 0.46938c0.019738 0.0196 0.050552 0.0235 0.07462 9e-3l0.88832-0.5395c0.17449 0.10069 0.36268 0.17992 0.56157 0.23367l0.20727 0.99654c0.00583 0.0283 0.030793 0.0483 0.059418 0.0483h0.66389c0.027912 0 0.052266-0.0191 0.058927-0.0464l0.24413-0.99858c0.20502-0.0554 0.39892-0.1378 0.57767-0.24307l0.87541 0.574c0.024071 0.0159 0.055906 0.0126 0.076336-7e-3l0.46946-0.46939c0.019857-0.0198 0.023414-0.0506 0.00883-0.0744l-0.59751-0.75685c-0.26824-0.36794-0.23498-0.33025-0.33291-0.4348-0.3147 0.61592-0.95497 1.0378-1.6943 1.0378-1.0505 0-1.9021-0.85168-1.9021-1.9022 0-0.77281 0.46094-1.4374 1.1226-1.7352v-0.49071c-0.12043 0.0421-0.23685 0.0929-0.34744 0.15317-8.11e-5 -8e-5 -1.672e-4 -2.4e-4 -4.837e-4 -4.6e-4l-0.89601-0.58819c-0.012067-8e-3 -0.026053-0.0111-0.039557-0.01z" fill="#b0bec5" stroke-width=".073558"/>
  <g stroke-width=".098385">
   <ellipse cx="5.3317" cy="293.13" rx="2.0169" ry="2.0169" fill="#206b00"/>
   <ellipse cx="5.0853" cy="293.64" rx="1.2298" ry="1.2298" fill="#fff"/>
   <path d="m4.0031 293.57 1.1806 1.0822 0.59035-1.6234z" fill="#1a1a1a"/>
  </g>
 </g>
</svg>
