<?xml version="1.0" encoding="UTF-8" standalone="no"?>
<!-- Created with Inkscape (http://www.inkscape.org/) -->

<svg
   xmlns:dc="http://purl.org/dc/elements/1.1/"
   xmlns:cc="http://creativecommons.org/ns#"
   xmlns:rdf="http://www.w3.org/1999/02/22-rdf-syntax-ns#"
   xmlns:svg="http://www.w3.org/2000/svg"
   xmlns="http://www.w3.org/2000/svg"
   xmlns:sodipodi="http://sodipodi.sourceforge.net/DTD/sodipodi-0.dtd"
   xmlns:inkscape="http://www.inkscape.org/namespaces/inkscape"
   width="31.999998"
   height="31.999998"
   viewBox="0 0 8.4666662 8.4666668"
   version="1.1"
   id="svg8"
   inkscape:version="0.92.4 (5da689c313, 2019-01-14)"
   sodipodi:docname="kdevdesigner.svg"
   inkscape:export-filename="/home/john/Nextcloud/Q4OS Stuff/desktop-profiler.png"
   inkscape:export-xdpi="96"
   inkscape:export-ydpi="96">
  <defs
     id="defs2">
    <style
       id="current-color-scheme"
       type="text/css">
   .ColorScheme-Text { color:#5c616c; } .ColorScheme-Highlight { color:#5294e2; } .ColorScheme-ButtonBackground { color:#d3dae3; }
  </style>
    <style
       type="text/css"
       id="current-color-scheme-3">
   .ColorScheme-Text { color:#5c616c; } .ColorScheme-Highlight { color:#5294e2; } .ColorScheme-ButtonBackground { color:#d3dae3; }
  </style>
  </defs>
  <sodipodi:namedview
     id="base"
     pagecolor="#ffffff"
     bordercolor="#666666"
     borderopacity="1.0"
     inkscape:pageopacity="0.0"
     inkscape:pageshadow="2"
     inkscape:zoom="16.093751"
     inkscape:cx="15.999999"
     inkscape:cy="15.999999"
     inkscape:document-units="mm"
     inkscape:current-layer="layer1"
     showgrid="false"
     units="px"
     inkscape:window-width="1362"
     inkscape:window-height="695"
     inkscape:window-x="0"
     inkscape:window-y="0"
     inkscape:window-maximized="1"
     fit-margin-top="0"
     fit-margin-left="0"
     fit-margin-right="0"
     fit-margin-bottom="0" />
  <metadata
     id="metadata5">
    <rdf:RDF>
      <cc:Work
         rdf:about="">
        <dc:format>image/svg+xml</dc:format>
        <dc:type
           rdf:resource="http://purl.org/dc/dcmitype/StillImage" />
        <dc:title></dc:title>
      </cc:Work>
    </rdf:RDF>
  </metadata>
  <g
     inkscape:label="Layer 1"
     inkscape:groupmode="layer"
     id="layer1"
     transform="translate(0,-288.53333)">
    <rect
       style="opacity:1;fill:#2196f3;fill-opacity:1;stroke:none;stroke-width:0.15208606;stroke-opacity:1"
       id="rect4909-1"
       width="7.2760429"
       height="6.6145849"
       x="0.21563545"
       y="288.96262" />
    <rect
       style="opacity:1;fill:#fafafa;fill-opacity:1;stroke:none;stroke-width:0.14546083;stroke-opacity:1"
       id="rect4909-5-2"
       width="6.9728737"
       height="6.3139219"
       x="0.36721957"
       y="289.11295" />
    <rect
       style="opacity:1;fill:#2196f3;fill-opacity:1;stroke:none;stroke-width:0.16278301;stroke-opacity:1"
       id="rect4907-7"
       width="7.2760429"
       height="1.2026516"
       x="0.21563545"
       y="288.96262" />
    <rect
       style="opacity:0.2;fill:#ffffff;fill-opacity:1;stroke:none;stroke-width:0.05398902;stroke-opacity:1"
       id="rect4907-6"
       width="7.2760429"
       height="0.13229166"
       x="0.21563545"
       y="288.96262" />
    <path
       style="fill:#cfd8dc;fill-opacity:1;stroke-width:0.07983842"
       d="m 3.1588997,290.17942 c -0.01466,0.001 -0.028819,0.008 -0.039829,0.0191 l -0.5095473,0.50945 c -0.021423,0.0215 -0.025459,0.0548 -0.00966,0.0808 l 0.5965704,0.98254 c -0.1058081,0.17789 -0.1906131,0.36968 -0.2512238,0.572 l -1.095207,0.22781 c -0.030472,0.006 -0.052426,0.0333 -0.052426,0.0646 v 0.72049 c 0,0.0305 0.020847,0.0569 0.050208,0.0639 l 1.0630046,0.25982 c 0.056687,0.23433 0.14453,0.45646 0.2606292,0.66062 l -0.6152885,0.93828 c -0.017167,0.0263 -0.013577,0.0607 0.0086,0.0829 l 0.5093688,0.50946 c 0.021423,0.0213 0.054869,0.0255 0.080992,0.01 l 0.9641818,-0.58557 c 0.1893943,0.10929 0.3936477,0.19529 0.6095225,0.25362 l 0.224966,1.08163 c 0.00633,0.0307 0.033423,0.0524 0.064492,0.0524 h 0.7205871 c 0.030295,0 0.056729,-0.0207 0.063959,-0.0504 l 0.2649735,-1.08384 c 0.2225275,-0.0601 0.432991,-0.14957 0.6269974,-0.26383 l 0.950166,0.62301 c 0.026127,0.0172 0.06068,0.0137 0.082855,-0.008 l 0.509548,-0.50946 c 0.021553,-0.0215 0.025413,-0.0549 0.00958,-0.0808 l -0.6485307,-0.82147 c -0.291146,-0.39935 -0.2550487,-0.35844 -0.3613373,-0.47192 -0.3415747,0.66851 -1.0365236,1.12643 -1.8390331,1.12643 -1.1401581,0 -2.0645327,-0.9244 -2.0645327,-2.06462 0,-0.83879 0.5002998,-1.56015 1.2185126,-1.8833 v -0.5326 c -0.1307133,0.0457 -0.2570795,0.10086 -0.3771045,0.16624 -8.8e-5,-8e-5 -1.815e-4,-2.6e-4 -5.25e-4,-5e-4 L 3.2018452,290.1898 c -0.013097,-0.009 -0.028278,-0.012 -0.042935,-0.0105 z"
       id="path5692_2_-3"
       inkscape:connector-curvature="0"
       sodipodi:nodetypes="cccccccssccccccccccsscccccccccssccccccc" />
    <circle
       style="opacity:1;fill:#206b00;fill-opacity:1;stroke-width:0.10678552"
       id="path5219-3"
       cx="5.4282799"
       cy="293.05243"
       r="2.1891029" />
    <path
       inkscape:connector-curvature="0"
       style="opacity:0.2;fill:#ffffff;stroke-width:0.07818196"
       d="m 5.4282851,290.86332 a 2.1890948,2.1890948 0 0 0 -2.1890947,2.1891 2.1890948,2.1890948 0 0 0 0.00165,0.0459 2.1890948,2.1890948 0 0 1 2.1874142,-2.15673 2.1890948,2.1890948 0 0 1 2.1874535,2.14328 2.1890948,2.1890948 0 0 0 0.00167,-0.0324 2.1890948,2.1890948 0 0 0 -2.1890949,-2.1891 z"
       id="path5512-1" />
    <ellipse
       style="opacity:1;fill:#ffffff;fill-opacity:1;stroke-width:0.10678552"
       id="path5219-3-6"
       cx="5.1608396"
       cy="293.616"
       rx="1.3348188"
       ry="1.3348191" />
    <path
       style="fill:#1a1a1a;fill-opacity:1;stroke-width:0.10678552"
       d="m 3.986199,293.5359 1.2813811,1.17465 0.6407581,-1.76197 z"
       id="path4661"
       inkscape:connector-curvature="0"
       sodipodi:nodetypes="cccc" />
  </g>
</svg>
