<svg width="32" height="32" version="1" xmlns="http://www.w3.org/2000/svg">
 <rect x="2.5" y="6.5" width="27" height="18.5" rx="1.35" ry="1.3214" fill="#78909c" stroke-width=".66782"/>
 <g fill="#fafafa">
  <rect x="8.5" y="9.4167" width="3" height="3" ry=".5"/>
  <rect x="12.5" y="9.4167" width="3" height="3" ry=".5"/>
  <rect x="16.5" y="9.4167" width="3" height="3" ry=".5"/>
  <rect x="20.5" y="9.4167" width="3" height="3" ry=".5"/>
  <rect x="24.5" y="9.4167" width="3" height="3" ry=".5"/>
  <rect x="4.5" y="14.917" width="3" height="3" ry=".5"/>
  <rect x="8.5" y="14.917" width="3" height="3" ry=".5"/>
  <rect x="12.5" y="14.917" width="3" height="3" ry=".5"/>
  <rect x="16.5" y="14.917" width="3" height="3" ry=".5"/>
  <rect x="20.5" y="14.917" width="3" height="3" ry=".5"/>
 </g>
 <g transform="scale(.5)" fill="#fafafa" stroke="#d50000">
  <rect x="9" y="18.833" width="6" height="6" ry="1"/>
  <rect x="49" y="29.833" width="6" height="6" ry="1"/>
 </g>
 <rect x="8.5" y="19.417" width="15" height="3" rx="0" ry=".5" fill="#fafafa"/>
 <g fill="none" stroke="#d50000" stroke-width=".5">
  <path d="m26.25 18v11"/>
  <path d="m5.5 28.75h21"/>
  <path d="m5.75 12.5v16.5"/>
 </g>
</svg>
