<?xml version="1.0" encoding="UTF-8"?>
<svg version="1" viewBox="0 0 32 32" xmlns="http://www.w3.org/2000/svg" xmlns:cc="http://creativecommons.org/ns#" xmlns:dc="http://purl.org/dc/elements/1.1/" xmlns:rdf="http://www.w3.org/1999/02/22-rdf-syntax-ns#">
 <metadata>
  <rdf:RDF>
   <cc:Work rdf:about="">
    <dc:format>image/svg+xml</dc:format>
    <dc:type rdf:resource="http://purl.org/dc/dcmitype/StillImage"/>
    <dc:title/>
   </cc:Work>
  </rdf:RDF>
 </metadata>
 <defs>
  <filter id="filter1035" x="-.00015824" y="-.00079121" width="1.0003" height="1.0016" color-interpolation-filters="sRGB">
   <feGaussianBlur stdDeviation="0.00098901099"/>
  </filter>
  <filter id="filter1039" x="-.00082174" y="-.0022235" width="1.0016" height="1.0044" color-interpolation-filters="sRGB">
   <feGaussianBlur stdDeviation="0.015749999"/>
  </filter>
  <filter id="filter1110" x="-5.4306e-10" y="-7.9258e-10" width="1" height="1" color-interpolation-filters="sRGB">
   <feGaussianBlur stdDeviation="6.1094761e-09"/>
  </filter>
 </defs>
 <rect x="2.5" y="7.5" width="27" height="18.5" rx="1.35" ry="1.3214" filter="url(#filter1110)" opacity=".2" stroke-width=".66782" style=""/>
 <g transform="matrix(.5 0 0 .5 -4.8842e-7 .58333)" stroke-width="1.3356">
  <rect x="5" y="11.833" width="54" height="37" rx="2.7" ry="2.6429" fill="#78909c"/>
  <path d="m7.7 11.833c-1.4958 0-2.7 1.1787-2.7 2.6429v1.3214c0-1.4641 1.2042-2.6429 2.7-2.6429h48.6c1.4958 0 2.7 1.1787 2.7 2.6429v-1.3214c0-1.4641-1.2042-2.6429-2.7-2.6429z" fill="#fff" opacity=".1"/>
 </g>
 <rect x="8.5" y="10.417" width="3" height="3" ry=".5" opacity=".2"/>
 <rect x="12.5" y="10.417" width="3" height="3" ry=".5" opacity=".2"/>
 <rect x="16.5" y="10.417" width="3" height="3" ry=".5" opacity=".2"/>
 <rect x="20.5" y="10.417" width="3" height="3" ry=".5" opacity=".2"/>
 <rect x="24.5" y="10.417" width="3" height="3" ry=".5" opacity=".2"/>
 <rect x="4.5" y="15.917" width="3" height="3" ry=".5" opacity=".2"/>
 <rect x="8.5" y="15.917" width="3" height="3" ry=".5" opacity=".2"/>
 <rect x="12.5" y="15.917" width="3" height="3" ry=".5" opacity=".2"/>
 <rect x="16.5" y="15.917" width="3" height="3" ry=".5" opacity=".2"/>
 <rect x="20.5" y="15.917" width="3" height="3" ry=".5" opacity=".2"/>
 <rect transform="matrix(.5 0 0 .5 0 1.0003)" x="9" y="18.833" width="6" height="6" ry="1" filter="url(#filter1039)" opacity=".2"/>
 <rect transform="matrix(.5 0 0 .5 0 1.0003)" x="49" y="29.833" width="6" height="6" ry="1" filter="url(#filter1039)" opacity=".2"/>
 <rect x="8.5" y="20.417" width="15" height="3" rx="0" ry=".5" filter="url(#filter1035)" opacity=".2" style=""/>
 <g fill="#fafafa">
  <rect x="8.5" y="9.4167" width="3" height="3" ry=".5"/>
  <rect x="12.5" y="9.4167" width="3" height="3" ry=".5"/>
  <rect x="16.5" y="9.4167" width="3" height="3" ry=".5"/>
  <rect x="20.5" y="9.4167" width="3" height="3" ry=".5"/>
  <rect x="24.5" y="9.4167" width="3" height="3" ry=".5"/>
  <rect x="4.5" y="14.917" width="3" height="3" ry=".5"/>
  <rect x="8.5" y="14.917" width="3" height="3" ry=".5"/>
  <rect x="12.5" y="14.917" width="3" height="3" ry=".5"/>
  <rect x="16.5" y="14.917" width="3" height="3" ry=".5"/>
  <rect x="20.5" y="14.917" width="3" height="3" ry=".5"/>
  <g transform="scale(.5)" stroke="#d50000">
   <rect x="9" y="18.833" width="6" height="6" ry="1"/>
   <rect x="49" y="29.833" width="6" height="6" ry="1"/>
  </g>
  <rect x="8.5" y="19.417" width="15" height="3" rx="0" ry=".5"/>
 </g>
 <g fill="none" stroke="#d50000" stroke-width=".5">
  <path d="m26.25 18v11"/>
  <path d="m5.5 28.75h21"/>
  <path d="m5.75 12.5v16.5"/>
 </g>
</svg>
