<?xml version="1.0" encoding="UTF-8" standalone="no"?>
<!-- Created with Inkscape (http://www.inkscape.org/) -->

<svg
   xmlns:dc="http://purl.org/dc/elements/1.1/"
   xmlns:cc="http://creativecommons.org/ns#"
   xmlns:rdf="http://www.w3.org/1999/02/22-rdf-syntax-ns#"
   xmlns:svg="http://www.w3.org/2000/svg"
   xmlns="http://www.w3.org/2000/svg"
   xmlns:sodipodi="http://sodipodi.sourceforge.net/DTD/sodipodi-0.dtd"
   xmlns:inkscape="http://www.inkscape.org/namespaces/inkscape"
   version="1.1"
   id="svg2"
   width="32"
   height="32"
   viewBox="0 0 32 32"
   sodipodi:docname="konqueror.svg"
   inkscape:version="0.92.4 (5da689c313, 2019-01-14)"
   inkscape:export-filename="/home/john/Nextcloud/Q4OS Stuff/tdevelop.png"
   inkscape:export-xdpi="96"
   inkscape:export-ydpi="96">
  <metadata
     id="metadata8">
    <rdf:RDF>
      <cc:Work
         rdf:about="">
        <dc:format>image/svg+xml</dc:format>
        <dc:type
           rdf:resource="http://purl.org/dc/dcmitype/StillImage" />
        <dc:title></dc:title>
      </cc:Work>
    </rdf:RDF>
  </metadata>
  <defs
     id="defs6" />
  <sodipodi:namedview
     pagecolor="#ffffff"
     bordercolor="#666666"
     borderopacity="1"
     objecttolerance="10"
     gridtolerance="10"
     guidetolerance="10"
     inkscape:pageopacity="0"
     inkscape:pageshadow="2"
     inkscape:window-width="1362"
     inkscape:window-height="695"
     id="namedview4"
     showgrid="false"
     fit-margin-top="0"
     fit-margin-left="0"
     fit-margin-right="0"
     fit-margin-bottom="0"
     showguides="true"
     inkscape:zoom="16.09375"
     inkscape:cx="16"
     inkscape:cy="16"
     inkscape:window-x="0"
     inkscape:window-y="0"
     inkscape:window-maximized="1"
     inkscape:current-layer="svg2"
     inkscape:snap-grids="true" />
  <path
     style="fill:#cfd8dc;fill-opacity:1;stroke-width:0.37382606"
     d="m 7.3741233,0.547757 c -0.068642,0.0071 -0.1349373,0.03744 -0.186492,0.08929 L 4.801786,3.022469 C 4.7014755,3.123067 4.682578,3.279063 4.756531,3.400868 L 7.549843,8.001423 C 7.05442,8.834319 6.6573388,9.732335 6.3735418,10.679675 L 1.245473,11.74632 C 1.102795,11.77585 1,11.902289 1,12.048705 v 3.373575 c 0,0.142673 0.097611,0.266247 0.235088,0.29948 l 4.9772885,1.216593 c 0.2654225,1.097174 0.6767308,2.13724 1.2203395,3.0932 L 4.551761,24.42484 c -0.080378,0.12278 -0.063579,0.284527 0.04027,0.387947 L 6.97704,27.19822 c 0.1003107,0.100033 0.2569107,0.119673 0.3792293,0.04607 l 4.5145717,-2.74181 c 0.886798,0.51174 1.84317,0.91444 2.853957,1.187533 l 1.053355,5.064507 c 0.02964,0.143507 0.156494,0.245487 0.301969,0.245487 h 3.373993 c 0.141839,0 0.26562,-0.09678 0.299475,-0.23594 l 1.240683,-5.074887 c 1.041935,-0.281193 2.027385,-0.700293 2.935779,-1.235287 l 4.448943,2.917087 c 0.122328,0.08054 0.284112,0.0644 0.38795,-0.0394 l 2.385848,-2.385427 c 0.100922,-0.10088 0.118992,-0.256893 0.04485,-0.378386 l -3.036602,-3.84636 c -1.36323,-1.86988 -1.19421,-1.678334 -1.691885,-2.209667 -1.59935,3.130167 -4.853297,5.27426 -8.610873,5.27426 -5.338543,0 -9.6667263,-4.328273 -9.6667263,-9.667133 0,-3.927457 2.3425453,-7.305075 5.7054203,-8.818134 V 2.806907 c -0.612036,0.214108 -1.203718,0.472257 -1.76571,0.778386 -4e-4,-3.74e-4 -8.66e-4,-0.0014 -0.0024,-0.0029 L 7.5752573,0.595813 C 7.5139303,0.555683 7.4428513,0.539723 7.3742247,0.546783 Z"
     id="path5692_2_-3"
     inkscape:connector-curvature="0"
     sodipodi:nodetypes="cccccccssccccccccccsscccccccccssccccccc" />
  <ellipse
     style="opacity:1;fill:#2196f3;fill-opacity:1;stroke-width:0.5"
     id="path5219-3"
     cx="18.000002"
     cy="14"
     rx="10.25"
     ry="10.250001" />
  <path
     inkscape:connector-curvature="0"
     style="opacity:0.2;fill:#ffffff;stroke-width:0.36607012"
     d="M 18.000029,3.749982 A 10.249961,10.249961 0 0 0 7.7500673,13.999953 10.249961,10.249961 0 0 0 7.7578207,14.21454 10.249961,10.249961 0 0 1 17.999913,4.11616 10.249961,10.249961 0 0 1 28.242188,14.15158 10.249961,10.249961 0 0 0 28.249941,13.999987 10.249961,10.249961 0 0 0 17.999982,3.750015 Z"
     id="path5512-1" />
  <path
     inkscape:connector-curvature="0"
     style="opacity:1;fill:#fafafa;stroke-width:1.00008738"
     class="ColorScheme-Text"
     d="m 18.117207,6.000828 a 8.001208,8.0001893 0 0 0 -5.77431,2.343806 8.001208,8.0001893 0 0 0 0,11.312766 8.001208,8.0001893 0 0 0 11.31421,0 8.001208,8.0001893 0 0 0 0,-11.312766 8.001208,8.0001893 0 0 0 -5.5399,-2.343806 z m -0.218782,1.000024 a 7.0010573,7.000166 0 0 1 4.680393,1.714885 l -1.404508,1.40433 A 8.0006987,5.0004365 44.991678 0 0 15.749662,7.377814 7.0010573,7.000166 0 0 1 17.898425,7.000852 Z m -3.027802,1.306672 a 7.0006113,4.0003493 44.992816 0 1 5.594595,2.521543 l -2.465216,2.464902 -4.551469,-4.550888 a 7.0006113,4.0003493 44.992816 0 1 1.42209,-0.435557 z m 8.421194,1.109401 a 7.0010573,7.000166 0 0 1 1.33614,6.810708 8.0006987,5.0004365 44.991678 0 0 -2.750416,-5.396612 z m -10.552374,0.03125 4.553421,4.552841 -2.467169,2.46686 A 7.0006113,4.0003493 44.992816 0 1 12.739443,9.448173 Z m 8.434867,2.085986 a 7.0006113,4.0003493 44.992816 0 1 2.086252,7.019695 l -4.553421,-4.55284 z m -9.802262,0.240242 a 8.0006987,5.0004365 44.991678 0 0 2.750415,5.396613 l -1.414275,1.414093 a 7.0010573,7.000166 0 0 1 -1.33614,-6.810706 z m 6.627954,2.93366 4.551469,4.550893 a 7.0006113,4.0003493 44.992816 0 1 -7.016684,-2.085987 z m -3.174307,3.173906 a 8.0006987,5.0004365 44.991678 0 0 5.424648,2.742254 7.0010573,7.000166 0 0 1 -6.829158,-1.337927 z"
     id="path5" />
</svg>
