<!-- Created with Inkscape (http://www.inkscape.org/) -->
<svg width="32" height="32" version="1.1" viewBox="0 0 32 32" xmlns="http://www.w3.org/2000/svg">
 <path d="m7.9577 2.0024c-0.063109 0.00653-0.12406 0.034422-0.17146 0.082093l-2.1935 2.1931c-0.092225 0.092489-0.1096 0.23591-0.041607 0.3479l2.5682 4.2297c-0.45549 0.76576-0.82056 1.5914-1.0815 2.4624l-4.7147 0.98067c-0.13118 0.02715-0.22569 0.1434-0.22569 0.27801v3.1016c0 0.13117 0.089743 0.24478 0.21614 0.27534l4.5761 1.1185c0.24403 1.0087 0.62218 1.965 1.122 2.8439l-2.6487 4.0392c-0.073899 0.11288-0.058454 0.26159 0.037024 0.35668l2.1928 2.1932c0.092225 0.09197 0.2362 0.11003 0.34866 0.04236l4.1507-2.5208c0.81532 0.47049 1.6946 0.84073 2.6239 1.0918l0.96845 4.6563c0.027251 0.13194 0.14388 0.2257 0.27763 0.2257h3.102c0.13041 0 0.24421-0.08898 0.27534-0.21692l1.1407-4.6658c0.95795-0.25853 1.864-0.64385 2.6991-1.1357l4.0903 2.682c0.11247 0.07405 0.26121 0.05921 0.35668-0.03622l2.1935-2.1931c0.09279-0.09275 0.1094-0.23619 0.04124-0.34789l-2.7918-3.5363c-1.2533-1.7192-1.098-1.543-1.5555-2.0316-1.4704 2.8779-4.4621 4.8491-7.9168 4.8491-4.9082 0-8.8875-3.9794-8.8875-8.8879 0-3.6109 2.1537-6.7162 5.2455-8.1073v-2.2928c-0.5627 0.19685-1.1067 0.43419-1.6234 0.71564-3.68e-4 -3.439e-4 -7.96e-4 -0.00129-0.0022-0.00267l-4.1866-2.7458c-0.056384-0.036895-0.12173-0.051569-0.18483-0.045078z" fill="#b0bec5" stroke-width=".34369"/>
 <ellipse cx="17.727" cy="14.37" rx="9.4238" ry="9.4238" fill="#2196f3" stroke-width=".4597"/>
 <path class="ColorScheme-Text" d="m17.835 7.0159a7.3563 7.3553 0 0 0-5.3089 2.1549 7.3563 7.3553 0 0 0 0 10.401 7.3563 7.3553 0 0 0 10.402 0 7.3563 7.3553 0 0 0 0-10.401 7.3563 7.3553 0 0 0-5.0934-2.1549zm-0.20115 0.91942a6.4367 6.4359 0 0 1 4.3031 1.5767l-1.2913 1.2911a7.3558 4.5974 44.992 0 0-4.9874-2.5212 6.4367 6.4359 0 0 1 1.9756-0.34658zm-2.7837 1.2013a6.4363 3.6779 44.993 0 1 5.1436 2.3183l-2.2665 2.2662-4.1846-4.1841a6.4363 3.6779 44.993 0 1 1.3075-0.40045zm7.7424 1.02a6.4367 6.4359 0 0 1 1.2284 6.2617 7.3558 4.5974 44.992 0 0-2.5287-4.9616zm-9.7018 0.02873 4.1864 4.1859-2.2683 2.268a6.4363 3.6779 44.993 0 1-1.9181-6.4539zm7.755 1.9178a6.4363 3.6779 44.993 0 1 1.9181 6.4539l-4.1864-4.1859zm-9.0121 0.22088a7.3558 4.5974 44.992 0 0 2.5287 4.9616l-1.3003 1.3001a6.4367 6.4359 0 0 1-1.2284-6.2617zm6.0937 2.6972 4.1846 4.1841a6.4363 3.6779 44.993 0 1-6.4511-1.9178zm-2.9184 2.9181a7.3558 4.5974 44.992 0 0 4.9874 2.5212 6.4367 6.4359 0 0 1-6.2787-1.2301z" fill="#fafafa" stroke-width=".91947"/>
</svg>
