<?xml version="1.0" encoding="UTF-8" standalone="no"?>
<!-- Created with Inkscape (http://www.inkscape.org/) -->

<svg
   xmlns:osb="http://www.openswatchbook.org/uri/2009/osb"
   xmlns:dc="http://purl.org/dc/elements/1.1/"
   xmlns:cc="http://creativecommons.org/ns#"
   xmlns:rdf="http://www.w3.org/1999/02/22-rdf-syntax-ns#"
   xmlns:svg="http://www.w3.org/2000/svg"
   xmlns="http://www.w3.org/2000/svg"
   xmlns:sodipodi="http://sodipodi.sourceforge.net/DTD/sodipodi-0.dtd"
   xmlns:inkscape="http://www.inkscape.org/namespaces/inkscape"
   version="1.1"
   id="svg2"
   width="32"
   height="32"
   viewBox="0 0 32 32"
   sodipodi:docname="konqueror.svg"
   inkscape:version="0.92.1 r15371"
   inkscape:export-filename="/home/john/Nextcloud/Q4OS Stuff/tdevelop.png"
   inkscape:export-xdpi="96"
   inkscape:export-ydpi="96">
  <metadata
     id="metadata8">
    <rdf:RDF>
      <cc:Work
         rdf:about="">
        <dc:format>image/svg+xml</dc:format>
        <dc:type
           rdf:resource="http://purl.org/dc/dcmitype/StillImage" />
        <dc:title />
      </cc:Work>
    </rdf:RDF>
  </metadata>
  <defs
     id="defs6">
    <linearGradient
       id="linearGradient5460"
       osb:paint="gradient">
      <stop
         style="stop-color:#e6e6e6;stop-opacity:1"
         offset="0"
         id="stop5462" />
      <stop
         style="stop-color:#ffffff;stop-opacity:1"
         offset="1"
         id="stop5464" />
    </linearGradient>
    <linearGradient
       id="linearGradient5476"
       osb:paint="solid">
      <stop
         style="stop-color:#772953;stop-opacity:1;"
         offset="0"
         id="stop5478" />
    </linearGradient>
  </defs>
  <sodipodi:namedview
     pagecolor="#ffffff"
     bordercolor="#666666"
     borderopacity="1"
     objecttolerance="10"
     gridtolerance="10"
     guidetolerance="10"
     inkscape:pageopacity="0"
     inkscape:pageshadow="2"
     inkscape:window-width="1366"
     inkscape:window-height="703"
     id="namedview4"
     showgrid="false"
     fit-margin-top="0"
     fit-margin-left="0"
     fit-margin-right="0"
     fit-margin-bottom="0"
     showguides="true"
     inkscape:zoom="16.9375"
     inkscape:cx="5.8154982"
     inkscape:cy="15.439114"
     inkscape:window-x="-3"
     inkscape:window-y="-4"
     inkscape:window-maximized="1"
     inkscape:current-layer="svg2"
     inkscape:snap-grids="true" />
  <g
     id="g4494"
     transform="matrix(0.85372278,0,0,0.85372278,2.2367177,2.5345938)">
    <path
       sodipodi:nodetypes="cccccccssccccccccccsscccccccccssccccccc"
       inkscape:connector-curvature="0"
       id="path5692_2_-3"
       d="M 7.3741235,0.5477565 C 7.3054815,0.5548195 7.239186,0.5851985 7.1876315,0.637051 L 4.801786,3.0224689 C 4.7014755,3.1230666 4.682578,3.2790631 4.756531,3.400868 l 2.7933115,4.6005545 c -0.495423,0.832897 -0.892504,1.730913 -1.176301,2.6782535 L 1.245473,11.74632 C 1.102795,11.77585 1,11.902288 1,12.048706 v 3.373576 c 0,0.142673 0.097611,0.266244 0.235088,0.299476 l 4.9772885,1.216593 c 0.2654225,1.097176 0.6767305,2.137245 1.2203395,3.093203 l -2.880955,4.393285 c -0.080378,0.122779 -0.063579,0.284527 0.04027,0.387949 l 2.385009,2.385433 c 0.100311,0.100032 0.2569105,0.119671 0.379229,0.04606 l 4.514572,-2.741805 c 0.886797,0.511733 1.84317,0.914434 2.853957,1.187531 l 1.053355,5.064504 C 15.807793,30.898018 15.934647,31 16.080122,31 h 3.373992 c 0.14184,0 0.265621,-0.09678 0.299476,-0.235937 l 1.240682,-5.074888 c 1.041936,-0.281193 2.027386,-0.700297 2.93578,-1.235287 l 4.448944,2.917087 c 0.122328,0.08053 0.284112,0.06443 0.387948,-0.03942 l 2.385848,-2.385432 c 0.100922,-0.10088 0.118993,-0.25689 0.04484,-0.378385 L 28.161034,20.72138 c -1.363229,-1.869881 -1.194209,-1.678333 -1.691885,-2.209667 -1.599349,3.130164 -4.853296,5.274262 -8.610872,5.274262 -5.338543,0 -9.6667265,-4.328278 -9.6667265,-9.667136 0,-3.927456 2.3425455,-7.3050735 5.7054205,-8.8181325 V 2.8068798 c -0.612036,0.2141087 -1.203718,0.4722572 -1.765709,0.7783871 -4.12e-4,-3.817e-4 -8.5e-4,-0.0014 -0.0024,-0.00285 L 7.575255,0.5957979 C 7.5139275,0.5556692 7.4428495,0.5397061 7.374223,0.54677035 Z"
       style="fill:#d4d4d4;fill-opacity:1;stroke-width:0.37382606" />
    <ellipse
       ry="10.250001"
       rx="10.25"
       cy="13.999999"
       cx="18.000002"
       id="path5219-3"
       style="opacity:1;fill:#3689e6;fill-opacity:1;stroke-width:0.5" />
    <path
       id="path5512-1"
       d="M 18.000029,3.7499817 A 10.249962,10.249962 0 0 0 7.7500675,13.999953 10.249962,10.249962 0 0 0 7.7578215,14.21454 10.249962,10.249962 0 0 1 17.999914,4.1161597 10.249962,10.249962 0 0 1 28.242189,14.151579 10.249962,10.249962 0 0 0 28.249943,13.999987 10.249962,10.249962 0 0 0 17.999982,3.7500146 Z"
       style="opacity:0.2;fill:#ffffff;stroke-width:0.36607009"
       inkscape:connector-curvature="0" />
    <path
       id="path5"
       d="m 18.117207,6.000828 a 8.001208,8.000189 0 0 0 -5.77431,2.343806 8.001208,8.000189 0 0 0 0,11.312767 8.001208,8.000189 0 0 0 11.314209,0 8.001208,8.000189 0 0 0 0,-11.312767 8.001208,8.000189 0 0 0 -5.539899,-2.343806 z m -0.218783,1.000024 a 7.0010575,7.000166 0 0 1 4.680394,1.7148845 L 21.17431,10.120067 A 8.0006985,5.0004365 44.991678 0 0 15.749662,7.377814 7.0010575,7.000166 0 0 1 17.898424,7.000852 Z m -3.0278,1.306672 a 7.0006115,4.0003493 44.992816 0 1 5.594594,2.521543 l -2.465216,2.464902 -4.551468,-4.550888 a 7.0006115,4.0003493 44.992816 0 1 1.42209,-0.435557 z m 8.421193,1.109401 a 7.0010575,7.000166 0 0 1 1.33614,6.810708 8.0006985,5.0004365 44.991678 0 0 -2.750416,-5.396612 z m -10.552374,0.031255 4.553421,4.552842 -2.467169,2.466855 a 7.0006115,4.0003493 44.992816 0 1 -2.086252,-7.0197 z m 8.434867,2.085986 a 7.0006115,4.0003493 44.992816 0 1 2.086252,7.019697 l -4.553421,-4.552841 z m -9.802262,0.240241 a 8.0006985,5.0004365 44.991678 0 0 2.750416,5.396611 l -1.414276,1.414096 a 7.0010575,7.000166 0 0 1 -1.33614,-6.810707 z m 6.627954,2.933662 4.551469,4.550889 a 7.0006115,4.0003493 44.992816 0 1 -7.016685,-2.085987 z m -3.174307,3.173903 a 8.0006985,5.0004365 44.991678 0 0 5.424648,2.742254 7.0010575,7.000166 0 0 1 -6.829157,-1.337923 z"
       class="ColorScheme-Text"
       style="opacity:1;fill:#fafafa;stroke-width:1.00008738"
       inkscape:connector-curvature="0" />
  </g>
</svg>
