<svg version="1.1" viewBox="0 0 32 32" xmlns="http://www.w3.org/2000/svg">
    <defs>
        <filter id="filter864" x="-.012" y="-.012" width="1.024" height="1.024" color-interpolation-filters="sRGB">
            <feGaussianBlur stdDeviation="0.073551519"/>
        </filter>
        <filter id="filter868" x="-.012000001" y="-.011999999" width="1.024" height="1.024" color-interpolation-filters="sRGB">
            <feGaussianBlur stdDeviation="0.094237885"/>
        </filter>
        <filter id="filter876" x="-.012042033" y="-.01195826" width="1.0240841" height="1.0239165" color-interpolation-filters="sRGB">
            <feGaussianBlur stdDeviation="0.13951303"/>
        </filter>
    </defs>
    <g>
        <path d="m7.957729 3.0023845c-0.06311 0.00653-0.124061 0.034422-0.17146 0.082093l-2.193532 2.1931423c-0.09223 0.092489-0.109599 0.235911-0.04161 0.3478978l2.568154 4.2297225c-0.455489 0.7657599-0.820563 1.5913899-1.081484 2.4623689l-4.714716 0.980667c-0.131177 0.02715-0.225686 0.143397-0.225686 0.278011v3.101645c0 0.131172 0.08974 0.244785 0.216138 0.27534l4.57609 1.118528c0.244027 1.008735 0.622182 1.964966 1.121972 2.843869l-2.648732 4.039162c-0.0739 0.112883-0.05845 0.261592 0.03702 0.356676l2.192763 2.193153c0.09222 0.09197 0.236202 0.110027 0.348661 0.04236l4.15067-2.520803c0.815316 0.47049 1.694599 0.84073 2.623911 1.09181l0.968448 4.656278c0.027251 0.131935 0.14388 0.225695 0.277628 0.225695h3.102029c0.130406 0 0.24421-0.08898 0.275336-0.216922l1.140676-4.66582c0.957949-0.258528 1.863966-0.643846 2.699138-1.135716l4.090331 2.681952c0.112468 0.07405 0.261211 0.05921 0.356679-0.03622l2.193534-2.193147c0.09279-0.09275 0.109401-0.236186 0.04124-0.347886l-2.791826-3.53632c-1.253346-1.719156-1.09795-1.54305-1.555509-2.031554-1.470433 2.877856-4.462092 4.849122-7.916785 4.849122-4.908224 0-8.88753-3.979388-8.88753-8.887903 0-3.610881 2.153722-6.7162427 5.245529-8.10734v-2.2928126c-0.562702 0.1968496-1.106691 0.4341902-1.623383 0.7156434-3.68e-4 -3.439e-4 -7.96e-4 -0.00129-0.0022-0.00267l-4.186573-2.7458399c-0.05638-0.036895-0.121733-0.051569-0.184828-0.045078z" filter="url(#filter876)" opacity=".2" stroke-width=".34369344"/>
        <path d="m7.9577236 2.0023847c-0.063109 0.00653-0.1240606 0.034422-0.1714597 0.082093l-2.1935318 2.1931423c-0.0922248 0.0924892-0.1095991 0.235911-0.0416071 0.3478978l2.5681542 4.2297225c-0.4554889 0.7657596-0.820563 1.5913897-1.0814842 2.4623687l-4.7147156 0.980667c-0.1311773 0.02715-0.2256864 0.143397-0.2256864 0.278011v3.101645c0 0.131172 0.089743 0.244785 0.2161385 0.27534l4.5760891 1.118528c0.2440278 1.008735 0.6221822 1.964966 1.1219727 2.843869l-2.6487326 4.039162c-0.073899 0.112883-0.058454 0.261592 0.037024 0.356676l2.1927629 2.193153c0.092225 0.09197 0.2362021 0.110027 0.3486611 0.04236l4.1506703-2.520803c0.815316 0.47049 1.694599 0.84073 2.623911 1.09181l0.968448 4.656278c0.027251 0.131935 0.14388 0.225695 0.277628 0.225695h3.102029c0.130406 0 0.24421-0.08898 0.275336-0.216922l1.140676-4.66582c0.957949-0.258528 1.863966-0.643846 2.699138-1.135716l4.090331 2.681952c0.112468 0.07405 0.261211 0.05921 0.356679-0.03622l2.193534-2.193147c0.09279-0.09275 0.109401-0.236186 0.04124-0.347886l-2.791833-3.53632c-1.253346-1.719156-1.09795-1.54305-1.555509-2.031554-1.470433 2.877856-4.462092 4.849122-7.916785 4.849122-4.908224 0-8.8875301-3.979388-8.8875301-8.887903 0-3.610881 2.1537221-6.7162425 5.2455291-8.1073398v-2.2928126c-0.562702 0.1968496-1.106691 0.4341902-1.623383 0.7156434-3.68e-4 -3.439e-4 -7.96e-4 -0.00129-0.0022-0.00267l-4.186573-2.7458399c-0.0563837-0.0368953-0.1217333-0.0515688-0.1848282-0.0450779z" fill="#b0bec5" stroke-width=".34369344"/>
        <ellipse cx="17.727093" cy="15.370211" rx="9.4237881" ry="9.423789" filter="url(#filter868)" opacity=".2" stroke-width=".45969698"/>
        <ellipse cx="17.727093" cy="14.370296" rx="9.4237881" ry="9.423789" fill="#2196f3" stroke-width=".45969698"/>
    </g>
    <path d="m17.727117 4.9464911a9.4237524 9.4237524 0 0 0-9.4237528 9.4237619 9.4237524 9.4237524 0 0 0 0.00713 0.19729 9.4237524 9.4237524 0 0 1 9.4165188-9.2843901 9.4237524 9.4237524 0 0 1 9.416686 9.2265051 9.4237524 9.4237524 0 0 0 0.0071-0.139374 9.4237524 9.4237524 0 0 0-9.423751-9.4237626z" fill="#fff" opacity=".2" stroke-width=".33656266"/>
    <path class="ColorScheme-Text" d="m17.834849 8.0154586a7.3562625 7.3553259 0 0 0-5.308866 2.1548814 7.3562625 7.3553259 0 0 0 0 10.400889 7.3562625 7.3553259 0 0 0 10.402218 0 7.3562625 7.3553259 0 0 0 0-10.400889 7.3562625 7.3553259 0 0 0-5.093352-2.1548814zm-0.201146 0.9194161a6.4367299 6.4359105 0 0 1 4.303125 1.5766553l-1.291295 1.291132a7.3557942 4.5973712 44.991678 0 0-4.98739-2.5212107 6.4367299 6.4359105 0 0 1 1.97556-0.3465766zm-2.783743 1.2013463a6.4363199 3.6778971 44.992816 0 1 5.143636 2.318291l-2.266505 2.266216-4.184593-4.184059a6.4363199 3.6778971 44.992816 0 1 1.307462-0.400448zm7.742395 1.019976a6.4367299 6.4359105 0 0 1 1.22844 6.261724 7.3557942 4.5973712 44.991678 0 0-2.528717-4.961612zm-9.70179 0.02873 4.186388 4.185855-2.2683 2.268016a6.4363199 3.6778971 44.992816 0 1-1.918088-6.453871zm7.754967 1.917843a6.4363199 3.6778971 44.992816 0 1 1.918088 6.453867l-4.186388-4.185854zm-9.012142 0.220877a7.3557942 4.5973712 44.991678 0 0 2.528715 4.961615l-1.300275 1.300109a6.4367299 6.4359105 0 0 1-1.22844-6.261724zm6.093701 2.69719 4.184595 4.184064a6.4363199 3.6778971 44.992816 0 1-6.451097-1.917843zm-2.918438 2.918071a7.3557942 4.5973712 44.991678 0 0 4.987388 2.521212 6.4367299 6.4359105 0 0 1-6.278686-1.230082z" filter="url(#filter864)" opacity=".2" stroke-width=".9194743"/>
    <path class="ColorScheme-Text" d="m17.83485 7.0159053a7.3562625 7.3553259 0 0 0-5.308866 2.1548812 7.3562625 7.3553259 0 0 0 0 10.400888 7.3562625 7.3553259 0 0 0 10.402217 0 7.3562625 7.3553259 0 0 0 0-10.400888 7.3562625 7.3553259 0 0 0-5.093351-2.1548812zm-0.201147 0.9194161a6.4367299 6.4359105 0 0 1 4.303125 1.5766549l-1.291296 1.2911327a7.3557942 4.5973712 44.991678 0 0-4.987389-2.521211 6.4367299 6.4359105 0 0 1 1.97556-0.3465766zm-2.783743 1.2013464a6.4363199 3.6778971 44.992816 0 1 5.143637 2.3182912l-2.266505 2.266216-4.184593-4.1840588a6.4363199 3.6778971 44.992816 0 1 1.307461-0.4004484zm7.742395 1.0199762a6.4367299 6.4359105 0 0 1 1.228439 6.261724 7.3557942 4.5973712 44.991678 0 0-2.528716-4.961612zm-9.701789 0.02873 4.186388 4.185855-2.2683 2.268016a6.4363199 3.6778971 44.992816 0 1-1.918088-6.453872zm7.754966 1.917843a6.4363199 3.6778971 44.992816 0 1 1.918088 6.453866l-4.186388-4.185853zm-9.012141 0.220877a7.3557942 4.5973712 44.991678 0 0 2.528715 4.961614l-1.300275 1.300109a6.4367299 6.4359105 0 0 1-1.22844-6.261723zm6.093701 2.69719 4.184594 4.184063a6.4363199 3.6778971 44.992816 0 1-6.451097-1.917843zm-2.918438 2.91807a7.3557942 4.5973712 44.991678 0 0 4.987388 2.521212 6.4367299 6.4359105 0 0 1-6.278686-1.230082z" fill="#fafafa" stroke-width=".9194743"/>
</svg>
