<?xml version="1.0" encoding="UTF-8" standalone="no"?>
<!-- Created with Inkscape (http://www.inkscape.org/) -->

<svg
   xmlns:dc="http://purl.org/dc/elements/1.1/"
   xmlns:cc="http://creativecommons.org/ns#"
   xmlns:rdf="http://www.w3.org/1999/02/22-rdf-syntax-ns#"
   xmlns:svg="http://www.w3.org/2000/svg"
   xmlns="http://www.w3.org/2000/svg"
   xmlns:sodipodi="http://sodipodi.sourceforge.net/DTD/sodipodi-0.dtd"
   xmlns:inkscape="http://www.inkscape.org/namespaces/inkscape"
   version="1.1"
   id="svg2"
   width="32"
   height="32"
   viewBox="0 0 32 32"
   sodipodi:docname="konqueror.svg"
   inkscape:version="0.92.4 (5da689c313, 2019-01-14)"
   inkscape:export-filename="/home/john/Nextcloud/Q4OS Stuff/tdevelop.png"
   inkscape:export-xdpi="96"
   inkscape:export-ydpi="96">
  <metadata
     id="metadata8">
    <rdf:RDF>
      <cc:Work
         rdf:about="">
        <dc:format>image/svg+xml</dc:format>
        <dc:type
           rdf:resource="http://purl.org/dc/dcmitype/StillImage" />
        <dc:title />
      </cc:Work>
    </rdf:RDF>
  </metadata>
  <defs
     id="defs6" />
  <sodipodi:namedview
     pagecolor="#ffffff"
     bordercolor="#666666"
     borderopacity="1"
     objecttolerance="10"
     gridtolerance="10"
     guidetolerance="10"
     inkscape:pageopacity="0"
     inkscape:pageshadow="2"
     inkscape:window-width="1362"
     inkscape:window-height="695"
     id="namedview4"
     showgrid="false"
     fit-margin-top="0"
     fit-margin-left="0"
     fit-margin-right="0"
     fit-margin-bottom="0"
     showguides="true"
     inkscape:zoom="16.09375"
     inkscape:cx="5.2815534"
     inkscape:cy="16"
     inkscape:window-x="0"
     inkscape:window-y="0"
     inkscape:window-maximized="1"
     inkscape:current-layer="svg2"
     inkscape:snap-grids="true" />
  <path
     style="fill:#b0bec5;fill-opacity:1;stroke-width:0.34369344"
     d="m 7.9577236,2.0023847 c -0.063109,0.00653 -0.1240606,0.034422 -0.1714597,0.082093 L 5.5927321,4.27762 C 5.5005073,4.3701092 5.483133,4.513531 5.551125,4.6255178 L 8.1192792,8.8552403 C 7.6637903,9.6209999 7.2987162,10.44663 7.037795,11.317609 L 2.3230794,12.298276 C 2.1919021,12.325426 2.097393,12.441673 2.097393,12.576287 v 3.101645 c 0,0.131172 0.089743,0.244785 0.2161385,0.27534 L 6.8896206,17.0718 c 0.2440278,1.008735 0.6221822,1.964966 1.1219727,2.843869 l -2.6487326,4.039162 c -0.073899,0.112883 -0.058454,0.261592 0.037024,0.356676 l 2.1927629,2.193153 c 0.092225,0.09197 0.2362021,0.110027 0.3486611,0.04236 l 4.1506703,-2.520803 c 0.815316,0.47049 1.694599,0.84073 2.623911,1.09181 l 0.968448,4.656278 C 15.711589,29.90624 15.828218,30 15.961966,30 h 3.102029 c 0.130406,0 0.24421,-0.08898 0.275336,-0.216922 l 1.140676,-4.66582 c 0.957949,-0.258528 1.863966,-0.643846 2.699138,-1.135716 l 4.090331,2.681952 c 0.112468,0.07405 0.261211,0.05921 0.356679,-0.03622 l 2.193534,-2.193147 c 0.09279,-0.09275 0.109401,-0.236186 0.04124,-0.347886 l -2.791833,-3.53632 c -1.253346,-1.719156 -1.09795,-1.54305 -1.555509,-2.031554 -1.470433,2.877856 -4.462092,4.849122 -7.916785,4.849122 -4.908224,0 -8.8875301,-3.979388 -8.8875301,-8.887903 0,-3.610881 2.1537221,-6.7162425 5.2455291,-8.1073398 V 4.0794336 c -0.562702,0.1968496 -1.106691,0.4341902 -1.623383,0.7156434 -3.68e-4,-3.439e-4 -7.96e-4,-0.00129 -0.0022,-0.00267 L 8.142645,2.0465671 C 8.0862613,2.0096718 8.0209117,1.9949983 7.9578168,2.0014892 Z"
     id="path5692_2_-3"
     inkscape:connector-curvature="0"
     sodipodi:nodetypes="cccccccssccccccccccsscccccccccssccccccc" />
  <ellipse
     style="opacity:1;fill:#2196f3;fill-opacity:1;stroke-width:0.45969698"
     id="path5219-3"
     cx="17.727093"
     cy="14.370296"
     rx="9.4237881"
     ry="9.423789" />
  <path
     inkscape:connector-curvature="0"
     style="opacity:0.2;fill:#ffffff;stroke-width:0.33656266"
     d="m 17.727117,4.9464911 a 9.4237524,9.4237524 0 0 0 -9.4237528,9.4237619 9.4237524,9.4237524 0 0 0 0.00713,0.19729 9.4237524,9.4237524 0 0 1 9.4165188,-9.2843901 9.4237524,9.4237524 0 0 1 9.416686,9.2265051 9.4237524,9.4237524 0 0 0 0.0071,-0.139374 9.4237524,9.4237524 0 0 0 -9.423751,-9.4237626 z"
     id="path5512-1" />
  <path
     inkscape:connector-curvature="0"
     style="opacity:1;fill:#fafafa;stroke-width:0.9194743"
     class="ColorScheme-Text"
     d="m 17.83485,7.0159053 a 7.3562625,7.3553259 0 0 0 -5.308866,2.1548812 7.3562625,7.3553259 0 0 0 0,10.4008885 7.3562625,7.3553259 0 0 0 10.402217,0 7.3562625,7.3553259 0 0 0 0,-10.4008885 7.3562625,7.3553259 0 0 0 -5.093351,-2.1548812 z m -0.201147,0.9194161 a 6.4367299,6.4359105 0 0 1 4.303125,1.5766549 L 20.645532,10.803109 A 7.3557942,4.5973712 44.991678 0 0 15.658143,8.281898 6.4367299,6.4359105 0 0 1 17.633703,7.9353214 Z M 14.84996,9.1366678 a 6.4363199,3.6778971 44.992816 0 1 5.143637,2.3182912 L 17.727092,13.721175 13.542499,9.5371162 A 6.4363199,3.6778971 44.992816 0 1 14.84996,9.1366678 Z m 7.742395,1.0199762 a 6.4367299,6.4359105 0 0 1 1.228439,6.261724 7.3557942,4.5973712 44.991678 0 0 -2.528716,-4.961612 z m -9.701789,0.02873 4.186388,4.185855 -2.2683,2.268016 a 6.4363199,3.6778971 44.992816 0 1 -1.918088,-6.453872 z m 7.754966,1.917843 a 6.4363199,3.6778971 44.992816 0 1 1.918088,6.453866 L 18.377232,14.37123 Z m -9.012141,0.220877 a 7.3557942,4.5973712 44.991678 0 0 2.528715,4.961614 l -1.300275,1.300109 a 6.4367299,6.4359105 0 0 1 -1.22844,-6.261723 z m 6.093701,2.69719 4.184594,4.184063 a 6.4363199,3.6778971 44.992816 0 1 -6.451097,-1.917843 z m -2.918438,2.91807 a 7.3557942,4.5973712 44.991678 0 0 4.987388,2.521212 6.4367299,6.4359105 0 0 1 -6.278686,-1.230082 z"
     id="path5" />
</svg>
