<svg version="1" viewBox="0 0 32 32" xmlns="http://www.w3.org/2000/svg">
    <path d="m3.0054254 10.361575c-0.00315 0.05326-0.00495 0.106603-0.00542 0.15996v10.886991c3.255e-4 1.13714 0.6047071 2.187762 1.5855577 2.756241l9.3288849 5.408575c0.981119 0.568877 2.189996 0.568877 3.171115 0l9.328883-5.408575c0.981268-0.568724 1.585715-1.619979 1.585554-2.757608v-10.885624c-0.0015-0.04015-0.0038-0.08025-0.0068-0.120312 0.0068-0.001252-24.987775-0.039648-24.987775-0.039648z" fill="#fbc02d"/>
    <path d="m15.574656 1.9999999v0.00139a3.1730185 3.2214105 0 0 0-1.661419 0.4288647l-9.3359757 5.4729499a3.1730185 3.2214105 0 0 0-1.5772613 2.5829115 3.1730185 3.2214105 0 0 0 1.5772613 2.609198l9.3359757 5.47295a3.1730185 3.2214105 0 0 0 3.173525 0l9.335977-5.47295a3.1730185 3.2214105 0 0 0 1.577261-2.582912 3.1730185 3.2214105 0 0 0-1.577261-2.6091975l-9.335977-5.4729499a3.1730185 3.2214105 0 0 0-1.512106-0.4302547z" fill="#f9a825"/>
    <path d="m15.574219 2v0.00197a3.1730185 3.2214105 0 0 0-0.574219 0.0395338v16.91379a3.1730185 3.2214105 0 0 0 2.085938-0.387368l9.335937-5.472574a3.1730185 3.2214105 0 0 0 1.578125-2.583119 3.1730185 3.2214105 0 0 0-1.578125-2.6088102l-9.335937-5.4725738a3.1730185 3.2214105 0 0 0-1.511719-0.430849z" opacity=".07000002"/>
    <path d="m3.0039062 10.421875c-5.722e-4 0.01431-0.00126 0.02864-0.00195 0.04297a3.1730185 3.2214105 0 0 1 0.00391-0.0293 3.1730185 3.183519 0 0 1-0.00195-0.01367zm-0.00195 0.07422c-2.855e-4 0.0085-0.00188 0.01692-0.00195 0.02539v10.886719c3.255e-4 1.13714 0.6050869 2.187381 1.5859375 2.755859l9.3281243 5.410157c0.340673 0.197533 0.709282 0.322459 1.085932 0.382811v-11.001953a3.1730185 3.2214105 0 0 1-1.085938-0.386719l-9.335937-5.472656a3.1730185 3.2214105 0 0 1-1.5761719-2.599609z" opacity=".1"/>
</svg>
