<svg width="32" height="32" version="1" xmlns="http://www.w3.org/2000/svg">
 <rect x="2.5" y="6.5" width="27" height="18.5" rx="1.35" ry="1.3214" fill="#78909c" stroke-width=".66782"/>
 <g transform="matrix(.5 0 0 .5 1.5e-6 -.58333)" fill="#fafafa">
  <rect x="9" y="20" width="6" height="6" ry="1"/>
  <rect x="17" y="20" width="6" height="6" ry="1"/>
  <rect x="25" y="20" width="6" height="6" ry="1"/>
  <rect x="33" y="20" width="6" height="6" ry="1"/>
  <rect x="41" y="20" width="6" height="6" ry="1"/>
  <rect x="49" y="20" width="6" height="6" ry="1"/>
 </g>
 <g fill="#fafafa">
  <g>
   <rect x="4.5" y="14.917" width="3" height="3" ry=".5"/>
   <rect x="8.5" y="14.917" width="3" height="3" ry=".5"/>
   <rect x="12.5" y="14.917" width="3" height="3" ry=".5"/>
   <rect x="16.5" y="14.917" width="3" height="3" ry=".5"/>
   <rect x="20.5" y="14.917" width="3" height="3" ry=".5"/>
   <rect x="24.5" y="14.917" width="3" height="3" ry=".5" stroke="#d50000" stroke-width=".5"/>
  </g>
  <rect x="8.5" y="19.417" width="15" height="3" rx="0" ry=".5" stroke="#d50000" stroke-width=".5"/>
 </g>
 <path d="m26 18v3" fill="none" stroke="#d50000" stroke-width=".5px"/>
 <path d="m23.5 21.25h2.75" fill="none" stroke="#d50000" stroke-width=".5px"/>
</svg>
