<?xml version="1.0" encoding="UTF-8"?>
<!-- Created with Inkscape (http://www.inkscape.org/) -->
<svg width="32" height="32" version="1.1" viewBox="0 0 8.4667 8.4667" xml:space="preserve" xmlns="http://www.w3.org/2000/svg"><circle cx="4.2333" cy="4.2333" r="3.9688" fill="#673ab7" stroke-width=".07756"/><path d="m5.6324 2.1884a0.7175 0.7175 0 0 0-0.7175 0.7175 0.7175 0.7175 0 0 0 0.012754 0.13216l-1.5341 0.78183a0.7175 0.7175 0 0 0-0.55942-0.26823 0.7175 0.7175 0 0 0-0.7175 0.7175 0.7175 0.7175 0 0 0 0.7175 0.7175 0.7175 0.7175 0 0 0 0.59674-0.31966l1.4914 0.79309a0.7175 0.7175 0 0 0-0.0072899 0.10062 0.7175 0.7175 0 0 0 0.7175 0.7175 0.7175 0.7175 0 0 0 0.7175-0.7175 0.7175 0.7175 0 0 0-0.7175-0.7175 0.7175 0.7175 0 0 0-0.52723 0.23096l-1.5541-0.82629a0.7175 0.7175 0 0 0-0.00141-0.028868l1.578-0.80385a0.7175 0.7175 0 0 0 0.50466 0.20826 0.7175 0.7175 0 0 0 0.7175-0.7175 0.7175 0.7175 0 0 0-0.7175-0.7175z" fill="#fff" stroke-width=".07175"/></svg>
