<svg width="32" height="32" version="1.1" viewBox="0 0 32 32" xmlns="http://www.w3.org/2000/svg">
 <path d="m16 2a14 14 0 0 0-14 14 14 14 0 0 0 14 14 14 14 0 0 0 14-14 14 14 0 0 0-14-14z" fill="#48aeff"/>
 <g fill="#fff">
  <rect x="10" y="10" width="3" height="13" ry="1.444"/>
  <path d="m11.446 9.0011a0.99797 0.74273 0 0 0-0.81053 0.37032l-3.5021 4.5144a0.99797 0.74273 0 0 0 0.86411 1.1143h7.0041a0.99797 0.74273 0 0 0 0.86411-1.1143l-3.5021-4.5144a0.99797 0.74273 0 0 0-0.91769-0.37032z"/>
 </g>
 <g transform="matrix(1,0,0,-1,9,32)" fill="#fff">
  <rect x="10" y="10" width="3" height="13" ry="1.444"/>
  <path d="m11.446 9.0011a0.99797 0.74273 0 0 0-0.81053 0.37032l-3.5021 4.5144a0.99797 0.74273 0 0 0 0.86411 1.1143h7.0041a0.99797 0.74273 0 0 0 0.86411-1.1143l-3.5021-4.5144a0.99797 0.74273 0 0 0-0.91769-0.37032z"/>
 </g>
</svg>
