<svg width="32" height="32" version="1.1" viewBox="0 0 8.4666665 8.466667" xmlns="http://www.w3.org/2000/svg">
    <defs>
        <filter id="filter999" x="-.010947419" y="-.013276522" width="1.0218948" height="1.026553" color-interpolation-filters="sRGB">
            <feGaussianBlur stdDeviation="0.035585991"/>
        </filter>
        <filter id="filter1007" x="-.012" y="-.012" width="1.024" height="1.024" color-interpolation-filters="sRGB">
            <feGaussianBlur stdDeviation="0.021214631"/>
        </filter>
    </defs>
    <g transform="translate(-8.9009608e-7,-288.53332)">
        <path d="m0.62694255 295.69566c-0.008582-1e-3 -0.0331692-6e-3 -0.0546332-0.0114-0.176509-0.0424-0.31231409-0.18652-0.33798798-0.35863-0.004294-0.0289-0.005458-0.37603-0.004345-2.05398l0.001552-2.28841 0.014355-0.0435c0.0530662-0.1607 0.18174296-0.27436 0.34830389-0.30765 0.0308206-6e-3 0.17307414-7e-3 0.97879504-7e-3 0.5185025-4e-5 0.9455734-2e-3 0.949046-4e-3 0.00486-3e-3 0.00668-0.11786 0.0079-0.50036l0.0016-0.49654 0.011681-0.0395c0.04903-0.16599 0.1904952-0.28744 0.3653462-0.31365 0.046795-7e-3 2.3986905-7e-3 2.4454854 0 0.1748572 0.0262 0.3164232 0.14775 0.3653219 0.31365l0.011655 0.0395 0.00166 0.49655c0.00129 0.3815 0.00305 0.49744 0.00793 0.50036 0.00341 2e-3 0.4305212 4e-3 0.9490236 4e-3 1.0241616 8e-5 0.9705633-2e-3 1.0506789 0.0273 0.05319 0.0189 0.1025125 0.0487 0.1463479 0.0883 0.067425 0.0608 0.1093067 0.12736 0.1326612 0.21074l0.011769 0.042v4.33769l-0.011412 0.0395c-0.048931 0.16954-0.1875384 0.29143-0.3658176 0.32171-0.032393 6e-3 -0.6311472 7e-3 -3.5251428 6e-3 -1.9173641-3.1e-4 -3.4931412-2e-3 -3.5017263-3e-3zm4.5345542-5.20458c0.041462-0.0186 0.059912-0.0355 0.07918-0.0727l0.017081-0.033v-0.57376l-0.017081-0.033c-0.019269-0.0371-0.037721-0.0541-0.07918-0.0727l-0.028617-0.0128h-2.0032163l-0.028617 0.0128c-0.041461 0.0186-0.059911 0.0355-0.07918 0.0727l-0.017081 0.033v0.57354l0.013481 0.0272c0.00741 0.0149 0.019512 0.034 0.026889 0.0422 0.016662 0.0187 0.05881 0.0409 0.088272 0.0465 0.012239 3e-3 0.4671269 4e-3 1.0108568 4e-3l0.9886004-1e-3z" filter="url(#filter999)" opacity=".2" stroke-width=".00507119"/>
        <path d="m0.62694241 295.55878c-0.008586-1e-3 -0.0331689-6e-3 -0.0546326-0.0115-0.17650893-0.0424-0.31231404-0.18651-0.33798799-0.35863-0.004293-0.0288-0.005459-0.37603-0.004344-2.05398l0.001551-2.28841 0.0143553-0.0436c0.0530666-0.16071 0.18174293-0.27437 0.34830388-0.30766 0.0308212-6e-3 0.17307414-8e-3 0.9787951-8e-3 0.5185026-4e-5 0.9455734-3e-3 0.949046-4e-3 0.00486-3e-3 0.00669-0.1179 0.00791-0.50036l0.0016-0.49654 0.011674-0.0395c0.049029-0.166 0.1904952-0.28746 0.3653461-0.31366 0.046794-6e-3 2.3986904-6e-3 2.4454851 0 0.1748569 0.0261 0.3164228 0.14774 0.3653215 0.31366l0.011649 0.0395 0.00165 0.49655c0.00129 0.3815 0.00305 0.49744 0.00793 0.50036 0.00341 3e-3 0.4305211 4e-3 0.9490231 4e-3 1.0241622 9e-5 0.9705639-1e-3 1.0506789 0.0273 0.053192 0.0188 0.102513 0.0487 0.1463479 0.0883 0.067428 0.0609 0.1093076 0.12738 0.1326615 0.21074l0.011764 0.042v4.33767l-0.011405 0.0395c-0.04893 0.16955-0.187538 0.29144-0.365817 0.32172-0.032396 5e-3 -0.6311477 6e-3 -3.5251419 6e-3 -1.9173645-3.2e-4 -3.4931415-1e-3 -3.5017265-3e-3zm4.5345544-5.20458c0.041461-0.0186 0.059912-0.0355 0.07918-0.0727l0.017081-0.0329v-0.57375l-0.017081-0.0331c-0.01927-0.0372-0.037721-0.0541-0.07918-0.0727l-0.028617-0.0128h-2.0032163l-0.028617 0.0128c-0.041461 0.0186-0.059911 0.0355-0.079181 0.0727l-0.017081 0.0331v0.57353l0.013481 0.0272c0.00741 0.015 0.019512 0.034 0.02689 0.0422 0.016662 0.0187 0.05881 0.0409 0.088272 0.0465 0.012238 3e-3 0.4671266 4e-3 1.0108566 4e-3l0.9886005-6.8e-4z" fill="#8d6e63" stroke-width=".00507119"/>
        <circle cx="6.1156249" cy="294.4155" r="2.1214631" filter="url(#filter1007)" opacity=".2" stroke-width=".51729858"/>
        <circle cx="6.1156249" cy="294.32953" r="2.1214633" fill="#2196f3" stroke-width=".68973142"/>
        <g transform="matrix(.15202009 0 0 .15202009 -62.901494 261.79724)" fill="#fafafa">
            <path d="m456 206v6h2.5l-4.5 7-4.5-7h2.5v-6zm-8 14h12v2h-12z" fill="#fafafa"/>
        </g>
    </g>
</svg>
