<svg width="31.999998" height="31.999998" version="1.1" viewBox="0 0 8.4666662 8.4666668" xmlns="http://www.w3.org/2000/svg">
    <defs>
        <style id="current-color-scheme" type="text/css">.ColorScheme-Text { color:#5c616c; } .ColorScheme-Highlight { color:#5294e2; } .ColorScheme-ButtonBackground { color:#d3dae3; }</style>
        <style type="text/css">.ColorScheme-Text { color:#5c616c; } .ColorScheme-Highlight { color:#5294e2; } .ColorScheme-ButtonBackground { color:#d3dae3; }</style>
        <style type="text/css">.str0 {stroke:#4D4948;stroke-width:0.0123919}
    .str1 {stroke:#838281;stroke-width:0.229479;stroke-linecap:round}
    .fil2 {fill:none}
    .fil0 {fill:#4D4948}
    .fil1 {fill:white;fill-rule:nonzero}</style>
        <style type="text/css">.str0 {stroke:#4D4948;stroke-width:0.221746}
    .str1 {stroke:#00923F;stroke-width:0.887173}
    .str2 {stroke:#E77817;stroke-width:0.887173;stroke-linecap:round}
    .fil2 {fill:none}
    .fil0 {fill:#4D4948}
    .fil1 {fill:#B6DDC7}</style>
        <style type="text/css">.ColorScheme-Text { color:#5c616c; } .ColorScheme-Highlight { color:#5294e2; } .ColorScheme-ButtonBackground { color:#d3dae3; }</style>
        <style type="text/css">.ColorScheme-Text { color:#5c616c; } .ColorScheme-Highlight { color:#5294e2; } .ColorScheme-ButtonBackground { color:#d3dae3; }</style>
        <style type="text/css">.ColorScheme-Text { color:#5c616c; } .ColorScheme-Highlight { color:#5294e2; } .ColorScheme-ButtonBackground { color:#d3dae3; }</style>
        <style type="text/css">.str0 {stroke:#4D4948;stroke-width:0.0123919}
    .str1 {stroke:#838281;stroke-width:0.229479;stroke-linecap:round}
    .fil2 {fill:none}
    .fil0 {fill:#4D4948}
    .fil1 {fill:white;fill-rule:nonzero}</style>
        <style type="text/css">.str0 {stroke:#4D4948;stroke-width:0.221746}
    .str1 {stroke:#00923F;stroke-width:0.887173}
    .str2 {stroke:#E77817;stroke-width:0.887173;stroke-linecap:round}
    .fil2 {fill:none}
    .fil0 {fill:#4D4948}
    .fil1 {fill:#B6DDC7}</style>
        <style type="text/css">.ColorScheme-Text { color:#5c616c; } .ColorScheme-Highlight { color:#5294e2; } .ColorScheme-ButtonBackground { color:#d3dae3; }</style>
        <style type="text/css">.ColorScheme-Text { color:#5c616c; } .ColorScheme-Highlight { color:#5294e2; } .ColorScheme-ButtonBackground { color:#d3dae3; }</style>
        <style type="text/css">.ColorScheme-Text { color:#5c616c; } .ColorScheme-Highlight { color:#5294e2; } .ColorScheme-ButtonBackground { color:#d3dae3; }</style>
        <style type="text/css">.str0 {stroke:#4D4948;stroke-width:0.0123919}
    .str1 {stroke:#838281;stroke-width:0.229479;stroke-linecap:round}
    .fil2 {fill:none}
    .fil0 {fill:#4D4948}
    .fil1 {fill:white;fill-rule:nonzero}</style>
        <style type="text/css">.str0 {stroke:#4D4948;stroke-width:0.221746}
    .str1 {stroke:#00923F;stroke-width:0.887173}
    .str2 {stroke:#E77817;stroke-width:0.887173;stroke-linecap:round}
    .fil2 {fill:none}
    .fil0 {fill:#4D4948}
    .fil1 {fill:#B6DDC7}</style>
        <style type="text/css">.ColorScheme-Text { color:#5c616c; } .ColorScheme-Highlight { color:#5294e2; } .ColorScheme-ButtonBackground { color:#d3dae3; }</style>
        <filter id="filter917" x="-.012000068" y="-.011999932" width="1.0240001" height="1.0239999" color-interpolation-filters="sRGB">
            <feGaussianBlur stdDeviation="0.022155013"/>
        </filter>
        <filter id="filter963" x="-.014194737" y="-.010393064" width="1.0283895" height="1.0207861" color-interpolation-filters="sRGB">
            <feGaussianBlur stdDeviation="0.03437233"/>
        </filter>
    </defs>
    <g transform="translate(0,-288.53333)">
        <g fill-rule="evenodd">
            <path d="m3.4110409 288.93072-1.028361 0.34778-0.00155 5.2e-4h0.00155l0.2371947 6.46162 4.5532101 1.12345v4e-3l0.0021-3e-3 0.0093 2e-3 5.17e-4 -0.0176 0.738456-1.13843 0.269234-6.40271-5.16e-4 5.2e-4h-5.17e-4z" filter="url(#filter963)" opacity=".2" stroke-width=".03196646"/>
            <g stroke-width=".03196645">
                <path d="m8.1925642 289.04345-0.7479355 0.47414-5.0633784-0.50377 1.0299373-0.34832 4.7814401 0.37795z" fill="#1e88e5"/>
                <path d="m2.6201945 295.47554 4.5647122 1.12621 0.2667867-7.08424-5.0688128-0.50402 0.237186 6.46215z" fill="#64b5f6"/>
                <path d="m7.1731757 296.60273 0.7502364-1.15689 0.2692796-6.4027-0.748063 0.4743z" fill="#1e88e5"/>
            </g>
        </g>
        <g fill-rule="evenodd" stroke-width=".03196645">
            <path d="m2.5754424 294.24935 0.04573 1.22827 4.5627947 1.1255 0.050474-1.35039-4.6590116-1.00338z" fill="#cfd8dc"/>
            <path d="m7.1837562 296.60111c0.2473191-0.37381 0.4946387-0.74761 0.7419578-1.12141 0.016464-0.41994 0.032924-0.83989 0.049388-1.25983-0.2469781 0.3435-0.4939567 0.687-0.7409348 1.0305-0.016794 0.45024-0.033654 0.90049-0.050411 1.35074z" fill="#90a4ae"/>
            <path d="m2.3894629 289.20628 0.053608 1.46301 4.9345899 0.60098 0.062397-1.58931-5.0505311-0.47468z" fill="#cfd8dc"/>
            <path d="m7.3774371 291.27027c0.2489495-0.19232 0.4978985-0.38463 0.746848-0.57694 0.020854-0.50343 0.041703-1.00686 0.062557-1.51029-0.2493435 0.16597-0.4986875 0.33194-0.748031 0.49792-0.020464 0.52974-0.040868 1.05969-0.061374 1.58931z" fill="#90a4ae"/>
        </g>
        <g>
            <ellipse cx="2.3477805" cy="294.78448" rx="2.2154887" ry="2.2155139" filter="url(#filter917)" opacity=".2"/>
            <ellipse cx="2.3477805" cy="294.5199" rx="2.2154887" ry="2.2155139" fill="#2196f3"/>
            <ellipse cx="2.3477802" cy="294.5199" rx="2.1170225" ry="2.1170468" fill="#fafafa" opacity=".9"/>
            <ellipse cx="2.3477802" cy="294.5199" rx=".54156393" ry=".54157007" fill="#3689e6" opacity=".2"/>
            <ellipse cx="2.3477802" cy="294.5199" rx=".34463158" ry=".34463552" fill="#3689e6"/>
            <ellipse cx="2.3477802" cy="294.5199" rx=".24616541" ry=".24616823" fill="#fafafa"/>
        </g>
    </g>
</svg>
