<svg width="31.999998" height="31.999998" version="1.1" viewBox="0 0 8.4666662 8.4666662" xmlns="http://www.w3.org/2000/svg">
    <g transform="translate(0,-288.53333)">
        <path d="m5.526322 289.0625a1.6074607 1.6074609 0 0 0-1.6074604 1.60746 1.6074607 1.6074609 0 0 0 0.5793191 1.23536c-0.6584319 0.80133-1.3722233 1.87857-1.064997 2.49691 0.3094293 0.62278 1.1955418 0.67242 2.084948 0.67077 0.8894055-1e-3 1.7821443-0.0546 2.1046047-0.67077 0.3048751-0.58259-0.4402859-1.6365-1.1428037-2.44041a1.6074607 1.6074609 0 0 0 0.6538495-1.29186 1.6074607 1.6074609 0 0 0-1.6074602-1.60746z" fill="#8bc34a"/>
        <path d="m5.5263267 289.06258a1.6074546 1.6074546 0 0 0-1.6074543 1.60746 1.6074546 1.6074546 0 0 0 0.00122 0.0337 1.6074546 1.6074546 0 0 1 1.6062202-1.58368 1.6074546 1.6074546 0 0 1 1.6062488 1.57381 1.6074546 1.6074546 0 0 0 0.00119-0.0238 1.6074546 1.6074546 0 0 0-1.6074544-1.60746z" fill="#fff" opacity=".2" stroke-width=".0574091"/>
        <g transform="matrix(.52829921 0 0 .52830814 -.27451336 140.40201)" fill="#03a9f4">
            <path d="m6.085321 284.03559a3.0426379 3.0426381 0 0 0-3.0426374 3.04264 3.0426379 3.0426381 0 0 0 1.0965483 2.3383c-1.2462947 1.51679-2.5973754 3.55581-2.0158506 4.72622 0.5856949 1.17881 2.262949 1.27277 3.946437 1.26966 1.6834873-3e-3 3.3732845-0.10331 3.9836437-1.26966 0.577075-1.10275-0.8333835-3.0976-2.1631253-4.61925a3.0426379 3.0426381 0 0 0 1.2376216-2.44527 3.0426379 3.0426381 0 0 0-3.0426373-3.04264z"/>
            <path d="m6.0853295 284.03576a3.0426262 3.0426262 0 0 0-3.0426261 3.04263 3.0426262 3.0426262 0 0 0 0.0023 0.0637 3.0426262 3.0426262 0 0 1 3.0402902-2.99763 3.0426262 3.0426262 0 0 1 3.0403448 2.97894 3.0426262 3.0426262 0 0 0 0.0023-0.045 3.0426262 3.0426262 0 0 0-3.0426267-3.04263z" opacity=".2" stroke-width=".10866524"/>
        </g>
        <path d="m2.9403302 290.46033a1.6074546 1.6074546 0 0 0-1.6074544 1.60746 1.6074546 1.6074546 0 0 0 0.00122 0.0337 1.6074546 1.6074546 0 0 1 1.6062204-1.58369 1.6074546 1.6074546 0 0 1 1.6062487 1.57382 1.6074546 1.6074546 0 0 0 0.00122-0.0238 1.6074546 1.6074546 0 0 0-1.6074544-1.60745z" fill="#fff" opacity=".2" stroke-width=".0574091"/>
    </g>
</svg>
