<svg width="32" height="32" version="1.1" viewBox="0 0 8.4667 8.4667" xmlns="http://www.w3.org/2000/svg">
 <path d="m5.5263 0.52917a1.6075 1.6075 0 0 0-1.6075 1.6075 1.6075 1.6075 0 0 0 0.57932 1.2354c-0.65843 0.80133-1.3722 1.8786-1.065 2.4969 0.30943 0.62278 1.1955 0.67242 2.0849 0.67077 0.88941-1e-3 1.7821-0.0546 2.1046-0.67077 0.30488-0.58259-0.44029-1.6365-1.1428-2.4404a1.6075 1.6075 0 0 0 0.65385-1.2919 1.6075 1.6075 0 0 0-1.6075-1.6075z" fill="#8bc34a"/>
 <g transform="matrix(.5283 0 0 .52831 -.27451 -148.13)" fill="#03a9f4">
  <path d="m6.0853 284.04a3.0426 3.0426 0 0 0-3.0426 3.0426 3.0426 3.0426 0 0 0 1.0965 2.3383c-1.2463 1.5168-2.5974 3.5558-2.0159 4.7262 0.58569 1.1788 2.2629 1.2728 3.9464 1.2697 1.6835-3e-3 3.3733-0.10331 3.9836-1.2697 0.57708-1.1028-0.83338-3.0976-2.1631-4.6192a3.0426 3.0426 0 0 0 1.2376-2.4453 3.0426 3.0426 0 0 0-3.0426-3.0426z"/>
  <path d="m6.0853 284.04a3.0426 3.0426 0 0 0-3.0426 3.0426 3.0426 3.0426 0 0 0 0.0023 0.0637 3.0426 3.0426 0 0 1 3.0403-2.9976 3.0426 3.0426 0 0 1 3.0403 2.9789 3.0426 3.0426 0 0 0 0.0023-0.045 3.0426 3.0426 0 0 0-3.0426-3.0426z" opacity=".2" stroke-width=".10866"/>
 </g>
</svg>
