<svg version="1.1" viewBox="0 0 32 32" xmlns="http://www.w3.org/2000/svg">
    <defs>
        <filter id="filter838" x="-.012000001" y="-.011999999" width="1.024" height="1.024" color-interpolation-filters="sRGB">
            <feGaussianBlur stdDeviation="0.15000001"/>
        </filter>
    </defs>
    <ellipse cx="16" cy="16.999996" rx="15" ry="15.000003" filter="url(#filter838)" opacity=".2" stroke-width=".73170733"/>
    <ellipse cx="16" cy="15.999998" rx="15" ry="15.000003" fill="#666" stroke-width=".73170733"/>
    <path d="m16.000039 0.9999715a14.999943 14.999943 0 0 0-14.999943 14.99996 14.999943 14.999943 0 0 0 0.0113474 0.314029 14.999943 14.999943 0 0 1 14.988428-14.778118 14.999943 14.999943 0 0 1 14.988695 14.685979 14.999943 14.999943 0 0 0 0.011348-0.221842 14.999943 14.999943 0 0 0-14.999944-14.999959z" fill="#fff" opacity=".2" stroke-width=".53571236"/>
    <path class="ColorScheme-Text" d="m16.175808 4.0012435a12.001811 12.00028 0 0 0-8.6614637 3.5157088 12.001811 12.00028 0 0 0 0 16.969149 12.001811 12.00028 0 0 0 16.971312 0 12.001811 12.00028 0 0 0 0-16.969149 12.001811 12.00028 0 0 0-8.309848-3.5157088zm-0.328173 1.5000356a10.501585 10.500248 0 0 1 7.020589 2.5723263l-2.106761 2.1064956a12.001046 7.5006538 44.991678 0 0-8.136972-4.1133792 10.501585 10.500248 0 0 1 3.223144-0.5654427zm-4.541701 1.9600078a10.500916 6.0005228 44.992816 0 1 8.391892 3.7823131l-3.697825 3.697354-6.8272018-6.8263315a10.500916 6.0005228 44.992816 0 1 2.1331348-0.6533356zm12.631787 1.6641016a10.501585 10.500248 0 0 1 2.004211 10.21606 12.001046 7.5006538 44.991678 0 0-4.125623-8.094917zm-15.828558 0.046885 6.830132 6.8292615-3.700754 3.700282a10.500916 6.0005228 44.992816 0 1-3.129378-10.529551zm12.6523 3.1289765a10.500916 6.0005228 44.992816 0 1 3.129378 10.529544l-6.830134-6.829262zm-14.703392 0.36036a12.001046 7.5006538 44.991678 0 0 4.1256226 8.094917l-2.121413 2.121143a10.501585 10.500248 0 0 1-2.0042096-10.21606zm9.9419296 4.400493 6.827203 6.826334a10.500916 6.0005228 44.992816 0 1-10.525024-3.128983zm-4.76146 4.760855a12.001046 7.5006538 44.991678 0 0 8.136971 4.11338 10.501585 10.500248 0 0 1-10.243734-2.006886z" fill="#fff" stroke-width="1.500131"/>
</svg>
