<!-- Created with Inkscape (http://www.inkscape.org/) -->
<svg width="32" height="32" version="1.1" viewBox="0 0 32 32" xmlns="http://www.w3.org/2000/svg">
 <ellipse cx="16" cy="16" rx="15" ry="15" fill="#2e7d32" stroke-width=".73171"/>
 <path class="ColorScheme-Text" d="m16.176 4.0012a12.002 12 0 0 0-8.6615 3.5157 12.002 12 0 0 0 0 16.969 12.002 12 0 0 0 16.971 0 12.002 12 0 0 0 0-16.969 12.002 12 0 0 0-8.3098-3.5157zm-0.32817 1.5a10.502 10.5 0 0 1 7.0206 2.5723l-2.1068 2.1065a12.001 7.5007 44.992 0 0-8.137-4.1134 10.502 10.5 0 0 1 3.2231-0.56544zm-4.5417 1.96a10.501 6.0005 44.993 0 1 8.3919 3.7823l-3.6978 3.6974-6.8272-6.8263a10.501 6.0005 44.993 0 1 2.1331-0.65334zm12.632 1.6641a10.502 10.5 0 0 1 2.0042 10.216 12.001 7.5007 44.992 0 0-4.1256-8.0949zm-15.829 0.046885 6.8301 6.8293-3.7008 3.7003a10.501 6.0005 44.993 0 1-3.1294-10.53zm12.652 3.129a10.501 6.0005 44.993 0 1 3.1294 10.53l-6.8301-6.8293zm-14.703 0.36036a12.001 7.5007 44.992 0 0 4.1256 8.0949l-2.1214 2.1211a10.502 10.5 0 0 1-2.0042-10.216zm9.9419 4.4005 6.8272 6.8263a10.501 6.0005 44.993 0 1-10.525-3.129zm-4.7615 4.7609a12.001 7.5007 44.992 0 0 8.137 4.1134 10.502 10.5 0 0 1-10.244-2.0069z" fill="#fff" stroke-width="1.5001"/>
</svg>
