<?xml version="1.0" encoding="UTF-8" standalone="no"?>
<svg
   xmlns:dc="http://purl.org/dc/elements/1.1/"
   xmlns:cc="http://creativecommons.org/ns#"
   xmlns:rdf="http://www.w3.org/1999/02/22-rdf-syntax-ns#"
   xmlns:svg="http://www.w3.org/2000/svg"
   xmlns="http://www.w3.org/2000/svg"
   xmlns:sodipodi="http://sodipodi.sourceforge.net/DTD/sodipodi-0.dtd"
   xmlns:inkscape="http://www.inkscape.org/namespaces/inkscape"
   width="32"
   height="48"
   version="1"
   id="svg14"
   sodipodi:docname="tdepowersave.svg"
   inkscape:version="0.92.4 (5da689c313, 2019-01-14)">
  <metadata
     id="metadata20">
    <rdf:RDF>
      <cc:Work
         rdf:about="">
        <dc:format>image/svg+xml</dc:format>
        <dc:type
           rdf:resource="http://purl.org/dc/dcmitype/StillImage" />
        <dc:title></dc:title>
      </cc:Work>
    </rdf:RDF>
  </metadata>
  <defs
     id="defs18">
    <style
       type="text/css"
       id="current-color-scheme">
   .ColorScheme-Text { color:#5c616c; } .ColorScheme-Highlight { color:#5294e2; } .ColorScheme-ButtonBackground { color:#d3dae3; }
  </style>
    <filter
       inkscape:collect="always"
       style="color-interpolation-filters:sRGB"
       id="filter4760"
       x="-0.010615385"
       width="1.0212308"
       y="-0.0138"
       height="1.0276">
      <feGaussianBlur
         inkscape:collect="always"
         stdDeviation="0.17844827"
         id="feGaussianBlur4762" />
    </filter>
  </defs>
  <sodipodi:namedview
     pagecolor="#ffffff"
     bordercolor="#666666"
     borderopacity="1"
     objecttolerance="10"
     gridtolerance="10"
     guidetolerance="10"
     inkscape:pageopacity="0"
     inkscape:pageshadow="2"
     inkscape:window-width="1362"
     inkscape:window-height="695"
     id="namedview16"
     showgrid="false"
     inkscape:zoom="16.09375"
     inkscape:cx="16"
     inkscape:cy="16"
     inkscape:window-x="0"
     inkscape:window-y="0"
     inkscape:window-maximized="1"
     inkscape:current-layer="svg14" />
  <path
     inkscape:connector-curvature="0"
     d="m 4.3999995,16.499999 v 1.607144 H 0.5 V 19.714285 37.39286 C 0.5,38.283213 1.0798,39 1.8,39 h 10.4 c 0.7202,0 1.3,-0.716787 1.3,-1.60714 V 19.714285 18.107143 H 9.6 v -1.607144 z"
     style="opacity:1;fill:#f9ce1d;stroke-width:1.44543612"
     id="path6763"
     sodipodi:nodetypes="ccccssssccccc" />
  <path
     inkscape:connector-curvature="0"
     d="M 0.49999993,24.535713 V 37.39286 C 0.49999993,38.283213 1.0797999,39 1.7999999,39 H 12.2 c 0.7202,0 1.3,-0.716787 1.3,-1.60714 V 24.535713 Z"
     style="fill:#263238;stroke-width:1.44543612"
     id="path6765"
     sodipodi:nodetypes="csssscc" />
  <g
     id="layer9"
     inkscape:label="status"
     style="display:inline"
     transform="matrix(0.5,0,0,0.5,-138.7747,156.13182)" />
  <g
     id="layer1"
     inkscape:label="places"
     style="display:inline"
     transform="matrix(0.5,0,0,0.5,-18.274603,-152.36818)" />
  <g
     id="layer14"
     inkscape:label="mimetypes"
     style="display:inline"
     transform="matrix(0.5,0,0,0.5,-138.7747,156.13182)" />
  <g
     id="layer15"
     inkscape:label="emblems"
     style="display:inline"
     transform="matrix(0.5,0,0,0.5,-138.7747,156.13182)" />
  <g
     id="g71291"
     inkscape:label="emotes"
     style="display:inline"
     transform="matrix(0.5,0,0,0.5,-138.7747,156.13182)" />
  <g
     id="layer2"
     inkscape:label="categories"
     style="display:inline"
     transform="matrix(0.5,0,0,0.5,-18.274603,-77.36818)" />
  <g
     id="layer12"
     inkscape:label="actions"
     style="display:inline"
     transform="matrix(0.5,0,0,0.5,-138.7747,156.13182)" />
  <rect
     style="fill:#1a1a1a;stroke-width:0.38793102"
     width="2.7155173"
     height="22.5"
     x="-46.5"
     y="-31.5"
     rx="0.96982759"
     ry="0.96982759"
     transform="matrix(0,-1,-1,0,0,0)"
     id="rect4703" />
  <rect
     style="opacity:0.2;fill:#000000;stroke-width:0.7758621;filter:url(#filter4760)"
     width="40.344826"
     height="31.034483"
     x="20.327579"
     y="26.310516"
     rx="1.9396552"
     ry="1.9396552"
     id="rect4707-6"
     transform="matrix(0.5,0,0,0.5,0,16)" />
  <rect
     style="fill:#1a1a1a;stroke-width:0.38793102"
     width="20.172413"
     height="15.517241"
     x="10.16379"
     y="28.655172"
     rx="0.96982759"
     ry="0.96982759"
     id="rect4707" />
  <rect
     style="opacity:1;fill:#2196f3;stroke-width:0.38793102"
     width="17.068966"
     height="12.413793"
     x="11.715514"
     y="30.206894"
     id="rect4709" />
  <path
     inkscape:connector-curvature="0"
     style="opacity:0.2;fill:#808080;stroke-width:0.38793102"
     d="m 11.133618,28.655172 c -0.537285,0 -0.969827,0.432543 -0.969827,0.969828 v 0.387933 c 0,-0.537286 0.432542,-0.96983 0.969827,-0.96983 h 18.232759 c 0.535346,0 0.969828,0.432544 0.969828,0.96983 V 29.625 c 0,-0.537285 -0.434482,-0.969828 -0.969828,-0.969828 z"
     id="path4711" />
</svg>
