<?xml version="1.0" encoding="UTF-8" standalone="no"?>
<svg
   xmlns:dc="http://purl.org/dc/elements/1.1/"
   xmlns:cc="http://creativecommons.org/ns#"
   xmlns:rdf="http://www.w3.org/1999/02/22-rdf-syntax-ns#"
   xmlns:svg="http://www.w3.org/2000/svg"
   xmlns="http://www.w3.org/2000/svg"
   xmlns:sodipodi="http://sodipodi.sourceforge.net/DTD/sodipodi-0.dtd"
   xmlns:inkscape="http://www.inkscape.org/namespaces/inkscape"
   width="32"
   height="32"
   version="1"
   id="svg14"
   sodipodi:docname="tdepowersave.svg"
   inkscape:version="0.92.1 r15371">
  <metadata
     id="metadata20">
    <rdf:RDF>
      <cc:Work
         rdf:about="">
        <dc:format>image/svg+xml</dc:format>
        <dc:type
           rdf:resource="http://purl.org/dc/dcmitype/StillImage" />
        <dc:title></dc:title>
      </cc:Work>
    </rdf:RDF>
  </metadata>
  <defs
     id="defs18">
    <style
       type="text/css"
       id="current-color-scheme">
   .ColorScheme-Text { color:#5c616c; } .ColorScheme-Highlight { color:#5294e2; } .ColorScheme-ButtonBackground { color:#d3dae3; }
  </style>
    <filter
       inkscape:collect="always"
       style="color-interpolation-filters:sRGB"
       id="filter4760"
       x="-0.010615385"
       width="1.0212308"
       y="-0.0138"
       height="1.0276">
      <feGaussianBlur
         inkscape:collect="always"
         stdDeviation="0.17844827"
         id="feGaussianBlur4762" />
    </filter>
  </defs>
  <sodipodi:namedview
     pagecolor="#ffffff"
     bordercolor="#666666"
     borderopacity="1"
     objecttolerance="10"
     gridtolerance="10"
     guidetolerance="10"
     inkscape:pageopacity="0"
     inkscape:pageshadow="2"
     inkscape:window-width="1366"
     inkscape:window-height="703"
     id="namedview16"
     showgrid="false"
     inkscape:zoom="11.976621"
     inkscape:cx="6.1313144"
     inkscape:cy="11.212549"
     inkscape:window-x="-3"
     inkscape:window-y="-4"
     inkscape:window-maximized="1"
     inkscape:current-layer="svg14"
     fit-margin-top="0"
     fit-margin-left="0"
     fit-margin-right="0"
     fit-margin-bottom="0" />
  <g
     id="g4695"
     transform="matrix(0.40624998,0,0,0.40909091,-31.300414,-0.90548385)">
    <path
       sodipodi:nodetypes="ccccssssccccc"
       id="path6763"
       style="opacity:1;fill:#f9c440;stroke-width:3.54562116"
       d="m 87.877948,3.4356272 v 3.9285715 h -9.6 V 11.29277 54.507056 c 0,2.176428 1.4272,3.928571 3.2,3.928571 h 25.600002 c 1.7728,0 3.2,-1.752143 3.2,-3.928571 V 11.29277 7.3641987 h -9.6 V 3.4356272 Z"
       inkscape:connector-curvature="0" />
    <path
       sodipodi:nodetypes="csssscc"
       id="path6765"
       style="fill:#0e141f;stroke-width:3.54562116"
       d="m 78.277948,23.078484 v 31.428572 c 0,2.176428 1.4272,3.928571 3.2,3.928571 h 25.600002 c 1.7728,0 3.2,-1.752143 3.2,-3.928571 V 23.078484 Z"
       inkscape:connector-curvature="0" />
  </g>
  <g
     id="layer9"
     inkscape:label="status"
     style="display:inline"
     transform="matrix(0.5,0,0,0.5,-138.7747,140.13182)" />
  <g
     id="layer1"
     inkscape:label="places"
     style="display:inline"
     transform="matrix(0.5,0,0,0.5,-18.274602,-168.36818)" />
  <g
     id="layer14"
     inkscape:label="mimetypes"
     style="display:inline"
     transform="matrix(0.5,0,0,0.5,-138.7747,140.13182)" />
  <g
     id="layer15"
     inkscape:label="emblems"
     style="display:inline"
     transform="matrix(0.5,0,0,0.5,-138.7747,140.13182)" />
  <g
     id="g71291"
     inkscape:label="emotes"
     style="display:inline"
     transform="matrix(0.5,0,0,0.5,-138.7747,140.13182)" />
  <g
     id="layer2"
     inkscape:label="categories"
     style="display:inline"
     transform="matrix(0.5,0,0,0.5,-18.274602,-93.36818)" />
  <g
     id="layer12"
     inkscape:label="actions"
     style="display:inline"
     transform="matrix(0.5,0,0,0.5,-138.7747,140.13182)" />
  <rect
     style="fill:#1a1a1a;stroke-width:0.38793105"
     width="2.7155173"
     height="22.5"
     x="-30.5"
     y="-31.5"
     rx="0.96982759"
     ry="0.96982759"
     transform="matrix(0,-1,-1,0,0,0)"
     id="rect4703" />
  <rect
     style="opacity:0.2;fill:#000000;stroke-width:0.7758621;filter:url(#filter4760)"
     width="40.344826"
     height="31.034483"
     x="20.327579"
     y="26.310516"
     rx="1.9396552"
     ry="1.9396552"
     id="rect4707-6"
     transform="scale(0.5)" />
  <rect
     style="fill:#1a1a1a;stroke-width:0.38793105"
     width="20.172413"
     height="15.517241"
     x="10.16379"
     y="12.655172"
     rx="0.96982759"
     ry="0.96982759"
     id="rect4707" />
  <rect
     style="opacity:1;fill:#3689e6;stroke-width:0.38793105"
     width="17.068966"
     height="12.413794"
     x="11.715514"
     y="14.206897"
     id="rect4709" />
  <path
     inkscape:connector-curvature="0"
     style="opacity:0.2;fill:#7e8087;stroke-width:0.38793105"
     d="m 11.133618,12.655173 c -0.537284,0 -0.969827,0.432543 -0.969827,0.969827 v 0.387931 c 0,-0.537284 0.432543,-0.969827 0.969827,-0.969827 h 18.232759 c 0.535344,0 0.969827,0.432543 0.969827,0.969827 V 13.625 c 0,-0.537284 -0.434483,-0.969827 -0.969827,-0.969827 z"
     id="path4711" />
</svg>
