<!-- Created with Inkscape (http://www.inkscape.org/) -->
<svg width="32" height="32" version="1.1" viewBox="0 0 32 32" xmlns="http://www.w3.org/2000/svg">
 <g>
  <path d="m7.9577 2.0024c-0.063109 0.0064939-0.12406 0.034424-0.17146 0.082097l-2.1935 2.1931c-0.092225 0.092489-0.1096 0.23591-0.041607 0.3479l2.5682 4.2297c-0.45549 0.76576-0.82056 1.5914-1.0815 2.4624l-4.7147 0.98067c-0.13118 0.02715-0.22569 0.1434-0.22569 0.27801v3.1016c0 0.13117 0.089743 0.24478 0.21614 0.27534l4.5761 1.1185c0.24403 1.0087 0.62218 1.965 1.122 2.8439l-2.6487 4.0392c-0.0739 0.11288-0.058454 0.26159 0.037024 0.35668l2.1928 2.1932c0.092226 0.09197 0.2362 0.11002 0.34866 0.04235l4.1507-2.5208c0.81532 0.47048 1.6946 0.84072 2.6239 1.0918l0.96845 4.6563c0.02725 0.13194 0.14388 0.2257 0.27763 0.2257h3.102c0.13041 0 0.24421-0.08898 0.27534-0.21692l1.1407-4.6658c0.95795-0.25853 1.864-0.64385 2.6991-1.1357l4.0903 2.682c0.11247 0.07404 0.26121 0.05924 0.35668-0.03624l2.1935-2.1932c0.09279-0.09275 0.1094-0.23618 0.04122-0.34788l-2.7918-3.5363c-1.2533-1.7192-1.0979-1.543-1.5555-2.0316-1.4704 2.8779-4.4621 4.8491-7.9168 4.8491-4.9082 0-8.8875-3.9794-8.8875-8.8879 0-3.6109 2.1537-6.7162 5.2455-8.1073v-2.2928c-0.5627 0.19685-1.1067 0.43419-1.6234 0.71564-3.78e-4 -3.509e-4 -7.81e-4 -0.00129-0.0022-0.00262l-4.1866-2.7459c-0.056384-0.036894-0.12173-0.05157-0.18483-0.045076z" fill="#b0bec5" stroke-width=".34369"/>
  <g stroke-width=".4597">
   <ellipse cx="17.727" cy="14.37" rx="9.4238" ry="9.4238" fill="#206b00"/>
   <ellipse cx="16.576" cy="16.796" rx="5.7462" ry="5.7462" fill="#fafafa"/>
   <path d="m11.519 16.452 5.5162 5.0567 2.7584-7.585z" fill="#1a1a1a"/>
  </g>
 </g>
</svg>
