<svg version="1.1" viewBox="0 0 32 32" xmlns="http://www.w3.org/2000/svg" xmlns:osb="http://www.openswatchbook.org/uri/2009/osb">
    <defs>
        <filter id="filter852" x="-.012000001" y="-.011999999" width="1.024" height="1.024" color-interpolation-filters="sRGB">
            <feGaussianBlur stdDeviation="0.094237866"/>
        </filter>
        <filter id="filter883" x="-.012042035" y="-.011958257" width="1.0240841" height="1.0239165" color-interpolation-filters="sRGB">
            <feGaussianBlur stdDeviation="0.13951301"/>
        </filter>
    </defs>
    <g>
        <path d="m7.9577281 3.0023966c-0.06311 0.00649-0.12406 0.034424-0.171459 0.082097l-2.193532 2.1931382c-0.09223 0.092489-0.109599 0.2359111-0.04161 0.3478977l2.568153 4.2297213c-0.455486 0.7657612-0.820559 1.5913902-1.081481 2.4623692l-4.714714 0.980667c-0.131177 0.02715-0.225686 0.143395-0.225686 0.278012v3.101644c0 0.131172 0.08974 0.244783 0.216138 0.275337l4.576088 1.118527c0.244028 1.008737 0.622182 1.96497 1.121973 2.843872l-2.648732 4.039159c-0.0739 0.112882-0.05845 0.261592 0.03702 0.356678l2.192762 2.193152c0.09223 0.09197 0.236202 0.110025 0.348661 0.04235l4.1506699-2.520798c0.815316 0.470484 1.694598 0.840725 2.623911 1.091808l0.968448 4.656273c0.02725 0.131938 0.143879 0.225699 0.277627 0.225699h3.102028c0.130407 0 0.24421-0.08898 0.275336-0.216919l1.140676-4.66582c0.957949-0.258527 1.863966-0.643849 2.699137-1.135716l4.090332 2.681952c0.112467 0.07404 0.261211 0.05924 0.356677-0.03624l2.193534-2.193152c0.09279-0.09275 0.109401-0.236183 0.04122-0.347885l-2.791829-3.536317c-1.253345-1.719157-1.097948-1.543049-1.555509-2.031554-1.470432 2.877853-4.46209 4.849124-7.916781 4.849124-4.908224 0-8.8875289-3.979392-8.8875289-8.887905 0-3.610878 2.1537209-6.7162394 5.2455279-8.1073364v-2.2928111c-0.562698 0.1968503-1.106687 0.4341904-1.623378 0.7156443-3.78e-4 -3.509e-4 -7.81e-4 -0.00129-0.0022-0.00262l-4.1865599-2.7458792c-0.05638-0.036894-0.121732-0.05157-0.184827-0.045076z" filter="url(#filter883)" opacity=".2" stroke-width=".34369338"/>
        <path d="m7.9577266 2.0023966c-0.0631087 0.0064939-0.1240606 0.0344239-0.1714596 0.0820971l-2.1935314 2.1931382c-0.0922249 0.0924888-0.1095991 0.2359111-0.0416072 0.3478977l2.5681532 4.2297213c-0.4554888 0.7657607-0.8205626 1.5913901-1.0814838 2.4623691l-4.7147143 0.980667c-0.1311773 0.02715-0.2256863 0.143395-0.2256863 0.278012v3.101644c0 0.131172 0.089743 0.244783 0.2161384 0.275337l4.5760881 1.118527c0.2440278 1.008737 0.6221818 1.96497 1.1219726 2.843872l-2.6487321 4.039159c-0.0739 0.112882-0.058454 0.261592 0.037024 0.356678l2.1927624 2.193152c0.092226 0.09197 0.2362019 0.110025 0.3486608 0.04235l4.1506696-2.520798c0.815316 0.470484 1.694598 0.840725 2.623911 1.091808l0.968448 4.656273c0.02725 0.131938 0.143879 0.225699 0.277627 0.225699h3.102028c0.130407 0 0.24421-0.08898 0.275336-0.216919l1.140676-4.66582c0.957949-0.258527 1.863966-0.643849 2.699137-1.135716l4.090332 2.681952c0.112467 0.07404 0.261211 0.05924 0.356677-0.03624l2.193534-2.193152c0.09279-0.09275 0.109401-0.236183 0.04122-0.347885l-2.791829-3.536317c-1.253345-1.719157-1.097948-1.543049-1.555509-2.031554-1.470432 2.877853-4.46209 4.849124-7.916781 4.849124-4.908224 0-8.8875291-3.979392-8.8875291-8.887905 0-3.610878 2.1537211-6.7162394 5.2455281-8.1073364v-2.2928111c-0.562702 0.1968503-1.106691 0.4341904-1.623382 0.7156443-3.78e-4 -3.509e-4 -7.81e-4 -0.00129-0.0022-0.00262l-4.1865592-2.7458792c-0.0563842-0.036894-0.1217328-0.0515704-0.1848276-0.0450756z" fill="#b0bec5" stroke-width=".34369338"/>
        <ellipse cx="17.727093" cy="15.370213" rx="9.4237862" ry="9.4237871" filter="url(#filter852)" opacity=".2" stroke-width=".45969689"/>
        <ellipse cx="17.727093" cy="14.370305" rx="9.4237862" ry="9.4237871" fill="#206b00" stroke-width=".45969689"/>
    </g>
    <path d="m17.727118 4.9465026a9.4237514 9.4237514 0 0 0-9.4237507 9.4237604 9.4237514 9.4237514 0 0 0 0.00713 0.197289 9.4237514 9.4237514 0 0 1 9.4165157-9.2843877 9.4237514 9.4237514 0 0 1 9.416685 9.2265017 9.4237514 9.4237514 0 0 0 0.0071-0.139372 9.4237514 9.4237514 0 0 0-9.423751-9.4237612z" fill="#fff" opacity=".2" stroke-width=".33656257"/>
    <ellipse cx="16.5758" cy="16.796364" rx="5.7462111" ry="5.7462115" fill="#fafafa" stroke-width=".45969689"/>
    <path d="m11.519136 16.45159 5.516167 5.056667 2.758376-7.584999z" fill="#1a1a1a" stroke-width=".45969689"/>
</svg>
