<?xml version="1.0" encoding="UTF-8" standalone="no"?>
<!-- Created with Inkscape (http://www.inkscape.org/) -->

<svg
   xmlns:osb="http://www.openswatchbook.org/uri/2009/osb"
   xmlns:dc="http://purl.org/dc/elements/1.1/"
   xmlns:cc="http://creativecommons.org/ns#"
   xmlns:rdf="http://www.w3.org/1999/02/22-rdf-syntax-ns#"
   xmlns:svg="http://www.w3.org/2000/svg"
   xmlns="http://www.w3.org/2000/svg"
   xmlns:sodipodi="http://sodipodi.sourceforge.net/DTD/sodipodi-0.dtd"
   xmlns:inkscape="http://www.inkscape.org/namespaces/inkscape"
   version="1.1"
   id="svg2"
   width="32"
   height="32"
   viewBox="0 0 32 32"
   sodipodi:docname="tdevelop.svg"
   inkscape:version="0.92.4 (5da689c313, 2019-01-14)"
   inkscape:export-filename="/home/john/Nextcloud/Q4OS Stuff/tdevelop.png"
   inkscape:export-xdpi="96"
   inkscape:export-ydpi="96">
  <metadata
     id="metadata8">
    <rdf:RDF>
      <cc:Work
         rdf:about="">
        <dc:format>image/svg+xml</dc:format>
        <dc:type
           rdf:resource="http://purl.org/dc/dcmitype/StillImage" />
        <dc:title />
      </cc:Work>
    </rdf:RDF>
  </metadata>
  <defs
     id="defs6">
    <linearGradient
       id="linearGradient5460"
       osb:paint="gradient">
      <stop
         style="stop-color:#e6e6e6;stop-opacity:1"
         offset="0"
         id="stop5462" />
      <stop
         style="stop-color:#ffffff;stop-opacity:1"
         offset="1"
         id="stop5464" />
    </linearGradient>
    <linearGradient
       id="linearGradient5476"
       osb:paint="solid">
      <stop
         style="stop-color:#772953;stop-opacity:1;"
         offset="0"
         id="stop5478" />
    </linearGradient>
  </defs>
  <sodipodi:namedview
     pagecolor="#ffffff"
     bordercolor="#666666"
     borderopacity="1"
     objecttolerance="10"
     gridtolerance="10"
     guidetolerance="10"
     inkscape:pageopacity="0"
     inkscape:pageshadow="2"
     inkscape:window-width="1362"
     inkscape:window-height="695"
     id="namedview4"
     showgrid="false"
     fit-margin-top="0"
     fit-margin-left="0"
     fit-margin-right="0"
     fit-margin-bottom="0"
     showguides="true"
     inkscape:zoom="16.09375"
     inkscape:cx="16"
     inkscape:cy="16"
     inkscape:window-x="0"
     inkscape:window-y="0"
     inkscape:window-maximized="1"
     inkscape:current-layer="svg2"
     inkscape:snap-grids="true" />
  <path
     style="fill:#cfd8dc;fill-opacity:1;stroke-width:0.31914383"
     d="M 8.5321749,3.002226 C 8.4735739,3.008256 8.4169757,3.034191 8.3729624,3.078459 L 6.3361118,5.1149444 C 6.2504744,5.2008269 6.2343412,5.3340047 6.2974766,5.4379923 L 8.6821902,9.3655905 C 8.2592363,10.076654 7.9202392,10.84331 7.6779553,11.652076 l -4.3779489,0.910619 c -0.1218075,0.02521 -0.2095659,0.133153 -0.2095659,0.258154 v 2.880098 c 0,0.121803 0.083333,0.227299 0.2007,0.25567 L 7.540365,16.99525 c 0.2265973,0.936684 0.5777403,1.824615 1.0418317,2.640738 l -2.4595369,3.750647 c -0.068621,0.104819 -0.054279,0.242907 0.034379,0.331201 l 2.0361365,2.036499 c 0.085638,0.0854 0.2193303,0.102166 0.3237564,0.03932 l 3.8541933,-2.340741 c 0.757079,0.436878 1.573556,0.780673 2.436488,1.013822 l 0.899273,4.323682 C 15.732191,28.912936 15.840489,29 15.964684,29 h 2.880454 c 0.121092,0 0.226767,-0.08262 0.255669,-0.201425 l 1.059199,-4.332547 c 0.889524,-0.240061 1.730826,-0.59786 2.506342,-1.054593 l 3.798165,2.490384 c 0.104434,0.06875 0.242553,0.05501 0.3312,-0.03365 l 2.036853,-2.036498 c 0.08616,-0.08612 0.101587,-0.219313 0.03828,-0.323036 l -2.592413,-3.283723 c -1.16382,-1.59636 -1.019523,-1.432831 -1.444401,-1.886443 -1.365401,2.672292 -4.143369,4.502758 -7.351297,4.502758 -4.557636,0 -8.252705,-3.69515 -8.252705,-8.253055 0,-3.352958 1.999884,-6.2365074 4.870847,-7.5282403 V 4.930891 c -0.522509,0.1827895 -1.027641,0.4031768 -1.507426,0.6645268 -3.51e-4,-3.258e-4 -7.25e-4,-0.0012 -0.002,-0.00243 L 8.7038855,3.04324 C 8.6515288,3.0089813 8.5908479,2.9953532 8.5322599,3.0013841 Z"
     id="path5692_2_-3"
     inkscape:connector-curvature="0"
     sodipodi:nodetypes="cccccccssccccccccccsscccccccccssccccccc" />
  <ellipse
     style="opacity:1;fill:#206b00;fill-opacity:1;stroke-width:0.42686138"
     id="path5219-3"
     cx="17.603729"
     cy="14.486712"
     rx="8.750658"
     ry="8.750659" />
  <path
     inkscape:connector-curvature="0"
     style="opacity:0.2;fill:#ffffff;stroke-width:0.31252238"
     d="m 17.603752,5.7360386 a 8.7506261,8.7506261 0 0 0 -8.7506251,8.7506344 8.7506261,8.7506261 0 0 0 0.00662,0.183197 8.7506261,8.7506261 0 0 1 8.7439071,-8.6212169 8.7506261,8.7506261 0 0 1 8.744064,8.5674659 8.7506261,8.7506261 0 0 0 0.0066,-0.129417 8.7506261,8.7506261 0 0 0 -8.750626,-8.7506353 z"
     id="path5512-1" />
  <ellipse
     style="opacity:1;fill:#fafafa;fill-opacity:1;stroke-width:0.42686138"
     id="path5219-3-6"
     cx="16.534672"
     cy="16.739481"
     rx="5.3357673"
     ry="5.3357677" />
  <path
     style="fill:#1a1a1a;fill-opacity:1;stroke-width:0.42686138"
     d="m 11.839198,16.419334 5.122155,4.695476 2.561349,-7.043213 z"
     id="path4661"
     inkscape:connector-curvature="0"
     sodipodi:nodetypes="cccc" />
</svg>
