<svg width="32" height="32" version="1" xmlns="http://www.w3.org/2000/svg">
 <path d="m26 28.6v-25.2c0-0.7756-0.61325-1.4-1.375-1.4h-19.25c-0.7618 0-1.375 0.6244-1.375 1.4v25.2c0 0.776 0.6132 1.4 1.375 1.4h19.25c0.762 0 1.375-0.624 1.375-1.4z" fill="#c46c6c"/>
 <path d="m6.8423 3.0001v0.7027h2.0343v-0.7027zm2.7124 0v0.7027h2.0343v-0.7027zm2.7124 0v0.7027h1.8833v-0.7027zm2.5614 0v0.7027h1.6952v-0.7027zm2.3733 0v0.7027h2.0343v-0.7027zm2.7124 0v0.7027h2.0343v-0.7027zm2.7124 0v0.7027h0.65691l0.22647 0.021959 0.19204 0.063134 0.17217 0.097444 0.14966 0.12627 0.12317 0.15509 0.02119 0.027449 0.13509-0.11529 0.43971-0.24704-0.01457-0.028822-0.0159-0.030194-0.02119-0.026076-0.16555-0.20861-0.01986-0.026076-0.02516-0.020587-0.20131-0.17156-0.02516-0.021959-0.02914-0.016469-0.23045-0.12901-0.02914-0.016469-0.03179-0.00961-0.25561-0.082348-0.03179-0.00961-0.03443-0.00412-0.27283-0.028822-0.01722-0.00137h-0.69532zm-16.494 0.0206-0.0861 0.0096-0.0345 0.0041-0.0317 0.0096-0.2557 0.0824-0.031782 0.00961-0.029138 0.016469-0.23045 0.12901-0.029138 0.016469-0.025165 0.021959-0.20132 0.17156-0.025164 0.020587-0.019867 0.026076-0.13112 0.1647h1.1973l-0.066221-0.68211zm18.858 1.6044-0.67545 0.069996 8e-3 0.08372v1.9887h0.6781v-2.0285l-0.0014-0.017842-0.0093-0.096072zm-0.6675 2.8451v2.1081h0.6781v-2.1081zm0 2.8108v2.1081h0.6781v-2.1081zm0 2.8108v2.1081h0.6781v-2.1081zm0 2.8108v2.1081h0.6781v-2.1081zm0 2.8108v2.1081h0.6781v-2.1081zm0 2.8108v2.1081h0.6781v-2.1081zm0 2.8108v2.1081h0.6781v-2.1081zm0 2.8108v0.07549l-0.02119 0.23469-0.06093 0.19901-0.09404 0.17842-0.12185 0.15509-0.14966 0.12627-0.17217 0.09744-0.19072 0.06176-0.05298 0.0055 0.06754 0.69996 0.08609-0.0096 0.03443-0.0041 0.03179-0.0096 0.25561-0.08235 0.03179-0.0096 0.02914-0.01647 0.23045-0.12901 0.02914-0.01647 0.02517-0.02196 0.20131-0.17156 0.02516-0.02059 0.01986-0.02608 0.16555-0.20861 0.02119-0.02608 0.0159-0.0302 0.1245-0.23881 0.0159-0.0302 0.0093-0.03294 0.07947-0.26488 0.0093-0.03294 0.0039-0.03569 0.02782-0.28273 0.0013-0.01781v-0.11528h-0.6781zm-19.322 1.1515 0.13112 0.1647 0.019867 0.02608 0.025164 0.02059 0.20131 0.17156 0.025164 0.02196 0.029138 0.01647 0.23045 0.12901 0.029138 0.01647 0.031782 0.0096 0.25561 0.08235 0.031782 0.0096 0.034434 0.0041 0.27283 0.02882 0.017217 0.0014h0.69532v-0.7027h-2.0303zm2.7084 0v0.7027h2.0343v-0.7027zm2.7124 0v0.7027h2.0343v-0.7027zm2.7124 0v0.7027h1.6952v-0.7027zm2.3733 0v0.7027h1.8833v-0.7027zm2.5614 0v0.7027h2.0343v-0.7027zm2.7124 0v0.7027h2.0343v-0.7027z" fill="#fff"/>
 <path d="m21.4 12h5.6v8h-5.6c-0.776 0-1.4-0.595-1.4-1.333v-5.3333c0-0.739 0.624-1.334 1.4-1.334z" fill="#9b3e3e"/>
 <path d="m22.088 13v0.14285l-0.01494-0.14173-0.05515 0.0057 0.03102 0.28346 0.03907-0.0049h0.58822v-0.28569h-0.58825zm0.88234 0v0.28569h0.58824v-0.28569zm0.88234 0v0.28569h0.58824v-0.28569zm0.88234 0v0.28569h0.58824v-0.28569zm0.88234 0v0.28569h0.38259v-0.2857h-0.38259zm-3.9143 0.07369-0.02643 0.0077-0.01494 0.0049-0.01263 0.0065-0.1597 0.08816-0.01263 0.0065-0.01148 0.0086-0.13902 0.11606-0.01034 0.0086-0.0092 0.01118-0.11489 0.14061-8e-3 0.01118-0.0069 0.01227-0.0035 0.0065 0.16774 0.08479 0.08157 0.06248 0.10799-0.13169 0.11374-0.09597 0.13557-0.07368 0.01263-0.0049-0.0012-0.0021 0.0022-8.47e-4 -0.0057-0.0086-0.08501-0.2589zm-0.65602 0.71645-0.02183 0.07255-0.0046 0.01227-0.0012 0.01449-0.01838 0.19194-0.0012 0.0065v0.31006h0.29412v-0.30371l0.01723-0.16628 0.01724-0.05693-0.28148-0.08149zm-0.0471 0.8939v0.57138h0.29412v-0.57138zm0 0.85706v0.57138h0.29412v-0.57138zm0 0.85707v0.57138h0.29412v-0.57138zm0 0.85706v0.57139h0.29412v-0.57139zm0.31135 0.81466-0.28148 0.08149 0.0494 0.16516 0.0046 0.01339 0.0069 0.01118 0.08617 0.16182 0.0069 0.01226 8e-3 0.01118 0.11489 0.14061 0.0092 0.01118 0.01034 0.0086 0.02873 0.02343 0.19187-0.2165-0.01608-0.01339-0.09881-0.12053-0.07468-0.1395-0.04596-0.15066zm0.45152 0.57138-0.14362 0.24887 0.02987 0.01676 0.01263 0.0065 0.01494 0.0049 0.17578 0.0558 0.01494 0.0049 0.01494 8.46e-4 0.19072 0.01899 8e-3 8.46e-4h0.18385v-0.28569h-0.17692l-0.16199-0.01788-0.14821-0.04685-0.01494-0.0077zm0.79619 0.07256v0.2857h0.58824v-0.2857zm0.88234 0v0.2857h0.58824v-0.2857zm0.88234 0v0.2857h0.58824v-0.2857zm0.88234 0v0.2857h0.58824v-0.2857z" fill="#fff"/>
 <path d="m25 16a1 1 0 0 1-1 1 1 1 0 0 1-1-1 1 1 0 0 1 1-1 1 1 0 0 1 1 1z" fill="#fff" stroke-width=".5"/>
</svg>
