<?xml version="1.0" encoding="UTF-8" standalone="no"?>
<!-- Created with Inkscape (http://www.inkscape.org/) -->

<svg
   xmlns:dc="http://purl.org/dc/elements/1.1/"
   xmlns:cc="http://creativecommons.org/ns#"
   xmlns:rdf="http://www.w3.org/1999/02/22-rdf-syntax-ns#"
   xmlns:svg="http://www.w3.org/2000/svg"
   xmlns="http://www.w3.org/2000/svg"
   xmlns:sodipodi="http://sodipodi.sourceforge.net/DTD/sodipodi-0.dtd"
   xmlns:inkscape="http://www.inkscape.org/namespaces/inkscape"
   width="32"
   height="32"
   viewBox="0 0 8.4666667 8.4666667"
   version="1.1"
   id="svg8"
   inkscape:version="0.92.1 r15371"
   sodipodi:docname="tdmconfig.svg"
   inkscape:export-filename="/home/john/Github/gui-art/icons_debonaire/drafts/jb/system-users.png"
   inkscape:export-xdpi="144"
   inkscape:export-ydpi="144">
  <defs
     id="defs2" />
  <sodipodi:namedview
     id="base"
     pagecolor="#ffffff"
     bordercolor="#666666"
     borderopacity="1.0"
     inkscape:pageopacity="0.0"
     inkscape:pageshadow="2"
     inkscape:zoom="16.6875"
     inkscape:cx="5.6629213"
     inkscape:cy="16"
     inkscape:document-units="mm"
     inkscape:current-layer="layer1"
     showgrid="false"
     units="px"
     inkscape:window-width="1362"
     inkscape:window-height="695"
     inkscape:window-x="0"
     inkscape:window-y="0"
     inkscape:window-maximized="1"
     fit-margin-top="0"
     fit-margin-left="0"
     fit-margin-right="0"
     fit-margin-bottom="0" />
  <metadata
     id="metadata5">
    <rdf:RDF>
      <cc:Work
         rdf:about="">
        <dc:format>image/svg+xml</dc:format>
        <dc:type
           rdf:resource="http://purl.org/dc/dcmitype/StillImage" />
        <dc:title />
      </cc:Work>
    </rdf:RDF>
  </metadata>
  <g
     inkscape:label="Layer 1"
     inkscape:groupmode="layer"
     id="layer1"
     transform="translate(-4.4504802e-7,-288.53331)">
    <path
       inkscape:connector-curvature="0"
       style="fill:#9575cd;stroke:none;stroke-width:0.04939571px;stroke-linecap:butt;stroke-linejoin:miter;stroke-opacity:1;fill-opacity:1"
       d="m 4.2333698,289.32706 a 1.8397657,1.8397658 0 0 0 -1.8397653,1.83977 1.8397657,1.8397658 0 0 0 0.6630404,1.41388 c -0.7535863,0.91714 -1.5705326,2.15006 -1.2189071,2.85777 0.3541471,0.71277 1.3683179,0.76959 2.3862582,0.76771 1.0179399,-0.002 2.0396949,-0.0625 2.4087554,-0.76771 0.3489352,-0.6668 -0.5039147,-1.87301 -1.3079582,-2.79309 a 1.8397657,1.8397658 0 0 0 0.748342,-1.47856 1.8397657,1.8397658 0 0 0 -1.8397654,-1.83977 z"
       id="path5217-2" />
    <path
       inkscape:connector-curvature="0"
       style="opacity:0.2;fill:#ffffff;stroke-width:0.06570568"
       d="m 4.233375,289.32717 a 1.8397586,1.8397586 0 0 0 -1.8397586,1.83976 1.8397586,1.8397586 0 0 0 0.00139,0.0385 1.8397586,1.8397586 0 0 1 1.8383461,-1.81255 1.8397586,1.8397586 0 0 1 1.8383794,1.80125 1.8397586,1.8397586 0 0 0 0.00139,-0.0272 1.8397586,1.8397586 0 0 0 -1.839759,-1.83977 z"
       id="path5512-7" />
  </g>
</svg>
