<svg width="32" height="32" version="1.1" viewBox="0 0 8.4666667 8.4666667" xmlns="http://www.w3.org/2000/svg">
    <defs>
        <filter id="filter848" x="-.014322446" y="-.010325651" width="1.0286449" height="1.0206513" color-interpolation-filters="sRGB">
            <feGaussianBlur stdDeviation="0.031872689"/>
        </filter>
    </defs>
    <path d="m4.2333721 0.79388686a1.9812479 1.981248 0 0 0-1.9812475 1.98125 1.9812479 1.981248 0 0 0 0.7140298 1.52262c-0.8115389 0.98767-1.6913102 2.3154-1.3126439 3.07753 0.3813818 0.76759 1.4735447 0.82878 2.5697669 0.82675 1.0962223-2e-3 2.1965523-0.0673 2.5939943-0.82675 0.375769-0.71807-0.542667-2.01704-1.408543-3.00788a1.9812479 1.981248 0 0 0 0.805891-1.59227 1.9812479 1.981248 0 0 0-1.9812476-1.98125z" filter="url(#filter848)" opacity=".2"/>
    <g transform="translate(-4.4504802e-7,-288.53331)">
        <path d="m4.2333234 289.0626a1.9812479 1.981248 0 0 0-1.9812475 1.98125 1.9812479 1.981248 0 0 0 0.7140298 1.52262c-0.8115389 0.98767-1.6913102 2.3154-1.3126439 3.07753 0.3813818 0.76759 1.4735447 0.82878 2.5697669 0.82675 1.0962219-2e-3 2.1965522-0.0673 2.5939943-0.82675 0.3757691-0.71807-0.5426669-2.01704-1.4085432-3.00788a1.9812479 1.981248 0 0 0 0.8058912-1.59227 1.9812479 1.981248 0 0 0-1.9812476-1.98125z" fill="#9575cd"/>
        <path d="m4.233329 289.06272a1.9812403 1.9812403 0 0 0-1.9812403 1.98124 1.9812403 1.9812403 0 0 0 0.0015 0.0415 1.9812403 1.9812403 0 0 1 1.9797192-1.95194 1.9812403 1.9812403 0 0 1 1.979755 1.93977 1.9812403 1.9812403 0 0 0 0.0015-0.0293 1.9812403 1.9812403 0 0 0-1.9812407-1.98125z" fill="#fff" opacity=".2" stroke-width=".0707586"/>
    </g>
</svg>
