<?xml version="1.0" encoding="UTF-8" standalone="no"?>
<svg
   xmlns:dc="http://purl.org/dc/elements/1.1/"
   xmlns:cc="http://creativecommons.org/ns#"
   xmlns:rdf="http://www.w3.org/1999/02/22-rdf-syntax-ns#"
   xmlns:svg="http://www.w3.org/2000/svg"
   xmlns="http://www.w3.org/2000/svg"
   xmlns:sodipodi="http://sodipodi.sourceforge.net/DTD/sodipodi-0.dtd"
   xmlns:inkscape="http://www.inkscape.org/namespaces/inkscape"
   width="16"
   height="16"
   version="1"
   id="svg12"
   sodipodi:docname="amarok_lastfm.svg"
   inkscape:version="0.92.4 (5da689c313, 2019-01-14)">
  <metadata
     id="metadata18">
    <rdf:RDF>
      <cc:Work
         rdf:about="">
        <dc:format>image/svg+xml</dc:format>
        <dc:type
           rdf:resource="http://purl.org/dc/dcmitype/StillImage" />
        <dc:title></dc:title>
      </cc:Work>
    </rdf:RDF>
  </metadata>
  <defs
     id="defs16" />
  <sodipodi:namedview
     pagecolor="#ffffff"
     bordercolor="#666666"
     borderopacity="1"
     objecttolerance="10"
     gridtolerance="10"
     guidetolerance="10"
     inkscape:pageopacity="0"
     inkscape:pageshadow="2"
     inkscape:window-width="1362"
     inkscape:window-height="695"
     id="namedview14"
     showgrid="true"
     inkscape:zoom="10.729167"
     inkscape:cx="-8.1553388"
     inkscape:cy="24"
     inkscape:window-x="0"
     inkscape:window-y="0"
     inkscape:window-maximized="1"
     inkscape:current-layer="svg12">
    <inkscape:grid
       type="xygrid"
       id="grid828" />
  </sodipodi:namedview>
  <rect
     style="fill:#555555;fill-opacity:1;stroke-width:0.37499997"
     width="15"
     height="15"
     x="0.5"
     y="0.5"
     rx="7.5"
     ry="7.5"
     id="rect2" />
  <path
     inkscape:connector-curvature="0"
     style="fill:#ffffff;stroke-width:0.50636786"
     d="M 4.7114253,11.96214 C 4.444657,11.92714 3.9701165,11.776538 3.6535856,11.627986 1.5912601,10.664476 0.74786251,8.2377473 1.7636342,6.1936735 2.9240762,3.8564963 6.0904128,3.2606893 7.9957544,5.0211098 8.5467346,5.5293657 8.7914426,5.9630707 9.6209896,7.8860431 10.486962,9.8970666 10.647022,10.21327 10.927643,10.481374 c 0.300628,0.285152 0.579195,0.381203 1.112219,0.381203 0.875719,0 1.501085,-0.527755 1.501085,-1.2641639 0,-0.6233072 -0.224701,-0.8229095 -1.370778,-1.2196142 C 10.424887,7.7649918 9.8595426,7.2102353 9.8574906,6.0961223 c 0,-0.594307 0.1544184,-0.9905115 0.5468764,-1.4012164 0.563291,-0.5862567 1.534944,-0.7798588 2.394759,-0.4887555 0.366807,0.1271014 1.134279,0.7894092 1.134279,0.9790113 0,0.092052 -0.444786,0.3732043 -0.691546,0.4397553 -0.130306,0.033 -0.242657,-0.01 -0.392972,-0.1506018 -0.30473,-0.2851533 -0.510962,-0.3732044 -0.875717,-0.3732044 -0.629469,0 -1.019876,0.3692043 -1.019876,0.9655113 0,0.5943069 0.2483,0.7954092 1.488772,1.2036139 1.709369,0.5628066 2.214179,1.0710625 2.224437,2.2471762 0.01027,1.0160118 -0.459149,1.7488698 -1.392837,2.1825758 -0.424779,0.195601 -0.568935,0.220652 -1.262532,0.220652 -0.990123,0 -1.434908,-0.179602 -1.98999,-0.789408 C 9.6481806,10.721026 9.2695746,9.9511172 8.0573163,7.1406845 7.5545605,5.9760708 6.909187,5.4052644 5.8328786,5.1806616 5.2875422,5.0671097 4.5282785,5.1726616 4.0332175,5.4268145 3.5504695,5.6729175 3.0112892,6.2282239 2.7568333,6.7359798 2.5464969,7.1481845 2.5264889,7.263736 2.5264889,7.9805943 c 0,0.683858 0.028215,0.8459598 0.2041808,1.2211143 0.2667683,0.5728066 0.7915839,1.1020624 1.3687269,1.3872164 0.4170824,0.205102 0.5468754,0.230652 1.2122574,0.230652 0.639218,0 0.8033836,-0.02951 1.1845549,-0.207102 C 6.9312466,10.405322 7.5160846,9.8970666 7.7546374,9.5164122 L 7.8787921,9.3188098 8.1235015,9.8640662 c 0.1364624,0.3011538 0.2462481,0.5843068 0.2462481,0.6353078 0,0.150601 -0.5530322,0.642858 -1.0598925,0.949511 -0.7695242,0.463256 -1.6534506,0.636807 -2.5974004,0.511756 m -0.00205,0"
     id="path10" />
</svg>
