<?xml version="1.0" encoding="UTF-8" standalone="no"?>
<svg
   xmlns:dc="http://purl.org/dc/elements/1.1/"
   xmlns:cc="http://creativecommons.org/ns#"
   xmlns:rdf="http://www.w3.org/1999/02/22-rdf-syntax-ns#"
   xmlns:svg="http://www.w3.org/2000/svg"
   xmlns="http://www.w3.org/2000/svg"
   xmlns:sodipodi="http://sodipodi.sourceforge.net/DTD/sodipodi-0.dtd"
   xmlns:inkscape="http://www.inkscape.org/namespaces/inkscape"
   height="16"
   version="1.1"
   width="16"
   id="svg12"
   sodipodi:docname="amarok_repeat_album.svg"
   style="enable-background:new"
   inkscape:version="0.92.4 (5da689c313, 2019-01-14)">
  <sodipodi:namedview
     pagecolor="#ffffff"
     bordercolor="#666666"
     borderopacity="1"
     objecttolerance="10"
     gridtolerance="10"
     guidetolerance="10"
     inkscape:pageopacity="0"
     inkscape:pageshadow="2"
     inkscape:window-width="1362"
     inkscape:window-height="695"
     id="namedview14"
     showgrid="true"
     inkscape:zoom="10.729167"
     inkscape:cx="7.9223306"
     inkscape:cy="24"
     inkscape:window-x="0"
     inkscape:window-y="0"
     inkscape:window-maximized="1"
     inkscape:current-layer="layer9">
    <inkscape:grid
       type="xygrid"
       id="grid830" />
  </sodipodi:namedview>
  <metadata
     id="metadata90">
    <rdf:RDF>
      <cc:Work
         rdf:about="">
        <dc:format>image/svg+xml</dc:format>
        <dc:type
           rdf:resource="http://purl.org/dc/dcmitype/StillImage" />
        <dc:title></dc:title>
      </cc:Work>
    </rdf:RDF>
  </metadata>
  <defs
     id="defs7386" />
  <g
     inkscape:groupmode="layer"
     id="layer9"
     inkscape:label="status"
     transform="translate(-461.0002,203)">
    <g
       id="g822"
       transform="matrix(0.35,0,0,0.34999991,299.25013,-121.50002)">
      <path
         style="color:#000000;fill:#555555;fill-opacity:1;stroke-width:2.85714293"
         id="path5086"
         d="m 473.57162,-224.28578 c -4.69914,0 -8.57142,3.87229 -8.57142,8.57143 v 11.42857 c 0,4.69915 3.87228,8.57143 8.57142,8.57143 h 2.85715 1.875 4.64285 c -0.48154,-1.35014 -0.80357,-2.7702 -0.80357,-4.28571 0,-0.4908 0.12515,-0.95209 0.17857,-1.42857 h -4.01785 -1.875 -2.85715 c -1.63228,0 -2.85714,-1.22486 -2.85714,-2.85715 v -11.42857 c 0,-1.63228 1.22486,-2.85714 2.85714,-2.85714 h 8.57143 v -5.71429 z m 20,0 v 1.42857 2.85715 1.42857 h 2.85715 c 1.63228,0 2.85714,1.22486 2.85714,2.85714 v 3.66072 c 2.26994,0.80957 4.23689,2.17222 5.71429,4.01785 v -7.67857 c 0,-4.69914 -3.87229,-8.57143 -8.57143,-8.57143 z"
         inkscape:connector-curvature="0" />
      <path
         style="fill:#555555;fill-opacity:1;stroke-width:2.85714293"
         id="path5088"
         d="m 490.71505,-221.42858 -11.42857,-8.57143 v 17.14286 z"
         inkscape:connector-curvature="0" />
      <path
         style="color:#bebebe;font-style:normal;font-variant:normal;font-weight:normal;font-stretch:normal;font-size:medium;line-height:normal;font-family:Sans;-inkscape-font-specification:Sans;text-indent:0;text-align:start;text-decoration:none;text-decoration-line:none;letter-spacing:normal;word-spacing:normal;text-transform:none;writing-mode:lr-tb;direction:ltr;baseline-shift:baseline;text-anchor:start;display:inline;overflow:visible;visibility:visible;fill:#555555;fill-opacity:1;stroke:none;stroke-width:8.01785755;marker:none;filter:url(#filter7554);enable-background:accumulate"
         id="path39797"
         d="m 495.0002,-210 c -5.48901,0 -10,4.511 -10,10 0,5.489 4.51099,10 10,10 5.489,0 10,-4.511 10,-10 0,-5.489 -4.511,-10 -10,-10 z m 0,7.14286 c 1.5695,0 2.85714,1.28764 2.85714,2.85714 0,1.56949 -1.28764,2.85714 -2.85714,2.85714 -1.5695,0 -2.85714,-1.28765 -2.85714,-2.85714 0,-1.5695 1.28764,-2.85714 2.85714,-2.85714 z"
         inkscape:connector-curvature="0" />
    </g>
  </g>
</svg>
