<?xml version="1.0" encoding="UTF-8" standalone="no"?>
<svg
   xmlns:dc="http://purl.org/dc/elements/1.1/"
   xmlns:cc="http://creativecommons.org/ns#"
   xmlns:rdf="http://www.w3.org/1999/02/22-rdf-syntax-ns#"
   xmlns:svg="http://www.w3.org/2000/svg"
   xmlns="http://www.w3.org/2000/svg"
   xmlns:sodipodi="http://sodipodi.sourceforge.net/DTD/sodipodi-0.dtd"
   xmlns:inkscape="http://www.inkscape.org/namespaces/inkscape"
   width="16"
   height="16"
   version="1"
   id="svg12"
   sodipodi:docname="amarok_audioscrobbler.svg"
   inkscape:version="0.92.4 (5da689c313, 2019-01-14)">
  <metadata
     id="metadata18">
    <rdf:RDF>
      <cc:Work
         rdf:about="">
        <dc:format>image/svg+xml</dc:format>
        <dc:type
           rdf:resource="http://purl.org/dc/dcmitype/StillImage" />
        <dc:title></dc:title>
      </cc:Work>
    </rdf:RDF>
  </metadata>
  <defs
     id="defs16" />
  <sodipodi:namedview
     pagecolor="#ffffff"
     bordercolor="#666666"
     borderopacity="1"
     objecttolerance="10"
     gridtolerance="10"
     guidetolerance="10"
     inkscape:pageopacity="0"
     inkscape:pageshadow="2"
     inkscape:window-width="1362"
     inkscape:window-height="695"
     id="namedview14"
     showgrid="true"
     inkscape:zoom="32.1875"
     inkscape:cx="8"
     inkscape:cy="8"
     inkscape:window-x="0"
     inkscape:window-y="0"
     inkscape:window-maximized="1"
     inkscape:current-layer="svg12">
    <inkscape:grid
       type="xygrid"
       id="grid812" />
  </sodipodi:namedview>
  <path
     style="fill:#555555;fill-opacity:1;stroke-width:0.56966388"
     d="M 4.3003539,12.457407 C 4.0002396,12.418031 3.4663817,12.248605 3.1102843,12.081484 0.79016895,10.997535 -0.15865365,8.2674654 0.98408935,5.9678825 2.2895867,3.3385583 5.8517143,2.6682753 7.9952239,4.6487484 c 0.619852,0.5717879 0.89515,1.059706 1.82839,3.2230496 0.9742171,2.262402 1.1542861,2.61813 1.4699831,2.919746 0.338206,0.320798 0.651595,0.428855 1.251246,0.428855 0.985183,0 1.688721,-0.593725 1.688721,-1.4221845 0,-0.7012208 -0.252789,-0.9257734 -1.542126,-1.3720658 -1.963441,-0.6905331 -2.599453,-1.314634 -2.601761,-2.5680113 0,-0.6685952 0.17372,-1.1143254 0.615234,-1.5763681 0.633703,-0.6595389 1.726812,-0.8773415 2.694104,-0.5498501 0.412657,0.142989 1.276064,0.8880852 1.276064,1.1013879 0,0.1035572 -0.500383,0.4198544 -0.777989,0.4947239 C 13.750495,5.365157 13.624101,5.31678 13.454998,5.1586043 13.112175,4.8378069 12.880164,4.7387495 12.469815,4.7387495 c -0.708155,0 -1.147361,0.4153547 -1.147361,1.0861999 0,0.6685953 0.279338,0.8948355 1.674869,1.3540658 1.923041,0.6331573 2.490949,1.2049452 2.502492,2.5280731 0.01154,1.1430137 -0.516542,1.9674797 -1.566943,2.4553967 -0.477874,0.220053 -0.640051,0.248235 -1.420349,0.248235 -1.113886,0 -1.614269,-0.202053 -2.238738,-0.888086 C 9.8542019,11.061153 9.4282699,10.195007 8.0644809,7.0332701 7.4988809,5.7230796 6.7728349,5.0809224 5.5619886,4.8282442 4.9484856,4.700499 4.0943139,4.8192448 3.5373699,5.1051663 2.9942788,5.3820321 2.3877009,6.0067516 2.1014383,6.5779772 1.8648095,7.0417073 1.8423009,7.1717026 1.8423009,7.9781684 c 0,0.76934 0.03174,0.9517049 0.2297033,1.3737535 0.3001143,0.6444073 0.8905316,1.2398201 1.5398175,1.5606181 0.469218,0.23074 0.6152351,0.259484 1.3637895,0.259484 0.7191202,0 0.9038059,-0.03319 1.3326236,-0.23299 C 6.7976519,10.705988 7.4555949,10.1342 7.7239669,9.7059633 l 0.139669,-0.2223024 0.275297,0.6134131 c 0.15352,0.338797 0.277029,0.657345 0.277029,0.71472 0,0.169428 -0.62216,0.723216 -1.192378,1.068201 -0.8657148,0.521162 -1.8601323,0.716409 -2.9220757,0.575725 m -0.00232,0"
     id="path10"
     inkscape:connector-curvature="0" />
</svg>
