<?xml version="1.0" encoding="UTF-8" standalone="no"?>
<svg
   xmlns:dc="http://purl.org/dc/elements/1.1/"
   xmlns:cc="http://creativecommons.org/ns#"
   xmlns:rdf="http://www.w3.org/1999/02/22-rdf-syntax-ns#"
   xmlns:svg="http://www.w3.org/2000/svg"
   xmlns="http://www.w3.org/2000/svg"
   xmlns:sodipodi="http://sodipodi.sourceforge.net/DTD/sodipodi-0.dtd"
   xmlns:inkscape="http://www.inkscape.org/namespaces/inkscape"
   width="16"
   height="16"
   version="1"
   id="svg16"
   sodipodi:docname="amarok_burn.svg"
   inkscape:version="0.92.4 (5da689c313, 2019-01-14)">
  <metadata
     id="metadata22">
    <rdf:RDF>
      <cc:Work
         rdf:about="">
        <dc:format>image/svg+xml</dc:format>
        <dc:type
           rdf:resource="http://purl.org/dc/dcmitype/StillImage" />
        <dc:title></dc:title>
      </cc:Work>
    </rdf:RDF>
  </metadata>
  <defs
     id="defs20" />
  <sodipodi:namedview
     pagecolor="#ffffff"
     bordercolor="#666666"
     borderopacity="1"
     objecttolerance="10"
     gridtolerance="10"
     guidetolerance="10"
     inkscape:pageopacity="0"
     inkscape:pageshadow="2"
     inkscape:window-width="1362"
     inkscape:window-height="695"
     id="namedview18"
     showgrid="true"
     inkscape:zoom="32.1875"
     inkscape:cx="8"
     inkscape:cy="8"
     inkscape:window-x="0"
     inkscape:window-y="0"
     inkscape:window-maximized="1"
     inkscape:current-layer="svg16">
    <inkscape:grid
       type="xygrid"
       id="grid819" />
  </sodipodi:namedview>
  <path
     style="color:#bebebe;font-style:normal;font-variant:normal;font-weight:normal;font-stretch:normal;font-size:medium;line-height:normal;font-family:Sans;-inkscape-font-specification:Sans;text-indent:0;text-align:start;text-decoration:none;text-decoration-line:none;letter-spacing:normal;word-spacing:normal;text-transform:none;writing-mode:lr-tb;direction:ltr;baseline-shift:baseline;text-anchor:start;display:inline;overflow:visible;visibility:visible;fill:#555555;fill-opacity:1;stroke:none;stroke-width:5.55082417;marker:none;filter:url(#filter7554);enable-background:accumulate"
     mask="none"
     clip-path="none"
     d="m 7.4230762,0.5000007 c -3.8000863,0 -6.923076,3.1229999 -6.923076,6.9230768 0,3.8000765 3.1229897,6.9230765 6.923076,6.9230765 0.309726,0 0.612554,-0.02819 0.91196,-0.06836 a 4.2307689,4.2307689 0 0 1 -0.91196,-2.623949 4.2307689,4.2307689 0 0 1 0.7497,-2.4023432 c -0.231611,0.095873 -0.484806,0.1494892 -0.7497,0.1494892 -1.0865763,0 -1.9779141,-0.8913479 -1.9779141,-1.9779145 0,-1.0865771 0.8913378,-1.9779145 1.9779141,-1.9779145 1.086577,0 1.977915,0.8913374 1.977915,1.9779145 0,0.267141 -0.05432,0.5225036 -0.151743,0.755709 a 4.2307689,4.2307689 0 0 1 2.4045968,-0.755709 4.2307689,4.2307689 0 0 1 2.623197,0.9172177 c 0.04063,-0.3010984 0.06911,-0.60567 0.06911,-0.9172177 0,-3.8000769 -3.123,-6.9230768 -6.9230768,-6.9230768 z"
     id="path39797"
     inkscape:connector-curvature="0" />
  <circle
     style="fill:#ff5722;stroke-width:0.24038461"
     cx="11.653846"
     cy="11.653847"
     r="3.8461537"
     id="circle12-6" />
  <path
     inkscape:connector-curvature="0"
     style="fill:#ffffff;stroke-width:0.24038461"
     d="m 12.099519,9.7307696 c -1.179808,0.4807694 -1.887981,1.6076924 -1.887981,2.4038464 0,0.787211 0.619424,1.425962 1.388798,1.440914 -0.384461,-0.0077 -0.694182,-0.326299 -0.694182,-0.71976 0,-0.398284 0.353995,-0.961539 0.94399,-1.201924 0,0.841347 0.633462,0.962981 0.47199,1.442308 -0.09155,0.271794 -0.31487,0.478082 -0.702019,0.480298 0.0023,1.2e-5 0.0049,2.65e-4 0.0074,2.65e-4 0.782019,0 1.231875,-0.415 1.415961,-0.961538 0.322933,-0.958703 -0.94399,-1.201924 -0.94399,-2.884616 z"
     id="path14-7" />
</svg>
