<?xml version="1.0" encoding="UTF-8" standalone="no"?>
<svg
   xmlns:dc="http://purl.org/dc/elements/1.1/"
   xmlns:cc="http://creativecommons.org/ns#"
   xmlns:rdf="http://www.w3.org/1999/02/22-rdf-syntax-ns#"
   xmlns:svg="http://www.w3.org/2000/svg"
   xmlns="http://www.w3.org/2000/svg"
   xmlns:sodipodi="http://sodipodi.sourceforge.net/DTD/sodipodi-0.dtd"
   xmlns:inkscape="http://www.inkscape.org/namespaces/inkscape"
   height="16"
   width="16"
   version="1"
   id="svg12"
   sodipodi:docname="amarok_magnatune.svg"
   inkscape:version="0.92.4 (5da689c313, 2019-01-14)">
  <metadata
     id="metadata18">
    <rdf:RDF>
      <cc:Work
         rdf:about="">
        <dc:format>image/svg+xml</dc:format>
        <dc:type
           rdf:resource="http://purl.org/dc/dcmitype/StillImage" />
        <dc:title></dc:title>
      </cc:Work>
    </rdf:RDF>
  </metadata>
  <defs
     id="defs16" />
  <sodipodi:namedview
     pagecolor="#ffffff"
     bordercolor="#666666"
     borderopacity="1"
     objecttolerance="10"
     gridtolerance="10"
     guidetolerance="10"
     inkscape:pageopacity="0"
     inkscape:pageshadow="2"
     inkscape:window-width="1362"
     inkscape:window-height="695"
     id="namedview14"
     showgrid="true"
     inkscape:zoom="21.458334"
     inkscape:cx="13.709258"
     inkscape:cy="11.859585"
     inkscape:window-x="0"
     inkscape:window-y="0"
     inkscape:window-maximized="1"
     inkscape:current-layer="svg12">
    <inkscape:grid
       type="xygrid"
       id="grid816" />
  </sodipodi:namedview>
  <rect
     transform="matrix(0,-1,-1,0,0,0)"
     rx="7.5"
     ry="7.5"
     height="15"
     width="15"
     y="-15.5"
     x="-15.5"
     id="rect2"
     style="fill:#444444;fill-opacity:1;stroke-width:0.37501878" />
  <path
     d="M 8,2.5 A 5.5,5.5 0 0 0 2.5,8 5.5,5.5 0 0 0 8,13.5 5.5,5.5 0 0 0 13.5,8 5.5,5.5 0 0 0 8,2.5 Z m 0,1.1 c 0.6094,0 1.1,0.4906 1.1,1.1 v 5.1333333 c 0,0.6093997 -0.4906,1.0999997 -1.1,1.0999997 -0.6094,0 -1.1,-0.4906 -1.1,-1.0999997 V 4.7 C 6.9,4.0906 7.3906,3.6 8,3.6 Z M 4.7,6.5333333 c 0.6094,0 1.1,0.4906 1.1,1.1 v 2.2 c 0,0.6093997 -0.4906,1.0999997 -1.1,1.0999997 -0.6094,0 -1.1,-0.4906 -1.1,-1.0999997 v -2.2 c 0,-0.6094 0.4906,-1.1 1.1,-1.1 z m 6.6,0 c 0.6094,0 1.1,0.4906 1.1,1.1 v 2.2 c 0,0.6093997 -0.4906,1.0999997 -1.1,1.0999997 -0.6094,0 -1.1,-0.4906 -1.1,-1.0999997 v -2.2 c 0,-0.6094 0.4906,-1.1 1.1,-1.1 z"
     id="path10"
     inkscape:connector-curvature="0"
     style="fill:#ffffff;stroke-width:0.36666667" />
</svg>
