<?xml version="1.0" encoding="UTF-8" standalone="no"?>
<!-- Created with Inkscape (http://www.inkscape.org/) -->

<svg
   xmlns:dc="http://purl.org/dc/elements/1.1/"
   xmlns:cc="http://creativecommons.org/ns#"
   xmlns:rdf="http://www.w3.org/1999/02/22-rdf-syntax-ns#"
   xmlns:svg="http://www.w3.org/2000/svg"
   xmlns="http://www.w3.org/2000/svg"
   xmlns:sodipodi="http://sodipodi.sourceforge.net/DTD/sodipodi-0.dtd"
   xmlns:inkscape="http://www.inkscape.org/namespaces/inkscape"
   id="svg7384"
   style="enable-background:new"
   height="16"
   width="16"
   version="1.1"
   sodipodi:docname="amarok_settings_indicator.svg"
   inkscape:version="0.92.4 (5da689c313, 2019-01-14)">
  <sodipodi:namedview
     pagecolor="#ffffff"
     bordercolor="#666666"
     borderopacity="1"
     objecttolerance="10"
     gridtolerance="10"
     guidetolerance="10"
     inkscape:pageopacity="0"
     inkscape:pageshadow="2"
     inkscape:window-width="1362"
     inkscape:window-height="695"
     id="namedview10"
     showgrid="true"
     inkscape:zoom="10.729167"
     inkscape:cx="7.9223306"
     inkscape:cy="24"
     inkscape:window-x="0"
     inkscape:window-y="0"
     inkscape:window-maximized="1"
     inkscape:current-layer="svg7384">
    <inkscape:grid
       type="xygrid"
       id="grid817" />
  </sodipodi:namedview>
  <metadata
     id="metadata90">
    <rdf:RDF>
      <cc:Work
         rdf:about="">
        <dc:format>image/svg+xml</dc:format>
        <dc:type
           rdf:resource="http://purl.org/dc/dcmitype/StillImage" />
        <dc:title>Paper Symbolic Icon Theme</dc:title>
      </cc:Work>
    </rdf:RDF>
  </metadata>
  <title
     id="title8473">Paper Symbolic Icon Theme</title>
  <defs
     id="defs7386" />
  <g
     id="layer12"
     transform="matrix(1.0810811,0,0,1.0714347,-524.90812,-108.48634)"
     style="fill:#555555;fill-opacity:1">
    <path
       id="path10500"
       style="fill:#555555;fill-opacity:1;enable-background:new"
       d="m 491.19,101.72 -0.1543,1.8438 c -0.58462,0.21656 -1.12816,0.53093 -1.6074,0.92969 l -1.6758,-0.78906 -1.75,3.0312 1.5215,1.0566 c -0.0542,0.30631 -0.0823,0.61667 -0.084,0.92773 2.1e-4,0.31226 0.027,0.62393 0.0801,0.93164 l -1.5176,1.0527 1.75,3.0312 1.6719,-0.7871 c 0.48084,0.39706 1.02571,0.70945 1.6113,0.92382 l 0.1543,1.8477 h 3.5 l 0.1543,-1.8438 c 0.58462,-0.21656 1.12816,-0.53093 1.6074,-0.92969 l 1.6758,0.78906 1.75,-3.0312 -1.5215,-1.0566 c 0.0542,-0.30631 0.0823,-0.61667 0.084,-0.92773 -2.1e-4,-0.31226 -0.027,-0.62393 -0.0801,-0.93164 l 1.5176,-1.0527 -1.75,-3.0312 -1.6719,0.7871 c -0.48084,-0.39706 -1.02571,-0.70945 -1.6113,-0.92382 L 494.69,101.72 Z"
       inkscape:connector-curvature="0"
       sodipodi:nodetypes="ccccccccccccccccccccccccccc" />
  </g>
  <path
     inkscape:connector-curvature="0"
     d="m 8.0001237,4.2499964 c 0.281071,0 0.508929,0.22386 0.508929,0.5000002 -1.48e-4,0.01665 -10e-4,0.033251 -0.003,0.0498 1.165609,0.2294153 2.0387833,1.235616 2.0386973,2.4501967 l -7.1e-5,0.9999956 v 1.250001 l 1.017857,1.0000001 v 0.250001 H 10.544625 5.4553381 4.4374812 V 10.49999 l 1.0178569,-1.0000001 7.16e-5,-2.2499966 c 4.09e-5,-1.2145807 0.8731586,-2.2207863 2.038696,-2.4501967 -0.002,-0.016549 -0.003,-0.03315 -0.003,-0.0498 0,-0.2761402 0.227857,-0.5000002 0.508929,-0.5000002 z m 0.879622,6.9999996 c -0.181499,0.308855 -0.51669,0.49937 -0.879693,0.5 -0.36336,-2.8e-4 -0.699009,-0.190845 -0.880686,-0.5 z"
     id="path5938"
     sodipodi:nodetypes="sccscccccccccscssscccc"
     style="display:inline;opacity:1;fill:#ffffff;fill-opacity:1;stroke:none;stroke-width:1.51333416;stroke-linecap:round;stroke-miterlimit:4;stroke-dasharray:none;stroke-opacity:1;enable-background:new" />
</svg>
