<?xml version="1.0" encoding="UTF-8" standalone="no"?>
<!-- Created with Inkscape (http://www.inkscape.org/) -->

<svg
   xmlns:dc="http://purl.org/dc/elements/1.1/"
   xmlns:cc="http://creativecommons.org/ns#"
   xmlns:rdf="http://www.w3.org/1999/02/22-rdf-syntax-ns#"
   xmlns:svg="http://www.w3.org/2000/svg"
   xmlns="http://www.w3.org/2000/svg"
   xmlns:sodipodi="http://sodipodi.sourceforge.net/DTD/sodipodi-0.dtd"
   xmlns:inkscape="http://www.inkscape.org/namespaces/inkscape"
   id="svg7384"
   style="enable-background:new"
   height="16"
   width="16"
   version="1.1"
   sodipodi:docname="amarok_editcopy.svg"
   inkscape:version="0.92.4 (5da689c313, 2019-01-14)">
  <sodipodi:namedview
     pagecolor="#ffffff"
     bordercolor="#666666"
     borderopacity="1"
     objecttolerance="10"
     gridtolerance="10"
     guidetolerance="10"
     inkscape:pageopacity="0"
     inkscape:pageshadow="2"
     inkscape:window-width="1362"
     inkscape:window-height="695"
     id="namedview10"
     showgrid="true"
     inkscape:zoom="32.1875"
     inkscape:cx="8"
     inkscape:cy="8"
     inkscape:window-x="0"
     inkscape:window-y="0"
     inkscape:window-maximized="1"
     inkscape:current-layer="svg7384">
    <inkscape:grid
       type="xygrid"
       id="grid817" />
  </sodipodi:namedview>
  <metadata
     id="metadata90">
    <rdf:RDF>
      <cc:Work
         rdf:about="">
        <dc:format>image/svg+xml</dc:format>
        <dc:type
           rdf:resource="http://purl.org/dc/dcmitype/StillImage" />
        <dc:title>Paper Symbolic Icon Theme</dc:title>
      </cc:Work>
    </rdf:RDF>
  </metadata>
  <title
     id="title8473">Paper Symbolic Icon Theme</title>
  <defs
     id="defs7386" />
  <path
     inkscape:connector-curvature="0"
     d="m 2.0769228,0.5 c 0,0 -1.07692305,0 -1.07692305,1 v 9 c 0,0 0,1 1.07692305,1 H 3.153846 v -9 h 8.615384 v -1 c 0,-1 -1.076923,-1 -1.076923,-1 z m 3.230769,3 c 0,0 -1.076923,0 -1.076923,1 v 10 c 0,1 1.076923,1 1.076923,1 h 8.6153832 c 0,0 1.076925,0 1.076925,-1.0029 v -9.997 c 0,-1 -1.076925,-1 -1.076925,-1 z m 1.0769232,2 h 6.461537 v 8 H 6.384615 Z"
     style="color:#000000;fill:#555555;stroke-width:1.03774905;enable-background:new"
     id="rect5195" />
</svg>
