<svg enable-background="new" version="1.1" viewBox="0 0 16 16" xmlns="http://www.w3.org/2000/svg">
    <title>Paper Symbolic Icon Theme</title>
    <rect transform="scale(-1,1)" x="-24.485859" y="11.855316" width="3.1187451" height="0" ry="0" fill="#555" stroke="#555" stroke-width=".5470084"/>
    <path d="m3.3046875 0.16210938c-0.3939068-0.00336384-0.7956543 0.07018077-1.171875 0.19921874-0.011253 0.003328-0.0219501-0.00332799-0.0332031 0-0.031085 0.011025-0.0529034 0.03686453-0.0839844 0.04882813-0.6527603 0.26891584-1.5066307 1.2753906-0.9707031 1.2753906 0.8874967 0 1.6074219 0.7123568 1.6074219 1.5898437 0 0.8774879-0.7199252 1.5898438-1.6074219 1.5898438-0.87731368-0.2257314-1.0899816-0.2758814-0.68750002 0.5625 0.03215571 0.0519286 0.06423821 0.0980988 0.09960937 0.1484375 0.10611383 0.1499575 0.2324789 0.2950968 0.36914063 0.4296875 1.0102239 0.9988308 2.4743255 1.2351764 3.71875 0.7460937 0.03055 0.0381506 0.0486172 0.0983635 0.0839843 0.1328125l1.0546876 1.0351563c-0.068954 0.3696576 0.0187316 0.7641453 0.3046874 1.046875l6.6054688 6.5292971c0.460963 0.455762 1.220844 0.455598 1.681641 0l1.21875-1.203125c0.460795-0.455599 0.460963-1.208299 0-1.664063l-6.6054691-6.5312498c-0.3611774-0.3571035-0.9026578-0.4234032-1.34375-0.2207031l-0.9414063-0.9296875c-0.0353699-0.034917-0.0947635-0.0697774-0.1328125-0.0996094 0.4941259-1.2304959 0.2563177-2.6770036-0.7539062-3.6757812-0.6704455-0.66276786-1.5369395-1.0022566-2.4121094-1.0097656z" fill="#555" stroke="#555" stroke-width=".32274127"/>
</svg>
