<?xml version="1.0" encoding="UTF-8" standalone="no"?>
<!-- Created with Inkscape (http://www.inkscape.org/) -->

<svg
   xmlns:dc="http://purl.org/dc/elements/1.1/"
   xmlns:cc="http://creativecommons.org/ns#"
   xmlns:rdf="http://www.w3.org/1999/02/22-rdf-syntax-ns#"
   xmlns:svg="http://www.w3.org/2000/svg"
   xmlns="http://www.w3.org/2000/svg"
   xmlns:sodipodi="http://sodipodi.sourceforge.net/DTD/sodipodi-0.dtd"
   xmlns:inkscape="http://www.inkscape.org/namespaces/inkscape"
   id="svg7384"
   style="enable-background:new"
   height="16"
   width="16"
   version="1.1"
   sodipodi:docname="scheme_power.svg"
   inkscape:version="0.92.4 (5da689c313, 2019-01-14)">
  <sodipodi:namedview
     pagecolor="#ffffff"
     bordercolor="#666666"
     borderopacity="1"
     objecttolerance="10"
     gridtolerance="10"
     guidetolerance="10"
     inkscape:pageopacity="0"
     inkscape:pageshadow="2"
     inkscape:window-width="1362"
     inkscape:window-height="695"
     id="namedview11"
     showgrid="false"
     fit-margin-top="0"
     fit-margin-left="0"
     fit-margin-right="0"
     fit-margin-bottom="0"
     inkscape:zoom="32.1875"
     inkscape:cx="8"
     inkscape:cy="8"
     inkscape:window-x="0"
     inkscape:window-y="0"
     inkscape:window-maximized="1"
     inkscape:current-layer="svg7384" />
  <metadata
     id="metadata90">
    <rdf:RDF>
      <cc:Work
         rdf:about="">
        <dc:format>image/svg+xml</dc:format>
        <dc:type
           rdf:resource="http://purl.org/dc/dcmitype/StillImage" />
        <dc:title>Paper Symbolic Icon Theme</dc:title>
      </cc:Work>
    </rdf:RDF>
  </metadata>
  <title
     id="title8473">Paper Symbolic Icon Theme</title>
  <defs
     id="defs7386" />
  <path
     inkscape:connector-curvature="0"
     id="rect5826"
     style="fill:#ff9800;stroke-width:0.24104397;fill-opacity:1"
     d="M 4.5294691,15.569287 C 4.2904963,15.329573 4.2890917,14.945034 4.5263195,14.70707 l 2.3978863,-2.405323 c 0.2372284,-0.237963 0.6205787,-0.236555 0.8595518,0.0032 0.2389728,0.239715 0.2403775,0.624254 0.00315,0.862217 L 5.389021,15.572446 c -0.2372285,0.237964 -0.6205788,0.236555 -0.8595519,-0.0032 z" />
  <path
     inkscape:connector-curvature="0"
     id="rect5828"
     style="fill:#ff9800;stroke-width:0.24104397;fill-opacity:1"
     d="M 0.43015421,11.45726 C 0.19118122,11.217546 0.18977673,10.833007 0.42700507,10.595043 L 2.8248916,8.1897201 C 3.0621197,7.951756 3.4454704,7.953165 3.6844432,8.192879 3.9234163,8.432593 3.9248206,8.8171322 3.6875928,9.0550963 L 1.2897062,11.460419 c -0.2372283,0.237964 -0.6205787,0.236555 -0.85955199,-0.0032 z" />
  <path
     inkscape:connector-curvature="0"
     id="path5845"
     style="fill:#000000;stroke-width:0.24104397"
     d="M 5.4215,6.7965314 9.7003032,5.135677 6.9289733,3.5099065 15.729957,0.25000004 11.702019,4.0456637 15.75,5.7371709 7.406824,9.5168546 5.4216035,6.7965333 Z" />
  <path
     inkscape:connector-curvature="0"
     id="path5824"
     style="fill:#1a1a1a;stroke-width:0.24104397;fill-opacity:1"
     d="M 8.9895274,14.546074 C 10.884645,12.42255 10.803489,9.1476527 8.7548568,7.092667 6.7063948,5.0378528 3.4362752,4.9510481 1.3191968,6.8519569 l 7.6701598,7.6939461 z" />
</svg>
