<svg enable-background="new" version="1.1" viewBox="0 0 16 16" xmlns="http://www.w3.org/2000/svg">
    <title>Paper Symbolic Icon Theme</title>
    <path d="m8 0a8 8 0 0 0-8 8 8 8 0 0 0 8 8 8 8 0 0 0 8-8 8 8 0 0 0-8-8zm-3.5214844 2.1210938c0.6563438 0.0056322 1.3057854 0.2606961 1.8085938 0.7578124 0.7576291 0.7491442 0.9369817 1.8329123 0.5664062 2.7558594 0.0285353 0.0223758 0.0730833 0.049982 0.0996094 0.0761719l0.7050781 0.6972656c0.3308022-0.1520375 0.7369433-0.1037869 1.0078125 0.1640625l4.9550784 4.9003904c0.345705 0.34185 0.345579 0.90632 0 1.248047l-0.914063 0.902344c-0.34558 0.341726-0.916013 0.341849-1.261719 0l-4.9550776-4.8984376c-0.2144559-0.2120645-0.2802287-0.5078905-0.2285156-0.7851563l-0.7910157-0.7753906c-0.026524-0.025839-0.039589-0.0709934-0.0625-0.0996094-0.9332706 0.3668419-2.0314333 0.1886371-2.7890625-0.5605469-0.102491-0.1009513-0.1958096-0.2097883-0.2753906-0.3222656-0.026527-0.0377572-0.0520559-0.0723781-0.0761719-0.1113281-0.3018457-0.6288372-0.1423264-0.5911872 0.515625-0.421875 0.6655885 0 1.2070313-0.5332368 1.2070313-1.1914063 0-0.6581687-0.5414428-1.1933593-1.2070313-1.1933593-0.4019251 0 0.2389701-0.755328 0.7285157-0.9570313 0.0233099-0.008973 0.039187-0.0268862 0.0625-0.0351562 0.0084389-0.0025 0.0169506 0.0025 0.0253906 0 0.2821511-0.0967862 0.5834912-0.1529107 0.8789062-0.1503906z" fill="#555"/>
    <rect transform="scale(-1,1)" x="-23.691023" y="11.796526" width="2.9796057" height="0" ry="0" fill="#427bc3" stroke-width=".52218819"/>
    <rect transform="scale(-1,1)" x="-23.749855" y="11.55832" width="2.9796057" height="0" ry="0" fill="#427bc3" stroke-width=".52218819"/>
    <rect transform="scale(-1,1)" x="-20.363588" y="10.891724" width="2.3389392" height="0" ry="0" fill="#555" stroke="#555" stroke-width=".4102625"/>
</svg>
