<?xml version="1.0" encoding="UTF-8"?>
<svg width="128" height="128" version="1" xml:space="preserve" xmlns="http://www.w3.org/2000/svg"><defs><filter id="filter917" x="-.012" y="-.012" width="1.024" height="1.024" color-interpolation-filters="sRGB"><feGaussianBlur stdDeviation="0.0799995"/></filter></defs><g transform="matrix(6.5001 0 0 6.5 11.999 15)" filter="url(#filter917)" opacity=".2" stroke-width=".84648"><path d="m6 4 4-1e-7v-4l6 6-6 6v-4l-4-2e-7z"/><path d="m10 8-4 2e-7v-4l-5.9998 6 5.9998 6v-4h4z"/></g><g transform="matrix(6.5001 0 0 6.5 11.999 12)" stroke-width=".84648"><path d="m6 4 4-1e-7v-4l6 6-6 6v-4l-4-2e-7z" fill="#90a4ae"/><path d="m10 8-4 2e-7v-4l-5.9998 6 5.9998 6v-4h4z" fill="#cfd8dc"/></g></svg>
