<?xml version="1.0" encoding="UTF-8" standalone="no"?>
<!-- Created with Inkscape (http://www.inkscape.org/) -->

<svg
   xmlns:dc="http://purl.org/dc/elements/1.1/"
   xmlns:cc="http://creativecommons.org/ns#"
   xmlns:rdf="http://www.w3.org/1999/02/22-rdf-syntax-ns#"
   xmlns:svg="http://www.w3.org/2000/svg"
   xmlns="http://www.w3.org/2000/svg"
   xmlns:sodipodi="http://sodipodi.sourceforge.net/DTD/sodipodi-0.dtd"
   xmlns:inkscape="http://www.inkscape.org/namespaces/inkscape"
   id="svg7384"
   style="enable-background:new"
   height="32"
   width="32"
   version="1.1"
   sodipodi:docname="amarok_device.svg"
   inkscape:version="0.92.4 (5da689c313, 2019-01-14)">
  <sodipodi:namedview
     pagecolor="#ffffff"
     bordercolor="#666666"
     borderopacity="1"
     objecttolerance="10"
     gridtolerance="10"
     guidetolerance="10"
     inkscape:pageopacity="0"
     inkscape:pageshadow="2"
     inkscape:window-width="1362"
     inkscape:window-height="695"
     id="namedview10"
     showgrid="true"
     inkscape:zoom="10.73"
     inkscape:cx="7.9223306"
     inkscape:cy="24.112576"
     inkscape:window-x="0"
     inkscape:window-y="0"
     inkscape:window-maximized="1"
     inkscape:current-layer="svg7384">
    <inkscape:grid
       type="xygrid"
       id="grid817" />
  </sodipodi:namedview>
  <metadata
     id="metadata90">
    <rdf:RDF>
      <cc:Work
         rdf:about="">
        <dc:format>image/svg+xml</dc:format>
        <dc:type
           rdf:resource="http://purl.org/dc/dcmitype/StillImage" />
        <dc:title>Paper Symbolic Icon Theme</dc:title>
      </cc:Work>
    </rdf:RDF>
  </metadata>
  <title
     id="title8473">Paper Symbolic Icon Theme</title>
  <defs
     id="defs7386" />
  <path
     style="opacity:1;vector-effect:none;fill:#555555;fill-opacity:0.94117647;fill-rule:nonzero;stroke:none;stroke-width:0.26703849;stroke-linecap:butt;stroke-linejoin:miter;stroke-miterlimit:4;stroke-dasharray:none;stroke-dashoffset:0;stroke-opacity:1;paint-order:markers stroke fill"
     d="M 9.5,4 C 7.6995,4 6.25,5.4495 6.25,7.25 v 19.5 C 6.25,28.5505 7.6995,30 9.5,30 h 13 c 1.8005,0 3.25,-1.4495 3.25,-3.25 V 7.25 C 25.75,5.4495 24.3005,4 22.5,4 Z m 0.65,4.55 h 11.7 v 11.7 H 10.15 Z M 16,22.85 A 1.95,1.95 0 0 1 17.95,24.8 1.95,1.95 0 0 1 16,26.75 1.95,1.95 0 0 1 14.05,24.8 1.95,1.95 0 0 1 16,22.85 Z"
     id="rect828"
     inkscape:connector-curvature="0" />
</svg>
