<?xml version="1.0" encoding="UTF-8" standalone="no"?>
<svg
   xmlns:dc="http://purl.org/dc/elements/1.1/"
   xmlns:cc="http://creativecommons.org/ns#"
   xmlns:rdf="http://www.w3.org/1999/02/22-rdf-syntax-ns#"
   xmlns:svg="http://www.w3.org/2000/svg"
   xmlns="http://www.w3.org/2000/svg"
   xmlns:sodipodi="http://sodipodi.sourceforge.net/DTD/sodipodi-0.dtd"
   xmlns:inkscape="http://www.inkscape.org/namespaces/inkscape"
   width="32"
   height="32"
   version="1"
   id="svg12"
   sodipodi:docname="amarok_audioscrobbler.svg"
   inkscape:version="0.92.4 (5da689c313, 2019-01-14)">
  <metadata
     id="metadata18">
    <rdf:RDF>
      <cc:Work
         rdf:about="">
        <dc:format>image/svg+xml</dc:format>
        <dc:type
           rdf:resource="http://purl.org/dc/dcmitype/StillImage" />
        <dc:title></dc:title>
      </cc:Work>
    </rdf:RDF>
  </metadata>
  <defs
     id="defs16" />
  <sodipodi:namedview
     pagecolor="#ffffff"
     bordercolor="#666666"
     borderopacity="1"
     objecttolerance="10"
     gridtolerance="10"
     guidetolerance="10"
     inkscape:pageopacity="0"
     inkscape:pageshadow="2"
     inkscape:window-width="1362"
     inkscape:window-height="695"
     id="namedview14"
     showgrid="true"
     inkscape:zoom="10.729167"
     inkscape:cx="23.999999"
     inkscape:cy="23.999999"
     inkscape:window-x="0"
     inkscape:window-y="0"
     inkscape:window-maximized="1"
     inkscape:current-layer="svg12">
    <inkscape:grid
       type="xygrid"
       id="grid812" />
  </sodipodi:namedview>
  <path
     style="fill:#555555;fill-opacity:1;stroke-width:0.99998862"
     d="M 9.5872799,23.924157 C 9.0670819,23.854157 8.1417282,23.552959 7.5244927,23.25586 3.5029596,21.328868 1.8583337,16.475487 3.8390882,12.387403 6.1019501,7.7131219 12.276305,6.5215263 15.991722,10.042312 c 1.074409,1.016496 1.551592,1.883893 3.169208,5.729777 1.688644,4.021984 2.000762,4.654382 2.547971,5.19058 0.586224,0.570297 1.129431,0.762397 2.168827,0.762397 1.707651,0 2.927116,-1.055496 2.927116,-2.52829 0,-1.246595 -0.438167,-1.645793 -2.673019,-2.43919 -3.403298,-1.227595 -4.505718,-2.337091 -4.509719,-4.565282 0,-1.188595 0.301115,-1.980992 1.066406,-2.8023888 1.098419,-1.1724954 2.993141,-1.5596939 4.66978,-0.977496 0.715273,0.2541987 2.211844,1.5787934 2.211844,1.9579928 0,0.184098 -0.867331,0.746396 -1.348514,0.879495 -0.254097,0.066 -0.473181,-0.02 -0.766293,-0.301198 -0.594225,-0.570298 -0.996379,-0.746397 -1.70765,-0.746397 -1.227468,0 -1.988759,0.738397 -1.988759,1.930992 0,1.188595 0.484185,1.590794 2.903107,2.407191 3.333271,1.125595 4.317645,2.142091 4.337652,4.494282 0.02001,2.031992 -0.89534,3.497686 -2.716034,4.365082 -0.828316,0.391198 -1.109423,0.441298 -2.461938,0.441298 -1.930736,0 -2.798067,-0.359198 -3.88048,-1.578793 -0.727276,-0.820397 -1.465559,-2.360191 -3.829459,-7.980968 -0.980374,-2.329191 -2.238854,-3.470786 -4.337654,-3.919985 -1.063406,-0.227099 -2.5439701,-0.016 -3.5093395,0.492298 -0.941358,0.492199 -1.9927596,1.602794 -2.4889482,2.61829 -0.4101565,0.824396 -0.4491715,1.055496 -0.4491715,2.48919 0,1.367694 0.055016,1.691894 0.3981523,2.442191 0.5201983,1.145594 1.5435882,2.20409 2.6690171,2.774388 0.8133107,0.410198 1.0664077,0.461299 2.3639018,0.461299 1.246475,0 1.566597,-0.059 2.309881,-0.414199 0.848324,-0.414299 1.988758,-1.430795 2.453935,-2.192091 l 0.242093,-0.395199 0.477182,1.090496 c 0.266101,0.602298 0.480183,1.168595 0.480183,1.270594 0,0.301199 -1.078411,1.285696 -2.066788,1.898993 -1.500572,0.926497 -3.224229,1.273596 -5.0649311,1.023496 m -0.004,0"
     id="path10"
     inkscape:connector-curvature="0" />
</svg>
