<?xml version="1.0" encoding="UTF-8" standalone="no"?>
<!-- Created with Inkscape (http://www.inkscape.org/) -->

<svg
   xmlns:dc="http://purl.org/dc/elements/1.1/"
   xmlns:cc="http://creativecommons.org/ns#"
   xmlns:rdf="http://www.w3.org/1999/02/22-rdf-syntax-ns#"
   xmlns:svg="http://www.w3.org/2000/svg"
   xmlns="http://www.w3.org/2000/svg"
   xmlns:sodipodi="http://sodipodi.sourceforge.net/DTD/sodipodi-0.dtd"
   xmlns:inkscape="http://www.inkscape.org/namespaces/inkscape"
   id="svg7384"
   style="enable-background:new"
   height="32"
   width="32"
   version="1.1"
   sodipodi:docname="amarok_editcopy.svg"
   inkscape:version="0.92.4 (5da689c313, 2019-01-14)">
  <sodipodi:namedview
     pagecolor="#ffffff"
     bordercolor="#666666"
     borderopacity="1"
     objecttolerance="10"
     gridtolerance="10"
     guidetolerance="10"
     inkscape:pageopacity="0"
     inkscape:pageshadow="2"
     inkscape:window-width="1362"
     inkscape:window-height="695"
     id="namedview10"
     showgrid="true"
     inkscape:zoom="10.729167"
     inkscape:cx="7.9223306"
     inkscape:cy="24"
     inkscape:window-x="0"
     inkscape:window-y="0"
     inkscape:window-maximized="1"
     inkscape:current-layer="svg7384">
    <inkscape:grid
       type="xygrid"
       id="grid817" />
  </sodipodi:namedview>
  <metadata
     id="metadata90">
    <rdf:RDF>
      <cc:Work
         rdf:about="">
        <dc:format>image/svg+xml</dc:format>
        <dc:type
           rdf:resource="http://purl.org/dc/dcmitype/StillImage" />
        <dc:title>Paper Symbolic Icon Theme</dc:title>
      </cc:Work>
    </rdf:RDF>
  </metadata>
  <title
     id="title8473">Paper Symbolic Icon Theme</title>
  <defs
     id="defs7386" />
  <path
     inkscape:connector-curvature="0"
     d="M 5.8461539,2 C 5.8461539,2 4,2 4,3.8666667 V 20.666667 c 0,0 0,1.866666 1.8461539,1.866666 H 7.692308 V 5.7333333 H 22.461539 V 3.8666667 C 22.461539,2 20.615385,2 20.615385,2 Z m 5.5384611,5.6 c 0,0 -1.846154,0 -1.846154,1.8666667 V 28.133333 C 9.538461,30 11.384615,30 11.384615,30 H 26.153846 C 26.153846,30 28,30 28,28.12792 V 9.4668533 C 28,7.6001867 26.153846,7.6001867 26.153846,7.6001867 Z m 1.846154,3.733333 H 24.307692 V 26.266667 H 13.230769 Z"
     style="color:#000000;fill:#555555;stroke-width:1.85638189;enable-background:new"
     id="rect5195" />
</svg>
