<?xml version="1.0" encoding="UTF-8" standalone="no"?>
<svg
   xmlns:dc="http://purl.org/dc/elements/1.1/"
   xmlns:cc="http://creativecommons.org/ns#"
   xmlns:rdf="http://www.w3.org/1999/02/22-rdf-syntax-ns#"
   xmlns:svg="http://www.w3.org/2000/svg"
   xmlns="http://www.w3.org/2000/svg"
   xmlns:sodipodi="http://sodipodi.sourceforge.net/DTD/sodipodi-0.dtd"
   xmlns:inkscape="http://www.inkscape.org/namespaces/inkscape"
   width="32"
   height="32"
   viewBox="0 0 32 32"
   version="1.1"
   id="svg7"
   sodipodi:docname="amarok_random_track.svg"
   inkscape:version="0.92.4 (5da689c313, 2019-01-14)">
  <metadata
     id="metadata11">
    <rdf:RDF>
      <cc:Work
         rdf:about="">
        <dc:format>image/svg+xml</dc:format>
        <dc:type
           rdf:resource="http://purl.org/dc/dcmitype/StillImage" />
        <dc:title></dc:title>
      </cc:Work>
    </rdf:RDF>
  </metadata>
  <sodipodi:namedview
     pagecolor="#ffffff"
     bordercolor="#666666"
     borderopacity="1"
     objecttolerance="10"
     gridtolerance="10"
     guidetolerance="10"
     inkscape:pageopacity="0"
     inkscape:pageshadow="2"
     inkscape:window-width="1362"
     inkscape:window-height="695"
     id="namedview9"
     showgrid="true"
     inkscape:zoom="10.729167"
     inkscape:cx="24"
     inkscape:cy="24"
     inkscape:window-x="0"
     inkscape:window-y="0"
     inkscape:window-maximized="1"
     inkscape:current-layer="svg7">
    <inkscape:grid
       type="xygrid"
       id="grid869" />
  </sodipodi:namedview>
  <defs
     id="defs3">
    <style
       type="text/css"
       id="current-color-scheme">
   .ColorScheme-Text { color:#5c616c; } .ColorScheme-Highlight { color:#5294e2; } .ColorScheme-ButtonBackground { color:#d3dae3; }
  </style>
  </defs>
  <g
     style="fill:#555555;fill-opacity:1;enable-background:new"
     id="g835"
     transform="matrix(0.64999999,0,0,0.65,0.40000043,0.75000349)">
    <g
       transform="translate(-481.0002,255)"
       inkscape:label="status"
       id="layer9"
       style="fill:#555555;fill-opacity:1">
      <g
         style="fill:#555555;fill-opacity:1"
         transform="matrix(2.6666667,0,0,2.7142857,-800.33435,354.57142)"
         id="g829">
        <path
           inkscape:connector-curvature="0"
           d="m 482.00045,-220 v 0.9375 1.0625 h 4 c 0.5713,0 1,0.4287 1,1 v 4 c 0,1.6447 1.3553,3 3,3 h 5 v -2 h -5 c -0.5713,0 -1,-0.4287 -1,-1 v -4 c 0,-1.6447 -1.3553,-3 -3,-3 z"
           id="path4544-6"
           sodipodi:nodetypes="cccssssccssssc"
           style="color:#555555;fill:#555555;fill-opacity:1" />
        <path
           inkscape:connector-curvature="0"
           d="m 490.00045,-220 c -0.22957,0 -0.44085,0.0438 -0.65625,0.0937 0.4813,0.5511 0.86125,1.1776 1.0312,1.9062 h 4.625 v -2 h -5 z m -8,10 h 4 c 0.22957,0 0.44085,-0.0438 0.65625,-0.0937 -0.4813,-0.55115 -0.86125,-1.1777 -1.0312,-1.9063 h -3.62505 z"
           id="path4544-1-5"
           sodipodi:nodetypes="ccccccccscccc"
           style="color:#555555;fill:#555555;fill-opacity:1" />
        <path
           inkscape:connector-curvature="0"
           d="m 493.00045,-222 v 6 l 4,-3 z"
           id="path3003-08"
           style="fill:#555555;fill-opacity:1" />
        <path
           inkscape:connector-curvature="0"
           d="m 493.00045,-214 v 6 l 4,-3 z"
           id="path3773"
           style="fill:#555555;fill-opacity:1" />
      </g>
    </g>
  </g>
  <path
     style="color:#555555;fill:#555555;fill-opacity:1;stroke-width:1.85714293"
     inkscape:connector-curvature="0"
     d="M 6.2499999,14.399999 C 4.4550711,14.399999 3,15.85507 3,17.649999 3,19.444928 4.4550711,20.9 6.2499999,20.9 c 1.794929,0 3.2500003,-1.455072 3.2500003,-3.250001 0,-1.794929 -1.4550713,-3.25 -3.2500003,-3.25 z M 5.785714,15.32857 h 0.9285718 v 4.642858 H 5.785714 v -3.25 H 4.8571429 v -0.464286 c 0.9285711,0 0.9285711,-0.928572 0.9285711,-0.928572 z"
     id="path5092"
     sodipodi:nodetypes="ssssscccccccc" />
</svg>
