<?xml version="1.0" encoding="UTF-8" standalone="no"?>
<!-- Created with Inkscape (http://www.inkscape.org/) -->

<svg
   xmlns:dc="http://purl.org/dc/elements/1.1/"
   xmlns:cc="http://creativecommons.org/ns#"
   xmlns:rdf="http://www.w3.org/1999/02/22-rdf-syntax-ns#"
   xmlns:svg="http://www.w3.org/2000/svg"
   xmlns="http://www.w3.org/2000/svg"
   xmlns:sodipodi="http://sodipodi.sourceforge.net/DTD/sodipodi-0.dtd"
   xmlns:inkscape="http://www.inkscape.org/namespaces/inkscape"
   id="svg7384"
   style="enable-background:new"
   height="32"
   width="32"
   version="1.1"
   sodipodi:docname="amarok_settings_indicator.svg"
   inkscape:version="0.92.4 (5da689c313, 2019-01-14)">
  <sodipodi:namedview
     pagecolor="#ffffff"
     bordercolor="#666666"
     borderopacity="1"
     objecttolerance="10"
     gridtolerance="10"
     guidetolerance="10"
     inkscape:pageopacity="0"
     inkscape:pageshadow="2"
     inkscape:window-width="1362"
     inkscape:window-height="695"
     id="namedview10"
     showgrid="true"
     inkscape:zoom="10.729167"
     inkscape:cx="7.9223306"
     inkscape:cy="24"
     inkscape:window-x="0"
     inkscape:window-y="0"
     inkscape:window-maximized="1"
     inkscape:current-layer="svg7384">
    <inkscape:grid
       type="xygrid"
       id="grid817" />
  </sodipodi:namedview>
  <metadata
     id="metadata90">
    <rdf:RDF>
      <cc:Work
         rdf:about="">
        <dc:format>image/svg+xml</dc:format>
        <dc:type
           rdf:resource="http://purl.org/dc/dcmitype/StillImage" />
        <dc:title>Paper Symbolic Icon Theme</dc:title>
      </cc:Work>
    </rdf:RDF>
  </metadata>
  <title
     id="title8473">Paper Symbolic Icon Theme</title>
  <defs
     id="defs7386" />
  <g
     id="layer12"
     transform="matrix(1.8738739,0,0,1.8571535,-907.7074,-184.90965)"
     style="fill:#555555;fill-opacity:1">
    <path
       id="path10500"
       style="fill:#555555;fill-opacity:1;enable-background:new"
       d="m 491.19,101.72 -0.1543,1.8438 c -0.58462,0.21656 -1.12816,0.53093 -1.6074,0.92969 l -1.6758,-0.78906 -1.75,3.0312 1.5215,1.0566 c -0.0542,0.30631 -0.0823,0.61667 -0.084,0.92773 2.1e-4,0.31226 0.027,0.62393 0.0801,0.93164 l -1.5176,1.0527 1.75,3.0312 1.6719,-0.7871 c 0.48084,0.39706 1.02571,0.70945 1.6113,0.92382 l 0.1543,1.8477 h 3.5 l 0.1543,-1.8438 c 0.58462,-0.21656 1.12816,-0.53093 1.6074,-0.92969 l 1.6758,0.78906 1.75,-3.0312 -1.5215,-1.0566 c 0.0542,-0.30631 0.0823,-0.61667 0.084,-0.92773 -2.1e-4,-0.31226 -0.027,-0.62393 -0.0801,-0.93164 l 1.5176,-1.0527 -1.75,-3.0312 -1.6719,0.7871 c -0.48084,-0.39706 -1.02571,-0.70945 -1.6113,-0.92382 L 494.69,101.72 Z"
       inkscape:connector-curvature="0"
       sodipodi:nodetypes="ccccccccccccccccccccccccccc" />
  </g>
  <path
     inkscape:connector-curvature="0"
     d="m 16.000186,10.5 c 0.487189,0 0.882142,0.388024 0.882142,0.866667 -2.55e-4,0.02886 -0.0018,0.05764 -0.0052,0.08632 2.02039,0.397652 3.533891,2.141735 3.533741,4.247008 l -1.23e-4,1.733326 v 2.166668 l 1.764285,1.733334 v 0.433334 H 20.410653 11.589224 9.8249389 v -0.433334 l 1.7642851,-1.733334 1.24e-4,-3.899994 c 7.1e-5,-2.105273 1.513476,-3.849364 3.533741,-4.247008 -0.0036,-0.02868 -0.0052,-0.05746 -0.0052,-0.08632 0,-0.478643 0.394953,-0.866667 0.882144,-0.866667 z m 1.524679,12.133332 c -0.3146,0.53535 -0.895596,0.865576 -1.524803,0.866668 -0.629824,-4.86e-4 -1.211614,-0.330798 -1.526522,-0.866668 z"
     id="path5938"
     sodipodi:nodetypes="sccscccccccccscssscccc"
     style="display:inline;opacity:1;fill:#ffffff;fill-opacity:1;stroke:none;stroke-width:2.62311244;stroke-linecap:round;stroke-miterlimit:4;stroke-dasharray:none;stroke-opacity:1;enable-background:new" />
</svg>
