<?xml version="1.0" encoding="UTF-8" standalone="no"?>
<!-- Created with Inkscape (http://www.inkscape.org/) -->

<svg
   xmlns:dc="http://purl.org/dc/elements/1.1/"
   xmlns:cc="http://creativecommons.org/ns#"
   xmlns:rdf="http://www.w3.org/1999/02/22-rdf-syntax-ns#"
   xmlns:svg="http://www.w3.org/2000/svg"
   xmlns="http://www.w3.org/2000/svg"
   xmlns:sodipodi="http://sodipodi.sourceforge.net/DTD/sodipodi-0.dtd"
   xmlns:inkscape="http://www.inkscape.org/namespaces/inkscape"
   id="svg7384"
   style="enable-background:new"
   height="32"
   width="32"
   version="1.1"
   sodipodi:docname="amarok_settings_playback.svg"
   inkscape:version="0.92.4 (5da689c313, 2019-01-14)">
  <sodipodi:namedview
     pagecolor="#ffffff"
     bordercolor="#666666"
     borderopacity="1"
     objecttolerance="10"
     gridtolerance="10"
     guidetolerance="10"
     inkscape:pageopacity="0"
     inkscape:pageshadow="2"
     inkscape:window-width="1362"
     inkscape:window-height="695"
     id="namedview10"
     showgrid="true"
     inkscape:zoom="10.729167"
     inkscape:cx="7.9223306"
     inkscape:cy="24"
     inkscape:window-x="0"
     inkscape:window-y="0"
     inkscape:window-maximized="1"
     inkscape:current-layer="svg7384">
    <inkscape:grid
       type="xygrid"
       id="grid817" />
  </sodipodi:namedview>
  <metadata
     id="metadata90">
    <rdf:RDF>
      <cc:Work
         rdf:about="">
        <dc:format>image/svg+xml</dc:format>
        <dc:type
           rdf:resource="http://purl.org/dc/dcmitype/StillImage" />
        <dc:title>Paper Symbolic Icon Theme</dc:title>
      </cc:Work>
    </rdf:RDF>
  </metadata>
  <title
     id="title8473">Paper Symbolic Icon Theme</title>
  <defs
     id="defs7386" />
  <g
     id="layer12"
     transform="matrix(1.8738739,0,0,1.8571535,-907.7074,-184.90965)"
     style="fill:#555555;fill-opacity:1">
    <path
       id="path10500"
       style="fill:#555555;fill-opacity:1;enable-background:new"
       d="m 491.19,101.72 -0.1543,1.8438 c -0.58462,0.21656 -1.12816,0.53093 -1.6074,0.92969 l -1.6758,-0.78906 -1.75,3.0312 1.5215,1.0566 c -0.0542,0.30631 -0.0823,0.61667 -0.084,0.92773 2.1e-4,0.31226 0.027,0.62393 0.0801,0.93164 l -1.5176,1.0527 1.75,3.0312 1.6719,-0.7871 c 0.48084,0.39706 1.02571,0.70945 1.6113,0.92382 l 0.1543,1.8477 h 3.5 l 0.1543,-1.8438 c 0.58462,-0.21656 1.12816,-0.53093 1.6074,-0.92969 l 1.6758,0.78906 1.75,-3.0312 -1.5215,-1.0566 c 0.0542,-0.30631 0.0823,-0.61667 0.084,-0.92773 -2.1e-4,-0.31226 -0.027,-0.62393 -0.0801,-0.93164 l 1.5176,-1.0527 -1.75,-3.0312 -1.6719,0.7871 c -0.48084,-0.39706 -1.02571,-0.70945 -1.6113,-0.92382 L 494.69,101.72 Z"
       inkscape:connector-curvature="0"
       sodipodi:nodetypes="ccccccccccccccccccccccccccc" />
  </g>
  <path
     inkscape:connector-curvature="0"
     d="m 12.099989,11.8 v 10.4 l 10.4,-5.2 -9.359275,-4.679636 z"
     id="path3807-1-1-9-38-4"
     sodipodi:nodetypes="ccccc"
     style="fill:#ffffff;stroke-width:0.90520382;enable-background:new" />
</svg>
