<?xml version="1.0" encoding="UTF-8" standalone="no"?>
<svg
   xmlns:dc="http://purl.org/dc/elements/1.1/"
   xmlns:cc="http://creativecommons.org/ns#"
   xmlns:rdf="http://www.w3.org/1999/02/22-rdf-syntax-ns#"
   xmlns:svg="http://www.w3.org/2000/svg"
   xmlns="http://www.w3.org/2000/svg"
   xmlns:sodipodi="http://sodipodi.sourceforge.net/DTD/sodipodi-0.dtd"
   xmlns:inkscape="http://www.inkscape.org/namespaces/inkscape"
   width="32"
   height="32"
   viewBox="0 0 32 32"
   version="1.1"
   id="svg7"
   sodipodi:docname="amarok_info.svg"
   inkscape:version="0.92.4 (5da689c313, 2019-01-14)">
  <metadata
     id="metadata11">
    <rdf:RDF>
      <cc:Work
         rdf:about="">
        <dc:format>image/svg+xml</dc:format>
        <dc:type
           rdf:resource="http://purl.org/dc/dcmitype/StillImage" />
        <dc:title></dc:title>
      </cc:Work>
    </rdf:RDF>
  </metadata>
  <sodipodi:namedview
     pagecolor="#ffffff"
     bordercolor="#666666"
     borderopacity="1"
     objecttolerance="10"
     gridtolerance="10"
     guidetolerance="10"
     inkscape:pageopacity="0"
     inkscape:pageshadow="2"
     inkscape:window-width="1362"
     inkscape:window-height="695"
     id="namedview9"
     showgrid="true"
     inkscape:zoom="10.729167"
     inkscape:cx="7.9223296"
     inkscape:cy="23.999999"
     inkscape:window-x="0"
     inkscape:window-y="0"
     inkscape:window-maximized="1"
     inkscape:current-layer="svg7">
    <inkscape:grid
       type="xygrid"
       id="grid818" />
  </sodipodi:namedview>
  <defs
     id="defs3">
    <style
       type="text/css"
       id="current-color-scheme">
   .ColorScheme-Text { color:#5c616c; } .ColorScheme-Highlight { color:#5294e2; } .ColorScheme-ButtonBackground { color:#d3dae3; }
  </style>
  </defs>
  <g
     id="g5648"
     inkscape:label="dialog-error"
     style="color:#555555;display:inline;visibility:visible;fill:#555555;fill-opacity:1;stroke:none;stroke-width:1.78124988;marker:none;enable-background:new"
     transform="matrix(2,0,0,2,-92.599743,-1035.0068)" />
  <path
     inkscape:connector-curvature="0"
     d="M 16,3 C 8.26794,3 2,9.2682403 2,17 2,24.73206 8.26794,31 16,31 23.73206,31 30,24.73206 30,17 30,9.2682403 23.73206,3 16,3 Z m 0,5.5000001 c 1.38072,0 2.5,1.1192797 2.5,2.4999999 0,1.38072 -1.11928,2.5 -2.5,2.5 -1.38072,0 -2.5,-1.11928 -2.5,-2.5 0,-1.3807202 1.11928,-2.4999999 2.5,-2.4999999 z M 14,15 h 2 2 v 10 h -4 z"
     id="path5652"
     style="display:inline;fill:#555555;fill-opacity:1;stroke:none;stroke-width:1.99999988;enable-background:new" />
</svg>
