<?xml version="1.0" encoding="UTF-8" standalone="no"?>
<svg
   xmlns:dc="http://purl.org/dc/elements/1.1/"
   xmlns:cc="http://creativecommons.org/ns#"
   xmlns:rdf="http://www.w3.org/1999/02/22-rdf-syntax-ns#"
   xmlns:svg="http://www.w3.org/2000/svg"
   xmlns="http://www.w3.org/2000/svg"
   xmlns:sodipodi="http://sodipodi.sourceforge.net/DTD/sodipodi-0.dtd"
   xmlns:inkscape="http://www.inkscape.org/namespaces/inkscape"
   height="32"
   width="32"
   version="1"
   id="svg12"
   sodipodi:docname="amarok_magnatune.svg"
   inkscape:version="0.92.4 (5da689c313, 2019-01-14)">
  <metadata
     id="metadata18">
    <rdf:RDF>
      <cc:Work
         rdf:about="">
        <dc:format>image/svg+xml</dc:format>
        <dc:type
           rdf:resource="http://purl.org/dc/dcmitype/StillImage" />
        <dc:title></dc:title>
      </cc:Work>
    </rdf:RDF>
  </metadata>
  <defs
     id="defs16" />
  <sodipodi:namedview
     pagecolor="#ffffff"
     bordercolor="#666666"
     borderopacity="1"
     objecttolerance="10"
     gridtolerance="10"
     guidetolerance="10"
     inkscape:pageopacity="0"
     inkscape:pageshadow="2"
     inkscape:window-width="1362"
     inkscape:window-height="695"
     id="namedview14"
     showgrid="true"
     inkscape:zoom="10.729167"
     inkscape:cx="7.9223296"
     inkscape:cy="23.999999"
     inkscape:window-x="0"
     inkscape:window-y="0"
     inkscape:window-maximized="1"
     inkscape:current-layer="svg12">
    <inkscape:grid
       type="xygrid"
       id="grid816" />
  </sodipodi:namedview>
  <rect
     transform="matrix(0,-1,-1,0,0,0)"
     rx="14"
     ry="14"
     height="28"
     width="28"
     y="-30"
     x="-31"
     id="rect2"
     style="fill:#444444;fill-opacity:1;stroke-width:0.70003504" />
  <path
     d="M 16,6.5 A 10.5,10.5 0 0 0 5.5,17 10.5,10.5 0 0 0 16,27.5 10.5,10.5 0 0 0 26.5,17 10.5,10.5 0 0 0 16,6.5 Z m 0,2.1 c 1.1634,0 2.1,0.9366 2.1,2.1 v 9.8 c 0,1.1634 -0.9366,2.1 -2.1,2.1 -1.1634,0 -2.1,-0.9366 -2.1,-2.1 v -9.8 c 0,-1.1634 0.9366,-2.1 2.1,-2.1 z m -6.3,5.6 c 1.1634,0 2.1,0.9366 2.1,2.1 v 4.2 c 0,1.1634 -0.9366,2.1 -2.1,2.1 -1.1634,0 -2.1,-0.9366 -2.1,-2.1 v -4.2 c 0,-1.1634 0.9366,-2.1 2.1,-2.1 z m 12.6,0 c 1.1634,0 2.1,0.9366 2.1,2.1 v 4.2 c 0,1.1634 -0.9366,2.1 -2.1,2.1 -1.1634,0 -2.1,-0.9366 -2.1,-2.1 v -4.2 c 0,-1.1634 0.9366,-2.1 2.1,-2.1 z"
     id="path10"
     inkscape:connector-curvature="0"
     style="fill:#ffffff;stroke-width:0.69999999" />
</svg>
