<?xml version="1.0" encoding="UTF-8" standalone="no"?>
<svg
   xmlns:dc="http://purl.org/dc/elements/1.1/"
   xmlns:cc="http://creativecommons.org/ns#"
   xmlns:rdf="http://www.w3.org/1999/02/22-rdf-syntax-ns#"
   xmlns:svg="http://www.w3.org/2000/svg"
   xmlns="http://www.w3.org/2000/svg"
   xmlns:sodipodi="http://sodipodi.sourceforge.net/DTD/sodipodi-0.dtd"
   xmlns:inkscape="http://www.inkscape.org/namespaces/inkscape"
   width="32"
   height="32"
   version="1"
   id="svg16"
   sodipodi:docname="amarok_burn.svg"
   inkscape:version="0.92.4 (5da689c313, 2019-01-14)">
  <metadata
     id="metadata22">
    <rdf:RDF>
      <cc:Work
         rdf:about="">
        <dc:format>image/svg+xml</dc:format>
        <dc:type
           rdf:resource="http://purl.org/dc/dcmitype/StillImage" />
        <dc:title></dc:title>
      </cc:Work>
    </rdf:RDF>
  </metadata>
  <defs
     id="defs20" />
  <sodipodi:namedview
     pagecolor="#ffffff"
     bordercolor="#666666"
     borderopacity="1"
     objecttolerance="10"
     gridtolerance="10"
     guidetolerance="10"
     inkscape:pageopacity="0"
     inkscape:pageshadow="2"
     inkscape:window-width="1362"
     inkscape:window-height="695"
     id="namedview18"
     showgrid="true"
     inkscape:zoom="10.729167"
     inkscape:cx="7.9223306"
     inkscape:cy="24"
     inkscape:window-x="0"
     inkscape:window-y="0"
     inkscape:window-maximized="1"
     inkscape:current-layer="svg16">
    <inkscape:grid
       type="xygrid"
       id="grid819" />
  </sodipodi:namedview>
  <path
     style="color:#bebebe;font-style:normal;font-variant:normal;font-weight:normal;font-stretch:normal;font-size:medium;line-height:normal;font-family:Sans;-inkscape-font-specification:Sans;text-indent:0;text-align:start;text-decoration:none;text-decoration-line:none;letter-spacing:normal;word-spacing:normal;text-transform:none;writing-mode:lr-tb;direction:ltr;baseline-shift:baseline;text-anchor:start;display:inline;overflow:visible;visibility:visible;fill:#555555;fill-opacity:1;stroke:none;stroke-width:9.62142849;marker:none;filter:url(#filter7554);enable-background:accumulate"
     mask="none"
     clip-path="none"
     d="M 14.999999,4 C 8.4131822,4 3,9.4131996 3,16 c 0,6.586799 5.4131822,11.999999 11.999999,11.999999 0.536859,0 1.061759,-0.04887 1.580729,-0.118489 a 7.3333328,7.3333327 0 0 1 -1.580729,-4.548178 7.3333328,7.3333327 0 0 1 1.299479,-4.164062 c -0.401458,0.16618 -0.84033,0.259115 -1.299479,0.259115 -1.883399,0 -3.428385,-1.545003 -3.428385,-3.428385 0,-1.883401 1.544986,-3.428386 3.428385,-3.428386 1.8834,0 3.428385,1.544985 3.428385,3.428386 0,0.463044 -0.09416,0.905673 -0.26302,1.309895 A 7.3333328,7.3333327 0 0 1 22.333332,16 7.3333328,7.3333327 0 0 1 26.880207,17.589844 C 26.950637,17.06794 26.999998,16.540016 26.999998,16 c 0,-6.5868004 -5.413199,-12 -11.999999,-12 z"
     id="path39797"
     inkscape:connector-curvature="0" />
  <circle
     style="fill:#ff5722;stroke-width:0.41666666"
     cx="22.333334"
     cy="23.333334"
     r="6.6666665"
     id="circle12-6" />
  <path
     inkscape:connector-curvature="0"
     style="fill:#ffffff;stroke-width:0.41666666"
     d="m 23.105833,19.999999 c -2.045,0.833334 -3.2725,2.786667 -3.2725,4.166667 0,1.3645 1.073667,2.471667 2.40725,2.497584 -0.6664,-0.01333 -1.20325,-0.565584 -1.20325,-1.247584 0,-0.690358 0.613592,-1.666667 1.63625,-2.083334 0,1.458334 1.098,1.669167 0.818116,2.5 -0.158691,0.471109 -0.545775,0.828676 -1.216833,0.832517 0.004,2.1e-5 0.0085,4.58e-4 0.01275,4.58e-4 1.3555,0 2.13525,-0.719332 2.454333,-1.666666 0.55975,-1.66175 -1.63625,-2.083334 -1.63625,-5 z"
     id="path14-7" />
</svg>
