<?xml version="1.0" encoding="UTF-8" standalone="no"?>
<!-- Created with Inkscape (http://www.inkscape.org/) -->

<svg
   xmlns:dc="http://purl.org/dc/elements/1.1/"
   xmlns:cc="http://creativecommons.org/ns#"
   xmlns:rdf="http://www.w3.org/1999/02/22-rdf-syntax-ns#"
   xmlns:svg="http://www.w3.org/2000/svg"
   xmlns="http://www.w3.org/2000/svg"
   xmlns:sodipodi="http://sodipodi.sourceforge.net/DTD/sodipodi-0.dtd"
   xmlns:inkscape="http://www.inkscape.org/namespaces/inkscape"
   sodipodi:docname="amarok_refresh.svg"
   inkscape:export-filename="/home/sam/source-symbolic.png"
   inkscape:export-xdpi="270"
   inkscape:export-ydpi="270"
   height="32"
   id="svg7384"
   style="enable-background:new"
   version="1.1"
   inkscape:version="0.92.4 (5da689c313, 2019-01-14)"
   width="32">
  <sodipodi:namedview
     inkscape:bbox-nodes="true"
     inkscape:bbox-paths="true"
     bordercolor="#666666"
     borderlayer="false"
     borderopacity="1"
     inkscape:current-layer="layer12"
     inkscape:cx="13.854063"
     inkscape:cy="24.260646"
     gridtolerance="10"
     inkscape:guide-bbox="true"
     guidetolerance="10"
     id="namedview88"
     inkscape:object-nodes="true"
     inkscape:object-paths="true"
     objecttolerance="10"
     pagecolor="#f7f7f7"
     inkscape:pageopacity="1"
     inkscape:pageshadow="2"
     showborder="true"
     showgrid="false"
     showguides="true"
     inkscape:showpageshadow="false"
     inkscape:snap-bbox="true"
     inkscape:snap-bbox-edge-midpoints="false"
     inkscape:snap-bbox-midpoints="false"
     inkscape:snap-center="false"
     inkscape:snap-global="true"
     inkscape:snap-grids="true"
     inkscape:snap-intersection-paths="true"
     inkscape:snap-midpoints="true"
     inkscape:snap-nodes="true"
     inkscape:snap-object-midpoints="true"
     inkscape:snap-others="true"
     inkscape:snap-page="false"
     inkscape:snap-smooth-nodes="true"
     inkscape:snap-to-guides="true"
     inkscape:window-height="695"
     inkscape:window-maximized="1"
     inkscape:window-width="1362"
     inkscape:window-x="0"
     inkscape:window-y="0"
     inkscape:zoom="11.38">
    <inkscape:grid
       color="#000000"
       dotted="false"
       empcolor="#0800ff"
       empopacity="0.4627451"
       empspacing="4"
       enabled="true"
       id="grid4866"
       opacity="0.16470588"
       originx="-184.00227"
       originy="-256.01646"
       snapvisiblegridlinesonly="true"
       spacingx="0.25"
       spacingy="0.25"
       type="xygrid"
       visible="true" />
  </sodipodi:namedview>
  <metadata
     id="metadata90">
    <rdf:RDF>
      <cc:Work
         rdf:about="">
        <dc:format>image/svg+xml</dc:format>
        <dc:type
           rdf:resource="http://purl.org/dc/dcmitype/StillImage" />
        <dc:title>Paper Symbolic Icon Theme</dc:title>
      </cc:Work>
    </rdf:RDF>
  </metadata>
  <title
     id="title8473">Paper Symbolic Icon Theme</title>
  <defs
     id="defs7386">
    <filter
       inkscape:collect="always"
       id="filter7554"
       style="color-interpolation-filters:sRGB">
      <feBlend
         inkscape:collect="always"
         id="feBlend7556"
         in2="BackgroundImage"
         mode="darken" />
    </filter>
  </defs>
  <g
     inkscape:groupmode="layer"
     id="layer9"
     inkscape:label="status"
     style="display:inline"
     transform="translate(-425.00247,55.016457)" />
  <g
     inkscape:groupmode="layer"
     id="layer10"
     inkscape:label="devices"
     style="display:inline;filter:url(#filter7554)"
     transform="translate(-425.00247,55.016457)" />
  <g
     inkscape:groupmode="layer"
     id="layer1"
     inkscape:label="places"
     style="display:inline"
     transform="translate(-184.00227,-561.98354)" />
  <g
     inkscape:groupmode="layer"
     id="layer14"
     inkscape:label="mimetypes"
     style="display:inline"
     transform="translate(-425.00247,55.016457)" />
  <g
     inkscape:groupmode="layer"
     id="layer15"
     inkscape:label="emblems"
     style="display:inline"
     transform="translate(-425.00247,55.016457)" />
  <g
     inkscape:groupmode="layer"
     id="g71291"
     inkscape:label="emotes"
     style="display:inline"
     transform="translate(-425.00247,55.016457)" />
  <g
     inkscape:groupmode="layer"
     id="layer2"
     inkscape:label="categories"
     style="display:inline"
     transform="translate(-184.00227,-411.98354)" />
  <g
     inkscape:groupmode="layer"
     id="g6058"
     inkscape:label="apps"
     style="display:inline"
     transform="translate(-184.00227,-411.98354)" />
  <g
     inkscape:groupmode="layer"
     id="layer12"
     inkscape:label="actions"
     style="display:inline"
     transform="translate(-425.00247,55.016457)">
    <path
       inkscape:connector-curvature="0"
       d="m 455.00238,-38.683041 h -3.49999 c 0,-4.911034 -3.26439,-9.037717 -7.71091,-10.277949 -0.0553,-0.01601 -0.10868,-0.04089 -0.16398,-0.05547 -0.44656,-0.116447 -0.89974,-0.166047 -1.36718,-0.222226 -0.40824,-0.04907 -0.8366,-0.111114 -1.25781,-0.111114 -1.07851,0.0011 -2.15053,0.16907 -3.17186,0.500009 v 0.05547 c -1.47278,0.474782 -2.82383,1.234369 -3.93749,2.277817 l 2.07812,2.83338 c 0.8785,-0.912442 2.02666,-1.504682 3.28124,-1.833364 v -0.05547 c 0.66521,-0.158758 1.38183,-0.216395 2.07812,-0.16658 0.31815,0.02275 0.61125,0.05084 0.92968,0.111113 3.26736,0.600561 5.74217,3.452165 5.74217,6.944561 h -3.49999 l 5.24998,7.111231 5.24999,-7.111231 z m -6.8906,7.833465 -2.07812,-2.833381 c -0.8785,0.912443 -2.02666,1.504683 -3.28124,1.833364 v 0.05547 c -0.66521,0.158758 -1.38183,0.216395 -2.07812,0.16658 -0.31815,-0.02275 -0.61125,-0.05084 -0.92968,-0.111113 -3.26736,-0.600561 -5.74217,-3.452164 -5.74217,-6.944561 h 3.49999 l -5.24998,-7.111231 -5.24999,7.111231 h 3.49999 c 0,4.911034 3.26438,9.037717 7.71091,10.277951 0.0563,0.01601 0.10727,0.04071 0.16397,0.05547 0.44658,0.116447 0.89975,0.166047 1.36719,0.222226 0.40824,0.04907 0.8366,0.111113 1.25781,0.111113 1.07852,-0.0011 2.15053,-0.16907 3.17186,-0.500009 v -0.05547 c 1.47278,-0.474782 2.82382,-1.234368 3.93749,-2.277818 z"
       id="path8675"
       style="display:inline;fill:#555555;fill-opacity:1;stroke:none;stroke-width:1.7638464;enable-background:new" />
  </g>
</svg>
