<?xml version="1.0" encoding="UTF-8" standalone="no"?>
<svg
   xmlns:dc="http://purl.org/dc/elements/1.1/"
   xmlns:cc="http://creativecommons.org/ns#"
   xmlns:rdf="http://www.w3.org/1999/02/22-rdf-syntax-ns#"
   xmlns:svg="http://www.w3.org/2000/svg"
   xmlns="http://www.w3.org/2000/svg"
   xmlns:sodipodi="http://sodipodi.sourceforge.net/DTD/sodipodi-0.dtd"
   xmlns:inkscape="http://www.inkscape.org/namespaces/inkscape"
   height="32"
   version="1.1"
   width="32"
   id="svg12"
   sodipodi:docname="amarok_repeat_album.svg"
   style="enable-background:new"
   inkscape:version="0.92.4 (5da689c313, 2019-01-14)">
  <sodipodi:namedview
     pagecolor="#ffffff"
     bordercolor="#666666"
     borderopacity="1"
     objecttolerance="10"
     gridtolerance="10"
     guidetolerance="10"
     inkscape:pageopacity="0"
     inkscape:pageshadow="2"
     inkscape:window-width="1362"
     inkscape:window-height="695"
     id="namedview14"
     showgrid="true"
     inkscape:zoom="10.729167"
     inkscape:cx="7.9223306"
     inkscape:cy="24"
     inkscape:window-x="0"
     inkscape:window-y="0"
     inkscape:window-maximized="1"
     inkscape:current-layer="layer9">
    <inkscape:grid
       type="xygrid"
       id="grid830" />
  </sodipodi:namedview>
  <metadata
     id="metadata90">
    <rdf:RDF>
      <cc:Work
         rdf:about="">
        <dc:format>image/svg+xml</dc:format>
        <dc:type
           rdf:resource="http://purl.org/dc/dcmitype/StillImage" />
        <dc:title></dc:title>
      </cc:Work>
    </rdf:RDF>
  </metadata>
  <defs
     id="defs7386" />
  <g
     inkscape:groupmode="layer"
     id="layer9"
     inkscape:label="status"
     transform="translate(-461.0002,219)">
    <path
       inkscape:connector-curvature="0"
       d="m 469.57162,-211.28576 c -3.05444,0 -5.57142,2.51699 -5.57142,5.57143 v 7.42857 c 0,3.05445 2.51698,5.57143 5.57142,5.57143 h 1.85715 1.21875 3.01785 c -0.313,-0.87759 -0.52232,-1.80063 -0.52232,-2.78571 0,-0.31902 0.0813,-0.61886 0.11607,-0.92857 h -2.6116 -1.21875 -1.85715 c -1.06098,0 -1.85714,-0.79616 -1.85714,-1.85715 v -7.42857 c 0,-1.06098 0.79616,-1.85714 1.85714,-1.85714 h 5.57143 v -3.71429 z m 13,0 v 0.92857 1.85715 0.92857 h 1.85715 c 1.06098,0 1.85714,0.79616 1.85714,1.85714 v 2.37947 c 1.47546,0.52622 2.75398,1.41194 3.71429,2.6116 v -4.99107 c 0,-3.05444 -2.51699,-5.57143 -5.57143,-5.57143 z"
       id="path5086"
       style="color:#000000;fill:#555555;fill-opacity:1;stroke-width:1.85714293" />
    <path
       inkscape:connector-curvature="0"
       d="m 480.71485,-209.42858 -7.42857,-5.57143 v 11.14286 z"
       id="path5088"
       style="fill:#555555;fill-opacity:1;stroke-width:1.85714293" />
    <path
       inkscape:connector-curvature="0"
       d="m 483.5002,-202 c -3.56786,0 -6.5,2.93215 -6.5,6.5 0,3.56785 2.93214,6.5 6.5,6.5 3.56785,0 6.5,-2.93215 6.5,-6.5 0,-3.56785 -2.93215,-6.5 -6.5,-6.5 z m 0,4.64286 c 1.02017,0 1.85714,0.83697 1.85714,1.85714 0,1.02017 -0.83697,1.85714 -1.85714,1.85714 -1.02018,0 -1.85714,-0.83697 -1.85714,-1.85714 0,-1.02017 0.83696,-1.85714 1.85714,-1.85714 z"
       id="path39797"
       style="color:#bebebe;font-style:normal;font-variant:normal;font-weight:normal;font-stretch:normal;font-size:medium;line-height:normal;font-family:Sans;-inkscape-font-specification:Sans;text-indent:0;text-align:start;text-decoration:none;text-decoration-line:none;letter-spacing:normal;word-spacing:normal;text-transform:none;writing-mode:lr-tb;direction:ltr;baseline-shift:baseline;text-anchor:start;display:inline;overflow:visible;visibility:visible;fill:#555555;fill-opacity:1;stroke:none;stroke-width:5.21160746;marker:none;filter:url(#filter7554);enable-background:accumulate" />
  </g>
</svg>
