<?xml version="1.0" encoding="UTF-8" standalone="no"?>
<!-- Created with Inkscape (http://www.inkscape.org/) -->

<svg
   xmlns:dc="http://purl.org/dc/elements/1.1/"
   xmlns:cc="http://creativecommons.org/ns#"
   xmlns:rdf="http://www.w3.org/1999/02/22-rdf-syntax-ns#"
   xmlns:svg="http://www.w3.org/2000/svg"
   xmlns="http://www.w3.org/2000/svg"
   xmlns:sodipodi="http://sodipodi.sourceforge.net/DTD/sodipodi-0.dtd"
   xmlns:inkscape="http://www.inkscape.org/namespaces/inkscape"
   id="svg7384"
   style="enable-background:new"
   height="32"
   width="32"
   version="1.1"
   sodipodi:docname="configure.svg"
   inkscape:version="0.92.4 (5da689c313, 2019-01-14)">
  <sodipodi:namedview
     pagecolor="#ffffff"
     bordercolor="#666666"
     borderopacity="1"
     objecttolerance="10"
     gridtolerance="10"
     guidetolerance="10"
     inkscape:pageopacity="0"
     inkscape:pageshadow="2"
     inkscape:window-width="1362"
     inkscape:window-height="695"
     id="namedview11"
     showgrid="false"
     fit-margin-top="0"
     fit-margin-left="0"
     fit-margin-right="0"
     fit-margin-bottom="0"
     inkscape:zoom="16.09375"
     inkscape:cx="16"
     inkscape:cy="16"
     inkscape:window-x="0"
     inkscape:window-y="0"
     inkscape:window-maximized="1"
     inkscape:current-layer="svg7384"
     showguides="true">
    <inkscape:grid
       type="xygrid"
       id="grid4507"
       originx="0"
       originy="0" />
  </sodipodi:namedview>
  <metadata
     id="metadata90">
    <rdf:RDF>
      <cc:Work
         rdf:about="">
        <dc:format>image/svg+xml</dc:format>
        <dc:type
           rdf:resource="http://purl.org/dc/dcmitype/StillImage" />
        <dc:title>Paper Symbolic Icon Theme</dc:title>
      </cc:Work>
    </rdf:RDF>
  </metadata>
  <title
     id="title8473">Paper Symbolic Icon Theme</title>
  <defs
     id="defs7386" />
  <rect
     id="rect3465"
     style="fill:#427bc3;stroke-width:0.85538477"
     ry="0"
     height="0"
     width="4.8808255"
     y="22.023907"
     x="-41.820282"
     transform="scale(-1,1)" />
  <path
     d="m 8.6728052,3.7525185 c 1.3696378,0.011688 2.7250178,0.5426525 3.7742628,1.5782316 1.580997,1.5605959 1.952553,3.8213035 1.179248,5.7439609 0.05954,0.04661 0.154326,0.100594 0.209681,0.155157 l 3.380899,3.338114 c 0.755692,0.745151 0.755692,1.970512 0,2.716491 l -0.314521,0.31048 c -0.754851,0.745152 -1.996165,0.745152 -2.751855,0 l -3.406902,-3.33828 c -0.05535,-0.05382 -0.08387,-0.147375 -0.13168,-0.206986 C 8.664418,14.813882 6.3746986,14.446274 4.7937016,12.885594 4.5798266,12.675296 4.3827262,12.447611 4.2166584,12.213302 4.1613027,12.134647 4.1101405,12.06096 4.0598169,11.979821 3.4299346,10.669845 3.7612307,10.747837 5.1342236,11.100543 c 1.3889292,0 2.5161761,-1.1127602 2.5161761,-2.4838391 0,-1.3710788 -1.1272469,-2.4838398 -2.5161761,-2.4838398 -0.838725,0 0.4982027,-1.5720219 1.5197703,-1.992204 0.048642,-0.018694 0.083034,-0.060431 0.13168,-0.077661 0.017611,-0.00525 0.034392,0.00515 0.052003,0 C 7.4264614,3.8613764 8.0563436,3.7472617 8.6728066,3.7525185 Z"
     style="fill:#b3b3b3;stroke:#808080;stroke-width:0.50468689;stroke-miterlimit:4;stroke-dasharray:none"
     sodipodi:nodetypes="csccccccccssccsccssc"
     id="rect2422"
     inkscape:connector-curvature="0" />
  <path
     d="m 27.747566,23.231887 c 0.721405,0.712134 0.72127,1.88865 1.29e-4,2.600525 l -1.905327,1.880839 c -0.721146,0.711877 -1.912978,0.712004 -2.634382,-1.27e-4 L 12.872013,17.509992 c -0.721146,-0.711875 -0.721146,-1.888521 0,-2.600396 l 1.905326,-1.880838 c 0.721145,-0.711876 1.913108,-0.711876 2.634253,0 z"
     style="fill:#d84315;stroke:#bf360c;stroke-width:0.50468689;stroke-miterlimit:4;stroke-dasharray:none"
     id="path2432"
     inkscape:connector-curvature="0" />
</svg>
