<?xml version="1.0" encoding="UTF-8" standalone="no"?>
<!-- Created with Inkscape (http://www.inkscape.org/) -->

<svg
   xmlns:dc="http://purl.org/dc/elements/1.1/"
   xmlns:cc="http://creativecommons.org/ns#"
   xmlns:rdf="http://www.w3.org/1999/02/22-rdf-syntax-ns#"
   xmlns:svg="http://www.w3.org/2000/svg"
   xmlns="http://www.w3.org/2000/svg"
   xmlns:sodipodi="http://sodipodi.sourceforge.net/DTD/sodipodi-0.dtd"
   xmlns:inkscape="http://www.inkscape.org/namespaces/inkscape"
   id="svg7384"
   style="enable-background:new"
   height="32"
   width="32"
   version="1.1"
   sodipodi:docname="configure.svg"
   inkscape:version="0.92.1 r15371">
  <sodipodi:namedview
     pagecolor="#ffffff"
     bordercolor="#666666"
     borderopacity="1"
     objecttolerance="10"
     gridtolerance="10"
     guidetolerance="10"
     inkscape:pageopacity="0"
     inkscape:pageshadow="2"
     inkscape:window-width="1366"
     inkscape:window-height="703"
     id="namedview11"
     showgrid="false"
     fit-margin-top="0"
     fit-margin-left="0"
     fit-margin-right="0"
     fit-margin-bottom="0"
     inkscape:zoom="8.46875"
     inkscape:cx="-0.40638332"
     inkscape:cy="12.58267"
     inkscape:window-x="-3"
     inkscape:window-y="-4"
     inkscape:window-maximized="1"
     inkscape:current-layer="svg7384" />
  <metadata
     id="metadata90">
    <rdf:RDF>
      <cc:Work
         rdf:about="">
        <dc:format>image/svg+xml</dc:format>
        <dc:type
           rdf:resource="http://purl.org/dc/dcmitype/StillImage" />
        <dc:title>Paper Symbolic Icon Theme</dc:title>
      </cc:Work>
    </rdf:RDF>
  </metadata>
  <title
     id="title8473">Paper Symbolic Icon Theme</title>
  <defs
     id="defs7386">
    <inkscape:perspective
       sodipodi:type="inkscape:persp3d"
       inkscape:vp_x="0 : 32 : 1"
       inkscape:vp_y="0 : 1000 : 0"
       inkscape:vp_z="64 : 32 : 1"
       inkscape:persp3d-origin="32 : 21.333333 : 1"
       id="perspective4495" />
    <filter
       id="filter7554"
       style="color-interpolation-filters:sRGB">
      <feBlend
         id="feBlend7556"
         in2="BackgroundImage"
         mode="darken" />
    </filter>
    <filter
       style="color-interpolation-filters:sRGB"
       id="filter7554-9">
      <feBlend
         mode="darken"
         in2="BackgroundImage"
         id="feBlend7556-1" />
    </filter>
  </defs>
  <g
     id="g4498"
     style="stroke-width:0.30000001;stroke-miterlimit:4;stroke-dasharray:none"
     transform="matrix(1.0073949,0,0,1.0073949,-0.11827722,-0.11854945)">
    <rect
       transform="scale(-1,1)"
       x="-41.464413"
       y="22.084047"
       width="4.8354983"
       height="0"
       ry="0"
       style="fill:#427bc3;stroke-width:0.30000001;stroke-miterlimit:4;stroke-dasharray:none"
       id="rect3465" />
    <path
       inkscape:connector-curvature="0"
       id="rect2422"
       sodipodi:nodetypes="csccccccccssccsccssc"
       style="fill:#abacae;stroke:#7e8087;stroke-width:0.30000001;stroke-miterlimit:4;stroke-dasharray:none"
       d="m 8.619106,3.7421603 c 1.3567105,0.011582 2.699298,0.5376954 3.738639,1.5638142 1.566075,1.54634 1.934123,3.7863955 1.168117,5.6914895 0.05899,0.04618 0.152869,0.09968 0.207702,0.153739 l 3.348988,3.30762 c 0.748559,0.738346 0.748559,1.952512 0,2.691677 l -0.311553,0.307644 c -0.747726,0.738344 -1.977325,0.738344 -2.725882,0 L 10.670372,14.15036 C 10.615542,14.09704 10.587292,14.004331 10.539935,13.945264 8.610798,14.702478 6.3426905,14.338227 4.776616,12.791806 4.5647597,12.583428 4.3695197,12.357823 4.2050195,12.125654 4.1501862,12.047718 4.0995067,11.974704 4.0496582,11.894307 3.4257212,10.596296 3.7538902,10.673577 5.113924,11.02306 c 1.3758195,0 2.4924265,-1.1025955 2.4924265,-2.4611495 0,-1.358554 -1.116607,-2.461149 -2.4924265,-2.461149 -0.8308085,0 0.4935005,-1.557661 1.5054255,-1.9740055 0.048185,-0.018525 0.08225,-0.05988 0.130437,-0.076952 0.017445,-0.00523 0.034065,0.00506 0.051511,0 0.583227,-0.1997797 1.207164,-0.312853 1.8178085,-0.3076437 z" />
    <path
       inkscape:connector-curvature="0"
       id="path2432"
       style="fill:#cc3b02;stroke:#a62100;stroke-width:0.30000001;stroke-miterlimit:4;stroke-dasharray:none"
       d="m 27.719172,23.288717 c 0.714595,0.705627 0.714463,1.871395 1.28e-4,2.576768 l -1.887342,1.863657 c -0.714338,0.705373 -1.89492,0.7055 -2.609515,-1.27e-4 L 12.984039,17.61909 c -0.714338,-0.705373 -0.714338,-1.871268 0,-2.576641 l 1.88734,-1.863657 c 0.714337,-0.705373 1.895049,-0.705373 2.609386,0 z" />
  </g>
</svg>
