<?xml version="1.0" encoding="UTF-8" standalone="no"?>
<!-- Created with Inkscape (http://www.inkscape.org/) -->

<svg
   xmlns:dc="http://purl.org/dc/elements/1.1/"
   xmlns:cc="http://creativecommons.org/ns#"
   xmlns:rdf="http://www.w3.org/1999/02/22-rdf-syntax-ns#"
   xmlns:svg="http://www.w3.org/2000/svg"
   xmlns="http://www.w3.org/2000/svg"
   xmlns:sodipodi="http://sodipodi.sourceforge.net/DTD/sodipodi-0.dtd"
   xmlns:inkscape="http://www.inkscape.org/namespaces/inkscape"
   id="svg7384"
   style="enable-background:new"
   height="32"
   width="32"
   version="1.1"
   sodipodi:docname="scheme_power.svg"
   inkscape:version="0.92.4 (5da689c313, 2019-01-14)">
  <sodipodi:namedview
     pagecolor="#ffffff"
     bordercolor="#666666"
     borderopacity="1"
     objecttolerance="10"
     gridtolerance="10"
     guidetolerance="10"
     inkscape:pageopacity="0"
     inkscape:pageshadow="2"
     inkscape:window-width="1362"
     inkscape:window-height="695"
     id="namedview11"
     showgrid="false"
     fit-margin-top="0"
     fit-margin-left="0"
     fit-margin-right="0"
     fit-margin-bottom="0"
     inkscape:zoom="16.6875"
     inkscape:cx="5.6629213"
     inkscape:cy="16"
     inkscape:window-x="0"
     inkscape:window-y="0"
     inkscape:window-maximized="1"
     inkscape:current-layer="svg7384" />
  <metadata
     id="metadata90">
    <rdf:RDF>
      <cc:Work
         rdf:about="">
        <dc:format>image/svg+xml</dc:format>
        <dc:type
           rdf:resource="http://purl.org/dc/dcmitype/StillImage" />
        <dc:title>Paper Symbolic Icon Theme</dc:title>
      </cc:Work>
    </rdf:RDF>
  </metadata>
  <title
     id="title8473">Paper Symbolic Icon Theme</title>
  <defs
     id="defs7386" />
  <path
     inkscape:connector-curvature="0"
     id="rect5826"
     style="fill:#ff9800;stroke-width:0.38878059;fill-opacity:1"
     d="m 10.40237,28.208527 c -0.38544,-0.386635 -0.387706,-1.00686 -0.0051,-1.390673 l 3.867558,-3.879552 c 0.382627,-0.383813 1.000934,-0.381541 1.386374,0.0051 0.38544,0.386636 0.387705,1.00686 0.0051,1.390673 l -3.867558,3.879552 c -0.382627,0.383813 -1.000934,0.381541 -1.386374,-0.0051 z" />
  <path
     inkscape:connector-curvature="0"
     id="rect5828"
     style="fill:#ff9800;stroke-width:0.38878059;fill-opacity:1"
     d="M 3.7905713,21.576225 C 3.405131,21.18959 3.4028657,20.569365 3.7854921,20.185552 L 7.653051,16.306 c 0.382626,-0.383813 1.0009335,-0.38154 1.3863735,0.0051 0.3854405,0.386636 0.3877055,1.00686 0.00508,1.390673 l -3.867559,3.879552 c -0.3826264,0.383813 -1.0009334,0.381541 -1.3863742,-0.0051 z" />
  <path
     inkscape:connector-curvature="0"
     id="path5845"
     style="fill:#000000;stroke-width:0.38878059"
     d="M 11.841129,14.058922 18.742424,11.380124 14.272538,8.7579135 28.467673,3.4999999 21.970999,9.622038 28.5,12.350276 15.043264,18.446539 11.841296,14.058925 Z" />
  <path
     inkscape:connector-curvature="0"
     id="path5824"
     style="fill:#1a1a1a;stroke-width:0.38878059;fill-opacity:1"
     d="M 17.596012,26.558184 C 20.652654,23.133145 20.521757,17.851053 17.217511,14.53656 13.91354,11.222343 8.6391535,11.082336 5.224511,14.148318 l 12.371225,12.409589 z" />
</svg>
