<?xml version="1.0" encoding="UTF-8" standalone="no"?>
<!-- Created with Inkscape (http://www.inkscape.org/) -->

<svg
   xmlns:dc="http://purl.org/dc/elements/1.1/"
   xmlns:cc="http://creativecommons.org/ns#"
   xmlns:rdf="http://www.w3.org/1999/02/22-rdf-syntax-ns#"
   xmlns:svg="http://www.w3.org/2000/svg"
   xmlns="http://www.w3.org/2000/svg"
   xmlns:sodipodi="http://sodipodi.sourceforge.net/DTD/sodipodi-0.dtd"
   xmlns:inkscape="http://www.inkscape.org/namespaces/inkscape"
   id="svg7384"
   style="enable-background:new"
   height="32"
   width="32"
   version="1.1"
   sodipodi:docname="yast.svg"
   inkscape:version="0.92.4 (5da689c313, 2019-01-14)">
  <sodipodi:namedview
     pagecolor="#ffffff"
     bordercolor="#666666"
     borderopacity="1"
     objecttolerance="10"
     gridtolerance="10"
     guidetolerance="10"
     inkscape:pageopacity="0"
     inkscape:pageshadow="2"
     inkscape:window-width="1362"
     inkscape:window-height="695"
     id="namedview11"
     showgrid="false"
     fit-margin-top="0"
     fit-margin-left="0"
     fit-margin-right="0"
     fit-margin-bottom="0"
     inkscape:zoom="16.09375"
     inkscape:cx="16"
     inkscape:cy="16"
     inkscape:window-x="0"
     inkscape:window-y="0"
     inkscape:window-maximized="1"
     inkscape:current-layer="svg7384"
     showguides="true">
    <inkscape:grid
       type="xygrid"
       id="grid4507"
       originx="0"
       originy="0" />
  </sodipodi:namedview>
  <metadata
     id="metadata90">
    <rdf:RDF>
      <cc:Work
         rdf:about="">
        <dc:format>image/svg+xml</dc:format>
        <dc:type
           rdf:resource="http://purl.org/dc/dcmitype/StillImage" />
        <dc:title>Paper Symbolic Icon Theme</dc:title>
      </cc:Work>
    </rdf:RDF>
  </metadata>
  <title
     id="title8473">Paper Symbolic Icon Theme</title>
  <defs
     id="defs7386" />
  <circle
     id="circle4"
     r="12.5"
     cy="16"
     cx="16"
     style="fill:#33691e;fill-opacity:1;stroke:none;stroke-width:0.44642857" />
  <path
     inkscape:connector-curvature="0"
     id="path6"
     d="M 16,3.499999 A 12.5,12.5 0 0 0 3.5000003,16 12.5,12.5 0 0 0 3.5095977,16.261607 12.5,12.5 0 0 1 16,3.946428 12.5,12.5 0 0 1 28.490625,16.18482 12.5,12.5 0 0 0 28.5,16 12.5,12.5 0 0 0 16,3.499999 Z"
     style="opacity:0.2;fill:#ffffff;stroke-width:0.44642857" />
  <rect
     id="rect3465"
     style="fill:#427bc3;stroke-width:0.84744102"
     ry="0"
     height="0"
     width="4.8354983"
     y="22.084045"
     x="-41.464413"
     transform="scale(-1,1)" />
  <rect
     id="rect3465-6"
     style="fill:#427bc3;stroke-width:0.84744102"
     ry="0"
     height="0"
     width="4.8354983"
     y="21.697468"
     x="-41.559891"
     transform="scale(-1,1)" />
  <g
     id="g4525"
     transform="matrix(0.5,0,0,0.5,0.09547921,-0.386579)">
    <path
       inkscape:connector-curvature="0"
       id="rect2422-2"
       sodipodi:nodetypes="csccccccccssccsccssc"
       style="fill:#b3b3b3;stroke:#808080;stroke-width:1;stroke-miterlimit:4;stroke-dasharray:none"
       d="m 17.249533,7.964684 c 2.713838,0.023162 5.399423,1.0752266 7.478425,3.12715 3.13263,3.092206 3.868839,7.571631 2.336592,11.381236 0.117994,0.09236 0.305786,0.199322 0.415468,0.307431 l 6.699005,6.614228 c 1.497348,1.476463 1.497348,3.904426 0,5.382528 l -0.623202,0.615194 c -1.495681,1.476463 -3.955256,1.476463 -5.4526,0 L 21.352696,28.777895 C 21.243012,28.671261 21.186508,28.485883 21.091782,28.367767 17.232915,29.881962 12.696004,29.153573 9.5633743,26.061203 9.1395968,25.644512 8.7490571,25.19337 8.420006,24.729104 8.3103227,24.573256 8.2089483,24.42725 8.1092358,24.26648 6.8611703,21.670857 7.5176094,21.825394 10.238094,22.524253 c 2.752061,0 4.985618,-2.204852 4.985618,-4.921544 0,-2.716692 -2.233557,-4.921545 -4.985618,-4.921545 -1.661872,0 0.987152,-3.1148448 3.011313,-3.9474064 0.09638,-0.037042 0.164525,-0.1197407 0.260914,-0.1538803 0.03489,-0.010463 0.06814,0.010124 0.103037,0 1.166634,-0.3994984 2.414699,-0.62561 3.636175,-0.6151933 z" />
    <path
       inkscape:connector-curvature="0"
       id="path2432-9"
       style="fill:#d84315;stroke:#bf360c;stroke-width:1;stroke-miterlimit:4;stroke-dasharray:none"
       d="m 55.04477,46.561623 c 1.429408,1.411038 1.429144,3.742219 2.55e-4,5.152748 l -3.775265,3.726743 c -1.428899,1.410531 -3.790427,1.410785 -5.219835,-2.53e-4 L 25.569955,35.224107 c -1.428896,-1.41053 -1.428896,-3.741964 0,-5.152494 l 3.775263,-3.726743 c 1.428895,-1.41053 3.790683,-1.41053 5.219579,0 z" />
  </g>
</svg>
