<?xml version="1.0" encoding="UTF-8"?>
<svg width="64" height="64" version="1" xmlns="http://www.w3.org/2000/svg">
 <defs>
  <style id="current-color-scheme" type="text/css">.ColorScheme-Text { color:#5c616c; } .ColorScheme-Highlight { color:#5294e2; } .ColorScheme-ButtonBackground { color:#d3dae3; }</style>
  <style type="text/css">.ColorScheme-Text { color:#5c616c; } .ColorScheme-Highlight { color:#5294e2; } .ColorScheme-ButtonBackground { color:#d3dae3; }</style>
  <style type="text/css">.str0 {stroke:#4D4948;stroke-width:0.0123919}
    .str1 {stroke:#838281;stroke-width:0.229479;stroke-linecap:round}
    .fil2 {fill:none}
    .fil0 {fill:#4D4948}
    .fil1 {fill:white;fill-rule:nonzero}</style>
  <style type="text/css">.str0 {stroke:#4D4948;stroke-width:0.221746}
    .str1 {stroke:#00923F;stroke-width:0.887173}
    .str2 {stroke:#E77817;stroke-width:0.887173;stroke-linecap:round}
    .fil2 {fill:none}
    .fil0 {fill:#4D4948}
    .fil1 {fill:#B6DDC7}</style>
  <style type="text/css">.ColorScheme-Text { color:#5c616c; } .ColorScheme-Highlight { color:#5294e2; } .ColorScheme-ButtonBackground { color:#d3dae3; }</style>
  <filter id="filter5062" x="-.010364" y="-.01425" width="1.0207" height="1.0285" color-interpolation-filters="sRGB">
   <feGaussianBlur stdDeviation="0.23749999"/>
  </filter>
  <filter id="filter5081" x="-.057429" y="-.0067" width="1.1149" height="1.0134" color-interpolation-filters="sRGB">
   <feGaussianBlur stdDeviation="0.1675"/>
  </filter>
 </defs>
 <rect transform="matrix(0,-1,-1,0,0,0)" x="-61" y="-62" width="7" height="60" rx="2.5" ry="2.5862" filter="url(#filter5081)" opacity=".2" stroke-width="1.0171"/>
 <rect transform="matrix(0,-1,-1,0,0,0)" x="-60" y="-62" width="7" height="60" rx="2.5" ry="2.5862" fill="#666" stroke-width="1.0171"/>
 <rect x="4.5" y="14.87" width="55" height="40" rx="2.6442" ry="2.5" filter="url(#filter5062)" opacity=".2" stroke-width="1.0284"/>
 <g stroke-width="1.0284">
  <rect x="4.4964" y="13.872" width="54.998" height="40" rx="2.6441" ry="2.4999" fill="#666"/>
  <rect x="8.7271" y="17.872" width="46.537" height="32" fill="#3689e6"/>
  <path d="m7.1403 13.872c-1.4649 0-2.6441 1.115-2.6441 2.4999v0.99996c0-1.385 1.1792-2.4999 2.6441-2.4999h49.71c1.4596 0 2.6441 1.115 2.6441 2.4999v-0.99996c0-1.385-1.1846-2.4999-2.6441-2.4999z" fill="#b3b3b3" opacity=".2"/>
 </g>
</svg>
