<?xml version="1.0" encoding="UTF-8" standalone="no"?>
<svg
   xmlns:dc="http://purl.org/dc/elements/1.1/"
   xmlns:cc="http://creativecommons.org/ns#"
   xmlns:rdf="http://www.w3.org/1999/02/22-rdf-syntax-ns#"
   xmlns:svg="http://www.w3.org/2000/svg"
   xmlns="http://www.w3.org/2000/svg"
   xmlns:sodipodi="http://sodipodi.sourceforge.net/DTD/sodipodi-0.dtd"
   xmlns:inkscape="http://www.inkscape.org/namespaces/inkscape"
   height="64"
   width="64"
   version="1"
   id="svg12"
   sodipodi:docname="amarok_magnatune.svg"
   inkscape:version="0.92.4 (5da689c313, 2019-01-14)">
  <metadata
     id="metadata18">
    <rdf:RDF>
      <cc:Work
         rdf:about="">
        <dc:format>image/svg+xml</dc:format>
        <dc:type
           rdf:resource="http://purl.org/dc/dcmitype/StillImage" />
        <dc:title></dc:title>
      </cc:Work>
    </rdf:RDF>
  </metadata>
  <defs
     id="defs16" />
  <sodipodi:namedview
     pagecolor="#ffffff"
     bordercolor="#666666"
     borderopacity="1"
     objecttolerance="10"
     gridtolerance="10"
     guidetolerance="10"
     inkscape:pageopacity="0"
     inkscape:pageshadow="2"
     inkscape:window-width="1362"
     inkscape:window-height="695"
     id="namedview14"
     showgrid="true"
     inkscape:zoom="8.046875"
     inkscape:cx="32"
     inkscape:cy="32"
     inkscape:window-x="0"
     inkscape:window-y="0"
     inkscape:window-maximized="1"
     inkscape:current-layer="svg12">
    <inkscape:grid
       type="xygrid"
       id="grid816" />
  </sodipodi:namedview>
  <rect
     transform="matrix(0,-1,-1,0,0,0)"
     rx="30"
     ry="30"
     height="60"
     width="60"
     y="-62"
     x="-62"
     id="rect2"
     style="fill:#444444;fill-opacity:1;stroke-width:1.5000751" />
  <path
     d="M 32,9.5 A 22.5,22.5 0 0 0 9.5,32 22.5,22.5 0 0 0 32,54.5 22.5,22.5 0 0 0 54.5,32 22.5,22.5 0 0 0 32,9.5 Z m 0,4.5 c 2.493,0 4.5,2.007 4.5,4.5 v 21 c 0,2.493 -2.007,4.5 -4.5,4.5 -2.493,0 -4.5,-2.007 -4.5,-4.5 v -21 C 27.5,16.007 29.507,14 32,14 Z M 18.5,26 c 2.493,0 4.5,2.007 4.5,4.5 v 9 C 23,41.993 20.993,44 18.5,44 16.007,44 14,41.993 14,39.5 v -9 C 14,28.007 16.007,26 18.5,26 Z m 27,0 c 2.493,0 4.5,2.007 4.5,4.5 v 9 C 50,41.993 47.993,44 45.5,44 43.007,44 41,41.993 41,39.5 v -9 C 41,28.007 43.007,26 45.5,26 Z"
     id="path10"
     inkscape:connector-curvature="0"
     style="fill:#ffffff;stroke-width:1.5" />
</svg>
