<?xml version="1.0" encoding="UTF-8" standalone="no"?>
<svg
   xmlns:dc="http://purl.org/dc/elements/1.1/"
   xmlns:cc="http://creativecommons.org/ns#"
   xmlns:rdf="http://www.w3.org/1999/02/22-rdf-syntax-ns#"
   xmlns:svg="http://www.w3.org/2000/svg"
   xmlns="http://www.w3.org/2000/svg"
   xmlns:sodipodi="http://sodipodi.sourceforge.net/DTD/sodipodi-0.dtd"
   xmlns:inkscape="http://www.inkscape.org/namespaces/inkscape"
   width="64"
   height="64"
   version="1"
   id="svg12"
   sodipodi:docname="amarok_lastfm.svg"
   inkscape:version="0.92.4 (5da689c313, 2019-01-14)">
  <metadata
     id="metadata18">
    <rdf:RDF>
      <cc:Work
         rdf:about="">
        <dc:format>image/svg+xml</dc:format>
        <dc:type
           rdf:resource="http://purl.org/dc/dcmitype/StillImage" />
        <dc:title></dc:title>
      </cc:Work>
    </rdf:RDF>
  </metadata>
  <defs
     id="defs16" />
  <sodipodi:namedview
     pagecolor="#ffffff"
     bordercolor="#666666"
     borderopacity="1"
     objecttolerance="10"
     gridtolerance="10"
     guidetolerance="10"
     inkscape:pageopacity="0"
     inkscape:pageshadow="2"
     inkscape:window-width="1362"
     inkscape:window-height="695"
     id="namedview14"
     showgrid="true"
     inkscape:zoom="8.046875"
     inkscape:cx="32"
     inkscape:cy="32"
     inkscape:window-x="0"
     inkscape:window-y="0"
     inkscape:window-maximized="1"
     inkscape:current-layer="svg12">
    <inkscape:grid
       type="xygrid"
       id="grid828" />
  </sodipodi:namedview>
  <rect
     style="fill:#555555;fill-opacity:1;stroke-width:1.39999998"
     width="56"
     height="56"
     x="4"
     y="6"
     rx="28"
     ry="28"
     id="rect2" />
  <path
     inkscape:connector-curvature="0"
     style="fill:#ffffff;stroke-width:1.39999998"
     d="m 23.022025,45.093864 c -0.728291,-0.098 -2.023811,-0.51968 -2.887956,-0.93562 -5.630252,-2.6978 -7.932771,-9.49256 -5.159663,-15.2159 3.168066,-6.54402 11.812324,-8.21226 17.014004,-3.28314 1.504203,1.4231 2.17227,2.63746 4.436974,8.02172 2.364146,5.6308 2.80112,6.51616 3.567226,7.26684 0.82073,0.79842 1.581234,1.06736 3.036415,1.06736 2.390756,0 4.098039,-1.4777 4.098039,-3.53962 0,-1.74524 -0.613446,-2.30412 -3.742296,-3.41488 -4.764706,-1.71864 -6.308123,-3.27194 -6.313724,-6.39142 0,-1.66404 0.421568,-2.7734 1.492996,-3.92336 1.537814,-1.6415 4.190476,-2.18358 6.537813,-1.3685 1.001401,0.35588 3.09664,2.21032 3.09664,2.7412 0,0.25774 -1.214287,1.04496 -1.887955,1.2313 -0.355742,0.0924 -0.662466,-0.028 -1.07283,-0.42168 -0.831932,-0.79842 -1.394958,-1.04496 -2.390756,-1.04496 -1.718486,0 -2.784314,1.03376 -2.784314,2.7034 0,1.66404 0.677872,2.22712 4.064426,3.37008 4.666666,1.57584 6.044816,2.99894 6.072826,6.29202 0.02801,2.8448 -1.2535,4.89678 -3.802518,6.11114 -1.159664,0.54768 -1.55322,0.61782 -3.446778,0.61782 -2.703081,0 -3.917366,-0.50288 -5.432773,-2.21032 -1.018205,-1.14856 -2.05182,-3.30428 -5.361344,-11.1734 -1.372548,-3.26088 -3.134452,-4.85912 -6.072828,-5.488 -1.488796,-0.31794 -3.561624,-0.0224 -4.913165,0.68922 -1.317927,0.68908 -2.789916,2.24392 -3.484594,3.66562 -0.574229,1.15416 -0.628852,1.4777 -0.628852,3.48488 0,1.91478 0.07703,2.36866 0.557424,3.41908 0.728291,1.60384 2.161064,3.08574 3.736694,3.88416 1.138656,0.57428 1.492997,0.64582 3.309524,0.64582 1.745097,0 2.193277,-0.0826 3.233894,-0.57988 1.187675,-0.58002 2.784312,-2.00312 3.435574,-3.06894 l 0.338936,-0.55328 0.668066,1.5267 c 0.372548,0.84322 0.67227,1.63604 0.67227,1.77884 0,0.42168 -1.509804,1.79998 -2.893559,2.6586 -2.10084,1.2971 -4.514004,1.78304 -7.091035,1.4329 m -0.0056,0"
     id="path10" />
</svg>
