<?xml version="1.0" encoding="UTF-8" standalone="no"?>
<svg
   xmlns:dc="http://purl.org/dc/elements/1.1/"
   xmlns:cc="http://creativecommons.org/ns#"
   xmlns:rdf="http://www.w3.org/1999/02/22-rdf-syntax-ns#"
   xmlns:svg="http://www.w3.org/2000/svg"
   xmlns="http://www.w3.org/2000/svg"
   xmlns:sodipodi="http://sodipodi.sourceforge.net/DTD/sodipodi-0.dtd"
   xmlns:inkscape="http://www.inkscape.org/namespaces/inkscape"
   width="64"
   height="64"
   viewBox="0 0 64 64"
   version="1.1"
   id="svg7"
   sodipodi:docname="amarok_artist.svg"
   inkscape:version="0.92.4 (5da689c313, 2019-01-14)">
  <metadata
     id="metadata11">
    <rdf:RDF>
      <cc:Work
         rdf:about="">
        <dc:format>image/svg+xml</dc:format>
        <dc:type
           rdf:resource="http://purl.org/dc/dcmitype/StillImage" />
        <dc:title></dc:title>
      </cc:Work>
    </rdf:RDF>
  </metadata>
  <sodipodi:namedview
     pagecolor="#ffffff"
     bordercolor="#666666"
     borderopacity="1"
     objecttolerance="10"
     gridtolerance="10"
     guidetolerance="10"
     inkscape:pageopacity="0"
     inkscape:pageshadow="2"
     inkscape:window-width="1362"
     inkscape:window-height="695"
     id="namedview9"
     showgrid="true"
     inkscape:zoom="8.046875"
     inkscape:cx="32"
     inkscape:cy="32"
     inkscape:window-x="0"
     inkscape:window-y="0"
     inkscape:window-maximized="1"
     inkscape:current-layer="svg7">
    <inkscape:grid
       type="xygrid"
       id="grid822" />
  </sodipodi:namedview>
  <defs
     id="defs3">
    <style
       type="text/css"
       id="current-color-scheme">
   .ColorScheme-Text { color:#5c616c; } .ColorScheme-Highlight { color:#5294e2; } .ColorScheme-ButtonBackground { color:#d3dae3; }
  </style>
  </defs>
  <g
     id="g830"
     style="fill:#555555;fill-opacity:1;stroke:none"
     transform="matrix(1.4,0,0,1.4,-1.6000002,-3)">
    <path
       inkscape:connector-curvature="0"
       id="path826"
       d="m 23.983125,5.0000292 c -6.077313,0 -11.029898,4.9444011 -11.209618,11.1204208 -0.149266,0.03695 -0.297515,0.09628 -0.437975,0.169908 -1.39762,0.731571 -1.756064,3.016628 -0.799779,5.129114 0.769283,1.699556 2.136883,2.751319 3.376847,2.718746 0.933438,5.64791 4.648711,9.861754 9.070525,9.861754 0.01333,0 0.02469,6.4e-5 0.03808,0 4.421815,0 8.137151,-4.21352 9.070523,-9.861742 1.239966,0.03251 2.601151,-1.019187 3.370498,-2.718746 0.956247,-2.112614 0.604153,-4.397671 -0.793433,-5.129113 -0.140657,-0.07362 -0.288526,-0.132948 -0.437977,-0.169908 C 35.051026,9.9444303 30.098507,5.0000292 24.021194,5.0000292 c -0.01333,-6.45e-5 -0.02469,0 -0.03809,0 z"
       style="color:#5c616c;opacity:1;fill:#555555;fill-opacity:1;stroke:none;stroke-width:3.23602819" />
    <path
       id="path5"
       d="m 30.841257,33.5717 c -0.825389,2.001438 -3.640001,3.50438 -6.997668,3.50438 -3.342239,0 -6.130354,-1.483174 -6.969771,-3.470897 -7.0544723,0.737553 -12.1946152,2.541365 -12.8123209,4.676228 -0.00857,0.02029 0.00571,0.0466 0,0.06697 -0.02,0.07683 -0.024914,0.145197 -0.033482,0.223223 -0.00286,0.0352 -0.027901,0.05876 -0.027901,0.09484 -2.572e-4,0.01171 0,0.01657 0,0.028 v 5.284472 C 4.000114,44.543205 4.4449918,45 4.998984,45 h 38.001703 c 0.553992,0 0.998869,-0.456824 0.998869,-1.021181 v -5.284472 c 0,-0.02343 0.001,-0.03809 0,-0.0614 -0.0057,-0.12371 -0.05943,-0.229879 -0.09486,-0.351551 -0.631429,-2.159937 -5.880687,-3.989714 -13.063443,-4.709697 z"
       style="color:#5c616c;opacity:1;fill:#555555;fill-opacity:1;stroke:none;stroke-width:2.8570888"
       inkscape:connector-curvature="0" />
  </g>
</svg>
