<?xml version="1.0" encoding="UTF-8" standalone="no"?>
<!-- Created with Inkscape (http://www.inkscape.org/) -->

<svg
   xmlns:dc="http://purl.org/dc/elements/1.1/"
   xmlns:cc="http://creativecommons.org/ns#"
   xmlns:rdf="http://www.w3.org/1999/02/22-rdf-syntax-ns#"
   xmlns:svg="http://www.w3.org/2000/svg"
   xmlns="http://www.w3.org/2000/svg"
   xmlns:sodipodi="http://sodipodi.sourceforge.net/DTD/sodipodi-0.dtd"
   xmlns:inkscape="http://www.inkscape.org/namespaces/inkscape"
   sodipodi:docname="amarok_refresh.svg"
   inkscape:export-filename="/home/sam/source-symbolic.png"
   inkscape:export-xdpi="270"
   inkscape:export-ydpi="270"
   height="64"
   id="svg7384"
   style="enable-background:new"
   version="1.1"
   inkscape:version="0.92.4 (5da689c313, 2019-01-14)"
   width="64">
  <sodipodi:namedview
     inkscape:bbox-nodes="true"
     inkscape:bbox-paths="true"
     bordercolor="#666666"
     borderlayer="false"
     borderopacity="1"
     inkscape:current-layer="layer12"
     inkscape:cx="38.354899"
     inkscape:cy="15.834513"
     gridtolerance="10"
     inkscape:guide-bbox="true"
     guidetolerance="10"
     id="namedview88"
     inkscape:object-nodes="true"
     inkscape:object-paths="true"
     objecttolerance="10"
     pagecolor="#f7f7f7"
     inkscape:pageopacity="1"
     inkscape:pageshadow="2"
     showborder="true"
     showgrid="false"
     showguides="true"
     inkscape:showpageshadow="false"
     inkscape:snap-bbox="true"
     inkscape:snap-bbox-edge-midpoints="false"
     inkscape:snap-bbox-midpoints="false"
     inkscape:snap-center="false"
     inkscape:snap-global="true"
     inkscape:snap-grids="true"
     inkscape:snap-intersection-paths="true"
     inkscape:snap-midpoints="true"
     inkscape:snap-nodes="true"
     inkscape:snap-object-midpoints="true"
     inkscape:snap-others="true"
     inkscape:snap-page="false"
     inkscape:snap-smooth-nodes="true"
     inkscape:snap-to-guides="true"
     inkscape:window-height="695"
     inkscape:window-maximized="1"
     inkscape:window-width="1362"
     inkscape:window-x="0"
     inkscape:window-y="0"
     inkscape:zoom="3.3554688"
     inkscape:pagecheckerboard="false">
    <inkscape:grid
       color="#000000"
       dotted="false"
       empcolor="#0800ff"
       empopacity="0.4627451"
       empspacing="4"
       enabled="true"
       id="grid4866"
       opacity="0.16470588"
       originx="-184.00227"
       originy="-256.01646"
       snapvisiblegridlinesonly="true"
       spacingx="0.25"
       spacingy="0.25"
       type="xygrid"
       visible="true" />
  </sodipodi:namedview>
  <metadata
     id="metadata90">
    <rdf:RDF>
      <cc:Work
         rdf:about="">
        <dc:format>image/svg+xml</dc:format>
        <dc:type
           rdf:resource="http://purl.org/dc/dcmitype/StillImage" />
        <dc:title>Paper Symbolic Icon Theme</dc:title>
      </cc:Work>
    </rdf:RDF>
  </metadata>
  <title
     id="title8473">Paper Symbolic Icon Theme</title>
  <defs
     id="defs7386">
    <filter
       inkscape:collect="always"
       id="filter7554"
       style="color-interpolation-filters:sRGB">
      <feBlend
         inkscape:collect="always"
         id="feBlend7556"
         in2="BackgroundImage"
         mode="darken" />
    </filter>
  </defs>
  <g
     inkscape:groupmode="layer"
     id="layer9"
     inkscape:label="status"
     style="display:inline"
     transform="translate(-425.00247,87.016457)" />
  <g
     inkscape:groupmode="layer"
     id="layer10"
     inkscape:label="devices"
     style="display:inline;filter:url(#filter7554)"
     transform="translate(-425.00247,87.016457)" />
  <g
     inkscape:groupmode="layer"
     id="layer1"
     inkscape:label="places"
     style="display:inline"
     transform="translate(-184.00227,-529.98354)" />
  <g
     inkscape:groupmode="layer"
     id="layer14"
     inkscape:label="mimetypes"
     style="display:inline"
     transform="translate(-425.00247,87.016457)" />
  <g
     inkscape:groupmode="layer"
     id="layer15"
     inkscape:label="emblems"
     style="display:inline"
     transform="translate(-425.00247,87.016457)" />
  <g
     inkscape:groupmode="layer"
     id="g71291"
     inkscape:label="emotes"
     style="display:inline"
     transform="translate(-425.00247,87.016457)" />
  <g
     inkscape:groupmode="layer"
     id="layer2"
     inkscape:label="categories"
     style="display:inline"
     transform="translate(-184.00227,-379.98354)" />
  <g
     inkscape:groupmode="layer"
     id="g6058"
     inkscape:label="apps"
     style="display:inline"
     transform="translate(-184.00227,-379.98354)" />
  <g
     inkscape:groupmode="layer"
     id="layer12"
     inkscape:label="actions"
     style="display:inline"
     transform="translate(-425.00247,87.016457)">
    <path
       inkscape:connector-curvature="0"
       d="m 487.00227,-54.873408 h -7.49997 c 0,-10.523645 -6.99512,-19.366536 -16.52339,-22.024179 -0.11843,-0.0343 -0.23287,-0.08763 -0.35137,-0.118857 -0.95693,-0.249529 -1.92803,-0.355814 -2.92967,-0.476199 -0.8748,-0.105143 -1.79273,-0.2381 -2.69531,-0.2381 -2.3111,0.0024 -4.60829,0.362293 -6.79685,1.071447 v 0.118858 c -3.15595,1.01739 -6.05105,2.645074 -8.43747,4.881035 l 4.4531,6.07153 c 1.8825,-1.955233 4.34286,-3.22432 7.03123,-3.928637 v -0.118857 c 1.42546,-0.340194 2.96107,-0.463703 4.45311,-0.356956 0.68176,0.04876 1.30983,0.108943 1.99219,0.238099 7.00149,1.286916 12.30464,7.397496 12.30464,14.881201 h -7.49997 l 11.24996,15.238353 11.24997,-15.238353 z m -14.76557,16.785997 -4.45312,-6.07153 c -1.88248,1.955234 -4.34284,3.22432 -7.03121,3.928637 v 0.118857 c -1.42546,0.340196 -2.96107,0.463703 -4.45311,0.356957 -0.68176,-0.04876 -1.30983,-0.108943 -1.99219,-0.238098 -7.00149,-1.286918 -12.30464,-7.397496 -12.30464,-14.881203 h 7.49997 l -11.24996,-15.238352 -11.24997,15.238352 h 7.49999 c 0,10.523644 6.9951,19.366535 16.52337,22.02418 0.12071,0.0343 0.22987,0.08723 0.35137,0.118857 0.95694,0.249528 1.92803,0.355814 2.92968,0.476197 0.8748,0.105143 1.79272,0.2381 2.6953,0.2381 2.31113,-0.0024 4.60829,-0.362293 6.79686,-1.071447 v -0.118857 c 3.15596,-1.01739 6.05104,-2.645075 8.43747,-4.881037 z"
       id="path8675"
       style="display:inline;fill:#555555;fill-opacity:1;stroke:none;stroke-width:3.77967095;enable-background:new" />
  </g>
</svg>
