<?xml version="1.0" encoding="UTF-8" standalone="no"?>
<svg
   xmlns:dc="http://purl.org/dc/elements/1.1/"
   xmlns:cc="http://creativecommons.org/ns#"
   xmlns:rdf="http://www.w3.org/1999/02/22-rdf-syntax-ns#"
   xmlns:svg="http://www.w3.org/2000/svg"
   xmlns="http://www.w3.org/2000/svg"
   xmlns:sodipodi="http://sodipodi.sourceforge.net/DTD/sodipodi-0.dtd"
   xmlns:inkscape="http://www.inkscape.org/namespaces/inkscape"
   height="64"
   version="1.1"
   width="64"
   id="svg12"
   sodipodi:docname="amarok_repeat_album.svg"
   style="enable-background:new"
   inkscape:version="0.92.4 (5da689c313, 2019-01-14)">
  <sodipodi:namedview
     pagecolor="#ffffff"
     bordercolor="#666666"
     borderopacity="1"
     objecttolerance="10"
     gridtolerance="10"
     guidetolerance="10"
     inkscape:pageopacity="0"
     inkscape:pageshadow="2"
     inkscape:window-width="1362"
     inkscape:window-height="695"
     id="namedview14"
     showgrid="true"
     inkscape:zoom="10.729167"
     inkscape:cx="7.9223306"
     inkscape:cy="24"
     inkscape:window-x="0"
     inkscape:window-y="0"
     inkscape:window-maximized="1"
     inkscape:current-layer="layer9">
    <inkscape:grid
       type="xygrid"
       id="grid830" />
  </sodipodi:namedview>
  <metadata
     id="metadata90">
    <rdf:RDF>
      <cc:Work
         rdf:about="">
        <dc:format>image/svg+xml</dc:format>
        <dc:type
           rdf:resource="http://purl.org/dc/dcmitype/StillImage" />
        <dc:title></dc:title>
      </cc:Work>
    </rdf:RDF>
  </metadata>
  <defs
     id="defs7386" />
  <g
     inkscape:groupmode="layer"
     id="layer9"
     inkscape:label="status"
     transform="translate(-461.0002,251)">
    <path
       inkscape:connector-curvature="0"
       d="m 477.00019,-239.00008 c -6.5788,0 -11.99999,5.4212 -11.99999,12 v 15.99999 c 0,6.57881 5.42119,12 11.99999,12 h 4.00001 2.625 6.49999 c -0.67416,-1.8902 -1.125,-3.87828 -1.125,-5.99999 0,-0.68712 0.17521,-1.33293 0.25,-2 h -5.62499 -2.625 -4.00001 c -2.28519,0 -4,-1.71481 -4,-4.00001 v -15.99999 c 0,-2.28519 1.71481,-4 4,-4 h 12 v -8 z m 28,0 v 2 4.00001 1.99999 h 4.00001 c 2.28519,0 3.99999,1.71481 3.99999,4 v 5.12501 c 3.17792,1.1334 5.93165,3.0411 8.00001,5.62498 v -10.74999 c 0,-6.5788 -5.42121,-12 -12,-12 z"
       id="path5086"
       style="color:#000000;fill:#555555;fill-opacity:1;stroke-width:4" />
    <path
       inkscape:connector-curvature="0"
       d="m 501.00099,-235 -16,-12 v 24 z"
       id="path5088"
       style="fill:#555555;fill-opacity:1;stroke-width:4" />
    <path
       inkscape:connector-curvature="0"
       d="m 507.0002,-219 c -7.68461,0 -14,6.3154 -14,14 0,7.6846 6.31539,14 14,14 7.6846,0 14,-6.3154 14,-14 0,-7.6846 -6.3154,-14 -14,-14 z m 0,10 c 2.1973,0 4,1.8027 4,4 0,2.19729 -1.8027,4 -4,4 -2.1973,0 -4,-1.80271 -4,-4 0,-2.1973 1.8027,-4 4,-4 z"
       id="path39797"
       style="color:#bebebe;font-style:normal;font-variant:normal;font-weight:normal;font-stretch:normal;font-size:medium;line-height:normal;font-family:Sans;-inkscape-font-specification:Sans;text-indent:0;text-align:start;text-decoration:none;text-decoration-line:none;letter-spacing:normal;word-spacing:normal;text-transform:none;writing-mode:lr-tb;direction:ltr;baseline-shift:baseline;text-anchor:start;display:inline;overflow:visible;visibility:visible;fill:#555555;fill-opacity:1;stroke:none;stroke-width:11.22500038;marker:none;filter:url(#filter7554);enable-background:accumulate" />
  </g>
</svg>
