<?xml version="1.0" encoding="UTF-8" standalone="no"?>
<svg
   xmlns:dc="http://purl.org/dc/elements/1.1/"
   xmlns:cc="http://creativecommons.org/ns#"
   xmlns:rdf="http://www.w3.org/1999/02/22-rdf-syntax-ns#"
   xmlns:svg="http://www.w3.org/2000/svg"
   xmlns="http://www.w3.org/2000/svg"
   xmlns:sodipodi="http://sodipodi.sourceforge.net/DTD/sodipodi-0.dtd"
   xmlns:inkscape="http://www.inkscape.org/namespaces/inkscape"
   width="64"
   height="64"
   version="1"
   id="svg12"
   sodipodi:docname="amarok_audioscrobbler.svg"
   inkscape:version="0.92.4 (5da689c313, 2019-01-14)">
  <metadata
     id="metadata18">
    <rdf:RDF>
      <cc:Work
         rdf:about="">
        <dc:format>image/svg+xml</dc:format>
        <dc:type
           rdf:resource="http://purl.org/dc/dcmitype/StillImage" />
        <dc:title></dc:title>
      </cc:Work>
    </rdf:RDF>
  </metadata>
  <defs
     id="defs16" />
  <sodipodi:namedview
     pagecolor="#ffffff"
     bordercolor="#666666"
     borderopacity="1"
     objecttolerance="10"
     gridtolerance="10"
     guidetolerance="10"
     inkscape:pageopacity="0"
     inkscape:pageshadow="2"
     inkscape:window-width="1362"
     inkscape:window-height="695"
     id="namedview14"
     showgrid="true"
     inkscape:zoom="8.046875"
     inkscape:cx="32"
     inkscape:cy="32"
     inkscape:window-x="0"
     inkscape:window-y="0"
     inkscape:window-maximized="1"
     inkscape:current-layer="svg12">
    <inkscape:grid
       type="xygrid"
       id="grid812" />
  </sodipodi:namedview>
  <path
     style="fill:#555555;fill-opacity:1;stroke-width:2.15382171"
     d="M 18.187988,49.067415 C 17.067561,48.916645 15.074491,48.267912 13.745061,47.628005 5.0832972,43.477561 1.5410262,33.024125 5.8072666,24.219022 10.681123,14.151339 23.979733,11.584826 31.98217,19.168057 c 2.314113,2.189376 3.341891,4.057615 6.825987,12.341058 3.637079,8.662735 4.309334,10.024822 5.487938,11.17971 1.262636,1.228333 2.432621,1.642085 4.671319,1.642085 3.678017,0 6.304558,-2.273375 6.304558,-5.445546 0,-2.684975 -0.943744,-3.544786 -5.757272,-5.25364 -7.33018,-2.644052 -9.704623,-5.033734 -9.71324,-9.832916 0,-2.560051 0.648554,-4.266752 2.296873,-6.035914 2.365825,-2.525374 6.446767,-3.35934 10.057988,-2.105376 1.540588,0.547505 4.763972,3.400478 4.763972,4.217215 0,0.39652 -1.868097,1.607622 -2.904492,1.894298 -0.547286,0.142154 -1.019159,-0.04308 -1.650477,-0.648735 -1.27987,-1.228334 -2.146047,-1.607624 -3.678017,-1.607624 -2.643775,0 -4.283479,1.590393 -4.283479,4.159059 0,2.560052 1.04286,3.426326 6.252845,5.184719 7.179353,2.424359 9.299542,4.613735 9.342636,9.679992 0.04309,4.376598 -1.928425,7.533478 -5.84992,9.401715 -1.784065,0.842582 -2.389525,0.95049 -5.302636,0.95049 -4.158508,0 -6.026605,-0.773659 -8.357956,-3.400479 -1.566442,-1.767008 -3.156589,-5.083488 -8.248067,-17.189777 -2.111574,-5.016719 -4.822146,-7.475539 -9.34264,-8.443044 -2.290411,-0.489136 -5.479318,-0.03447 -7.558576,1.060335 -2.02754,1.060119 -4.292097,3.45217 -5.3608115,5.639393 -0.883414,1.775623 -0.9674462,2.273375 -0.9674462,5.361332 0,2.945803 0.118496,3.644078 0.8575588,5.260103 1.1204269,2.467434 3.3246519,4.747272 5.7486519,5.975606 1.751748,0.883503 2.296878,0.993566 5.091481,0.993566 2.684716,0 3.374209,-0.127078 4.975129,-0.892121 1.827158,-0.892335 4.283479,-3.081711 5.285399,-4.721427 l 0.52143,-0.851196 1.027777,2.348759 c 0.573141,1.297257 1.034241,2.516975 1.034241,2.736665 0,0.648737 -2.322732,2.769191 -4.451545,4.090138 -3.232001,1.995532 -6.944493,2.74313 -10.909082,2.204453 m -0.0087,0"
     id="path10"
     inkscape:connector-curvature="0" />
</svg>
