<?xml version="1.0" encoding="UTF-8" standalone="no"?>
<svg
   xmlns:dc="http://purl.org/dc/elements/1.1/"
   xmlns:cc="http://creativecommons.org/ns#"
   xmlns:rdf="http://www.w3.org/1999/02/22-rdf-syntax-ns#"
   xmlns:svg="http://www.w3.org/2000/svg"
   xmlns="http://www.w3.org/2000/svg"
   xmlns:sodipodi="http://sodipodi.sourceforge.net/DTD/sodipodi-0.dtd"
   xmlns:inkscape="http://www.inkscape.org/namespaces/inkscape"
   height="64"
   version="1.1"
   width="64"
   id="svg13"
   sodipodi:docname="amarok_random_no.svg"
   style="enable-background:new"
   inkscape:version="0.92.4 (5da689c313, 2019-01-14)">
  <sodipodi:namedview
     pagecolor="#ffffff"
     bordercolor="#666666"
     borderopacity="1"
     objecttolerance="10"
     gridtolerance="10"
     guidetolerance="10"
     inkscape:pageopacity="0"
     inkscape:pageshadow="2"
     inkscape:window-width="1362"
     inkscape:window-height="695"
     id="namedview15"
     showgrid="true"
     inkscape:zoom="10.729167"
     inkscape:cx="7.9223306"
     inkscape:cy="24"
     inkscape:window-x="0"
     inkscape:window-y="0"
     inkscape:window-maximized="1"
     inkscape:current-layer="layer9">
    <inkscape:grid
       type="xygrid"
       id="grid831" />
  </sodipodi:namedview>
  <metadata
     id="metadata90">
    <rdf:RDF>
      <cc:Work
         rdf:about="">
        <dc:format>image/svg+xml</dc:format>
        <dc:type
           rdf:resource="http://purl.org/dc/dcmitype/StillImage" />
        <dc:title></dc:title>
      </cc:Work>
    </rdf:RDF>
  </metadata>
  <defs
     id="defs7386" />
  <g
     inkscape:groupmode="layer"
     id="layer9"
     inkscape:label="status"
     transform="translate(-481.0002,271)">
    <g
       id="g829"
       transform="matrix(3.7333333,0,0,3.8,-1314.4681,579.4)"
       style="fill:#b3b3b3;fill-opacity:1;stroke:none">
      <path
         style="color:#555555;fill:#b3b3b3;fill-opacity:1;stroke:none"
         sodipodi:nodetypes="cccssssccssssc"
         id="path4544-6"
         d="m 482.00045,-220 v 0.9375 1.0625 h 4 c 0.5713,0 1,0.4287 1,1 v 4 c 0,1.6447 1.3553,3 3,3 h 5 v -2 h -5 c -0.5713,0 -1,-0.4287 -1,-1 v -4 c 0,-1.6447 -1.3553,-3 -3,-3 z"
         inkscape:connector-curvature="0" />
      <path
         style="color:#555555;fill:#b3b3b3;fill-opacity:1;stroke:none"
         sodipodi:nodetypes="ccccccccscccc"
         id="path4544-1-5"
         d="m 490.00045,-220 c -0.22957,0 -0.44085,0.0438 -0.65625,0.0937 0.4813,0.5511 0.86125,1.1776 1.0312,1.9062 h 4.625 v -2 h -5 z m -8,10 h 4 c 0.22957,0 0.44085,-0.0438 0.65625,-0.0937 -0.4813,-0.55115 -0.86125,-1.1777 -1.0312,-1.9063 h -3.62505 z"
         inkscape:connector-curvature="0" />
      <path
         style="fill:#b3b3b3;fill-opacity:1;stroke:none"
         id="path3003-08"
         d="m 493.00045,-222 v 6 l 4,-3 z"
         inkscape:connector-curvature="0" />
      <path
         style="fill:#b3b3b3;fill-opacity:1;stroke:none"
         id="path3773"
         d="m 493.00045,-214 v 6 l 4,-3 z"
         inkscape:connector-curvature="0" />
    </g>
  </g>
</svg>
