<?xml version="1.0" encoding="UTF-8" standalone="no"?>
<svg
   xmlns:dc="http://purl.org/dc/elements/1.1/"
   xmlns:cc="http://creativecommons.org/ns#"
   xmlns:rdf="http://www.w3.org/1999/02/22-rdf-syntax-ns#"
   xmlns:svg="http://www.w3.org/2000/svg"
   xmlns="http://www.w3.org/2000/svg"
   xmlns:sodipodi="http://sodipodi.sourceforge.net/DTD/sodipodi-0.dtd"
   xmlns:inkscape="http://www.inkscape.org/namespaces/inkscape"
   width="64"
   height="64"
   version="1"
   id="svg16"
   sodipodi:docname="amarok_burn.svg"
   inkscape:version="0.92.4 (5da689c313, 2019-01-14)">
  <metadata
     id="metadata22">
    <rdf:RDF>
      <cc:Work
         rdf:about="">
        <dc:format>image/svg+xml</dc:format>
        <dc:type
           rdf:resource="http://purl.org/dc/dcmitype/StillImage" />
        <dc:title></dc:title>
      </cc:Work>
    </rdf:RDF>
  </metadata>
  <defs
     id="defs20" />
  <sodipodi:namedview
     pagecolor="#ffffff"
     bordercolor="#666666"
     borderopacity="1"
     objecttolerance="10"
     gridtolerance="10"
     guidetolerance="10"
     inkscape:pageopacity="0"
     inkscape:pageshadow="2"
     inkscape:window-width="1362"
     inkscape:window-height="695"
     id="namedview18"
     showgrid="true"
     inkscape:zoom="8.046875"
     inkscape:cx="32"
     inkscape:cy="32"
     inkscape:window-x="0"
     inkscape:window-y="0"
     inkscape:window-maximized="1"
     inkscape:current-layer="svg16">
    <inkscape:grid
       type="xygrid"
       id="grid819" />
  </sodipodi:namedview>
  <path
     style="color:#bebebe;font-style:normal;font-variant:normal;font-weight:normal;font-stretch:normal;font-size:medium;line-height:normal;font-family:Sans;-inkscape-font-specification:Sans;text-indent:0;text-align:start;text-decoration:none;text-decoration-line:none;letter-spacing:normal;word-spacing:normal;text-transform:none;writing-mode:lr-tb;direction:ltr;baseline-shift:baseline;text-anchor:start;display:inline;overflow:visible;visibility:visible;fill:#555555;fill-opacity:1;stroke:none;stroke-width:20.72307587;marker:none;filter:url(#filter7554);enable-background:accumulate"
     mask="none"
     clip-path="none"
     d="M 29.846152,4 C 15.659162,4 4,15.659199 4,29.846152 c 0,14.186953 11.659162,25.846151 25.846152,25.846151 1.15631,0 2.286866,-0.105252 3.404647,-0.255207 a 15.794871,15.79487 0 0 1 -3.404647,-9.796073 15.794871,15.79487 0 0 1 2.798878,-8.96875 c -0.86468,0.357926 -1.809942,0.558094 -2.798878,0.558094 -4.056553,0 -7.384214,-3.3277 -7.384214,-7.384215 0,-4.056554 3.327661,-7.384214 7.384214,-7.384214 4.056554,0 7.384214,3.32766 7.384214,7.384214 0,0.997327 -0.202801,1.95068 -0.566506,2.821314 a 15.794871,15.79487 0 0 1 8.977163,-2.821314 15.794871,15.79487 0 0 1 9.793268,3.42428 c 0.151703,-1.124101 0.258013,-2.261168 0.258013,-3.42428 C 55.692304,15.659199 44.033106,4 29.846152,4 Z"
     id="path39797"
     inkscape:connector-curvature="0" />
  <ellipse
     style="fill:#ff5722;stroke-width:0.8974359"
     cx="45.641026"
     cy="45.641026"
     id="circle12-6"
     rx="14.358974"
     ry="14.358974" />
  <path
     inkscape:connector-curvature="0"
     style="fill:#ffffff;stroke-width:0.8974359"
     d="m 47.304871,38.461536 c -4.404616,1.794872 -7.048461,6.002052 -7.048461,8.97436 0,2.938921 2.312513,5.323588 5.184845,5.379409 -1.435323,-0.0287 -2.591615,-1.218181 -2.591615,-2.687102 0,-1.486926 1.321583,-3.589744 3.524231,-4.48718 0,3.141026 2.364923,3.595128 1.762097,5.384614 -0.341797,1.014695 -1.175515,1.784839 -2.620871,1.793113 0.0085,4.5e-5 0.01821,9.87e-4 0.02745,9.87e-4 2.919539,0 4.599,-1.549332 5.286255,-3.589741 1.205616,-3.579155 -3.524229,-4.487181 -3.524229,-10.769231 z"
     id="path14-7" />
</svg>
